<svg width="70" height="42" viewBox="0 0 70 42" fill="none" xmlns="http://www.w3.org/2000/svg">
<g clip-path="url(#clip0_0_281)">
<path d="M20.3229 15.4821C20.3229 16.3126 20.4127 16.986 20.5698 17.4799C20.7494 17.9737 20.9739 18.5124 21.2881 19.096C21.4004 19.2756 21.4452 19.4552 21.4452 19.6123C21.4452 19.8368 21.3106 20.0613 21.0188 20.2857L19.6046 21.2285C19.4026 21.3632 19.2006 21.4305 19.021 21.4305C18.7965 21.4305 18.572 21.3183 18.3476 21.1163C18.0333 20.7796 17.7639 20.4204 17.5395 20.0613C17.315 19.6797 17.0905 19.2532 16.8436 18.7369C15.0928 20.802 12.893 21.8346 10.2442 21.8346C8.35867 21.8346 6.85473 21.2958 5.75482 20.2184C4.65492 19.1409 4.09375 17.7043 4.09375 15.9086C4.09375 14.0006 4.76716 12.4517 6.13642 11.2845C7.50569 10.1173 9.32389 9.53364 11.6359 9.53364C12.3991 9.53364 13.1848 9.60098 14.0153 9.71321C14.8458 9.82545 15.6988 10.005 16.5967 10.207V8.56842C16.5967 6.86245 16.2376 5.67276 15.5417 4.97691C14.8234 4.28105 13.6113 3.94435 11.8828 3.94435C11.0972 3.94435 10.2891 4.03413 9.45857 4.23616C8.62804 4.43818 7.81995 4.6851 7.0343 4.99935C6.67515 5.15648 6.40579 5.24627 6.24866 5.29116C6.09153 5.33606 5.97929 5.3585 5.88951 5.3585C5.57525 5.3585 5.41812 5.13404 5.41812 4.66265V3.56275C5.41812 3.2036 5.46301 2.93423 5.57525 2.7771C5.68748 2.61998 5.88951 2.46285 6.20376 2.30572C6.98941 1.90167 7.93218 1.56497 9.03208 1.2956C10.132 1.00379 11.2992 0.869113 12.5338 0.869113C15.205 0.869113 17.1579 1.47518 18.4149 2.68732C19.6495 3.89945 20.278 5.7401 20.278 8.20927V15.4821H20.3229ZM11.2094 18.894C11.9502 18.894 12.7134 18.7593 13.5215 18.49C14.3296 18.2206 15.0479 17.7268 15.6539 17.0534C16.0131 16.6269 16.2824 16.1555 16.4171 15.6168C16.5518 15.078 16.6416 14.4271 16.6416 13.6639V12.7211C15.9906 12.564 15.2948 12.4293 14.5765 12.3395C13.8582 12.2497 13.1623 12.2048 12.4665 12.2048C10.9625 12.2048 9.86262 12.4966 9.12187 13.1027C8.38112 13.7088 8.02197 14.5618 8.02197 15.6841C8.02197 16.7391 8.29133 17.5248 8.8525 18.0635C9.39123 18.6247 10.1769 18.894 11.2094 18.894ZM29.2343 21.3183C28.8303 21.3183 28.5609 21.251 28.3814 21.0938C28.2018 20.9591 28.0447 20.6449 27.91 20.2184L22.6349 2.86689C22.5003 2.41795 22.4329 2.12614 22.4329 1.96901C22.4329 1.60986 22.6125 1.40784 22.9716 1.40784H25.1714C25.5979 1.40784 25.8897 1.47518 26.0469 1.63231C26.2264 1.76699 26.3611 2.08125 26.4958 2.50774L30.2669 17.3676L33.7686 2.50774C33.8809 2.0588 34.0155 1.76699 34.1951 1.63231C34.3747 1.49763 34.689 1.40784 35.093 1.40784H36.8888C37.3152 1.40784 37.6071 1.47518 37.7866 1.63231C37.9662 1.76699 38.1233 2.08125 38.2131 2.50774L41.7597 17.5472L45.6431 2.50774C45.7777 2.0588 45.9349 1.76699 46.092 1.63231C46.2716 1.49763 46.5634 1.40784 46.9674 1.40784H49.055C49.4142 1.40784 49.6162 1.58742 49.6162 1.96901C49.6162 2.08125 49.5937 2.19348 49.5713 2.32817C49.5488 2.46285 49.5039 2.64242 49.4142 2.88934L44.0044 20.2408C43.8698 20.6898 43.7126 20.9816 43.5331 21.1163C43.3535 21.251 43.0617 21.3407 42.6801 21.3407H40.7496C40.3231 21.3407 40.0313 21.2734 39.8517 21.1163C39.6722 20.9591 39.515 20.6673 39.4253 20.2184L35.946 5.7401L32.4892 20.1959C32.3769 20.6449 32.2422 20.9367 32.0627 21.0938C31.8831 21.251 31.5688 21.3183 31.1648 21.3183H29.2343ZM58.0787 21.9244C56.9114 21.9244 55.7442 21.7897 54.6218 21.5203C53.4995 21.251 52.6241 20.9591 52.0404 20.6224C51.6813 20.4204 51.4344 20.1959 51.3446 19.9939C51.2548 19.7919 51.2099 19.5674 51.2099 19.3654V18.2206C51.2099 17.7492 51.3895 17.5248 51.7262 17.5248C51.8609 17.5248 51.9956 17.5472 52.1302 17.5921C52.2649 17.637 52.4669 17.7268 52.6914 17.8166C53.4546 18.1533 54.2851 18.4226 55.1606 18.6022C56.0585 18.7818 56.9339 18.8716 57.8318 18.8716C59.2459 18.8716 60.3458 18.6247 61.109 18.1308C61.8722 17.637 62.2763 16.9187 62.2763 15.9984C62.2763 15.3698 62.0742 14.8536 61.6702 14.4271C61.2662 14.0006 60.503 13.619 59.403 13.2598L56.1482 12.2497C54.5096 11.7334 53.2975 10.9702 52.5567 9.96013C51.816 8.97246 51.4344 7.87256 51.4344 6.70532C51.4344 5.76255 51.6364 4.93201 52.0404 4.21371C52.4445 3.49541 52.9832 2.86689 53.6566 2.37306C54.33 1.85678 55.0932 1.47518 55.9911 1.20582C56.889 0.936454 57.8318 0.824219 58.8194 0.824219C59.3133 0.824219 59.8295 0.846666 60.3234 0.914007C60.8397 0.981347 61.311 1.07114 61.7824 1.16092C62.2314 1.27316 62.6579 1.38539 63.0619 1.52007C63.4659 1.65476 63.7802 1.78944 64.0047 1.92412C64.3189 2.1037 64.5434 2.28327 64.6781 2.48529C64.8128 2.66487 64.8801 2.91179 64.8801 3.22604V4.28105C64.8801 4.75244 64.7005 4.99935 64.3638 4.99935C64.1843 4.99935 63.8924 4.90956 63.5108 4.72999C62.2314 4.14637 60.7948 3.85456 59.201 3.85456C57.9216 3.85456 56.9114 4.05658 56.2156 4.48307C55.5197 4.90956 55.1606 5.56053 55.1606 6.48085C55.1606 7.10937 55.385 7.64809 55.834 8.07459C56.2829 8.50108 57.1135 8.92757 58.3032 9.30917L61.4906 10.3193C63.1068 10.8356 64.274 11.5539 64.9699 12.4742C65.6657 13.3945 66.0025 14.4495 66.0025 15.6168C66.0025 16.582 65.8004 17.4574 65.4188 18.2206C65.0148 18.9838 64.4761 19.6572 63.7802 20.1959C63.0844 20.7571 62.2538 21.1612 61.2886 21.453C60.2785 21.7672 59.2235 21.9244 58.0787 21.9244Z" fill="#4E5D78"/>
<path fill-rule="evenodd" clip-rule="evenodd" d="M62.3188 32.8343C54.9337 38.2889 44.2041 41.1846 34.9784 41.1846C22.0489 41.1846 10.399 36.4034 1.59975 28.4572C0.903892 27.8287 1.53241 26.9757 2.36294 27.4695C11.8805 32.9915 23.6202 36.3361 35.764 36.3361C43.9572 36.3361 52.9584 34.6301 61.2413 31.1284C62.4759 30.5672 63.5309 31.9365 62.3188 32.8343Z" fill="#4E5D78"/>
<path fill-rule="evenodd" clip-rule="evenodd" d="M65.3918 29.3327C64.449 28.1205 59.1515 28.749 56.7497 29.0409C56.0314 29.1306 55.9192 28.5021 56.5701 28.0307C60.7901 25.0677 67.7263 25.9207 68.5344 26.9084C69.3424 27.9185 68.3099 34.8546 64.3592 38.1768C63.7531 38.693 63.1695 38.4237 63.4389 37.7503C64.3368 35.528 66.3345 30.5224 65.3918 29.3327Z" fill="#4E5D78"/>
</g>
<defs>
<clipPath id="clip0_0_281">
<rect width="68.2387" height="40.8535" fill="white" transform="translate(0.925781 0.576172)"/>
</clipPath>
</defs>
</svg>
