<svg width="371" height="436" viewBox="0 0 371 436" fill="none" xmlns="http://www.w3.org/2000/svg">
<rect x="0.830811" y="0.53418" width="370.04" height="434.96" rx="14.9978" fill="white"/>
<path d="M55.5201 111.361H80.8529C84.6936 111.361 87.799 114.421 87.799 118.206V142.203C87.799 145.988 84.6936 149.048 80.8529 149.048H55.5201C51.6793 149.048 48.574 145.988 48.574 142.203V118.206C48.574 114.421 51.6793 111.361 55.5201 111.361Z" fill="#00005B"/>
<path d="M57.8882 137.774V121.185C57.8882 121.072 57.9372 121.008 58.0516 121.008C58.3295 121.008 58.591 121.008 58.9669 120.992C59.3591 120.976 59.7677 120.976 60.209 120.96C60.6503 120.944 61.1242 120.944 61.6309 120.927C62.1376 120.911 62.6279 120.911 63.1182 120.911C64.4584 120.911 65.5697 121.072 66.485 121.411C67.3022 121.684 68.054 122.135 68.6751 122.731C69.1981 123.247 69.6066 123.875 69.8681 124.567C70.1133 125.244 70.2441 125.936 70.2441 126.661C70.2441 128.046 69.9172 129.19 69.2634 130.091C68.6097 130.993 67.6944 131.67 66.6321 132.056C65.5207 132.459 64.2949 132.604 62.9547 132.604C62.5625 132.604 62.301 132.604 62.1376 132.588C61.9741 132.572 61.7453 132.572 61.4348 132.572V137.742C61.4511 137.854 61.3694 137.951 61.255 137.967H61.1896H58.0843C57.9536 137.967 57.8882 137.903 57.8882 137.758V137.774ZM61.4511 124.132V129.544C61.6799 129.56 61.8924 129.576 62.0885 129.576H62.9547C63.5921 129.576 64.2296 129.479 64.8343 129.286C65.3573 129.141 65.8149 128.835 66.1745 128.433C66.5177 128.03 66.6811 127.482 66.6811 126.774C66.6975 126.274 66.5667 125.775 66.3052 125.34C66.0274 124.922 65.6351 124.6 65.1611 124.422C64.5564 124.181 63.9027 124.084 63.2326 124.1C62.8076 124.1 62.4317 124.1 62.1212 124.116C61.7943 124.1 61.5655 124.116 61.4511 124.132Z" fill="#9999FF"/>
<path d="M72.5985 125.083H75.4586C75.622 125.083 75.7528 125.195 75.8018 125.34C75.8509 125.469 75.8835 125.598 75.8999 125.743C75.9326 125.904 75.9653 126.081 75.9816 126.242C75.998 126.419 76.0143 126.613 76.0143 126.822C76.5046 126.258 77.093 125.791 77.7631 125.437C78.5149 125.018 79.3811 124.809 80.2473 124.809C80.3617 124.793 80.4598 124.873 80.4761 124.986V125.05V128.191C80.4761 128.32 80.3944 128.368 80.2146 128.368C79.6263 128.352 79.0215 128.4 78.4495 128.529C77.9755 128.626 77.5179 128.771 77.0766 128.964C76.7661 129.109 76.4719 129.302 76.2431 129.56V137.774C76.2431 137.935 76.1777 137.999 76.0306 137.999H72.8109C72.6802 138.015 72.5658 137.935 72.5494 137.806V137.741V128.819C72.5494 128.433 72.5494 128.03 72.5331 127.611C72.5167 127.192 72.5167 126.774 72.5004 126.355C72.5004 125.985 72.4677 125.63 72.435 125.26C72.4187 125.179 72.4677 125.099 72.5494 125.083C72.5494 125.067 72.5821 125.067 72.5985 125.083Z" fill="#9999FF"/>
<path d="M98.0223 127.437V117.338H101.81C102.585 117.338 103.236 117.482 103.762 117.772C104.292 118.061 104.691 118.459 104.961 118.965C105.234 119.468 105.37 120.04 105.37 120.681C105.37 121.329 105.234 121.904 104.961 122.407C104.688 122.91 104.285 123.306 103.753 123.596C103.22 123.882 102.564 124.025 101.785 124.025H99.2748V122.521H101.538C101.992 122.521 102.364 122.442 102.653 122.284C102.942 122.126 103.156 121.909 103.294 121.633C103.435 121.357 103.506 121.04 103.506 120.681C103.506 120.323 103.435 120.007 103.294 119.734C103.156 119.462 102.941 119.249 102.648 119.098C102.359 118.944 101.985 118.866 101.528 118.866H99.8518V127.437H98.0223ZM106.88 127.437V119.863H108.611V121.125H108.69C108.828 120.688 109.065 120.351 109.4 120.114C109.739 119.874 110.125 119.754 110.559 119.754C110.658 119.754 110.768 119.759 110.89 119.769C111.014 119.775 111.118 119.787 111.2 119.803V121.446C111.125 121.419 111.005 121.396 110.84 121.377C110.679 121.354 110.523 121.342 110.372 121.342C110.046 121.342 109.754 121.413 109.494 121.554C109.238 121.692 109.035 121.884 108.887 122.131C108.739 122.378 108.665 122.662 108.665 122.984V127.437H106.88ZM115.428 127.585C114.668 127.585 114.012 127.427 113.46 127.112C112.911 126.793 112.489 126.342 112.193 125.761C111.897 125.175 111.749 124.487 111.749 123.694C111.749 122.915 111.897 122.231 112.193 121.643C112.492 121.051 112.909 120.591 113.445 120.262C113.981 119.93 114.611 119.764 115.334 119.764C115.801 119.764 116.241 119.84 116.656 119.991C117.073 120.139 117.441 120.369 117.76 120.681C118.082 120.994 118.336 121.391 118.52 121.875C118.704 122.355 118.796 122.927 118.796 123.591V124.138H112.587V122.935H117.085C117.081 122.593 117.007 122.289 116.863 122.023C116.718 121.753 116.516 121.541 116.256 121.386C116 121.232 115.701 121.155 115.359 121.155C114.994 121.155 114.673 121.243 114.397 121.421C114.121 121.595 113.906 121.825 113.751 122.111C113.6 122.394 113.522 122.705 113.519 123.043V124.094C113.519 124.534 113.6 124.912 113.761 125.228C113.922 125.54 114.147 125.78 114.436 125.948C114.726 126.112 115.064 126.195 115.452 126.195C115.712 126.195 115.947 126.158 116.158 126.086C116.368 126.01 116.55 125.9 116.705 125.756C116.859 125.611 116.976 125.432 117.055 125.218L118.722 125.406C118.617 125.846 118.416 126.231 118.12 126.559C117.828 126.885 117.453 127.138 116.996 127.319C116.539 127.496 116.016 127.585 115.428 127.585ZM120.306 127.437V119.863H122.012V121.15H122.101C122.259 120.716 122.52 120.377 122.885 120.134C123.25 119.887 123.686 119.764 124.192 119.764C124.705 119.764 125.137 119.889 125.489 120.139C125.844 120.385 126.094 120.722 126.239 121.15H126.317C126.485 120.729 126.768 120.394 127.166 120.144C127.567 119.891 128.042 119.764 128.591 119.764C129.288 119.764 129.857 119.984 130.297 120.425C130.738 120.865 130.958 121.508 130.958 122.353V127.437H129.168V122.629C129.168 122.159 129.043 121.815 128.793 121.598C128.543 121.378 128.237 121.268 127.876 121.268C127.445 121.268 127.108 121.403 126.865 121.672C126.625 121.939 126.505 122.286 126.505 122.713V127.437H124.754V122.555C124.754 122.164 124.636 121.852 124.399 121.618C124.166 121.385 123.86 121.268 123.482 121.268C123.225 121.268 122.992 121.334 122.782 121.465C122.571 121.594 122.404 121.776 122.279 122.013C122.154 122.246 122.091 122.519 122.091 122.831V127.437H120.306ZM132.769 127.437V119.863H134.554V127.437H132.769ZM133.666 118.788C133.384 118.788 133.14 118.694 132.937 118.506C132.733 118.316 132.631 118.087 132.631 117.821C132.631 117.551 132.733 117.323 132.937 117.136C133.14 116.945 133.384 116.85 133.666 116.85C133.952 116.85 134.196 116.945 134.396 117.136C134.6 117.323 134.702 117.551 134.702 117.821C134.702 118.087 134.6 118.316 134.396 118.506C134.196 118.694 133.952 118.788 133.666 118.788ZM139.743 127.585C138.984 127.585 138.328 127.427 137.776 127.112C137.227 126.793 136.804 126.342 136.508 125.761C136.212 125.175 136.064 124.487 136.064 123.694C136.064 122.915 136.212 122.231 136.508 121.643C136.807 121.051 137.225 120.591 137.761 120.262C138.297 119.93 138.926 119.764 139.65 119.764C140.116 119.764 140.557 119.84 140.971 119.991C141.389 120.139 141.757 120.369 142.076 120.681C142.398 120.994 142.651 121.391 142.835 121.875C143.019 122.355 143.111 122.927 143.111 123.591V124.138H136.903V122.935H141.4C141.397 122.593 141.323 122.289 141.178 122.023C141.034 121.753 140.831 121.541 140.572 121.386C140.315 121.232 140.016 121.155 139.674 121.155C139.309 121.155 138.989 121.243 138.713 121.421C138.436 121.595 138.221 121.825 138.067 122.111C137.915 122.394 137.838 122.705 137.835 123.043V124.094C137.835 124.534 137.915 124.912 138.076 125.228C138.237 125.54 138.463 125.78 138.752 125.948C139.041 126.112 139.38 126.195 139.768 126.195C140.028 126.195 140.263 126.158 140.473 126.086C140.683 126.01 140.866 125.9 141.02 125.756C141.175 125.611 141.292 125.432 141.371 125.218L143.037 125.406C142.932 125.846 142.732 126.231 142.436 126.559C142.143 126.885 141.768 127.138 141.311 127.319C140.854 127.496 140.332 127.585 139.743 127.585ZM144.622 127.437V119.863H146.353V121.125H146.431C146.57 120.688 146.806 120.351 147.142 120.114C147.48 119.874 147.866 119.754 148.3 119.754C148.399 119.754 148.509 119.759 148.631 119.769C148.756 119.775 148.859 119.787 148.942 119.803V121.446C148.866 121.419 148.746 121.396 148.582 121.377C148.42 121.354 148.264 121.342 148.113 121.342C147.788 121.342 147.495 121.413 147.235 121.554C146.979 121.692 146.777 121.884 146.629 122.131C146.481 122.378 146.407 122.662 146.407 122.984V127.437H144.622ZM153.169 127.585C152.41 127.585 151.754 127.427 151.201 127.112C150.652 126.793 150.23 126.342 149.934 125.761C149.638 125.175 149.49 124.487 149.49 123.694C149.49 122.915 149.638 122.231 149.934 121.643C150.233 121.051 150.651 120.591 151.187 120.262C151.722 119.93 152.352 119.764 153.075 119.764C153.542 119.764 153.983 119.84 154.397 119.991C154.814 120.139 155.183 120.369 155.502 120.681C155.824 120.994 156.077 121.391 156.261 121.875C156.445 122.355 156.537 122.927 156.537 123.591V124.138H150.328V122.935H154.826C154.823 122.593 154.749 122.289 154.604 122.023C154.459 121.753 154.257 121.541 153.997 121.386C153.741 121.232 153.442 121.155 153.1 121.155C152.735 121.155 152.414 121.243 152.138 121.421C151.862 121.595 151.647 121.825 151.492 122.111C151.341 122.394 151.264 122.705 151.261 123.043V124.094C151.261 124.534 151.341 124.912 151.502 125.228C151.663 125.54 151.888 125.78 152.178 125.948C152.467 126.112 152.806 126.195 153.194 126.195C153.453 126.195 153.688 126.158 153.899 126.086C154.109 126.01 154.292 125.9 154.446 125.756C154.601 125.611 154.717 125.432 154.796 125.218L156.463 125.406C156.358 125.846 156.157 126.231 155.862 126.559C155.569 126.885 155.194 127.138 154.737 127.319C154.28 127.496 153.757 127.585 153.169 127.585ZM161.571 127.437V117.338H165.358C166.134 117.338 166.785 117.482 167.311 117.772C167.84 118.061 168.24 118.459 168.509 118.965C168.782 119.468 168.919 120.04 168.919 120.681C168.919 121.329 168.782 121.904 168.509 122.407C168.236 122.91 167.834 123.306 167.301 123.596C166.769 123.882 166.113 124.025 165.334 124.025H162.823V122.521H165.087C165.541 122.521 165.912 122.442 166.201 122.284C166.491 122.126 166.704 121.909 166.843 121.633C166.984 121.357 167.055 121.04 167.055 120.681C167.055 120.323 166.984 120.007 166.843 119.734C166.704 119.462 166.489 119.249 166.196 119.098C165.907 118.944 165.534 118.866 165.077 118.866H163.4V127.437H161.571ZM170.429 127.437V119.863H172.16V121.125H172.239C172.377 120.688 172.613 120.351 172.949 120.114C173.287 119.874 173.674 119.754 174.108 119.754C174.206 119.754 174.316 119.759 174.438 119.769C174.563 119.775 174.667 119.787 174.749 119.803V121.446C174.673 121.419 174.553 121.396 174.389 121.377C174.228 121.354 174.072 121.342 173.92 121.342C173.595 121.342 173.302 121.413 173.043 121.554C172.786 121.692 172.584 121.884 172.436 122.131C172.288 122.378 172.214 122.662 172.214 122.984V127.437H170.429ZM178.927 127.585C178.187 127.585 177.546 127.422 177.004 127.097C176.461 126.772 176.04 126.316 175.741 125.731C175.445 125.146 175.297 124.462 175.297 123.68C175.297 122.897 175.445 122.212 175.741 121.623C176.04 121.035 176.461 120.578 177.004 120.252C177.546 119.927 178.187 119.764 178.927 119.764C179.667 119.764 180.308 119.927 180.85 120.252C181.393 120.578 181.812 121.035 182.108 121.623C182.407 122.212 182.556 122.897 182.556 123.68C182.556 124.462 182.407 125.146 182.108 125.731C181.812 126.316 181.393 126.772 180.85 127.097C180.308 127.422 179.667 127.585 178.927 127.585ZM178.937 126.155C179.338 126.155 179.673 126.045 179.943 125.825C180.212 125.601 180.413 125.302 180.544 124.927C180.679 124.552 180.747 124.135 180.747 123.675C180.747 123.211 180.679 122.792 180.544 122.417C180.413 122.039 180.212 121.738 179.943 121.515C179.673 121.291 179.338 121.179 178.937 121.179C178.526 121.179 178.184 121.291 177.911 121.515C177.641 121.738 177.439 122.039 177.304 122.417C177.173 122.792 177.107 123.211 177.107 123.675C177.107 124.135 177.173 124.552 177.304 124.927C177.439 125.302 177.641 125.601 177.911 125.825C178.184 126.045 178.526 126.155 178.937 126.155Z" fill="#4E5D78"/>
<path d="M51.6342 94.749H50.38L53.1981 86.918H54.5631L57.3812 94.749H56.127L53.9131 88.3404H53.8519L51.6342 94.749ZM51.8445 91.6824H55.9129V92.6766H51.8445V91.6824ZM60.5243 94.8637C60.0502 94.8637 59.627 94.7427 59.2549 94.5005C58.8852 94.2558 58.5946 93.9078 58.383 93.4566C58.174 93.0029 58.0695 92.4586 58.0695 91.8239C58.0695 91.1891 58.1753 90.6462 58.3869 90.195C58.601 89.7438 58.8942 89.3983 59.2663 89.1587C59.6385 88.9191 60.0604 88.7993 60.532 88.7993C60.8965 88.7993 61.1897 88.8605 61.4114 88.9828C61.6358 89.1026 61.8091 89.2428 61.9315 89.4034C62.0564 89.564 62.1533 89.7055 62.2221 89.8279H62.2909V86.918H63.4342V94.749H62.3177V93.8352H62.2221C62.1533 93.9601 62.0538 94.1028 61.9238 94.2634C61.7964 94.424 61.6205 94.5642 61.3962 94.684C61.1718 94.8038 60.8812 94.8637 60.5243 94.8637ZM60.7767 93.8887C61.1055 93.8887 61.3834 93.802 61.6103 93.6287C61.8397 93.4528 62.013 93.2093 62.1303 92.8983C62.2501 92.5873 62.31 92.2254 62.31 91.8124C62.31 91.4045 62.2514 91.0476 62.1341 90.7417C62.0169 90.4358 61.8448 90.1975 61.6179 90.0267C61.3911 89.8559 61.1106 89.7705 60.7767 89.7705C60.4326 89.7705 60.1458 89.8597 59.9164 90.0382C59.6869 90.2166 59.5136 90.4601 59.3963 90.7685C59.2816 91.077 59.2243 91.4249 59.2243 91.8124C59.2243 92.205 59.2829 92.558 59.4002 92.8716C59.5174 93.1851 59.6908 93.4337 59.9202 93.6172C60.1522 93.7982 60.4377 93.8887 60.7767 93.8887ZM67.5399 94.8676C66.9893 94.8676 66.5088 94.7414 66.0984 94.489C65.688 94.2366 65.3693 93.8836 65.1425 93.4298C64.9156 92.9761 64.8021 92.4459 64.8021 91.8392C64.8021 91.2299 64.9156 90.6971 65.1425 90.2408C65.3693 89.7845 65.688 89.4302 66.0984 89.1778C66.5088 88.9255 66.9893 88.7993 67.5399 88.7993C68.0906 88.7993 68.5711 88.9255 68.9815 89.1778C69.3919 89.4302 69.7105 89.7845 69.9374 90.2408C70.1643 90.6971 70.2777 91.2299 70.2777 91.8392C70.2777 92.4459 70.1643 92.9761 69.9374 93.4298C69.7105 93.8836 69.3919 94.2366 68.9815 94.489C68.5711 94.7414 68.0906 94.8676 67.5399 94.8676ZM67.5438 93.9078C67.9006 93.9078 68.1963 93.8135 68.4309 93.6248C68.6654 93.4362 68.8387 93.1851 68.9509 92.8716C69.0656 92.558 69.123 92.2126 69.123 91.8353C69.123 91.4606 69.0656 91.1165 68.9509 90.8029C68.8387 90.4868 68.6654 90.2332 68.4309 90.042C68.1963 89.8508 67.9006 89.7552 67.5438 89.7552C67.1843 89.7552 66.8861 89.8508 66.649 90.042C66.4145 90.2332 66.2399 90.4868 66.1252 90.8029C66.013 91.1165 65.9569 91.4606 65.9569 91.8353C65.9569 92.2126 66.013 92.558 66.1252 92.8716C66.2399 93.1851 66.4145 93.4362 66.649 93.6248C66.8861 93.8135 67.1843 93.9078 67.5438 93.9078ZM71.6457 94.749V86.918H72.789V89.8279H72.8578C72.9241 89.7055 73.0197 89.564 73.1446 89.4034C73.2695 89.2428 73.4428 89.1026 73.6646 88.9828C73.8864 88.8605 74.1795 88.7993 74.5441 88.7993C75.0182 88.7993 75.4414 88.9191 75.8135 89.1587C76.1857 89.3983 76.4776 89.7438 76.6892 90.195C76.9033 90.6462 77.0104 91.1891 77.0104 91.8239C77.0104 92.4586 76.9046 93.0029 76.693 93.4566C76.4814 93.9078 76.1908 94.2558 75.8212 94.5005C75.4516 94.7427 75.0297 94.8637 74.5555 94.8637C74.1987 94.8637 73.9068 94.8038 73.6799 94.684C73.4556 94.5642 73.2797 94.424 73.1522 94.2634C73.0248 94.1028 72.9266 93.9601 72.8578 93.8352H72.7622V94.749H71.6457ZM72.766 91.8124C72.766 92.2254 72.8259 92.5873 72.9457 92.8983C73.0656 93.2093 73.2389 93.4528 73.4658 93.6287C73.6926 93.802 73.9705 93.8887 74.2993 93.8887C74.6409 93.8887 74.9264 93.7982 75.1559 93.6172C75.3853 93.4337 75.5586 93.1851 75.6759 92.8716C75.7957 92.558 75.8556 92.205 75.8556 91.8124C75.8556 91.4249 75.797 91.077 75.6797 90.7685C75.565 90.4601 75.3917 90.2166 75.1597 90.0382C74.9303 89.8597 74.6435 89.7705 74.2993 89.7705C73.968 89.7705 73.6876 89.8559 73.4581 90.0267C73.2313 90.1975 73.0592 90.4358 72.9419 90.7417C72.8247 91.0476 72.766 91.4045 72.766 91.8124ZM80.8255 94.8676C80.2469 94.8676 79.7485 94.7439 79.3304 94.4967C78.9149 94.2468 78.5937 93.8963 78.3668 93.4451C78.1425 92.9914 78.0304 92.4599 78.0304 91.8506C78.0304 91.249 78.1425 90.7188 78.3668 90.26C78.5937 89.8011 78.9098 89.443 79.3151 89.1855C79.723 88.928 80.1997 88.7993 80.7452 88.7993C81.0766 88.7993 81.3978 88.8541 81.7088 88.9637C82.0198 89.0733 82.2989 89.2454 82.5462 89.4799C82.7935 89.7144 82.9885 90.0191 83.1312 90.3938C83.274 90.766 83.3454 91.2184 83.3454 91.7512V92.1565H78.6766V91.3H82.225C82.225 90.9992 82.1638 90.7328 82.0415 90.5009C81.9191 90.2663 81.747 90.0815 81.5253 89.9464C81.306 89.8113 81.0486 89.7438 80.7529 89.7438C80.4317 89.7438 80.1513 89.8228 79.9116 89.9808C79.6746 90.1363 79.491 90.3403 79.361 90.5926C79.2336 90.8424 79.1698 91.1139 79.1698 91.4071V92.0762C79.1698 92.4688 79.2387 92.8027 79.3763 93.0781C79.5165 93.3534 79.7115 93.5637 79.9613 93.709C80.2112 93.8517 80.503 93.9231 80.837 93.9231C81.0537 93.9231 81.2512 93.8925 81.4297 93.8313C81.6081 93.7676 81.7623 93.6733 81.8923 93.5484C82.0223 93.4235 82.1218 93.2692 82.1906 93.0857L83.2727 93.2807C83.186 93.5994 83.0305 93.8785 82.8062 94.1181C82.5844 94.3552 82.3053 94.54 81.9688 94.6725C81.6349 94.8026 81.2538 94.8676 80.8255 94.8676Z" fill="#B0B7C3"/>
<path d="M102.158 140.506C102.117 140.144 101.949 139.864 101.653 139.665C101.357 139.463 100.985 139.363 100.536 139.363C100.215 139.363 99.9373 139.414 99.7027 139.516C99.4682 139.615 99.286 139.753 99.1559 139.929C99.0285 140.102 98.9648 140.299 98.9648 140.521C98.9648 140.707 99.0081 140.868 99.0948 141.003C99.184 141.138 99.3 141.252 99.4427 141.343C99.588 141.433 99.7435 141.508 99.9092 141.569C100.075 141.628 100.234 141.676 100.387 141.714L101.152 141.913C101.402 141.974 101.658 142.057 101.921 142.162C102.183 142.266 102.427 142.404 102.651 142.575C102.875 142.745 103.056 142.957 103.194 143.209C103.334 143.462 103.404 143.764 103.404 144.116C103.404 144.559 103.289 144.953 103.06 145.297C102.833 145.641 102.503 145.913 102.07 146.112C101.639 146.31 101.118 146.41 100.506 146.41C99.9194 146.41 99.4121 146.317 98.9839 146.131C98.5556 145.945 98.2204 145.681 97.9782 145.339C97.7361 144.995 97.6022 144.587 97.5767 144.116H98.7621C98.785 144.399 98.8768 144.634 99.0374 144.823C99.2006 145.009 99.4083 145.148 99.6607 145.24C99.9156 145.329 100.195 145.374 100.498 145.374C100.832 145.374 101.129 145.321 101.389 145.217C101.652 145.11 101.858 144.962 102.008 144.773C102.159 144.582 102.234 144.359 102.234 144.104C102.234 143.872 102.168 143.682 102.035 143.534C101.905 143.386 101.728 143.264 101.504 143.167C101.282 143.07 101.031 142.985 100.75 142.911L99.8251 142.659C99.198 142.488 98.7009 142.237 98.3338 141.905C97.9693 141.574 97.787 141.136 97.787 140.59C97.787 140.139 97.9094 139.745 98.1541 139.409C98.3988 139.072 98.7302 138.811 99.1483 138.625C99.5664 138.436 100.038 138.342 100.563 138.342C101.093 138.342 101.561 138.435 101.966 138.621C102.374 138.807 102.695 139.063 102.93 139.389C103.164 139.713 103.287 140.085 103.297 140.506H102.158ZM108.445 143.844V140.407H109.592V146.28H108.468V145.263H108.407C108.271 145.576 108.055 145.838 107.756 146.047C107.461 146.253 107.092 146.356 106.651 146.356C106.274 146.356 105.94 146.273 105.65 146.108C105.362 145.939 105.135 145.691 104.969 145.362C104.806 145.033 104.724 144.627 104.724 144.142V140.407H105.868V144.005C105.868 144.405 105.978 144.724 106.2 144.961C106.422 145.198 106.71 145.316 107.064 145.316C107.279 145.316 107.491 145.263 107.703 145.156C107.917 145.049 108.094 144.887 108.234 144.67C108.377 144.453 108.447 144.178 108.445 143.844ZM111.22 146.28V138.449H112.363V141.359H112.432C112.498 141.236 112.594 141.095 112.719 140.934C112.844 140.774 113.017 140.633 113.239 140.514C113.461 140.391 113.754 140.33 114.118 140.33C114.592 140.33 115.016 140.45 115.388 140.689C115.76 140.929 116.052 141.275 116.263 141.726C116.477 142.177 116.585 142.72 116.585 143.355C116.585 143.989 116.479 144.534 116.267 144.987C116.056 145.439 115.765 145.787 115.395 146.031C115.026 146.273 114.604 146.394 114.13 146.394C113.773 146.394 113.481 146.335 113.254 146.215C113.03 146.095 112.854 145.955 112.726 145.794C112.599 145.634 112.501 145.491 112.432 145.366H112.336V146.28H111.22ZM112.34 143.343C112.34 143.756 112.4 144.118 112.52 144.429C112.64 144.74 112.813 144.984 113.04 145.159C113.267 145.333 113.545 145.419 113.874 145.419C114.215 145.419 114.501 145.329 114.73 145.148C114.959 144.964 115.133 144.716 115.25 144.402C115.37 144.089 115.43 143.736 115.43 143.343C115.43 142.956 115.371 142.608 115.254 142.299C115.139 141.991 114.966 141.747 114.734 141.569C114.504 141.391 114.218 141.301 113.874 141.301C113.542 141.301 113.262 141.387 113.032 141.557C112.805 141.728 112.633 141.967 112.516 142.273C112.399 142.578 112.34 142.935 112.34 143.343ZM122.269 141.84L121.233 142.024C121.19 141.891 121.121 141.765 121.027 141.645C120.935 141.526 120.81 141.427 120.652 141.351C120.494 141.275 120.296 141.236 120.059 141.236C119.736 141.236 119.465 141.309 119.249 141.454C119.032 141.597 118.924 141.782 118.924 142.009C118.924 142.205 118.996 142.363 119.142 142.483C119.287 142.603 119.521 142.701 119.845 142.777L120.778 142.991C121.319 143.116 121.721 143.309 121.987 143.569C122.252 143.829 122.384 144.167 122.384 144.582C122.384 144.934 122.282 145.247 122.078 145.523C121.877 145.795 121.595 146.01 121.233 146.165C120.874 146.321 120.457 146.398 119.983 146.398C119.325 146.398 118.789 146.258 118.373 145.978C117.958 145.695 117.703 145.293 117.608 144.773L118.713 144.605C118.782 144.893 118.924 145.111 119.138 145.259C119.352 145.404 119.631 145.477 119.975 145.477C120.35 145.477 120.649 145.399 120.874 145.244C121.098 145.086 121.21 144.893 121.21 144.666C121.21 144.483 121.141 144.328 121.004 144.203C120.869 144.079 120.661 143.984 120.381 143.921L119.386 143.703C118.838 143.578 118.433 143.379 118.17 143.106C117.91 142.833 117.78 142.488 117.78 142.07C117.78 141.723 117.877 141.42 118.071 141.16C118.265 140.9 118.532 140.697 118.874 140.552C119.216 140.404 119.607 140.33 120.048 140.33C120.683 140.33 121.182 140.468 121.547 140.743C121.911 141.016 122.152 141.382 122.269 141.84ZM126.115 146.398C125.547 146.398 125.057 146.27 124.647 146.012C124.239 145.752 123.925 145.394 123.706 144.938C123.487 144.481 123.377 143.959 123.377 143.37C123.377 142.773 123.49 142.247 123.714 141.791C123.938 141.332 124.254 140.974 124.662 140.716C125.07 140.459 125.551 140.33 126.104 140.33C126.55 140.33 126.947 140.413 127.297 140.579C127.646 140.742 127.928 140.971 128.142 141.267C128.358 141.563 128.487 141.908 128.528 142.303H127.415C127.354 142.028 127.214 141.791 126.995 141.592C126.778 141.393 126.487 141.294 126.123 141.294C125.804 141.294 125.525 141.378 125.285 141.546C125.048 141.712 124.864 141.949 124.731 142.257C124.598 142.563 124.532 142.925 124.532 143.343C124.532 143.771 124.597 144.141 124.727 144.452C124.857 144.763 125.041 145.004 125.278 145.175C125.517 145.346 125.799 145.431 126.123 145.431C126.34 145.431 126.536 145.391 126.712 145.312C126.89 145.231 127.039 145.115 127.159 144.964C127.281 144.814 127.367 144.633 127.415 144.421H128.528C128.487 144.801 128.364 145.14 128.157 145.439C127.951 145.737 127.674 145.971 127.327 146.142C126.983 146.313 126.579 146.398 126.115 146.398ZM129.751 146.28V140.407H130.856V141.34H130.917C131.024 141.023 131.213 140.775 131.483 140.594C131.756 140.41 132.064 140.319 132.408 140.319C132.479 140.319 132.564 140.321 132.66 140.326C132.76 140.331 132.838 140.338 132.894 140.345V141.439C132.848 141.426 132.766 141.412 132.649 141.397C132.532 141.379 132.414 141.37 132.297 141.37C132.027 141.37 131.786 141.427 131.575 141.542C131.366 141.654 131.2 141.811 131.077 142.012C130.955 142.211 130.894 142.438 130.894 142.693V146.28H129.751ZM133.883 146.28V140.407H135.026V146.28H133.883ZM134.461 139.5C134.262 139.5 134.091 139.434 133.948 139.301C133.808 139.166 133.738 139.006 133.738 138.82C133.738 138.631 133.808 138.47 133.948 138.338C134.091 138.203 134.262 138.135 134.461 138.135C134.659 138.135 134.829 138.203 134.969 138.338C135.112 138.47 135.183 138.631 135.183 138.82C135.183 139.006 135.112 139.166 134.969 139.301C134.829 139.434 134.659 139.5 134.461 139.5ZM136.565 148.482V140.407H137.681V141.359H137.777C137.843 141.236 137.939 141.095 138.063 140.934C138.188 140.774 138.362 140.633 138.583 140.514C138.805 140.391 139.098 140.33 139.463 140.33C139.937 140.33 140.36 140.45 140.732 140.689C141.105 140.929 141.396 141.275 141.608 141.726C141.822 142.177 141.929 142.72 141.929 143.355C141.929 143.989 141.823 144.534 141.612 144.987C141.4 145.439 141.11 145.787 140.74 146.031C140.37 146.273 139.949 146.394 139.474 146.394C139.117 146.394 138.826 146.335 138.599 146.215C138.374 146.095 138.199 145.955 138.071 145.794C137.944 145.634 137.845 145.491 137.777 145.366H137.708V148.482H136.565ZM137.685 143.343C137.685 143.756 137.745 144.118 137.865 144.429C137.984 144.74 138.158 144.984 138.385 145.159C138.611 145.333 138.889 145.419 139.218 145.419C139.56 145.419 139.845 145.329 140.075 145.148C140.304 144.964 140.477 144.716 140.595 144.402C140.715 144.089 140.774 143.736 140.774 143.343C140.774 142.956 140.716 142.608 140.599 142.299C140.484 141.991 140.311 141.747 140.079 141.569C139.849 141.391 139.562 141.301 139.218 141.301C138.887 141.301 138.606 141.387 138.377 141.557C138.15 141.728 137.978 141.967 137.861 142.273C137.744 142.578 137.685 142.935 137.685 143.343ZM145.952 140.407V141.324H142.744V140.407H145.952ZM143.604 138.999H144.747V144.555C144.747 144.777 144.78 144.944 144.847 145.056C144.913 145.166 144.998 145.241 145.103 145.282C145.21 145.32 145.326 145.339 145.451 145.339C145.543 145.339 145.623 145.333 145.692 145.32C145.761 145.307 145.814 145.297 145.852 145.289L146.059 146.234C145.993 146.259 145.898 146.285 145.776 146.31C145.654 146.338 145.501 146.354 145.317 146.356C145.016 146.361 144.736 146.308 144.476 146.196C144.216 146.084 144.006 145.91 143.845 145.676C143.684 145.441 143.604 145.147 143.604 144.792V138.999ZM147.216 146.28V140.407H148.36V146.28H147.216ZM147.794 139.5C147.595 139.5 147.424 139.434 147.281 139.301C147.141 139.166 147.071 139.006 147.071 138.82C147.071 138.631 147.141 138.47 147.281 138.338C147.424 138.203 147.595 138.135 147.794 138.135C147.993 138.135 148.162 138.203 148.302 138.338C148.445 138.47 148.517 138.631 148.517 138.82C148.517 139.006 148.445 139.166 148.302 139.301C148.162 139.434 147.993 139.5 147.794 139.5ZM152.372 146.398C151.821 146.398 151.341 146.272 150.93 146.02C150.52 145.767 150.201 145.414 149.974 144.961C149.747 144.507 149.634 143.977 149.634 143.37C149.634 142.761 149.747 142.228 149.974 141.772C150.201 141.315 150.52 140.961 150.93 140.709C151.341 140.456 151.821 140.33 152.372 140.33C152.922 140.33 153.403 140.456 153.813 140.709C154.224 140.961 154.542 141.315 154.769 141.772C154.996 142.228 155.11 142.761 155.11 143.37C155.11 143.977 154.996 144.507 154.769 144.961C154.542 145.414 154.224 145.767 153.813 146.02C153.403 146.272 152.922 146.398 152.372 146.398ZM152.376 145.439C152.733 145.439 153.028 145.344 153.263 145.156C153.497 144.967 153.671 144.716 153.783 144.402C153.898 144.089 153.955 143.743 153.955 143.366C153.955 142.991 153.898 142.647 153.783 142.334C153.671 142.018 153.497 141.764 153.263 141.573C153.028 141.382 152.733 141.286 152.376 141.286C152.016 141.286 151.718 141.382 151.481 141.573C151.246 141.764 151.072 142.018 150.957 142.334C150.845 142.647 150.789 142.991 150.789 143.366C150.789 143.743 150.845 144.089 150.957 144.402C151.072 144.716 151.246 144.967 151.481 145.156C151.718 145.344 152.016 145.439 152.376 145.439ZM157.529 142.793V146.28H156.386V140.407H157.483V141.362H157.556C157.691 141.051 157.903 140.802 158.191 140.613C158.481 140.424 158.847 140.33 159.288 140.33C159.688 140.33 160.039 140.414 160.34 140.582C160.64 140.748 160.874 140.995 161.039 141.324C161.205 141.653 161.288 142.06 161.288 142.544V146.28H160.145V142.682C160.145 142.256 160.034 141.923 159.812 141.684C159.59 141.441 159.285 141.32 158.898 141.32C158.633 141.32 158.397 141.378 158.191 141.492C157.987 141.607 157.825 141.775 157.705 141.997C157.588 142.216 157.529 142.482 157.529 142.793ZM167.222 141.84L166.186 142.024C166.143 141.891 166.074 141.765 165.98 141.645C165.888 141.526 165.763 141.427 165.605 141.351C165.447 141.275 165.249 141.236 165.012 141.236C164.688 141.236 164.418 141.309 164.202 141.454C163.985 141.597 163.877 141.782 163.877 142.009C163.877 142.205 163.949 142.363 164.094 142.483C164.24 142.603 164.474 142.701 164.798 142.777L165.731 142.991C166.271 143.116 166.674 143.309 166.939 143.569C167.204 143.829 167.337 144.167 167.337 144.582C167.337 144.934 167.235 145.247 167.031 145.523C166.83 145.795 166.548 146.01 166.186 146.165C165.827 146.321 165.41 146.398 164.936 146.398C164.278 146.398 163.741 146.258 163.326 145.978C162.91 145.695 162.655 145.293 162.561 144.773L163.666 144.605C163.735 144.893 163.877 145.111 164.091 145.259C164.305 145.404 164.584 145.477 164.928 145.477C165.303 145.477 165.602 145.399 165.827 145.244C166.051 145.086 166.163 144.893 166.163 144.666C166.163 144.483 166.094 144.328 165.957 144.203C165.822 144.079 165.614 143.984 165.333 143.921L164.339 143.703C163.791 143.578 163.386 143.379 163.123 143.106C162.863 142.833 162.733 142.488 162.733 142.07C162.733 141.723 162.83 141.42 163.024 141.16C163.218 140.9 163.485 140.697 163.827 140.552C164.168 140.404 164.56 140.33 165.001 140.33C165.635 140.33 166.135 140.468 166.5 140.743C166.864 141.016 167.105 141.382 167.222 141.84ZM172.197 145.309C171.988 145.309 171.808 145.235 171.658 145.087C171.507 144.936 171.432 144.755 171.432 144.544C171.432 144.335 171.507 144.156 171.658 144.008C171.808 143.858 171.988 143.783 172.197 143.783C172.406 143.783 172.586 143.858 172.736 144.008C172.887 144.156 172.962 144.335 172.962 144.544C172.962 144.684 172.926 144.813 172.855 144.93C172.786 145.045 172.694 145.136 172.579 145.205C172.465 145.274 172.337 145.309 172.197 145.309ZM172.197 141.385C171.988 141.385 171.808 141.311 171.658 141.164C171.507 141.013 171.432 140.832 171.432 140.621C171.432 140.412 171.507 140.233 171.658 140.085C171.808 139.935 171.988 139.86 172.197 139.86C172.406 139.86 172.586 139.935 172.736 140.085C172.887 140.233 172.962 140.412 172.962 140.621C172.962 140.761 172.926 140.89 172.855 141.007C172.786 141.122 172.694 141.213 172.579 141.282C172.465 141.351 172.337 141.385 172.197 141.385ZM177.327 146.28V145.423L179.977 142.678C180.26 142.38 180.494 142.118 180.677 141.894C180.863 141.667 181.002 141.452 181.094 141.248C181.186 141.044 181.231 140.827 181.231 140.598C181.231 140.338 181.17 140.113 181.048 139.925C180.926 139.734 180.759 139.587 180.547 139.485C180.335 139.38 180.097 139.328 179.832 139.328C179.552 139.328 179.307 139.386 179.098 139.5C178.889 139.615 178.728 139.777 178.616 139.986C178.504 140.195 178.448 140.44 178.448 140.72H177.32C177.32 140.243 177.429 139.827 177.649 139.47C177.868 139.113 178.169 138.836 178.551 138.64C178.933 138.441 179.368 138.342 179.855 138.342C180.347 138.342 180.78 138.44 181.155 138.636C181.532 138.83 181.827 139.095 182.038 139.431C182.25 139.765 182.356 140.143 182.356 140.563C182.356 140.854 182.301 141.138 182.191 141.416C182.084 141.694 181.897 142.004 181.629 142.345C181.361 142.684 180.989 143.096 180.513 143.58L178.956 145.209V145.266H182.482V146.28H177.327ZM186.657 146.41C186.053 146.407 185.537 146.248 185.109 145.932C184.681 145.616 184.353 145.156 184.126 144.551C183.899 143.947 183.786 143.22 183.786 142.368C183.786 141.519 183.899 140.794 184.126 140.192C184.355 139.591 184.684 139.132 185.113 138.816C185.543 138.5 186.058 138.342 186.657 138.342C187.256 138.342 187.77 138.501 188.198 138.82C188.627 139.136 188.954 139.595 189.181 140.196C189.41 140.795 189.525 141.519 189.525 142.368C189.525 143.222 189.412 143.951 189.185 144.555C188.958 145.157 188.63 145.617 188.202 145.936C187.774 146.252 187.259 146.41 186.657 146.41ZM186.657 145.389C187.188 145.389 187.602 145.13 187.9 144.613C188.201 144.095 188.351 143.347 188.351 142.368C188.351 141.718 188.282 141.169 188.145 140.72C188.01 140.269 187.815 139.927 187.56 139.695C187.307 139.461 187.007 139.344 186.657 139.344C186.13 139.344 185.715 139.604 185.415 140.124C185.114 140.644 184.962 141.392 184.96 142.368C184.96 143.021 185.027 143.573 185.162 144.024C185.3 144.472 185.495 144.813 185.747 145.045C186 145.274 186.303 145.389 186.657 145.389Z" fill="#4E5D78"/>
<path fill-rule="evenodd" clip-rule="evenodd" d="M244.697 123.453V118.838C244.697 117.139 245.35 115.689 246.658 114.487C247.965 113.286 249.543 112.685 251.392 112.685H294.915C296.764 112.685 298.343 113.286 299.65 114.487C300.958 115.689 301.611 117.139 301.611 118.838V128.067C301.611 129.766 300.958 131.217 299.65 132.418C298.343 133.62 296.764 134.22 294.915 134.22H251.392C249.543 134.22 247.965 133.62 246.658 132.418C245.35 131.217 244.697 129.766 244.697 128.067V123.453Z" fill="#1AD598" fill-opacity="0.248"/>
<path d="M256.988 126.531H255.69L258.053 119.819H259.554L261.921 126.531H260.623L258.83 121.195H258.777L256.988 126.531ZM257.031 123.899H260.57V124.876H257.031V123.899ZM268.235 122.083H267.009C266.974 121.882 266.909 121.704 266.815 121.549C266.721 121.392 266.605 121.258 266.465 121.149C266.325 121.04 266.165 120.958 265.986 120.903C265.809 120.847 265.618 120.818 265.413 120.818C265.048 120.818 264.724 120.91 264.443 121.094C264.161 121.275 263.94 121.541 263.78 121.893C263.621 122.243 263.541 122.67 263.541 123.175C263.541 123.688 263.621 124.121 263.78 124.473C263.942 124.822 264.163 125.087 264.443 125.266C264.724 125.443 265.047 125.531 265.409 125.531C265.61 125.531 265.798 125.505 265.973 125.453C266.15 125.398 266.309 125.318 266.448 125.213C266.59 125.108 266.709 124.98 266.806 124.827C266.904 124.674 266.972 124.499 267.009 124.302L268.235 124.309C268.189 124.628 268.089 124.927 267.936 125.207C267.786 125.486 267.588 125.733 267.343 125.947C267.098 126.159 266.812 126.325 266.484 126.446C266.157 126.564 265.793 126.623 265.393 126.623C264.803 126.623 264.276 126.486 263.813 126.213C263.35 125.94 262.985 125.545 262.719 125.03C262.452 124.514 262.319 123.896 262.319 123.175C262.319 122.452 262.453 121.833 262.722 121.32C262.991 120.804 263.357 120.41 263.82 120.137C264.283 119.863 264.807 119.727 265.393 119.727C265.767 119.727 266.114 119.779 266.435 119.884C266.756 119.989 267.043 120.143 267.294 120.346C267.545 120.547 267.752 120.794 267.913 121.087C268.077 121.378 268.184 121.71 268.235 122.083ZM269.053 120.838V119.819H274.409V120.838H272.334V126.531H271.128V120.838H269.053ZM276.657 119.819V126.531H275.441V119.819H276.657ZM278.872 119.819L280.619 125.102H280.687L282.431 119.819H283.768L281.402 126.531H279.901L277.538 119.819H278.872ZM284.652 126.531V119.819H289.018V120.838H285.868V122.66H288.792V123.679H285.868V125.512H289.044V126.531H284.652Z" fill="#00B41D"/>
<rect x="25.4995" y="181.35" width="296.11" height="104.6" rx="11.5368" fill="white"/>
<path d="M98.0223 238.959V228.86H104.492V230.393H99.8518V233.135H104.048V234.669H99.8518V238.959H98.0223ZM106.08 238.959V231.385H107.865V238.959H106.08ZM106.978 230.31C106.695 230.31 106.452 230.216 106.248 230.029C106.044 229.838 105.942 229.609 105.942 229.343C105.942 229.074 106.044 228.845 106.248 228.658C106.452 228.467 106.695 228.372 106.978 228.372C107.264 228.372 107.507 228.467 107.708 228.658C107.911 228.845 108.013 229.074 108.013 229.343C108.013 229.609 107.911 229.838 107.708 230.029C107.507 230.216 107.264 230.31 106.978 230.31ZM112.995 241.958C112.354 241.958 111.803 241.871 111.343 241.696C110.883 241.525 110.513 241.295 110.234 241.006C109.954 240.717 109.76 240.396 109.652 240.044L111.259 239.655C111.332 239.803 111.437 239.949 111.575 240.094C111.713 240.242 111.899 240.363 112.132 240.458C112.369 240.557 112.666 240.606 113.025 240.606C113.531 240.606 113.95 240.483 114.282 240.237C114.614 239.993 114.78 239.592 114.78 239.033V237.598H114.692C114.6 237.782 114.465 237.971 114.287 238.165C114.113 238.359 113.881 238.522 113.592 238.654C113.306 238.785 112.946 238.851 112.512 238.851C111.93 238.851 111.402 238.714 110.929 238.442C110.459 238.165 110.084 237.754 109.805 237.209C109.528 236.66 109.39 235.973 109.39 235.147C109.39 234.316 109.528 233.614 109.805 233.042C110.084 232.466 110.461 232.031 110.934 231.735C111.407 231.436 111.935 231.286 112.517 231.286C112.961 231.286 113.326 231.362 113.612 231.513C113.901 231.661 114.131 231.84 114.302 232.05C114.473 232.258 114.603 232.453 114.692 232.637H114.79V231.385H116.551V239.083C116.551 239.73 116.396 240.266 116.087 240.69C115.778 241.114 115.356 241.432 114.82 241.642C114.284 241.852 113.676 241.958 112.995 241.958ZM113.01 237.45C113.388 237.45 113.71 237.358 113.977 237.174C114.243 236.99 114.445 236.725 114.583 236.38C114.721 236.035 114.79 235.621 114.79 235.138C114.79 234.661 114.721 234.243 114.583 233.885C114.448 233.527 114.248 233.249 113.982 233.052C113.719 232.851 113.395 232.751 113.01 232.751C112.612 232.751 112.28 232.854 112.014 233.061C111.748 233.269 111.547 233.553 111.412 233.915C111.277 234.273 111.21 234.681 111.21 235.138C111.21 235.601 111.277 236.007 111.412 236.356C111.55 236.701 111.753 236.97 112.019 237.164C112.288 237.355 112.619 237.45 113.01 237.45ZM118.38 238.959V231.385H120.087V232.672H120.175C120.333 232.238 120.595 231.899 120.959 231.656C121.324 231.409 121.76 231.286 122.266 231.286C122.779 231.286 123.211 231.411 123.563 231.661C123.918 231.907 124.168 232.244 124.313 232.672H124.392C124.559 232.251 124.842 231.916 125.24 231.666C125.641 231.413 126.116 231.286 126.665 231.286C127.362 231.286 127.931 231.506 128.371 231.947C128.812 232.387 129.032 233.03 129.032 233.875V238.959H127.242V234.151C127.242 233.681 127.117 233.338 126.867 233.121C126.617 232.9 126.312 232.79 125.95 232.79C125.519 232.79 125.182 232.925 124.939 233.195C124.699 233.461 124.579 233.808 124.579 234.235V238.959H122.828V234.077C122.828 233.686 122.71 233.374 122.473 233.14C122.24 232.907 121.934 232.79 121.556 232.79C121.3 232.79 121.066 232.856 120.856 232.987C120.646 233.116 120.478 233.298 120.353 233.535C120.228 233.768 120.166 234.041 120.166 234.353V238.959H118.38ZM133.023 239.112C132.543 239.112 132.111 239.027 131.726 238.856C131.345 238.682 131.042 238.425 130.819 238.086C130.598 237.748 130.488 237.33 130.488 236.834C130.488 236.407 130.567 236.053 130.725 235.774C130.883 235.494 131.098 235.271 131.371 235.103C131.644 234.935 131.951 234.809 132.293 234.723C132.638 234.635 132.995 234.57 133.363 234.531C133.807 234.485 134.167 234.444 134.443 234.408C134.719 234.368 134.92 234.309 135.045 234.23C135.173 234.148 135.237 234.021 135.237 233.85V233.821C135.237 233.449 135.127 233.162 134.907 232.958C134.686 232.754 134.369 232.652 133.955 232.652C133.518 232.652 133.171 232.747 132.914 232.938C132.661 233.129 132.49 233.354 132.402 233.614L130.735 233.377C130.866 232.917 131.083 232.532 131.386 232.223C131.688 231.911 132.058 231.677 132.495 231.523C132.933 231.365 133.416 231.286 133.945 231.286C134.31 231.286 134.673 231.329 135.035 231.414C135.397 231.5 135.727 231.641 136.026 231.838C136.325 232.032 136.565 232.297 136.746 232.632C136.93 232.968 137.022 233.387 137.022 233.89V238.959H135.306V237.919H135.247C135.138 238.129 134.986 238.326 134.788 238.511C134.594 238.691 134.349 238.838 134.054 238.949C133.761 239.058 133.417 239.112 133.023 239.112ZM133.486 237.8C133.845 237.8 134.156 237.73 134.419 237.588C134.682 237.444 134.884 237.253 135.025 237.016C135.17 236.78 135.242 236.522 135.242 236.242V235.35C135.186 235.396 135.091 235.438 134.956 235.478C134.825 235.517 134.677 235.552 134.512 235.581C134.348 235.611 134.185 235.637 134.024 235.66C133.863 235.683 133.723 235.703 133.605 235.719C133.339 235.756 133.1 235.815 132.89 235.897C132.679 235.979 132.513 236.094 132.392 236.242C132.27 236.387 132.209 236.574 132.209 236.804C132.209 237.133 132.329 237.381 132.569 237.549C132.809 237.717 133.115 237.8 133.486 237.8Z" fill="#4E5D78"/>
<path d="M50.9726 206.271V198.44H55.8288V199.457H52.1542V201.843H55.4808V202.856H52.1542V206.271H50.9726ZM57.19 206.271V200.398H58.3333V206.271H57.19ZM57.7674 199.492C57.5686 199.492 57.3978 199.425 57.255 199.293C57.1148 199.158 57.0447 198.997 57.0447 198.811C57.0447 198.622 57.1148 198.462 57.255 198.329C57.3978 198.194 57.5686 198.126 57.7674 198.126C57.9663 198.126 58.1358 198.194 58.276 198.329C58.4187 198.462 58.4901 198.622 58.4901 198.811C58.4901 198.997 58.4187 199.158 58.276 199.293C58.1358 199.425 57.9663 199.492 57.7674 199.492ZM62.3339 208.596C61.8674 208.596 61.4659 208.535 61.1294 208.412C60.7955 208.29 60.5227 208.128 60.3112 207.927C60.0996 207.725 59.9415 207.505 59.837 207.265L60.8197 206.86C60.8886 206.972 60.9803 207.091 61.095 207.215C61.2123 207.343 61.3703 207.451 61.5692 207.54C61.7706 207.63 62.0293 207.674 62.3454 207.674C62.7788 207.674 63.1369 207.569 63.4199 207.357C63.7028 207.148 63.8443 206.814 63.8443 206.355V205.2H63.7716C63.7028 205.325 63.6034 205.464 63.4734 205.617C63.3459 205.77 63.17 205.903 62.9457 206.015C62.7214 206.127 62.4295 206.183 62.0701 206.183C61.6061 206.183 61.1881 206.075 60.8159 205.858C60.4463 205.639 60.1531 205.316 59.9364 204.891C59.7223 204.462 59.6152 203.936 59.6152 203.311C59.6152 202.687 59.721 202.152 59.9326 201.705C60.1467 201.259 60.4399 200.918 60.8121 200.681C61.1843 200.441 61.6061 200.321 62.0777 200.321C62.4423 200.321 62.7367 200.382 62.961 200.505C63.1853 200.625 63.36 200.765 63.4849 200.925C63.6123 201.086 63.7105 201.227 63.7793 201.35H63.8634V200.398H64.9838V206.401C64.9838 206.906 64.8665 207.32 64.632 207.644C64.3975 207.967 64.0801 208.207 63.6799 208.363C63.2822 208.518 62.8336 208.596 62.3339 208.596ZM62.3225 205.235C62.6513 205.235 62.9292 205.158 63.156 205.005C63.3855 204.85 63.5588 204.628 63.6761 204.34C63.7959 204.049 63.8558 203.701 63.8558 203.296C63.8558 202.901 63.7971 202.553 63.6799 202.252C63.5626 201.951 63.3905 201.717 63.1637 201.549C62.9368 201.378 62.6564 201.292 62.3225 201.292C61.9783 201.292 61.6915 201.382 61.4621 201.56C61.2327 201.736 61.0593 201.976 60.9421 202.279C60.8274 202.582 60.77 202.921 60.77 203.296C60.77 203.681 60.8286 204.019 60.9459 204.309C61.0632 204.6 61.2365 204.827 61.4659 204.99C61.6979 205.153 61.9834 205.235 62.3225 205.235ZM66.5171 206.271V200.398H67.6145V201.354H67.6872C67.8095 201.03 68.0096 200.778 68.2875 200.597C68.5653 200.413 68.898 200.321 69.2855 200.321C69.678 200.321 70.0069 200.413 70.272 200.597C70.5397 200.78 70.7372 201.032 70.8647 201.354H70.9259C71.0661 201.04 71.2891 200.79 71.595 200.604C71.9009 200.416 72.2654 200.321 72.6886 200.321C73.2214 200.321 73.656 200.488 73.9925 200.822C74.3315 201.156 74.5011 201.66 74.5011 202.333V206.271H73.3578V202.44C73.3578 202.042 73.2494 201.754 73.0327 201.575C72.8161 201.397 72.5573 201.308 72.2565 201.308C71.8843 201.308 71.595 201.422 71.3885 201.652C71.182 201.879 71.0788 202.171 71.0788 202.528V206.271H69.9393V202.367C69.9393 202.048 69.8399 201.792 69.6411 201.598C69.4422 201.405 69.1835 201.308 68.8649 201.308C68.6482 201.308 68.4481 201.365 68.2645 201.48C68.0835 201.592 67.937 201.749 67.8248 201.95C67.7152 202.152 67.6604 202.385 67.6604 202.65V206.271H66.5171ZM77.7426 206.401C77.3704 206.401 77.034 206.332 76.7332 206.195C76.4324 206.054 76.194 205.852 76.0181 205.587C75.8448 205.321 75.7581 204.996 75.7581 204.611C75.7581 204.28 75.8218 204.007 75.9493 203.793C76.0767 203.579 76.2488 203.41 76.4655 203.285C76.6822 203.16 76.9243 203.065 77.192 203.002C77.4597 202.938 77.7324 202.89 78.0103 202.856C78.3621 202.816 78.6476 202.782 78.8668 202.757C79.086 202.729 79.2454 202.684 79.3448 202.623C79.4442 202.562 79.4939 202.463 79.4939 202.325V202.298C79.4939 201.964 79.3996 201.705 79.2109 201.522C79.0249 201.338 78.747 201.247 78.3774 201.247C77.9924 201.247 77.6891 201.332 77.4673 201.503C77.2481 201.671 77.0964 201.858 77.0123 202.065L75.9378 201.82C76.0653 201.463 76.2514 201.175 76.4961 200.956C76.7434 200.734 77.0276 200.574 77.3488 200.474C77.67 200.372 78.0077 200.321 78.3621 200.321C78.5966 200.321 78.8451 200.349 79.1077 200.405C79.3728 200.459 79.6201 200.558 79.8495 200.704C80.0815 200.849 80.2714 201.057 80.4192 201.327C80.5671 201.595 80.641 201.943 80.641 202.371V206.271H79.5245V205.468H79.4786C79.4047 205.616 79.2938 205.761 79.1459 205.904C78.9981 206.047 78.8082 206.165 78.5762 206.26C78.3442 206.354 78.0664 206.401 77.7426 206.401ZM77.9912 205.483C78.3073 205.483 78.5775 205.421 78.8018 205.296C79.0287 205.171 79.2007 205.008 79.318 204.807C79.4378 204.603 79.4977 204.385 79.4977 204.153V203.396C79.4569 203.436 79.3779 203.475 79.2606 203.51C79.1459 203.543 79.0147 203.573 78.8668 203.598C78.719 203.621 78.5749 203.643 78.4347 203.663C78.2945 203.681 78.1773 203.696 78.0829 203.709C77.8612 203.737 77.6585 203.784 77.475 203.851C77.294 203.917 77.1487 204.012 77.0391 204.137C76.932 204.26 76.8785 204.423 76.8785 204.627C76.8785 204.91 76.983 205.124 77.192 205.269C77.401 205.412 77.6674 205.483 77.9912 205.483Z" fill="#B0B7C3"/>
<path d="M102.158 252.028C102.117 251.666 101.949 251.386 101.653 251.187C101.357 250.986 100.985 250.885 100.536 250.885C100.215 250.885 99.9373 250.936 99.7027 251.038C99.4682 251.137 99.286 251.275 99.1559 251.451C99.0285 251.624 98.9648 251.822 98.9648 252.043C98.9648 252.23 99.0081 252.39 99.0948 252.525C99.184 252.66 99.3 252.774 99.4427 252.866C99.588 252.955 99.7435 253.03 99.9092 253.091C100.075 253.15 100.234 253.198 100.387 253.236L101.152 253.435C101.402 253.496 101.658 253.579 101.921 253.684C102.183 253.788 102.427 253.926 102.651 254.097C102.875 254.268 103.056 254.479 103.194 254.732C103.334 254.984 103.404 255.286 103.404 255.638C103.404 256.081 103.289 256.475 103.06 256.819C102.833 257.163 102.503 257.435 102.07 257.634C101.639 257.833 101.118 257.932 100.506 257.932C99.9194 257.932 99.4121 257.839 98.9839 257.653C98.5556 257.467 98.2204 257.203 97.9782 256.861C97.7361 256.517 97.6022 256.109 97.5767 255.638H98.7621C98.785 255.921 98.8768 256.157 99.0374 256.345C99.2006 256.531 99.4083 256.67 99.6607 256.762C99.9156 256.851 100.195 256.896 100.498 256.896C100.832 256.896 101.129 256.844 101.389 256.739C101.652 256.632 101.858 256.484 102.008 256.295C102.159 256.104 102.234 255.881 102.234 255.626C102.234 255.394 102.168 255.204 102.035 255.057C101.905 254.909 101.728 254.786 101.504 254.689C101.282 254.593 101.031 254.507 100.75 254.433L99.8251 254.181C99.198 254.01 98.7009 253.759 98.3338 253.428C97.9693 253.096 97.787 252.658 97.787 252.112C97.787 251.661 97.9094 251.267 98.1541 250.931C98.3988 250.594 98.7302 250.333 99.1483 250.147C99.5664 249.958 100.038 249.864 100.563 249.864C101.093 249.864 101.561 249.957 101.966 250.143C102.374 250.329 102.695 250.585 102.93 250.912C103.164 251.235 103.287 251.608 103.297 252.028H102.158ZM108.445 255.366V251.929H109.592V257.802H108.468V256.785H108.407C108.271 257.098 108.055 257.36 107.756 257.569C107.461 257.775 107.092 257.878 106.651 257.878C106.274 257.878 105.94 257.796 105.65 257.63C105.362 257.462 105.135 257.213 104.969 256.884C104.806 256.555 104.724 256.149 104.724 255.665V251.929H105.868V255.527C105.868 255.927 105.978 256.246 106.2 256.483C106.422 256.72 106.71 256.838 107.064 256.838C107.279 256.838 107.491 256.785 107.703 256.678C107.917 256.571 108.094 256.409 108.234 256.192C108.377 255.976 108.447 255.7 108.445 255.366ZM111.22 257.802V249.971H112.363V252.881H112.432C112.498 252.758 112.594 252.617 112.719 252.456C112.844 252.296 113.017 252.156 113.239 252.036C113.461 251.913 113.754 251.852 114.118 251.852C114.592 251.852 115.016 251.972 115.388 252.212C115.76 252.451 116.052 252.797 116.263 253.248C116.477 253.699 116.585 254.242 116.585 254.877C116.585 255.512 116.479 256.056 116.267 256.51C116.056 256.961 115.765 257.309 115.395 257.553C115.026 257.796 114.604 257.917 114.13 257.917C113.773 257.917 113.481 257.857 113.254 257.737C113.03 257.617 112.854 257.477 112.726 257.316C112.599 257.156 112.501 257.013 112.432 256.888H112.336V257.802H111.22ZM112.34 254.865C112.34 255.278 112.4 255.64 112.52 255.951C112.64 256.262 112.813 256.506 113.04 256.682C113.267 256.855 113.545 256.942 113.874 256.942C114.215 256.942 114.501 256.851 114.73 256.67C114.959 256.487 115.133 256.238 115.25 255.925C115.37 255.611 115.43 255.258 115.43 254.865C115.43 254.478 115.371 254.13 115.254 253.821C115.139 253.513 114.966 253.27 114.734 253.091C114.504 252.913 114.218 252.823 113.874 252.823C113.542 252.823 113.262 252.909 113.032 253.08C112.805 253.25 112.633 253.489 112.516 253.795C112.399 254.101 112.34 254.458 112.34 254.865ZM122.269 253.363L121.233 253.546C121.19 253.414 121.121 253.287 121.027 253.168C120.935 253.048 120.81 252.95 120.652 252.873C120.494 252.797 120.296 252.758 120.059 252.758C119.736 252.758 119.465 252.831 119.249 252.976C119.032 253.119 118.924 253.304 118.924 253.531C118.924 253.727 118.996 253.885 119.142 254.005C119.287 254.125 119.521 254.223 119.845 254.299L120.778 254.514C121.319 254.638 121.721 254.831 121.987 255.091C122.252 255.351 122.384 255.689 122.384 256.104C122.384 256.456 122.282 256.77 122.078 257.045C121.877 257.318 121.595 257.532 121.233 257.687C120.874 257.843 120.457 257.921 119.983 257.921C119.325 257.921 118.789 257.78 118.373 257.5C117.958 257.217 117.703 256.815 117.608 256.295L118.713 256.127C118.782 256.415 118.924 256.633 119.138 256.781C119.352 256.926 119.631 256.999 119.975 256.999C120.35 256.999 120.649 256.921 120.874 256.766C121.098 256.608 121.21 256.415 121.21 256.188C121.21 256.005 121.141 255.851 121.004 255.726C120.869 255.601 120.661 255.506 120.381 255.443L119.386 255.225C118.838 255.1 118.433 254.901 118.17 254.628C117.91 254.356 117.78 254.01 117.78 253.592C117.78 253.245 117.877 252.942 118.071 252.682C118.265 252.422 118.532 252.219 118.874 252.074C119.216 251.926 119.607 251.852 120.048 251.852C120.683 251.852 121.182 251.99 121.547 252.265C121.911 252.538 122.152 252.904 122.269 253.363ZM126.115 257.921C125.547 257.921 125.057 257.792 124.647 257.534C124.239 257.274 123.925 256.916 123.706 256.46C123.487 256.004 123.377 255.481 123.377 254.892C123.377 254.296 123.49 253.769 123.714 253.313C123.938 252.854 124.254 252.496 124.662 252.238C125.07 251.981 125.551 251.852 126.104 251.852C126.55 251.852 126.947 251.935 127.297 252.101C127.646 252.264 127.928 252.493 128.142 252.789C128.358 253.085 128.487 253.43 128.528 253.825H127.415C127.354 253.55 127.214 253.313 126.995 253.114C126.778 252.915 126.487 252.816 126.123 252.816C125.804 252.816 125.525 252.9 125.285 253.068C125.048 253.234 124.864 253.471 124.731 253.779C124.598 254.085 124.532 254.447 124.532 254.865C124.532 255.294 124.597 255.663 124.727 255.974C124.857 256.285 125.041 256.526 125.278 256.697C125.517 256.868 125.799 256.953 126.123 256.953C126.34 256.953 126.536 256.914 126.712 256.835C126.89 256.753 127.039 256.637 127.159 256.487C127.281 256.336 127.367 256.155 127.415 255.944H128.528C128.487 256.323 128.364 256.663 128.157 256.961C127.951 257.259 127.674 257.494 127.327 257.664C126.983 257.835 126.579 257.921 126.115 257.921ZM129.751 257.802V251.929H130.856V252.862H130.917C131.024 252.546 131.213 252.297 131.483 252.116C131.756 251.933 132.064 251.841 132.408 251.841C132.479 251.841 132.564 251.843 132.66 251.848C132.76 251.854 132.838 251.86 132.894 251.868V252.961C132.848 252.948 132.766 252.934 132.649 252.919C132.532 252.901 132.414 252.892 132.297 252.892C132.027 252.892 131.786 252.95 131.575 253.064C131.366 253.177 131.2 253.333 131.077 253.535C130.955 253.734 130.894 253.96 130.894 254.215V257.802H129.751ZM133.883 257.802V251.929H135.026V257.802H133.883ZM134.461 251.023C134.262 251.023 134.091 250.956 133.948 250.824C133.808 250.689 133.738 250.528 133.738 250.342C133.738 250.153 133.808 249.993 133.948 249.86C134.091 249.725 134.262 249.657 134.461 249.657C134.659 249.657 134.829 249.725 134.969 249.86C135.112 249.993 135.183 250.153 135.183 250.342C135.183 250.528 135.112 250.689 134.969 250.824C134.829 250.956 134.659 251.023 134.461 251.023ZM136.565 260.004V251.929H137.681V252.881H137.777C137.843 252.758 137.939 252.617 138.063 252.456C138.188 252.296 138.362 252.156 138.583 252.036C138.805 251.913 139.098 251.852 139.463 251.852C139.937 251.852 140.36 251.972 140.732 252.212C141.105 252.451 141.396 252.797 141.608 253.248C141.822 253.699 141.929 254.242 141.929 254.877C141.929 255.512 141.823 256.056 141.612 256.51C141.4 256.961 141.11 257.309 140.74 257.553C140.37 257.796 139.949 257.917 139.474 257.917C139.117 257.917 138.826 257.857 138.599 257.737C138.374 257.617 138.199 257.477 138.071 257.316C137.944 257.156 137.845 257.013 137.777 256.888H137.708V260.004H136.565ZM137.685 254.865C137.685 255.278 137.745 255.64 137.865 255.951C137.984 256.262 138.158 256.506 138.385 256.682C138.611 256.855 138.889 256.942 139.218 256.942C139.56 256.942 139.845 256.851 140.075 256.67C140.304 256.487 140.477 256.238 140.595 255.925C140.715 255.611 140.774 255.258 140.774 254.865C140.774 254.478 140.716 254.13 140.599 253.821C140.484 253.513 140.311 253.27 140.079 253.091C139.849 252.913 139.562 252.823 139.218 252.823C138.887 252.823 138.606 252.909 138.377 253.08C138.15 253.25 137.978 253.489 137.861 253.795C137.744 254.101 137.685 254.458 137.685 254.865ZM145.952 251.929V252.846H142.744V251.929H145.952ZM143.604 250.522H144.747V256.077C144.747 256.299 144.78 256.466 144.847 256.578C144.913 256.688 144.998 256.763 145.103 256.804C145.21 256.842 145.326 256.861 145.451 256.861C145.543 256.861 145.623 256.855 145.692 256.842C145.761 256.829 145.814 256.819 145.852 256.812L146.059 257.756C145.993 257.782 145.898 257.807 145.776 257.833C145.654 257.861 145.501 257.876 145.317 257.878C145.016 257.884 144.736 257.83 144.476 257.718C144.216 257.606 144.006 257.432 143.845 257.198C143.684 256.963 143.604 256.669 143.604 256.315V250.522ZM147.216 257.802V251.929H148.36V257.802H147.216ZM147.794 251.023C147.595 251.023 147.424 250.956 147.281 250.824C147.141 250.689 147.071 250.528 147.071 250.342C147.071 250.153 147.141 249.993 147.281 249.86C147.424 249.725 147.595 249.657 147.794 249.657C147.993 249.657 148.162 249.725 148.302 249.86C148.445 249.993 148.517 250.153 148.517 250.342C148.517 250.528 148.445 250.689 148.302 250.824C148.162 250.956 147.993 251.023 147.794 251.023ZM152.372 257.921C151.821 257.921 151.341 257.794 150.93 257.542C150.52 257.29 150.201 256.937 149.974 256.483C149.747 256.029 149.634 255.499 149.634 254.892C149.634 254.283 149.747 253.75 149.974 253.294C150.201 252.838 150.52 252.483 150.93 252.231C151.341 251.978 151.821 251.852 152.372 251.852C152.922 251.852 153.403 251.978 153.813 252.231C154.224 252.483 154.542 252.838 154.769 253.294C154.996 253.75 155.11 254.283 155.11 254.892C155.11 255.499 154.996 256.029 154.769 256.483C154.542 256.937 154.224 257.29 153.813 257.542C153.403 257.794 152.922 257.921 152.372 257.921ZM152.376 256.961C152.733 256.961 153.028 256.866 153.263 256.678C153.497 256.489 153.671 256.238 153.783 255.925C153.898 255.611 153.955 255.266 153.955 254.888C153.955 254.514 153.898 254.169 153.783 253.856C153.671 253.54 153.497 253.286 153.263 253.095C153.028 252.904 152.733 252.808 152.376 252.808C152.016 252.808 151.718 252.904 151.481 253.095C151.246 253.286 151.072 253.54 150.957 253.856C150.845 254.169 150.789 254.514 150.789 254.888C150.789 255.266 150.845 255.611 150.957 255.925C151.072 256.238 151.246 256.489 151.481 256.678C151.718 256.866 152.016 256.961 152.376 256.961ZM157.529 254.315V257.802H156.386V251.929H157.483V252.885H157.556C157.691 252.574 157.903 252.324 158.191 252.135C158.481 251.947 158.847 251.852 159.288 251.852C159.688 251.852 160.039 251.936 160.34 252.105C160.64 252.27 160.874 252.518 161.039 252.846C161.205 253.175 161.288 253.582 161.288 254.066V257.802H160.145V254.204C160.145 253.778 160.034 253.445 159.812 253.206C159.59 252.964 159.285 252.843 158.898 252.843C158.633 252.843 158.397 252.9 158.191 253.015C157.987 253.129 157.825 253.298 157.705 253.519C157.588 253.739 157.529 254.004 157.529 254.315ZM167.222 253.363L166.186 253.546C166.143 253.414 166.074 253.287 165.98 253.168C165.888 253.048 165.763 252.95 165.605 252.873C165.447 252.797 165.249 252.758 165.012 252.758C164.688 252.758 164.418 252.831 164.202 252.976C163.985 253.119 163.877 253.304 163.877 253.531C163.877 253.727 163.949 253.885 164.094 254.005C164.24 254.125 164.474 254.223 164.798 254.299L165.731 254.514C166.271 254.638 166.674 254.831 166.939 255.091C167.204 255.351 167.337 255.689 167.337 256.104C167.337 256.456 167.235 256.77 167.031 257.045C166.83 257.318 166.548 257.532 166.186 257.687C165.827 257.843 165.41 257.921 164.936 257.921C164.278 257.921 163.741 257.78 163.326 257.5C162.91 257.217 162.655 256.815 162.561 256.295L163.666 256.127C163.735 256.415 163.877 256.633 164.091 256.781C164.305 256.926 164.584 256.999 164.928 256.999C165.303 256.999 165.602 256.921 165.827 256.766C166.051 256.608 166.163 256.415 166.163 256.188C166.163 256.005 166.094 255.851 165.957 255.726C165.822 255.601 165.614 255.506 165.333 255.443L164.339 255.225C163.791 255.1 163.386 254.901 163.123 254.628C162.863 254.356 162.733 254.01 162.733 253.592C162.733 253.245 162.83 252.942 163.024 252.682C163.218 252.422 163.485 252.219 163.827 252.074C164.168 251.926 164.56 251.852 165.001 251.852C165.635 251.852 166.135 251.99 166.5 252.265C166.864 252.538 167.105 252.904 167.222 253.363ZM172.197 256.831C171.988 256.831 171.808 256.757 171.658 256.609C171.507 256.459 171.432 256.278 171.432 256.066C171.432 255.857 171.507 255.679 171.658 255.531C171.808 255.38 171.988 255.305 172.197 255.305C172.406 255.305 172.586 255.38 172.736 255.531C172.887 255.679 172.962 255.857 172.962 256.066C172.962 256.206 172.926 256.335 172.855 256.452C172.786 256.567 172.694 256.659 172.579 256.728C172.465 256.796 172.337 256.831 172.197 256.831ZM172.197 252.908C171.988 252.908 171.808 252.834 171.658 252.686C171.507 252.535 171.432 252.354 171.432 252.143C171.432 251.934 171.507 251.755 171.658 251.608C171.808 251.457 171.988 251.382 172.197 251.382C172.406 251.382 172.586 251.457 172.736 251.608C172.887 251.755 172.962 251.934 172.962 252.143C172.962 252.283 172.926 252.412 172.855 252.529C172.786 252.644 172.694 252.736 172.579 252.804C172.465 252.873 172.337 252.908 172.197 252.908ZM180.299 249.971V257.802H179.113V251.156H179.067L177.194 252.38V251.248L179.148 249.971H180.299ZM185.063 257.909C184.515 257.909 184.03 257.815 183.61 257.626C183.192 257.437 182.864 257.177 182.627 256.846C182.39 256.515 182.273 256.137 182.275 255.714C182.273 255.383 182.34 255.078 182.478 254.8C182.618 254.52 182.808 254.287 183.048 254.101C183.287 253.912 183.555 253.792 183.851 253.741V253.695C183.461 253.601 183.148 253.392 182.914 253.068C182.679 252.744 182.563 252.372 182.566 251.952C182.563 251.551 182.669 251.195 182.883 250.881C183.1 250.565 183.397 250.316 183.774 250.135C184.152 249.954 184.581 249.864 185.063 249.864C185.54 249.864 185.965 249.956 186.34 250.139C186.717 250.32 187.014 250.569 187.231 250.885C187.448 251.198 187.557 251.554 187.56 251.952C187.557 252.372 187.437 252.744 187.2 253.068C186.963 253.392 186.655 253.601 186.275 253.695V253.741C186.568 253.792 186.832 253.912 187.067 254.101C187.304 254.287 187.492 254.52 187.632 254.8C187.775 255.078 187.848 255.383 187.85 255.714C187.848 256.137 187.728 256.515 187.491 256.846C187.254 257.177 186.925 257.437 186.504 257.626C186.086 257.815 185.606 257.909 185.063 257.909ZM185.063 256.942C185.387 256.942 185.667 256.888 185.904 256.781C186.141 256.671 186.325 256.52 186.455 256.326C186.585 256.13 186.651 255.9 186.654 255.638C186.651 255.365 186.58 255.124 186.439 254.915C186.302 254.706 186.114 254.542 185.877 254.422C185.64 254.302 185.369 254.242 185.063 254.242C184.754 254.242 184.48 254.302 184.241 254.422C184.001 254.542 183.813 254.706 183.675 254.915C183.537 255.124 183.47 255.365 183.472 255.638C183.47 255.9 183.532 256.13 183.66 256.326C183.79 256.52 183.974 256.671 184.214 256.781C184.454 256.888 184.737 256.942 185.063 256.942ZM185.063 253.298C185.323 253.298 185.554 253.245 185.755 253.141C185.956 253.036 186.114 252.891 186.229 252.705C186.346 252.519 186.406 252.301 186.409 252.051C186.406 251.806 186.348 251.592 186.233 251.409C186.121 251.225 185.964 251.084 185.763 250.984C185.561 250.882 185.328 250.831 185.063 250.831C184.793 250.831 184.556 250.882 184.352 250.984C184.15 251.084 183.994 251.225 183.881 251.409C183.769 251.592 183.714 251.806 183.717 252.051C183.714 252.301 183.77 252.519 183.885 252.705C184 252.891 184.158 253.036 184.359 253.141C184.563 253.245 184.798 253.298 185.063 253.298Z" fill="#4E5D78"/>
<line x1="33.9595" y1="180.966" x2="313.149" y2="180.966" stroke="#E0E0E0" stroke-opacity="0.4" stroke-width="0.769117"/>
<line x1="33.9595" y1="285.566" x2="313.149" y2="285.566" stroke="#E0E0E0" stroke-opacity="0.4" stroke-width="0.769117"/>
<path fill-rule="evenodd" clip-rule="evenodd" d="M244.697 233.48V228.865C244.697 227.166 245.35 225.716 246.658 224.515C247.965 223.313 249.543 222.712 251.392 222.712H294.915C296.764 222.712 298.343 223.313 299.65 224.515C300.958 225.716 301.611 227.166 301.611 228.865V238.095C301.611 239.794 300.958 241.244 299.65 242.446C298.343 243.647 296.764 244.248 294.915 244.248H251.392C249.543 244.248 247.965 243.647 246.658 242.446C245.35 241.244 244.697 239.794 244.697 238.095V233.48Z" fill="#1AD598" fill-opacity="0.248"/>
<path d="M256.988 236.558H255.69L258.053 229.846H259.554L261.921 236.558H260.623L258.83 231.222H258.777L256.988 236.558ZM257.031 233.926H260.57V234.903H257.031V233.926ZM268.235 232.11H267.009C266.974 231.909 266.909 231.731 266.815 231.576C266.721 231.419 266.605 231.286 266.465 231.176C266.325 231.067 266.165 230.985 265.986 230.931C265.809 230.874 265.618 230.845 265.413 230.845C265.048 230.845 264.724 230.937 264.443 231.121C264.161 231.302 263.94 231.569 263.78 231.92C263.621 232.27 263.541 232.697 263.541 233.202C263.541 233.715 263.621 234.148 263.78 234.5C263.942 234.849 264.163 235.114 264.443 235.293C264.724 235.47 265.047 235.558 265.409 235.558C265.61 235.558 265.798 235.532 265.973 235.48C266.15 235.425 266.309 235.345 266.448 235.24C266.59 235.136 266.709 235.007 266.806 234.854C266.904 234.701 266.972 234.526 267.009 234.329L268.235 234.336C268.189 234.655 268.089 234.954 267.936 235.234C267.786 235.514 267.588 235.76 267.343 235.975C267.098 236.187 266.812 236.353 266.484 236.473C266.157 236.591 265.793 236.65 265.393 236.65C264.803 236.65 264.276 236.513 263.813 236.24C263.35 235.967 262.985 235.573 262.719 235.057C262.452 234.541 262.319 233.923 262.319 233.202C262.319 232.479 262.453 231.86 262.722 231.347C262.991 230.831 263.357 230.437 263.82 230.164C264.283 229.89 264.807 229.754 265.393 229.754C265.767 229.754 266.114 229.806 266.435 229.911C266.756 230.016 267.043 230.17 267.294 230.373C267.545 230.574 267.752 230.821 267.913 231.114C268.077 231.405 268.184 231.737 268.235 232.11ZM269.053 230.865V229.846H274.409V230.865H272.334V236.558H271.128V230.865H269.053ZM276.657 229.846V236.558H275.441V229.846H276.657ZM278.872 229.846L280.619 235.129H280.687L282.431 229.846H283.768L281.402 236.558H279.901L277.538 229.846H278.872ZM284.652 236.558V229.846H289.018V230.865H285.868V232.687H288.792V233.707H285.868V235.539H289.044V236.558H284.652Z" fill="#00B41D"/>
<g clip-path="url(#clip0_1_665)">
<path d="M54.5452 220.391H79.878C80.7904 220.39 81.6941 220.566 82.5372 220.91C83.3803 221.253 84.1464 221.758 84.7916 222.393C85.4367 223.029 85.9483 223.784 86.2971 224.615C86.6459 225.446 86.825 226.336 86.8241 227.235V251.232C86.825 252.132 86.6459 253.022 86.2971 253.853C85.9483 254.684 85.4367 255.439 84.7916 256.074C84.1464 256.71 83.3803 257.214 82.5372 257.558C81.6941 257.902 80.7904 258.078 79.878 258.077H54.5452C53.6328 258.078 52.7292 257.902 51.886 257.558C51.0429 257.214 50.2768 256.71 49.6317 256.074C48.9865 255.439 48.4749 254.684 48.1261 253.853C47.7773 253.022 47.5983 252.132 47.5991 251.232V227.235C47.5983 226.336 47.7773 225.446 48.1261 224.615C48.4749 223.784 48.9865 223.029 49.6317 222.393C50.2768 221.758 51.0429 221.253 51.886 220.91C52.7292 220.566 53.6328 220.39 54.5452 220.391Z" fill="#000B1D"/>
<path d="M63.1257 251.313C65.3823 251.313 67.2117 249.51 67.2117 247.287V243.26H63.1257C60.8691 243.26 59.0398 245.063 59.0398 247.287C59.0398 249.51 60.8691 251.313 63.1257 251.313Z" fill="#0ACF83"/>
<path d="M59.0398 239.234C59.0398 237.01 60.8691 235.208 63.1257 235.208H67.2117V243.26H63.1257C60.8691 243.26 59.0398 241.458 59.0398 239.234Z" fill="#A259FF"/>
<path d="M59.0398 231.181C59.0398 228.957 60.8691 227.155 63.1257 227.155H67.2117V235.208H63.1257C60.8691 235.208 59.0398 233.405 59.0398 231.181Z" fill="#F24E1E"/>
<path d="M67.2117 227.155H71.2976C73.5542 227.155 75.3835 228.957 75.3835 231.181C75.3835 233.405 73.5542 235.208 71.2976 235.208H67.2117V227.155Z" fill="#FF7262"/>
<path d="M75.3835 239.234C75.3835 241.458 73.5542 243.26 71.2976 243.26C69.041 243.26 67.2117 241.458 67.2117 239.234C67.2117 237.01 69.041 235.208 71.2976 235.208C73.5542 235.208 75.3835 237.01 75.3835 239.234Z" fill="#1ABCFE"/>
</g>
<path d="M59.9952 33.1837H57.8671C57.8064 32.8347 57.6945 32.5256 57.5314 32.2562C57.3683 31.9831 57.1653 31.7517 56.9226 31.562C56.6798 31.3724 56.4029 31.2301 56.0918 31.1353C55.7845 31.0366 55.4526 30.9873 55.096 30.9873C54.4626 30.9873 53.9011 31.1467 53.4118 31.4653C52.9224 31.7802 52.5393 32.2429 52.2624 32.8537C51.9855 33.4606 51.847 34.2022 51.847 35.0785C51.847 35.97 51.9855 36.721 52.2624 37.3318C52.5431 37.9387 52.9262 38.3977 53.4118 38.7088C53.9011 39.016 54.4607 39.1697 55.0904 39.1697C55.4393 39.1697 55.7656 39.1242 56.0691 39.0331C56.3763 38.9383 56.6513 38.7998 56.8941 38.6177C57.1407 38.4357 57.3474 38.2118 57.5143 37.9463C57.685 37.6808 57.8026 37.3773 57.8671 37.0359L59.9952 37.0473C59.9155 37.6011 59.7429 38.1208 59.4774 38.6064C59.2157 39.0919 58.8724 39.5206 58.4475 39.8923C58.0226 40.2603 57.5257 40.5486 56.9567 40.7572C56.3877 40.9621 55.7561 41.0645 55.0619 41.0645C54.0377 41.0645 53.1235 40.8274 52.3193 40.3532C51.5151 39.879 50.8816 39.1943 50.4188 38.2991C49.956 37.4039 49.7246 36.3303 49.7246 35.0785C49.7246 33.8229 49.9579 32.7494 50.4245 31.8579C50.8911 30.9627 51.5265 30.278 52.3307 29.8038C53.1349 29.3296 54.0453 29.0925 55.0619 29.0925C55.7106 29.0925 56.3137 29.1836 56.8714 29.3657C57.429 29.5477 57.9259 29.8152 58.3622 30.168C58.7984 30.517 59.1569 30.9456 59.4376 31.4539C59.7221 31.9584 59.908 32.535 59.9952 33.1837ZM65.6497 41.0759C64.7962 41.0759 64.0565 40.8881 63.4306 40.5125C62.8047 40.137 62.3191 39.6116 61.9739 38.9364C61.6325 38.2612 61.4618 37.4721 61.4618 36.5693C61.4618 35.6665 61.6325 34.8756 61.9739 34.1965C62.3191 33.5175 62.8047 32.9902 63.4306 32.6147C64.0565 32.2392 64.7962 32.0514 65.6497 32.0514C66.5032 32.0514 67.243 32.2392 67.8689 32.6147C68.4948 32.9902 68.9784 33.5175 69.3198 34.1965C69.665 34.8756 69.8376 35.6665 69.8376 36.5693C69.8376 37.4721 69.665 38.2612 69.3198 38.9364C68.9784 39.6116 68.4948 40.137 67.8689 40.5125C67.243 40.8881 66.5032 41.0759 65.6497 41.0759ZM65.6611 39.4257C66.1239 39.4257 66.5108 39.2987 66.8219 39.0445C67.1329 38.7865 67.3643 38.4413 67.5161 38.0089C67.6716 37.5765 67.7494 37.0947 67.7494 36.5636C67.7494 36.0287 67.6716 35.5451 67.5161 35.1126C67.3643 34.6764 67.1329 34.3293 66.8219 34.0714C66.5108 33.8134 66.1239 33.6844 65.6611 33.6844C65.1869 33.6844 64.7924 33.8134 64.4776 34.0714C64.1665 34.3293 63.9332 34.6764 63.7777 35.1126C63.626 35.5451 63.5501 36.0287 63.5501 36.5636C63.5501 37.0947 63.626 37.5765 63.7777 38.0089C63.9332 38.4413 64.1665 38.7865 64.4776 39.0445C64.7924 39.2987 65.1869 39.4257 65.6611 39.4257ZM73.6457 35.7841V40.9052H71.5859V32.1652H73.5547V33.6503H73.6571C73.8581 33.1609 74.1787 32.7721 74.6187 32.4838C75.0626 32.1955 75.6107 32.0514 76.2632 32.0514C76.8663 32.0514 77.3917 32.1804 77.8393 32.4383C78.2907 32.6963 78.6397 33.0699 78.8863 33.5593C79.1367 34.0486 79.2599 34.6423 79.2561 35.3402V40.9052H77.1963V35.6589C77.1963 35.0747 77.0446 34.6176 76.7411 34.2876C76.4414 33.9576 76.0261 33.7925 75.495 33.7925C75.1346 33.7925 74.8141 33.8722 74.5334 34.0315C74.2565 34.1871 74.0383 34.4128 73.879 34.7086C73.7235 35.0045 73.6457 35.363 73.6457 35.7841ZM85.777 32.1652V33.7584H80.6104V32.1652H85.777ZM81.902 40.9052V31.3401C81.902 30.7521 82.0234 30.2628 82.2662 29.8721C82.5128 29.4814 82.8428 29.1893 83.2563 28.9958C83.6698 28.8023 84.1288 28.7056 84.6333 28.7056C84.9899 28.7056 85.3066 28.7341 85.5835 28.791C85.8604 28.8479 86.0653 28.8991 86.198 28.9446L85.7884 30.5378C85.7011 30.5113 85.5911 30.4847 85.4583 30.4582C85.3256 30.4278 85.1776 30.4126 85.0145 30.4126C84.6314 30.4126 84.3602 30.5056 84.2008 30.6914C84.0453 30.8735 83.9675 31.1353 83.9675 31.4767V40.9052H81.902ZM87.3901 40.9052V32.1652H89.4499V40.9052H87.3901ZM88.4257 30.9247C88.0995 30.9247 87.8188 30.8166 87.5836 30.6004C87.3484 30.3804 87.2308 30.1168 87.2308 29.8095C87.2308 29.4984 87.3484 29.2348 87.5836 29.0186C87.8188 28.7985 88.0995 28.6885 88.4257 28.6885C88.7557 28.6885 89.0365 28.7985 89.2678 29.0186C89.503 29.2348 89.6206 29.4984 89.6206 29.8095C89.6206 30.1168 89.503 30.3804 89.2678 30.6004C89.0365 30.8166 88.7557 30.9247 88.4257 30.9247ZM91.5681 40.9052V32.1652H93.5653V33.6218H93.6563C93.8156 33.1173 94.0888 32.7285 94.4757 32.4554C94.8664 32.1785 95.3121 32.04 95.8129 32.04C95.9267 32.04 96.0537 32.0457 96.1941 32.0571C96.3383 32.0647 96.4577 32.0779 96.5526 32.0969V33.9917C96.4653 33.9614 96.3269 33.9348 96.1372 33.912C95.9513 33.8855 95.7711 33.8722 95.5966 33.8722C95.2211 33.8722 94.8835 33.9538 94.5838 34.1169C94.2879 34.2762 94.0546 34.4981 93.8839 34.7826C93.7132 35.0671 93.6279 35.3953 93.6279 35.767V40.9052H91.5681ZM97.921 40.9052V32.1652H99.8898V33.6503H99.9922C100.174 33.1496 100.476 32.7588 100.897 32.4781C101.318 32.1936 101.821 32.0514 102.405 32.0514C102.997 32.0514 103.495 32.1955 103.901 32.4838C104.311 32.7683 104.599 33.1572 104.766 33.6503H104.857C105.051 33.1647 105.377 32.7778 105.836 32.4895C106.299 32.1974 106.847 32.0514 107.48 32.0514C108.285 32.0514 108.941 32.3055 109.449 32.8139C109.957 33.3222 110.212 34.0638 110.212 35.0387V40.9052H108.146V35.3573C108.146 34.8149 108.002 34.4185 107.714 34.1681C107.425 33.9139 107.073 33.7869 106.655 33.7869C106.158 33.7869 105.77 33.9424 105.489 34.2534C105.212 34.5607 105.073 34.9609 105.073 35.4541V40.9052H103.053V35.272C103.053 34.8206 102.917 34.4602 102.644 34.1909C102.374 33.9215 102.022 33.7869 101.585 33.7869C101.29 33.7869 101.02 33.8627 100.777 34.0145C100.535 34.1624 100.341 34.3729 100.197 34.6461C100.053 34.9154 99.9809 35.2302 99.9809 35.5906V40.9052H97.921ZM117.556 44.1826C117.275 44.1826 117.016 44.1599 116.777 44.1144C116.541 44.0726 116.354 44.0233 116.213 43.9664L116.691 42.3618C116.991 42.4491 117.258 42.4908 117.494 42.487C117.729 42.4832 117.935 42.4092 118.114 42.2651C118.296 42.1247 118.449 41.8895 118.575 41.5595L118.751 41.0872L115.582 32.1652H117.767L119.781 38.7657H119.872L121.892 32.1652H124.083L120.583 41.9635C120.42 42.4263 120.204 42.8227 119.935 43.1527C119.665 43.4866 119.335 43.7407 118.944 43.9152C118.558 44.0935 118.095 44.1826 117.556 44.1826ZM129.023 41.0759C128.17 41.0759 127.43 40.8881 126.804 40.5125C126.178 40.137 125.692 39.6116 125.347 38.9364C125.006 38.2612 124.835 37.4721 124.835 36.5693C124.835 35.6665 125.006 34.8756 125.347 34.1965C125.692 33.5175 126.178 32.9902 126.804 32.6147C127.43 32.2392 128.17 32.0514 129.023 32.0514C129.877 32.0514 130.616 32.2392 131.242 32.6147C131.868 32.9902 132.352 33.5175 132.693 34.1965C133.038 34.8756 133.211 35.6665 133.211 36.5693C133.211 37.4721 133.038 38.2612 132.693 38.9364C132.352 39.6116 131.868 40.137 131.242 40.5125C130.616 40.8881 129.877 41.0759 129.023 41.0759ZM129.034 39.4257C129.497 39.4257 129.884 39.2987 130.195 39.0445C130.506 38.7865 130.738 38.4413 130.889 38.0089C131.045 37.5765 131.123 37.0947 131.123 36.5636C131.123 36.0287 131.045 35.5451 130.889 35.1126C130.738 34.6764 130.506 34.3293 130.195 34.0714C129.884 33.8134 129.497 33.6844 129.034 33.6844C128.56 33.6844 128.166 33.8134 127.851 34.0714C127.54 34.3293 127.307 34.6764 127.151 35.1126C126.999 35.5451 126.923 36.0287 126.923 36.5636C126.923 37.0947 126.999 37.5765 127.151 38.0089C127.307 38.4413 127.54 38.7865 127.851 39.0445C128.166 39.2987 128.56 39.4257 129.034 39.4257ZM140.53 37.2294V32.1652H142.59V40.9052H140.592V39.3518H140.501C140.304 39.8411 139.98 40.2413 139.528 40.5524C139.081 40.8634 138.529 41.019 137.873 41.019C137.3 41.019 136.793 40.8919 136.353 40.6377C135.917 40.3798 135.576 40.0061 135.329 39.5168C135.083 39.0236 134.959 38.4281 134.959 37.7301V32.1652H137.019V37.4114C137.019 37.9653 137.171 38.4053 137.474 38.7315C137.778 39.0578 138.176 39.2209 138.669 39.2209C138.973 39.2209 139.267 39.1469 139.551 38.999C139.836 38.851 140.069 38.631 140.251 38.3389C140.437 38.043 140.53 37.6732 140.53 37.2294ZM144.708 40.9052V32.1652H146.705V33.6218H146.796C146.955 33.1173 147.228 32.7285 147.615 32.4554C148.006 32.1785 148.452 32.04 148.953 32.04C149.066 32.04 149.193 32.0457 149.334 32.0571C149.478 32.0647 149.597 32.0779 149.692 32.0969V33.9917C149.605 33.9614 149.467 33.9348 149.277 33.912C149.091 33.8855 148.911 33.8722 148.736 33.8722C148.361 33.8722 148.023 33.9538 147.724 34.1169C147.428 34.2762 147.194 34.4981 147.024 34.7826C146.853 35.0671 146.768 35.3953 146.768 35.767V40.9052H144.708ZM155.126 40.9052V29.2519H159.496C160.392 29.2519 161.143 29.4188 161.75 29.7526C162.36 30.0864 162.821 30.5454 163.132 31.1296C163.447 31.71 163.605 32.37 163.605 33.1097C163.605 33.857 163.447 34.5209 163.132 35.1013C162.817 35.6817 162.353 36.1388 161.738 36.4726C161.124 36.8026 160.367 36.9676 159.468 36.9676H156.572V35.2321H159.183C159.707 35.2321 160.135 35.1411 160.469 34.959C160.803 34.7769 161.05 34.5266 161.209 34.2079C161.372 33.8893 161.454 33.5232 161.454 33.1097C161.454 32.6963 161.372 32.3321 161.209 32.0172C161.05 31.7024 160.801 31.4577 160.464 31.2832C160.13 31.1049 159.699 31.0158 159.172 31.0158H157.237V40.9052H155.126ZM170.918 37.2294V32.1652H172.978V40.9052H170.98V39.3518H170.889C170.692 39.8411 170.368 40.2413 169.916 40.5524C169.469 40.8634 168.917 41.019 168.26 41.019C167.688 41.019 167.181 40.8919 166.741 40.6377C166.305 40.3798 165.964 40.0061 165.717 39.5168C165.47 39.0236 165.347 38.4281 165.347 37.7301V32.1652H167.407V37.4114C167.407 37.9653 167.559 38.4053 167.862 38.7315C168.166 39.0578 168.564 39.2209 169.057 39.2209C169.361 39.2209 169.655 39.1469 169.939 38.999C170.224 38.851 170.457 38.631 170.639 38.3389C170.825 38.043 170.918 37.6732 170.918 37.2294ZM175.096 40.9052V32.1652H177.093V33.6218H177.184C177.343 33.1173 177.616 32.7285 178.003 32.4554C178.394 32.1785 178.84 32.04 179.34 32.04C179.454 32.04 179.581 32.0457 179.722 32.0571C179.866 32.0647 179.985 32.0779 180.08 32.0969V33.9917C179.993 33.9614 179.854 33.9348 179.665 33.912C179.479 33.8855 179.299 33.8722 179.124 33.8722C178.749 33.8722 178.411 33.9538 178.111 34.1169C177.816 34.2762 177.582 34.4981 177.412 34.7826C177.241 35.0671 177.155 35.3953 177.155 35.767V40.9052H175.096ZM184.901 41.0759C184.029 41.0759 183.279 40.8843 182.654 40.5012C182.031 40.118 181.552 39.5888 181.214 38.9136C180.88 38.2346 180.713 37.4532 180.713 36.5693C180.713 35.6817 180.884 34.8983 181.225 34.2193C181.567 33.5365 182.048 33.0054 182.671 32.6261C183.296 32.2429 184.036 32.0514 184.89 32.0514C185.599 32.0514 186.227 32.1823 186.773 32.444C187.323 32.7019 187.761 33.068 188.088 33.5422C188.414 34.0126 188.6 34.5626 188.645 35.1923H186.676C186.597 34.7712 186.407 34.4204 186.107 34.1396C185.812 33.8551 185.415 33.7129 184.918 33.7129C184.497 33.7129 184.127 33.8267 183.809 34.0543C183.49 34.2781 183.241 34.6005 183.063 35.0216C182.889 35.4427 182.801 35.9472 182.801 36.5352C182.801 37.1307 182.889 37.6428 183.063 38.0715C183.238 38.4963 183.482 38.8245 183.797 39.0559C184.116 39.2835 184.49 39.3973 184.918 39.3973C185.222 39.3973 185.493 39.3404 185.732 39.2266C185.975 39.109 186.178 38.9402 186.341 38.7202C186.504 38.5001 186.616 38.2327 186.676 37.9179H188.645C188.596 38.5362 188.414 39.0843 188.099 39.5623C187.784 40.0365 187.355 40.4082 186.813 40.6775C186.271 40.9431 185.633 41.0759 184.901 41.0759ZM192.396 35.7841V40.9052H190.337V29.2519H192.351V33.6503H192.453C192.658 33.1572 192.975 32.7683 193.404 32.4838C193.836 32.1955 194.386 32.0514 195.054 32.0514C195.661 32.0514 196.19 32.1785 196.641 32.4326C197.093 32.6868 197.442 33.0585 197.688 33.5479C197.939 34.0372 198.064 34.6347 198.064 35.3402V40.9052H196.004V35.6589C196.004 35.0709 195.852 34.6138 195.549 34.2876C195.249 33.9576 194.828 33.7925 194.285 33.7925C193.921 33.7925 193.595 33.8722 193.307 34.0315C193.022 34.1871 192.798 34.4128 192.635 34.7086C192.476 35.0045 192.396 35.363 192.396 35.7841ZM202.678 41.0815C202.125 41.0815 201.626 40.9829 201.182 40.7857C200.742 40.5846 200.393 40.2887 200.135 39.898C199.881 39.5073 199.754 39.0255 199.754 38.4527C199.754 37.9596 199.845 37.5518 200.027 37.2294C200.209 36.9069 200.457 36.649 200.772 36.4555C201.087 36.262 201.442 36.116 201.836 36.0174C202.235 35.9149 202.646 35.841 203.071 35.7955C203.583 35.7423 203.998 35.6949 204.317 35.6532C204.636 35.6077 204.867 35.5394 205.011 35.4484C205.159 35.3535 205.233 35.2075 205.233 35.0102V34.9761C205.233 34.5474 205.106 34.2155 204.852 33.9803C204.598 33.7451 204.232 33.6275 203.754 33.6275C203.249 33.6275 202.849 33.7375 202.553 33.9576C202.261 34.1776 202.064 34.4374 201.961 34.7371L200.038 34.464C200.19 33.9329 200.44 33.4891 200.789 33.1325C201.138 32.7721 201.565 32.5028 202.069 32.3245C202.574 32.1424 203.132 32.0514 203.742 32.0514C204.163 32.0514 204.583 32.1007 205 32.1993C205.417 32.298 205.798 32.4611 206.144 32.6887C206.489 32.9125 206.766 33.2178 206.974 33.6048C207.187 33.9917 207.293 34.4754 207.293 35.0557V40.9052H205.313V39.7045H205.245C205.119 39.9473 204.943 40.1749 204.715 40.3874C204.492 40.596 204.209 40.7648 203.868 40.8938C203.53 41.019 203.134 41.0815 202.678 41.0815ZM203.213 39.568C203.627 39.568 203.985 39.4864 204.289 39.3233C204.592 39.1564 204.825 38.9364 204.989 38.6633C205.155 38.3901 205.239 38.0924 205.239 37.7699V36.74C205.174 36.7931 205.064 36.8424 204.909 36.888C204.757 36.9335 204.586 36.9733 204.397 37.0074C204.207 37.0416 204.019 37.0719 203.833 37.0985C203.648 37.125 203.486 37.1478 203.35 37.1668C203.043 37.2085 202.767 37.2768 202.525 37.3716C202.282 37.4664 202.09 37.5992 201.95 37.7699C201.81 37.9368 201.739 38.153 201.739 38.4186C201.739 38.7979 201.878 39.0843 202.155 39.2778C202.432 39.4713 202.785 39.568 203.213 39.568ZM216.272 34.4754L214.394 34.6802C214.341 34.4905 214.248 34.3122 214.115 34.1453C213.986 33.9784 213.812 33.8438 213.592 33.7413C213.372 33.6389 213.103 33.5877 212.784 33.5877C212.355 33.5877 211.995 33.6806 211.703 33.8665C211.415 34.0524 211.272 34.2933 211.276 34.5892C211.272 34.8433 211.365 35.0501 211.555 35.2094C211.748 35.3687 212.067 35.4996 212.511 35.602L214.002 35.9206C214.829 36.0989 215.443 36.3815 215.845 36.7685C216.251 37.1554 216.456 37.6618 216.46 38.2877C216.456 38.8378 216.295 39.3233 215.976 39.7444C215.661 40.1616 215.223 40.4879 214.662 40.7231C214.1 40.9583 213.455 41.0759 212.727 41.0759C211.657 41.0759 210.796 40.852 210.144 40.4044C209.491 39.953 209.102 39.3252 208.977 38.521L210.986 38.3275C211.077 38.7221 211.27 39.0198 211.566 39.2209C211.862 39.4219 212.247 39.5225 212.721 39.5225C213.211 39.5225 213.603 39.4219 213.899 39.2209C214.199 39.0198 214.349 38.7714 214.349 38.4755C214.349 38.2251 214.252 38.0184 214.059 37.8553C213.869 37.6922 213.573 37.567 213.171 37.4797L211.68 37.1668C210.842 36.9923 210.221 36.6983 209.819 36.2848C209.417 35.8675 209.218 35.3402 209.222 34.703C209.218 34.1643 209.364 33.6977 209.66 33.3032C209.96 32.9049 210.375 32.5976 210.906 32.3814C211.441 32.1614 212.057 32.0514 212.755 32.0514C213.78 32.0514 214.586 32.2695 215.174 32.7057C215.766 33.142 216.132 33.7319 216.272 34.4754ZM222.027 41.0759C221.151 41.0759 220.394 40.8938 219.757 40.5296C219.124 40.1616 218.636 39.642 218.295 38.9705C217.953 38.2953 217.783 37.5006 217.783 36.5864C217.783 35.6873 217.953 34.8983 218.295 34.2193C218.64 33.5365 219.122 33.0054 219.74 32.6261C220.358 32.2429 221.085 32.0514 221.919 32.0514C222.458 32.0514 222.966 32.1386 223.444 32.3131C223.926 32.4838 224.351 32.7494 224.719 33.1097C225.091 33.4701 225.383 33.9291 225.595 34.4867C225.808 35.0406 225.914 35.7006 225.914 36.4669V37.0985H218.75V35.7101H223.939C223.936 35.3156 223.85 34.9647 223.683 34.6574C223.516 34.3464 223.283 34.1017 222.983 33.9234C222.688 33.7451 222.342 33.656 221.948 33.656C221.527 33.656 221.157 33.7584 220.838 33.9632C220.52 34.1643 220.271 34.4298 220.093 34.7599C219.918 35.0861 219.829 35.4446 219.825 35.8353V37.0473C219.825 37.5556 219.918 37.9918 220.104 38.356C220.29 38.7164 220.55 38.9933 220.884 39.1867C221.218 39.3764 221.608 39.4713 222.056 39.4713C222.356 39.4713 222.627 39.4295 222.87 39.3461C223.112 39.2588 223.323 39.1317 223.501 38.9648C223.679 38.7979 223.814 38.5912 223.905 38.3446L225.828 38.5608C225.707 39.0692 225.476 39.513 225.134 39.8923C224.797 40.2679 224.364 40.56 223.837 40.7686C223.31 40.9734 222.706 41.0759 222.027 41.0759Z" fill="#323B4B"/>
<path d="M44.7439 60.642H315.9" stroke="#F3F3F3" stroke-width="1.29839" stroke-linecap="round"/>
<defs>
<clipPath id="clip0_1_665">
<rect width="39.225" height="37.6867" fill="white" transform="translate(47.5991 220.391)"/>
</clipPath>
</defs>
</svg>
