<svg width="313" height="434" viewBox="0 0 313 434" fill="none" xmlns="http://www.w3.org/2000/svg">
<g filter="url(#filter0_d_0_408)">
<rect x="26" y="21" width="260.916" height="390.732" rx="15.4236" fill="white"/>
<g clip-path="url(#clip0_0_408)">
<path d="M63.7533 64.7424C63.7333 65.3761 63.8141 66.009 63.9927 66.6171C64.1768 67.1379 64.4044 67.6422 64.6731 68.1244C64.7646 68.2687 64.8168 68.4347 64.8243 68.6057C64.811 68.734 64.7675 68.8572 64.6974 68.9651C64.6273 69.0731 64.5326 69.1626 64.4211 69.2264L63.1611 70.1131C62.9981 70.2282 62.8057 70.2941 62.6067 70.3031C62.4896 70.2989 62.3745 70.2709 62.2684 70.2208C62.1623 70.1707 62.0674 70.0996 61.9893 70.0117C61.6966 69.7207 61.4425 69.3928 61.2333 69.0364C61.0233 68.6817 60.8091 68.2595 60.5907 67.7697C59.8528 68.6956 58.9139 69.4395 57.846 69.9445C56.778 70.4494 55.6093 70.7021 54.4293 70.6831C53.6673 70.7251 52.9046 70.6133 52.1862 70.3545C51.4677 70.0956 50.8081 69.6948 50.2461 69.1757C49.7255 68.6434 49.3201 68.0084 49.0556 67.3108C48.791 66.6132 48.673 65.8681 48.7089 65.1224C48.6755 64.3119 48.8234 63.5043 49.1418 62.7589C49.4602 62.0135 49.9409 61.3495 50.5485 60.8157C52.0074 59.6608 53.8351 59.0798 55.6893 59.1817C56.4314 59.1839 57.1725 59.2389 57.9069 59.3464C58.6797 59.4562 59.4819 59.6082 60.3135 59.8024V58.2571C60.4359 57.046 60.0782 55.8353 59.3181 54.8877C58.3457 54.136 57.1239 53.787 55.9035 53.9124C55.1434 53.9163 54.3865 54.0098 53.6481 54.1911C52.8797 54.3758 52.1259 54.6171 51.3927 54.9131C51.1557 55.0226 50.9115 55.1157 50.6619 55.1917H50.3343C50.0403 55.1917 49.8933 54.9722 49.8933 54.5331V53.5324C49.8753 53.2782 49.9276 53.0239 50.0445 52.7977C50.2024 52.603 50.4059 52.4507 50.6367 52.3544C51.48 51.9483 52.3624 51.63 53.2701 51.4044C54.3361 51.1292 55.4329 50.993 56.5335 50.9991C58.5131 50.8227 60.4821 51.437 62.0145 52.7091C62.6375 53.4097 63.1128 54.23 63.4116 55.1204C63.7105 56.0108 63.8267 56.9529 63.7533 57.8897V64.7424ZM55.2483 67.9471C55.9872 67.9363 56.7193 67.8036 57.4155 67.5544C58.1829 67.2872 58.8657 66.8194 59.3937 66.1991C59.719 65.8344 59.96 65.4018 60.0993 64.9324C60.2444 64.3357 60.3121 63.7226 60.3009 63.1084V62.2217C59.6652 62.0686 59.0216 61.9502 58.3731 61.8671C57.7212 61.7832 57.0647 61.7409 56.4075 61.7404C55.3041 61.6572 54.2057 61.9568 53.2953 62.5891C52.9665 62.8807 52.7065 63.2423 52.5343 63.6477C52.3621 64.0531 52.2821 64.492 52.2999 64.9324C52.2701 65.337 52.3229 65.7435 52.4551 66.1269C52.5873 66.5103 52.796 66.8624 53.0685 67.1617C53.3627 67.4302 53.7066 67.6377 54.0807 67.7725C54.4547 67.9072 54.8515 67.9665 55.2483 67.9471ZM72.0693 70.2271C71.7854 70.2532 71.5012 70.1817 71.2629 70.0244C71.0398 69.7986 70.8867 69.5126 70.8219 69.2011L65.9205 52.9117C65.8254 52.6371 65.762 52.3523 65.7315 52.0631C65.7208 51.9924 65.7268 51.9202 65.749 51.8523C65.7712 51.7844 65.8089 51.7227 65.8592 51.6721C65.9095 51.6216 65.9709 51.5836 66.0384 51.5613C66.106 51.539 66.1778 51.533 66.2481 51.5437H68.3019C68.59 51.5147 68.8792 51.5863 69.1209 51.7464C69.3294 51.9791 69.4729 52.2632 69.5367 52.5697L73.0521 66.5031L76.3155 52.5697C76.3659 52.2623 76.5114 51.9786 76.7313 51.7591C76.9839 51.6024 77.2798 51.5314 77.5755 51.5564H79.2639C79.5596 51.5314 79.8555 51.6024 80.1081 51.7591C80.3258 51.9837 80.4669 52.272 80.5113 52.5824L83.7999 66.6931L87.4287 52.5824C87.4956 52.2744 87.6435 51.99 87.8571 51.7591C88.0988 51.5989 88.388 51.5274 88.6761 51.5564H90.6165C90.6868 51.5457 90.7586 51.5517 90.8262 51.574C90.8937 51.5963 90.9551 51.6343 91.0054 51.6848C91.0557 51.7353 91.0934 51.7971 91.1156 51.865C91.1378 51.9329 91.1438 52.0051 91.1331 52.0757C91.1436 52.1853 91.1436 52.2956 91.1331 52.4051C91.0929 52.581 91.0424 52.7544 90.9819 52.9244L85.9419 69.2137C85.8771 69.5253 85.724 69.8112 85.5009 70.0371C85.2626 70.1944 84.9784 70.2658 84.6945 70.2397H82.8549C82.557 70.2711 82.2577 70.1948 82.0107 70.0244C81.7946 69.7887 81.6541 69.4929 81.6075 69.1757L78.3441 55.6097L75.1185 69.1631C75.0719 69.4803 74.9314 69.776 74.7153 70.0117C74.4683 70.1821 74.169 70.2585 73.8711 70.2271H72.0693ZM98.9829 70.7844C97.8973 70.7862 96.815 70.663 95.7573 70.4171C94.9161 70.2468 94.1021 69.9613 93.3381 69.5684C93.1084 69.4706 92.9127 69.3064 92.7759 69.0967C92.639 68.887 92.5672 68.6412 92.5695 68.3904V67.3264C92.5695 66.8873 92.7291 66.6677 93.0483 66.6677C93.1819 66.6697 93.3142 66.6955 93.4389 66.7437L93.9681 66.9591C94.7076 67.288 95.4809 67.5344 96.2739 67.6937C97.103 67.865 97.9475 67.9499 98.7939 67.9471C99.8595 68.0106 100.921 67.769 101.856 67.2504C102.197 67.0467 102.477 66.7547 102.668 66.4049C102.858 66.0551 102.952 65.6604 102.939 65.2617C102.946 64.9913 102.9 64.722 102.803 64.4698C102.705 64.2175 102.559 63.9873 102.372 63.7924C101.736 63.2566 100.986 62.8752 100.18 62.6777L97.1433 61.7151C95.8646 61.3579 94.7256 60.6152 93.8799 59.5871C93.2045 58.7141 92.8366 57.6403 92.8341 56.5344C92.8165 55.7169 93.012 54.9091 93.4011 54.1911C93.7776 53.5157 94.2879 52.925 94.9005 52.4557C95.5427 51.9648 96.2686 51.5957 97.0425 51.3664C97.8983 51.1181 98.7852 50.9944 99.6759 50.9991C100.148 50.9987 100.619 51.0283 101.087 51.0877C101.566 51.1469 102.02 51.2271 102.448 51.3284C102.876 51.4297 103.275 51.5395 103.645 51.6577C103.949 51.7537 104.244 51.8766 104.527 52.0251C104.766 52.1544 104.976 52.3311 105.144 52.5444C105.278 52.7514 105.344 52.9948 105.333 53.2411V54.2417C105.333 54.6809 105.174 54.9004 104.854 54.9004C104.572 54.8687 104.298 54.7827 104.048 54.6471C102.777 54.0919 101.402 53.8155 100.016 53.8364C99.052 53.786 98.0917 53.9913 97.2315 54.4317C96.9092 54.621 96.6455 54.8964 96.4698 55.2274C96.294 55.5584 96.2131 55.9319 96.2361 56.3064C96.2298 56.585 96.2815 56.8619 96.3878 57.1193C96.4941 57.3767 96.6527 57.6089 96.8535 57.8011C97.5327 58.3472 98.3182 58.7442 99.1593 58.9664L102.133 59.8657C103.392 60.1948 104.522 60.9017 105.371 61.8924C106.037 62.7617 106.384 63.8355 106.354 64.9324C106.365 65.78 106.175 66.6181 105.799 67.3771C105.433 68.1022 104.912 68.7377 104.275 69.2391C103.58 69.7784 102.789 70.1784 101.944 70.4171C100.98 70.682 99.9823 70.8057 98.9829 70.7844Z" fill="#252F3E"/>
<path fill-rule="evenodd" clip-rule="evenodd" d="M102.94 81.1588C96.0474 86.2762 86.043 88.9995 77.5002 88.9995C65.9743 89.0758 54.8368 84.815 46.2774 77.0548C45.6348 76.4722 46.2018 75.6742 46.983 76.1175C56.4783 81.5778 67.229 84.4467 78.168 84.4395C86.3372 84.3954 94.4172 82.7295 101.944 79.5375C103.103 79.0435 104.086 80.3102 102.94 81.1588Z" fill="#FF9900"/>
<path fill-rule="evenodd" clip-rule="evenodd" d="M105.812 77.867C104.93 76.727 99.9785 77.335 97.7609 77.601C97.0931 77.677 96.9797 77.0943 97.5845 76.6637C101.528 73.877 108.005 74.675 108.748 75.6123C109.492 76.5497 108.547 83.073 104.855 86.189C104.288 86.6703 103.746 86.417 103.998 85.7837C104.83 83.681 106.694 79.007 105.812 77.867Z" fill="#FF9900"/>
<path d="M63.7533 64.7424C63.7333 65.3761 63.8141 66.009 63.9927 66.6171C64.1768 67.1379 64.4044 67.6422 64.6731 68.1244C64.7646 68.2687 64.8168 68.4347 64.8243 68.6057C64.811 68.734 64.7675 68.8572 64.6974 68.9651C64.6273 69.0731 64.5326 69.1626 64.4211 69.2264L63.1611 70.1131C62.9981 70.2282 62.8057 70.2941 62.6067 70.3031C62.4896 70.2989 62.3745 70.2709 62.2684 70.2208C62.1623 70.1707 62.0674 70.0996 61.9893 70.0117C61.6966 69.7207 61.4425 69.3928 61.2333 69.0364C61.0233 68.6817 60.8091 68.2595 60.5907 67.7697C59.8528 68.6956 58.9139 69.4395 57.846 69.9445C56.778 70.4494 55.6093 70.7021 54.4293 70.6831C53.6673 70.7251 52.9046 70.6133 52.1862 70.3545C51.4677 70.0956 50.8081 69.6948 50.2461 69.1757C49.7255 68.6434 49.3201 68.0084 49.0556 67.3108C48.791 66.6132 48.673 65.8681 48.7089 65.1224C48.6755 64.3119 48.8234 63.5043 49.1418 62.7589C49.4602 62.0135 49.9409 61.3495 50.5485 60.8157C52.0074 59.6608 53.8351 59.0798 55.6893 59.1817C56.4314 59.1839 57.1725 59.2389 57.9069 59.3464C58.6797 59.4562 59.4819 59.6082 60.3135 59.8024V58.2571C60.4359 57.046 60.0782 55.8353 59.3181 54.8877C58.3457 54.136 57.1239 53.787 55.9035 53.9124C55.1434 53.9163 54.3865 54.0098 53.6481 54.1911C52.8797 54.3758 52.1259 54.6171 51.3927 54.9131C51.1557 55.0226 50.9115 55.1157 50.6619 55.1917H50.3343C50.0403 55.1917 49.8933 54.9722 49.8933 54.5331V53.5324C49.8753 53.2782 49.9276 53.0239 50.0445 52.7977C50.2024 52.603 50.4059 52.4507 50.6367 52.3544C51.48 51.9483 52.3624 51.63 53.2701 51.4044C54.3361 51.1292 55.4329 50.993 56.5335 50.9991C58.5131 50.8227 60.4821 51.437 62.0145 52.7091C62.6375 53.4097 63.1128 54.23 63.4116 55.1204C63.7105 56.0108 63.8267 56.9529 63.7533 57.8897V64.7424ZM55.2483 67.9471C55.9872 67.9363 56.7193 67.8036 57.4155 67.5544C58.1829 67.2872 58.8657 66.8194 59.3937 66.1991C59.719 65.8344 59.96 65.4018 60.0993 64.9324C60.2444 64.3357 60.3121 63.7226 60.3009 63.1084V62.2217C59.6652 62.0686 59.0216 61.9502 58.3731 61.8671C57.7212 61.7832 57.0647 61.7409 56.4075 61.7404C55.3041 61.6572 54.2057 61.9568 53.2953 62.5891C52.9665 62.8807 52.7065 63.2423 52.5343 63.6477C52.3621 64.0531 52.2821 64.492 52.2999 64.9324C52.2701 65.337 52.3229 65.7435 52.4551 66.1269C52.5873 66.5103 52.796 66.8624 53.0685 67.1617C53.3627 67.4302 53.7066 67.6377 54.0807 67.7725C54.4547 67.9072 54.8515 67.9665 55.2483 67.9471ZM72.0693 70.2271C71.7854 70.2532 71.5012 70.1817 71.2629 70.0244C71.0398 69.7986 70.8867 69.5126 70.8219 69.2011L65.9205 52.9117C65.8254 52.6371 65.762 52.3523 65.7315 52.0631C65.7208 51.9924 65.7268 51.9202 65.749 51.8523C65.7712 51.7844 65.8089 51.7227 65.8592 51.6721C65.9095 51.6216 65.9709 51.5836 66.0384 51.5613C66.106 51.539 66.1778 51.533 66.2481 51.5437H68.3019C68.59 51.5147 68.8792 51.5863 69.1209 51.7464C69.3294 51.9791 69.4729 52.2632 69.5367 52.5697L73.0521 66.5031L76.3155 52.5697C76.3659 52.2623 76.5114 51.9786 76.7313 51.7591C76.9839 51.6024 77.2798 51.5314 77.5755 51.5564H79.2639C79.5596 51.5314 79.8555 51.6024 80.1081 51.7591C80.3258 51.9837 80.4669 52.272 80.5113 52.5824L83.7999 66.6931L87.4287 52.5824C87.4956 52.2744 87.6435 51.99 87.8571 51.7591C88.0988 51.5989 88.388 51.5274 88.6761 51.5564H90.6165C90.6868 51.5457 90.7586 51.5517 90.8262 51.574C90.8937 51.5963 90.9551 51.6343 91.0054 51.6848C91.0557 51.7353 91.0934 51.7971 91.1156 51.865C91.1378 51.9329 91.1438 52.0051 91.1331 52.0757C91.1436 52.1853 91.1436 52.2956 91.1331 52.4051C91.0929 52.581 91.0424 52.7544 90.9819 52.9244L85.9419 69.2137C85.8771 69.5253 85.724 69.8112 85.5009 70.0371C85.2626 70.1944 84.9784 70.2658 84.6945 70.2397H82.8549C82.557 70.2711 82.2577 70.1948 82.0107 70.0244C81.7946 69.7887 81.6541 69.4929 81.6075 69.1757L78.3441 55.6097L75.1185 69.1631C75.0719 69.4803 74.9314 69.776 74.7153 70.0117C74.4683 70.1821 74.169 70.2585 73.8711 70.2271H72.0693ZM98.9829 70.7844C97.8973 70.7862 96.815 70.663 95.7573 70.4171C94.9161 70.2468 94.1021 69.9613 93.3381 69.5684C93.1084 69.4706 92.9127 69.3064 92.7759 69.0967C92.639 68.887 92.5672 68.6412 92.5695 68.3904V67.3264C92.5695 66.8873 92.7291 66.6677 93.0483 66.6677C93.1819 66.6697 93.3142 66.6955 93.4389 66.7437L93.9681 66.9591C94.7076 67.288 95.4809 67.5344 96.2739 67.6937C97.103 67.865 97.9475 67.9499 98.7939 67.9471C99.8595 68.0106 100.921 67.769 101.856 67.2504C102.197 67.0467 102.477 66.7547 102.668 66.4049C102.858 66.0551 102.952 65.6604 102.939 65.2617C102.946 64.9913 102.9 64.722 102.803 64.4698C102.705 64.2175 102.559 63.9873 102.372 63.7924C101.736 63.2566 100.986 62.8752 100.18 62.6777L97.1433 61.7151C95.8646 61.3579 94.7256 60.6152 93.8799 59.5871C93.2045 58.7141 92.8366 57.6403 92.8341 56.5344C92.8165 55.7169 93.012 54.9091 93.4011 54.1911C93.7776 53.5157 94.2879 52.925 94.9005 52.4557C95.5427 51.9648 96.2686 51.5957 97.0425 51.3664C97.8983 51.1181 98.7852 50.9944 99.6759 50.9991C100.148 50.9987 100.619 51.0283 101.087 51.0877C101.566 51.1469 102.02 51.2271 102.448 51.3284C102.876 51.4297 103.275 51.5395 103.645 51.6577C103.949 51.7537 104.244 51.8766 104.527 52.0251C104.766 52.1544 104.976 52.3311 105.144 52.5444C105.278 52.7514 105.344 52.9948 105.333 53.2411V54.2417C105.333 54.6809 105.174 54.9004 104.854 54.9004C104.572 54.8687 104.298 54.7827 104.048 54.6471C102.777 54.0919 101.402 53.8155 100.016 53.8364C99.052 53.786 98.0917 53.9913 97.2315 54.4317C96.9092 54.621 96.6455 54.8964 96.4698 55.2274C96.294 55.5584 96.2131 55.9319 96.2361 56.3064C96.2298 56.585 96.2815 56.8619 96.3878 57.1193C96.4941 57.3767 96.6527 57.6089 96.8535 57.8011C97.5327 58.3472 98.3182 58.7442 99.1593 58.9664L102.133 59.8657C103.392 60.1948 104.522 60.9017 105.371 61.8924C106.037 62.7617 106.384 63.8355 106.354 64.9324C106.365 65.78 106.175 66.6181 105.799 67.3771C105.433 68.1022 104.912 68.7377 104.275 69.2391C103.58 69.7784 102.789 70.1784 101.944 70.4171C100.98 70.682 99.9823 70.8057 98.9829 70.7844Z" fill="#252F3E"/>
<path fill-rule="evenodd" clip-rule="evenodd" d="M102.94 81.1588C96.0474 86.2762 86.043 88.9995 77.5002 88.9995C65.9743 89.0758 54.8368 84.815 46.2774 77.0548C45.6348 76.4722 46.2018 75.6742 46.983 76.1175C56.4783 81.5778 67.229 84.4467 78.168 84.4395C86.3372 84.3954 94.4172 82.7295 101.944 79.5375C103.103 79.0435 104.086 80.3102 102.94 81.1588Z" fill="#FF9900"/>
<path fill-rule="evenodd" clip-rule="evenodd" d="M105.812 77.867C104.93 76.727 99.9785 77.335 97.7609 77.601C97.0931 77.677 96.9797 77.0943 97.5845 76.6637C101.528 73.877 108.005 74.675 108.748 75.6123C109.492 76.5497 108.547 83.073 104.855 86.189C104.288 86.6703 103.746 86.417 103.998 85.7837C104.83 83.681 106.694 79.007 105.812 77.867Z" fill="#FF9900"/>
</g>
<rect x="46" y="203" width="151.435" height="6.9999" fill="#F7F7F7"/>
<rect x="46" y="189" width="183.053" height="6.9999" fill="#F0F0F0"/>
<rect x="46" y="175" width="218" height="6.9999" fill="#EBEBEB"/>
<rect x="46" y="257" width="151.435" height="6.9999" fill="#F7F7F7"/>
<rect x="46" y="243" width="183.053" height="6.9999" fill="#F0F0F0"/>
<rect x="46" y="229" width="218" height="6.9999" fill="#EBEBEB"/>
<line x1="46" y1="103.357" x2="261" y2="103.357" stroke="#E8EAEF" stroke-width="1.2853"/>
<line x1="46" y1="285.357" x2="261" y2="285.357" stroke="#E8EAEF" stroke-width="1.2853"/>
<path d="M55.411 309.404V310.988H51.6862V322H50.0307V310.988H46.3239V309.404H55.411ZM62.8645 320.866C61.9408 321.778 60.8192 322.234 59.4996 322.234C58.18 322.234 57.0584 321.778 56.1347 320.866C55.223 319.955 54.7671 318.833 54.7671 317.501C54.7671 316.17 55.223 315.048 56.1347 314.137C57.0584 313.225 58.18 312.769 59.4996 312.769C60.8192 312.769 61.9408 313.225 62.8645 314.137C63.7882 315.048 64.2501 316.17 64.2501 317.501C64.2501 318.833 63.7882 319.955 62.8645 320.866ZM59.4996 320.704C60.3993 320.704 61.1551 320.399 61.7669 319.787C62.3787 319.175 62.6846 318.413 62.6846 317.501C62.6846 316.59 62.3787 315.828 61.7669 315.216C61.1551 314.604 60.3993 314.298 59.4996 314.298C58.6119 314.298 57.8621 314.604 57.2503 315.216C56.6385 315.828 56.3326 316.59 56.3326 317.501C56.3326 318.413 56.6385 319.175 57.2503 319.787C57.8621 320.399 58.6119 320.704 59.4996 320.704ZM70.7968 314.514H68.4035V319.391C68.4035 319.835 68.4875 320.153 68.6554 320.345C68.8354 320.524 69.1053 320.62 69.4652 320.632C69.8251 320.632 70.2689 320.62 70.7968 320.596V322C69.4292 322.18 68.4275 322.072 67.7917 321.676C67.1559 321.268 66.838 320.506 66.838 319.391V314.514H65.0566V313.003H66.838V310.952L68.4035 310.484V313.003H70.7968V314.514ZM79.6429 313.003H81.2084V322H79.6429V320.452C78.8631 321.64 77.7295 322.234 76.242 322.234C74.9824 322.234 73.9087 321.778 73.021 320.866C72.1333 319.943 71.6894 318.821 71.6894 317.501C71.6894 316.182 72.1333 315.066 73.021 314.155C73.9087 313.231 74.9824 312.769 76.242 312.769C77.7295 312.769 78.8631 313.363 79.6429 314.55V313.003ZM76.4399 320.722C77.3516 320.722 78.1134 320.417 78.7252 319.805C79.337 319.181 79.6429 318.413 79.6429 317.501C79.6429 316.59 79.337 315.828 78.7252 315.216C78.1134 314.592 77.3516 314.28 76.4399 314.28C75.5402 314.28 74.7845 314.592 74.1726 315.216C73.5608 315.828 73.2549 316.59 73.2549 317.501C73.2549 318.413 73.5608 319.181 74.1726 319.805C74.7845 320.417 75.5402 320.722 76.4399 320.722ZM83.5803 322V308.864H85.1458V322H83.5803Z" fill="#4E5D78"/>
<path d="M195.949 322L192.548 316.062V315.27H192.944C193.58 315.27 194.114 315.21 194.546 315.09C194.99 314.97 195.338 314.772 195.589 314.496C195.841 314.22 195.991 313.843 196.039 313.363H192.548V312.211H196.021C195.937 311.767 195.769 311.407 195.517 311.131C195.266 310.844 194.924 310.634 194.492 310.502C194.072 310.37 193.556 310.304 192.944 310.304H192.548V309.152H199.998V310.304H196.597C196.873 310.532 197.101 310.802 197.281 311.113C197.461 311.425 197.575 311.791 197.623 312.211H199.998V313.363H197.659C197.575 314.238 197.239 314.922 196.651 315.414C196.075 315.894 195.308 316.2 194.348 316.332L197.785 322H195.949ZM204.969 309.404H206.769V322H204.699V311.617L202.162 312.337L201.658 310.574L204.969 309.404ZM215.731 315.45C216.967 316.134 217.584 317.154 217.584 318.509C217.584 319.661 217.183 320.572 216.379 321.244C215.575 321.904 214.507 322.234 213.176 322.234C211.844 322.234 210.771 321.904 209.955 321.244C209.151 320.572 208.749 319.661 208.749 318.509C208.749 317.861 208.911 317.274 209.235 316.746C209.559 316.206 210.015 315.774 210.603 315.45C209.655 314.826 209.181 313.939 209.181 312.787C209.181 311.635 209.565 310.748 210.333 310.124C211.101 309.488 212.048 309.17 213.176 309.17C214.291 309.17 215.233 309.488 216.001 310.124C216.781 310.748 217.171 311.635 217.171 312.787C217.171 313.939 216.691 314.826 215.731 315.45ZM213.176 311.131C212.612 311.131 212.15 311.281 211.79 311.581C211.43 311.881 211.25 312.313 211.25 312.877C211.25 313.417 211.43 313.843 211.79 314.155C212.162 314.466 212.624 314.622 213.176 314.622C213.716 314.622 214.172 314.466 214.543 314.155C214.915 313.843 215.101 313.417 215.101 312.877C215.101 312.313 214.915 311.881 214.543 311.581C214.184 311.281 213.728 311.131 213.176 311.131ZM213.176 320.273C213.872 320.273 214.435 320.105 214.867 319.769C215.299 319.421 215.515 318.935 215.515 318.311C215.515 317.687 215.299 317.208 214.867 316.872C214.435 316.524 213.872 316.35 213.176 316.35C212.468 316.35 211.898 316.524 211.466 316.872C211.035 317.208 210.819 317.687 210.819 318.311C210.819 318.935 211.035 319.421 211.466 319.769C211.898 320.105 212.468 320.273 213.176 320.273ZM223.689 314.55C224.601 314.766 225.338 315.192 225.902 315.828C226.478 316.452 226.766 317.238 226.766 318.185C226.766 319.445 226.34 320.435 225.488 321.154C224.637 321.874 223.593 322.234 222.357 322.234C221.398 322.234 220.534 322.012 219.766 321.568C219.01 321.124 218.465 320.476 218.129 319.625L219.892 318.599C220.264 319.679 221.086 320.219 222.357 320.219C223.077 320.219 223.647 320.039 224.067 319.679C224.487 319.307 224.697 318.809 224.697 318.185C224.697 317.561 224.487 317.07 224.067 316.71C223.647 316.35 223.077 316.17 222.357 316.17H221.89L221.062 314.928L223.779 311.347H218.507V309.404H226.244V311.167L223.689 314.55ZM230.878 319.841L229.618 324.519H227.999L228.719 319.841H230.878ZM236.756 314.155C237.955 314.155 238.969 314.514 239.797 315.234C240.624 315.942 241.038 316.926 241.038 318.185C241.038 319.445 240.612 320.435 239.761 321.154C238.909 321.874 237.865 322.234 236.63 322.234C235.634 322.234 234.752 322.006 233.984 321.55C233.217 321.082 232.671 320.411 232.347 319.535L234.128 318.509C234.464 319.649 235.298 320.219 236.63 320.219C237.337 320.219 237.901 320.039 238.321 319.679C238.753 319.307 238.969 318.809 238.969 318.185C238.969 317.561 238.759 317.07 238.339 316.71C237.919 316.35 237.361 316.17 236.666 316.17H232.995L233.481 309.404H240.498V311.347H235.388L235.172 314.155H236.756ZM250.635 320.452C249.771 321.64 248.559 322.234 247 322.234C245.44 322.234 244.223 321.64 243.347 320.452C242.483 319.265 242.051 317.681 242.051 315.702C242.051 313.723 242.483 312.139 243.347 310.952C244.223 309.764 245.44 309.17 247 309.17C248.559 309.17 249.771 309.764 250.635 310.952C251.51 312.139 251.948 313.723 251.948 315.702C251.948 317.681 251.51 319.265 250.635 320.452ZM247 320.219C247.935 320.219 248.649 319.829 249.141 319.049C249.633 318.269 249.879 317.154 249.879 315.702C249.879 314.25 249.633 313.135 249.141 312.355C248.649 311.575 247.935 311.185 247 311.185C246.076 311.185 245.362 311.575 244.858 312.355C244.367 313.135 244.121 314.25 244.121 315.702C244.121 317.154 244.367 318.269 244.858 319.049C245.362 319.829 246.076 320.219 247 320.219ZM261.969 320.452C261.105 321.64 259.893 322.234 258.334 322.234C256.774 322.234 255.557 321.64 254.681 320.452C253.817 319.265 253.386 317.681 253.386 315.702C253.386 313.723 253.817 312.139 254.681 310.952C255.557 309.764 256.774 309.17 258.334 309.17C259.893 309.17 261.105 309.764 261.969 310.952C262.844 312.139 263.282 313.723 263.282 315.702C263.282 317.681 262.844 319.265 261.969 320.452ZM258.334 320.219C259.27 320.219 259.983 319.829 260.475 319.049C260.967 318.269 261.213 317.154 261.213 315.702C261.213 314.25 260.967 313.135 260.475 312.355C259.983 311.575 259.27 311.185 258.334 311.185C257.41 311.185 256.696 311.575 256.193 312.355C255.701 313.135 255.455 314.25 255.455 315.702C255.455 317.154 255.701 318.269 256.193 319.049C256.696 319.829 257.41 320.219 258.334 320.219Z" fill="#323B4B"/>
<rect x="136" y="119" width="43" height="7" fill="#EBEBEB"/>
<rect x="136" y="149" width="36" height="7" fill="#F7F7F7"/>
<rect x="217" y="119" width="44" height="7" fill="#EBEBEB"/>
<rect x="217" y="149" width="36" height="7" fill="#F7F7F7"/>
<rect x="46" y="119" width="41" height="7" fill="#EBEBEB"/>
<rect x="46" y="149" width="36" height="7" fill="#F7F7F7"/>
<rect x="46" y="348" width="218" height="38.5604" rx="19.2802" fill="#5B2EBC"/>
<path d="M83.5201 370.28V363.303H86.0072C86.5501 363.303 86.9998 363.402 87.3564 363.599C87.713 363.797 87.9799 364.067 88.157 364.41C88.3342 364.751 88.4228 365.135 88.4228 365.562C88.4228 365.991 88.333 366.377 88.1536 366.72C87.9764 367.061 87.7084 367.331 87.3496 367.531C86.993 367.728 86.5444 367.827 86.0038 367.827H84.2935V366.935H85.9084C86.2514 366.935 86.5296 366.876 86.7431 366.757C86.9566 366.637 87.1133 366.473 87.2133 366.267C87.3132 366.06 87.3632 365.825 87.3632 365.562C87.3632 365.298 87.3132 365.064 87.2133 364.86C87.1133 364.655 86.9555 364.495 86.7397 364.379C86.5262 364.264 86.2446 364.206 85.8948 364.206H84.5729V370.28H83.5201ZM91.1883 370.396C90.8567 370.396 90.5569 370.335 90.2889 370.212C90.0208 370.087 89.8085 369.907 89.6517 369.67C89.4973 369.434 89.4201 369.145 89.4201 368.802C89.4201 368.506 89.4769 368.263 89.5904 368.072C89.704 367.882 89.8573 367.731 90.0504 367.619C90.2434 367.508 90.4592 367.424 90.6977 367.367C90.9362 367.31 91.1792 367.267 91.4268 367.238C91.7402 367.201 91.9946 367.172 92.1899 367.149C92.3853 367.124 92.5272 367.084 92.6158 367.03C92.7044 366.975 92.7487 366.887 92.7487 366.764V366.74C92.7487 366.443 92.6646 366.212 92.4966 366.049C92.3308 365.885 92.0832 365.803 91.7538 365.803C91.4109 365.803 91.1406 365.88 90.943 366.032C90.7477 366.182 90.6125 366.349 90.5376 366.533L89.5802 366.315C89.6938 365.997 89.8596 365.74 90.0776 365.545C90.2979 365.347 90.5512 365.204 90.8374 365.115C91.1236 365.024 91.4245 364.979 91.7402 364.979C91.9492 364.979 92.1706 365.004 92.4046 365.054C92.6408 365.102 92.8611 365.19 93.0655 365.32C93.2722 365.449 93.4414 365.634 93.5732 365.875C93.7049 366.113 93.7708 366.424 93.7708 366.805V370.28H92.7759V369.565H92.7351C92.6692 369.696 92.5704 369.826 92.4386 369.953C92.3069 370.08 92.1377 370.186 91.931 370.27C91.7243 370.354 91.4767 370.396 91.1883 370.396ZM91.4097 369.578C91.6914 369.578 91.9321 369.523 92.132 369.411C92.3342 369.3 92.4875 369.155 92.592 368.975C92.6987 368.794 92.7521 368.599 92.7521 368.393V367.718C92.7157 367.755 92.6453 367.789 92.5409 367.82C92.4386 367.85 92.3217 367.876 92.1899 367.899C92.0582 367.919 91.9299 367.938 91.805 367.957C91.68 367.973 91.5755 367.986 91.4915 367.998C91.2939 368.023 91.1133 368.065 90.9498 368.124C90.7885 368.183 90.6591 368.268 90.5614 368.379C90.466 368.488 90.4183 368.634 90.4183 368.815C90.4183 369.067 90.5114 369.258 90.6977 369.388C90.8839 369.515 91.1213 369.578 91.4097 369.578ZM95.7212 372.243C95.569 372.243 95.4305 372.23 95.3055 372.205C95.1806 372.182 95.0875 372.157 95.0262 372.13L95.2715 371.295C95.4577 371.345 95.6235 371.367 95.7689 371.36C95.9142 371.353 96.0426 371.299 96.1539 371.197C96.2674 371.094 96.3674 370.928 96.4537 370.696L96.5797 370.348L94.665 365.047H95.7553L97.0806 369.108H97.1351L98.4604 365.047H99.554L97.3974 370.979C97.2975 371.251 97.1703 371.482 97.0158 371.67C96.8614 371.861 96.6774 372.004 96.4639 372.1C96.2504 372.195 96.0028 372.243 95.7212 372.243ZM104.343 363.303V370.28H103.325V363.303H104.343ZM107.374 370.396C107.042 370.396 106.742 370.335 106.474 370.212C106.206 370.087 105.994 369.907 105.837 369.67C105.683 369.434 105.605 369.145 105.605 368.802C105.605 368.506 105.662 368.263 105.776 368.072C105.889 367.882 106.043 367.731 106.236 367.619C106.429 367.508 106.645 367.424 106.883 367.367C107.122 367.31 107.365 367.267 107.612 367.238C107.926 367.201 108.18 367.172 108.375 367.149C108.571 367.124 108.713 367.084 108.801 367.03C108.89 366.975 108.934 366.887 108.934 366.764V366.74C108.934 366.443 108.85 366.212 108.682 366.049C108.516 365.885 108.269 365.803 107.939 365.803C107.596 365.803 107.326 365.88 107.128 366.032C106.933 366.182 106.798 366.349 106.723 366.533L105.766 366.315C105.879 365.997 106.045 365.74 106.263 365.545C106.483 365.347 106.737 365.204 107.023 365.115C107.309 365.024 107.61 364.979 107.926 364.979C108.135 364.979 108.356 365.004 108.59 365.054C108.826 365.102 109.046 365.19 109.251 365.32C109.458 365.449 109.627 365.634 109.759 365.875C109.89 366.113 109.956 366.424 109.956 366.805V370.28H108.961V369.565H108.92C108.855 369.696 108.756 369.826 108.624 369.953C108.492 370.08 108.323 370.186 108.116 370.27C107.91 370.354 107.662 370.396 107.374 370.396ZM107.595 369.578C107.877 369.578 108.117 369.523 108.317 369.411C108.52 369.3 108.673 369.155 108.777 368.975C108.884 368.794 108.937 368.599 108.937 368.393V367.718C108.901 367.755 108.831 367.789 108.726 367.82C108.624 367.85 108.507 367.876 108.375 367.899C108.244 367.919 108.115 367.938 107.99 367.957C107.865 367.973 107.761 367.986 107.677 367.998C107.479 368.023 107.299 368.065 107.135 368.124C106.974 368.183 106.844 368.268 106.747 368.379C106.651 368.488 106.604 368.634 106.604 368.815C106.604 369.067 106.697 369.258 106.883 369.388C107.069 369.515 107.307 369.578 107.595 369.578ZM113.893 365.047V365.865H111.034V365.047H113.893ZM111.801 363.793H112.82V368.744C112.82 368.941 112.849 369.09 112.908 369.19C112.967 369.288 113.043 369.355 113.136 369.391C113.232 369.425 113.335 369.442 113.446 369.442C113.528 369.442 113.6 369.436 113.661 369.425C113.722 369.414 113.77 369.405 113.804 369.398L113.988 370.239C113.929 370.262 113.845 370.285 113.736 370.307C113.627 370.332 113.491 370.346 113.327 370.348C113.059 370.353 112.809 370.305 112.578 370.205C112.346 370.105 112.159 369.951 112.016 369.742C111.872 369.533 111.801 369.271 111.801 368.955V363.793ZM117.356 370.386C116.84 370.386 116.396 370.276 116.024 370.055C115.654 369.833 115.367 369.52 115.165 369.118C114.965 368.714 114.865 368.241 114.865 367.698C114.865 367.162 114.965 366.689 115.165 366.28C115.367 365.872 115.649 365.552 116.01 365.323C116.374 365.094 116.798 364.979 117.284 364.979C117.58 364.979 117.866 365.028 118.143 365.125C118.42 365.223 118.669 365.376 118.889 365.585C119.109 365.794 119.283 366.066 119.41 366.4C119.537 366.731 119.601 367.134 119.601 367.609V367.97H115.441V367.207H118.603C118.603 366.939 118.548 366.702 118.439 366.495C118.33 366.286 118.177 366.121 117.979 366.001C117.784 365.881 117.555 365.82 117.291 365.82C117.005 365.82 116.755 365.891 116.542 366.032C116.33 366.17 116.167 366.352 116.051 366.577C115.937 366.799 115.881 367.041 115.881 367.303V367.899C115.881 368.249 115.942 368.546 116.065 368.791C116.19 369.037 116.363 369.224 116.586 369.354C116.809 369.481 117.069 369.544 117.366 369.544C117.559 369.544 117.735 369.517 117.894 369.463C118.053 369.406 118.191 369.322 118.306 369.21C118.422 369.099 118.511 368.962 118.572 368.798L119.536 368.972C119.459 369.256 119.321 369.505 119.121 369.718C118.923 369.929 118.674 370.094 118.375 370.212C118.077 370.328 117.737 370.386 117.356 370.386ZM120.868 370.28V365.047H121.853V365.878H121.908C122.003 365.597 122.171 365.375 122.412 365.214C122.655 365.051 122.93 364.969 123.236 364.969C123.3 364.969 123.375 364.971 123.461 364.976C123.55 364.98 123.619 364.986 123.669 364.993V365.967C123.628 365.956 123.555 365.943 123.451 365.93C123.346 365.914 123.242 365.906 123.137 365.906C122.897 365.906 122.682 365.957 122.494 366.059C122.307 366.159 122.16 366.299 122.051 366.478C121.942 366.655 121.887 366.857 121.887 367.084V370.28H120.868ZM128.498 370.28L126.958 365.047H128.011L129.036 368.89H129.088L130.116 365.047H131.169L132.191 368.873H132.242L133.261 365.047H134.314L132.777 370.28H131.738L130.675 366.502H130.597L129.534 370.28H128.498ZM135.418 370.28V365.047H136.436V370.28H135.418ZM135.932 364.24C135.755 364.24 135.603 364.181 135.476 364.063C135.351 363.942 135.288 363.799 135.288 363.633C135.288 363.465 135.351 363.322 135.476 363.204C135.603 363.084 135.755 363.023 135.932 363.023C136.109 363.023 136.26 363.084 136.385 363.204C136.512 363.322 136.576 363.465 136.576 363.633C136.576 363.799 136.512 363.942 136.385 364.063C136.26 364.181 136.109 364.24 135.932 364.24ZM140.387 365.047V365.865H137.528V365.047H140.387ZM138.295 363.793H139.313V368.744C139.313 368.941 139.343 369.09 139.402 369.19C139.461 369.288 139.537 369.355 139.63 369.391C139.726 369.425 139.829 369.442 139.94 369.442C140.022 369.442 140.094 369.436 140.155 369.425C140.216 369.414 140.264 369.405 140.298 369.398L140.482 370.239C140.423 370.262 140.339 370.285 140.23 370.307C140.121 370.332 139.985 370.346 139.821 370.348C139.553 370.353 139.303 370.305 139.072 370.205C138.84 370.105 138.652 369.951 138.509 369.742C138.366 369.533 138.295 369.271 138.295 368.955V363.793ZM142.782 367.173V370.28H141.763V363.303H142.768V365.899H142.833C142.955 365.617 143.143 365.393 143.395 365.228C143.647 365.062 143.976 364.979 144.383 364.979C144.742 364.979 145.055 365.053 145.323 365.2C145.594 365.348 145.802 365.568 145.95 365.861C146.1 366.152 146.175 366.516 146.175 366.952V370.28H145.156V367.074C145.156 366.69 145.057 366.393 144.86 366.182C144.662 365.968 144.387 365.861 144.035 365.861C143.795 365.861 143.579 365.912 143.388 366.015C143.2 366.117 143.051 366.267 142.942 366.464C142.835 366.66 142.782 366.896 142.782 367.173Z" fill="white"/>
<path d="M176.291 372.258C175.333 372.258 174.517 372.041 173.843 371.607C173.179 371.173 172.714 370.579 172.448 369.825L173.857 369.004C174.256 370.117 175.081 370.674 176.334 370.674C176.951 370.674 177.411 370.556 177.715 370.32C178.028 370.075 178.184 369.759 178.184 369.372C178.184 368.967 178.018 368.66 177.686 368.453C177.354 368.236 176.766 368 175.921 367.746C175.447 367.604 175.062 367.472 174.768 367.349C174.474 367.227 174.161 367.057 173.829 366.84C173.506 366.614 173.264 366.336 173.103 366.006C172.942 365.676 172.861 365.289 172.861 364.846C172.861 363.969 173.174 363.276 173.8 362.766C174.427 362.248 175.181 361.988 176.063 361.988C176.861 361.988 177.558 362.182 178.156 362.568C178.754 362.955 179.214 363.488 179.536 364.167L178.156 364.959C177.738 364.035 177.041 363.573 176.063 363.573C175.589 363.573 175.209 363.686 174.925 363.912C174.64 364.129 174.498 364.426 174.498 364.803C174.498 365.171 174.64 365.463 174.925 365.68C175.219 365.888 175.746 366.109 176.505 366.345C176.884 366.468 177.159 366.562 177.33 366.628C177.511 366.685 177.757 366.779 178.07 366.911C178.393 367.043 178.635 367.175 178.796 367.307C178.958 367.439 179.128 367.604 179.309 367.802C179.498 368 179.631 368.226 179.707 368.481C179.783 368.736 179.821 369.023 179.821 369.344C179.821 370.24 179.494 370.952 178.839 371.48C178.194 371.999 177.344 372.258 176.291 372.258Z" fill="white"/>
<path d="M186.393 365.001H187.931V372.074H186.393V371.056C185.815 371.857 184.984 372.258 183.903 372.258C182.925 372.258 182.09 371.9 181.397 371.183C180.705 370.457 180.358 369.575 180.358 368.538C180.358 367.491 180.705 366.609 181.397 365.892C182.09 365.176 182.925 364.817 183.903 364.817C184.984 364.817 185.815 365.213 186.393 366.006V365.001ZM182.536 370.164C182.963 370.589 183.499 370.801 184.145 370.801C184.79 370.801 185.326 370.589 185.753 370.164C186.18 369.731 186.393 369.188 186.393 368.538C186.393 367.887 186.18 367.349 185.753 366.925C185.326 366.491 184.79 366.274 184.145 366.274C183.499 366.274 182.963 366.491 182.536 366.925C182.109 367.349 181.896 367.887 181.896 368.538C181.896 369.188 182.109 369.731 182.536 370.164Z" fill="white"/>
<path d="M194.789 365.001H196.327V372.074H194.789V371.056C194.211 371.857 193.38 372.258 192.299 372.258C191.321 372.258 190.486 371.9 189.793 371.183C189.101 370.457 188.754 369.575 188.754 368.538C188.754 367.491 189.101 366.609 189.793 365.892C190.486 365.176 191.321 364.817 192.299 364.817C193.38 364.817 194.211 365.213 194.789 366.006V365.001ZM190.932 370.164C191.359 370.589 191.895 370.801 192.541 370.801C193.186 370.801 193.722 370.589 194.149 370.164C194.576 369.731 194.789 369.188 194.789 368.538C194.789 367.887 194.576 367.349 194.149 366.925C193.722 366.491 193.186 366.274 192.541 366.274C191.895 366.274 191.359 366.491 190.932 366.925C190.505 367.349 190.292 367.887 190.292 368.538C190.292 369.188 190.505 369.731 190.932 370.164Z" fill="white"/>
<path d="M200.965 372.258C200.007 372.258 199.191 372.041 198.517 371.607C197.853 371.173 197.388 370.579 197.122 369.825L198.531 369.004C198.93 370.117 199.755 370.674 201.008 370.674C201.625 370.674 202.085 370.556 202.388 370.32C202.702 370.075 202.858 369.759 202.858 369.372C202.858 368.967 202.692 368.66 202.36 368.453C202.028 368.236 201.439 368 200.595 367.746C200.121 367.604 199.736 367.472 199.442 367.349C199.148 367.227 198.835 367.057 198.503 366.84C198.18 366.614 197.938 366.336 197.777 366.006C197.615 365.676 197.535 365.289 197.535 364.846C197.535 363.969 197.848 363.276 198.474 362.766C199.1 362.248 199.855 361.988 200.737 361.988C201.534 361.988 202.232 362.182 202.83 362.568C203.427 362.955 203.888 363.488 204.21 364.167L202.83 364.959C202.412 364.035 201.715 363.573 200.737 363.573C200.263 363.573 199.883 363.686 199.599 363.912C199.314 364.129 199.172 364.426 199.172 364.803C199.172 365.171 199.314 365.463 199.599 365.68C199.893 365.888 200.419 366.109 201.179 366.345C201.558 366.468 201.833 366.562 202.004 366.628C202.184 366.685 202.431 366.779 202.744 366.911C203.067 367.043 203.309 367.175 203.47 367.307C203.631 367.439 203.802 367.604 203.983 367.802C204.172 368 204.305 368.226 204.381 368.481C204.457 368.736 204.495 369.023 204.495 369.344C204.495 370.24 204.168 370.952 203.513 371.48C202.868 371.999 202.018 372.258 200.965 372.258Z" fill="white"/>
<path d="M208.979 362.172C209.871 362.172 210.611 362.464 211.2 363.049C211.788 363.634 212.082 364.365 212.082 365.242C212.082 366.119 211.788 366.85 211.2 367.434C210.611 368.01 209.871 368.297 208.979 368.297H206.346V372.074H205.592V362.172H208.979ZM208.979 367.59C209.662 367.59 210.222 367.368 210.659 366.925C211.105 366.482 211.328 365.921 211.328 365.242C211.328 364.553 211.105 363.987 210.659 363.544C210.222 363.101 209.662 362.879 208.979 362.879H206.346V367.59H208.979Z" fill="white"/>
<path d="M218.927 365.001H219.652V372.074H218.927V370.476C218.623 371.023 218.205 371.452 217.674 371.763C217.143 372.074 216.54 372.23 215.866 372.23C214.851 372.23 213.983 371.876 213.262 371.169C212.541 370.452 212.18 369.575 212.18 368.538C212.18 367.5 212.541 366.628 213.262 365.921C213.983 365.204 214.851 364.846 215.866 364.846C216.54 364.846 217.143 365.001 217.674 365.312C218.205 365.624 218.623 366.053 218.927 366.6V365.001ZM213.774 370.674C214.362 371.258 215.079 371.551 215.923 371.551C216.768 371.551 217.48 371.258 218.058 370.674C218.637 370.089 218.927 369.377 218.927 368.538C218.927 367.698 218.637 366.986 218.058 366.402C217.48 365.817 216.768 365.525 215.923 365.525C215.079 365.525 214.362 365.817 213.774 366.402C213.195 366.986 212.906 367.698 212.906 368.538C212.906 369.377 213.195 370.089 213.774 370.674Z" fill="white"/>
<path d="M226.478 365.001H227.246L224.172 372.725C223.897 373.423 223.508 373.97 223.005 374.366C222.502 374.771 221.952 374.95 221.354 374.903V374.238C221.809 374.276 222.217 374.144 222.578 373.842C222.948 373.55 223.247 373.13 223.475 372.583L223.631 372.201L220.357 365.001H221.126L224.001 371.296L226.478 365.001Z" fill="white"/>
<path d="M168.094 359.65L165.823 363.526H156.674C156.501 363.265 156.369 362.957 156.335 362.606C156.285 362.095 156.449 361.558 156.784 361.084C157.45 360.213 158.502 359.65 159.685 359.65H168.094Z" fill="#00B88B"/>
<path d="M163.309 374.882H163.309L163.6 374.884L163.309 374.882ZM164.823 369.944C164.822 369.945 164.822 369.946 164.821 369.947C164.912 369.994 165.597 370.361 166.027 371.009C166.201 371.271 166.333 371.579 166.367 371.93C166.416 372.44 166.252 372.977 165.917 373.452V373.453C165.251 374.322 164.199 374.885 163.016 374.885H163.889H163.891C165.815 374.885 167.395 373.396 167.528 371.517L167.53 371.009L167.539 368.22C167.539 367.487 167.144 366.802 166.507 366.432L163.329 364.558L161.38 368.007L164.823 369.944Z" fill="white"/>
<path d="M157.878 364.594C157.879 364.592 157.879 364.591 157.88 364.59C157.79 364.543 157.104 364.176 156.674 363.528C156.5 363.266 156.368 362.959 156.334 362.607C156.285 362.097 156.45 361.56 156.784 361.085V361.085C157.45 360.215 158.502 359.652 159.685 359.652H158.813H158.81C156.886 359.652 155.306 361.141 155.173 363.021L155.171 363.528L155.162 366.317C155.162 367.05 155.558 367.736 156.194 368.106L159.32 369.887L161.269 366.641L157.878 364.594Z" fill="white"/>
<path d="M154.606 374.885L156.878 371.009H166.027C166.2 371.27 166.332 371.578 166.366 371.93C166.415 372.44 166.251 372.977 165.917 373.452C165.25 374.322 164.198 374.885 163.015 374.885H154.606Z" fill="#00B88B"/>
</g>
<defs>
<filter id="filter0_d_0_408" x="0.293947" y="0.435158" width="312.328" height="442.144" filterUnits="userSpaceOnUse" color-interpolation-filters="sRGB">
<feFlood flood-opacity="0" result="BackgroundImageFix"/>
<feColorMatrix in="SourceAlpha" type="matrix" values="0 0 0 0 0 0 0 0 0 0 0 0 0 0 0 0 0 0 127 0" result="hardAlpha"/>
<feOffset dy="5.14121"/>
<feGaussianBlur stdDeviation="12.853"/>
<feComposite in2="hardAlpha" operator="out"/>
<feColorMatrix type="matrix" values="0 0 0 0 0.690196 0 0 0 0 0.717647 0 0 0 0 0.764706 0 0 0 0.14 0"/>
<feBlend mode="normal" in2="BackgroundImageFix" result="effect1_dropShadow_0_408"/>
<feBlend mode="normal" in="SourceGraphic" in2="effect1_dropShadow_0_408" result="shape"/>
</filter>
<clipPath id="clip0_0_408">
<rect width="63" height="38" fill="white" transform="translate(46 51)"/>
</clipPath>
</defs>
</svg>
