<svg width="79" height="80" viewBox="0 0 79 80" fill="none" xmlns="http://www.w3.org/2000/svg">
<path d="M8.56061 0.6875H70.5477C72.7649 0.819603 74.8549 1.76718 76.4154 3.34782C77.9758 4.92846 78.8964 7.03045 79 9.24916V71.2384C78.8611 73.3054 78.0238 75.3283 76.5974 76.8378C74.9943 78.5541 72.7843 79.5767 70.4383 79.6875H8.58481C6.30933 79.5903 4.15602 78.6312 2.56174 77.0047C0.967461 75.3782 0.051613 73.2061 0 70.9291V9.26074C0.100227 7.02136 1.03395 4.90034 2.61785 3.31411C4.20174 1.72788 6.32139 0.791027 8.56061 0.6875ZM24.3101 19.0626C23.8452 19.4729 23.7421 20.1146 23.6485 20.6973C21.8202 32.6571 19.9898 44.614 18.1574 56.5682C18.1469 56.7375 18.0669 56.9174 18.1458 57.0836C18.333 57.1709 18.4824 56.9784 18.5529 56.8311C22.4103 49.1941 26.2267 41.5382 30.1094 33.9148C30.3514 33.452 30.5365 32.8629 31.073 32.6651C31.5537 32.479 32.0197 32.7893 32.3648 33.1049C34.8137 35.1386 37.266 37.1664 39.722 39.1882C39.9702 39.3617 40.2679 39.6668 40.593 39.4985C40.8339 39.3028 40.9138 38.983 41.0621 38.7222C44.1029 32.6911 47.1496 26.66 50.2023 20.629C47.5578 19.2898 44.5924 18.6303 41.6323 18.6082C36.4452 18.5735 31.2571 18.5977 26.0689 18.6008C25.4683 18.6355 24.7866 18.6292 24.3101 19.0553M57.9845 27.214C57.894 27.2663 57.8164 27.3382 57.7573 27.4244C52.7684 34.1954 47.7801 40.9638 42.7925 47.7298C42.5443 48.0233 42.0846 47.9339 41.8458 47.672C39.136 45.3104 36.3568 43.0277 33.6576 40.6546C33.1768 40.2454 32.4426 40.5147 32.1428 41.0133C27.59 47.2039 23.011 53.3777 18.514 59.6135C18.352 59.8733 18.0722 60.1142 18.1058 60.4551C18.1858 60.8495 18.554 61.1041 18.9074 61.2398C19.4491 61.4228 20.0298 61.3871 20.5905 61.3902H36.3642C39.8356 61.3713 43.2543 60.433 46.3575 58.9224C49.7641 57.2583 52.7624 54.8641 55.1391 51.9102C57.61 48.907 59.432 45.3493 60.2704 41.5434C60.9015 38.6464 61.1498 35.6127 60.5397 32.6904C60.1547 30.9021 59.6508 29.1212 58.8008 27.496C58.7651 27.424 58.7154 27.3598 58.6547 27.3072C58.5939 27.2546 58.5232 27.2147 58.4468 27.1897C58.3705 27.1647 58.2899 27.1552 58.2098 27.1617C58.1297 27.1683 58.0517 27.1907 57.9803 27.2277L57.9845 27.214Z" fill="#00FFA8"/>
<path d="M24.3094 19.0623C24.7859 18.6363 25.4665 18.6416 26.0682 18.6079C31.2563 18.6079 36.4445 18.5805 41.6368 18.6153C44.5969 18.6352 47.5623 19.2969 50.2069 20.636C47.1605 26.6671 44.1137 32.6982 41.0666 38.7292C40.9183 38.9901 40.8384 39.3099 40.5975 39.5055C40.2724 39.6739 39.9747 39.3688 39.7265 39.1952C37.272 37.172 34.8196 35.1442 32.3693 33.1119C32.0274 32.7963 31.5582 32.486 31.0775 32.6722C30.541 32.8721 30.3559 33.4591 30.1139 33.9219C26.2313 41.5452 22.4149 49.2012 18.5574 56.8382C18.4869 56.9844 18.3376 57.178 18.1503 57.0907C18.0714 56.9245 18.1503 56.7446 18.1619 56.5752C19.9902 44.6169 21.8205 32.6599 23.653 20.7044C23.7466 20.1248 23.8497 19.4799 24.3146 19.0697M57.9891 27.2285C58.0604 27.1915 58.1384 27.169 58.2185 27.1625C58.2986 27.156 58.3792 27.1655 58.4556 27.1904C58.532 27.2154 58.6026 27.2554 58.6634 27.3079C58.7242 27.3605 58.7739 27.4247 58.8096 27.4967C59.6595 29.1219 60.1634 30.905 60.5484 32.6911C61.1585 35.6134 60.9113 38.6472 60.2791 41.5442C59.4376 45.3501 57.6188 48.9077 55.1478 51.911C52.7683 54.8613 49.7684 57.2514 46.361 58.9116C43.2536 60.4221 39.8327 61.3605 36.3677 61.3794H20.5929C20.0291 61.3794 19.4484 61.412 18.9098 61.229C18.5564 61.0933 18.1882 60.8387 18.1083 60.4442C18.0746 60.1087 18.3544 59.8678 18.5164 59.6027C23.0134 53.3668 27.5925 47.1899 32.1484 41.0024C32.4482 40.5038 33.1824 40.2345 33.6632 40.6437C36.3624 43.0169 39.1416 45.2996 41.8514 47.6612C42.087 47.9231 42.5467 48.0125 42.7981 47.719C47.7864 40.953 52.7746 34.188 57.7629 27.4241C57.822 27.3379 57.8996 27.266 57.9901 27.2137L57.9891 27.2285Z" fill="black"/>
</svg>
