<svg width="202" height="300" viewBox="0 0 202 300" fill="none" xmlns="http://www.w3.org/2000/svg">
<path d="M132.224 123.562C122.894 121.714 109.814 124.808 97.3338 132.699C84.8538 140.579 76.0737 151.289 73.2137 160.849L68.0938 164.091L74.0937 174.686C80.4337 185.544 100.894 184.636 119.934 172.605C138.974 160.574 149.404 141.962 143.344 130.924L137.344 120.319L132.224 123.562Z" fill="white" stroke="black" stroke-width="2" stroke-miterlimit="10"/>
<path d="M114.063 162.33C133.189 150.249 143.635 131.522 137.397 120.502C131.158 109.483 110.596 110.343 91.47 122.424C72.3443 134.505 61.8974 153.232 68.1363 164.252C74.3752 175.271 94.9372 174.411 114.063 162.33Z" fill="white" stroke="black" stroke-width="2" stroke-miterlimit="10"/>
<path d="M73.132 161.091C68.382 152.705 77.812 137.526 94.202 127.175C110.592 116.823 127.712 115.228 132.462 123.615" fill="white"/>
<path d="M73.132 161.091C68.382 152.705 77.812 137.526 94.202 127.175C110.592 116.823 127.712 115.228 132.462 123.615" stroke="black" stroke-width="2" stroke-miterlimit="10"/>
<path d="M128.955 140.209C125.085 146.061 118.875 152.071 111.085 156.993C104.525 161.134 97.8545 163.88 91.8945 165.137" fill="white"/>
<path d="M128.955 140.209C125.085 146.061 118.875 152.071 111.085 156.993C104.525 161.134 97.8545 163.88 91.8945 165.137" stroke="black" stroke-width="2" stroke-miterlimit="10"/>
<path d="M90.6016 171.781L96.3116 181.869" stroke="black" stroke-width="2" stroke-miterlimit="10"/>
<path d="M136.652 138.572L142.362 148.67" stroke="black" stroke-width="2" stroke-miterlimit="10"/>
<path d="M83.6328 172.077L89.3428 182.165" stroke="black" stroke-width="2" stroke-miterlimit="10"/>
<path opacity="0.59" d="M19.9019 69.9141C36.9119 104.634 75.5319 94.2929 75.5319 94.2929C105.952 61.0942 81.3619 31.0855 81.3619 31.0855C81.3619 31.0855 70.8319 14.2908 40.6419 33.3671C10.4519 52.4434 19.9119 69.9141 19.9119 69.9141H19.9019Z" fill="white" stroke="black" stroke-width="2" stroke-miterlimit="10"/>
<path opacity="0.59" d="M132.174 120.456C115.164 85.7364 75.6138 94.2394 75.6138 94.2394C47.6838 129.086 70.7138 159.274 70.7138 159.274C70.7138 159.274 81.2438 176.069 111.434 156.993C141.624 137.916 132.164 120.446 132.164 120.446L132.174 120.456Z" fill="white" stroke="black" stroke-width="2" stroke-miterlimit="10"/>
<path d="M74.7747 129.994C61.9347 149.704 70.7247 159.274 70.7247 159.274C83.2447 175.857 111.185 157.161 111.185 157.161L80.5347 104.115C83.1547 109.893 78.1347 124.829 74.7647 129.994H74.7747Z" fill="#715CBE"/>
<path d="M132.093 120.509C132.093 120.509 131.623 113.252 107.923 113.252C99.273 113.252 84.123 109.291 80.543 104.115L111.193 157.161C111.193 157.161 141.553 138.919 132.093 120.509Z" fill="#715CBE"/>
<path d="M43.2031 92.1803C58.9731 100.007 75.3231 94.5675 75.3231 94.5675C86.2231 82.6633 90.2731 72.0689 90.1931 62.499L43.2031 92.1909V92.1803Z" fill="#715CBE"/>
<path d="M72.0993 86.8538C85.5086 78.3836 93.1551 65.8227 89.1782 58.7983C85.2013 51.774 71.107 52.946 57.6977 61.4163C44.2884 69.8865 36.6419 82.4473 40.6187 89.4717C44.5956 96.4961 58.6899 95.324 72.0993 86.8538Z" fill="#A7A7C5"/>
<path d="M85.293 31.2646L136.153 121.08" stroke="black" stroke-width="4" stroke-miterlimit="10"/>
<path d="M18.4219 73.5156L69.2819 163.331" stroke="black" stroke-width="4" stroke-miterlimit="10"/>
<path d="M75.3644 23.1529C66.0344 21.3044 52.9544 24.3993 40.4744 32.2897C27.9944 40.18 19.2144 50.8801 16.3544 60.4394L11.2344 63.6821L17.2344 74.2765C23.5744 85.135 44.0344 84.2266 63.0744 72.1957C82.1144 60.1647 92.5444 41.5532 86.4844 30.5151L80.4844 19.9102L75.3644 23.1529Z" fill="white" stroke="black" stroke-width="2" stroke-miterlimit="10"/>
<path d="M57.2231 61.9131C76.3488 49.832 86.7956 31.1051 80.5568 20.0854C74.3179 9.06572 53.7559 9.9261 34.6301 22.0072C15.5044 34.0882 5.0576 52.8151 11.2965 63.8348C17.5353 74.8545 38.0974 73.9941 57.2231 61.9131Z" fill="white" stroke="black" stroke-width="2" stroke-miterlimit="10"/>
<path d="M16.2843 60.6823C11.5343 52.2955 20.9643 37.1169 37.3543 26.7654C53.7343 16.4139 70.8643 14.8189 75.6143 23.2057" fill="white"/>
<path d="M16.2843 60.6823C11.5343 52.2955 20.9643 37.1169 37.3543 26.7654C53.7343 16.4139 70.8643 14.8189 75.6143 23.2057" stroke="black" stroke-width="2" stroke-miterlimit="10"/>
<path d="M72.0912 39.7998C68.2212 45.6516 62.0112 51.6617 54.2213 56.584C47.6613 60.7246 40.9913 63.4709 35.0312 64.7279" fill="white"/>
<path d="M72.0912 39.7998C68.2212 45.6516 62.0113 51.6617 54.2213 56.584C47.6613 60.7246 40.9913 63.4709 35.0312 64.7279" stroke="black" stroke-width="2" stroke-miterlimit="10"/>
<path d="M33.7422 71.3721L39.4522 81.4595" stroke="black" stroke-width="2" stroke-miterlimit="10"/>
<path d="M79.793 38.1621L85.513 48.2601" stroke="black" stroke-width="2" stroke-miterlimit="10"/>
<path d="M26.7734 71.667L32.4834 81.7544" stroke="black" stroke-width="2" stroke-miterlimit="10"/>
<path d="M89.5741 118.988L74.1641 91.4512" stroke="#715CBE" stroke-width="3" stroke-miterlimit="10"/>
<path opacity="0.48" d="M154.519 281.929C180.321 272.004 196.821 251.147 191.373 235.344C185.924 219.541 160.591 214.776 134.789 224.701C108.987 234.626 92.4871 255.483 97.9355 271.286C103.384 287.089 128.717 291.854 154.519 281.929Z" fill="#A7A7C5"/>
<path d="M86.9614 53.9434C86.9614 53.9434 88.4714 66.4919 85.9414 76.1779" stroke="white" stroke-miterlimit="10"/>
<path opacity="0.62" d="M40.9023 85.0818C40.9023 85.0818 45.2223 92.6975 71.1723 91.1765C71.1723 91.1765 56.1523 89.2752 53.5723 81.8496C53.5723 81.8496 50.9923 85.0818 40.9023 85.0818Z" fill="white"/>
<path d="M81.2524 159.687C81.2524 159.687 65.4024 139.892 74.0424 109.45" stroke="white" stroke-miterlimit="10"/>
<path opacity="0.62" d="M131.172 127.459C131.172 127.459 128.092 107.158 87.7422 102.595C87.7422 102.595 115.122 117.816 118.012 143.694C118.012 143.694 128.102 142.173 131.182 127.459H131.172Z" fill="white"/>
</svg>
