<svg width="642" height="594" viewBox="0 0 642 594" fill="none" xmlns="http://www.w3.org/2000/svg">
<g clip-path="url(#clip0_1_762)">
<rect width="642" height="594" rx="10" transform="matrix(-1 0 0 1 642 0)" fill="#E0F4ED"/>
<path d="M972.603 624.991L-357.669 624.991C-368.714 624.991 -377.669 616.037 -377.669 604.991L-377.669 -27.5879C-377.669 -38.6336 -368.714 -47.5879 -357.669 -47.5879L972.603 -47.5879C983.649 -47.5879 992.603 -38.6337 992.603 -27.588V604.991C992.603 616.037 983.649 624.991 972.603 624.991Z" fill="url(#paint0_linear_1_762)"/>
<g opacity="0.29">
<path d="M784.787 299.612C659.515 352.775 507.091 321.416 400.879 234.865L-241.584 -289.505C-255.063 -300.507 -249.038 -322.283 -231.82 -324.79L106.447 -374.056C112.098 -374.879 117.831 -373.248 122.202 -369.572L852.116 244.231C863.994 254.219 860.464 273.343 845.802 278.432L784.787 299.612Z" fill="url(#paint1_linear_1_762)"/>
<path d="M1195.27 77.3027L1001.26 256.078L965.997 288.556C825.944 401.314 606.591 402.458 465.129 287.182L423.985 252.374C578.632 356.276 771.243 336.401 851.956 245.584C873.678 221.028 885.43 193.286 890.754 166.026C904.245 99.0877 879.593 34.8297 875.888 25.8587C875.844 25.7515 875.887 25.6513 876.003 25.6482C876.114 25.6452 876.149 25.5258 876.113 25.4211L758.437 -319.595C754.676 -330.622 761.099 -342.516 772.382 -345.42L1110.33 -432.384C1120.45 -434.989 1130.87 -429.361 1134.24 -419.468L1243.38 -99.3295C1264.55 -37.4514 1246.06 30.2259 1195.27 77.3027Z" fill="url(#paint2_linear_1_762)"/>
</g>
<g opacity="0.29">
<path d="M-204.229 251.351C-62.4565 191.185 110.048 226.673 230.252 324.627L961.985 921.861C975.464 932.863 969.439 954.639 952.221 957.147L562.297 1013.94C556.646 1014.76 550.913 1013.13 546.543 1009.45L-283.979 311.043C-295.857 301.054 -292.327 281.931 -277.665 276.841L-204.229 251.351Z" fill="url(#paint3_linear_1_762)"/>
<path d="M-668.801 502.949C-668.8 502.949 -668.8 502.948 -668.799 502.948L-449.234 300.62L-409.323 263.863C-250.82 136.25 -2.57326 134.957 157.527 265.419L204.093 304.812C29.0739 187.221 -188.91 209.717 -280.255 312.498C-304.839 340.29 -318.141 371.689 -324.164 402.537C-339.431 478.29 -311.535 551.014 -307.34 561.169C-307.29 561.291 -307.339 561.403 -307.471 561.407C-307.596 561.411 -307.635 561.546 -307.595 561.664L-173.499 954.823C-169.738 965.85 -176.161 977.744 -187.444 980.648L-575.026 1080.38C-585.148 1082.99 -595.569 1077.36 -598.941 1067.47L-723.241 702.849C-747.201 632.819 -726.283 556.229 -668.804 502.95C-668.803 502.949 -668.802 502.949 -668.801 502.949Z" fill="url(#paint4_linear_1_762)"/>
</g>
</g>
<defs>
<linearGradient id="paint0_linear_1_762" x1="1024.77" y1="-67.6731" x2="-297.42" y2="802.016" gradientUnits="userSpaceOnUse">
<stop stop-color="#2E005C"/>
<stop offset="0.13" stop-color="#3A0072"/>
<stop offset="0.371" stop-color="#280061"/>
<stop offset="0.641" stop-color="#280068"/>
<stop offset="1" stop-color="#1C004A"/>
</linearGradient>
<linearGradient id="paint1_linear_1_762" x1="86.9986" y1="-199.962" x2="725.816" y2="441.937" gradientUnits="userSpaceOnUse">
<stop stop-color="#310062"/>
<stop offset="0.224" stop-color="#450286"/>
<stop offset="0.623" stop-color="#5B05AF"/>
<stop offset="0.990592" stop-color="#4B00CC"/>
</linearGradient>
<linearGradient id="paint2_linear_1_762" x1="1136.18" y1="-238.023" x2="458.779" y2="448.382" gradientUnits="userSpaceOnUse">
<stop stop-color="#1A0049"/>
<stop offset="0.224" stop-color="#15003A"/>
<stop offset="0.346875" stop-color="#340265"/>
<stop offset="0.623" stop-color="#220044"/>
<stop offset="0.996" stop-color="#6900CF"/>
</linearGradient>
<linearGradient id="paint3_linear_1_762" x1="851.9" y1="1032.71" x2="-264.303" y2="-132.695" gradientUnits="userSpaceOnUse">
<stop stop-color="#5A28B3"/>
<stop offset="0.224" stop-color="#4200B9"/>
<stop offset="0.623" stop-color="#410081"/>
<stop offset="0.996" stop-color="#8037FF"/>
</linearGradient>
<linearGradient id="paint4_linear_1_762" x1="-353.631" y1="660.573" x2="694.592" y2="-233.813" gradientUnits="userSpaceOnUse">
<stop stop-color="#280168"/>
<stop offset="0.224" stop-color="#3E00AE"/>
<stop offset="0.623" stop-color="#5500EB"/>
<stop offset="0.996" stop-color="#8037FF"/>
</linearGradient>
<clipPath id="clip0_1_762">
<path d="M642 20C642 8.95429 633.046 0 622 0H0V594H622C633.046 594 642 585.046 642 574V20Z" fill="white"/>
</clipPath>
</defs>
</svg>
