<svg width="879" height="730" viewBox="0 0 879 730" fill="none" xmlns="http://www.w3.org/2000/svg">
<path d="M536.097 447.786L369.621 456.738C351.571 457.708 333.542 454.484 316.947 447.318L228.457 409.103C188.746 391.954 150.481 435.978 172.993 472.913V472.913C188.523 498.394 224.277 501.58 244.068 479.248L254.917 467.007C260.08 461.181 264.291 454.577 267.393 447.437L274.729 430.558C300.084 372.216 257.323 307.008 193.71 307.008V307.008V307.008C134.11 300.301 116.019 222.42 166.559 190.128L218.676 156.829" stroke="#896CF6" stroke-linecap="round" stroke-linejoin="round" stroke-dasharray="3 3"/>
<rect x="525" y="435" width="63" height="9" rx="4.5" fill="#F9F8FF"/>
<g filter="url(#filter0_d_12_38)">
<g filter="url(#filter1_b_12_38)">
<rect x="325" y="316" width="469.165" height="293" rx="12" fill="white" fill-opacity="0.7"/>
</g>
</g>
<path d="M528.551 365.994V356.7H532.037C532.75 356.7 533.35 356.824 533.834 357.072C534.321 357.32 534.688 357.668 534.936 358.116C535.187 358.561 535.313 359.079 535.313 359.672C535.313 360.268 535.186 360.786 534.932 361.224C534.681 361.66 534.31 361.997 533.82 362.236C533.33 362.472 532.728 362.59 532.014 362.59H529.532V361.193H531.787C532.204 361.193 532.546 361.135 532.813 361.02C533.079 360.902 533.275 360.731 533.402 360.507C533.533 360.281 533.598 360.002 533.598 359.672C533.598 359.343 533.533 359.061 533.402 358.828C533.272 358.592 533.074 358.414 532.808 358.293C532.542 358.169 532.198 358.107 531.778 358.107H530.235V365.994H528.551ZM533.353 361.783L535.653 365.994H533.775L531.515 361.783H533.353ZM539.982 366.13C539.283 366.13 538.68 365.985 538.171 365.694C537.666 365.401 537.277 364.986 537.005 364.451C536.733 363.912 536.597 363.279 536.597 362.549C536.597 361.832 536.733 361.203 537.005 360.662C537.28 360.117 537.665 359.694 538.158 359.391C538.651 359.086 539.23 358.933 539.896 358.933C540.325 358.933 540.731 359.002 541.112 359.141C541.496 359.278 541.835 359.489 542.128 359.777C542.425 360.064 542.658 360.43 542.827 360.875C542.997 361.317 543.081 361.843 543.081 362.454V362.958H537.368V361.851H541.507C541.504 361.536 541.436 361.256 541.302 361.011C541.169 360.763 540.983 360.568 540.744 360.426C540.508 360.284 540.233 360.212 539.918 360.212C539.583 360.212 539.288 360.294 539.033 360.457C538.779 360.618 538.581 360.83 538.439 361.093C538.3 361.353 538.229 361.639 538.226 361.95V362.917C538.226 363.322 538.3 363.67 538.448 363.961C538.596 364.248 538.804 364.469 539.07 364.623C539.336 364.775 539.648 364.85 540.005 364.85C540.244 364.85 540.46 364.817 540.654 364.75C540.847 364.681 541.015 364.579 541.157 364.446C541.299 364.313 541.407 364.148 541.479 363.952L543.013 364.124C542.916 364.53 542.732 364.883 542.46 365.186C542.19 365.486 541.845 365.718 541.425 365.885C541.004 366.048 540.523 366.13 539.982 366.13ZM547.717 366.13C547.022 366.13 546.424 365.977 545.925 365.672C545.429 365.366 545.046 364.944 544.777 364.405C544.511 363.864 544.377 363.241 544.377 362.536C544.377 361.828 544.514 361.203 544.786 360.662C545.058 360.117 545.442 359.694 545.939 359.391C546.438 359.086 547.028 358.933 547.708 358.933C548.274 358.933 548.775 359.037 549.21 359.246C549.649 359.452 549.998 359.744 550.259 360.122C550.519 360.497 550.667 360.935 550.703 361.438H549.133C549.07 361.102 548.918 360.822 548.679 360.598C548.443 360.371 548.127 360.258 547.731 360.258C547.395 360.258 547.1 360.349 546.846 360.53C546.592 360.709 546.394 360.966 546.252 361.302C546.112 361.637 546.043 362.04 546.043 362.509C546.043 362.984 546.112 363.392 546.252 363.734C546.391 364.073 546.586 364.334 546.837 364.519C547.091 364.7 547.389 364.791 547.731 364.791C547.973 364.791 548.189 364.746 548.38 364.655C548.574 364.561 548.735 364.427 548.865 364.251C548.996 364.076 549.085 363.862 549.133 363.611H550.703C550.664 364.104 550.519 364.542 550.268 364.923C550.017 365.301 549.675 365.597 549.242 365.812C548.81 366.024 548.301 366.13 547.717 366.13ZM555.344 366.13C554.645 366.13 554.042 365.985 553.533 365.694C553.028 365.401 552.639 364.986 552.367 364.451C552.095 363.912 551.959 363.279 551.959 362.549C551.959 361.832 552.095 361.203 552.367 360.662C552.642 360.117 553.027 359.694 553.52 359.391C554.013 359.086 554.592 358.933 555.258 358.933C555.687 358.933 556.093 359.002 556.474 359.141C556.858 359.278 557.197 359.489 557.49 359.777C557.787 360.064 558.02 360.43 558.189 360.875C558.359 361.317 558.443 361.843 558.443 362.454V362.958H552.73V361.851H556.869C556.866 361.536 556.798 361.256 556.664 361.011C556.531 360.763 556.345 360.568 556.106 360.426C555.87 360.284 555.595 360.212 555.28 360.212C554.945 360.212 554.65 360.294 554.396 360.457C554.141 360.618 553.943 360.83 553.801 361.093C553.662 361.353 553.591 361.639 553.588 361.95V362.917C553.588 363.322 553.662 363.67 553.81 363.961C553.958 364.248 554.166 364.469 554.432 364.623C554.698 364.775 555.01 364.85 555.367 364.85C555.606 364.85 555.822 364.817 556.016 364.75C556.209 364.681 556.377 364.579 556.519 364.446C556.661 364.313 556.769 364.148 556.841 363.952L558.375 364.124C558.278 364.53 558.094 364.883 557.822 365.186C557.552 365.486 557.208 365.718 556.787 365.885C556.367 366.048 555.885 366.13 555.344 366.13ZM560.039 365.994V359.024H561.682V365.994H560.039ZM560.865 358.034C560.605 358.034 560.381 357.948 560.193 357.776C560.006 357.6 559.912 357.39 559.912 357.145C559.912 356.897 560.006 356.686 560.193 356.514C560.381 356.339 560.605 356.251 560.865 356.251C561.128 356.251 561.352 356.339 561.537 356.514C561.724 356.686 561.818 356.897 561.818 357.145C561.818 357.39 561.724 357.6 561.537 357.776C561.352 357.948 561.128 358.034 560.865 358.034ZM569.803 359.024L567.321 365.994H565.506L563.023 359.024H564.775L566.377 364.201H566.449L568.056 359.024H569.803ZM572.952 366.134C572.51 366.134 572.112 366.056 571.758 365.898C571.407 365.738 571.129 365.502 570.923 365.191C570.721 364.879 570.619 364.495 570.619 364.038C570.619 363.645 570.692 363.319 570.837 363.062C570.982 362.805 571.18 362.599 571.432 362.445C571.683 362.291 571.965 362.174 572.28 362.096C572.598 362.014 572.926 361.955 573.265 361.919C573.673 361.876 574.005 361.839 574.259 361.805C574.513 361.769 574.697 361.715 574.812 361.642C574.93 361.566 574.989 361.45 574.989 361.292V361.265C574.989 360.923 574.888 360.659 574.685 360.471C574.483 360.284 574.191 360.19 573.809 360.19C573.407 360.19 573.088 360.277 572.852 360.453C572.619 360.628 572.462 360.836 572.38 361.075L570.846 360.857C570.967 360.433 571.167 360.079 571.445 359.795C571.723 359.508 572.064 359.293 572.466 359.151C572.869 359.005 573.313 358.933 573.8 358.933C574.136 358.933 574.47 358.972 574.803 359.051C575.136 359.129 575.44 359.259 575.715 359.441C575.991 359.619 576.211 359.863 576.378 360.172C576.547 360.48 576.632 360.866 576.632 361.329V365.994H575.053V365.036H574.998C574.899 365.23 574.758 365.411 574.576 365.581C574.398 365.747 574.172 365.882 573.9 365.985C573.631 366.085 573.315 366.134 572.952 366.134ZM573.378 364.927C573.708 364.927 573.994 364.862 574.236 364.732C574.478 364.599 574.664 364.424 574.794 364.206C574.927 363.988 574.994 363.751 574.994 363.493V362.672C574.942 362.714 574.855 362.754 574.731 362.79C574.61 362.826 574.473 362.858 574.322 362.885C574.171 362.913 574.021 362.937 573.873 362.958C573.725 362.979 573.596 362.997 573.487 363.012C573.242 363.046 573.023 363.1 572.829 363.176C572.636 363.251 572.483 363.357 572.371 363.493C572.259 363.626 572.203 363.799 572.203 364.011C572.203 364.313 572.313 364.542 572.534 364.696C572.755 364.85 573.036 364.927 573.378 364.927ZM578.562 365.994V356.7H580.205V360.176H580.273C580.358 360.007 580.477 359.827 580.632 359.636C580.786 359.443 580.995 359.278 581.258 359.141C581.521 359.002 581.857 358.933 582.265 358.933C582.804 358.933 583.289 359.07 583.722 359.346C584.158 359.618 584.502 360.022 584.757 360.557C585.014 361.09 585.142 361.743 585.142 362.518C585.142 363.283 585.017 363.934 584.766 364.469C584.515 365.005 584.173 365.413 583.74 365.694C583.308 365.976 582.817 366.116 582.27 366.116C581.87 366.116 581.539 366.05 581.276 365.917C581.013 365.784 580.801 365.623 580.641 365.436C580.483 365.245 580.361 365.065 580.273 364.896H580.178V365.994H578.562ZM580.173 362.509C580.173 362.959 580.237 363.354 580.364 363.693C580.494 364.032 580.68 364.297 580.922 364.487C581.167 364.675 581.464 364.769 581.812 364.769C582.175 364.769 582.479 364.672 582.724 364.478C582.969 364.281 583.153 364.014 583.277 363.675C583.404 363.333 583.468 362.944 583.468 362.509C583.468 362.076 583.406 361.692 583.282 361.356C583.158 361.02 582.973 360.757 582.728 360.566C582.483 360.376 582.178 360.281 581.812 360.281C581.461 360.281 581.163 360.373 580.918 360.557C580.672 360.742 580.486 361.001 580.359 361.333C580.235 361.666 580.173 362.058 580.173 362.509ZM588.388 356.7V365.994H586.745V356.7H588.388ZM593.369 366.13C592.67 366.13 592.066 365.985 591.558 365.694C591.053 365.401 590.664 364.986 590.392 364.451C590.119 363.912 589.983 363.279 589.983 362.549C589.983 361.832 590.119 361.203 590.392 360.662C590.667 360.117 591.051 359.694 591.544 359.391C592.037 359.086 592.617 358.933 593.282 358.933C593.712 358.933 594.117 359.002 594.498 359.141C594.883 359.278 595.221 359.489 595.515 359.777C595.811 360.064 596.044 360.43 596.214 360.875C596.383 361.317 596.468 361.843 596.468 362.454V362.958H590.755V361.851H594.893C594.89 361.536 594.822 361.256 594.689 361.011C594.556 360.763 594.37 360.568 594.131 360.426C593.895 360.284 593.62 360.212 593.305 360.212C592.969 360.212 592.674 360.294 592.42 360.457C592.166 360.618 591.968 360.83 591.826 361.093C591.686 361.353 591.615 361.639 591.612 361.95V362.917C591.612 363.322 591.686 363.67 591.835 363.961C591.983 364.248 592.19 364.469 592.456 364.623C592.723 364.775 593.034 364.85 593.391 364.85C593.63 364.85 593.847 364.817 594.04 364.75C594.234 364.681 594.402 364.579 594.544 364.446C594.686 364.313 594.793 364.148 594.866 363.952L596.4 364.124C596.303 364.53 596.118 364.883 595.846 365.186C595.577 365.486 595.232 365.718 594.812 365.885C594.391 366.048 593.91 366.13 593.369 366.13ZM603.573 360.866L602.075 361.029C602.033 360.878 601.959 360.736 601.853 360.603C601.75 360.47 601.611 360.362 601.435 360.281C601.26 360.199 601.045 360.158 600.791 360.158C600.449 360.158 600.162 360.232 599.929 360.38C599.699 360.529 599.585 360.721 599.588 360.957C599.585 361.159 599.659 361.324 599.811 361.451C599.965 361.578 600.219 361.683 600.573 361.764L601.762 362.019C602.422 362.161 602.912 362.386 603.232 362.695C603.556 363.003 603.719 363.407 603.722 363.906C603.719 364.345 603.591 364.732 603.337 365.068C603.086 365.401 602.736 365.661 602.288 365.849C601.841 366.036 601.326 366.13 600.746 366.13C599.892 366.13 599.206 365.951 598.685 365.594C598.165 365.234 597.855 364.734 597.755 364.092L599.357 363.938C599.43 364.253 599.584 364.49 599.82 364.651C600.056 364.811 600.363 364.891 600.741 364.891C601.131 364.891 601.444 364.811 601.68 364.651C601.919 364.49 602.039 364.292 602.039 364.056C602.039 363.856 601.962 363.692 601.807 363.561C601.656 363.431 601.42 363.332 601.099 363.262L599.911 363.012C599.242 362.873 598.747 362.639 598.427 362.309C598.106 361.976 597.947 361.556 597.95 361.047C597.947 360.618 598.064 360.246 598.3 359.931C598.539 359.613 598.87 359.368 599.293 359.196C599.72 359.02 600.212 358.933 600.768 358.933C601.585 358.933 602.228 359.107 602.697 359.455C603.169 359.803 603.461 360.273 603.573 360.866Z" fill="#111725"/>
<rect x="715.249" y="353.49" width="42.7667" height="15.7638" rx="7.88191" fill="#B8FFE7" stroke="#AFE2D1" stroke-width="0.992499"/>
<g clip-path="url(#clip0_12_38)">
<path d="M725.492 357.796L725.492 364.434M722.889 360.377L725.492 357.796L722.889 360.377ZM725.492 357.796L728.095 360.377L725.492 357.796Z" stroke="#048258" stroke-width="1.48425" stroke-linecap="round" stroke-linejoin="round"/>
</g>
<path d="M731.367 363.951V363.104L733.616 360.9C733.831 360.682 734.01 360.489 734.153 360.321C734.297 360.152 734.404 359.989 734.476 359.831C734.548 359.672 734.583 359.504 734.583 359.325C734.583 359.12 734.537 358.945 734.444 358.8C734.352 358.652 734.224 358.538 734.062 358.458C733.899 358.378 733.715 358.338 733.508 358.338C733.295 358.338 733.109 358.382 732.948 358.471C732.788 358.557 732.664 358.681 732.575 358.841C732.489 359.001 732.446 359.192 732.446 359.413H731.329C731.329 359.002 731.423 358.645 731.611 358.341C731.798 358.037 732.057 357.802 732.386 357.636C732.717 357.469 733.096 357.386 733.524 357.386C733.958 357.386 734.34 357.467 734.669 357.63C734.998 357.792 735.253 358.014 735.434 358.297C735.618 358.579 735.709 358.902 735.709 359.265C735.709 359.507 735.663 359.745 735.57 359.979C735.477 360.213 735.314 360.473 735.08 360.757C734.848 361.042 734.522 361.387 734.103 361.791L732.986 362.927V362.971H735.807V363.951H731.367ZM737.616 364.021C737.424 364.021 737.26 363.953 737.123 363.818C736.986 363.684 736.918 363.519 736.92 363.325C736.918 363.135 736.986 362.973 737.123 362.838C737.26 362.703 737.424 362.636 737.616 362.636C737.802 362.636 737.963 362.703 738.1 362.838C738.239 362.973 738.31 363.135 738.312 363.325C738.31 363.454 738.276 363.571 738.211 363.676C738.148 363.782 738.063 363.866 737.958 363.929C737.854 363.99 737.741 364.021 737.616 364.021ZM741.655 364.04C741.233 364.04 740.856 363.961 740.523 363.803C740.189 363.642 739.925 363.423 739.729 363.145C739.535 362.867 739.431 362.548 739.419 362.19H740.557C740.578 362.455 740.693 362.673 740.902 362.841C741.111 363.008 741.362 363.091 741.655 363.091C741.885 363.091 742.089 363.038 742.268 362.933C742.447 362.828 742.589 362.681 742.692 362.493C742.795 362.306 742.846 362.092 742.844 361.851C742.846 361.607 742.794 361.39 742.689 361.2C742.583 361.01 742.439 360.862 742.256 360.754C742.072 360.644 741.861 360.59 741.623 360.59C741.429 360.587 741.238 360.623 741.051 360.697C740.863 360.771 740.714 360.868 740.605 360.988L739.545 360.814L739.884 357.475H743.641V358.455H740.855L740.668 360.172H740.706C740.826 360.031 740.996 359.914 741.215 359.821C741.434 359.726 741.675 359.679 741.936 359.679C742.328 359.679 742.678 359.772 742.986 359.957C743.294 360.141 743.536 360.394 743.713 360.716C743.891 361.039 743.979 361.408 743.979 361.823C743.979 362.251 743.88 362.633 743.682 362.968C743.486 363.301 743.213 363.563 742.863 363.755C742.515 363.945 742.112 364.04 741.655 364.04ZM748.501 362.737V362.395C748.501 362.144 748.554 361.914 748.66 361.703C748.767 361.492 748.923 361.322 749.128 361.194C749.332 361.065 749.58 361.001 749.871 361.001C750.17 361.001 750.421 361.065 750.623 361.194C750.826 361.32 750.979 361.489 751.082 361.7C751.187 361.91 751.24 362.142 751.24 362.395V362.737C751.24 362.988 751.187 363.219 751.082 363.429C750.977 363.64 750.822 363.81 750.617 363.939C750.415 364.067 750.166 364.132 749.871 364.132C749.576 364.132 749.326 364.067 749.121 363.939C748.917 363.81 748.762 363.64 748.656 363.429C748.553 363.219 748.501 362.988 748.501 362.737ZM749.327 362.395V362.737C749.327 362.903 749.367 363.056 749.447 363.195C749.527 363.335 749.668 363.404 749.871 363.404C750.075 363.404 750.216 363.336 750.291 363.199C750.369 363.059 750.408 362.906 750.408 362.737V362.395C750.408 362.227 750.372 362.073 750.298 361.934C750.224 361.792 750.082 361.722 749.871 361.722C749.673 361.722 749.532 361.792 749.45 361.934C749.368 362.073 749.327 362.227 749.327 362.395ZM745.209 359.03V358.689C745.209 358.436 745.263 358.204 745.371 357.993C745.478 357.782 745.634 357.614 745.839 357.487C746.043 357.359 746.291 357.294 746.582 357.294C746.879 357.294 747.129 357.359 747.331 357.487C747.536 357.614 747.69 357.782 747.793 357.993C747.896 358.204 747.948 358.436 747.948 358.689V359.03C747.948 359.283 747.895 359.515 747.79 359.726C747.687 359.935 747.533 360.103 747.328 360.229C747.124 360.356 746.875 360.419 746.582 360.419C746.285 360.419 746.034 360.356 745.829 360.229C745.627 360.103 745.473 359.934 745.367 359.723C745.262 359.512 745.209 359.281 745.209 359.03ZM746.041 358.689V359.03C746.041 359.199 746.08 359.353 746.158 359.492C746.238 359.629 746.379 359.698 746.582 359.698C746.784 359.698 746.923 359.629 746.999 359.492C747.077 359.353 747.116 359.199 747.116 359.03V358.689C747.116 358.52 747.079 358.366 747.006 358.227C746.932 358.086 746.791 358.015 746.582 358.015C746.382 358.015 746.241 358.086 746.161 358.227C746.081 358.368 746.041 358.522 746.041 358.689ZM745.57 363.951L750.023 357.475H750.813L746.36 363.951H745.57Z" fill="#048258"/>
<path opacity="0.2" d="M512.117 383.775H774.083" stroke="#A69EC1" stroke-width="0.742127"/>
<path d="M555.245 544.269C555.245 495.795 594.94 456.499 643.907 456.499C649.258 456.499 654.498 456.968 659.588 457.867C664.355 458.709 668.99 459.929 673.461 461.493" stroke="#896CF6" stroke-width="20.0374" stroke-linejoin="round"/>
<path d="M621.293 510.073L628.475 495.862V495.744H620.109V492.749H632.264V495.786L625.074 510.073H621.293ZM640.888 510.31C639.585 510.31 638.426 510.098 637.411 509.675C636.402 509.247 635.61 508.663 635.034 507.924C634.459 507.186 634.172 506.348 634.172 505.412C634.172 504.69 634.335 504.028 634.662 503.424C634.995 502.815 635.446 502.311 636.016 501.91C636.585 501.504 637.222 501.245 637.927 501.132V501.014C637.002 500.827 636.252 500.379 635.677 499.669C635.102 498.952 634.814 498.121 634.814 497.173C634.814 496.277 635.077 495.479 635.601 494.779C636.126 494.074 636.845 493.522 637.758 493.121C638.677 492.715 639.721 492.512 640.888 492.512C642.055 492.512 643.096 492.715 644.009 493.121C644.928 493.527 645.65 494.083 646.175 494.788C646.699 495.487 646.964 496.282 646.97 497.173C646.964 498.126 646.671 498.958 646.09 499.669C645.509 500.379 644.765 500.827 643.857 501.014V501.132C644.551 501.245 645.179 501.504 645.743 501.91C646.313 502.311 646.764 502.815 647.097 503.424C647.435 504.028 647.607 504.69 647.613 505.412C647.607 506.348 647.317 507.186 646.741 507.924C646.166 508.663 645.371 509.247 644.356 509.675C643.347 510.098 642.191 510.31 640.888 510.31ZM640.888 507.62C641.469 507.62 641.976 507.515 642.41 507.307C642.845 507.093 643.183 506.799 643.425 506.427C643.674 506.049 643.798 505.615 643.798 505.124C643.798 504.623 643.671 504.18 643.417 503.796C643.163 503.407 642.819 503.103 642.385 502.883C641.951 502.657 641.452 502.545 640.888 502.545C640.33 502.545 639.831 502.657 639.391 502.883C638.951 503.103 638.604 503.407 638.35 503.796C638.102 504.18 637.978 504.623 637.978 505.124C637.978 505.615 638.099 506.049 638.342 506.427C638.584 506.799 638.925 507.093 639.365 507.307C639.805 507.515 640.313 507.62 640.888 507.62ZM640.888 499.88C641.373 499.88 641.804 499.781 642.182 499.584C642.56 499.387 642.856 499.113 643.07 498.763C643.285 498.414 643.392 498.011 643.392 497.554C643.392 497.103 643.285 496.708 643.07 496.37C642.856 496.026 642.563 495.758 642.191 495.566C641.818 495.369 641.384 495.27 640.888 495.27C640.397 495.27 639.963 495.369 639.585 495.566C639.207 495.758 638.911 496.026 638.697 496.37C638.488 496.708 638.384 497.103 638.384 497.554C638.384 498.011 638.491 498.414 638.705 498.763C638.92 499.113 639.216 499.387 639.594 499.584C639.971 499.781 640.403 499.88 640.888 499.88ZM659.656 506.825V505.911C659.656 505.218 659.802 504.58 660.096 503.999C660.395 503.413 660.826 502.945 661.39 502.595C661.959 502.24 662.653 502.062 663.471 502.062C664.3 502.062 664.996 502.237 665.56 502.587C666.13 502.936 666.558 503.405 666.846 503.991C667.139 504.572 667.286 505.212 667.286 505.911V506.825C667.286 507.518 667.139 508.158 666.846 508.745C666.553 509.326 666.121 509.791 665.552 510.141C664.982 510.496 664.288 510.673 663.471 510.673C662.642 510.673 661.945 510.496 661.381 510.141C660.817 509.791 660.389 509.326 660.096 508.745C659.802 508.158 659.656 507.518 659.656 506.825ZM662.117 505.911V506.825C662.117 507.225 662.213 507.603 662.405 507.958C662.602 508.313 662.958 508.491 663.471 508.491C663.984 508.491 664.334 508.316 664.52 507.967C664.711 507.617 664.807 507.236 664.807 506.825V505.911C664.807 505.499 664.717 505.116 664.537 504.761C664.356 504.405 664.001 504.228 663.471 504.228C662.963 504.228 662.611 504.405 662.413 504.761C662.216 505.116 662.117 505.499 662.117 505.911ZM650.766 496.911V495.997C650.766 495.298 650.915 494.658 651.214 494.077C651.513 493.491 651.944 493.023 652.508 492.673C653.078 492.323 653.766 492.149 654.572 492.149C655.407 492.149 656.106 492.323 656.67 492.673C657.234 493.023 657.662 493.491 657.956 494.077C658.249 494.658 658.395 495.298 658.395 495.997V496.911C658.395 497.61 658.246 498.25 657.947 498.831C657.654 499.412 657.223 499.877 656.653 500.227C656.089 500.571 655.395 500.743 654.572 500.743C653.749 500.743 653.052 500.568 652.483 500.218C651.919 499.863 651.49 499.398 651.197 498.823C650.909 498.242 650.766 497.605 650.766 496.911ZM653.244 495.997V496.911C653.244 497.323 653.34 497.703 653.532 498.053C653.729 498.403 654.076 498.577 654.572 498.577C655.091 498.577 655.443 498.403 655.629 498.053C655.821 497.703 655.917 497.323 655.917 496.911V495.997C655.917 495.586 655.827 495.202 655.646 494.847C655.466 494.492 655.108 494.314 654.572 494.314C654.07 494.314 653.723 494.495 653.532 494.855C653.34 495.216 653.244 495.597 653.244 495.997ZM651.882 510.073L663.792 492.749H666.008L654.098 510.073H651.882Z" fill="#896CF6"/>
<path d="M606.892 528.474H605.497L608.038 521.256H609.652L612.197 528.474H610.801L608.873 522.736H608.817L606.892 528.474ZM606.938 525.644H610.744V526.694H606.938V525.644ZM615.288 528.58C614.747 528.58 614.283 528.461 613.895 528.224C613.51 527.987 613.213 527.659 613.004 527.241C612.797 526.82 612.694 526.336 612.694 525.789C612.694 525.239 612.799 524.754 613.011 524.333C613.222 523.91 613.521 523.581 613.906 523.346C614.294 523.109 614.752 522.99 615.281 522.99C615.72 522.99 616.109 523.071 616.447 523.233C616.788 523.393 617.059 523.62 617.261 523.914C617.463 524.205 617.578 524.546 617.607 524.936H616.387C616.338 524.675 616.22 524.458 616.035 524.284C615.851 524.108 615.606 524.019 615.298 524.019C615.037 524.019 614.808 524.09 614.611 524.231C614.413 524.369 614.26 524.569 614.149 524.83C614.041 525.091 613.987 525.403 613.987 525.768C613.987 526.136 614.041 526.454 614.149 526.719C614.257 526.982 614.409 527.186 614.604 527.329C614.801 527.47 615.033 527.54 615.298 527.54C615.486 527.54 615.654 527.505 615.802 527.435C615.953 527.362 616.078 527.257 616.179 527.121C616.28 526.985 616.35 526.819 616.387 526.624H617.607C617.576 527.007 617.463 527.347 617.268 527.643C617.073 527.936 616.808 528.167 616.472 528.333C616.136 528.498 615.741 528.58 615.288 528.58ZM619.93 525.302V528.474H618.654V521.256H619.902V523.981H619.965C620.092 523.675 620.289 523.434 620.554 523.258C620.822 523.08 621.163 522.99 621.576 522.99C621.952 522.99 622.28 523.069 622.559 523.226C622.839 523.384 623.055 523.614 623.208 523.917C623.363 524.22 623.441 524.59 623.441 525.027V528.474H622.165V525.225C622.165 524.861 622.071 524.577 621.883 524.375C621.697 524.171 621.436 524.069 621.1 524.069C620.875 524.069 620.673 524.118 620.494 524.217C620.318 524.313 620.179 524.453 620.078 524.636C619.98 524.819 619.93 525.042 619.93 525.302ZM624.741 528.474V523.061H626.017V528.474H624.741ZM625.383 522.292C625.181 522.292 625.007 522.225 624.861 522.091C624.715 521.955 624.642 521.792 624.642 521.602C624.642 521.409 624.715 521.246 624.861 521.112C625.007 520.975 625.181 520.907 625.383 520.907C625.587 520.907 625.761 520.975 625.904 521.112C626.05 521.246 626.123 521.409 626.123 521.602C626.123 521.792 626.05 521.955 625.904 522.091C625.761 522.225 625.587 522.292 625.383 522.292ZM629.726 528.58C629.183 528.58 628.714 528.467 628.319 528.242C627.927 528.014 627.625 527.692 627.414 527.276C627.202 526.858 627.096 526.366 627.096 525.799C627.096 525.242 627.202 524.754 627.414 524.333C627.627 523.91 627.926 523.581 628.309 523.346C628.692 523.109 629.142 522.99 629.659 522.99C629.992 522.99 630.307 523.044 630.603 523.152C630.902 523.258 631.165 523.423 631.393 523.646C631.623 523.869 631.804 524.153 631.936 524.499C632.067 524.842 632.133 525.251 632.133 525.725V526.116H627.696V525.256H630.91C630.908 525.012 630.855 524.795 630.751 524.604C630.648 524.412 630.503 524.26 630.318 524.15C630.135 524.039 629.921 523.984 629.676 523.984C629.416 523.984 629.186 524.048 628.989 524.174C628.792 524.299 628.638 524.463 628.527 524.668C628.419 524.87 628.364 525.092 628.362 525.334V526.085C628.362 526.4 628.419 526.67 628.534 526.895C628.65 527.119 628.81 527.29 629.017 527.41C629.224 527.527 629.466 527.586 629.743 527.586C629.929 527.586 630.097 527.56 630.247 527.509C630.398 527.455 630.528 527.376 630.639 527.273C630.749 527.169 630.832 527.041 630.889 526.888L632.08 527.022C632.005 527.337 631.862 527.612 631.65 527.847C631.441 528.08 631.173 528.261 630.846 528.39C630.52 528.517 630.146 528.58 629.726 528.58ZM637.893 523.061L635.965 528.474H634.555L632.627 523.061H633.988L635.232 527.082H635.288L636.536 523.061H637.893ZM640.988 528.58C640.445 528.58 639.977 528.467 639.582 528.242C639.19 528.014 638.888 527.692 638.676 527.276C638.465 526.858 638.359 526.366 638.359 525.799C638.359 525.242 638.465 524.754 638.676 524.333C638.89 523.91 639.188 523.581 639.571 523.346C639.954 523.109 640.404 522.99 640.921 522.99C641.255 522.99 641.57 523.044 641.866 523.152C642.164 523.258 642.427 523.423 642.655 523.646C642.886 523.869 643.066 524.153 643.198 524.499C643.33 524.842 643.395 525.251 643.395 525.725V526.116H638.958V525.256H642.172C642.17 525.012 642.117 524.795 642.014 524.604C641.91 524.412 641.766 524.26 641.58 524.15C641.397 524.039 641.183 523.984 640.939 523.984C640.678 523.984 640.449 524.048 640.252 524.174C640.054 524.299 639.9 524.463 639.79 524.668C639.682 524.87 639.627 525.092 639.624 525.334V526.085C639.624 526.4 639.682 526.67 639.797 526.895C639.912 527.119 640.073 527.29 640.28 527.41C640.487 527.527 640.729 527.586 641.006 527.586C641.191 527.586 641.359 527.56 641.51 527.509C641.66 527.455 641.791 527.376 641.901 527.273C642.011 527.169 642.095 527.041 642.151 526.888L643.343 527.022C643.267 527.337 643.124 527.612 642.913 527.847C642.703 528.08 642.436 528.261 642.109 528.39C641.782 528.517 641.409 528.58 640.988 528.58ZM646.484 528.57C646.059 528.57 645.678 528.46 645.342 528.242C645.006 528.023 644.74 527.706 644.545 527.29C644.35 526.874 644.253 526.369 644.253 525.775C644.253 525.173 644.351 524.666 644.549 524.252C644.749 523.836 645.018 523.522 645.356 523.311C645.694 523.097 646.071 522.99 646.487 522.99C646.805 522.99 647.065 523.044 647.27 523.152C647.474 523.258 647.636 523.386 647.756 523.537C647.876 523.685 647.969 523.824 648.035 523.956H648.087V521.256H649.367V528.474H648.112V527.621H648.035C647.969 527.753 647.874 527.893 647.749 528.041C647.625 528.187 647.46 528.311 647.256 528.414C647.051 528.518 646.794 528.57 646.484 528.57ZM646.84 527.523C647.11 527.523 647.34 527.45 647.531 527.304C647.721 527.156 647.865 526.951 647.964 526.687C648.063 526.424 648.112 526.118 648.112 525.768C648.112 525.417 648.063 525.113 647.964 524.855C647.868 524.596 647.724 524.395 647.534 524.252C647.346 524.109 647.115 524.037 646.84 524.037C646.555 524.037 646.318 524.111 646.128 524.259C645.937 524.407 645.794 524.612 645.698 524.872C645.601 525.133 645.553 525.432 645.553 525.768C645.553 526.106 645.601 526.408 645.698 526.673C645.797 526.937 645.941 527.144 646.131 527.297C646.324 527.448 646.56 527.523 646.84 527.523ZM657.467 524.492L656.304 524.619C656.271 524.501 656.213 524.391 656.131 524.287C656.051 524.184 655.943 524.1 655.807 524.037C655.671 523.974 655.504 523.942 655.307 523.942C655.041 523.942 654.818 523.999 654.637 524.115C654.458 524.23 654.37 524.379 654.373 524.562C654.37 524.72 654.428 524.848 654.545 524.946C654.665 525.045 654.862 525.126 655.137 525.19L656.061 525.387C656.573 525.497 656.954 525.672 657.203 525.912C657.454 526.152 657.581 526.465 657.583 526.853C657.581 527.194 657.481 527.495 657.284 527.755C657.089 528.014 656.817 528.216 656.47 528.362C656.122 528.507 655.722 528.58 655.271 528.58C654.609 528.58 654.075 528.441 653.671 528.164C653.267 527.885 653.026 527.496 652.949 526.998L654.193 526.878C654.249 527.122 654.369 527.307 654.552 527.431C654.736 527.556 654.974 527.618 655.268 527.618C655.571 527.618 655.814 527.556 655.997 527.431C656.183 527.307 656.276 527.153 656.276 526.969C656.276 526.814 656.216 526.686 656.096 526.585C655.979 526.484 655.795 526.407 655.546 526.353L654.623 526.159C654.103 526.051 653.719 525.869 653.47 525.612C653.221 525.354 653.098 525.027 653.1 524.633C653.098 524.299 653.188 524.01 653.372 523.766C653.557 523.519 653.814 523.329 654.143 523.195C654.475 523.058 654.857 522.99 655.289 522.99C655.923 522.99 656.423 523.125 656.787 523.396C657.153 523.666 657.38 524.031 657.467 524.492ZM660.997 528.58C660.468 528.58 660.01 528.464 659.622 528.231C659.235 527.999 658.934 527.673 658.72 527.255C658.509 526.837 658.403 526.348 658.403 525.789C658.403 525.229 658.509 524.74 658.72 524.319C658.934 523.898 659.235 523.572 659.622 523.339C660.01 523.107 660.468 522.99 660.997 522.99C661.525 522.99 661.984 523.107 662.371 523.339C662.759 523.572 663.059 523.898 663.27 524.319C663.484 524.74 663.591 525.229 663.591 525.789C663.591 526.348 663.484 526.837 663.27 527.255C663.059 527.673 662.759 527.999 662.371 528.231C661.984 528.464 661.525 528.58 660.997 528.58ZM661.004 527.558C661.291 527.558 661.53 527.479 661.723 527.322C661.916 527.162 662.059 526.948 662.153 526.68C662.249 526.413 662.297 526.114 662.297 525.785C662.297 525.454 662.249 525.154 662.153 524.886C662.059 524.616 661.916 524.401 661.723 524.241C661.53 524.082 661.291 524.002 661.004 524.002C660.71 524.002 660.466 524.082 660.271 524.241C660.078 524.401 659.934 524.616 659.837 524.886C659.743 525.154 659.696 525.454 659.696 525.785C659.696 526.114 659.743 526.413 659.837 526.68C659.934 526.948 660.078 527.162 660.271 527.322C660.466 527.479 660.71 527.558 661.004 527.558ZM669.878 523.061V524.048H666.677V523.061H669.878ZM667.477 528.474V522.55C667.477 522.185 667.553 521.882 667.703 521.64C667.856 521.398 668.06 521.217 668.316 521.098C668.572 520.978 668.857 520.918 669.169 520.918C669.39 520.918 669.586 520.935 669.758 520.971C669.929 521.006 670.056 521.038 670.138 521.066L669.885 522.053C669.831 522.036 669.763 522.02 669.68 522.003C669.598 521.985 669.506 521.975 669.405 521.975C669.168 521.975 669 522.033 668.901 522.148C668.805 522.261 668.757 522.423 668.757 522.634V528.474H667.477ZM672.251 528.584C671.907 528.584 671.598 528.523 671.324 528.4C671.051 528.276 670.835 528.093 670.675 527.851C670.518 527.609 670.439 527.31 670.439 526.955C670.439 526.65 670.495 526.397 670.608 526.198C670.721 525.998 670.875 525.838 671.07 525.718C671.265 525.598 671.485 525.508 671.729 525.447C671.976 525.383 672.231 525.338 672.494 525.309C672.811 525.276 673.068 525.247 673.266 525.221C673.463 525.193 673.606 525.151 673.696 525.094C673.787 525.036 673.833 524.945 673.833 524.823V524.802C673.833 524.536 673.754 524.331 673.597 524.185C673.439 524.039 673.213 523.967 672.917 523.967C672.604 523.967 672.356 524.035 672.173 524.171C671.992 524.307 671.87 524.468 671.806 524.654L670.615 524.485C670.709 524.156 670.864 523.881 671.08 523.66C671.297 523.437 671.561 523.27 671.873 523.159C672.186 523.047 672.531 522.99 672.91 522.99C673.17 522.99 673.43 523.021 673.689 523.082C673.947 523.143 674.183 523.244 674.397 523.385C674.611 523.524 674.782 523.713 674.912 523.952C675.043 524.192 675.109 524.492 675.109 524.851V528.474H673.882V527.731H673.84C673.763 527.881 673.653 528.022 673.512 528.154C673.374 528.283 673.199 528.387 672.987 528.467C672.778 528.545 672.532 528.584 672.251 528.584ZM672.582 527.646C672.838 527.646 673.06 527.596 673.248 527.495C673.436 527.391 673.58 527.255 673.681 527.086C673.785 526.917 673.837 526.732 673.837 526.532V525.894C673.797 525.927 673.728 525.958 673.632 525.986C673.538 526.014 673.432 526.039 673.315 526.06C673.197 526.081 673.081 526.1 672.966 526.116C672.851 526.133 672.751 526.147 672.666 526.159C672.476 526.185 672.306 526.227 672.155 526.286C672.005 526.344 671.886 526.427 671.799 526.532C671.712 526.636 671.669 526.77 671.669 526.934C671.669 527.169 671.755 527.347 671.926 527.466C672.098 527.586 672.316 527.646 672.582 527.646ZM676.392 528.474V523.061H677.629V523.963H677.685C677.784 523.65 677.953 523.41 678.193 523.24C678.435 523.069 678.711 522.983 679.021 522.983C679.092 522.983 679.17 522.987 679.257 522.994C679.347 522.998 679.421 523.007 679.479 523.018V524.192C679.425 524.173 679.339 524.157 679.222 524.143C679.107 524.126 678.995 524.118 678.887 524.118C678.655 524.118 678.445 524.169 678.26 524.27C678.077 524.368 677.932 524.506 677.826 524.682C677.721 524.858 677.668 525.061 677.668 525.292V528.474H676.392Z" fill="#053456"/>
<path opacity="0.12" d="M732.196 544.269C732.196 495.795 692.584 456.499 643.72 456.499C594.857 456.499 555.245 495.795 555.245 544.269" stroke="#896CF6" stroke-width="20.0374" stroke-linejoin="round"/>
<path opacity="0.3" d="M532.197 544.267H754.502" stroke="#A1AEC1" stroke-width="0.742127"/>
<path d="M680.898 448.385L670.489 476.781" stroke="white" stroke-width="2.22638"/>
<path d="M678.666 447.647L668.257 476.043" stroke="#896CF6" stroke-width="2.22638"/>
<path d="M534.357 421.306V401.456H535.629V421.306H534.357ZM537.42 408.201C537.368 407.633 537.138 407.191 536.73 406.876C536.327 406.555 535.75 406.395 535.001 406.395C534.505 406.395 534.091 406.459 533.76 406.589C533.429 406.718 533.181 406.896 533.016 407.124C532.851 407.346 532.765 407.602 532.76 407.891C532.75 408.129 532.796 408.338 532.9 408.519C533.008 408.7 533.163 408.861 533.365 409C533.572 409.135 533.82 409.253 534.109 409.357C534.399 409.46 534.724 409.551 535.086 409.628L536.451 409.938C537.237 410.109 537.929 410.336 538.529 410.621C539.134 410.905 539.64 411.244 540.049 411.636C540.462 412.029 540.775 412.482 540.987 412.993C541.199 413.505 541.307 414.079 541.313 414.715C541.307 415.718 541.054 416.578 540.553 417.297C540.051 418.015 539.33 418.566 538.389 418.948C537.454 419.331 536.324 419.522 535.001 419.522C533.672 419.522 532.515 419.323 531.527 418.925C530.54 418.527 529.772 417.922 529.224 417.111C528.676 416.299 528.395 415.273 528.379 414.032H532.054C532.085 414.544 532.222 414.971 532.465 415.312C532.708 415.653 533.042 415.911 533.466 416.087C533.895 416.263 534.391 416.351 534.954 416.351C535.471 416.351 535.911 416.281 536.273 416.141C536.64 416.002 536.921 415.808 537.118 415.56C537.314 415.312 537.415 415.027 537.42 414.707C537.415 414.407 537.322 414.151 537.141 413.939C536.96 413.722 536.681 413.536 536.304 413.381C535.931 413.221 535.456 413.073 534.877 412.939L533.218 412.551C531.843 412.236 530.76 411.727 529.969 411.024C529.178 410.316 528.785 409.359 528.79 408.155C528.785 407.173 529.049 406.312 529.581 405.573C530.113 404.834 530.85 404.257 531.791 403.844C532.732 403.43 533.804 403.223 535.009 403.223C536.239 403.223 537.306 403.433 538.211 403.852C539.121 404.265 539.826 404.847 540.328 405.596C540.829 406.346 541.085 407.214 541.096 408.201H537.42ZM543.22 419.321V416.56L549.012 411.489C549.446 411.096 549.816 410.737 550.121 410.411C550.426 410.08 550.659 409.75 550.819 409.419C550.979 409.083 551.059 408.718 551.059 408.326C551.059 407.886 550.964 407.511 550.772 407.201C550.581 406.886 550.317 406.643 549.981 406.472C549.645 406.302 549.26 406.216 548.826 406.216C548.387 406.216 548.002 406.307 547.671 406.488C547.34 406.664 547.082 406.919 546.895 407.255C546.714 407.591 546.624 408 546.624 408.481H542.987C542.987 407.4 543.23 406.467 543.716 405.681C544.202 404.896 544.885 404.291 545.763 403.867C546.647 403.438 547.673 403.223 548.842 403.223C550.046 403.223 551.093 403.425 551.982 403.828C552.871 404.231 553.559 404.795 554.045 405.519C554.536 406.237 554.781 407.072 554.781 408.023C554.781 408.628 554.66 409.228 554.417 409.822C554.174 410.416 553.737 411.073 553.106 411.792C552.481 412.51 551.592 413.371 550.439 414.374L548.539 416.126V416.227H554.975V419.321H543.22ZM563.184 419.538C561.975 419.538 560.902 419.331 559.967 418.917C559.036 418.499 558.302 417.922 557.764 417.188C557.227 416.454 556.953 415.609 556.943 414.653H560.804C560.819 414.999 560.931 415.307 561.137 415.575C561.344 415.839 561.626 416.046 561.983 416.196C562.339 416.346 562.745 416.421 563.2 416.421C563.655 416.421 564.055 416.34 564.402 416.18C564.753 416.015 565.027 415.79 565.224 415.506C565.42 415.216 565.516 414.885 565.511 414.513C565.516 414.141 565.41 413.81 565.193 413.521C564.976 413.231 564.668 413.006 564.27 412.846C563.877 412.686 563.412 412.606 562.874 412.606H561.331V409.876H562.874C563.345 409.876 563.758 409.799 564.115 409.644C564.477 409.489 564.758 409.272 564.96 408.992C565.162 408.708 565.26 408.382 565.255 408.015C565.26 407.659 565.175 407.346 564.999 407.077C564.828 406.803 564.588 406.591 564.278 406.441C563.973 406.291 563.619 406.216 563.215 406.216C562.792 406.216 562.406 406.291 562.06 406.441C561.719 406.591 561.448 406.803 561.246 407.077C561.044 407.351 560.938 407.669 560.928 408.031H557.26C557.271 407.085 557.534 406.253 558.051 405.534C558.568 404.81 559.271 404.244 560.16 403.836C561.055 403.428 562.073 403.223 563.215 403.223C564.353 403.223 565.353 403.422 566.216 403.821C567.079 404.219 567.751 404.761 568.232 405.449C568.713 406.131 568.953 406.904 568.953 407.767C568.959 408.662 568.666 409.398 568.077 409.977C567.493 410.556 566.741 410.913 565.821 411.047V411.171C567.051 411.316 567.979 411.714 568.604 412.365C569.235 413.017 569.548 413.831 569.543 414.808C569.543 415.728 569.271 416.545 568.728 417.258C568.191 417.966 567.441 418.524 566.48 418.933C565.524 419.336 564.425 419.538 563.184 419.538ZM575.16 417.149L575.091 418.01C575.029 418.724 574.902 419.419 574.711 420.096C574.525 420.778 574.325 421.391 574.114 421.934C573.902 422.476 573.734 422.898 573.61 423.198H571.221C571.304 422.898 571.415 422.476 571.555 421.934C571.7 421.391 571.834 420.778 571.958 420.096C572.082 419.414 572.152 418.721 572.167 418.018L572.183 417.149H575.16ZM583.926 419.708C582.541 419.708 581.347 419.38 580.344 418.724C579.341 418.062 578.568 417.113 578.025 415.878C577.483 414.637 577.214 413.146 577.219 411.404C577.224 409.662 577.496 408.183 578.033 406.969C578.576 405.749 579.346 404.821 580.344 404.185C581.347 403.544 582.541 403.223 583.926 403.223C585.311 403.223 586.506 403.544 587.508 404.185C588.516 404.821 589.292 405.749 589.835 406.969C590.377 408.189 590.646 409.667 590.641 411.404C590.641 413.151 590.37 414.645 589.827 415.886C589.284 417.126 588.511 418.075 587.508 418.731C586.511 419.383 585.317 419.708 583.926 419.708ZM583.926 416.568C584.753 416.568 585.423 416.147 585.934 415.304C586.446 414.456 586.699 413.156 586.694 411.404C586.694 410.256 586.578 409.31 586.345 408.566C586.113 407.816 585.79 407.258 585.376 406.891C584.963 406.524 584.479 406.341 583.926 406.341C583.104 406.341 582.44 406.757 581.933 407.589C581.427 408.416 581.171 409.688 581.166 411.404C581.161 412.567 581.272 413.531 581.499 414.296C581.732 415.061 582.057 415.632 582.476 416.01C582.895 416.382 583.378 416.568 583.926 416.568ZM599.407 419.708C598.021 419.708 596.827 419.38 595.824 418.724C594.822 418.062 594.049 417.113 593.506 415.878C592.963 414.637 592.694 413.146 592.7 411.404C592.705 409.662 592.976 408.183 593.514 406.969C594.057 405.749 594.827 404.821 595.824 404.185C596.827 403.544 598.021 403.223 599.407 403.223C600.792 403.223 601.986 403.544 602.989 404.185C603.997 404.821 604.772 405.749 605.315 406.969C605.858 408.189 606.127 409.667 606.122 411.404C606.122 413.151 605.85 414.645 605.307 415.886C604.765 417.126 603.992 418.075 602.989 418.731C601.991 419.383 600.797 419.708 599.407 419.708ZM599.407 416.568C600.234 416.568 600.903 416.147 601.415 415.304C601.927 414.456 602.18 413.156 602.175 411.404C602.175 410.256 602.059 409.31 601.826 408.566C601.593 407.816 601.27 407.258 600.857 406.891C600.443 406.524 599.96 406.341 599.407 406.341C598.585 406.341 597.921 406.757 597.414 407.589C596.907 408.416 596.652 409.688 596.646 411.404C596.641 412.567 596.752 413.531 596.98 414.296C597.212 415.061 597.538 415.632 597.957 416.01C598.376 416.382 598.859 416.568 599.407 416.568ZM614.887 419.708C613.502 419.708 612.308 419.38 611.305 418.724C610.302 418.062 609.529 417.113 608.987 415.878C608.444 414.637 608.175 413.146 608.18 411.404C608.185 409.662 608.457 408.183 608.994 406.969C609.537 405.749 610.307 404.821 611.305 404.185C612.308 403.544 613.502 403.223 614.887 403.223C616.273 403.223 617.467 403.544 618.47 404.185C619.478 404.821 620.253 405.749 620.796 406.969C621.339 408.189 621.607 409.667 621.602 411.404C621.602 413.151 621.331 414.645 620.788 415.886C620.245 417.126 619.473 418.075 618.47 418.731C617.472 419.383 616.278 419.708 614.887 419.708ZM614.887 416.568C615.715 416.568 616.384 416.147 616.896 415.304C617.407 414.456 617.661 413.156 617.656 411.404C617.656 410.256 617.539 409.31 617.307 408.566C617.074 407.816 616.751 407.258 616.337 406.891C615.924 406.524 615.441 406.341 614.887 406.341C614.066 406.341 613.401 406.757 612.895 407.589C612.388 408.416 612.132 409.688 612.127 411.404C612.122 412.567 612.233 413.531 612.46 414.296C612.693 415.061 613.019 415.632 613.437 416.01C613.856 416.382 614.339 416.568 614.887 416.568Z" fill="#111725"/>
<rect x="357.859" y="536.891" width="44.7259" height="9.12773" rx="4.56386" fill="white"/>
<rect x="535.85" y="559.455" width="93.1028" height="7.30218" rx="3.65109" fill="#F0EDFE"/>
<rect x="669.114" y="559.455" width="72.109" height="7.30218" rx="3.65109" fill="#F0EDFE"/>
<rect x="535.85" y="579.536" width="93.1028" height="7.30218" rx="3.65109" fill="#F0EDFE"/>
<rect x="669.114" y="579.536" width="72.109" height="7.30218" rx="3.65109" fill="#F0EDFE"/>
<g filter="url(#filter2_f_12_38)">
<rect x="344.098" y="355.098" width="30.1139" height="30.1139" rx="15.0569" stroke="url(#paint0_linear_12_38)" stroke-width="1.80471"/>
</g>
<rect x="344.098" y="355.098" width="30.1139" height="30.1139" rx="15.0569" fill="#F9F8FF" stroke="url(#paint1_linear_12_38)" stroke-width="1.80471"/>
<g clip-path="url(#clip1_12_38)">
<path d="M353.67 364.489H354.465C354.615 364.489 354.689 364.489 354.75 364.516C354.803 364.54 354.848 364.579 354.879 364.628C354.915 364.684 354.926 364.758 354.947 364.906L355.235 366.923M355.235 366.923L355.875 371.627C355.956 372.224 355.997 372.523 356.14 372.748C356.265 372.946 356.446 373.103 356.659 373.201C356.901 373.312 357.202 373.312 357.804 373.312H363.012C363.586 373.312 363.872 373.312 364.107 373.209C364.313 373.118 364.491 372.971 364.619 372.785C364.764 372.574 364.818 372.293 364.925 371.729L365.73 367.5C365.768 367.302 365.787 367.203 365.76 367.126C365.736 367.058 365.688 367 365.626 366.964C365.555 366.923 365.454 366.923 365.252 366.923H355.235ZM358.538 376.05C358.538 376.386 358.266 376.659 357.93 376.659C357.594 376.659 357.321 376.386 357.321 376.05C357.321 375.714 357.594 375.442 357.93 375.442C358.266 375.442 358.538 375.714 358.538 376.05ZM363.406 376.05C363.406 376.386 363.134 376.659 362.798 376.659C362.462 376.659 362.189 376.386 362.189 376.05C362.189 375.714 362.462 375.442 362.798 375.442C363.134 375.442 363.406 375.714 363.406 376.05Z" stroke="#7840B2" stroke-width="0.730218" stroke-linecap="round" stroke-linejoin="round"/>
</g>
<rect opacity="0.78" x="345.08" y="396.303" width="138.741" height="56.5919" rx="7.30218" fill="#F8F6FF"/>
<rect x="358" y="410.303" width="44.7259" height="9.12773" rx="4.56386" fill="white"/>
<rect x="358" y="427.431" width="89" height="12" rx="4" fill="#F0EDFE"/>
<g filter="url(#filter3_f_12_38)">
<rect x="344.639" y="477.993" width="30.1139" height="30.1139" rx="15.0569" stroke="url(#paint2_linear_12_38)" stroke-width="1.80471"/>
</g>
<rect x="344.179" y="477.993" width="30.1139" height="30.1139" rx="15.0569" fill="#F9F8FF" stroke="url(#paint3_linear_12_38)" stroke-width="1.80471"/>
<path d="M357.129 491.862H362.241M357.129 489.307H362.241M361.145 497.704L357.129 494.418L358.225 494.418C361.47 494.418 361.47 489.307 358.225 489.307M366.987 493.323C366.987 497.356 363.718 500.625 359.685 500.625C355.652 500.625 352.383 497.356 352.383 493.323C352.383 489.29 355.652 486.021 359.685 486.021C363.718 486.021 366.987 489.29 366.987 493.323Z" stroke="#7840B2" stroke-width="0.876262" stroke-linecap="round" stroke-linejoin="round"/>
<rect opacity="0.78" x="345.081" y="519.204" width="138.741" height="56.5919" rx="7.30218" fill="#F8F6FF"/>
<rect x="358" y="533.204" width="44.7259" height="9.12773" rx="4.56386" fill="white"/>
<rect x="358" y="550.332" width="89" height="12" rx="5" fill="#F0EDFE"/>
<g filter="url(#filter4_bd_12_38)">
<rect x="102" y="30" width="647" height="309" rx="12" fill="white"/>
</g>
<line x1="329.633" y1="310.576" x2="730.894" y2="310.576" stroke="#E2E8F0" stroke-width="0.715174"/>
<rect opacity="0.4" x="667.3" y="54.3" width="47.4" height="21.4" rx="4.5" fill="#FEFEFE" stroke="#DFE4E9" stroke-width="0.6"/>
<path d="M675.2 62.8909H676.247L677.843 65.668H677.908L679.504 62.8909H680.551L678.335 66.6017V69H677.416V66.6017L675.2 62.8909ZM682.57 69.0925C682.119 69.0925 681.73 68.996 681.404 68.8031C681.08 68.6082 680.829 68.3348 680.652 67.9828C680.477 67.6288 680.389 67.2142 680.389 66.7389C680.389 66.2696 680.477 65.856 680.652 65.498C680.829 65.1401 681.076 64.8607 681.392 64.6598C681.71 64.4589 682.082 64.3585 682.507 64.3585C682.766 64.3585 683.016 64.4013 683.259 64.4868C683.502 64.5723 683.719 64.7065 683.912 64.8895C684.105 65.0724 684.257 65.3101 684.369 65.6024C684.48 65.8928 684.536 66.2457 684.536 66.6614V66.9776H680.894V66.3094H683.662C683.662 66.0747 683.614 65.8669 683.519 65.6859C683.423 65.503 683.289 65.3588 683.116 65.2534C682.945 65.148 682.744 65.0953 682.513 65.0953C682.263 65.0953 682.044 65.157 681.857 65.2803C681.672 65.4016 681.529 65.5607 681.428 65.7575C681.328 65.9524 681.278 66.1642 681.278 66.3929V66.9149C681.278 67.2212 681.332 67.4817 681.439 67.6964C681.549 67.9112 681.701 68.0753 681.896 68.1886C682.091 68.3 682.318 68.3557 682.579 68.3557C682.748 68.3557 682.902 68.3318 683.041 68.2841C683.181 68.2344 683.301 68.1608 683.402 68.0634C683.504 67.9659 683.581 67.8456 683.635 67.7024L684.479 67.8545C684.411 68.1031 684.29 68.3209 684.115 68.5078C683.942 68.6928 683.724 68.8369 683.462 68.9403C683.201 69.0418 682.904 69.0925 682.57 69.0925ZM686.859 69.1014C686.568 69.1014 686.306 69.0477 686.071 68.9403C685.837 68.831 685.651 68.6729 685.513 68.4661C685.378 68.2592 685.311 68.0057 685.311 67.7054C685.311 67.4469 685.36 67.2341 685.46 67.067C685.559 66.9 685.693 66.7678 685.862 66.6703C686.031 66.5729 686.22 66.4993 686.429 66.4496C686.638 66.3999 686.851 66.3621 687.068 66.3362C687.342 66.3044 687.565 66.2786 687.736 66.2587C687.907 66.2368 688.031 66.202 688.109 66.1543C688.186 66.1065 688.225 66.029 688.225 65.9216V65.9007C688.225 65.6402 688.151 65.4384 688.004 65.2952C687.859 65.152 687.642 65.0804 687.354 65.0804C687.054 65.0804 686.817 65.147 686.644 65.2803C686.473 65.4115 686.355 65.5577 686.289 65.7187L685.451 65.5278C685.55 65.2494 685.695 65.0247 685.886 64.8537C686.079 64.6807 686.301 64.5554 686.551 64.4778C686.802 64.3983 687.066 64.3585 687.342 64.3585C687.525 64.3585 687.719 64.3804 687.924 64.4241C688.13 64.4659 688.323 64.5435 688.502 64.6568C688.683 64.7702 688.831 64.9322 688.947 65.143C689.062 65.3518 689.12 65.6233 689.12 65.9574V69H688.249V68.3736H688.213C688.155 68.4889 688.069 68.6023 687.953 68.7136C687.838 68.825 687.69 68.9175 687.509 68.9911C687.328 69.0646 687.111 69.1014 686.859 69.1014ZM687.053 68.3855C687.299 68.3855 687.51 68.3368 687.685 68.2393C687.862 68.1419 687.996 68.0146 688.088 67.8575C688.181 67.6984 688.228 67.5284 688.228 67.3474V66.7568C688.196 66.7886 688.134 66.8185 688.043 66.8463C687.953 66.8722 687.851 66.895 687.736 66.9149C687.62 66.9328 687.508 66.9497 687.399 66.9656C687.289 66.9795 687.198 66.9915 687.124 67.0014C686.951 67.0233 686.793 67.0601 686.65 67.1118C686.509 67.1635 686.395 67.2381 686.31 67.3355C686.226 67.431 686.185 67.5582 686.185 67.7173C686.185 67.9381 686.266 68.1051 686.429 68.2185C686.592 68.3298 686.8 68.3855 687.053 68.3855ZM690.308 69V64.4182H691.17V65.146H691.218C691.301 64.8994 691.448 64.7055 691.659 64.5643C691.872 64.4212 692.112 64.3496 692.381 64.3496C692.437 64.3496 692.502 64.3516 692.578 64.3555C692.655 64.3595 692.716 64.3645 692.76 64.3705V65.2236C692.724 65.2136 692.66 65.2027 692.569 65.1908C692.477 65.1768 692.386 65.1699 692.294 65.1699C692.084 65.1699 691.896 65.2146 691.731 65.3041C691.568 65.3916 691.438 65.5139 691.343 65.671C691.247 65.8261 691.2 66.0031 691.2 66.202V69H690.308ZM694.424 62.8909V69H693.532V62.8909H694.424ZM696.187 70.7182C696.054 70.7182 695.933 70.7072 695.823 70.6854C695.714 70.6655 695.632 70.6436 695.579 70.6197L695.793 69.8889C695.957 69.9327 696.102 69.9516 696.229 69.9456C696.356 69.9396 696.469 69.8919 696.566 69.8024C696.665 69.7129 696.753 69.5668 696.829 69.3639L696.939 69.0597L695.262 64.4182H696.217L697.377 67.9739H697.425L698.585 64.4182H699.543L697.655 69.6115C697.567 69.8501 697.456 70.052 697.321 70.217C697.185 70.3841 697.024 70.5094 696.837 70.5929C696.651 70.6764 696.434 70.7182 696.187 70.7182Z" fill="#3150C6"/>
<path d="M701 63.7969L704 66.7969L707 63.7969H701Z" fill="#3150C6"/>
<path d="M309.164 71V60.8182H312.983C313.765 60.8182 314.421 60.9541 314.951 61.2259C315.485 61.4976 315.888 61.8788 316.159 62.3693C316.435 62.8565 316.572 63.425 316.572 64.0746C316.572 64.7275 316.433 65.2943 316.154 65.7749C315.879 66.2521 315.473 66.6217 314.936 66.8835C314.399 67.142 313.74 67.2713 312.958 67.2713H310.238V65.7401H312.709C313.167 65.7401 313.541 65.6771 313.833 65.5511C314.124 65.4219 314.34 65.2346 314.479 64.9893C314.622 64.7408 314.693 64.4358 314.693 64.0746C314.693 63.7133 314.622 63.4051 314.479 63.1499C314.337 62.8913 314.119 62.6958 313.828 62.5632C313.536 62.4273 313.16 62.3594 312.699 62.3594H311.009V71H309.164ZM314.424 66.3864L316.945 71H314.887L312.411 66.3864H314.424ZM321.687 71.1491C320.922 71.1491 320.26 70.9901 319.704 70.6719C319.15 70.3504 318.724 69.8963 318.426 69.3097C318.128 68.7197 317.978 68.0253 317.978 67.2266C317.978 66.4411 318.128 65.7517 318.426 65.1584C318.727 64.5618 319.148 64.0978 319.689 63.7663C320.229 63.4316 320.864 63.2642 321.593 63.2642C322.063 63.2642 322.508 63.3404 322.925 63.4929C323.346 63.642 323.717 63.8741 324.039 64.1889C324.364 64.5038 324.619 64.9048 324.804 65.392C324.99 65.8759 325.083 66.4527 325.083 67.1222V67.674H318.824V66.4609H323.358C323.354 66.1162 323.28 65.8097 323.134 65.5412C322.988 65.2694 322.784 65.0556 322.522 64.8999C322.264 64.7441 321.962 64.6662 321.618 64.6662C321.25 64.6662 320.927 64.7557 320.648 64.9347C320.37 65.1103 320.153 65.3423 319.997 65.6307C319.844 65.9157 319.767 66.2289 319.763 66.5703V67.6293C319.763 68.0734 319.844 68.4545 320.007 68.7727C320.169 69.0876 320.396 69.3295 320.688 69.4986C320.98 69.6643 321.321 69.7472 321.712 69.7472C321.974 69.7472 322.211 69.7107 322.423 69.6378C322.635 69.5616 322.819 69.4505 322.975 69.3047C323.131 69.1589 323.248 68.9782 323.328 68.7628L325.008 68.9517C324.902 69.3958 324.7 69.7836 324.402 70.1151C324.107 70.4432 323.729 70.6984 323.268 70.8807C322.807 71.0597 322.281 71.1491 321.687 71.1491ZM333.433 63.3636L330.714 71H328.725L326.006 63.3636H327.925L329.68 69.0362H329.759L331.519 63.3636H333.433ZM338.025 71.1491C337.26 71.1491 336.598 70.9901 336.041 70.6719C335.488 70.3504 335.062 69.8963 334.764 69.3097C334.465 68.7197 334.316 68.0253 334.316 67.2266C334.316 66.4411 334.465 65.7517 334.764 65.1584C335.065 64.5618 335.486 64.0978 336.027 63.7663C336.567 63.4316 337.202 63.2642 337.931 63.2642C338.401 63.2642 338.845 63.3404 339.263 63.4929C339.684 63.642 340.055 63.8741 340.377 64.1889C340.702 64.5038 340.957 64.9048 341.142 65.392C341.328 65.8759 341.421 66.4527 341.421 67.1222V67.674H335.162V66.4609H339.696C339.692 66.1162 339.618 65.8097 339.472 65.5412C339.326 65.2694 339.122 65.0556 338.86 64.8999C338.602 64.7441 338.3 64.6662 337.956 64.6662C337.588 64.6662 337.265 64.7557 336.986 64.9347C336.708 65.1103 336.491 65.3423 336.335 65.6307C336.182 65.9157 336.104 66.2289 336.101 66.5703V67.6293C336.101 68.0734 336.182 68.4545 336.345 68.7727C336.507 69.0876 336.734 69.3295 337.026 69.4986C337.318 69.6643 337.659 69.7472 338.05 69.7472C338.312 69.7472 338.549 69.7107 338.761 69.6378C338.973 69.5616 339.157 69.4505 339.313 69.3047C339.469 69.1589 339.586 68.9782 339.666 68.7628L341.346 68.9517C341.24 69.3958 341.038 69.7836 340.74 70.1151C340.445 70.4432 340.067 70.6984 339.606 70.8807C339.145 71.0597 338.618 71.1491 338.025 71.1491ZM344.969 66.5256V71H343.169V63.3636H344.889V64.6612H344.979C345.154 64.2337 345.434 63.8939 345.819 63.642C346.207 63.3902 346.685 63.2642 347.256 63.2642C347.783 63.2642 348.242 63.3769 348.633 63.6023C349.027 63.8277 349.332 64.1541 349.547 64.5817C349.766 65.0092 349.874 65.5279 349.871 66.1378V71H348.071V66.4162C348.071 65.9058 347.938 65.5064 347.673 65.218C347.411 64.9297 347.048 64.7855 346.584 64.7855C346.27 64.7855 345.989 64.8551 345.744 64.9943C345.502 65.1302 345.312 65.3274 345.172 65.5859C345.037 65.8445 344.969 66.1577 344.969 66.5256ZM356.793 67.7884V63.3636H358.593V71H356.848V69.6428H356.768C356.596 70.0703 356.312 70.42 355.918 70.6918C355.527 70.9635 355.045 71.0994 354.471 71.0994C353.971 71.0994 353.528 70.9884 353.144 70.7663C352.763 70.541 352.464 70.2145 352.249 69.7869C352.033 69.3561 351.926 68.8357 351.926 68.2259V63.3636H353.725V67.9474C353.725 68.4313 353.858 68.8158 354.123 69.1009C354.388 69.3859 354.736 69.5284 355.167 69.5284C355.432 69.5284 355.689 69.4638 355.938 69.3345C356.186 69.2053 356.39 69.013 356.549 68.7578C356.712 68.4993 356.793 68.1761 356.793 67.7884ZM364.05 71.1491C363.284 71.1491 362.623 70.9901 362.066 70.6719C361.512 70.3504 361.087 69.8963 360.788 69.3097C360.49 68.7197 360.341 68.0253 360.341 67.2266C360.341 66.4411 360.49 65.7517 360.788 65.1584C361.09 64.5618 361.511 64.0978 362.051 63.7663C362.591 63.4316 363.226 63.2642 363.955 63.2642C364.426 63.2642 364.87 63.3404 365.288 63.4929C365.708 63.642 366.08 63.8741 366.401 64.1889C366.726 64.5038 366.981 64.9048 367.167 65.392C367.352 65.8759 367.445 66.4527 367.445 67.1222V67.674H361.186V66.4609H365.72C365.717 66.1162 365.642 65.8097 365.496 65.5412C365.351 65.2694 365.147 65.0556 364.885 64.8999C364.626 64.7441 364.325 64.6662 363.98 64.6662C363.612 64.6662 363.289 64.7557 363.011 64.9347C362.732 65.1103 362.515 65.3423 362.359 65.6307C362.207 65.9157 362.129 66.2289 362.126 66.5703V67.6293C362.126 68.0734 362.207 68.4545 362.369 68.7727C362.532 69.0876 362.759 69.3295 363.05 69.4986C363.342 69.6643 363.683 69.7472 364.074 69.7472C364.336 69.7472 364.573 69.7107 364.785 69.6378C364.998 69.5616 365.181 69.4505 365.337 69.3047C365.493 69.1589 365.611 68.9782 365.69 68.7628L367.371 68.9517C367.265 69.3958 367.062 69.7836 366.764 70.1151C366.469 70.4432 366.091 70.6984 365.631 70.8807C365.17 71.0597 364.643 71.1491 364.05 71.1491ZM381.686 64.2536H379.827C379.774 63.9486 379.676 63.6785 379.534 63.4432C379.391 63.2045 379.214 63.0024 379.002 62.8366C378.79 62.6709 378.548 62.5466 378.276 62.4638C378.007 62.3776 377.717 62.3345 377.406 62.3345C376.852 62.3345 376.362 62.4737 375.934 62.7521C375.507 63.0272 375.172 63.4316 374.93 63.9652C374.688 64.4955 374.567 65.1435 374.567 65.9091C374.567 66.688 374.688 67.3442 374.93 67.8778C375.175 68.4081 375.51 68.8092 375.934 69.081C376.362 69.3494 376.851 69.4837 377.401 69.4837C377.706 69.4837 377.991 69.4439 378.256 69.3643C378.524 69.2815 378.765 69.1605 378.977 69.0014C379.192 68.8423 379.373 68.6468 379.519 68.4148C379.668 68.1828 379.771 67.9176 379.827 67.6193L381.686 67.6293C381.617 68.1132 381.466 68.5672 381.234 68.9915C381.005 69.4157 380.705 69.7902 380.334 70.1151C379.963 70.4366 379.529 70.6884 379.032 70.8707C378.534 71.0497 377.983 71.1392 377.376 71.1392C376.481 71.1392 375.682 70.9321 374.98 70.5178C374.277 70.1035 373.724 69.5052 373.319 68.723C372.915 67.9408 372.713 67.0028 372.713 65.9091C372.713 64.812 372.916 63.8741 373.324 63.0952C373.732 62.313 374.287 61.7147 374.99 61.3004C375.692 60.8861 376.488 60.679 377.376 60.679C377.943 60.679 378.47 60.7585 378.957 60.9176C379.444 61.0767 379.878 61.3104 380.26 61.6186C380.641 61.9235 380.954 62.2981 381.199 62.7422C381.448 63.183 381.61 63.6868 381.686 64.2536ZM385.321 66.5256V71H383.522V60.8182H385.281V64.6612H385.371C385.55 64.2304 385.827 63.8906 386.201 63.642C386.579 63.3902 387.06 63.2642 387.643 63.2642C388.173 63.2642 388.636 63.3752 389.03 63.5973C389.424 63.8194 389.729 64.1442 389.945 64.5717C390.164 64.9993 390.273 65.5213 390.273 66.1378V71H388.473V66.4162C388.473 65.9025 388.341 65.5031 388.076 65.218C387.814 64.9297 387.446 64.7855 386.972 64.7855C386.654 64.7855 386.369 64.8551 386.117 64.9943C385.868 65.1302 385.673 65.3274 385.53 65.5859C385.391 65.8445 385.321 66.1577 385.321 66.5256ZM394.531 71.1541C394.047 71.1541 393.611 71.0679 393.223 70.8956C392.839 70.7199 392.534 70.4614 392.308 70.12C392.086 69.7786 391.975 69.3577 391.975 68.8572C391.975 68.4264 392.055 68.0701 392.214 67.7884C392.373 67.5066 392.59 67.2812 392.865 67.1122C393.14 66.9432 393.45 66.8156 393.795 66.7294C394.143 66.6399 394.502 66.5753 394.874 66.5355C395.321 66.4891 395.684 66.4477 395.962 66.4112C396.241 66.3714 396.443 66.3118 396.569 66.2322C396.698 66.1494 396.763 66.0218 396.763 65.8494V65.8196C396.763 65.4451 396.652 65.1551 396.43 64.9496C396.208 64.7441 395.888 64.6413 395.47 64.6413C395.029 64.6413 394.68 64.7375 394.421 64.9297C394.166 65.1219 393.994 65.349 393.904 65.6108L392.224 65.3722C392.356 64.9081 392.575 64.5204 392.88 64.2088C393.185 63.8939 393.558 63.6586 393.999 63.5028C394.439 63.3438 394.927 63.2642 395.46 63.2642C395.828 63.2642 396.194 63.3073 396.559 63.3935C396.923 63.4796 397.257 63.6222 397.558 63.821C397.86 64.0166 398.102 64.2834 398.284 64.6214C398.47 64.9595 398.562 65.3821 398.562 65.8892V71H396.832V69.951H396.773C396.663 70.1631 396.509 70.362 396.31 70.5476C396.115 70.7299 395.868 70.8774 395.57 70.9901C395.275 71.0994 394.928 71.1541 394.531 71.1541ZM394.998 69.8317C395.359 69.8317 395.672 69.7604 395.937 69.6179C396.203 69.4721 396.406 69.2798 396.549 69.0412C396.695 68.8026 396.768 68.5424 396.768 68.2607V67.3608C396.711 67.4072 396.615 67.4503 396.479 67.4901C396.347 67.5298 396.198 67.5646 396.032 67.5945C395.866 67.6243 395.702 67.6508 395.54 67.674C395.377 67.6972 395.236 67.7171 395.117 67.7337C394.849 67.7701 394.608 67.8298 394.396 67.9126C394.184 67.9955 394.017 68.1115 393.894 68.2607C393.772 68.4065 393.71 68.5954 393.71 68.8274C393.71 69.1589 393.831 69.4091 394.073 69.5781C394.315 69.7472 394.623 69.8317 394.998 69.8317ZM400.598 71V63.3636H402.343V64.6364H402.422C402.562 64.1955 402.8 63.8558 403.138 63.6172C403.48 63.3752 403.869 63.2543 404.307 63.2543C404.406 63.2543 404.517 63.2592 404.64 63.2692C404.766 63.2758 404.87 63.2874 404.953 63.304V64.9595C404.877 64.933 404.756 64.9098 404.59 64.8899C404.428 64.8667 404.27 64.8551 404.118 64.8551C403.789 64.8551 403.495 64.9264 403.233 65.0689C402.974 65.2081 402.77 65.402 402.621 65.6506C402.472 65.8991 402.397 66.1858 402.397 66.5107V71H400.598ZM410.597 63.3636V64.7557H406.208V63.3636H410.597ZM407.291 61.5341H409.091V68.7031C409.091 68.9451 409.128 69.1307 409.2 69.2599C409.277 69.3859 409.376 69.4721 409.499 69.5185C409.621 69.5649 409.757 69.5881 409.906 69.5881C410.019 69.5881 410.122 69.5798 410.215 69.5632C410.311 69.5466 410.384 69.5317 410.433 69.5185L410.737 70.9254C410.641 70.9586 410.503 70.995 410.324 71.0348C410.148 71.0746 409.933 71.0978 409.678 71.1044C409.227 71.1177 408.821 71.0497 408.46 70.9006C408.098 70.7481 407.812 70.5128 407.6 70.1946C407.391 69.8764 407.288 69.4787 407.291 69.0014V61.5341Z" fill="#111725"/>
<path opacity="0.2" d="M290 87.3516H737.999" stroke="#A1AEC1" stroke-width="0.843453"/>
<path d="M314.814 307.91C314.354 307.91 313.959 307.793 313.629 307.561C313.301 307.326 313.049 306.988 312.872 306.546C312.697 306.103 312.61 305.57 312.61 304.946C312.611 304.322 312.7 303.791 312.875 303.353C313.052 302.914 313.304 302.579 313.632 302.348C313.962 302.117 314.356 302.001 314.814 302.001C315.272 302.001 315.666 302.117 315.995 302.348C316.325 302.579 316.577 302.914 316.752 303.353C316.929 303.793 317.018 304.324 317.018 304.946C317.018 305.571 316.929 306.106 316.752 306.549C316.577 306.991 316.325 307.328 315.995 307.561C315.668 307.793 315.274 307.91 314.814 307.91ZM314.814 307.035C315.171 307.035 315.453 306.859 315.66 306.507C315.869 306.153 315.973 305.633 315.973 304.946C315.973 304.491 315.926 304.109 315.831 303.8C315.736 303.491 315.602 303.258 315.428 303.102C315.255 302.944 315.05 302.864 314.814 302.864C314.458 302.864 314.177 303.041 313.97 303.395C313.763 303.747 313.659 304.264 313.657 304.946C313.655 305.402 313.701 305.786 313.794 306.097C313.889 306.408 314.023 306.642 314.196 306.801C314.37 306.957 314.575 307.035 314.814 307.035Z" fill="#94A3B8"/>
<path d="M310.552 272.939V278.66H309.516V273.947H309.482L308.144 274.802V273.852L309.566 272.939H310.552ZM314.119 278.769C313.659 278.769 313.265 278.653 312.935 278.42C312.607 278.185 312.355 277.847 312.178 277.406C312.003 276.963 311.915 276.429 311.915 275.805C311.917 275.181 312.006 274.65 312.181 274.213C312.358 273.773 312.61 273.438 312.938 273.207C313.267 272.976 313.661 272.861 314.119 272.861C314.578 272.861 314.972 272.976 315.301 273.207C315.631 273.438 315.883 273.773 316.058 274.213C316.235 274.652 316.324 275.183 316.324 275.805C316.324 276.431 316.235 276.965 316.058 277.409C315.883 277.85 315.631 278.187 315.301 278.42C314.973 278.653 314.579 278.769 314.119 278.769ZM314.119 277.895C314.477 277.895 314.759 277.719 314.966 277.367C315.175 277.013 315.279 276.492 315.279 275.805C315.279 275.351 315.231 274.969 315.136 274.66C315.041 274.35 314.907 274.118 314.734 273.961C314.561 273.803 314.356 273.724 314.119 273.724C313.764 273.724 313.483 273.901 313.276 274.255C313.069 274.607 312.965 275.123 312.963 275.805C312.961 276.261 313.007 276.645 313.1 276.956C313.195 277.267 313.329 277.502 313.502 277.66C313.675 277.816 313.881 277.895 314.119 277.895ZM318.185 277.314L318.182 276.093H318.344L319.886 274.369H321.068L319.171 276.481H318.962L318.185 277.314ZM317.263 278.66V272.939H318.274V278.66H317.263ZM319.956 278.66L318.559 276.707L319.241 275.995L321.166 278.66H319.956Z" fill="#94A3B8"/>
<path opacity="0.8" d="M308.237 249.518V248.769L310.223 246.822C310.413 246.63 310.571 246.459 310.698 246.31C310.825 246.161 310.92 246.017 310.983 245.877C311.046 245.738 311.078 245.589 311.078 245.43C311.078 245.25 311.037 245.095 310.955 244.967C310.873 244.836 310.76 244.736 310.617 244.665C310.474 244.594 310.311 244.559 310.128 244.559C309.94 244.559 309.775 244.598 309.634 244.676C309.492 244.753 309.382 244.861 309.304 245.003C309.228 245.145 309.189 245.313 309.189 245.509H308.203C308.203 245.146 308.286 244.83 308.452 244.562C308.618 244.293 308.846 244.086 309.136 243.939C309.429 243.792 309.764 243.718 310.142 243.718C310.526 243.718 310.863 243.79 311.153 243.933C311.444 244.076 311.669 244.273 311.829 244.523C311.992 244.772 312.073 245.057 312.073 245.377C312.073 245.592 312.032 245.802 311.95 246.009C311.868 246.215 311.723 246.445 311.517 246.696C311.312 246.947 311.024 247.252 310.653 247.61L309.667 248.612V248.652H312.159V249.518H308.237ZM315.238 249.627C314.778 249.627 314.383 249.51 314.053 249.277C313.725 249.043 313.473 248.705 313.296 248.263C313.121 247.82 313.034 247.286 313.034 246.662C313.035 246.039 313.124 245.508 313.299 245.07C313.476 244.631 313.728 244.295 314.056 244.064C314.386 243.833 314.78 243.718 315.238 243.718C315.696 243.718 316.09 243.833 316.419 244.064C316.749 244.295 317.001 244.631 317.177 245.07C317.353 245.51 317.442 246.04 317.442 246.662C317.442 247.288 317.353 247.823 317.177 248.266C317.001 248.707 316.749 249.045 316.419 249.277C316.092 249.51 315.698 249.627 315.238 249.627ZM315.238 248.752C315.595 248.752 315.877 248.576 316.084 248.224C316.293 247.87 316.397 247.35 316.397 246.662C316.397 246.208 316.35 245.826 316.255 245.517C316.16 245.208 316.026 244.975 315.852 244.819C315.679 244.66 315.474 244.581 315.238 244.581C314.882 244.581 314.601 244.758 314.394 245.112C314.187 245.464 314.083 245.981 314.081 246.662C314.079 247.119 314.125 247.502 314.218 247.813C314.313 248.124 314.447 248.359 314.62 248.517C314.794 248.674 314.999 248.752 315.238 248.752ZM319.303 248.171L319.3 246.95H319.462L321.005 245.227H322.186L320.289 247.339H320.08L319.303 248.171ZM318.381 249.518V243.796H319.393V249.518H318.381ZM321.074 249.518L319.678 247.565L320.359 246.852L322.284 249.518H321.074Z" fill="#94A3B8"/>
<path opacity="0.6" d="M310.324 220.453C309.922 220.453 309.564 220.384 309.251 220.246C308.94 220.109 308.694 219.917 308.514 219.671C308.333 219.425 308.237 219.141 308.226 218.819H309.276C309.286 218.974 309.337 219.109 309.43 219.224C309.523 219.338 309.647 219.426 309.802 219.489C309.956 219.553 310.129 219.584 310.321 219.584C310.526 219.584 310.708 219.549 310.866 219.478C311.024 219.406 311.148 219.305 311.238 219.177C311.327 219.048 311.371 218.9 311.369 218.732C311.371 218.559 311.326 218.406 311.235 218.274C311.144 218.142 311.011 218.039 310.838 217.964C310.667 217.89 310.46 217.852 310.218 217.852H309.712V217.053H310.218C310.417 217.053 310.591 217.019 310.74 216.95C310.891 216.881 311.009 216.784 311.095 216.659C311.181 216.533 311.223 216.387 311.221 216.221C311.223 216.059 311.186 215.918 311.112 215.799C311.039 215.678 310.936 215.584 310.802 215.517C310.67 215.45 310.514 215.416 310.335 215.416C310.16 215.416 309.998 215.448 309.849 215.511C309.7 215.575 309.58 215.665 309.489 215.782C309.398 215.898 309.349 216.036 309.344 216.196H308.346C308.354 215.875 308.446 215.594 308.623 215.352C308.802 215.108 309.04 214.918 309.338 214.782C309.636 214.644 309.97 214.575 310.341 214.575C310.723 214.575 311.054 214.647 311.335 214.79C311.618 214.932 311.837 215.123 311.992 215.363C312.146 215.603 312.224 215.869 312.224 216.159C312.226 216.482 312.131 216.752 311.939 216.97C311.749 217.187 311.499 217.33 311.19 217.397V217.442C311.592 217.498 311.901 217.647 312.115 217.889C312.331 218.129 312.438 218.428 312.436 218.785C312.436 219.106 312.345 219.393 312.162 219.646C311.982 219.897 311.732 220.095 311.414 220.238C311.097 220.382 310.734 220.453 310.324 220.453ZM315.51 220.484C315.05 220.484 314.655 220.368 314.325 220.135C313.998 219.9 313.745 219.562 313.568 219.121C313.393 218.677 313.306 218.144 313.306 217.52C313.307 216.896 313.396 216.365 313.571 215.928C313.748 215.488 314 215.153 314.328 214.922C314.658 214.691 315.052 214.575 315.51 214.575C315.968 214.575 316.362 214.691 316.692 214.922C317.021 215.153 317.274 215.488 317.449 215.928C317.626 216.367 317.714 216.898 317.714 217.52C317.714 218.146 317.626 218.68 317.449 219.123C317.274 219.565 317.021 219.902 316.692 220.135C316.364 220.368 315.97 220.484 315.51 220.484ZM315.51 219.61C315.867 219.61 316.15 219.434 316.356 219.082C316.565 218.728 316.669 218.207 316.669 217.52C316.669 217.065 316.622 216.684 316.527 216.374C316.432 216.065 316.298 215.833 316.124 215.676C315.951 215.518 315.746 215.439 315.51 215.439C315.154 215.439 314.873 215.616 314.666 215.969C314.459 216.321 314.355 216.838 314.353 217.52C314.351 217.976 314.397 218.36 314.49 218.671C314.585 218.982 314.719 219.217 314.892 219.375C315.066 219.531 315.271 219.61 315.51 219.61ZM319.575 219.028L319.572 217.808H319.734L321.277 216.084H322.458L320.561 218.196H320.352L319.575 219.028ZM318.653 220.375V214.654H319.665V220.375H318.653ZM321.346 220.375L319.95 218.422L320.631 217.71L322.556 220.375H321.346Z" fill="#94A3B8"/>
<path opacity="0.5" d="M308.11 190.173V189.349L310.537 185.513H311.225V186.686H310.806L309.171 189.276V189.321H312.56V190.173H308.11ZM310.839 191.234V189.921L310.85 189.553V185.513H311.828V191.234H310.839ZM315.567 191.343C315.107 191.343 314.713 191.227 314.383 190.994C314.055 190.76 313.803 190.422 313.626 189.98C313.451 189.537 313.363 189.003 313.363 188.379C313.365 187.755 313.454 187.225 313.629 186.787C313.806 186.347 314.058 186.012 314.386 185.781C314.715 185.55 315.109 185.435 315.567 185.435C316.026 185.435 316.419 185.55 316.749 185.781C317.079 186.012 317.331 186.347 317.506 186.787C317.683 187.227 317.772 187.757 317.772 188.379C317.772 189.005 317.683 189.54 317.506 189.983C317.331 190.424 317.079 190.761 316.749 190.994C316.421 191.227 316.027 191.343 315.567 191.343ZM315.567 190.469C315.925 190.469 316.207 190.293 316.414 189.941C316.622 189.587 316.727 189.067 316.727 188.379C316.727 187.925 316.679 187.543 316.584 187.234C316.489 186.925 316.355 186.692 316.182 186.536C316.009 186.377 315.804 186.298 315.567 186.298C315.212 186.298 314.93 186.475 314.724 186.829C314.517 187.181 314.413 187.698 314.411 188.379C314.409 188.836 314.455 189.219 314.548 189.53C314.643 189.841 314.777 190.076 314.95 190.234C315.123 190.391 315.329 190.469 315.567 190.469ZM319.633 189.888L319.63 188.667H319.792L321.334 186.943H322.516L320.619 189.055H320.409L319.633 189.888ZM318.711 191.234V185.513H319.722V191.234H318.711ZM321.404 191.234L320.007 189.282L320.689 188.569L322.614 191.234H321.404Z" fill="#94A3B8"/>
<path opacity="0.4" d="M310.333 162.17C309.96 162.17 309.627 162.1 309.333 161.96C309.038 161.819 308.805 161.625 308.631 161.379C308.46 161.134 308.369 160.852 308.358 160.536H309.363C309.382 160.77 309.484 160.962 309.668 161.111C309.852 161.258 310.074 161.332 310.333 161.332C310.536 161.332 310.716 161.285 310.875 161.192C311.033 161.099 311.158 160.97 311.249 160.804C311.34 160.638 311.385 160.449 311.383 160.237C311.385 160.021 311.339 159.829 311.246 159.661C311.153 159.494 311.026 159.362 310.864 159.267C310.702 159.171 310.515 159.122 310.305 159.122C310.134 159.12 309.965 159.152 309.799 159.217C309.633 159.282 309.502 159.368 309.405 159.474L308.469 159.32L308.768 156.37H312.087V157.236H309.626L309.461 158.753H309.495C309.601 158.629 309.751 158.525 309.945 158.443C310.138 158.359 310.351 158.318 310.581 158.318C310.928 158.318 311.237 158.4 311.509 158.563C311.781 158.725 311.995 158.949 312.151 159.234C312.308 159.519 312.386 159.845 312.386 160.212C312.386 160.59 312.299 160.927 312.124 161.223C311.95 161.517 311.709 161.749 311.4 161.919C311.093 162.086 310.737 162.17 310.333 162.17ZM315.437 162.201C314.977 162.201 314.582 162.084 314.252 161.852C313.925 161.617 313.672 161.279 313.495 160.837C313.32 160.394 313.233 159.861 313.233 159.237C313.234 158.613 313.323 158.082 313.498 157.644C313.675 157.205 313.927 156.87 314.255 156.639C314.585 156.408 314.979 156.292 315.437 156.292C315.895 156.292 316.289 156.408 316.619 156.639C316.948 156.87 317.201 157.205 317.376 157.644C317.553 158.084 317.641 158.615 317.641 159.237C317.641 159.862 317.553 160.397 317.376 160.84C317.201 161.282 316.948 161.619 316.619 161.852C316.291 162.084 315.897 162.201 315.437 162.201ZM315.437 161.326C315.794 161.326 316.077 161.15 316.283 160.798C316.492 160.444 316.596 159.924 316.596 159.237C316.596 158.782 316.549 158.4 316.454 158.091C316.359 157.782 316.225 157.549 316.051 157.393C315.878 157.235 315.673 157.155 315.437 157.155C315.081 157.155 314.8 157.332 314.593 157.686C314.386 158.038 314.282 158.555 314.28 159.237C314.278 159.693 314.324 160.077 314.417 160.388C314.512 160.699 314.646 160.933 314.819 161.092C314.993 161.248 315.198 161.326 315.437 161.326ZM319.502 160.745L319.499 159.524H319.662L321.204 157.801H322.385L320.488 159.913H320.279L319.502 160.745ZM318.58 162.092V156.37H319.592V162.092H318.58ZM321.273 162.092L319.877 160.139L320.558 159.427L322.483 162.092H321.273Z" fill="#94A3B8"/>
<path opacity="0.2" d="M310.381 133.029C310.108 133.028 309.84 132.98 309.58 132.887C309.319 132.792 309.084 132.638 308.876 132.426C308.667 132.212 308.501 131.928 308.378 131.574C308.255 131.218 308.195 130.778 308.197 130.253C308.197 129.763 308.249 129.326 308.353 128.942C308.458 128.559 308.607 128.235 308.803 127.97C308.999 127.704 309.234 127.501 309.51 127.361C309.787 127.221 310.097 127.152 310.44 127.152C310.8 127.152 311.118 127.222 311.396 127.364C311.675 127.505 311.9 127.699 312.072 127.945C312.243 128.189 312.349 128.465 312.39 128.772H311.37C311.318 128.552 311.211 128.377 311.049 128.247C310.889 128.114 310.686 128.048 310.44 128.048C310.043 128.048 309.738 128.221 309.524 128.565C309.311 128.91 309.204 129.383 309.203 129.984H309.242C309.333 129.82 309.451 129.68 309.596 129.562C309.742 129.445 309.906 129.355 310.088 129.291C310.272 129.226 310.467 129.194 310.672 129.194C311.007 129.194 311.308 129.274 311.574 129.434C311.843 129.594 312.055 129.815 312.211 130.096C312.368 130.375 312.445 130.696 312.443 131.057C312.445 131.433 312.359 131.771 312.186 132.071C312.013 132.369 311.772 132.604 311.463 132.775C311.153 132.947 310.793 133.031 310.381 133.029ZM310.376 132.191C310.579 132.191 310.76 132.142 310.921 132.043C311.081 131.945 311.207 131.811 311.301 131.644C311.394 131.476 311.439 131.288 311.437 131.079C311.439 130.875 311.395 130.689 311.303 130.523C311.214 130.358 311.09 130.226 310.932 130.13C310.773 130.033 310.593 129.984 310.39 129.984C310.239 129.984 310.098 130.013 309.968 130.071C309.838 130.129 309.724 130.209 309.627 130.311C309.53 130.412 309.454 130.529 309.398 130.663C309.344 130.795 309.316 130.937 309.314 131.088C309.316 131.287 309.363 131.471 309.454 131.638C309.545 131.806 309.671 131.94 309.831 132.04C309.991 132.141 310.173 132.191 310.376 132.191ZM315.502 133.06C315.042 133.06 314.647 132.944 314.318 132.711C313.99 132.476 313.738 132.138 313.561 131.697C313.386 131.254 313.298 130.72 313.298 130.096C313.3 129.472 313.388 128.941 313.563 128.504C313.74 128.064 313.993 127.729 314.32 127.498C314.65 127.267 315.044 127.152 315.502 127.152C315.96 127.152 316.354 127.267 316.684 127.498C317.014 127.729 317.266 128.064 317.441 128.504C317.618 128.943 317.706 129.474 317.706 130.096C317.706 130.722 317.618 131.256 317.441 131.7C317.266 132.141 317.014 132.478 316.684 132.711C316.356 132.944 315.962 133.06 315.502 133.06ZM315.502 132.186C315.86 132.186 316.142 132.01 316.349 131.658C316.557 131.304 316.662 130.783 316.662 130.096C316.662 129.642 316.614 129.26 316.519 128.951C316.424 128.642 316.29 128.409 316.117 128.252C315.944 128.094 315.739 128.015 315.502 128.015C315.146 128.015 314.865 128.192 314.659 128.546C314.452 128.898 314.347 129.414 314.346 130.096C314.344 130.552 314.389 130.936 314.483 131.247C314.577 131.558 314.712 131.793 314.885 131.951C315.058 132.107 315.264 132.186 315.502 132.186ZM319.568 131.605L319.565 130.384H319.727L321.269 128.66H322.451L320.554 130.772H320.344L319.568 131.605ZM318.646 132.951V127.23H319.657V132.951H318.646ZM321.339 132.951L319.942 130.998L320.624 130.286L322.548 132.951H321.339Z" fill="#94A3B8"/>
<line x1="330.358" y1="104" x2="330.358" y2="311" stroke="#E2E8F0" stroke-width="0.715174"/>
<line x1="329.473" y1="310.285" x2="710.371" y2="310.285" stroke="#E2E8F0" stroke-width="0.715174"/>
<path d="M347 139C347 136.791 348.791 135 351 135H354C356.209 135 358 136.791 358 139V311H347V139Z" fill="#EEECF7"/>
<path d="M346.602 229.795C346.602 227.586 348.392 225.795 350.602 225.795H353.905C356.114 225.795 357.905 227.586 357.905 229.795V310.933H346.602V229.795Z" fill="#896BFF"/>
<path d="M392 104C392 101.791 393.791 100 396 100H400C402.209 100 404 101.791 404 104V311H392V104Z" fill="#EEECF7"/>
<path d="M392.383 182.746C392.383 180.537 394.174 178.746 396.383 178.746H399.686C401.895 178.746 403.686 180.537 403.686 182.746V310.935H392.383V182.746Z" fill="#896BFF"/>
<path d="M438 139C438 136.791 439.791 135 442 135H444C446.209 135 448 136.791 448 139V311H438V139Z" fill="#EEECF7"/>
<path d="M438.164 208.512C438.164 206.303 439.955 204.512 442.164 204.512H444.337C446.546 204.512 448.337 206.303 448.337 208.512V310.935H438.164V208.512Z" fill="#896BFF"/>
<path d="M482.399 117C482.399 114.791 484.19 113 486.399 113H489.399C491.609 113 493.399 114.791 493.399 117V311H482.399V117Z" fill="#EEECF7"/>
<path d="M482.337 243.24C482.337 241.031 484.128 239.24 486.337 239.24H489.64C491.849 239.24 493.64 241.031 493.64 243.24V310.936H482.337V243.24Z" fill="#896BFF"/>
<path d="M527.792 139C527.792 136.791 529.583 135 531.792 135H534.792C537.001 135 538.792 136.791 538.792 139V311H527.792V139Z" fill="#EEECF7"/>
<path d="M527.64 223.074C527.64 220.865 529.431 219.074 531.64 219.074H534.943C537.152 219.074 538.943 220.865 538.943 223.074V310.934H527.64V223.074Z" fill="#896BFF"/>
<path d="M573.313 125C573.313 122.791 575.104 121 577.313 121H580.313C582.523 121 584.313 122.791 584.313 125V311H573.313V125Z" fill="#EEECF7"/>
<path d="M572.942 190.588C572.942 188.379 574.733 186.588 576.942 186.588H580.246C582.455 186.588 584.246 188.379 584.246 190.588V310.935H572.942V190.588Z" fill="#896BFF"/>
<path d="M618.313 139C618.313 136.791 620.104 135 622.313 135H626.313C628.523 135 630.313 136.791 630.313 139V311H618.313V139Z" fill="#EEECF7"/>
<path d="M618.72 210.752C618.72 208.543 620.511 206.752 622.72 206.752H626.023C628.232 206.752 630.023 208.543 630.023 210.752V310.934H618.72V210.752Z" fill="#896BFF"/>
<path d="M664.313 127C664.313 124.791 666.104 123 668.313 123H672.313C674.523 123 676.313 124.791 676.313 127V311H664.313V127Z" fill="#EEECF7"/>
<path d="M664.63 237.637C664.63 235.428 666.421 233.637 668.63 233.637H671.933C674.142 233.637 675.933 235.428 675.933 237.637V310.933H664.63V237.637Z" fill="#896BFF"/>
<path d="M710.313 139C710.313 136.791 712.104 135 714.313 135H716.313C718.523 135 720.313 136.791 720.313 139V311H710.313V139Z" fill="#EEECF7"/>
<path d="M710.407 214.111C710.407 211.902 712.198 210.111 714.407 210.111H716.58C718.789 210.111 720.58 211.902 720.58 214.111V310.933H710.407V214.111Z" fill="#896BFF"/>
<g filter="url(#filter5_f_12_38)">
<rect x="121.523" y="53.0114" width="33.4656" height="33.9772" rx="16.7328" stroke="url(#paint4_linear_12_38)" stroke-width="1.97717"/>
</g>
<rect x="121.011" y="53.0114" width="33.4656" height="33.9772" rx="16.7328" fill="#F9F8FF" stroke="url(#paint5_linear_12_38)" stroke-width="1.97717"/>
<path d="M139.057 66.5937C138.563 66.9516 137.959 67.1621 137.306 67.1621C135.638 67.1621 134.285 65.7879 134.285 64.0926C134.285 62.3973 135.638 61.0231 137.306 61.0231C138.387 61.0231 139.336 61.6005 139.869 62.4685M132.559 76.8857H134.812C135.106 76.8857 135.398 76.9212 135.682 76.9922L138.063 77.58C138.579 77.7079 139.117 77.7203 139.639 77.6173L142.271 77.097C142.966 76.9594 143.605 76.6211 144.106 76.1256L145.968 74.285C146.5 73.7602 146.5 72.9087 145.968 72.383C145.49 71.9098 144.732 71.8565 144.19 72.2578L142.02 73.8667C141.709 74.0976 141.331 74.2219 140.942 74.2219H138.847L140.18 74.2219C140.932 74.2219 141.541 73.6198 141.541 72.8767V72.6076C141.541 71.9905 141.116 71.4524 140.511 71.3033L138.452 70.7945C138.117 70.7119 137.774 70.6702 137.429 70.6702C136.597 70.6702 135.09 71.3707 135.09 71.3707L132.559 72.446M144.641 64.9696C144.641 66.6649 143.289 68.0391 141.621 68.0391C139.953 68.0391 138.6 66.6649 138.6 64.9696C138.6 63.2744 139.953 61.9001 141.621 61.9001C143.289 61.9001 144.641 63.2744 144.641 64.9696ZM129.107 72.0734L129.107 77.16C129.107 77.6512 129.107 77.8968 129.201 78.0844C129.284 78.2494 129.416 78.3836 129.579 78.4677C129.763 78.5633 130.005 78.5633 130.488 78.5633H131.179C131.662 78.5633 131.904 78.5633 132.088 78.4677C132.251 78.3836 132.383 78.2494 132.465 78.0844C132.559 77.8968 132.559 77.6512 132.559 77.16V72.0734C132.559 71.5822 132.559 71.3366 132.465 71.149C132.383 70.984 132.251 70.8498 132.088 70.7658C131.904 70.6702 131.662 70.6702 131.179 70.6702L130.488 70.6702C130.005 70.6702 129.763 70.6702 129.579 70.7658C129.416 70.8498 129.284 70.984 129.201 71.149C129.107 71.3366 129.107 71.5822 129.107 72.0734Z" stroke="#7840B2" stroke-width="1.02" stroke-linecap="round" stroke-linejoin="round"/>
<rect opacity="0.78" x="122" y="98" width="152" height="62" rx="8" fill="#F8F6FF"/>
<rect x="136" y="111" width="49" height="10" rx="5" fill="white"/>
<rect x="136" y="131" width="89" height="15" rx="5" fill="#F0EDFE"/>
<g filter="url(#filter6_f_12_38)">
<rect x="121.523" y="207.21" width="33.4656" height="33.7789" rx="16.7328" stroke="url(#paint6_linear_12_38)" stroke-width="1.97717"/>
</g>
<rect x="121.011" y="207.011" width="33.4656" height="33.7789" rx="16.7328" fill="#F9F8FF" stroke="url(#paint7_linear_12_38)" stroke-width="1.97717"/>
<path d="M145.326 224.806C145.048 224.772 144.797 224.977 144.764 225.263C144.348 228.856 141.383 231.565 137.866 231.565C136.198 231.565 134.585 230.947 133.325 229.825C132.282 228.895 131.534 227.672 131.17 226.319L131.774 226.661C132.019 226.8 132.326 226.708 132.46 226.455C132.595 226.203 132.506 225.885 132.261 225.747L130.709 224.867C130.464 224.729 130.157 224.821 130.023 225.073L129.169 226.672C129.035 226.924 129.124 227.242 129.368 227.381C129.594 227.5 129.901 227.437 130.055 227.175L130.254 226.804C130.689 228.272 131.522 229.597 132.664 230.615C134.108 231.901 135.955 232.609 137.866 232.609C141.894 232.609 145.292 229.504 145.768 225.386C145.801 225.1 145.603 224.841 145.326 224.806Z" fill="#7840B2"/>
<path d="M146.06 220.659C145.803 220.545 145.506 220.667 145.395 220.932L145.236 221.312C144.699 219.96 143.808 218.757 142.672 217.869C141.28 216.779 139.617 216.203 137.865 216.203C136.028 216.203 134.236 216.863 132.819 218.062C131.422 219.244 130.448 220.893 130.077 222.707C130.02 222.989 130.194 223.265 130.468 223.325C130.503 223.333 130.538 223.336 130.572 223.336C130.806 223.336 131.016 223.168 131.067 222.922C131.39 221.34 132.24 219.901 133.46 218.869C134.697 217.823 136.261 217.247 137.865 217.247C139.395 217.247 140.846 217.749 142.061 218.7C143.106 219.518 143.914 220.64 144.373 221.897L143.732 221.613C143.476 221.499 143.178 221.622 143.068 221.886C142.958 222.151 143.076 222.458 143.333 222.572L144.959 223.294C145.024 223.323 145.092 223.336 145.159 223.336C145.355 223.336 145.541 223.218 145.623 223.021L146.324 221.345C146.434 221.08 146.316 220.773 146.06 220.659Z" fill="#7840B2"/>
<path d="M139.741 227.486L139.741 227.486C139.466 227.345 139.36 227.017 139.477 226.745L140.505 224.007L140.505 224.007C140.936 222.857 140.443 221.566 139.388 221.027L139.741 227.486ZM139.741 227.486C139.843 227.539 139.896 227.678 139.838 227.799C139.838 227.799 139.838 227.799 139.838 227.799L139.748 227.987C139.709 228.069 139.634 228.109 139.563 228.109C139.534 228.109 139.504 228.103 139.475 228.088L133.926 225.251C133.926 225.251 133.926 225.251 133.926 225.251C133.824 225.199 133.771 225.059 133.829 224.938C133.829 224.938 133.829 224.938 133.829 224.938L133.919 224.751L139.741 227.486ZM134.951 224.408C134.851 224.596 134.657 224.712 134.449 224.712C134.362 224.712 134.273 224.691 134.191 224.649L134.375 224.293L134.193 224.649C134.163 224.634 134.133 224.628 134.105 224.628L134.951 224.408ZM134.951 224.408L136.439 221.906C136.439 221.906 136.439 221.906 136.439 221.906C136.87 221.183 137.616 220.783 138.381 220.783C138.72 220.783 139.064 220.861 139.388 221.027L134.951 224.408Z" stroke="#7840B2" stroke-width="0.8"/>
<mask id="path-79-inside-1_12_38" fill="white">
<path d="M137.105 229.218C137.499 229.4 137.867 229.225 138.061 228.981L136.708 228.289C136.607 228.65 136.767 229.046 137.105 229.218Z"/>
</mask>
<path d="M137.105 229.218L136.801 229.812L136.813 229.818L136.825 229.824L137.105 229.218ZM138.061 228.981L138.583 229.397L139.091 228.759L138.365 228.388L138.061 228.981ZM136.708 228.289L137.011 227.696L136.286 227.325L136.066 228.11L136.708 228.289ZM136.825 229.824C137.566 230.165 138.247 229.818 138.583 229.397L137.54 228.566C137.518 228.594 137.486 228.615 137.46 228.623C137.449 228.626 137.44 228.627 137.431 228.627C137.424 228.626 137.408 228.624 137.384 228.613L136.825 229.824ZM138.365 228.388L137.011 227.696L136.404 228.883L137.758 229.575L138.365 228.388ZM136.066 228.11C135.884 228.76 136.166 229.487 136.801 229.812L137.408 228.625C137.387 228.614 137.368 228.595 137.356 228.566C137.343 228.536 137.341 228.501 137.35 228.469L136.066 228.11Z" fill="#7840B2" mask="url(#path-79-inside-1_12_38)"/>
<path d="M140.041 219.376C140.084 219.396 140.128 219.417 140.171 219.439L140.041 219.376ZM140.041 219.376C140.084 219.382 140.132 219.393 140.185 219.412C140.227 219.436 140.264 219.468 140.294 219.505C140.254 219.483 140.213 219.461 140.171 219.439L140.041 219.376Z" stroke="#7840B2" stroke-width="0.666667"/>
<rect opacity="0.78" x="122" y="252" width="152" height="62" rx="8" fill="#F8F6FF"/>
<rect x="136" y="266" width="49" height="10" rx="5" fill="white"/>
<rect x="136" y="286" width="89" height="15" rx="5" fill="#F0EDFE"/>
<path d="M351 223.815L401 178L446 202.763L490.5 236L536 219L581 169L627 202.763L675 230.5L719.5 208.5" stroke="#869AAE" stroke-width="1.12801"/>
<path d="M351.936 228.807C354.094 228.807 355.859 227.07 355.859 224.91C355.859 222.75 354.094 221.013 351.936 221.013C349.778 221.013 348.013 222.75 348.013 224.91C348.013 227.07 349.778 228.807 351.936 228.807Z" fill="#FFA88C" stroke="white" stroke-width="1.97357"/>
<path d="M400.936 179.807C403.094 179.807 404.859 178.07 404.859 175.91C404.859 173.75 403.094 172.013 400.936 172.013C398.778 172.013 397.013 173.75 397.013 175.91C397.013 178.07 398.778 179.807 400.936 179.807Z" fill="#FFA88C" stroke="white" stroke-width="1.97357"/>
<path d="M447.936 208.807C450.094 208.807 451.859 207.07 451.859 204.91C451.859 202.75 450.094 201.013 447.936 201.013C445.778 201.013 444.013 202.75 444.013 204.91C444.013 207.07 445.778 208.807 447.936 208.807Z" fill="#FFA88C" stroke="white" stroke-width="1.97357"/>
<path d="M490.936 239.807C493.094 239.807 494.859 238.07 494.859 235.91C494.859 233.75 493.094 232.013 490.936 232.013C488.778 232.013 487.013 233.75 487.013 235.91C487.013 238.07 488.778 239.807 490.936 239.807Z" fill="#FFA88C" stroke="white" stroke-width="1.97357"/>
<path d="M627.936 205.807C630.094 205.807 631.859 204.07 631.859 201.91C631.859 199.75 630.094 198.013 627.936 198.013C625.778 198.013 624.013 199.75 624.013 201.91C624.013 204.07 625.778 205.807 627.936 205.807Z" fill="#FFA88C" stroke="white" stroke-width="1.97357"/>
<path d="M673.936 231.807C676.094 231.807 677.859 230.07 677.859 227.91C677.859 225.75 676.094 224.013 673.936 224.013C671.778 224.013 670.013 225.75 670.013 227.91C670.013 230.07 671.778 231.807 673.936 231.807Z" fill="#FFA88C" stroke="white" stroke-width="1.97357"/>
<path d="M719.936 211.807C722.094 211.807 723.859 210.07 723.859 207.91C723.859 205.75 722.094 204.013 719.936 204.013C717.778 204.013 716.013 205.75 716.013 207.91C716.013 210.07 717.778 211.807 719.936 211.807Z" fill="#FFA88C" stroke="white" stroke-width="1.97357"/>
<path d="M534.936 220.807C537.094 220.807 538.859 219.07 538.859 216.91C538.859 214.75 537.094 213.013 534.936 213.013C532.778 213.013 531.013 214.75 531.013 216.91C531.013 219.07 532.778 220.807 534.936 220.807Z" fill="#FFA88C" stroke="white" stroke-width="1.97357"/>
<path d="M581.936 172.807C584.094 172.807 585.859 171.07 585.859 168.91C585.859 166.75 584.094 165.013 581.936 165.013C579.778 165.013 578.013 166.75 578.013 168.91C578.013 171.07 579.778 172.807 581.936 172.807Z" fill="#FFA88C" stroke="white" stroke-width="1.97357"/>
<defs>
<filter id="filter0_d_12_38" x="228.133" y="242.381" width="662.898" height="486.733" filterUnits="userSpaceOnUse" color-interpolation-filters="sRGB">
<feFlood flood-opacity="0" result="BackgroundImageFix"/>
<feColorMatrix in="SourceAlpha" type="matrix" values="0 0 0 0 0 0 0 0 0 0 0 0 0 0 0 0 0 0 127 0" result="hardAlpha"/>
<feOffset dy="23.248"/>
<feGaussianBlur stdDeviation="48.4333"/>
<feComposite in2="hardAlpha" operator="out"/>
<feColorMatrix type="matrix" values="0 0 0 0 0.072691 0 0 0 0 0.190642 0 0 0 0 0.329167 0 0 0 0.1 0"/>
<feBlend mode="normal" in2="BackgroundImageFix" result="effect1_dropShadow_12_38"/>
<feBlend mode="normal" in="SourceGraphic" in2="effect1_dropShadow_12_38" result="shape"/>
</filter>
<filter id="filter1_b_12_38" x="311" y="302" width="497.165" height="321" filterUnits="userSpaceOnUse" color-interpolation-filters="sRGB">
<feFlood flood-opacity="0" result="BackgroundImageFix"/>
<feGaussianBlur in="BackgroundImageFix" stdDeviation="7"/>
<feComposite in2="SourceAlpha" operator="in" result="effect1_backgroundBlur_12_38"/>
<feBlend mode="normal" in="SourceGraphic" in2="effect1_backgroundBlur_12_38" result="shape"/>
</filter>
<filter id="filter2_f_12_38" x="338.241" y="349.241" width="41.8268" height="41.8268" filterUnits="userSpaceOnUse" color-interpolation-filters="sRGB">
<feFlood flood-opacity="0" result="BackgroundImageFix"/>
<feBlend mode="normal" in="SourceGraphic" in2="BackgroundImageFix" result="shape"/>
<feGaussianBlur stdDeviation="2.47705" result="effect1_foregroundBlur_12_38"/>
</filter>
<filter id="filter3_f_12_38" x="338.782" y="472.136" width="41.8268" height="41.8268" filterUnits="userSpaceOnUse" color-interpolation-filters="sRGB">
<feFlood flood-opacity="0" result="BackgroundImageFix"/>
<feBlend mode="normal" in="SourceGraphic" in2="BackgroundImageFix" result="shape"/>
<feGaussianBlur stdDeviation="2.47705" result="effect1_foregroundBlur_12_38"/>
</filter>
<filter id="filter4_bd_12_38" x="-108.261" y="-180.261" width="1067.52" height="729.521" filterUnits="userSpaceOnUse" color-interpolation-filters="sRGB">
<feFlood flood-opacity="0" result="BackgroundImageFix"/>
<feGaussianBlur in="BackgroundImageFix" stdDeviation="105.13"/>
<feComposite in2="SourceAlpha" operator="in" result="effect1_backgroundBlur_12_38"/>
<feColorMatrix in="SourceAlpha" type="matrix" values="0 0 0 0 0 0 0 0 0 0 0 0 0 0 0 0 0 0 127 0" result="hardAlpha"/>
<feOffset dx="20" dy="14"/>
<feGaussianBlur stdDeviation="22"/>
<feComposite in2="hardAlpha" operator="out"/>
<feColorMatrix type="matrix" values="0 0 0 0 0.741982 0 0 0 0 0.711813 0 0 0 0 0.85835 0 0 0 0.21 0"/>
<feBlend mode="normal" in2="effect1_backgroundBlur_12_38" result="effect2_dropShadow_12_38"/>
<feBlend mode="normal" in="SourceGraphic" in2="effect2_dropShadow_12_38" result="shape"/>
</filter>
<filter id="filter5_f_12_38" x="115.107" y="46.5953" width="46.2978" height="46.8094" filterUnits="userSpaceOnUse" color-interpolation-filters="sRGB">
<feFlood flood-opacity="0" result="BackgroundImageFix"/>
<feBlend mode="normal" in="SourceGraphic" in2="BackgroundImageFix" result="shape"/>
<feGaussianBlur stdDeviation="2.71377" result="effect1_foregroundBlur_12_38"/>
</filter>
<filter id="filter6_f_12_38" x="115.107" y="200.794" width="46.2978" height="46.6112" filterUnits="userSpaceOnUse" color-interpolation-filters="sRGB">
<feFlood flood-opacity="0" result="BackgroundImageFix"/>
<feBlend mode="normal" in="SourceGraphic" in2="BackgroundImageFix" result="shape"/>
<feGaussianBlur stdDeviation="2.71377" result="effect1_foregroundBlur_12_38"/>
</filter>
<linearGradient id="paint0_linear_12_38" x1="345.247" y1="357.891" x2="371.787" y2="381.246" gradientUnits="userSpaceOnUse">
<stop stop-color="#FFE70E"/>
<stop offset="0.359375" stop-color="#F186F6"/>
<stop offset="0.6875" stop-color="#736AF3"/>
<stop offset="1" stop-color="#72BDFE"/>
</linearGradient>
<linearGradient id="paint1_linear_12_38" x1="345.247" y1="357.891" x2="371.787" y2="381.246" gradientUnits="userSpaceOnUse">
<stop stop-color="#FFE70E"/>
<stop offset="0.359375" stop-color="#F186F6"/>
<stop offset="0.6875" stop-color="#736AF3"/>
<stop offset="1" stop-color="#72BDFE"/>
</linearGradient>
<linearGradient id="paint2_linear_12_38" x1="345.788" y1="480.785" x2="372.328" y2="504.14" gradientUnits="userSpaceOnUse">
<stop stop-color="#FFE70E"/>
<stop offset="0.359375" stop-color="#F186F6"/>
<stop offset="0.6875" stop-color="#736AF3"/>
<stop offset="1" stop-color="#72BDFE"/>
</linearGradient>
<linearGradient id="paint3_linear_12_38" x1="345.328" y1="480.785" x2="371.868" y2="504.14" gradientUnits="userSpaceOnUse">
<stop stop-color="#FFE70E"/>
<stop offset="0.359375" stop-color="#F186F6"/>
<stop offset="0.6875" stop-color="#736AF3"/>
<stop offset="1" stop-color="#72BDFE"/>
</linearGradient>
<linearGradient id="paint4_linear_12_38" x1="122.787" y1="56.137" x2="152.722" y2="82.0584" gradientUnits="userSpaceOnUse">
<stop stop-color="#FFE70E"/>
<stop offset="0.359375" stop-color="#F186F6"/>
<stop offset="0.6875" stop-color="#736AF3"/>
<stop offset="1" stop-color="#72BDFE"/>
</linearGradient>
<linearGradient id="paint5_linear_12_38" x1="122.275" y1="56.137" x2="152.21" y2="82.0584" gradientUnits="userSpaceOnUse">
<stop stop-color="#FFE70E"/>
<stop offset="0.359375" stop-color="#F186F6"/>
<stop offset="0.6875" stop-color="#736AF3"/>
<stop offset="1" stop-color="#72BDFE"/>
</linearGradient>
<linearGradient id="paint6_linear_12_38" x1="122.787" y1="210.322" x2="152.562" y2="236.266" gradientUnits="userSpaceOnUse">
<stop stop-color="#FFE70E"/>
<stop offset="0.359375" stop-color="#F186F6"/>
<stop offset="0.6875" stop-color="#736AF3"/>
<stop offset="1" stop-color="#72BDFE"/>
</linearGradient>
<linearGradient id="paint7_linear_12_38" x1="122.275" y1="210.124" x2="152.05" y2="236.068" gradientUnits="userSpaceOnUse">
<stop stop-color="#FFE70E"/>
<stop offset="0.359375" stop-color="#F186F6"/>
<stop offset="0.6875" stop-color="#736AF3"/>
<stop offset="1" stop-color="#72BDFE"/>
</linearGradient>
<clipPath id="clip0_12_38">
<rect width="8.92192" height="8.85074" fill="white" transform="translate(729.956 365.539) rotate(-180)"/>
</clipPath>
<clipPath id="clip1_12_38">
<rect width="14.6044" height="14.6044" fill="white" transform="translate(352.453 363.271)"/>
</clipPath>
</defs>
</svg>
