<svg width="29" height="29" viewBox="0 0 29 29" fill="none" xmlns="http://www.w3.org/2000/svg">
<path opacity="0.4" d="M12.3468 21.4763C17.3899 21.4763 21.4782 17.388 21.4782 12.3449C21.4782 7.30172 17.3899 3.21344 12.3468 3.21344C7.30361 3.21344 3.21533 7.30172 3.21533 12.3449C3.21533 17.388 7.30361 21.4763 12.3468 21.4763Z" fill="#5B2EBC"/>
<path d="M26.0382 19.202C26.0382 22.9735 22.9754 26.0363 19.204 26.0363C16.8725 26.0363 14.8268 24.8706 13.5925 23.0992C18.5754 22.5392 22.5411 18.5735 23.1011 13.5906C24.8725 14.8249 26.0382 16.8706 26.0382 19.202Z" fill="#5B2EBC"/>
<path d="M14.0153 12.0249L11.2725 11.0649C10.9982 10.9734 10.941 10.9506 10.941 10.5506C10.941 10.2534 11.1468 10.0134 11.4096 10.0134H13.1239C13.4896 10.0134 13.7868 10.3449 13.7868 10.7563C13.7868 11.2249 14.1753 11.6134 14.6439 11.6134C15.1125 11.6134 15.501 11.2249 15.501 10.7563C15.501 9.44202 14.4839 8.36773 13.2153 8.31059V8.25344C13.2153 7.78487 12.8268 7.3963 12.3582 7.3963C11.8896 7.3963 11.501 7.77344 11.501 8.25344V8.31059H11.3982C10.1982 8.31059 9.21533 9.3163 9.21533 10.562C9.21533 11.6477 9.69533 12.3449 10.6896 12.6877L13.4439 13.6477C13.7182 13.7392 13.7753 13.762 13.7753 14.162C13.7753 14.4592 13.5696 14.6992 13.3068 14.6992H11.5925C11.2268 14.6992 10.9296 14.3677 10.9296 13.9563C10.9296 13.4877 10.541 13.0992 10.0725 13.0992C9.6039 13.0992 9.21533 13.4877 9.21533 13.9563C9.21533 15.2706 10.2325 16.3449 11.501 16.402V16.4706C11.501 16.9392 11.8896 17.3277 12.3582 17.3277C12.8268 17.3277 13.2153 16.9392 13.2153 16.4706V16.4134H13.3182C14.5182 16.4134 15.501 15.4077 15.501 14.162C15.501 13.0763 15.0096 12.3792 14.0153 12.0249Z" fill="#5B2EBC"/>
</svg>
