<svg width="29" height="29" viewBox="0 0 29 29" fill="none" xmlns="http://www.w3.org/2000/svg">
<path opacity="0.4" d="M12.3468 21.4763C17.39 21.4763 21.4783 17.388 21.4783 12.3449C21.4783 7.30172 17.39 3.21344 12.3468 3.21344C7.30369 3.21344 3.21541 7.30172 3.21541 12.3449C3.21541 17.388 7.30369 21.4763 12.3468 21.4763Z" fill="#666F81"/>
<path d="M26.0383 19.202C26.0383 22.9734 22.9754 26.0363 19.204 26.0363C16.8725 26.0363 14.8268 24.8706 13.5925 23.0991C18.5754 22.5391 22.5411 18.5734 23.1011 13.5906C24.8725 14.8249 26.0383 16.8706 26.0383 19.202Z" fill="#666F81"/>
<path d="M14.0154 12.0249L11.2726 11.0649C10.9983 10.9734 10.9411 10.9506 10.9411 10.5506C10.9411 10.2534 11.1468 10.0134 11.4097 10.0134H13.124C13.4897 10.0134 13.7868 10.3449 13.7868 10.7563C13.7868 11.2249 14.1754 11.6134 14.644 11.6134C15.1126 11.6134 15.5011 11.2249 15.5011 10.7563C15.5011 9.44202 14.484 8.36773 13.2154 8.31059V8.25344C13.2154 7.78487 12.8268 7.3963 12.3583 7.3963C11.8897 7.3963 11.5011 7.77344 11.5011 8.25344V8.31059H11.3983C10.1983 8.31059 9.21541 9.3163 9.21541 10.562C9.21541 11.6477 9.69541 12.3449 10.6897 12.6877L13.444 13.6477C13.7183 13.7392 13.7754 13.762 13.7754 14.162C13.7754 14.4592 13.5697 14.6992 13.3068 14.6992H11.5926C11.2268 14.6992 10.9297 14.3677 10.9297 13.9563C10.9297 13.4877 10.5411 13.0992 10.0726 13.0992C9.60398 13.0992 9.21541 13.4877 9.21541 13.9563C9.21541 15.2706 10.2326 16.3449 11.5011 16.402V16.4706C11.5011 16.9392 11.8897 17.3277 12.3583 17.3277C12.8268 17.3277 13.2154 16.9392 13.2154 16.4706V16.4134H13.3183C14.5183 16.4134 15.5011 15.4077 15.5011 14.162C15.5011 13.0763 15.0097 12.3792 14.0154 12.0249Z" fill="#666F81"/>
</svg>
