<svg width="222" height="42" viewBox="0 0 222 42" fill="none" xmlns="http://www.w3.org/2000/svg">
<g clip-path="url(#clip0_0_312)">
<path fill-rule="evenodd" clip-rule="evenodd" d="M35.6356 21.0013V20.6094L32.3162 17.7522H31.9294C31.0166 18.7608 29.6071 19.5166 28.0304 19.5166C25.569 19.5166 23.6323 17.6399 23.6323 15.0635C23.6323 12.4872 25.569 10.6105 28.0304 10.6105C29.6071 10.6105 31.0166 11.3663 31.9294 12.3749H32.3162L35.6356 9.51769V9.12575C33.8929 6.99754 31.1557 5.62512 28.0573 5.62512C22.3607 5.62512 18.0469 9.65812 18.0469 15.0635C18.0469 15.2729 18.0941 15.4657 18.1082 15.6712C20.4394 17.2569 22.4973 18.5259 24.2694 19.6877C26.824 21.3039 28.8858 22.7912 30.5838 24.1739C32.7005 23.6389 34.4163 22.4785 35.6356 21.0013ZM20.124 20.9005C21.4543 22.5346 23.3323 23.7066 25.5473 24.2071C24.0511 23.3657 22.602 22.5397 21.2526 21.6256C20.8568 21.3805 20.5045 21.1431 20.124 20.9005Z" fill="#4E5D78"/>
<path fill-rule="evenodd" clip-rule="evenodd" d="M54.8492 23.2982L54.0194 19.7134L53.7155 19.5168C53.5496 19.601 53.4117 19.7134 52.9968 19.7134C52.3597 19.7134 51.9729 19.0406 51.641 18.5095C51.0882 17.6681 50.6452 17.22 50.2583 17.0247C52.2767 16.1285 53.6326 14.4484 53.6326 12.0393C53.6326 8.31396 51.0882 5.96106 46.3594 5.96106H38.1172V24.1664H43.5928V17.7805H44.0907C45.3074 17.7805 46.8573 20.413 47.576 21.5901C49.0697 23.9711 50.2583 24.5021 52.3878 24.5021C53.3836 24.5021 54.2135 24.1383 54.7114 23.6902L54.8492 23.2982ZM48.0459 12.347C48.0459 13.5521 47.1611 14.1394 46.1372 14.1394H43.5928V10.4422H46.1372C47.1611 10.4422 48.0459 11.115 48.0459 12.347Z" fill="#4E5D78"/>
<path fill-rule="evenodd" clip-rule="evenodd" d="M76.004 15.0694C76.004 9.66398 71.6901 5.63098 65.9655 5.63098C60.2397 5.63098 55.9258 9.66398 55.9258 15.0694C55.9258 20.4748 60.2397 24.5078 65.9655 24.5078C71.6901 24.5078 76.004 20.4467 76.004 15.0694ZM70.4173 15.0694C70.4173 17.6738 68.4257 19.5224 65.9655 19.5224C63.5041 19.5224 61.5125 17.6738 61.5125 15.0694C61.5125 12.465 63.5041 10.6164 65.9655 10.6164C68.4257 10.6164 70.4173 12.465 70.4173 15.0694Z" fill="#4E5D78"/>
<path fill-rule="evenodd" clip-rule="evenodd" d="M88.2094 5.96887L84.8006 15.9895L81.5707 5.96887H76.3363L76.0938 6.3889L82.7835 24.1729H86.1029L89.869 14.2532L93.648 24.1729H96.9673L103.67 6.3889L103.415 5.96887H98.1929L94.9502 16.0533L91.5287 5.96887H88.2094Z" fill="#4E5D78"/>
<path fill-rule="evenodd" clip-rule="evenodd" d="M123.71 15.0434C123.71 9.60994 120.087 5.96887 114.196 5.96887H105.816V24.1742H114.196C120.087 24.1742 123.71 20.5331 123.71 15.0434ZM118.124 15.0715C118.124 18.0398 116.381 19.6931 113.976 19.6931H111.292V10.45H113.976C116.381 10.45 118.124 12.1033 118.124 15.0715Z" fill="#4E5D78"/>
<path fill-rule="evenodd" clip-rule="evenodd" d="M141.828 10.45H147.19V24.1729H152.68V10.45H158.17V5.96887H141.828V10.45Z" fill="#4E5D78"/>
<path fill-rule="evenodd" clip-rule="evenodd" d="M175.66 12.0451C175.66 8.31982 173.116 5.96692 168.387 5.96692H160.145V24.1722H165.621V17.7863H166.921L170.322 24.1722H175.771L176.02 23.7522L172.369 17.0025C174.332 16.0782 175.66 14.4261 175.66 12.0451ZM170.073 12.3528C170.073 13.558 169.188 14.1453 168.165 14.1453H165.621V10.448H168.165C169.188 10.448 170.073 11.1208 170.073 12.3528Z" fill="#4E5D78"/>
<path fill-rule="evenodd" clip-rule="evenodd" d="M178.977 24.1729H184.466V5.96887H178.977V24.1729Z" fill="#4E5D78"/>
<path fill-rule="evenodd" clip-rule="evenodd" d="M193.404 12.439V5.96887H187.914V24.1729H193.404V18.5683L194.425 17.3938L199.021 24.1729H204.766L205.021 23.7516L198.383 14.1128L204.511 6.3889L204.383 5.96887H198.51L193.404 12.439Z" fill="#4E5D78"/>
<path fill-rule="evenodd" clip-rule="evenodd" d="M212.044 19.6911V17.1761H218.3V12.9695H212.044V10.4493H220.215V5.96692H206.555V24.1722H220.343V19.6911H212.044Z" fill="#4E5D78"/>
<path fill-rule="evenodd" clip-rule="evenodd" d="M133.017 24.3861C137.029 24.3861 140.51 22.4265 140.51 18.6475C140.51 14.529 137 13.4642 133.903 12.568C132.685 12.2041 131.439 11.7828 131.439 10.8866C131.439 10.2419 132.131 9.84997 133.183 9.84997C134.982 9.84997 136.503 10.9709 137.276 11.6999H137.663L140.234 8.61926V8.22732C138.88 6.68765 136.116 5.51184 133.072 5.51184C128.813 5.51184 125.856 7.8073 125.856 11.1394C125.856 14.7256 129.117 16.2946 131.882 17.0785C133.681 17.5828 134.9 17.667 134.9 18.6475C134.9 19.3484 134.041 19.7684 132.712 19.7684C131.024 19.7684 128.979 18.6756 127.985 17.6951H127.598L125.055 20.8881V21.28C126.685 23.0993 129.615 24.3861 133.017 24.3861Z" fill="#4E5D78"/>
<path fill-rule="evenodd" clip-rule="evenodd" d="M38.5719 41.1223C37.2454 38.0864 34.581 34.1913 24.1455 28.6288C19.3324 25.9529 11.1107 21.8331 3.71875 13.9982C4.389 16.8247 7.82325 23.0357 22.5879 30.7864C26.6784 33.0244 33.5954 35.1232 38.5719 41.1121" fill="#4E5D78"/>
<path fill-rule="evenodd" clip-rule="evenodd" d="M37.9065 35.9263C36.6477 32.3388 34.3752 27.7454 23.595 20.9254C18.3466 17.486 10.6368 13.1671 0.5 2.15833C1.22515 5.12659 4.42959 12.8453 20.582 22.8659C25.8879 26.461 32.7359 28.6786 37.9065 35.9263Z" fill="#4E5D78"/>
</g>
<defs>
<clipPath id="clip0_0_312">
<rect width="220.864" height="40.8535" fill="white" transform="translate(0.5 0.873047)"/>
</clipPath>
</defs>
</svg>
