<svg width="514" height="584" viewBox="0 0 514 584" fill="none" xmlns="http://www.w3.org/2000/svg">
<rect x="67.4453" y="49.7578" width="263.82" height="318.366" rx="17.8107" transform="rotate(6.95698 67.4453 49.7578)" fill="url(#paint0_linear_1_15526)"/>
<path d="M37.7812 292.852L299.659 324.807L292.918 380.055C291.726 389.819 282.845 396.769 273.081 395.577L46.5619 367.937C36.7978 366.745 29.8482 357.864 31.0397 348.1L37.7812 292.852Z" fill="url(#paint1_linear_1_15526)"/>
<path d="M131.661 134.033C130.226 135.06 128.483 135.448 126.432 135.198C124.381 134.948 122.774 134.151 121.61 132.806C120.466 131.447 120.016 129.768 120.26 127.77L121.765 115.439L124.231 115.74L122.739 127.965C122.58 129.273 122.841 130.364 123.524 131.237C124.209 132.092 125.277 132.608 126.726 132.785C128.176 132.962 129.336 132.717 130.207 132.052C131.08 131.369 131.596 130.374 131.756 129.065L133.248 116.84L135.687 117.138L134.183 129.469C133.939 131.467 133.098 132.988 131.661 134.033ZM144.117 137.356C142.384 137.145 140.949 136.557 139.811 135.592C138.69 134.63 137.968 133.412 137.646 131.937L139.916 130.976C140.367 133.31 141.883 134.634 144.464 134.949C145.737 135.104 146.741 134.967 147.475 134.536C148.212 134.088 148.633 133.43 148.739 132.564C148.847 131.68 148.592 130.976 147.974 130.452C147.356 129.928 146.29 129.323 144.777 128.636C144.03 128.293 143.461 128.026 143.072 127.835C142.684 127.627 142.2 127.334 141.618 126.958C141.055 126.567 140.643 126.193 140.382 125.838C140.122 125.466 139.901 124.999 139.718 124.439C139.553 123.88 139.512 123.265 139.593 122.593C139.79 120.984 140.511 119.781 141.757 118.982C143.005 118.165 144.442 117.856 146.068 118.054C147.536 118.233 148.763 118.76 149.751 119.634C150.757 120.51 151.459 121.592 151.858 122.879L149.644 123.82C149.082 121.813 147.793 120.687 145.777 120.441C144.769 120.318 143.926 120.466 143.247 120.886C142.568 121.305 142.176 121.94 142.073 122.788C141.973 123.601 142.19 124.256 142.721 124.751C143.253 125.247 144.207 125.812 145.583 126.446C146.076 126.668 146.424 126.827 146.628 126.924C146.831 127.02 147.143 127.184 147.564 127.415C148.002 127.647 148.321 127.83 148.52 127.962C148.719 128.094 148.984 128.279 149.313 128.516C149.661 128.756 149.912 128.975 150.068 129.173C150.223 129.372 150.399 129.618 150.597 129.911C150.814 130.189 150.959 130.467 151.033 130.745C151.107 131.023 151.158 131.343 151.185 131.705C151.233 132.052 151.232 132.42 151.185 132.809C150.987 134.435 150.236 135.662 148.933 136.49C147.632 137.3 146.026 137.589 144.117 137.356ZM163.845 120.573C166.373 120.882 168.358 122.039 169.8 124.045C171.262 126.036 171.834 128.331 171.517 130.929C171.2 133.528 170.091 135.627 168.192 137.225C166.312 138.808 164.108 139.445 161.58 139.137L154.34 138.253L156.605 119.69L163.845 120.573ZM161.865 136.803C163.756 137.034 165.384 136.56 166.748 135.381C168.112 134.201 168.915 132.622 169.157 130.641C169.398 128.661 168.999 126.935 167.958 125.462C166.918 123.99 165.452 123.138 163.56 122.907L158.787 122.325L157.091 136.221L161.865 136.803Z" fill="#F8F4FF"/>
<path d="M64.5286 335.197C64.3452 336.699 63.7091 337.869 62.6202 338.705C61.5512 339.525 60.2269 339.938 58.6474 339.943L58.3594 342.303L56.6356 342.092L56.9204 339.759C55.4638 339.491 54.2571 338.94 53.3003 338.106C52.3435 337.271 51.7097 336.216 51.3989 334.94L54.2087 333.749C54.6377 335.38 55.6634 336.385 57.2861 336.762L57.9591 331.246C57.2002 330.848 56.5873 330.505 56.1203 330.214C55.6555 329.906 55.1661 329.506 54.6521 329.012C54.1558 328.521 53.8029 327.958 53.5934 327.322C53.4037 326.671 53.3585 325.939 53.4577 325.126C53.6389 323.64 54.2807 322.499 55.3829 321.7C56.4851 320.902 57.7786 320.521 59.2632 320.559L59.548 318.225L61.2717 318.435L60.9837 320.796C63.314 321.403 64.8104 322.815 65.473 325.031L62.7194 326.202C62.4 324.997 61.6985 324.202 60.6149 323.819L59.9741 329.07C60.514 329.351 60.9178 329.571 61.1856 329.729C61.471 329.889 61.8373 330.122 62.2845 330.428C62.7493 330.736 63.0992 331.03 63.3342 331.31C63.5692 331.59 63.8065 331.924 64.0463 332.312C64.3037 332.702 64.4651 333.143 64.5306 333.636C64.5983 334.111 64.5976 334.631 64.5286 335.197ZM56.5074 325.498C56.4406 326.046 56.5447 326.516 56.8198 326.908C57.1125 327.303 57.6174 327.723 58.3345 328.17L58.8976 323.555C58.2305 323.582 57.6787 323.766 57.2423 324.107C56.8236 324.451 56.5786 324.914 56.5074 325.498ZM59.0131 336.946C59.7375 336.891 60.3112 336.674 60.7343 336.295C61.1573 335.916 61.4044 335.434 61.4756 334.851C61.5468 334.268 61.4272 333.778 61.1168 333.381C60.8085 332.966 60.3036 332.546 59.602 332.119L59.0131 336.946ZM78.0662 332.219C79.7643 333.449 80.4914 335.063 80.2476 337.061C80.0405 338.758 79.2843 340.03 77.979 340.875C76.6758 341.703 75.043 341.997 73.0805 341.758C71.1181 341.518 69.5951 340.839 68.5116 339.72C67.4478 338.585 67.0195 337.169 67.2266 335.472C67.3431 334.517 67.6875 333.68 68.2598 332.961C68.8342 332.223 69.5837 331.669 70.5082 331.297C69.2237 330.207 68.685 328.814 68.8921 327.117C69.0992 325.419 69.8246 324.18 71.0683 323.399C72.3141 322.6 73.768 322.302 75.4298 322.505C77.074 322.705 78.4047 323.343 79.4219 324.418C80.4589 325.478 80.8738 326.856 80.6667 328.553C80.4596 330.251 79.5928 331.473 78.0662 332.219ZM75.0771 325.395C74.2462 325.294 73.5386 325.432 72.9542 325.809C72.3699 326.186 72.0271 326.79 71.9257 327.621C71.8286 328.417 72.0172 329.077 72.4915 329.601C72.9835 330.128 73.6361 330.441 74.4493 330.54C75.2449 330.637 75.9448 330.489 76.5489 330.096C77.1531 329.704 77.5037 329.109 77.6008 328.314C77.7022 327.483 77.5058 326.813 77.0117 326.304C76.5352 325.797 75.8904 325.494 75.0771 325.395ZM73.4333 338.867C74.4587 338.992 75.3198 338.846 76.0167 338.429C76.7157 337.994 77.1213 337.316 77.2335 336.397C77.3457 335.478 77.1137 334.732 76.5377 334.159C75.9638 333.569 75.1641 333.211 74.1387 333.086C73.0956 332.958 72.2245 333.112 71.5255 333.547C70.8287 333.965 70.4241 334.633 70.3119 335.552C70.1998 336.472 70.4306 337.227 71.0045 337.817C71.5806 338.39 72.3902 338.74 73.4333 338.867ZM87.5453 339.943L84.8476 346.612L82.4609 346.32L84.363 339.555L87.5453 339.943ZM92.162 324.896L103.963 326.336L103.639 328.988L95.1742 344.104L91.9653 343.712L100.292 328.849L91.806 327.813L92.162 324.896ZM110.57 334.248C112.338 334.463 113.767 335.176 114.858 336.386C115.95 337.578 116.383 339.102 116.157 340.958C115.93 342.815 115.125 344.197 113.74 345.104C112.355 346.012 110.753 346.354 108.932 346.132C107.464 345.953 106.206 345.459 105.156 344.649C104.109 343.821 103.425 342.733 103.105 341.384L105.915 340.193C106.205 341.933 107.332 342.923 109.294 343.162C110.337 343.289 111.2 343.126 111.884 342.671C112.587 342.2 112.995 341.505 113.107 340.586C113.219 339.667 112.998 338.904 112.444 338.298C111.89 337.692 111.1 337.327 110.075 337.202L104.665 336.542L106.598 326.658L116.94 327.92L116.591 330.784L109.059 329.865L108.236 333.963L110.57 334.248ZM130.864 346.144C129.378 347.739 127.485 348.396 125.187 348.116C122.889 347.835 121.201 346.741 120.124 344.833C119.064 342.928 118.713 340.516 119.069 337.599C119.425 334.682 120.346 332.426 121.832 330.831C123.337 329.238 125.238 328.582 127.536 328.863C129.835 329.143 131.513 330.236 132.573 332.142C133.65 334.05 134.01 336.462 133.654 339.379C133.298 342.296 132.368 344.551 130.864 346.144ZM125.549 345.146C126.928 345.314 128.05 344.868 128.915 343.807C129.781 342.746 130.344 341.146 130.605 339.007C130.866 336.868 130.704 335.179 130.119 333.942C129.535 332.704 128.553 332.001 127.174 331.833C125.812 331.667 124.69 332.113 123.808 333.172C122.943 334.232 122.379 335.832 122.118 337.971C121.857 340.111 122.019 341.799 122.604 343.037C123.206 344.277 124.188 344.979 125.549 345.146ZM138.581 349.131C138.145 349.473 137.653 349.61 137.105 349.543C136.557 349.476 136.112 349.225 135.77 348.788C135.429 348.352 135.291 347.859 135.358 347.311C135.425 346.763 135.668 346.317 136.087 345.974C136.523 345.632 137.024 345.496 137.59 345.565C138.138 345.632 138.583 345.884 138.924 346.32C139.266 346.756 139.403 347.249 139.336 347.797C139.269 348.345 139.018 348.79 138.581 349.131ZM142.303 349.854L142.594 347.468L149.87 341.654C151.636 340.272 152.589 339.007 152.729 337.858C152.839 336.956 152.65 336.224 152.163 335.663C151.695 335.085 151.045 334.746 150.214 334.644C148.659 334.455 147.416 335.083 146.485 336.531L144.097 334.705C144.832 333.539 145.768 332.702 146.907 332.195C148.045 331.688 149.26 331.513 150.55 331.671C152.177 331.869 153.511 332.553 154.553 333.72C155.594 334.888 156.007 336.356 155.792 338.124C155.561 340.016 154.263 341.903 151.898 343.785L147.197 347.464L154.887 348.402L154.528 351.346L142.303 349.854ZM164.934 340.881C166.702 341.097 168.131 341.81 169.222 343.019C170.315 344.211 170.748 345.735 170.521 347.592C170.295 349.448 169.489 350.83 168.104 351.738C166.72 352.645 165.117 352.988 163.296 352.766C161.828 352.587 160.57 352.092 159.52 351.282C158.473 350.455 157.789 349.367 157.47 348.018L160.279 346.827C160.569 348.567 161.696 349.556 163.658 349.796C164.701 349.923 165.565 349.759 166.248 349.304C166.951 348.834 167.359 348.139 167.471 347.22C167.584 346.3 167.363 345.538 166.809 344.932C166.254 344.326 165.465 343.96 164.439 343.835L159.029 343.175L160.962 333.291L171.305 334.553L170.955 337.417L163.424 336.498L162.601 340.597L164.934 340.881Z" fill="url(#paint2_linear_1_15526)"/>
<path d="M65.1751 272.652C64.4841 273.169 63.6258 273.364 62.6004 273.239C61.575 273.114 60.789 272.718 60.2425 272.05C59.696 271.382 59.4826 270.558 59.6023 269.577L60.3563 263.398L61.0591 263.483L60.3051 269.662C60.2102 270.44 60.3684 271.092 60.7797 271.618C61.1911 272.143 61.8255 272.458 62.6829 272.563C63.5404 272.668 64.2319 272.514 64.7576 272.103C65.2921 271.693 65.6069 271.099 65.7018 270.321L66.4558 264.142L67.1585 264.228L66.4045 270.407C66.2848 271.388 65.875 272.136 65.1751 272.652ZM71.9926 274.385C71.1351 274.281 70.4295 273.997 69.8759 273.535C69.3322 273.065 68.9952 272.481 68.865 271.783L69.5187 271.5C69.6165 272.095 69.8792 272.589 70.3067 272.982C70.7431 273.376 71.3325 273.619 72.0751 273.709C72.8264 273.801 73.4221 273.699 73.8619 273.402C74.3106 273.107 74.5684 272.686 74.6353 272.138C74.6978 271.625 74.5514 271.208 74.1959 270.886C73.8403 270.565 73.2677 270.221 72.478 269.856C72.1893 269.722 71.9769 269.624 71.8409 269.563C71.7148 269.493 71.5295 269.395 71.285 269.266C71.0416 269.129 70.8628 269.013 70.7488 268.918C70.6347 268.823 70.4974 268.699 70.3368 268.545C70.185 268.392 70.0774 268.244 70.0141 268.102C69.9518 267.951 69.901 267.778 69.8618 267.585C69.8236 267.383 69.8186 267.167 69.8466 266.937C69.9383 266.186 70.2768 265.617 70.8622 265.231C71.4575 264.837 72.1574 264.689 72.9618 264.788C73.6867 264.876 74.2834 265.133 74.7518 265.558C75.2203 265.983 75.5389 266.497 75.7074 267.101L75.0703 267.36C74.7588 266.236 74.0285 265.604 72.8793 265.464C72.2429 265.386 71.7141 265.492 71.293 265.782C70.8719 266.071 70.6295 266.477 70.5659 266.998C70.5044 267.502 70.6353 267.899 70.9587 268.19C71.2821 268.481 71.8298 268.808 72.6019 269.171C73.0941 269.402 73.4741 269.596 73.7419 269.754C74.0196 269.905 74.309 270.106 74.6102 270.358C74.9213 270.602 75.1342 270.88 75.2489 271.19C75.3646 271.491 75.3993 271.832 75.3529 272.212C75.2591 272.981 74.9051 273.566 74.291 273.966C73.6781 274.358 72.9119 274.498 71.9926 274.385ZM86.8864 266.635C88.1505 266.789 89.1386 267.367 89.8506 268.369C90.5726 269.363 90.8543 270.51 90.6958 271.81C90.5372 273.109 89.9875 274.159 89.0465 274.959C88.1155 275.752 87.0179 276.071 85.7538 275.917L82.2665 275.491L83.3991 266.209L86.8864 266.635ZM85.8347 275.254C86.9132 275.385 87.8435 275.113 88.6258 274.437C89.4091 273.752 89.8693 272.848 90.0063 271.725C90.1433 270.603 89.9134 269.619 89.3167 268.775C88.721 267.922 87.8839 267.429 86.8055 267.298L84.021 266.958L83.0502 274.914L85.8347 275.254ZM95.7589 277.285C94.7865 277.167 94.0005 276.734 93.4007 275.988C92.8109 275.235 92.5753 274.371 92.6939 273.399C92.8126 272.427 93.2483 271.65 94.001 271.069C94.7636 270.48 95.6311 270.245 96.6035 270.364C97.567 270.481 98.3437 270.917 98.9336 271.671C99.5333 272.417 99.7739 273.276 99.6552 274.249C99.5366 275.221 99.0959 276.001 98.3333 276.59C97.5806 277.171 96.7225 277.403 95.7589 277.285ZM93.9347 275.583C94.4159 276.197 95.0498 276.553 95.8366 276.649C96.6233 276.745 97.3197 276.552 97.9258 276.07C98.5319 275.587 98.883 274.953 98.979 274.166C99.075 273.379 98.8868 272.679 98.4145 272.065C97.9421 271.451 97.3126 271.096 96.5258 271C95.7391 270.904 95.0383 271.097 94.4233 271.578C93.8172 272.06 93.4662 272.695 93.3702 273.482C93.2742 274.268 93.4623 274.969 93.9347 275.583ZM101.819 277.877L103 268.197L103.663 268.278L102.482 277.958L101.819 277.877ZM105.497 278.326L106.678 268.646L107.341 268.727L106.16 278.407L105.497 278.326ZM115.819 272.857L116.495 272.939L115.686 279.569L115.01 279.486L115.193 277.988C114.848 278.466 114.41 278.821 113.879 279.052C113.348 279.284 112.769 279.361 112.142 279.284C111.196 279.169 110.427 278.739 109.836 277.994C109.247 277.24 109.011 276.377 109.13 275.405C109.248 274.432 109.684 273.656 110.437 273.075C111.191 272.485 112.04 272.248 112.986 272.363C113.614 272.44 114.157 272.654 114.617 273.006C115.076 273.358 115.416 273.808 115.636 274.355L115.819 272.857ZM110.37 277.588C110.852 278.203 111.486 278.558 112.272 278.654C113.059 278.75 113.755 278.557 114.362 278.075C114.968 277.593 115.319 276.958 115.415 276.172C115.511 275.385 115.323 274.685 114.85 274.071C114.378 273.457 113.748 273.102 112.962 273.006C112.175 272.91 111.474 273.102 110.859 273.584C110.253 274.066 109.902 274.7 109.806 275.487C109.71 276.274 109.898 276.974 110.37 277.588ZM120.008 274.687C120.519 273.807 121.314 273.433 122.392 273.565L122.315 274.201C121.687 274.124 121.136 274.264 120.662 274.618C120.189 274.964 119.904 275.535 119.807 276.331L119.358 280.017L118.695 279.936L119.504 273.306L120.167 273.387L120.008 274.687Z" fill="#F8F4FF"/>
<g opacity="0.34">
<path d="M83.6895 69.8618L86.7318 70.233L84.7862 79.9456L81.7529 79.5755L83.6895 69.8618Z" fill="white"/>
<path d="M88.9251 70.4996L91.7507 70.8444L94.3668 76.6609L95.443 71.295L98.2958 71.6431L96.3502 81.3557L93.4974 81.0076L90.8994 75.1933L89.8232 80.5592L86.9795 80.2122L88.9251 70.4996Z" fill="white"/>
<path d="M99.3438 71.7715L102.512 72.1581L103.321 79.4216L106.891 72.6924L109.96 73.0669L104.413 82.34L101.136 81.9401L99.3438 71.7715Z" fill="white"/>
<path d="M109.137 77.9494C109.351 76.5463 110.096 75.2791 111.218 74.4102C112.386 73.6149 113.816 73.3033 115.209 73.5412C115.885 73.5714 116.548 73.7435 117.153 74.0462C117.759 74.349 118.294 74.7757 118.723 75.2985C119.087 75.8552 119.327 76.483 119.429 77.14C119.53 77.797 119.491 78.4681 119.312 79.1085C119.153 80.0923 118.763 81.0244 118.174 81.8282C117.652 82.5014 116.955 83.0185 116.159 83.3231C115.248 83.6484 114.27 83.7431 113.313 83.5988C112.377 83.5207 111.472 83.2251 110.67 82.7357C110.004 82.2828 109.502 81.6271 109.239 80.8662C108.941 79.9212 108.906 78.9129 109.137 77.9494ZM112.17 78.3195C111.949 79.0401 111.994 79.8164 112.298 80.5064C112.444 80.7431 112.646 80.941 112.885 81.0834C113.125 81.2258 113.395 81.3086 113.673 81.3247C113.96 81.3737 114.255 81.3594 114.537 81.283C114.818 81.2066 115.079 81.0699 115.303 80.8823C115.861 80.2796 116.209 79.5117 116.293 78.6943C116.501 78.0052 116.445 77.2633 116.135 76.6135C115.985 76.378 115.781 76.1817 115.54 76.0407C115.3 75.8998 115.028 75.8183 114.75 75.8032C114.465 75.7609 114.174 75.7804 113.897 75.8604C113.62 75.9404 113.363 76.0791 113.145 76.267C112.602 76.8281 112.259 77.5527 112.169 78.3285L112.17 78.3195Z" fill="white"/>
<path d="M122.023 74.5387L125.056 74.9088L123.119 84.6225L120.077 84.2513L122.023 74.5387Z" fill="white"/>
<path d="M132.606 81.7123L135.098 82.8319C134.816 83.4872 134.404 84.0788 133.888 84.5716C133.424 85.0152 132.859 85.3393 132.242 85.5161C131.508 85.7104 130.742 85.751 129.992 85.6355C129.107 85.5603 128.248 85.293 127.477 84.8521C126.814 84.4134 126.313 83.7699 126.051 83.0198C125.702 82.0397 125.653 80.978 125.91 79.97C126.107 78.5677 126.837 77.2951 127.947 76.4162C129.092 75.6349 130.497 75.3328 131.861 75.5745C132.876 75.6309 133.845 76.0161 134.622 76.6719C135.272 77.3374 135.668 78.209 135.742 79.1357L132.961 79.401C132.944 79.167 132.888 78.9374 132.796 78.7213C132.683 78.4777 132.506 78.2694 132.284 78.1182C132.048 77.9584 131.777 77.8593 131.494 77.8295C131.174 77.7802 130.847 77.8121 130.542 77.9221C130.237 78.0322 129.965 78.217 129.75 78.4595C129.318 78.9917 129.043 79.634 128.956 80.3141C128.723 81.0588 128.741 81.8592 129.007 82.5926C129.141 82.8145 129.326 83.0006 129.548 83.1346C129.769 83.2686 130.02 83.3465 130.279 83.3616C130.524 83.4077 130.776 83.4029 131.019 83.3474C131.262 83.292 131.491 83.1871 131.692 83.0393C132.098 82.6763 132.412 82.2212 132.606 81.7123Z" fill="white"/>
<path d="M137.877 76.4725L146.002 77.464L145.593 79.5396L140.51 78.9195L140.202 80.4669L144.887 81.0386L144.49 83.015L139.778 82.44L139.389 84.3532L144.625 84.9921L144.182 87.192L135.913 86.1829L137.877 76.4725Z" fill="white"/>
</g>
<circle cx="92.3699" cy="121.206" r="17.8107" transform="rotate(6.95698 92.3699 121.206)" fill="#401579"/>
<path opacity="0.4" d="M96.7528 125.304C96.6266 126.338 96.1634 127.156 95.3633 127.758C94.578 128.349 93.6021 128.627 92.4356 128.592L92.2171 130.382L91.2823 130.268L91.4983 128.498C90.4043 128.31 89.496 127.924 88.7735 127.338C88.0643 126.753 87.609 126.018 87.4076 125.132L88.3856 124.727C88.6866 126.23 89.7654 127.149 91.6221 127.483L92.3429 121.576C91.7456 121.288 91.2718 121.035 90.9216 120.817C90.5846 120.601 90.235 120.323 89.8728 119.983C89.5106 119.643 89.2618 119.256 89.1263 118.822C88.9925 118.375 88.9603 117.866 89.0299 117.296C89.1529 116.289 89.6128 115.497 90.4097 114.921C91.2066 114.346 92.1528 114.091 93.2482 114.157L93.4666 112.367L94.4014 112.481L94.183 114.272C94.9805 114.463 95.6583 114.808 96.2165 115.307C96.7879 115.807 97.1816 116.441 97.3976 117.207L96.4419 117.595C96.1186 116.385 95.3235 115.622 94.0568 115.306L93.3675 120.954C93.8238 121.185 94.203 121.386 94.5051 121.557C94.8071 121.729 95.13 121.95 95.4738 122.221C95.8176 122.491 96.0801 122.766 96.2616 123.043C96.4446 123.308 96.5864 123.635 96.6869 124.024C96.7875 124.413 96.8095 124.84 96.7528 125.304ZM90.084 117.425C89.9967 118.141 90.1541 118.725 90.5564 119.178C90.9603 119.618 91.5995 120.059 92.474 120.502L93.1244 115.172C92.3075 115.139 91.618 115.331 91.0558 115.747C90.4937 116.163 90.1698 116.722 90.084 117.425ZM92.5618 127.558C93.4482 127.572 94.1667 127.363 94.7172 126.933C95.2693 126.489 95.5898 125.902 95.6788 125.173C95.7678 124.443 95.6053 123.845 95.1914 123.377C94.7774 122.909 94.1266 122.453 93.2389 122.009L92.5618 127.558Z" fill="#F8F4FF"/>
<rect x="220.371" y="164.189" width="263.82" height="318.366" rx="17.8107" transform="rotate(-3.04566 220.371 164.189)" fill="#32EFA0"/>
<path d="M233.383 408.74L496.831 394.723L499.788 450.303C500.311 460.125 492.771 468.512 482.949 469.035L255.072 481.159C245.249 481.682 236.863 474.143 236.34 464.32L233.383 408.74Z" fill="#B4FFE0"/>
<path d="M285.515 219.424L287.996 219.292L288.99 237.967L286.509 238.099L285.515 219.424ZM304.586 218.409L307.067 218.277L308.06 236.952L306.06 237.058L295.713 223.617L296.455 237.569L293.974 237.701L292.981 219.027L294.982 218.92L305.327 232.335L304.586 218.409ZM324.105 236.098L319.536 229.171L315.134 229.406L315.514 236.555L313.033 236.687L312.04 218.013L319.51 217.615C321.11 217.53 322.51 218.026 323.709 219.104C324.907 220.164 325.548 221.494 325.633 223.095C325.698 224.304 325.392 225.426 324.716 226.461C324.057 227.495 323.17 228.247 322.053 228.716L326.853 235.952L324.105 236.098ZM314.644 220.202L315.015 227.165L320.004 226.899C320.928 226.85 321.693 226.47 322.297 225.761C322.918 225.032 323.203 224.187 323.152 223.227C323.101 222.267 322.729 221.466 322.035 220.825C321.358 220.183 320.558 219.887 319.633 219.936L314.644 220.202Z" fill="#110325"/>
<path d="M260.654 451.276L255.143 442.74L255.081 441.566L255.668 441.535C256.61 441.485 257.397 441.354 258.028 441.142C258.676 440.929 259.177 440.608 259.528 440.179C259.88 439.75 260.073 439.178 260.106 438.463L254.93 438.738L254.839 437.031L259.988 436.757C259.829 436.106 259.551 435.585 259.156 435.196C258.76 434.789 258.237 434.505 257.586 434.343C256.953 434.181 256.183 434.124 255.276 434.172L254.689 434.203L254.598 432.496L265.643 431.908L265.734 433.615L260.692 433.884C261.119 434.2 261.478 434.582 261.769 435.03C262.061 435.479 262.258 436.012 262.363 436.631L265.884 436.443L265.975 438.151L262.507 438.335C262.452 439.64 262.007 440.68 261.175 441.456C260.359 442.213 259.245 442.727 257.832 442.998L263.375 451.131L260.654 451.276ZM280.518 440.48C282.403 441.397 283.4 442.86 283.507 444.87C283.598 446.577 283.074 447.96 281.935 449.02C280.795 450.061 279.239 450.635 277.264 450.74C275.29 450.845 273.672 450.44 272.411 449.526C271.166 448.594 270.499 447.274 270.408 445.566C270.357 444.606 270.55 443.722 270.989 442.914C271.427 442.088 272.068 441.412 272.914 440.885C271.46 440.035 270.687 438.756 270.597 437.049C270.506 435.341 271.005 433.995 272.094 433.009C273.182 432.006 274.562 431.46 276.234 431.371C277.888 431.283 279.309 431.68 280.498 432.562C281.703 433.426 282.351 434.711 282.442 436.418C282.533 438.126 281.891 439.48 280.518 440.48ZM276.389 434.279C275.553 434.324 274.88 434.582 274.37 435.055C273.86 435.528 273.627 436.183 273.672 437.019C273.714 437.819 274.015 438.436 274.573 438.87C275.149 439.304 275.846 439.498 276.664 439.455C277.464 439.412 278.128 439.145 278.655 438.653C279.181 438.162 279.423 437.515 279.381 436.715C279.336 435.879 279.027 435.254 278.452 434.838C277.894 434.422 277.207 434.236 276.389 434.279ZM277.11 447.832C278.141 447.777 278.964 447.483 279.578 446.951C280.19 446.401 280.472 445.664 280.423 444.739C280.374 443.814 280.016 443.12 279.349 442.656C278.681 442.174 277.832 441.961 276.8 442.016C275.751 442.072 274.92 442.375 274.307 442.924C273.693 443.456 273.411 444.185 273.46 445.11C273.509 446.035 273.868 446.738 274.535 447.22C275.202 447.684 276.06 447.888 277.11 447.832ZM293.223 438.467C294.592 438.715 295.719 439.288 296.605 440.186C297.508 441.066 297.997 442.208 298.072 443.613C298.171 445.48 297.618 446.981 296.412 448.116C295.206 449.25 293.687 449.866 291.855 449.963C290.432 450.039 289.134 449.778 287.961 449.181C286.805 448.582 285.945 447.665 285.38 446.429L287.914 444.769C288.55 446.34 289.811 447.076 291.696 446.975C292.763 446.919 293.594 446.607 294.188 446.04C294.781 445.456 295.053 444.701 295.004 443.776C294.955 442.851 294.605 442.139 293.954 441.638C293.303 441.138 292.444 440.916 291.377 440.973L290.683 441.01L289.358 439.234L293.104 433.711L285.287 434.127L285.134 431.246L296.606 430.635L296.745 433.25L293.223 438.467ZM305.277 445.691L303.779 452.727L301.377 452.854L302.076 445.861L305.277 445.691ZM308.63 448.723L308.503 446.322L314.659 439.333C316.157 437.666 316.876 436.254 316.814 435.098C316.766 434.191 316.453 433.503 315.875 433.034C315.314 432.547 314.616 432.325 313.78 432.37C312.215 432.453 311.1 433.288 310.435 434.876L307.767 433.493C308.287 432.216 309.064 431.23 310.097 430.533C311.13 429.836 312.296 429.453 313.594 429.383C315.231 429.296 316.663 429.737 317.892 430.706C319.12 431.676 319.782 433.049 319.877 434.828C319.978 436.731 319.028 438.815 317.026 441.08L313.035 445.519L320.772 445.107L320.929 448.069L308.63 448.723ZM323.729 447.92L323.602 445.519L329.758 438.529C331.256 436.862 331.975 435.451 331.913 434.295C331.865 433.387 331.552 432.7 330.974 432.231C330.413 431.744 329.715 431.522 328.879 431.567C327.314 431.65 326.199 432.485 325.534 434.072L322.865 432.689C323.386 431.413 324.163 430.426 325.196 429.729C326.229 429.032 327.395 428.649 328.693 428.58C330.329 428.493 331.762 428.934 332.991 429.903C334.219 430.872 334.881 432.246 334.976 434.025C335.077 435.928 334.127 438.012 332.125 440.276L328.134 444.716L335.87 444.304L336.028 447.265L323.729 447.92ZM346.064 435.655C347.432 435.903 348.56 436.477 349.446 437.375C350.349 438.254 350.838 439.396 350.912 440.801C351.012 442.669 350.458 444.17 349.252 445.304C348.046 446.439 346.527 447.054 344.695 447.152C343.273 447.228 341.975 446.967 340.801 446.369C339.646 445.771 338.785 444.853 338.22 443.617L340.754 441.957C341.39 443.529 342.651 444.264 344.537 444.164C345.604 444.107 346.434 443.795 347.028 443.229C347.622 442.644 347.893 441.89 347.844 440.965C347.795 440.04 347.445 439.327 346.794 438.827C346.143 438.326 345.284 438.105 344.217 438.161L343.523 438.198L342.198 436.423L345.944 430.899L338.128 431.315L337.974 428.434L349.446 427.824L349.585 430.438L346.064 435.655Z" fill="#110325"/>
<path d="M250.472 375.814L251.712 375.748L252.209 385.085L250.968 385.151L250.472 375.814ZM258.028 377.913C258.81 377.871 259.45 378.087 259.948 378.56C260.445 379.024 260.717 379.678 260.762 380.523L260.979 384.618L259.819 384.68L259.605 380.652C259.576 380.109 259.407 379.699 259.098 379.421C258.788 379.135 258.376 379.005 257.86 379.032C257.282 379.063 256.825 379.27 256.488 379.654C256.151 380.028 256.003 380.589 256.043 381.336L256.231 384.871L255.07 384.933L254.715 378.263L255.876 378.202L255.927 379.162C256.358 378.381 257.058 377.965 258.028 377.913ZM268.603 374.849L269.764 374.787L270.261 384.125L269.1 384.186L269.039 383.039C268.508 383.95 267.691 384.435 266.588 384.494C265.655 384.544 264.841 384.248 264.147 383.607C263.452 382.957 263.079 382.143 263.027 381.165C262.975 380.187 263.26 379.343 263.882 378.632C264.504 377.912 265.281 377.527 266.215 377.477C267.318 377.419 268.181 377.814 268.806 378.664L268.603 374.849ZM266.675 383.366C267.351 383.33 267.904 383.073 268.333 382.595C268.762 382.109 268.959 381.527 268.923 380.852C268.887 380.176 268.63 379.623 268.152 379.194C267.674 378.755 267.097 378.554 266.421 378.59C265.754 378.626 265.206 378.887 264.777 379.373C264.348 379.851 264.151 380.428 264.187 381.104C264.223 381.779 264.48 382.336 264.958 382.775C265.436 383.204 266.008 383.401 266.675 383.366ZM273.165 376.064C272.942 376.076 272.752 376.011 272.592 375.867C272.433 375.724 272.348 375.546 272.336 375.333C272.325 375.119 272.391 374.933 272.534 374.774C272.677 374.605 272.859 374.515 273.082 374.504C273.295 374.492 273.482 374.563 273.641 374.715C273.8 374.858 273.886 375.036 273.897 375.249C273.908 375.463 273.843 375.649 273.699 375.808C273.556 375.968 273.378 376.053 273.165 376.064ZM272.997 383.979L272.642 377.309L273.803 377.248L274.158 383.917L272.997 383.979ZM282.074 376.808L283.234 376.746L283.589 383.415L282.429 383.477L282.368 382.33C281.836 383.241 281.02 383.726 279.917 383.785C278.983 383.834 278.169 383.539 277.475 382.898C276.781 382.248 276.407 381.434 276.355 380.456C276.303 379.478 276.588 378.633 277.21 377.922C277.832 377.203 278.61 376.818 279.544 376.768C280.646 376.71 281.51 377.105 282.135 377.955L282.074 376.808ZM280.004 382.656C280.68 382.62 281.232 382.364 281.662 381.886C282.091 381.399 282.287 380.818 282.251 380.142C282.215 379.467 281.958 378.914 281.481 378.485C281.003 378.046 280.426 377.845 279.75 377.881C279.083 377.916 278.535 378.178 278.106 378.664C277.677 379.142 277.48 379.718 277.516 380.394C277.552 381.07 277.809 381.627 278.287 382.066C278.765 382.495 279.337 382.692 280.004 382.656ZM289.283 376.25C290.066 376.208 290.706 376.424 291.204 376.897C291.701 377.361 291.972 378.015 292.017 378.86L292.235 382.955L291.074 383.017L290.86 378.989C290.831 378.446 290.662 378.036 290.353 377.758C290.044 377.472 289.631 377.342 289.115 377.369C288.537 377.4 288.08 377.607 287.744 377.991C287.407 378.365 287.258 378.926 287.298 379.673L287.486 383.208L286.326 383.27L285.971 376.6L287.131 376.539L287.182 377.499C287.613 376.718 288.314 376.302 289.283 376.25ZM304.802 382.287L302.518 378.823L300.317 378.94L300.507 382.515L299.266 382.581L298.769 373.244L302.504 373.045C303.305 373.003 304.005 373.251 304.604 373.79C305.203 374.32 305.524 374.985 305.566 375.785C305.598 376.39 305.446 376.951 305.107 377.468C304.778 377.985 304.334 378.361 303.776 378.596L306.176 382.214L304.802 382.287ZM300.072 374.338L300.257 377.82L302.751 377.687C303.214 377.663 303.596 377.473 303.898 377.118C304.209 376.754 304.351 376.331 304.326 375.851C304.3 375.371 304.114 374.971 303.767 374.65C303.429 374.329 303.029 374.181 302.566 374.206L300.072 374.338ZM312.383 375.195L313.543 375.133L313.898 381.803L312.738 381.865L312.687 380.904C312.255 381.685 311.555 382.101 310.586 382.153C309.803 382.195 309.163 381.983 308.666 381.519C308.168 381.046 307.897 380.388 307.852 379.543L307.634 375.448L308.795 375.386L309.009 379.414C309.038 379.957 309.207 380.371 309.517 380.658C309.826 380.936 310.238 381.061 310.754 381.034C311.332 381.003 311.789 380.8 312.126 380.426C312.462 380.042 312.611 379.477 312.571 378.73L312.383 375.195ZM319.961 374.618C320.894 374.568 321.709 374.868 322.403 375.518C323.097 376.159 323.47 376.968 323.522 377.946C323.574 378.925 323.289 379.774 322.668 380.493C322.046 381.204 321.268 381.585 320.334 381.634C319.231 381.693 318.368 381.297 317.743 380.448L317.946 384.263L316.785 384.325L316.288 374.987L317.449 374.925L317.51 376.073C318.041 375.161 318.858 374.677 319.961 374.618ZM320.128 380.522C320.795 380.486 321.343 380.229 321.772 379.752C322.201 379.265 322.398 378.684 322.362 378.008C322.326 377.332 322.069 376.78 321.591 376.35C321.113 375.912 320.541 375.711 319.874 375.746C319.198 375.782 318.645 376.043 318.216 376.53C317.787 377.008 317.59 377.584 317.626 378.26C317.662 378.936 317.919 379.493 318.397 379.931C318.875 380.361 319.452 380.558 320.128 380.522ZM326.727 378.311C326.874 378.901 327.17 379.349 327.615 379.655C328.068 379.961 328.61 380.097 329.242 380.063C330.122 380.017 330.745 379.658 331.111 378.987L332.128 379.495C331.532 380.535 330.58 381.089 329.273 381.159C328.215 381.215 327.335 380.932 326.633 380.309C325.939 379.677 325.566 378.854 325.512 377.841C325.458 376.836 325.738 375.983 326.352 375.281C326.966 374.58 327.788 374.201 328.82 374.146C329.798 374.094 330.612 374.399 331.263 375.06C331.922 375.712 332.277 376.522 332.329 377.491C332.338 377.66 332.333 377.834 332.316 378.014L326.727 378.311ZM328.878 375.24C328.256 375.273 327.749 375.479 327.359 375.856C326.968 376.225 326.74 376.705 326.673 377.297L331.129 377.06C330.997 376.434 330.723 375.967 330.305 375.659C329.887 375.352 329.412 375.212 328.878 375.24ZM335.469 377.846C335.616 378.436 335.912 378.884 336.357 379.19C336.81 379.496 337.352 379.632 337.984 379.598C338.864 379.551 339.487 379.193 339.853 378.522L340.87 379.03C340.274 380.069 339.322 380.624 338.015 380.693C336.957 380.75 336.077 380.467 335.375 379.844C334.681 379.212 334.308 378.389 334.254 377.375C334.2 376.371 334.48 375.517 335.094 374.816C335.708 374.114 336.53 373.736 337.562 373.681C338.54 373.629 339.354 373.934 340.005 374.595C340.664 375.246 341.019 376.057 341.071 377.026C341.08 377.195 341.075 377.369 341.058 377.549L335.469 377.846ZM337.62 374.775C336.998 374.808 336.491 375.014 336.101 375.391C335.71 375.76 335.482 376.24 335.415 376.832L339.871 376.595C339.739 375.969 339.465 375.502 339.047 375.194C338.629 374.886 338.154 374.747 337.62 374.775ZM344.04 375.316C344.054 375.574 344.194 375.776 344.461 375.923C344.727 376.06 345.044 376.168 345.414 376.247C345.784 376.316 346.154 376.403 346.525 376.509C346.896 376.605 347.218 376.793 347.491 377.072C347.764 377.343 347.913 377.705 347.937 378.159C347.969 378.764 347.759 379.261 347.308 379.651C346.865 380.04 346.278 380.254 345.549 380.293C344.9 380.327 344.337 380.214 343.859 379.954C343.382 379.695 343.032 379.334 342.812 378.873L343.782 378.246C343.905 378.561 344.119 378.804 344.422 378.975C344.726 379.146 345.082 379.221 345.491 379.199C345.873 379.178 346.185 379.091 346.427 378.935C346.668 378.771 346.78 378.533 346.763 378.221C346.75 377.964 346.61 377.766 346.344 377.628C346.077 377.482 345.76 377.374 345.39 377.305C345.02 377.226 344.65 377.134 344.279 377.029C343.907 376.924 343.585 376.736 343.312 376.465C343.039 376.195 342.891 375.837 342.867 375.392C342.837 374.814 343.034 374.327 343.458 373.929C343.892 373.532 344.447 373.315 345.123 373.279C345.665 373.25 346.152 373.349 346.583 373.576C347.023 373.793 347.361 374.114 347.597 374.539L346.653 375.137C346.382 374.581 345.891 374.322 345.18 374.36C344.851 374.377 344.575 374.472 344.352 374.644C344.129 374.808 344.025 375.032 344.04 375.316Z" fill="#110325"/>
<g opacity="0.3">
<path d="M239.858 181.167L242.919 181.005L242.69 190.907L239.638 191.07L239.858 181.167Z" fill="black"/>
<path d="M245.125 180.888L247.967 180.736L251.554 186.01L251.682 180.539L254.552 180.386L254.323 190.289L251.453 190.442L247.884 185.167L247.757 190.638L244.896 190.791L245.125 180.888Z" fill="black"/>
<path d="M255.609 180.328L258.797 180.159L260.855 187.171L263.202 179.924L266.29 179.76L262.437 189.856L259.14 190.031L255.609 180.328Z" fill="black"/>
<path d="M266.327 184.714C266.294 183.295 266.808 181.918 267.762 180.867C268.774 179.881 270.128 179.326 271.541 179.318C272.212 179.23 272.895 179.285 273.543 179.478C274.192 179.671 274.793 179.998 275.308 180.438C275.762 180.923 276.108 181.5 276.322 182.129C276.536 182.759 276.614 183.426 276.549 184.088C276.563 185.085 276.341 186.07 275.901 186.964C275.503 187.718 274.907 188.348 274.176 188.786C273.335 189.265 272.388 189.528 271.421 189.552C270.485 189.638 269.543 189.504 268.668 189.161C267.934 188.831 267.326 188.272 266.935 187.569C266.477 186.69 266.267 185.703 266.327 184.714ZM269.379 184.552C269.286 185.3 269.465 186.056 269.884 186.683C270.07 186.891 270.303 187.051 270.563 187.149C270.823 187.248 271.104 187.283 271.38 187.25C271.672 187.248 271.96 187.183 272.224 187.059C272.488 186.935 272.721 186.755 272.909 186.531C273.354 185.841 273.563 185.024 273.504 184.205C273.589 183.49 273.405 182.769 272.987 182.183C272.798 181.977 272.564 181.819 272.302 181.722C272.04 181.625 271.759 181.592 271.482 181.625C271.194 181.633 270.911 181.703 270.652 181.83C270.393 181.957 270.164 182.138 269.982 182.361C269.544 183.008 269.333 183.781 269.379 184.561L269.379 184.552Z" fill="black"/>
<path d="M278.422 179.116L281.473 178.954L281.253 188.856L278.193 189.019L278.422 179.116Z" fill="black"/>
<path d="M290.097 184.341L292.746 185.01C292.581 185.705 292.279 186.359 291.856 186.934C291.476 187.451 290.976 187.868 290.4 188.15C289.711 188.468 288.963 188.642 288.204 188.658C287.319 188.738 286.427 188.624 285.591 188.324C284.862 188.007 284.257 187.46 283.869 186.767C283.355 185.862 283.122 184.825 283.2 183.788C283.151 182.372 283.648 180.993 284.589 179.934C285.58 178.966 286.912 178.424 288.297 178.425C289.307 178.305 290.328 178.516 291.207 179.027C291.962 179.569 292.504 180.359 292.738 181.258L290.045 182.003C289.987 181.775 289.893 181.559 289.765 181.362C289.611 181.142 289.4 180.967 289.155 180.857C288.896 180.741 288.612 180.69 288.328 180.71C288.004 180.717 287.687 180.805 287.406 180.967C287.125 181.128 286.889 181.357 286.72 181.633C286.386 182.232 286.227 182.913 286.259 183.598C286.16 184.371 286.317 185.156 286.706 185.832C286.876 186.028 287.091 186.179 287.332 186.272C287.574 186.366 287.835 186.399 288.092 186.369C288.341 186.372 288.588 186.323 288.818 186.226C289.048 186.13 289.256 185.987 289.428 185.806C289.765 185.378 289.994 184.876 290.097 184.341Z" fill="black"/>
<path d="M294.37 178.266L302.543 177.831L302.501 179.946L297.388 180.218L297.353 181.795L302.067 181.545L302.019 183.56L297.279 183.812L297.228 185.764L302.495 185.484L302.441 187.727L294.122 188.169L294.37 178.266Z" fill="black"/>
</g>
<circle cx="257.329" cy="230.222" r="17.8107" transform="rotate(-3.04566 257.329 230.222)" fill="#B4FFE0"/>
<path fill-rule="evenodd" clip-rule="evenodd" d="M258.746 239.844C258.963 240.056 259.174 240.156 259.482 240.14C259.789 240.123 259.988 240.001 260.182 239.768C260.568 239.301 260.533 238.635 260.099 238.212L255.434 233.667L256.05 233.634C257.383 233.563 258.687 232.936 259.551 231.775C260.272 230.993 260.698 229.981 260.839 228.921L264.02 228.752C264.635 228.719 265.022 228.253 264.986 227.586C264.951 226.919 264.517 226.496 263.901 226.529L260.71 226.699C260.505 225.913 260.139 225.189 259.679 224.523L263.782 224.304C264.397 224.272 264.784 223.805 264.748 223.138C264.713 222.471 264.279 222.049 263.663 222.081L252.381 222.682C251.766 222.714 251.379 223.181 251.415 223.848C251.45 224.515 251.884 224.937 252.5 224.905L255.577 224.741C256.397 224.697 257.235 224.987 257.784 225.627C258.154 225.927 258.429 226.343 258.604 226.811L252.619 227.129C252.004 227.162 251.617 227.628 251.653 228.295C251.688 228.962 252.122 229.385 252.738 229.352L258.722 229.034C258.597 229.517 258.368 229.958 258.032 230.296C257.555 230.99 256.752 231.367 255.931 231.411L252.855 231.574C252.444 231.596 252.046 231.84 251.967 232.29C251.785 232.746 251.912 233.185 252.237 233.502L258.746 239.844Z" fill="#110325"/>
<path d="M228.086 18.9238L72.5608 3.77239C50.6713 1.63988 30.7994 16.6373 26.8475 38.2725L1 179.776" stroke="url(#paint3_linear_1_15526)" stroke-width="1.8"/>
<path d="M327.156 27.8281H353.872C367.398 27.8281 378.362 38.7925 378.362 52.3178V100.065C378.362 114.269 390.406 125.494 404.575 124.494L486.286 118.73C500.454 117.731 512.498 128.956 512.498 143.159V179.219" stroke="url(#paint4_linear_1_15526)" stroke-width="1.8"/>
<path d="M136.25 431.908H162.966C176.491 431.908 187.456 442.873 187.456 456.398V504.145C187.456 518.349 199.5 529.574 213.669 528.574L295.379 522.811C309.548 521.811 321.592 533.036 321.592 547.24V583.299" stroke="url(#paint5_linear_1_15526)" stroke-width="1.8"/>
<circle cx="467" cy="161.648" r="32" fill="#5B2EBC"/>
<path d="M461.453 159.302L468.374 149.683C469.325 149.875 470.161 150.431 470.7 151.229C471.239 152.026 471.435 153 471.246 153.936L470.295 158.641L477.059 160.008C477.407 160.075 477.735 160.214 478.023 160.418C478.311 160.621 478.551 160.884 478.727 161.187C478.902 161.491 479.008 161.827 479.039 162.174C479.069 162.521 479.023 162.87 478.903 163.197L475.113 173.449C474.913 173.993 474.52 174.445 474.007 174.724C473.493 175.003 472.894 175.088 472.319 174.966L458.837 172.24M461.453 159.302L458.837 172.24M461.453 159.302L457.867 158.577C457.233 158.449 456.575 158.574 456.038 158.924C455.5 159.275 455.128 159.822 455.001 160.446L453.337 168.679C453.211 169.303 453.342 169.952 453.701 170.484C454.06 171.016 454.618 171.387 455.252 171.515L458.837 172.24" stroke="#32EFA0" stroke-width="2" stroke-linecap="round" stroke-linejoin="round"/>
<defs>
<linearGradient id="paint0_linear_1_15526" x1="72.9337" y1="73.5355" x2="231.653" y2="165.75" gradientUnits="userSpaceOnUse">
<stop stop-color="#2F0E5B"/>
<stop offset="1" stop-color="#2F0E5B" stop-opacity="0"/>
</linearGradient>
<linearGradient id="paint1_linear_1_15526" x1="22.7024" y1="302.225" x2="222.516" y2="406.862" gradientUnits="userSpaceOnUse">
<stop offset="0.104952" stop-color="#401579"/>
<stop offset="0.546333" stop-color="#260651"/>
<stop offset="1" stop-color="#401579" stop-opacity="0"/>
</linearGradient>
<linearGradient id="paint2_linear_1_15526" x1="54" y1="313.649" x2="178" y2="364.649" gradientUnits="userSpaceOnUse">
<stop stop-color="#F8F4FF"/>
<stop offset="1" stop-color="#F8F4FF" stop-opacity="0"/>
</linearGradient>
<linearGradient id="paint3_linear_1_15526" x1="23.2633" y1="27.2726" x2="59.4412" y2="127.458" gradientUnits="userSpaceOnUse">
<stop stop-color="#411B76"/>
<stop offset="1" stop-color="#2F0E5B" stop-opacity="0"/>
</linearGradient>
<linearGradient id="paint4_linear_1_15526" x1="420.106" y1="61.2231" x2="516.042" y2="238.526" gradientUnits="userSpaceOnUse">
<stop stop-color="#4A2184"/>
<stop offset="1" stop-color="#2F0E5B" stop-opacity="0"/>
</linearGradient>
<linearGradient id="paint5_linear_1_15526" x1="229.199" y1="465.303" x2="325.136" y2="642.606" gradientUnits="userSpaceOnUse">
<stop stop-color="#4A2184"/>
<stop offset="1" stop-color="#2F0E5B" stop-opacity="0"/>
</linearGradient>
</defs>
</svg>
