<svg width="149" height="78" viewBox="0 0 149 78" fill="none" xmlns="http://www.w3.org/2000/svg">
<mask id="mask0_0_303" style="mask-type:luminance" maskUnits="userSpaceOnUse" x="0" y="0" width="73" height="78">
<path d="M0.40625 77.0314H72.2581V0.404297H0.40625V77.0314Z" fill="white"/>
</mask>
<g mask="url(#mask0_0_303)">
<path d="M38.8757 34.7605L39.8287 46.9251L22.9553 49.9522L21.4978 37.7876L23.9083 37.4513C24.3007 37.6195 24.581 37.6755 25.0294 37.7876C25.7582 37.9558 26.5991 38.18 27.8323 37.5074C28.1126 37.3392 28.7293 36.8347 28.9535 36.4983L38.8757 34.7605ZM12.8088 49.2234C12.5285 48.775 12.024 48.2705 11.2392 47.6538C10.1181 46.7569 10.5105 45.1873 11.1832 44.2343C12.024 42.6086 16.4526 40.4784 16.2284 37.8437C16.1162 36.8907 16.0041 35.6574 15.1072 34.7605C15.0746 34.9836 15.0746 35.2102 15.1072 35.4332C15.1072 35.4332 14.7148 34.9848 14.5466 34.3121C14.3785 34.0878 14.2103 33.9757 14.0421 33.6394C13.93 34.0318 13.93 34.4242 13.93 34.4242C13.93 34.4242 13.6497 33.6954 13.5936 33.1348C13.4255 33.4151 13.3694 33.9197 13.3694 33.9197C13.3694 33.9197 12.977 32.7985 13.0891 32.1819C12.9209 31.6773 12.3604 30.6122 12.5285 28.2578C13.4815 28.9305 15.6117 28.7623 16.4526 27.5291C16.7329 27.1367 16.9011 26.0155 16.3405 23.8292C15.9481 22.4278 14.9951 20.3537 14.6027 19.5688L14.5466 19.6249C14.7709 20.2415 15.1633 21.5869 15.3314 22.2596C15.7799 24.2216 15.9481 24.8943 15.7238 25.7913C15.5557 26.5761 15.1072 27.0806 13.93 27.6412C12.8088 28.2018 11.2392 26.8003 11.1832 26.7443C10.062 25.8473 9.22113 24.3898 9.10901 23.7171C8.9969 22.9323 9.55748 22.4839 9.83777 21.8672C9.44536 21.9793 8.9969 22.2036 8.9969 22.2036C8.9969 22.2036 9.50142 21.643 10.1741 21.1945C10.4544 21.0264 10.6226 20.9142 10.9029 20.69H10.1741C10.1741 20.69 10.8468 20.2976 11.5756 20.0734H10.5665L13.2573 18.8962C14.0982 18.5598 14.883 18.6719 15.3314 19.2886C15.9481 20.1294 16.5647 20.5779 17.854 20.9142C18.6389 20.5779 18.9191 20.3537 19.9282 20.0734C20.8251 19.0643 21.5539 18.9522 21.5539 18.9522C21.5539 18.9522 21.0493 19.4007 20.9933 19.9052C21.4978 19.5128 22.0584 19.1764 22.0584 19.1764C22.0584 19.1764 21.8342 19.4567 21.666 19.8491L21.722 19.9052C22.3387 19.5688 23.0114 19.2886 23.0114 19.2886C23.0114 19.2886 22.7871 19.5128 22.5629 19.8491C23.0114 19.8491 23.9083 19.8491 24.2446 19.9052C26.3188 19.9613 26.7672 17.7189 27.5521 17.3826C28.5611 17.0462 29.0096 16.822 30.6913 18.5037C32.1488 19.9613 33.27 22.4839 32.7094 23.0444C32.2609 23.4929 31.3079 22.8763 30.2428 21.5869C29.6823 20.9142 29.2898 20.0734 29.0656 19.0643C28.9535 18.2235 28.3369 17.7189 28.3369 17.7189C28.3369 17.7189 28.7293 18.5598 28.7293 19.2886C28.7293 19.681 28.7853 21.1385 29.402 21.9793C29.3459 22.0915 29.2898 22.596 29.2338 22.652C28.505 21.7551 26.8794 21.1385 26.6551 20.9142C27.5521 21.643 29.5701 23.2687 30.3549 24.8383C31.0837 26.3518 30.6352 27.6972 31.0276 28.0336C31.1398 28.1457 32.5973 29.9395 32.8775 30.8925C33.3821 32.5182 32.9336 34.1999 32.2609 35.209L30.4671 35.4893C30.1868 35.4332 30.0186 35.3772 29.7944 35.265C29.9065 35.0408 30.1868 34.4802 30.1868 34.3681L30.0747 34.1999C29.5141 34.9848 28.5611 35.7696 27.7763 36.218C26.7672 36.7786 25.59 36.7225 24.8052 36.4423C22.619 35.7696 20.5448 34.3121 20.0964 33.9197C20.0964 33.9197 20.0964 34.1999 20.1524 34.3121C20.713 34.9287 21.9463 36.0499 23.1795 36.8347L20.6009 37.1149L21.8342 46.6448C21.2736 46.7008 21.2175 46.7569 20.6009 46.869C20.0964 45.0191 19.0873 43.8419 17.9662 43.1131C17.0132 42.4965 15.6678 42.3283 14.3785 42.6086L14.3224 42.7207C15.2193 42.6086 16.2844 42.7768 17.3495 43.4495C18.4146 44.1222 19.2555 45.86 19.5918 46.869C19.9842 48.2144 20.2645 49.6158 19.1994 51.1294C18.4146 52.1945 16.1723 52.8111 14.3785 51.5218C14.883 52.3066 15.4996 52.9233 16.3965 53.0354C17.6859 53.2035 18.9191 52.9793 19.8161 52.1385C20.5448 51.4097 20.9372 49.8401 20.8251 48.1583L22.0023 47.9902L22.3947 50.9612L41.5105 48.6629L39.8287 33.4151L38.8757 33.5833L36.9698 14.3555L5.12891 18.0553L9.05296 49.784L12.8088 49.2234Z" fill="#4E5D78"/>
</g>
<path d="M23.4722 27.3193C24.1762 27.8355 24.7863 28.1563 25.3973 28.1173C25.773 28.0708 26.1488 27.4598 26.3831 26.8971C26.571 26.5214 26.571 26.0992 26.2901 25.9671C26.1506 25.9206 25.5861 25.9206 25.1741 25.9671C24.3762 26.0601 23.5782 26.3428 23.3904 26.4833C23.1086 26.6711 23.2509 27.1408 23.4834 27.3203M23.6694 21.8184V21.8649L23.7159 21.9579C23.9037 22.3336 24.0916 22.7093 24.4673 22.8879C24.5603 22.8879 24.6552 22.8414 24.7491 22.8414C24.972 22.8347 25.1945 22.8665 25.4066 22.9353V22.6535C25.3601 22.1839 25.4996 21.3394 24.5696 20.8698C24.1939 20.6819 23.7326 20.7768 23.5466 20.9628H23.6396C23.874 21.0558 23.7326 21.1506 23.6861 21.2446C23.6396 21.4324 23.5931 21.4789 23.6861 21.8082" fill="#4E5D78"/>
<path d="M19.4403 21.9233C19.6747 21.7354 18.3615 21.4536 17.3273 22.1111C16.5759 22.6273 16.5759 23.707 17.2808 24.3171C17.3738 24.3636 17.4203 24.4101 17.4687 24.4566C17.6566 24.3636 17.9384 24.2687 18.1727 24.1748C18.6424 24.0353 19.0097 23.9404 19.3464 23.893C19.4859 23.7051 19.6747 23.4234 19.6282 22.9072C19.5817 22.2032 19.0181 22.3436 19.4403 21.9214M29.7689 35.1153L27.0933 33.3316L24.8399 37.0869L22.2108 36.289L19.9109 39.81L20.0039 40.926L32.5849 38.6261L31.8335 30.7862L29.7689 35.1153Z" fill="#4E5D78"/>
<path d="M126.693 36.7677C123.659 36.7677 122.025 35.0172 122.025 31.6329C122.025 28.2486 123.542 26.4981 126.693 26.4981C129.727 26.4981 131.244 28.2486 131.244 31.6329C131.244 35.0172 129.727 36.7677 126.693 36.7677ZM126.693 24.1641C121.791 24.1641 119.224 26.6148 119.224 31.6329C119.457 36.651 122.025 39.1017 126.693 39.1017C131.594 39.1017 134.045 36.651 134.045 31.6329C134.162 26.6148 131.711 24.1641 126.693 24.1641Z" fill="#4E5D78"/>
<path d="M144.184 26.4981C145.701 26.4981 147.101 26.7315 148.385 27.315V24.8643C147.101 24.3975 145.701 24.1641 144.067 24.1641C138.699 24.1641 136.015 26.6148 136.015 31.5162C136.015 36.651 138.699 39.2184 143.95 39.2184C145.818 39.2184 147.218 38.985 148.502 38.4015V30.5826H143.95L143.017 33.0333H145.701V36.5343C145.118 36.651 144.534 36.7677 143.95 36.7677C140.566 36.7677 138.816 35.0172 138.816 31.3995C138.816 28.1319 140.683 26.4981 144.184 26.4981Z" fill="#4E5D78"/>
<path d="M110.026 36.5973H106.758V26.5611H110.026C113.06 26.5611 114.694 28.0782 114.694 31.2291C114.577 34.8468 113.06 36.5973 110.026 36.5973ZM110.376 24.2271H103.957V39.0481H110.376C115.044 39.0481 117.378 36.4806 117.378 31.2291C117.378 26.5611 115.044 24.2271 110.376 24.2271Z" fill="#4E5D78"/>
<path d="M54.8262 36.6149H51.5586V26.5786H54.8262C57.9772 26.5786 59.4943 28.0957 59.4943 31.2466C59.4943 34.8643 57.8605 36.6149 54.8262 36.6149ZM55.1763 24.2446H48.7578V39.0656H55.1763C59.8444 39.0656 62.1784 36.4982 62.1784 31.2466C62.1784 26.5786 59.8444 24.2446 55.1763 24.2446Z" fill="#4E5D78"/>
<path d="M97.3053 34.9635L99.1725 39.0481H102.09L95.6715 24.2271H92.6372L86.3354 39.0481H89.1362L94.1544 27.0279L96.4884 32.6295H93.4541L92.5205 34.9635H97.3053ZM73.1482 34.9635L75.0155 39.0481H78.0497L71.5144 24.2271H68.5969L62.2951 39.0481H65.0959L69.9973 27.0279L72.448 32.6295H69.2971L68.3635 34.9635H73.1482ZM76.4159 26.5611H80.7338V39.0481H83.5346V26.5611H87.7358V24.2271H76.4159V26.5611Z" fill="#4E5D78"/>
</svg>
