<svg width="120" height="42" viewBox="0 0 120 42" fill="none" xmlns="http://www.w3.org/2000/svg">
<path d="M41.2162 21.7403C41.2162 18.3031 39.09 15.2824 35.871 14.13C36.0099 13.395 36.0697 12.6797 36.0697 11.9247C36.0697 5.52619 30.8639 0.320312 24.4855 0.320312C20.7299 0.320312 17.2725 2.10859 15.0869 5.12879C14.0139 4.29426 12.7021 3.83746 11.3313 3.83746C7.93334 3.83746 5.17165 6.59916 5.17165 9.99709C5.17165 10.7521 5.31054 11.4675 5.54897 12.143C2.34974 13.2955 0.164062 16.3558 0.164062 19.7734C0.164062 23.2308 2.31 26.251 5.52931 27.4034C5.39001 28.1187 5.33061 28.8541 5.33061 29.6092C5.33061 35.9876 10.5164 41.1738 16.8948 41.1738C20.6504 41.1738 24.1077 39.3654 26.2737 36.3452C27.3467 37.1994 28.6581 37.6566 30.0293 37.6566C33.4269 37.6566 36.189 34.8945 36.189 31.4966C36.189 30.7415 36.0497 30.0262 35.8112 29.3507C39.0305 28.2183 41.2162 25.1583 41.2162 21.7403Z" fill="#4E5D78"/>
<path d="M16.3189 17.9249L25.3 22.0181L34.361 14.0702C34.4999 13.4143 34.5597 12.7784 34.5597 12.0832C34.5597 6.4996 30.0093 1.94922 24.4257 1.94922C21.0876 1.94922 17.9678 3.59861 16.0804 6.36031L14.5703 14.1693L16.3189 17.9249Z" fill="#D4D9E2"/>
<path d="M7.02292 27.425C6.88403 28.0805 6.82422 28.7561 6.82422 29.4517C6.82422 35.055 11.3943 39.6054 16.9779 39.6054C20.3361 39.6054 23.4755 37.9363 25.3633 35.1742L26.8533 27.3853L24.8664 23.5699L15.8455 19.457L7.02292 27.425Z" fill="#D4D9E2"/>
<path d="M6.97985 11.885L13.1399 13.3353L14.491 6.34114C13.6565 5.70531 12.6229 5.34766 11.5499 5.34766C8.88735 5.34766 6.70167 7.51367 6.70167 10.1959C6.68201 10.792 6.78115 11.3684 6.97985 11.885Z" fill="#D4D9E2"/>
<path d="M6.44304 13.3555C3.7006 14.2494 1.77344 16.8923 1.77344 19.7933C1.77344 22.6148 3.52198 25.1384 6.14479 26.1319L14.7687 18.343L13.1988 14.9647L6.44304 13.3555Z" fill="#D4D9E2"/>
<path d="M26.9492 35.154C27.8034 35.7899 28.817 36.1672 29.8703 36.1672C32.5328 36.1672 34.7185 34.0016 34.7185 31.319C34.7185 30.7229 34.6189 30.1665 34.4202 29.6298L28.2803 28.1992L26.9492 35.154Z" fill="#D4D9E2"/>
<path d="M28.1984 26.5704L34.9546 28.1403C37.7163 27.2459 39.6242 24.6035 39.6242 21.6824C39.6242 18.8806 37.8756 16.3372 35.2524 15.3438L26.4102 23.093L28.1984 26.5704Z" fill="#D4D9E2"/>
<path d="M57.5534 29.0127L58.3679 28.9332L58.4277 30.6023C56.2818 30.9001 54.4337 31.0591 52.9035 31.0591C50.8768 31.0591 49.4265 30.463 48.592 29.2909C47.7574 28.1184 47.3203 26.2707 47.3203 23.7868C47.3203 18.8193 49.2872 16.3555 53.2415 16.3555C55.149 16.3555 56.5796 16.8917 57.5137 17.9451C58.4474 18.9979 58.9243 20.6871 58.9243 22.9522L58.805 24.5619H49.4662C49.4662 26.1314 49.7444 27.2838 50.3204 28.0389C50.8969 28.7939 51.8703 29.1717 53.2612 29.1717C54.6922 29.1913 56.1027 29.1319 57.5534 29.0127ZM56.7984 22.8924C56.7984 21.164 56.5202 19.932 55.9639 19.2167C55.4075 18.5014 54.5132 18.1437 53.2612 18.1437C52.0096 18.1437 51.0558 18.5211 50.4397 19.2761C49.8239 20.0312 49.4859 21.2434 49.4662 22.8924H56.7984Z" fill="#4E5D78"/>
<path d="M61.8594 10.4961H63.9656V30.7837H61.8594V10.4961Z" fill="#4E5D78"/>
<path d="M77.3422 20.9255V27.8799C77.3422 28.5952 79.0907 28.7345 79.0907 28.7345L78.9912 30.6023C77.5011 30.6023 76.2692 30.7215 75.5141 30.0062C73.8053 30.7613 72.1363 31.0591 70.4271 31.0591C69.1357 31.0591 68.1423 30.7014 67.4667 29.9464C66.7911 29.2114 66.4531 28.1581 66.4531 26.7672C66.4531 25.3964 66.7911 24.3829 67.4864 23.7274C68.182 23.0714 69.2746 22.6741 70.7651 22.5348L75.1962 22.1177V20.9255C75.1962 19.9718 74.9975 19.2761 74.5801 18.8591C74.163 18.4416 73.5866 18.2429 72.8713 18.2429H67.3077V16.3555H72.7324C74.322 16.3555 75.4941 16.7131 76.2094 17.4682C76.9845 18.2032 77.3422 19.3556 77.3422 20.9255ZM68.6388 26.6681C68.6388 28.3965 69.3541 29.2708 70.7847 29.2708C72.0765 29.2708 73.3285 29.0721 74.5604 28.635L75.1962 28.4166V23.747L71.0232 24.1444C70.169 24.2042 69.5729 24.4623 69.1755 24.8798C68.7781 25.2969 68.6388 25.893 68.6388 26.6681Z" fill="#4E5D78"/>
<path d="M85.6276 18.2429C83.5808 18.2429 82.5476 18.9582 82.5476 20.3888C82.5476 21.0447 82.786 21.5216 83.2629 21.7998C83.7398 22.078 84.8127 22.3561 86.4818 22.654C88.1709 22.9522 89.3435 23.3496 90.0387 23.8863C90.7344 24.4029 91.0719 25.3964 91.0719 26.8467C91.0719 28.2974 90.5951 29.3704 89.6614 30.0459C88.7273 30.7215 87.3762 31.0591 85.5678 31.0591C84.4154 31.0591 80.5012 30.622 80.5012 30.622L80.6204 28.7743C82.8655 28.973 84.4948 29.1516 85.5879 29.1516C86.6805 29.1516 87.515 28.973 88.0915 28.635C88.6679 28.2974 88.9657 27.7013 88.9657 26.8864C88.9657 26.072 88.7273 25.5156 88.2308 25.2174C87.7535 24.9195 86.6608 24.6414 85.0115 24.3829C83.3424 24.1248 82.1703 23.747 81.4746 23.2304C80.7794 22.7335 80.4414 21.7797 80.4414 20.4089C80.4414 19.0377 80.9183 18.0245 81.8921 17.349C82.8655 16.6931 84.0778 16.3555 85.5084 16.3555C86.6608 16.3555 90.6348 16.6533 90.6348 16.6533V18.5014C88.5286 18.4019 86.8198 18.2429 85.6276 18.2429Z" fill="#4E5D78"/>
<path d="M101.283 18.502H96.7929V25.2577C96.7929 26.8673 96.9122 27.9403 97.1305 28.4569C97.369 28.9535 97.9253 29.212 98.8196 29.212L101.343 29.0329L101.482 30.7815C100.211 30.9802 99.2568 31.0994 98.6009 31.0994C97.1305 31.0994 96.1169 30.7417 95.5409 30.0264C94.9645 29.3111 94.6863 27.9403 94.6863 25.9333V18.502H92.6797V16.6539H94.6863V12.3223H96.7929V16.6342H101.283V18.502Z" fill="#4E5D78"/>
<path d="M104.242 13.4555V11.0117H106.349V13.4756L104.242 13.4555ZM104.242 30.7823V16.6547H106.349V30.7823H104.242Z" fill="#4E5D78"/>
<path d="M115.551 16.3555C116.166 16.3555 117.239 16.4747 118.73 16.6931L119.405 16.7725L119.326 18.4813C117.816 18.3027 116.703 18.2232 115.988 18.2232C114.398 18.2232 113.305 18.6006 112.729 19.3757C112.153 20.1307 111.854 21.5613 111.854 23.6278C111.854 25.6943 112.113 27.1249 112.649 27.9397C113.186 28.7542 114.299 29.1516 115.988 29.1516L119.326 28.8935L119.405 30.642C117.657 30.9001 116.345 31.0394 115.471 31.0394C113.265 31.0394 111.735 30.463 110.901 29.3306C110.066 28.1979 109.629 26.2903 109.629 23.6077C109.629 20.9255 110.086 19.0377 110.98 17.9451C111.914 16.9118 113.424 16.3555 115.551 16.3555Z" fill="#4E5D78"/>
</svg>
