<svg width="28" height="28" viewBox="0 0 28 28" fill="none" xmlns="http://www.w3.org/2000/svg">
<path opacity="0.4" d="M20.9023 15.7709C20.4223 16.2395 20.148 16.9138 20.2166 17.6338C20.3194 18.868 21.4508 19.7709 22.6851 19.7709H24.8566V21.1309C24.8566 23.4966 22.9251 25.428 20.5594 25.428H7.43942C5.0737 25.428 3.14227 23.4966 3.14227 21.1309V13.4395C3.14227 11.0738 5.0737 9.14233 7.43942 9.14233H20.5594C22.9251 9.14233 24.8566 11.0738 24.8566 13.4395V15.0852H22.548C21.908 15.0852 21.3251 15.3366 20.9023 15.7709Z" fill="#5B2EBC"/>
<path d="M17.2566 4.79943V9.14227H7.43942C5.0737 9.14227 3.14227 11.0737 3.14227 13.4394V9.24516C3.14227 7.88516 3.97656 6.67368 5.24513 6.19368L14.3194 2.76511C15.7366 2.23939 17.2566 3.27943 17.2566 4.79943Z" fill="#5B2EBC"/>
<path d="M26.068 16.2509V18.6052C26.068 19.2338 25.5651 19.748 24.9251 19.7709H22.6851C21.4509 19.7709 20.3194 18.868 20.2166 17.6338C20.148 16.9138 20.4223 16.2395 20.9023 15.7709C21.3251 15.3366 21.908 15.0852 22.548 15.0852H24.9251C25.5651 15.1081 26.068 15.6223 26.068 16.2509Z" fill="#5B2EBC"/>
<path d="M16.2851 14.8566H8.28512C7.81655 14.8566 7.42798 14.468 7.42798 13.9994C7.42798 13.5308 7.81655 13.1423 8.28512 13.1423H16.2851C16.7537 13.1423 17.1423 13.5308 17.1423 13.9994C17.1423 14.468 16.7537 14.8566 16.2851 14.8566Z" fill="#5B2EBC"/>
</svg>
