<svg width="56" height="56" viewBox="0 0 56 56" fill="none" xmlns="http://www.w3.org/2000/svg">
<rect width="56" height="56" rx="14" fill="white"/>
<path d="M35.55 29.9375C35.025 30.45 34.725 31.1875 34.8 31.975C34.9125 33.325 36.15 34.3125 37.5 34.3125H39.875V35.8C39.875 38.3875 37.7625 40.5 35.175 40.5H20.825C18.2375 40.5 16.125 38.3875 16.125 35.8V27.3875C16.125 24.8 18.2375 22.6875 20.825 22.6875H35.175C37.7625 22.6875 39.875 24.8 39.875 27.3875V29.1875H37.35C36.65 29.1875 36.0125 29.4625 35.55 29.9375Z" stroke="#19B8FF" stroke-width="1.5" stroke-linecap="round" stroke-linejoin="round"/>
<path d="M16.125 28.5125V22.8001C16.125 21.3126 17.0375 19.9875 18.425 19.4625L28.35 15.7125C29.9 15.125 31.5625 16.2751 31.5625 17.9376V22.6875" stroke="#19B8FF" stroke-width="1.5" stroke-linecap="round" stroke-linejoin="round"/>
<path d="M41.1985 30.4627V33.0378C41.1985 33.7253 40.6485 34.2877 39.9485 34.3127H37.4985C36.1485 34.3127 34.911 33.3252 34.7985 31.9752C34.7235 31.1877 35.0235 30.4502 35.5485 29.9377C36.011 29.4627 36.6485 29.1877 37.3485 29.1877H39.9485C40.6485 29.2127 41.1985 29.7752 41.1985 30.4627Z" stroke="#19B8FF" stroke-width="1.5" stroke-linecap="round" stroke-linejoin="round"/>
<path d="M21.75 28H30.5" stroke="#19B8FF" stroke-width="1.5" stroke-linecap="round" stroke-linejoin="round"/>
</svg>
