<svg width="46" height="46" viewBox="0 0 46 46" fill="none" xmlns="http://www.w3.org/2000/svg">
<circle cx="23" cy="23" r="23" fill="white"/>
<path d="M18 20L22.38 23.49C22.5565 23.6295 22.775 23.7054 23 23.7054C23.225 23.7054 23.4435 23.6295 23.62 23.49L28 20M31 30H15C14.7348 30 14.4804 29.8946 14.2929 29.7071C14.1054 29.5196 14 29.2652 14 29V17C14 16.7348 14.1054 16.4804 14.2929 16.2929C14.4804 16.1054 14.7348 16 15 16H31C31.2652 16 31.5196 16.1054 31.7071 16.2929C31.8946 16.4804 32 16.7348 32 17V29C32 29.2652 31.8946 29.5196 31.7071 29.7071C31.5196 29.8946 31.2652 30 31 30Z" stroke="#1053F3" stroke-width="2" stroke-linecap="round" stroke-linejoin="round"/>
</svg>
