<svg width="32" height="32" viewBox="0 0 32 32" fill="none" xmlns="http://www.w3.org/2000/svg">
<path fill-rule="evenodd" clip-rule="evenodd" d="M1.17375 2.43527C0 4.0244 0 6.30293 0 10.86V21.14C0 25.6971 0 27.9756 1.17375 29.5647C1.52904 30.0458 1.95425 30.471 2.43527 30.8263C4.0244 32 6.30293 32 10.86 32H21.14C25.6971 32 27.9756 32 29.5647 30.8263C30.0458 30.471 30.471 30.0458 30.8263 29.5647C32 27.9756 32 25.6971 32 21.14V10.86C32 6.30293 32 4.0244 30.8263 2.43527C30.471 1.95425 30.0458 1.52904 29.5647 1.17375C27.9756 0 25.6971 0 21.14 0H10.86C6.30293 0 4.0244 0 2.43527 1.17375C1.95425 1.52904 1.52904 1.95425 1.17375 2.43527ZM17 11.4976V13.4962H20L19 15.9945H17V23.9891H14V15.9945H12V13.4962H14V10.9979C14 9.34208 15.343 8 17 8H19V10.4983H18C17.448 10.4983 17 10.946 17 11.4976Z" fill="#B1B4D5"/>
</svg>
