<svg width="37" height="37" viewBox="0 0 37 37" fill="none" xmlns="http://www.w3.org/2000/svg">
<path opacity="0.1" fill-rule="evenodd" clip-rule="evenodd" d="M18.5 36.1274C28.165 36.1274 36 28.2924 36 18.6274C36 8.96246 28.165 1.12744 18.5 1.12744C8.83502 1.12744 1 8.96246 1 18.6274C1 28.2924 8.83502 36.1274 18.5 36.1274Z" stroke="white" stroke-width="1.5"/>
<path d="M20.0932 14.1477H21.7016C21.8495 14.1477 21.9696 14.0346 21.9696 13.8951V12.3796C21.9696 12.2401 21.8495 12.127 21.7016 12.127H20.0932C18.4677 12.127 17.1445 13.3733 17.1445 14.9055V16.6737H15.2681C15.1201 16.6737 15 16.7869 15 16.9263V18.4419C15 18.5813 15.1201 18.6945 15.2681 18.6945H17.1445V23.9991C17.1445 24.1385 17.2646 24.2517 17.4126 24.2517H19.0209C19.1689 24.2517 19.289 24.1385 19.289 23.9991V18.6945H21.1655C21.2807 18.6945 21.3831 18.6248 21.4201 18.5217L21.9562 17.0061C21.9836 16.9293 21.9696 16.8445 21.9192 16.7783C21.8683 16.7126 21.7879 16.6737 21.7016 16.6737H19.289V14.9055C19.289 14.4877 19.6498 14.1477 20.0932 14.1477Z" fill="white"/>
</svg>
