<svg width="49" height="50" viewBox="0 0 49 50" fill="none" xmlns="http://www.w3.org/2000/svg">
<mask id="mask0_2_530" style="mask-type:luminance" maskUnits="userSpaceOnUse" x="10" y="0" width="39" height="39">
<path d="M10.4514 0H48.4445V38.0034H10.4514V0Z" fill="white"/>
</mask>
<g mask="url(#mask0_2_530)">
<path d="M38.8905 27.2454C39.0352 27.8749 39.1533 28.5213 39.2326 29.1999C39.3856 30.5024 39.3809 31.7815 39.231 33.021L48.4427 21.3934L45.4188 18.9949L38.8905 27.2454ZM18.0628 26.5375L28.6661 34.918L26.2796 37.9506L15.6619 29.5721C12.7327 27.2597 11.0438 24.2548 10.6217 20.54C10.1738 16.8422 11.1207 13.5286 13.4359 10.6025L21.8251 -0.0012207L24.849 2.39763L16.4721 12.9863C14.8062 15.0918 14.1403 17.4455 14.451 20.0917C14.7614 22.7383 15.9564 24.8878 18.0628 26.5375Z" fill="#EAF9D6"/>
</g>
<mask id="mask1_2_530" style="mask-type:luminance" maskUnits="userSpaceOnUse" x="0" y="12" width="38" height="39">
<path d="M0 12.0269H37.1385V50.0001H0V12.0269Z" fill="white"/>
</mask>
<g mask="url(#mask1_2_530)">
<path d="M4.38177 26.3274C3.2208 25.4237 1.55603 25.6191 0.649529 26.7642C-0.256578 27.9098 -0.0599774 29.5864 1.08712 30.4917C2.23423 31.397 3.89899 31.2016 4.81897 30.0545C5.72547 28.9094 5.52848 27.2324 4.38177 26.3274ZM29.572 23.4625L18.9548 15.0839L21.3552 12.0493L31.9725 20.4278C34.9021 22.7403 36.5771 25.7468 37.0131 29.46C37.4472 33.1597 36.5137 36.4714 34.1989 39.3974L25.8097 50.0012L22.7715 47.6035L31.1627 37.0136C32.8148 34.9097 33.4941 32.5549 33.1838 29.9083C32.873 27.2617 31.6645 25.1138 29.572 23.4625Z" fill="#EAF9D6"/>
</g>
</svg>
