<svg width="559" height="629" viewBox="0 0 559 629" fill="none" xmlns="http://www.w3.org/2000/svg">
<path d="M67.1195 69.9111C67.9781 62.8869 74.3684 57.8878 81.3927 58.7453L271.182 81.914C278.206 82.7715 283.204 89.1608 282.346 96.185L251.85 345.692L36.6232 319.418L67.1195 69.9111Z" fill="url(#paint0_linear_1_13982)"/>
<circle cx="33.6451" cy="33.6451" r="33.6451" transform="matrix(0.992631 0.121176 -0.121324 0.992613 138.253 104.186)" fill="#401579"/>
<path opacity="0.4" d="M179.367 132.43L155.769 150.89M158.339 129.863L176.797 153.457" stroke="#F8F4FF" stroke-width="4.27103" stroke-linecap="round" stroke-linejoin="round"/>
<path opacity="0.3" d="M100.25 185.313L99.9622 187.672L96.5853 187.259L95.3448 197.408L92.8792 197.107L94.1196 186.958L90.7605 186.548L91.0488 184.19L100.25 185.313ZM102.066 190.721C102.35 190.175 102.754 189.789 103.277 189.563C103.813 189.338 104.384 189.263 104.991 189.337L104.677 191.91C103.984 191.741 103.336 191.807 102.731 192.108C102.137 192.41 101.789 192.99 101.684 193.848L101.162 198.118L98.8569 197.837L99.9488 188.903L102.254 189.184L102.066 190.721ZM112.776 190.469L115.081 190.75L113.989 199.684L111.684 199.402L111.813 198.348C111.015 199.133 109.991 199.45 108.741 199.297C107.55 199.152 106.581 198.574 105.834 197.564C105.1 196.544 104.814 195.372 104.976 194.05C105.137 192.728 105.696 191.666 106.652 190.864C107.622 190.051 108.703 189.718 109.894 189.863C111.145 190.016 112.062 190.569 112.647 191.523L112.776 190.469ZM107.754 196.239C108.162 196.76 108.723 197.064 109.438 197.152C110.153 197.239 110.771 197.079 111.292 196.671C111.827 196.253 112.139 195.674 112.23 194.936C112.32 194.197 112.155 193.567 111.736 193.044C111.329 192.511 110.769 192.2 110.054 192.113C109.339 192.026 108.721 192.192 108.198 192.612C107.676 193.02 107.371 193.593 107.28 194.331C107.19 195.07 107.348 195.706 107.754 196.239ZM122.168 191.362C123.145 191.481 123.909 191.907 124.46 192.639C125.023 193.372 125.234 194.317 125.093 195.472L124.423 200.958L122.118 200.676L122.753 195.477C122.826 194.881 122.721 194.409 122.437 194.06C122.155 193.699 121.745 193.486 121.209 193.421C120.614 193.348 120.115 193.474 119.712 193.8C119.31 194.126 119.063 194.658 118.973 195.396L118.384 200.22L116.079 199.939L117.171 191.005L119.475 191.287L119.353 192.287C120.015 191.522 120.953 191.213 122.168 191.362ZM129.299 195.061C129.27 195.299 129.401 195.515 129.691 195.707C129.995 195.889 130.367 196.068 130.805 196.242C131.244 196.405 131.679 196.603 132.11 196.837C132.542 197.059 132.889 197.391 133.149 197.834C133.421 198.278 133.52 198.804 133.446 199.411C133.334 200.329 132.901 200.995 132.149 201.411C131.411 201.817 130.529 201.957 129.505 201.832C127.67 201.608 126.506 200.746 126.013 199.248L128.151 198.366C128.319 199.172 128.855 199.631 129.76 199.741C130.582 199.842 131.025 199.636 131.087 199.124C131.116 198.885 130.979 198.675 130.675 198.493C130.384 198.3 130.019 198.117 129.581 197.942C129.143 197.768 128.709 197.564 128.278 197.33C127.847 197.096 127.494 196.769 127.219 196.348C126.958 195.918 126.862 195.41 126.934 194.827C127.041 193.945 127.448 193.294 128.152 192.872C128.87 192.44 129.711 192.282 130.676 192.4C131.402 192.489 132.043 192.736 132.598 193.143C133.154 193.537 133.568 194.059 133.839 194.708L131.743 195.541C131.531 194.898 131.092 194.536 130.425 194.455C130.127 194.419 129.869 194.453 129.65 194.56C129.444 194.668 129.326 194.835 129.299 195.061ZM142.368 194.081L144.673 194.363L143.581 203.296L141.277 203.015L141.405 201.961C140.608 202.746 139.584 203.062 138.334 202.91C137.142 202.764 136.173 202.186 135.426 201.176C134.693 200.156 134.407 198.985 134.568 197.663C134.73 196.34 135.289 195.278 136.245 194.476C137.215 193.664 138.295 193.33 139.487 193.476C140.737 193.628 141.655 194.182 142.24 195.136L142.368 194.081ZM137.347 199.852C137.755 200.373 138.316 200.677 139.031 200.764C139.746 200.852 140.364 200.691 140.885 200.283C141.42 199.865 141.732 199.287 141.822 198.548C141.913 197.81 141.748 197.179 141.328 196.656C140.922 196.123 140.362 195.813 139.647 195.726C138.932 195.639 138.313 195.805 137.791 196.224C137.269 196.632 136.963 197.205 136.873 197.944C136.783 198.683 136.941 199.318 137.347 199.852ZM149.893 204.321C148.547 204.156 147.477 203.566 146.682 202.551C145.9 201.536 145.59 200.362 145.753 199.028C145.916 197.694 146.499 196.629 147.503 195.833C148.519 195.038 149.7 194.723 151.046 194.887C151.916 194.993 152.683 195.298 153.346 195.802C154.01 196.307 154.484 196.933 154.767 197.68L152.642 198.6C152.508 198.209 152.27 197.883 151.927 197.624C151.596 197.366 151.204 197.209 150.751 197.154C150.06 197.07 149.46 197.232 148.951 197.641C148.443 198.039 148.145 198.595 148.058 199.309C147.972 200.012 148.127 200.623 148.523 201.143C148.92 201.651 149.464 201.947 150.155 202.032C150.62 202.088 151.043 202.037 151.425 201.878C151.82 201.709 152.13 201.451 152.354 201.103L154.215 202.491C153.736 203.146 153.113 203.644 152.346 203.985C151.58 204.315 150.763 204.427 149.893 204.321ZM161.112 198.618L159.093 198.372L158.639 202.088C158.601 202.398 158.651 202.633 158.788 202.795C158.926 202.957 159.142 203.068 159.437 203.128C159.733 203.177 160.103 203.216 160.547 203.246L160.291 205.336C158.685 205.321 157.583 205.036 156.987 204.479C156.402 203.924 156.184 203.034 156.334 201.807L156.788 198.09L155.234 197.901L155.505 195.685L157.059 195.875L157.28 194.07L159.67 193.655L159.364 196.156L161.383 196.403L161.112 198.618ZM164.283 195.669C163.901 195.622 163.585 195.444 163.332 195.136C163.093 194.816 162.997 194.466 163.044 194.085C163.09 193.704 163.268 193.387 163.577 193.134C163.898 192.883 164.249 192.781 164.63 192.828C165.023 192.876 165.339 193.059 165.578 193.379C165.829 193.699 165.931 194.05 165.884 194.432C165.838 194.813 165.654 195.129 165.333 195.38C165.026 195.62 164.676 195.717 164.283 195.669ZM161.916 205.535L163.008 196.601L165.313 196.882L164.221 205.816L161.916 205.535ZM174.077 205.895C173.05 206.688 171.875 207.004 170.552 206.843C169.23 206.681 168.166 206.092 167.359 205.075C166.566 204.047 166.25 202.872 166.412 201.55C166.574 200.228 167.162 199.169 168.178 198.375C169.208 197.569 170.383 197.248 171.706 197.409C173.028 197.57 174.091 198.166 174.896 199.195C175.703 200.212 176.025 201.382 175.864 202.704C175.702 204.026 175.107 205.09 174.077 205.895ZM169.18 203.683C169.587 204.204 170.137 204.507 170.828 204.591C171.518 204.676 172.125 204.514 172.646 204.106C173.167 203.698 173.472 203.137 173.559 202.422C173.646 201.708 173.486 201.09 173.078 200.569C172.671 200.047 172.121 199.744 171.43 199.66C170.739 199.576 170.133 199.738 169.612 200.145C169.103 200.555 168.804 201.117 168.717 201.831C168.63 202.546 168.784 203.163 169.18 203.683ZM183.029 198.791C184.006 198.91 184.77 199.336 185.321 200.068C185.884 200.802 186.095 201.747 185.954 202.902L185.283 208.387L182.979 208.106L183.614 202.906C183.687 202.311 183.581 201.839 183.298 201.49C183.015 201.129 182.606 200.916 182.07 200.85C181.474 200.778 180.975 200.904 180.573 201.23C180.171 201.555 179.924 202.087 179.834 202.826L179.244 207.65L176.939 207.369L178.031 198.435L180.336 198.716L180.214 199.717C180.876 198.951 181.814 198.643 183.029 198.791ZM197.813 199.218C196.562 198.968 195.869 199.398 195.734 200.505L195.723 200.595L197.617 200.826L197.346 203.041L195.452 202.81L194.631 209.528L192.326 209.247L193.147 202.529L191.86 202.372L192.131 200.156L193.418 200.313L193.429 200.224C193.583 198.961 194.052 198.045 194.834 197.476C195.617 196.907 196.7 196.749 198.084 197.002L197.813 199.218ZM205.131 201.743L207.436 202.025L206.344 210.958L204.039 210.677L204.168 209.623C203.371 210.408 202.347 210.724 201.096 210.571C199.905 210.426 198.936 209.848 198.189 208.838C197.455 207.818 197.169 206.647 197.331 205.324C197.493 204.002 198.052 202.94 199.008 202.138C199.978 201.326 201.058 200.992 202.249 201.138C203.5 201.29 204.418 201.844 205.002 202.797L205.131 201.743ZM200.11 207.513C200.518 208.035 201.079 208.339 201.794 208.426C202.508 208.513 203.126 208.353 203.648 207.945C204.182 207.527 204.495 206.948 204.585 206.21C204.675 205.471 204.511 204.841 204.091 204.318C203.685 203.785 203.124 203.475 202.409 203.388C201.695 203.3 201.076 203.467 200.553 203.886C200.032 204.294 199.726 204.867 199.636 205.606C199.546 206.344 199.704 206.98 200.11 207.513ZM210.801 201.347C210.419 201.301 210.103 201.123 209.85 200.814C209.611 200.495 209.515 200.145 209.562 199.764C209.608 199.382 209.786 199.066 210.095 198.813C210.416 198.562 210.767 198.46 211.148 198.506C211.541 198.554 211.857 198.738 212.096 199.057C212.347 199.378 212.449 199.729 212.402 200.11C212.356 200.491 212.172 200.808 211.851 201.059C211.544 201.299 211.194 201.395 210.801 201.347ZM208.434 211.213L209.526 202.28L211.831 202.561L210.739 211.495L208.434 211.213ZM212.849 211.752L214.443 198.709L216.748 198.991L215.153 212.034L212.849 211.752ZM219.641 209.009C219.814 210.166 220.585 210.829 221.955 210.996C222.836 211.104 223.54 210.887 224.065 210.347L225.792 211.646C224.755 212.813 223.379 213.292 221.664 213.082C220.187 212.902 219.056 212.31 218.272 211.308C217.488 210.306 217.178 209.125 217.344 207.768C217.509 206.422 218.087 205.356 219.077 204.57C220.069 203.772 221.256 203.458 222.638 203.627C223.948 203.786 224.971 204.371 225.706 205.379C226.453 206.389 226.745 207.561 226.582 208.895C226.545 209.193 226.477 209.505 226.377 209.831L219.641 209.009ZM219.823 207.218L224.38 207.774C224.323 207.151 224.104 206.665 223.724 206.316C223.355 205.969 222.909 205.763 222.385 205.699C221.765 205.623 221.233 205.722 220.789 205.994C220.346 206.254 220.024 206.662 219.823 207.218ZM235.876 201.87L238.18 202.151L236.652 214.658L234.347 214.377L234.476 213.322C233.69 214.109 232.673 214.426 231.422 214.273C230.219 214.127 229.244 213.548 228.497 212.538C227.763 211.518 227.477 210.346 227.639 209.024C227.8 207.702 228.359 206.64 229.316 205.838C230.285 205.026 231.372 204.693 232.575 204.84C233.826 204.992 234.737 205.545 235.31 206.497L235.876 201.87ZM230.418 211.213C230.837 211.736 231.405 212.041 232.119 212.128C232.834 212.215 233.452 212.055 233.973 211.647C234.496 211.227 234.803 210.648 234.893 209.91C234.983 209.171 234.824 208.541 234.417 208.02C234.01 207.487 233.45 207.177 232.735 207.09C232.02 207.002 231.396 207.168 230.861 207.586C230.34 207.994 230.034 208.567 229.944 209.306C229.853 210.044 230.011 210.68 230.418 211.213Z" fill="#F8F4FF"/>
<rect width="103.012" height="4.15372" rx="2.07686" transform="matrix(0.992631 0.121176 -0.121324 0.992613 80.0804 271.997)" fill="url(#paint1_linear_1_13982)"/>
<rect width="124.612" height="4.15372" rx="2.07686" transform="matrix(0.992631 0.121176 -0.121324 0.992613 82.9025 248.911)" fill="url(#paint2_linear_1_13982)"/>
<rect width="148.703" height="4.15372" rx="2.07686" transform="matrix(0.992631 0.121176 -0.121324 0.992613 85.6243 226.644)" fill="url(#paint3_linear_1_13982)"/>
<path d="M34.488 318.728L252.188 345.304L246.626 390.813C245.634 398.925 238.255 404.697 230.144 403.707L41.8174 380.717C33.706 379.727 27.9341 372.349 28.9255 364.237L34.488 318.728Z" fill="url(#paint4_linear_1_13982)"/>
<path d="M97.2996 358.115C97.1483 359.352 96.6243 360.315 95.7275 361.004C94.847 361.679 93.7564 362.019 92.4557 362.023L92.2181 363.966L90.7987 363.793L91.0336 361.871C89.8341 361.651 88.8405 361.197 88.0527 360.51C87.2649 359.823 86.7432 358.954 86.4874 357.903L88.8015 356.922C89.1545 358.266 89.999 359.093 91.3352 359.404L91.8903 354.862C91.2655 354.534 90.7608 354.251 90.3763 354.012C89.9935 353.758 89.5906 353.428 89.1674 353.022C88.7588 352.618 88.4683 352.154 88.2958 351.63C88.1397 351.094 88.1026 350.491 88.1845 349.821C88.3339 348.598 88.8626 347.658 89.7704 347.001C90.6782 346.343 91.7434 346.03 92.966 346.061L93.2009 344.139L94.6204 344.313L94.3828 346.256C96.3016 346.756 97.5337 347.919 98.079 349.744L95.8112 350.708C95.5484 349.716 94.9708 349.061 94.0785 348.746L93.55 353.069C93.9946 353.301 94.3271 353.482 94.5475 353.612C94.7826 353.744 95.0842 353.936 95.4524 354.188C95.8351 354.442 96.1232 354.684 96.3166 354.914C96.5101 355.145 96.7055 355.42 96.9029 355.739C97.1148 356.061 97.2477 356.424 97.3015 356.83C97.3572 357.221 97.3565 357.649 97.2996 358.115ZM90.6958 350.128C90.6407 350.579 90.7263 350.966 90.9528 351.29C91.1938 351.615 91.6095 351.961 92.2 352.328L92.6644 348.529C92.1151 348.55 91.6607 348.702 91.3012 348.983C90.9563 349.266 90.7545 349.648 90.6958 350.128ZM92.7573 359.555C93.3539 359.51 93.8264 359.331 94.1748 359.019C94.5233 358.707 94.7268 358.311 94.7856 357.83C94.8443 357.35 94.7459 356.946 94.4903 356.62C94.2365 356.278 93.8207 355.932 93.2431 355.581L92.7573 359.555ZM108.455 355.665C109.853 356.678 110.452 358.007 110.251 359.652C110.08 361.049 109.457 362.096 108.382 362.792C107.309 363.474 105.964 363.716 104.348 363.519C102.732 363.322 101.478 362.762 100.586 361.841C99.7101 360.906 99.3576 359.74 99.5284 358.343C99.6245 357.557 99.9082 356.867 100.38 356.275C100.853 355.668 101.47 355.211 102.231 354.905C101.174 354.008 100.73 352.86 100.901 351.462C101.072 350.065 101.67 349.044 102.694 348.401C103.72 347.743 104.917 347.498 106.286 347.665C107.64 347.83 108.735 348.356 109.573 349.241C110.427 350.113 110.768 351.248 110.597 352.646C110.427 354.044 109.712 355.05 108.455 355.665ZM105.995 350.045C105.311 349.962 104.728 350.075 104.247 350.386C103.765 350.697 103.483 351.194 103.399 351.878C103.319 352.533 103.474 353.077 103.865 353.509C104.27 353.942 104.807 354.2 105.477 354.282C106.132 354.362 106.709 354.24 107.206 353.917C107.704 353.593 107.993 353.104 108.073 352.449C108.156 351.764 107.995 351.213 107.588 350.794C107.196 350.376 106.665 350.127 105.995 350.045ZM104.639 361.139C105.483 361.242 106.193 361.121 106.766 360.778C107.342 360.42 107.676 359.862 107.769 359.105C107.861 358.348 107.67 357.734 107.196 357.262C106.724 356.776 106.065 356.481 105.221 356.378C104.362 356.273 103.645 356.4 103.069 356.758C102.495 357.102 102.162 357.652 102.069 358.409C101.977 359.166 102.167 359.788 102.639 360.274C103.113 360.746 103.78 361.034 104.639 361.139ZM116.267 362.026L114.044 367.517L112.079 367.277L113.646 361.706L116.267 362.026ZM120.078 349.637L129.796 350.823L129.529 353.007L122.556 365.454L119.913 365.131L126.773 352.892L119.785 352.039L120.078 349.637ZM135.243 357.339C136.699 357.517 137.875 358.104 138.773 359.1C139.673 360.081 140.029 361.337 139.842 362.865C139.655 364.394 138.992 365.532 137.851 366.279C136.711 367.026 135.391 367.309 133.891 367.125C132.683 366.978 131.647 366.571 130.783 365.904C129.92 365.222 129.358 364.326 129.094 363.215L131.409 362.235C131.647 363.667 132.574 364.482 134.19 364.68C135.049 364.785 135.76 364.65 136.323 364.275C136.903 363.888 137.238 363.316 137.331 362.559C137.423 361.802 137.242 361.174 136.786 360.675C136.329 360.176 135.679 359.875 134.835 359.772L130.38 359.228L131.973 351.089L140.49 352.129L140.201 354.487L133.999 353.73L133.321 357.105L135.243 357.339ZM151.96 367.137C150.735 368.45 149.177 368.991 147.284 368.76C145.392 368.529 144.002 367.628 143.116 366.057C142.243 364.488 141.954 362.502 142.248 360.1C142.541 357.698 143.3 355.84 144.525 354.527C145.764 353.216 147.33 352.675 149.222 352.906C151.115 353.137 152.497 354.038 153.369 355.607C154.256 357.178 154.552 359.164 154.259 361.567C153.965 363.969 153.199 365.825 151.96 367.137ZM147.583 366.315C148.719 366.453 149.643 366.086 150.356 365.212C151.068 364.339 151.532 363.022 151.747 361.26C151.963 359.498 151.83 358.108 151.348 357.089C150.867 356.07 150.059 355.491 148.923 355.352C147.802 355.215 146.878 355.583 146.151 356.454C145.438 357.328 144.975 358.645 144.759 360.407C144.544 362.168 144.677 363.559 145.158 364.578C145.654 365.599 146.462 366.178 147.583 366.315ZM158.321 369.598C157.962 369.879 157.557 369.992 157.105 369.937C156.654 369.882 156.288 369.675 156.007 369.315C155.726 368.956 155.613 368.551 155.668 368.099C155.723 367.648 155.923 367.281 156.268 366.998C156.627 366.717 157.04 366.605 157.506 366.662C157.957 366.717 158.323 366.924 158.604 367.283C158.886 367.643 158.999 368.048 158.943 368.499C158.888 368.951 158.681 369.317 158.321 369.598ZM161.393 370.195L161.633 368.229L167.626 363.442C169.08 362.305 169.865 361.263 169.981 360.316C170.072 359.574 169.916 358.971 169.515 358.509C169.13 358.033 168.595 357.754 167.911 357.67C166.63 357.514 165.606 358.031 164.84 359.223L162.873 357.72C163.478 356.76 164.25 356.071 165.187 355.653C166.125 355.236 167.125 355.092 168.188 355.222C169.527 355.385 170.626 355.948 171.483 356.909C172.341 357.871 172.681 359.08 172.503 360.536C172.313 362.093 171.243 363.647 169.296 365.197L165.424 368.227L171.757 369L171.46 371.424L161.393 370.195ZM180.038 362.808C181.494 362.985 182.671 363.572 183.569 364.568C184.468 365.55 184.825 366.805 184.638 368.334C184.451 369.862 183.787 371 182.647 371.748C181.507 372.495 180.187 372.777 178.687 372.594C177.479 372.446 176.443 372.039 175.578 371.372C174.716 370.691 174.153 369.795 173.89 368.684L176.204 367.703C176.443 369.136 177.37 369.951 178.986 370.148C179.845 370.253 180.556 370.118 181.119 369.744C181.698 369.356 182.034 368.784 182.127 368.027C182.219 367.27 182.037 366.642 181.581 366.143C181.125 365.644 180.475 365.343 179.63 365.24L175.175 364.696L176.769 356.557L185.285 357.597L184.997 359.955L178.795 359.198L178.117 362.573L180.038 362.808Z" fill="url(#paint5_linear_1_13982)"/>
<rect x="251.107" y="158.65" width="265.039" height="386.359" rx="12.9918" fill="url(#paint6_radial_1_13982)"/>
<rect x="251.573" y="159.117" width="264.105" height="385.426" rx="12.5252" stroke="white" stroke-opacity="0.2" stroke-width="0.933234"/>
<path d="M275.466 451.319C276.515 451.319 277.384 451.693 278.073 452.441C278.77 453.181 279.118 454.091 279.118 455.169C279.118 456.247 278.77 457.16 278.073 457.908C277.384 458.648 276.515 459.019 275.466 459.019H272.463V451.319H275.466ZM275.466 458.051C276.251 458.051 276.892 457.776 277.391 457.226C277.89 456.676 278.139 455.99 278.139 455.169C278.139 454.347 277.89 453.662 277.391 453.112C276.892 452.562 276.251 452.287 275.466 452.287H273.486V458.051H275.466ZM280.743 452.518C280.56 452.518 280.406 452.455 280.281 452.331C280.157 452.206 280.094 452.056 280.094 451.88C280.094 451.704 280.157 451.553 280.281 451.429C280.406 451.297 280.56 451.231 280.743 451.231C280.919 451.231 281.07 451.297 281.194 451.429C281.319 451.553 281.381 451.704 281.381 451.88C281.381 452.056 281.319 452.206 281.194 452.331C281.07 452.455 280.919 452.518 280.743 452.518ZM280.259 459.019V453.519H281.216V459.019H280.259ZM283.491 455.004C283.491 455.216 283.597 455.389 283.81 455.521C284.022 455.645 284.279 455.748 284.58 455.829C284.88 455.902 285.181 455.99 285.482 456.093C285.782 456.188 286.039 456.357 286.252 456.599C286.464 456.833 286.571 457.138 286.571 457.512C286.571 458.01 286.376 458.41 285.988 458.711C285.606 459.011 285.115 459.162 284.514 459.162C283.978 459.162 283.52 459.044 283.139 458.81C282.757 458.575 282.486 458.263 282.325 457.875L283.15 457.402C283.238 457.666 283.403 457.875 283.645 458.029C283.887 458.183 284.176 458.26 284.514 458.26C284.829 458.26 285.089 458.201 285.295 458.084C285.5 457.959 285.603 457.768 285.603 457.512C285.603 457.299 285.496 457.13 285.284 457.006C285.071 456.874 284.814 456.771 284.514 456.698C284.213 456.617 283.912 456.525 283.612 456.423C283.311 456.32 283.054 456.151 282.842 455.917C282.629 455.682 282.523 455.381 282.523 455.015C282.523 454.538 282.706 454.146 283.073 453.838C283.447 453.53 283.912 453.376 284.47 453.376C284.917 453.376 285.313 453.478 285.658 453.684C286.01 453.882 286.274 454.16 286.45 454.52L285.647 454.971C285.449 454.501 285.056 454.267 284.47 454.267C284.198 454.267 283.967 454.333 283.777 454.465C283.586 454.589 283.491 454.769 283.491 455.004ZM290.138 459.162C289.31 459.162 288.62 458.887 288.07 458.337C287.52 457.779 287.245 457.09 287.245 456.269C287.245 455.447 287.52 454.762 288.07 454.212C288.62 453.654 289.31 453.376 290.138 453.376C290.681 453.376 291.169 453.508 291.601 453.772C292.034 454.028 292.357 454.377 292.569 454.817L291.766 455.279C291.627 454.985 291.411 454.751 291.117 454.575C290.831 454.399 290.505 454.311 290.138 454.311C289.588 454.311 289.126 454.498 288.752 454.872C288.386 455.246 288.202 455.711 288.202 456.269C288.202 456.819 288.386 457.281 288.752 457.655C289.126 458.029 289.588 458.216 290.138 458.216C290.505 458.216 290.835 458.131 291.128 457.963C291.422 457.787 291.645 457.552 291.799 457.259L292.613 457.732C292.379 458.164 292.041 458.513 291.601 458.777C291.161 459.033 290.674 459.162 290.138 459.162ZM298.125 458.326C297.56 458.883 296.875 459.162 296.068 459.162C295.261 459.162 294.576 458.883 294.011 458.326C293.454 457.768 293.175 457.083 293.175 456.269C293.175 455.455 293.454 454.769 294.011 454.212C294.576 453.654 295.261 453.376 296.068 453.376C296.875 453.376 297.56 453.654 298.125 454.212C298.69 454.769 298.972 455.455 298.972 456.269C298.972 457.083 298.69 457.768 298.125 458.326ZM296.068 458.227C296.618 458.227 297.08 458.04 297.454 457.666C297.828 457.292 298.015 456.826 298.015 456.269C298.015 455.711 297.828 455.246 297.454 454.872C297.08 454.498 296.618 454.311 296.068 454.311C295.525 454.311 295.067 454.498 294.693 454.872C294.319 455.246 294.132 455.711 294.132 456.269C294.132 456.826 294.319 457.292 294.693 457.666C295.067 458.04 295.525 458.227 296.068 458.227ZM303.895 453.519H304.852V459.019H303.895V458.227C303.507 458.85 302.913 459.162 302.113 459.162C301.468 459.162 300.951 458.96 300.562 458.557C300.174 458.146 299.979 457.592 299.979 456.896V453.519H300.936V456.841C300.936 457.288 301.057 457.636 301.299 457.886C301.541 458.128 301.875 458.249 302.3 458.249C302.777 458.249 303.162 458.102 303.455 457.809C303.749 457.508 303.895 457.05 303.895 456.434V453.519ZM309.048 453.376C309.693 453.376 310.21 453.581 310.599 453.992C310.988 454.395 311.182 454.945 311.182 455.642V459.019H310.225V455.697C310.225 455.249 310.104 454.905 309.862 454.663C309.62 454.413 309.286 454.289 308.861 454.289C308.384 454.289 307.999 454.439 307.706 454.74C307.413 455.033 307.266 455.488 307.266 456.104V459.019H306.309V453.519H307.266V454.311C307.655 453.687 308.249 453.376 309.048 453.376ZM315.51 454.443H314.047V457.424C314.047 457.695 314.098 457.889 314.201 458.007C314.311 458.117 314.476 458.175 314.696 458.183C314.916 458.183 315.187 458.175 315.51 458.161V459.019C314.674 459.129 314.062 459.063 313.673 458.821C313.284 458.571 313.09 458.106 313.09 457.424V454.443H312.001V453.519H313.09V452.265L314.047 451.979V453.519H315.51V454.443Z" fill="#F8F4FF" fill-opacity="0.4"/>
<rect x="402.258" y="447.019" width="38.2626" height="18" rx="4.33061" fill="#E6F9EB" fill-opacity="0.2"/>
<rect x="402.758" y="447.519" width="37.2626" height="17" rx="3.83061" stroke="white" stroke-opacity="0.2"/>
<path d="M414.003 455.797V456.422H411.457V455.797H414.003ZM415.035 457.825V457.246L417.591 453.2H418.012V454.098H417.728L415.796 457.155V457.2H419.239V457.825H415.035ZM417.773 459.019V457.649V457.379V453.2H418.444V459.019H417.773ZM422.202 459.098C421.774 459.098 421.409 458.982 421.108 458.749C420.807 458.514 420.577 458.174 420.417 457.729C420.258 457.282 420.179 456.742 420.179 456.109C420.179 455.481 420.258 454.944 420.417 454.499C420.578 454.052 420.809 453.711 421.111 453.476C421.414 453.239 421.777 453.121 422.202 453.121C422.626 453.121 422.988 453.239 423.29 453.476C423.593 453.711 423.824 454.052 423.983 454.499C424.144 454.944 424.224 455.481 424.224 456.109C424.224 456.742 424.145 457.282 423.986 457.729C423.827 458.174 423.596 458.514 423.295 458.749C422.994 458.982 422.63 459.098 422.202 459.098ZM422.202 458.473C422.626 458.473 422.955 458.269 423.19 457.859C423.425 457.45 423.542 456.867 423.542 456.109C423.542 455.606 423.488 455.177 423.381 454.823C423.274 454.468 423.121 454.198 422.92 454.013C422.721 453.827 422.482 453.734 422.202 453.734C421.781 453.734 421.452 453.942 421.216 454.357C420.979 454.77 420.861 455.354 420.861 456.109C420.861 456.613 420.914 457.041 421.02 457.394C421.126 457.746 421.278 458.014 421.477 458.198C421.678 458.381 421.919 458.473 422.202 458.473ZM428.27 457.928V457.621C428.27 457.409 428.313 457.215 428.4 457.038C428.489 456.86 428.618 456.718 428.787 456.612C428.957 456.504 429.164 456.45 429.406 456.45C429.652 456.45 429.859 456.504 430.025 456.612C430.192 456.718 430.318 456.86 430.403 457.038C430.488 457.215 430.531 457.409 430.531 457.621V457.928C430.531 458.14 430.488 458.335 430.4 458.513C430.315 458.689 430.188 458.831 430.02 458.939C429.853 459.045 429.649 459.098 429.406 459.098C429.16 459.098 428.952 459.045 428.784 458.939C428.615 458.831 428.488 458.689 428.4 458.513C428.313 458.335 428.27 458.14 428.27 457.928ZM428.849 457.621V457.928C428.849 458.104 428.891 458.262 428.974 458.402C429.058 458.54 429.202 458.609 429.406 458.609C429.605 458.609 429.745 458.54 429.827 458.402C429.91 458.262 429.952 458.104 429.952 457.928V457.621C429.952 457.445 429.912 457.287 429.832 457.149C429.753 457.009 429.611 456.939 429.406 456.939C429.207 456.939 429.064 457.009 428.977 457.149C428.892 457.287 428.849 457.445 428.849 457.621ZM425.372 454.598V454.291C425.372 454.079 425.416 453.885 425.503 453.709C425.592 453.531 425.72 453.389 425.889 453.283C426.059 453.175 426.266 453.121 426.508 453.121C426.755 453.121 426.961 453.175 427.128 453.283C427.294 453.389 427.42 453.531 427.506 453.709C427.591 453.885 427.633 454.079 427.633 454.291V454.598C427.633 454.81 427.59 455.005 427.503 455.183C427.417 455.359 427.291 455.502 427.122 455.609C426.955 455.716 426.751 455.769 426.508 455.769C426.262 455.769 426.055 455.716 425.886 455.609C425.718 455.502 425.59 455.359 425.503 455.183C425.416 455.005 425.372 454.81 425.372 454.598ZM425.952 454.291V454.598C425.952 454.774 425.993 454.932 426.077 455.073C426.16 455.211 426.304 455.28 426.508 455.28C426.707 455.28 426.847 455.211 426.929 455.073C427.012 454.932 427.054 454.774 427.054 454.598V454.291C427.054 454.115 427.014 453.958 426.934 453.82C426.855 453.68 426.713 453.609 426.508 453.609C426.309 453.609 426.167 453.68 426.079 453.82C425.994 453.958 425.952 454.115 425.952 454.291ZM425.588 459.019L429.588 453.2H430.236L426.236 459.019H425.588Z" fill="#32EFA0"/>
<path d="M452.54 456.247V455.103H456.61V456.247H452.54ZM460.325 459.019L458.246 455.389V454.905H458.488C458.877 454.905 459.203 454.868 459.467 454.795C459.738 454.721 459.951 454.6 460.105 454.432C460.259 454.263 460.351 454.032 460.38 453.739H458.246V453.035H460.369C460.318 452.763 460.215 452.543 460.061 452.375C459.907 452.199 459.698 452.07 459.434 451.99C459.177 451.909 458.862 451.869 458.488 451.869H458.246V451.165H462.8V451.869H460.721C460.89 452.008 461.029 452.173 461.139 452.364C461.249 452.554 461.319 452.778 461.348 453.035H462.8V453.739H461.37C461.319 454.274 461.113 454.692 460.754 454.993C460.402 455.286 459.933 455.473 459.346 455.554L461.447 459.019H460.325ZM464.013 459.019V458.029L466.697 455.29C467.35 454.637 467.676 454.072 467.676 453.596C467.676 453.222 467.562 452.932 467.335 452.727C467.115 452.514 466.833 452.408 466.488 452.408C465.843 452.408 465.366 452.727 465.058 453.365L463.991 452.738C464.233 452.224 464.574 451.836 465.014 451.572C465.454 451.308 465.942 451.176 466.477 451.176C467.152 451.176 467.731 451.388 468.215 451.814C468.699 452.239 468.941 452.818 468.941 453.552C468.941 454.336 468.505 455.172 467.632 456.06L465.894 457.798H469.084V459.019H464.013ZM475.074 458.073C474.546 458.799 473.805 459.162 472.852 459.162C471.899 459.162 471.154 458.799 470.619 458.073C470.091 457.347 469.827 456.379 469.827 455.169C469.827 453.959 470.091 452.991 470.619 452.265C471.154 451.539 471.899 451.176 472.852 451.176C473.805 451.176 474.546 451.539 475.074 452.265C475.609 452.991 475.877 453.959 475.877 455.169C475.877 456.379 475.609 457.347 475.074 458.073ZM472.852 457.93C473.424 457.93 473.86 457.691 474.161 457.215C474.462 456.738 474.612 456.056 474.612 455.169C474.612 454.281 474.462 453.599 474.161 453.123C473.86 452.646 473.424 452.408 472.852 452.408C472.287 452.408 471.851 452.646 471.543 453.123C471.242 453.599 471.092 454.281 471.092 455.169C471.092 456.056 471.242 456.738 471.543 457.215C471.851 457.691 472.287 457.93 472.852 457.93ZM478.326 457.699L477.556 460.559H476.566L477.006 457.699H478.326ZM484.248 458.073C483.72 458.799 482.979 459.162 482.026 459.162C481.072 459.162 480.328 458.799 479.793 458.073C479.265 457.347 479.001 456.379 479.001 455.169C479.001 453.959 479.265 452.991 479.793 452.265C480.328 451.539 481.072 451.176 482.026 451.176C482.979 451.176 483.72 451.539 484.248 452.265C484.783 452.991 485.051 453.959 485.051 455.169C485.051 456.379 484.783 457.347 484.248 458.073ZM482.026 457.93C482.598 457.93 483.034 457.691 483.335 457.215C483.635 456.738 483.786 456.056 483.786 455.169C483.786 454.281 483.635 453.599 483.335 453.123C483.034 452.646 482.598 452.408 482.026 452.408C481.461 452.408 481.025 452.646 480.717 453.123C480.416 453.599 480.266 454.281 480.266 455.169C480.266 456.056 480.416 456.738 480.717 457.215C481.025 457.691 481.461 457.93 482.026 457.93ZM491.176 458.073C490.648 458.799 489.908 459.162 488.954 459.162C488.001 459.162 487.257 458.799 486.721 458.073C486.193 457.347 485.929 456.379 485.929 455.169C485.929 453.959 486.193 452.991 486.721 452.265C487.257 451.539 488.001 451.176 488.954 451.176C489.908 451.176 490.648 451.539 491.176 452.265C491.712 452.991 491.979 453.959 491.979 455.169C491.979 456.379 491.712 457.347 491.176 458.073ZM488.954 457.93C489.526 457.93 489.963 457.691 490.263 457.215C490.564 456.738 490.714 456.056 490.714 455.169C490.714 454.281 490.564 453.599 490.263 453.123C489.963 452.646 489.526 452.408 488.954 452.408C488.39 452.408 487.953 452.646 487.645 453.123C487.345 453.599 487.194 454.281 487.194 455.169C487.194 456.056 487.345 456.738 487.645 457.215C487.953 457.691 488.39 457.93 488.954 457.93ZM498.105 458.073C497.577 458.799 496.836 459.162 495.883 459.162C494.93 459.162 494.185 458.799 493.65 458.073C493.122 457.347 492.858 456.379 492.858 455.169C492.858 453.959 493.122 452.991 493.65 452.265C494.185 451.539 494.93 451.176 495.883 451.176C496.836 451.176 497.577 451.539 498.105 452.265C498.64 452.991 498.908 453.959 498.908 455.169C498.908 456.379 498.64 457.347 498.105 458.073ZM495.883 457.93C496.455 457.93 496.891 457.691 497.192 457.215C497.493 456.738 497.643 456.056 497.643 455.169C497.643 454.281 497.493 453.599 497.192 453.123C496.891 452.646 496.455 452.408 495.883 452.408C495.318 452.408 494.882 452.646 494.574 453.123C494.273 453.599 494.123 454.281 494.123 455.169C494.123 456.056 494.273 456.738 494.574 457.215C494.882 457.691 495.318 457.93 495.883 457.93Z" fill="#32EFA0"/>
<path d="M274.036 258.108L271.858 250.408H273.189L274.806 256.425L276.555 250.408H277.721L279.459 256.425L281.076 250.408H282.407L280.229 258.108H278.766L277.138 252.487L275.499 258.108H274.036ZM283.6 255.864C283.688 256.282 283.89 256.605 284.205 256.832C284.52 257.052 284.905 257.162 285.36 257.162C285.991 257.162 286.464 256.935 286.779 256.48L287.758 257.052C287.215 257.851 286.412 258.251 285.349 258.251C284.454 258.251 283.732 257.98 283.182 257.437C282.632 256.887 282.357 256.194 282.357 255.358C282.357 254.537 282.628 253.851 283.171 253.301C283.714 252.744 284.41 252.465 285.261 252.465C286.068 252.465 286.728 252.747 287.241 253.312C287.762 253.877 288.022 254.562 288.022 255.369C288.022 255.494 288.007 255.659 287.978 255.864H283.6ZM283.589 254.896H286.823C286.742 254.449 286.555 254.111 286.262 253.884C285.976 253.657 285.639 253.543 285.25 253.543C284.81 253.543 284.443 253.664 284.15 253.906C283.857 254.148 283.67 254.478 283.589 254.896ZM289.067 258.108V250.078H290.255V258.108H289.067ZM294.231 258.251C293.402 258.251 292.709 257.972 292.152 257.415C291.602 256.858 291.327 256.172 291.327 255.358C291.327 254.537 291.602 253.851 292.152 253.301C292.709 252.744 293.402 252.465 294.231 252.465C294.766 252.465 295.254 252.593 295.694 252.85C296.134 253.107 296.464 253.451 296.684 253.884L295.661 254.478C295.536 254.214 295.345 254.009 295.089 253.862C294.839 253.708 294.55 253.631 294.22 253.631C293.736 253.631 293.329 253.796 292.999 254.126C292.676 254.456 292.515 254.867 292.515 255.358C292.515 255.849 292.676 256.26 292.999 256.59C293.329 256.92 293.736 257.085 294.22 257.085C294.542 257.085 294.832 257.008 295.089 256.854C295.353 256.7 295.551 256.495 295.683 256.238L296.706 256.821C296.471 257.261 296.134 257.609 295.694 257.866C295.254 258.123 294.766 258.251 294.231 258.251ZM300.075 258.251C299.268 258.251 298.582 257.972 298.018 257.415C297.453 256.858 297.171 256.172 297.171 255.358C297.171 254.544 297.453 253.858 298.018 253.301C298.582 252.744 299.268 252.465 300.075 252.465C300.889 252.465 301.574 252.744 302.132 253.301C302.696 253.858 302.979 254.544 302.979 255.358C302.979 256.172 302.696 256.858 302.132 257.415C301.574 257.972 300.889 258.251 300.075 258.251ZM298.854 256.601C299.184 256.931 299.591 257.096 300.075 257.096C300.559 257.096 300.966 256.931 301.296 256.601C301.626 256.271 301.791 255.857 301.791 255.358C301.791 254.859 301.626 254.445 301.296 254.115C300.966 253.785 300.559 253.62 300.075 253.62C299.591 253.62 299.184 253.785 298.854 254.115C298.524 254.445 298.359 254.859 298.359 255.358C298.359 255.857 298.524 256.271 298.854 256.601ZM310.059 252.465C310.682 252.465 311.184 252.667 311.566 253.07C311.947 253.473 312.138 254.016 312.138 254.698V258.108H310.95V254.775C310.95 254.394 310.854 254.1 310.664 253.895C310.473 253.682 310.213 253.576 309.883 253.576C309.516 253.576 309.223 253.697 309.003 253.939C308.79 254.181 308.684 254.544 308.684 255.028V258.108H307.496V254.775C307.496 254.394 307.404 254.1 307.221 253.895C307.045 253.682 306.792 253.576 306.462 253.576C306.102 253.576 305.809 253.701 305.582 253.95C305.354 254.192 305.241 254.551 305.241 255.028V258.108H304.053V252.608H305.241V253.268C305.593 252.733 306.117 252.465 306.814 252.465C307.518 252.465 308.038 252.755 308.376 253.334C308.742 252.755 309.303 252.465 310.059 252.465ZM314.344 255.864C314.432 256.282 314.634 256.605 314.949 256.832C315.265 257.052 315.65 257.162 316.104 257.162C316.735 257.162 317.208 256.935 317.523 256.48L318.502 257.052C317.96 257.851 317.157 258.251 316.093 258.251C315.199 258.251 314.476 257.98 313.926 257.437C313.376 256.887 313.101 256.194 313.101 255.358C313.101 254.537 313.373 253.851 313.915 253.301C314.458 252.744 315.155 252.465 316.005 252.465C316.812 252.465 317.472 252.747 317.985 253.312C318.506 253.877 318.766 254.562 318.766 255.369C318.766 255.494 318.752 255.659 318.722 255.864H314.344ZM314.333 254.896H317.567C317.487 254.449 317.3 254.111 317.006 253.884C316.72 253.657 316.383 253.543 315.994 253.543C315.554 253.543 315.188 253.664 314.894 253.906C314.601 254.148 314.414 254.478 314.333 254.896ZM325.675 252.465C326.43 252.465 327.075 252.744 327.611 253.301C328.146 253.858 328.414 254.544 328.414 255.358C328.414 256.165 328.146 256.85 327.611 257.415C327.075 257.972 326.43 258.251 325.675 258.251C324.839 258.251 324.197 257.939 323.75 257.316V258.108H322.562V250.408H323.75V253.389C324.197 252.773 324.839 252.465 325.675 252.465ZM324.245 256.623C324.575 256.953 324.989 257.118 325.488 257.118C325.986 257.118 326.401 256.953 326.731 256.623C327.061 256.286 327.226 255.864 327.226 255.358C327.226 254.852 327.061 254.434 326.731 254.104C326.401 253.767 325.986 253.598 325.488 253.598C324.989 253.598 324.575 253.767 324.245 254.104C323.915 254.434 323.75 254.852 323.75 255.358C323.75 255.864 323.915 256.286 324.245 256.623ZM333.846 252.608H335.034V258.108H333.846V257.316C333.399 257.939 332.757 258.251 331.921 258.251C331.166 258.251 330.521 257.972 329.985 257.415C329.45 256.85 329.182 256.165 329.182 255.358C329.182 254.544 329.45 253.858 329.985 253.301C330.521 252.744 331.166 252.465 331.921 252.465C332.757 252.465 333.399 252.773 333.846 253.389V252.608ZM330.865 256.623C331.195 256.953 331.61 257.118 332.108 257.118C332.607 257.118 333.021 256.953 333.351 256.623C333.681 256.286 333.846 255.864 333.846 255.358C333.846 254.852 333.681 254.434 333.351 254.104C333.021 253.767 332.607 253.598 332.108 253.598C331.61 253.598 331.195 253.767 330.865 254.104C330.535 254.434 330.37 254.852 330.37 255.358C330.37 255.864 330.535 256.286 330.865 256.623ZM339.015 258.251C338.186 258.251 337.493 257.972 336.936 257.415C336.386 256.858 336.111 256.172 336.111 255.358C336.111 254.537 336.386 253.851 336.936 253.301C337.493 252.744 338.186 252.465 339.015 252.465C339.55 252.465 340.038 252.593 340.478 252.85C340.918 253.107 341.248 253.451 341.468 253.884L340.445 254.478C340.32 254.214 340.13 254.009 339.873 253.862C339.624 253.708 339.334 253.631 339.004 253.631C338.52 253.631 338.113 253.796 337.783 254.126C337.46 254.456 337.299 254.867 337.299 255.358C337.299 255.849 337.46 256.26 337.783 256.59C338.113 256.92 338.52 257.085 339.004 257.085C339.327 257.085 339.616 257.008 339.873 256.854C340.137 256.7 340.335 256.495 340.467 256.238L341.49 256.821C341.255 257.261 340.918 257.609 340.478 257.866C340.038 258.123 339.55 258.251 339.015 258.251ZM347.211 258.108H345.792L343.537 255.567V258.108H342.349V250.408H343.537V255.039L345.671 252.608H347.123L344.703 255.303L347.211 258.108ZM348.252 255.688L348.01 252.608V250.408H349.44V252.608L349.187 255.688H348.252ZM349.308 257.998C349.146 258.159 348.952 258.24 348.725 258.24C348.497 258.24 348.303 258.159 348.142 257.998C347.98 257.837 347.9 257.642 347.9 257.415C347.9 257.188 347.977 256.993 348.131 256.832C348.292 256.671 348.49 256.59 348.725 256.59C348.952 256.59 349.146 256.671 349.308 256.832C349.469 256.993 349.55 257.188 349.55 257.415C349.55 257.642 349.469 257.837 349.308 257.998Z" fill="#F8F4FF" fill-opacity="0.6"/>
<path d="M276.414 418.307C275.871 418.791 275.171 419.033 274.313 419.033C273.455 419.033 272.754 418.791 272.212 418.307C271.669 417.815 271.398 417.159 271.398 416.338V411.19H272.663V416.261C272.663 416.73 272.798 417.104 273.07 417.383C273.348 417.661 273.763 417.801 274.313 417.801C274.863 417.801 275.273 417.661 275.545 417.383C275.823 417.104 275.963 416.73 275.963 416.261V411.19H277.228V416.338C277.228 417.159 276.956 417.815 276.414 418.307ZM281.499 413.247C282.129 413.247 282.639 413.448 283.028 413.852C283.416 414.255 283.611 414.809 283.611 415.513V418.89H282.423V415.634C282.423 415.223 282.313 414.908 282.093 414.688C281.873 414.468 281.572 414.358 281.191 414.358C280.773 414.358 280.435 414.49 280.179 414.754C279.922 415.01 279.794 415.406 279.794 415.942V418.89H278.606V413.39H279.794V414.094C280.153 413.529 280.721 413.247 281.499 413.247ZM284.89 418.89V410.86H286.078V418.89H284.89ZM290.053 419.033C289.247 419.033 288.561 418.754 287.996 418.197C287.432 417.639 287.149 416.954 287.149 416.14C287.149 415.326 287.432 414.64 287.996 414.083C288.561 413.525 289.247 413.247 290.053 413.247C290.867 413.247 291.553 413.525 292.11 414.083C292.675 414.64 292.957 415.326 292.957 416.14C292.957 416.954 292.675 417.639 292.11 418.197C291.553 418.754 290.867 419.033 290.053 419.033ZM288.832 417.383C289.162 417.713 289.569 417.878 290.053 417.878C290.537 417.878 290.944 417.713 291.274 417.383C291.604 417.053 291.769 416.638 291.769 416.14C291.769 415.641 291.604 415.227 291.274 414.897C290.944 414.567 290.537 414.402 290.053 414.402C289.569 414.402 289.162 414.567 288.832 414.897C288.502 415.227 288.337 415.641 288.337 416.14C288.337 416.638 288.502 417.053 288.832 417.383ZM296.627 419.033C295.799 419.033 295.106 418.754 294.548 418.197C293.998 417.639 293.723 416.954 293.723 416.14C293.723 415.318 293.998 414.633 294.548 414.083C295.106 413.525 295.799 413.247 296.627 413.247C297.163 413.247 297.65 413.375 298.09 413.632C298.53 413.888 298.86 414.233 299.08 414.666L298.057 415.26C297.933 414.996 297.742 414.79 297.485 414.644C297.236 414.49 296.946 414.413 296.616 414.413C296.132 414.413 295.725 414.578 295.395 414.908C295.073 415.238 294.911 415.648 294.911 416.14C294.911 416.631 295.073 417.042 295.395 417.372C295.725 417.702 296.132 417.867 296.616 417.867C296.939 417.867 297.229 417.79 297.485 417.636C297.749 417.482 297.947 417.276 298.079 417.02L299.102 417.603C298.868 418.043 298.53 418.391 298.09 418.648C297.65 418.904 297.163 419.033 296.627 419.033ZM304.823 418.89H303.404L301.149 416.349V418.89H299.961V411.19H301.149V415.821L303.283 413.39H304.735L302.315 416.085L304.823 418.89ZM311.474 411.19C312.53 411.19 313.407 411.56 314.103 412.301C314.807 413.041 315.159 413.954 315.159 415.04C315.159 416.118 314.807 417.031 314.103 417.779C313.407 418.519 312.53 418.89 311.474 418.89H308.449V411.19H311.474ZM311.474 417.68C312.2 417.68 312.791 417.43 313.245 416.932C313.707 416.433 313.938 415.802 313.938 415.04C313.938 414.27 313.707 413.639 313.245 413.148C312.791 412.649 312.2 412.4 311.474 412.4H309.714V417.68H311.474ZM317.358 412.345C317.211 412.491 317.035 412.565 316.83 412.565C316.624 412.565 316.445 412.491 316.291 412.345C316.144 412.191 316.071 412.011 316.071 411.806C316.071 411.6 316.144 411.424 316.291 411.278C316.437 411.124 316.617 411.047 316.83 411.047C317.042 411.047 317.222 411.124 317.369 411.278C317.515 411.424 317.589 411.6 317.589 411.806C317.589 412.011 317.512 412.191 317.358 412.345ZM316.236 418.89V413.39H317.424V418.89H316.236ZM319.838 414.908C319.838 415.091 319.937 415.238 320.135 415.348C320.34 415.45 320.586 415.542 320.872 415.623C321.165 415.696 321.458 415.784 321.752 415.887C322.045 415.989 322.291 416.165 322.489 416.415C322.694 416.657 322.797 416.965 322.797 417.339C322.797 417.867 322.591 418.281 322.181 418.582C321.777 418.882 321.268 419.033 320.652 419.033C320.109 419.033 319.643 418.919 319.255 418.692C318.866 418.464 318.584 418.149 318.408 417.746L319.431 417.152C319.621 417.68 320.028 417.944 320.652 417.944C321.275 417.944 321.587 417.738 321.587 417.328C321.587 417.152 321.484 417.009 321.279 416.899C321.081 416.789 320.835 416.697 320.542 416.624C320.256 416.543 319.966 416.451 319.673 416.349C319.379 416.246 319.13 416.077 318.925 415.843C318.727 415.601 318.628 415.296 318.628 414.93C318.628 414.424 318.818 414.017 319.2 413.709C319.588 413.401 320.069 413.247 320.641 413.247C321.095 413.247 321.499 413.349 321.851 413.555C322.21 413.753 322.485 414.031 322.676 414.391L321.675 414.952C321.484 414.534 321.139 414.325 320.641 414.325C320.413 414.325 320.223 414.376 320.069 414.479C319.915 414.574 319.838 414.717 319.838 414.908ZM326.297 419.033C325.469 419.033 324.776 418.754 324.218 418.197C323.668 417.639 323.393 416.954 323.393 416.14C323.393 415.318 323.668 414.633 324.218 414.083C324.776 413.525 325.469 413.247 326.297 413.247C326.833 413.247 327.32 413.375 327.76 413.632C328.2 413.888 328.53 414.233 328.75 414.666L327.727 415.26C327.603 414.996 327.412 414.79 327.155 414.644C326.906 414.49 326.616 414.413 326.286 414.413C325.802 414.413 325.395 414.578 325.065 414.908C324.743 415.238 324.581 415.648 324.581 416.14C324.581 416.631 324.743 417.042 325.065 417.372C325.395 417.702 325.802 417.867 326.286 417.867C326.609 417.867 326.899 417.79 327.155 417.636C327.419 417.482 327.617 417.276 327.749 417.02L328.772 417.603C328.538 418.043 328.2 418.391 327.76 418.648C327.32 418.904 326.833 419.033 326.297 419.033ZM332.141 419.033C331.334 419.033 330.649 418.754 330.084 418.197C329.519 417.639 329.237 416.954 329.237 416.14C329.237 415.326 329.519 414.64 330.084 414.083C330.649 413.525 331.334 413.247 332.141 413.247C332.955 413.247 333.641 413.525 334.198 414.083C334.763 414.64 335.045 415.326 335.045 416.14C335.045 416.954 334.763 417.639 334.198 418.197C333.641 418.754 332.955 419.033 332.141 419.033ZM330.92 417.383C331.25 417.713 331.657 417.878 332.141 417.878C332.625 417.878 333.032 417.713 333.362 417.383C333.692 417.053 333.857 416.638 333.857 416.14C333.857 415.641 333.692 415.227 333.362 414.897C333.032 414.567 332.625 414.402 332.141 414.402C331.657 414.402 331.25 414.567 330.92 414.897C330.59 415.227 330.425 415.641 330.425 416.14C330.425 416.638 330.59 417.053 330.92 417.383ZM339.826 413.39H341.014V418.89H339.826V418.186C339.467 418.75 338.899 419.033 338.121 419.033C337.491 419.033 336.981 418.831 336.592 418.428C336.204 418.024 336.009 417.471 336.009 416.767V413.39H337.197V416.646C337.197 417.056 337.307 417.372 337.527 417.592C337.747 417.812 338.048 417.922 338.429 417.922C338.847 417.922 339.185 417.793 339.441 417.537C339.698 417.273 339.826 416.873 339.826 416.338V413.39ZM345.296 413.247C345.927 413.247 346.437 413.448 346.825 413.852C347.214 414.255 347.408 414.809 347.408 415.513V418.89H346.22V415.634C346.22 415.223 346.11 414.908 345.89 414.688C345.67 414.468 345.37 414.358 344.988 414.358C344.57 414.358 344.233 414.49 343.976 414.754C343.72 415.01 343.591 415.406 343.591 415.942V418.89H342.403V413.39H343.591V414.094C343.951 413.529 344.519 413.247 345.296 413.247ZM351.757 414.534H350.393V417.174C350.393 417.401 350.444 417.566 350.547 417.669C350.649 417.764 350.8 417.819 350.998 417.834C351.203 417.841 351.456 417.837 351.757 417.823V418.89C350.847 419 350.195 418.923 349.799 418.659C349.403 418.387 349.205 417.892 349.205 417.174V414.534H348.193V413.39H349.205V412.202L350.393 411.85V413.39H351.757V414.534ZM353.697 414.908C353.697 415.091 353.796 415.238 353.994 415.348C354.199 415.45 354.445 415.542 354.731 415.623C355.024 415.696 355.318 415.784 355.611 415.887C355.904 415.989 356.15 416.165 356.348 416.415C356.553 416.657 356.656 416.965 356.656 417.339C356.656 417.867 356.451 418.281 356.04 418.582C355.637 418.882 355.127 419.033 354.511 419.033C353.968 419.033 353.503 418.919 353.114 418.692C352.725 418.464 352.443 418.149 352.267 417.746L353.29 417.152C353.481 417.68 353.888 417.944 354.511 417.944C355.134 417.944 355.446 417.738 355.446 417.328C355.446 417.152 355.343 417.009 355.138 416.899C354.94 416.789 354.694 416.697 354.401 416.624C354.115 416.543 353.825 416.451 353.532 416.349C353.239 416.246 352.989 416.077 352.784 415.843C352.586 415.601 352.487 415.296 352.487 414.93C352.487 414.424 352.678 414.017 353.059 413.709C353.448 413.401 353.928 413.247 354.5 413.247C354.955 413.247 355.358 413.349 355.71 413.555C356.069 413.753 356.344 414.031 356.535 414.391L355.534 414.952C355.343 414.534 354.999 414.325 354.5 414.325C354.273 414.325 354.082 414.376 353.928 414.479C353.774 414.574 353.697 414.717 353.697 414.908ZM357.942 416.47L357.7 413.39V411.19H359.13V413.39L358.877 416.47H357.942ZM358.998 418.78C358.837 418.941 358.643 419.022 358.415 419.022C358.188 419.022 357.994 418.941 357.832 418.78C357.671 418.618 357.59 418.424 357.59 418.197C357.59 417.969 357.667 417.775 357.821 417.614C357.983 417.452 358.181 417.372 358.415 417.372C358.643 417.372 358.837 417.452 358.998 417.614C359.16 417.775 359.24 417.969 359.24 418.197C359.24 418.424 359.16 418.618 358.998 418.78Z" fill="#F8F4FF" fill-opacity="0.6"/>
<rect x="270.705" y="488.081" width="227.709" height="32.6632" rx="16.3316" fill="white" fill-opacity="0.1"/>
<rect x="271.171" y="488.548" width="226.776" height="31.73" rx="15.865" stroke="white" stroke-opacity="0.2" stroke-width="0.933234"/>
<path d="M323.979 507.413V501.594H326.053C326.506 501.594 326.881 501.677 327.178 501.842C327.475 502.006 327.698 502.232 327.846 502.518C327.993 502.802 328.067 503.122 328.067 503.478C328.067 503.836 327.992 504.158 327.843 504.444C327.695 504.728 327.472 504.953 327.172 505.12C326.875 505.285 326.501 505.367 326.05 505.367H324.624V504.623H325.971C326.257 504.623 326.489 504.574 326.667 504.475C326.845 504.375 326.975 504.238 327.059 504.066C327.142 503.894 327.184 503.698 327.184 503.478C327.184 503.258 327.142 503.063 327.059 502.893C326.975 502.722 326.844 502.589 326.664 502.492C326.486 502.396 326.251 502.347 325.959 502.347H324.857V507.413H323.979ZM330.374 507.509C330.098 507.509 329.848 507.458 329.624 507.356C329.401 507.252 329.224 507.101 329.093 506.904C328.964 506.707 328.9 506.466 328.9 506.18C328.9 505.933 328.947 505.731 329.042 505.572C329.137 505.413 329.265 505.287 329.426 505.194C329.587 505.101 329.766 505.031 329.965 504.984C330.164 504.936 330.367 504.9 330.573 504.876C330.835 504.845 331.047 504.821 331.21 504.802C331.373 504.781 331.491 504.748 331.565 504.702C331.639 504.657 331.676 504.583 331.676 504.481V504.461C331.676 504.213 331.605 504.021 331.465 503.884C331.327 503.748 331.121 503.68 330.846 503.68C330.56 503.68 330.335 503.743 330.17 503.87C330.007 503.995 329.894 504.134 329.832 504.288L329.034 504.106C329.128 503.841 329.266 503.627 329.448 503.464C329.632 503.299 329.843 503.18 330.082 503.106C330.32 503.03 330.571 502.992 330.835 502.992C331.009 502.992 331.194 503.013 331.389 503.055C331.586 503.094 331.769 503.168 331.94 503.276C332.112 503.384 332.253 503.539 332.363 503.739C332.473 503.938 332.528 504.197 332.528 504.515V507.413H331.698V506.816H331.664C331.609 506.926 331.527 507.034 331.417 507.14C331.307 507.246 331.166 507.334 330.994 507.404C330.821 507.474 330.615 507.509 330.374 507.509ZM330.559 506.827C330.794 506.827 330.995 506.781 331.161 506.688C331.33 506.595 331.458 506.474 331.545 506.325C331.634 506.173 331.678 506.011 331.678 505.839V505.276C331.648 505.307 331.589 505.335 331.502 505.361C331.417 505.386 331.319 505.408 331.21 505.427C331.1 505.444 330.993 505.46 330.889 505.475C330.784 505.488 330.697 505.5 330.627 505.509C330.462 505.53 330.312 505.565 330.176 505.614C330.041 505.664 329.933 505.735 329.852 505.827C329.772 505.918 329.732 506.039 329.732 506.191C329.732 506.401 329.81 506.56 329.965 506.668C330.121 506.774 330.319 506.827 330.559 506.827ZM334.155 509.049C334.028 509.049 333.913 509.039 333.809 509.018C333.705 508.999 333.627 508.978 333.576 508.955L333.78 508.259C333.936 508.301 334.074 508.319 334.195 508.313C334.316 508.307 334.423 508.262 334.516 508.177C334.611 508.092 334.694 507.952 334.766 507.759L334.871 507.469L333.275 503.049H334.184L335.289 506.435H335.334L336.439 503.049H337.351L335.553 507.995C335.47 508.222 335.364 508.414 335.235 508.572C335.106 508.731 334.953 508.85 334.775 508.93C334.597 509.009 334.39 509.049 334.155 509.049ZM341.347 501.594V507.413H340.498V501.594H341.347ZM343.875 507.509C343.599 507.509 343.349 507.458 343.125 507.356C342.902 507.252 342.725 507.101 342.594 506.904C342.465 506.707 342.401 506.466 342.401 506.18C342.401 505.933 342.448 505.731 342.543 505.572C342.638 505.413 342.765 505.287 342.926 505.194C343.087 505.101 343.267 505.031 343.466 504.984C343.665 504.936 343.868 504.9 344.074 504.876C344.335 504.845 344.548 504.821 344.71 504.802C344.873 504.781 344.992 504.748 345.066 504.702C345.139 504.657 345.176 504.583 345.176 504.481V504.461C345.176 504.213 345.106 504.021 344.966 503.884C344.828 503.748 344.621 503.68 344.347 503.68C344.061 503.68 343.835 503.743 343.671 503.87C343.508 503.995 343.395 504.134 343.333 504.288L342.534 504.106C342.629 503.841 342.767 503.627 342.949 503.464C343.133 503.299 343.344 503.18 343.583 503.106C343.821 503.03 344.072 502.992 344.335 502.992C344.51 502.992 344.694 503.013 344.889 503.055C345.086 503.094 345.27 503.168 345.441 503.276C345.613 503.384 345.754 503.539 345.864 503.739C345.974 503.938 346.029 504.197 346.029 504.515V507.413H345.199V506.816H345.165C345.11 506.926 345.028 507.034 344.918 507.14C344.808 507.246 344.667 507.334 344.495 507.404C344.322 507.474 344.116 507.509 343.875 507.509ZM344.06 506.827C344.295 506.827 344.496 506.781 344.662 506.688C344.831 506.595 344.959 506.474 345.046 506.325C345.135 506.173 345.179 506.011 345.179 505.839V505.276C345.149 505.307 345.09 505.335 345.003 505.361C344.918 505.386 344.82 505.408 344.71 505.427C344.601 505.444 344.494 505.46 344.389 505.475C344.285 505.488 344.198 505.5 344.128 505.509C343.963 505.53 343.813 505.565 343.676 505.614C343.542 505.664 343.434 505.735 343.353 505.827C343.273 505.918 343.233 506.039 343.233 506.191C343.233 506.401 343.311 506.56 343.466 506.668C343.621 506.774 343.819 506.827 344.06 506.827ZM349.312 503.049V503.731H346.929V503.049H349.312ZM347.568 502.004H348.418V506.131C348.418 506.296 348.442 506.42 348.491 506.504C348.541 506.585 348.604 506.641 348.682 506.671C348.761 506.7 348.847 506.714 348.94 506.714C349.008 506.714 349.068 506.709 349.119 506.7C349.17 506.69 349.21 506.682 349.239 506.677L349.392 507.379C349.343 507.397 349.273 507.416 349.182 507.435C349.091 507.456 348.977 507.468 348.841 507.469C348.617 507.473 348.409 507.433 348.216 507.35C348.023 507.267 347.866 507.138 347.747 506.964C347.628 506.789 347.568 506.571 347.568 506.307V502.004ZM352.201 507.501C351.771 507.501 351.401 507.409 351.091 507.225C350.782 507.039 350.543 506.779 350.375 506.444C350.208 506.107 350.125 505.712 350.125 505.259C350.125 504.812 350.208 504.418 350.375 504.077C350.543 503.736 350.778 503.47 351.079 503.279C351.382 503.088 351.736 502.992 352.142 502.992C352.388 502.992 352.627 503.033 352.858 503.114C353.089 503.196 353.296 503.324 353.48 503.498C353.663 503.672 353.808 503.898 353.914 504.177C354.02 504.453 354.073 504.789 354.073 505.185V505.486H350.605V504.85H353.241C353.241 504.627 353.196 504.429 353.105 504.256C353.014 504.082 352.886 503.945 352.721 503.844C352.558 503.744 352.367 503.694 352.147 503.694C351.909 503.694 351.7 503.753 351.522 503.87C351.346 503.986 351.21 504.137 351.113 504.325C351.019 504.51 350.971 504.712 350.971 504.93V505.427C350.971 505.718 351.022 505.967 351.125 506.171C351.229 506.376 351.374 506.532 351.559 506.64C351.745 506.746 351.962 506.799 352.21 506.799C352.371 506.799 352.518 506.776 352.65 506.731C352.783 506.683 352.897 506.613 352.994 506.521C353.091 506.428 353.164 506.313 353.216 506.177L354.02 506.322C353.955 506.558 353.84 506.766 353.673 506.944C353.508 507.12 353.301 507.257 353.051 507.356C352.803 507.452 352.52 507.501 352.201 507.501ZM355.131 507.413V503.049H355.952V503.742H355.998C356.077 503.507 356.218 503.323 356.418 503.188C356.621 503.052 356.85 502.984 357.106 502.984C357.159 502.984 357.221 502.986 357.293 502.989C357.367 502.993 357.425 502.998 357.467 503.004V503.816C357.433 503.807 357.372 503.796 357.285 503.785C357.198 503.771 357.111 503.765 357.023 503.765C356.823 503.765 356.644 503.807 356.487 503.893C356.331 503.976 356.208 504.093 356.117 504.242C356.026 504.39 355.981 504.558 355.981 504.748V507.413H355.131ZM361.496 507.413L360.212 503.049H361.09L361.945 506.254H361.987L362.845 503.049H363.723L364.575 506.239H364.618L365.467 503.049H366.345L365.064 507.413H364.198L363.311 504.262H363.246L362.359 507.413H361.496ZM367.267 507.413V503.049H368.116V507.413H367.267ZM367.696 502.376C367.548 502.376 367.421 502.326 367.315 502.228C367.211 502.128 367.159 502.008 367.159 501.87C367.159 501.73 367.211 501.611 367.315 501.512C367.421 501.412 367.548 501.361 367.696 501.361C367.844 501.361 367.969 501.412 368.074 501.512C368.18 501.611 368.233 501.73 368.233 501.87C368.233 502.008 368.18 502.128 368.074 502.228C367.969 502.326 367.844 502.376 367.696 502.376ZM371.411 503.049V503.731H369.028V503.049H371.411ZM369.667 502.004H370.517V506.131C370.517 506.296 370.541 506.42 370.59 506.504C370.64 506.585 370.703 506.641 370.781 506.671C370.86 506.7 370.946 506.714 371.039 506.714C371.107 506.714 371.167 506.709 371.218 506.7C371.269 506.69 371.309 506.682 371.338 506.677L371.491 507.379C371.442 507.397 371.372 507.416 371.281 507.435C371.19 507.456 371.076 507.468 370.94 507.469C370.716 507.473 370.508 507.433 370.315 507.35C370.122 507.267 369.965 507.138 369.846 506.964C369.727 506.789 369.667 506.571 369.667 506.307V502.004ZM373.41 504.822V507.413H372.56V501.594H373.398V503.759H373.452C373.555 503.524 373.711 503.338 373.921 503.2C374.131 503.061 374.406 502.992 374.745 502.992C375.044 502.992 375.305 503.054 375.529 503.177C375.754 503.3 375.929 503.484 376.052 503.728C376.177 503.97 376.239 504.273 376.239 504.637V507.413H375.39V504.739C375.39 504.419 375.307 504.171 375.143 503.995C374.978 503.817 374.749 503.728 374.455 503.728C374.254 503.728 374.074 503.771 373.915 503.856C373.758 503.941 373.634 504.066 373.543 504.231C373.454 504.394 373.41 504.591 373.41 504.822Z" fill="white"/>
<path d="M402.389 509.111C401.573 509.111 400.878 508.923 400.305 508.548C399.739 508.172 399.343 507.657 399.117 507.003L400.317 506.292C400.656 507.256 401.359 507.738 402.426 507.738C402.951 507.738 403.343 507.636 403.601 507.432C403.868 507.219 404.001 506.946 404.001 506.611C404.001 506.259 403.86 505.994 403.577 505.814C403.294 505.626 402.793 505.421 402.074 505.201C401.67 505.078 401.343 504.964 401.092 504.858C400.842 504.751 400.575 504.604 400.292 504.416C400.018 504.22 399.812 503.979 399.674 503.693C399.537 503.407 399.468 503.072 399.468 502.688C399.468 501.928 399.735 501.327 400.268 500.886C400.802 500.436 401.444 500.211 402.195 500.211C402.874 500.211 403.468 500.379 403.977 500.714C404.486 501.049 404.878 501.511 405.153 502.099L403.977 502.786C403.621 501.985 403.028 501.584 402.195 501.584C401.791 501.584 401.468 501.683 401.226 501.879C400.983 502.067 400.862 502.324 400.862 502.651C400.862 502.97 400.983 503.223 401.226 503.411C401.476 503.591 401.925 503.783 402.571 503.987C402.894 504.093 403.129 504.175 403.274 504.232C403.428 504.281 403.638 504.363 403.904 504.478C404.179 504.592 404.385 504.706 404.522 504.821C404.66 504.935 404.805 505.078 404.959 505.25C405.12 505.421 405.233 505.618 405.298 505.838C405.363 506.059 405.395 506.308 405.395 506.586C405.395 507.362 405.116 507.98 404.559 508.437C404.009 508.887 403.286 509.111 402.389 509.111Z" fill="white"/>
<path d="M410.991 502.823H412.3V508.952H410.991V508.069C410.499 508.764 409.792 509.111 408.87 509.111C408.038 509.111 407.327 508.801 406.737 508.18C406.147 507.55 405.853 506.786 405.853 505.887C405.853 504.98 406.147 504.216 406.737 503.595C407.327 502.974 408.038 502.663 408.87 502.663C409.792 502.663 410.499 503.006 410.991 503.693V502.823ZM407.707 507.297C408.071 507.665 408.527 507.849 409.076 507.849C409.626 507.849 410.082 507.665 410.446 507.297C410.81 506.921 410.991 506.451 410.991 505.887C410.991 505.323 410.81 504.858 410.446 504.49C410.082 504.114 409.626 503.926 409.076 503.926C408.527 503.926 408.071 504.114 407.707 504.49C407.343 504.858 407.162 505.323 407.162 505.887C407.162 506.451 407.343 506.921 407.707 507.297Z" fill="white"/>
<path d="M418.141 502.823H419.45V508.952H418.141V508.069C417.648 508.764 416.941 509.111 416.02 509.111C415.188 509.111 414.477 508.801 413.887 508.18C413.297 507.55 413.002 506.786 413.002 505.887C413.002 504.98 413.297 504.216 413.887 503.595C414.477 502.974 415.188 502.663 416.02 502.663C416.941 502.663 417.648 503.006 418.141 503.693V502.823ZM414.856 507.297C415.22 507.665 415.676 507.849 416.226 507.849C416.775 507.849 417.232 507.665 417.595 507.297C417.959 506.921 418.141 506.451 418.141 505.887C418.141 505.323 417.959 504.858 417.595 504.49C417.232 504.114 416.775 503.926 416.226 503.926C415.676 503.926 415.22 504.114 414.856 504.49C414.493 504.858 414.311 505.323 414.311 505.887C414.311 506.451 414.493 506.921 414.856 507.297Z" fill="white"/>
<path d="M423.399 509.111C422.583 509.111 421.889 508.923 421.315 508.548C420.749 508.172 420.353 507.657 420.127 507.003L421.327 506.292C421.666 507.256 422.369 507.738 423.436 507.738C423.961 507.738 424.353 507.636 424.611 507.432C424.878 507.219 425.011 506.946 425.011 506.611C425.011 506.259 424.87 505.994 424.587 505.814C424.304 505.626 423.803 505.421 423.084 505.201C422.68 505.078 422.353 504.964 422.103 504.858C421.852 504.751 421.586 504.604 421.303 504.416C421.028 504.22 420.822 503.979 420.685 503.693C420.547 503.407 420.479 503.072 420.479 502.688C420.479 501.928 420.745 501.327 421.278 500.886C421.812 500.436 422.454 500.211 423.206 500.211C423.884 500.211 424.478 500.379 424.987 500.714C425.496 501.049 425.888 501.511 426.163 502.099L424.987 502.786C424.632 501.985 424.038 501.584 423.206 501.584C422.802 501.584 422.478 501.683 422.236 501.879C421.994 502.067 421.872 502.324 421.872 502.651C421.872 502.97 421.994 503.223 422.236 503.411C422.486 503.591 422.935 503.783 423.581 503.987C423.904 504.093 424.139 504.175 424.284 504.232C424.438 504.281 424.648 504.363 424.914 504.478C425.189 504.592 425.395 504.706 425.533 504.821C425.67 504.935 425.815 505.078 425.969 505.25C426.131 505.421 426.244 505.618 426.308 505.838C426.373 506.059 426.405 506.308 426.405 506.586C426.405 507.362 426.126 507.98 425.569 508.437C425.02 508.887 424.296 509.111 423.399 509.111Z" fill="white"/>
<path d="M430.224 500.371C430.983 500.371 431.613 500.624 432.114 501.131C432.615 501.638 432.866 502.271 432.866 503.031C432.866 503.791 432.615 504.424 432.114 504.931C431.613 505.43 430.983 505.679 430.224 505.679H427.981V508.952H427.339V500.371H430.224ZM430.224 505.066C430.805 505.066 431.282 504.874 431.654 504.49C432.034 504.106 432.223 503.619 432.223 503.031C432.223 502.434 432.034 501.944 431.654 501.56C431.282 501.176 430.805 500.984 430.224 500.984H427.981V505.066H430.224Z" fill="white"/>
<path d="M438.694 502.823H439.312V508.952H438.694V507.567C438.435 508.041 438.08 508.413 437.627 508.682C437.175 508.952 436.662 509.087 436.088 509.087C435.224 509.087 434.484 508.78 433.87 508.167C433.256 507.546 432.949 506.786 432.949 505.887C432.949 504.988 433.256 504.232 433.87 503.619C434.484 502.998 435.224 502.688 436.088 502.688C436.662 502.688 437.175 502.823 437.627 503.092C438.08 503.362 438.435 503.734 438.694 504.208V502.823ZM434.307 507.738C434.808 508.245 435.418 508.498 436.137 508.498C436.856 508.498 437.462 508.245 437.955 507.738C438.448 507.232 438.694 506.615 438.694 505.887C438.694 505.16 438.448 504.543 437.955 504.036C437.462 503.53 436.856 503.276 436.137 503.276C435.418 503.276 434.808 503.53 434.307 504.036C433.814 504.543 433.567 505.16 433.567 505.887C433.567 506.615 433.814 507.232 434.307 507.738Z" fill="white"/>
<path d="M445.124 502.823H445.779L443.161 509.516C442.926 510.121 442.595 510.595 442.167 510.938C441.739 511.289 441.27 511.445 440.761 511.404V510.828C441.149 510.86 441.496 510.746 441.803 510.484C442.118 510.231 442.373 509.867 442.567 509.393L442.7 509.062L439.912 502.823H440.567L443.015 508.278L445.124 502.823Z" fill="white"/>
<path d="M394.345 497.425L392.544 501.158H385.288C385.151 500.907 385.046 500.61 385.019 500.272C384.98 499.78 385.11 499.263 385.375 498.806C385.904 497.968 386.738 497.425 387.676 497.425H394.345Z" fill="#00B88B"/>
<path d="M390.207 510.481H390.207L390.427 510.483L390.207 510.481ZM391.354 506.465C391.353 506.466 391.353 506.467 391.352 506.468C391.421 506.506 391.94 506.804 392.266 507.331C392.398 507.545 392.498 507.795 392.523 508.081C392.561 508.496 392.436 508.932 392.183 509.319V509.319C391.678 510.026 390.881 510.484 389.985 510.484H390.646H390.647C392.106 510.484 393.303 509.273 393.404 507.744L393.405 507.331L393.412 505.063C393.412 504.467 393.112 503.91 392.63 503.609L390.222 502.085L388.745 504.89L391.354 506.465Z" fill="white"/>
<path d="M386.154 501.47C386.155 501.469 386.156 501.468 386.156 501.467C386.087 501.429 385.563 501.128 385.234 500.596C385.102 500.381 385.001 500.129 384.975 499.84C384.937 499.421 385.063 498.981 385.318 498.591V498.591C385.828 497.877 386.632 497.415 387.535 497.415H386.869H386.867C385.396 497.415 384.189 498.637 384.087 500.179L384.086 500.596L384.079 502.885C384.079 503.486 384.381 504.048 384.868 504.352L387.256 505.814L388.745 503.15L386.154 501.47Z" fill="white"/>
<path d="M383.112 510.479L384.914 506.746H392.169C392.306 506.997 392.411 507.294 392.438 507.632C392.477 508.124 392.347 508.641 392.082 509.098C391.553 509.936 390.719 510.479 389.781 510.479H383.112Z" fill="#00B88B"/>
<g clip-path="url(#clip0_1_13982)">
<path d="M285.24 196.454C285.223 196.991 285.291 197.528 285.441 198.043C285.596 198.485 285.788 198.912 286.014 199.321C286.091 199.443 286.135 199.584 286.141 199.729C286.13 199.837 286.094 199.942 286.035 200.033C285.975 200.125 285.896 200.201 285.802 200.255L284.741 201.006C284.604 201.104 284.442 201.16 284.275 201.168C284.176 201.164 284.079 201.14 283.99 201.098C283.901 201.055 283.821 200.995 283.755 200.921C283.509 200.674 283.295 200.396 283.119 200.094C282.942 199.793 282.762 199.435 282.578 199.02C281.957 199.805 281.166 200.436 280.267 200.864C279.369 201.292 278.385 201.506 277.392 201.49C276.75 201.525 276.108 201.431 275.503 201.211C274.899 200.992 274.344 200.652 273.87 200.212C273.432 199.761 273.091 199.222 272.868 198.631C272.646 198.04 272.546 197.408 272.577 196.776C272.548 196.089 272.673 195.404 272.941 194.773C273.209 194.141 273.614 193.578 274.125 193.126C275.353 192.147 276.891 191.654 278.452 191.741C279.077 191.742 279.701 191.789 280.319 191.88C280.969 191.973 281.644 192.102 282.344 192.267V190.957C282.447 189.93 282.146 188.904 281.507 188.101C280.688 187.463 279.66 187.168 278.632 187.274C277.993 187.277 277.356 187.357 276.734 187.51C276.087 187.667 275.453 187.871 274.836 188.122C274.636 188.215 274.431 188.294 274.22 188.358H273.945C273.697 188.358 273.573 188.172 273.573 187.8V186.952C273.558 186.736 273.602 186.521 273.701 186.329C273.834 186.164 274.005 186.035 274.199 185.953C274.909 185.609 275.652 185.339 276.416 185.148C277.313 184.915 278.236 184.799 279.163 184.804C280.829 184.655 282.486 185.176 283.776 186.254C284.301 186.848 284.701 187.543 284.952 188.298C285.204 189.053 285.302 189.851 285.24 190.645V196.454ZM278.081 199.17C278.703 199.161 279.319 199.049 279.905 198.838C280.551 198.611 281.126 198.215 281.57 197.689C281.844 197.38 282.047 197.013 282.164 196.615C282.286 196.109 282.343 195.59 282.334 195.069V194.317C281.799 194.188 281.257 194.087 280.711 194.017C280.162 193.946 279.61 193.91 279.057 193.909C278.128 193.839 277.203 194.093 276.437 194.629C276.16 194.876 275.941 195.182 275.797 195.526C275.652 195.87 275.584 196.242 275.599 196.615C275.574 196.958 275.619 197.303 275.73 197.628C275.841 197.953 276.017 198.251 276.246 198.505C276.494 198.732 276.783 198.908 277.098 199.022C277.413 199.137 277.747 199.187 278.081 199.17ZM292.24 201.103C292.001 201.125 291.761 201.065 291.561 200.931C291.373 200.74 291.244 200.497 291.19 200.233L287.064 186.426C286.984 186.193 286.931 185.952 286.905 185.706C286.896 185.646 286.901 185.585 286.92 185.528C286.938 185.47 286.97 185.418 287.012 185.375C287.055 185.332 287.106 185.3 287.163 185.281C287.22 185.262 287.281 185.257 287.34 185.266H289.069C289.311 185.242 289.554 185.302 289.758 185.438C289.933 185.635 290.054 185.876 290.108 186.136L293.067 197.946L295.814 186.136C295.856 185.875 295.979 185.635 296.164 185.449C296.376 185.316 296.625 185.256 296.874 185.277H298.296C298.544 185.256 298.794 185.316 299.006 185.449C299.189 185.639 299.308 185.883 299.345 186.147L302.114 198.108L305.168 186.147C305.224 185.885 305.349 185.644 305.529 185.449C305.732 185.313 305.976 185.252 306.218 185.277H307.851C307.91 185.268 307.971 185.273 308.028 185.292C308.085 185.311 308.136 185.343 308.179 185.386C308.221 185.429 308.253 185.481 308.271 185.538C308.29 185.596 308.295 185.657 308.286 185.717C308.295 185.81 308.295 185.903 308.286 185.996C308.252 186.145 308.21 186.292 308.159 186.436L303.917 200.244C303.862 200.508 303.733 200.751 303.545 200.942C303.345 201.075 303.106 201.136 302.867 201.114H301.318C301.067 201.14 300.815 201.076 300.608 200.931C300.426 200.731 300.307 200.481 300.268 200.212L297.521 188.713L294.806 200.201C294.767 200.47 294.649 200.721 294.467 200.921C294.259 201.065 294.007 201.13 293.756 201.103H292.24ZM314.894 201.576C313.98 201.577 313.069 201.473 312.178 201.264C311.47 201.12 310.785 200.878 310.142 200.545C309.949 200.462 309.784 200.323 309.669 200.145C309.554 199.967 309.493 199.759 309.495 199.546V198.644C309.495 198.272 309.63 198.086 309.898 198.086C310.011 198.088 310.122 198.11 310.227 198.15L310.672 198.333C311.295 198.612 311.946 198.821 312.613 198.956C313.311 199.101 314.022 199.173 314.734 199.17C315.631 199.224 316.525 199.02 317.312 198.58C317.599 198.407 317.835 198.16 317.995 197.863C318.156 197.567 318.235 197.232 318.224 196.894C318.23 196.665 318.191 196.437 318.109 196.223C318.027 196.009 317.904 195.814 317.746 195.649C317.211 195.195 316.58 194.871 315.901 194.704L313.345 193.888C312.269 193.585 311.31 192.956 310.598 192.084C310.03 191.344 309.72 190.434 309.718 189.496C309.703 188.804 309.868 188.119 310.195 187.51C310.512 186.938 310.942 186.437 311.457 186.039C311.998 185.623 312.609 185.31 313.26 185.116C313.981 184.905 314.727 184.801 315.477 184.804C315.874 184.804 316.271 184.829 316.665 184.88C317.068 184.93 317.45 184.998 317.81 185.084C318.171 185.17 318.507 185.263 318.818 185.363C319.074 185.444 319.322 185.548 319.56 185.674C319.761 185.784 319.938 185.934 320.08 186.114C320.192 186.29 320.247 186.496 320.239 186.705V187.553C320.239 187.925 320.104 188.111 319.836 188.111C319.598 188.085 319.368 188.012 319.157 187.897C318.087 187.426 316.93 187.192 315.763 187.21C314.952 187.167 314.143 187.341 313.419 187.714C313.148 187.875 312.926 188.108 312.778 188.389C312.63 188.669 312.562 188.986 312.581 189.303C312.576 189.539 312.62 189.774 312.709 189.992C312.799 190.21 312.932 190.407 313.101 190.57C313.673 191.033 314.334 191.37 315.042 191.558L317.545 192.32C318.605 192.599 319.556 193.198 320.271 194.038C320.831 194.775 321.124 195.685 321.098 196.615C321.107 197.334 320.947 198.044 320.631 198.687C320.322 199.302 319.884 199.841 319.348 200.266C318.763 200.723 318.097 201.062 317.386 201.264C316.574 201.489 315.735 201.594 314.894 201.576Z" fill="white"/>
<path fill-rule="evenodd" clip-rule="evenodd" d="M318.802 209.76C312.98 214.164 304.529 216.508 297.313 216.508C287.578 216.574 278.17 212.907 270.94 206.228C270.397 205.726 270.876 205.04 271.536 205.421C279.557 210.121 288.638 212.59 297.878 212.584C304.778 212.546 311.603 211.112 317.961 208.365C318.94 207.939 319.77 209.03 318.802 209.76Z" fill="#FF9900"/>
<path fill-rule="evenodd" clip-rule="evenodd" d="M321.139 206.872C320.371 205.962 316.061 206.447 314.131 206.659C313.55 206.72 313.451 206.255 313.978 205.912C317.41 203.689 323.047 204.325 323.694 205.073C324.341 205.821 323.519 211.024 320.306 213.51C319.812 213.893 319.34 213.691 319.56 213.186C320.284 211.509 321.907 207.781 321.139 206.872Z" fill="#FF9900"/>
<path d="M285.24 196.454C285.223 196.991 285.291 197.528 285.441 198.043C285.596 198.485 285.788 198.912 286.014 199.321C286.091 199.443 286.135 199.584 286.141 199.729C286.13 199.837 286.094 199.942 286.035 200.033C285.975 200.125 285.896 200.201 285.802 200.255L284.741 201.006C284.604 201.104 284.442 201.16 284.275 201.168C284.176 201.164 284.079 201.14 283.99 201.098C283.901 201.055 283.821 200.995 283.755 200.921C283.509 200.674 283.295 200.396 283.119 200.094C282.942 199.793 282.762 199.435 282.578 199.02C281.957 199.805 281.166 200.436 280.267 200.864C279.369 201.292 278.385 201.506 277.392 201.49C276.75 201.525 276.108 201.431 275.503 201.211C274.899 200.992 274.344 200.652 273.87 200.212C273.432 199.761 273.091 199.222 272.868 198.631C272.646 198.04 272.546 197.408 272.577 196.776C272.548 196.089 272.673 195.404 272.941 194.773C273.209 194.141 273.614 193.578 274.125 193.126C275.353 192.147 276.891 191.654 278.452 191.741C279.077 191.742 279.701 191.789 280.319 191.88C280.969 191.973 281.644 192.102 282.344 192.267V190.957C282.447 189.93 282.146 188.904 281.507 188.101C280.688 187.463 279.66 187.168 278.632 187.274C277.993 187.277 277.356 187.357 276.734 187.51C276.087 187.667 275.453 187.871 274.836 188.122C274.636 188.215 274.431 188.294 274.22 188.358H273.945C273.697 188.358 273.573 188.172 273.573 187.8V186.952C273.558 186.736 273.602 186.521 273.701 186.329C273.834 186.164 274.005 186.035 274.199 185.953C274.909 185.609 275.652 185.339 276.416 185.148C277.313 184.915 278.236 184.799 279.163 184.804C280.829 184.655 282.486 185.176 283.776 186.254C284.301 186.848 284.701 187.543 284.952 188.298C285.204 189.053 285.302 189.851 285.24 190.645V196.454ZM278.081 199.17C278.703 199.161 279.319 199.049 279.905 198.838C280.551 198.611 281.126 198.215 281.57 197.689C281.844 197.38 282.047 197.013 282.164 196.615C282.286 196.109 282.343 195.59 282.334 195.069V194.317C281.799 194.188 281.257 194.087 280.711 194.017C280.162 193.946 279.61 193.91 279.057 193.909C278.128 193.839 277.203 194.093 276.437 194.629C276.16 194.876 275.941 195.182 275.797 195.526C275.652 195.87 275.584 196.242 275.599 196.615C275.574 196.958 275.619 197.303 275.73 197.628C275.841 197.953 276.017 198.251 276.246 198.505C276.494 198.732 276.783 198.908 277.098 199.022C277.413 199.137 277.747 199.187 278.081 199.17ZM292.24 201.103C292.001 201.125 291.761 201.065 291.561 200.931C291.373 200.74 291.244 200.497 291.19 200.233L287.064 186.426C286.984 186.193 286.931 185.952 286.905 185.706C286.896 185.646 286.901 185.585 286.92 185.528C286.938 185.47 286.97 185.418 287.012 185.375C287.055 185.332 287.106 185.3 287.163 185.281C287.22 185.262 287.281 185.257 287.34 185.266H289.069C289.311 185.242 289.554 185.302 289.758 185.438C289.933 185.635 290.054 185.876 290.108 186.136L293.067 197.946L295.814 186.136C295.856 185.875 295.979 185.635 296.164 185.449C296.376 185.316 296.625 185.256 296.874 185.277H298.296C298.544 185.256 298.794 185.316 299.006 185.449C299.189 185.639 299.308 185.883 299.345 186.147L302.114 198.108L305.168 186.147C305.224 185.885 305.349 185.644 305.529 185.449C305.732 185.313 305.976 185.252 306.218 185.277H307.851C307.91 185.268 307.971 185.273 308.028 185.292C308.085 185.311 308.136 185.343 308.179 185.386C308.221 185.429 308.253 185.481 308.271 185.538C308.29 185.596 308.295 185.657 308.286 185.717C308.295 185.81 308.295 185.903 308.286 185.996C308.252 186.145 308.21 186.292 308.159 186.436L303.917 200.244C303.862 200.508 303.733 200.751 303.545 200.942C303.345 201.075 303.106 201.136 302.867 201.114H301.318C301.067 201.14 300.815 201.076 300.608 200.931C300.426 200.731 300.307 200.481 300.268 200.212L297.521 188.713L294.806 200.201C294.767 200.47 294.649 200.721 294.467 200.921C294.259 201.065 294.007 201.13 293.756 201.103H292.24ZM314.894 201.576C313.98 201.577 313.069 201.473 312.178 201.264C311.47 201.12 310.785 200.878 310.142 200.545C309.949 200.462 309.784 200.323 309.669 200.145C309.554 199.967 309.493 199.759 309.495 199.546V198.644C309.495 198.272 309.63 198.086 309.898 198.086C310.011 198.088 310.122 198.11 310.227 198.15L310.672 198.333C311.295 198.612 311.946 198.821 312.613 198.956C313.311 199.101 314.022 199.173 314.734 199.17C315.631 199.224 316.525 199.02 317.312 198.58C317.599 198.407 317.835 198.16 317.995 197.863C318.156 197.567 318.235 197.232 318.224 196.894C318.23 196.665 318.191 196.437 318.109 196.223C318.027 196.009 317.904 195.814 317.746 195.649C317.211 195.195 316.58 194.871 315.901 194.704L313.345 193.888C312.269 193.585 311.31 192.956 310.598 192.084C310.03 191.344 309.72 190.434 309.718 189.496C309.703 188.804 309.868 188.119 310.195 187.51C310.512 186.938 310.942 186.437 311.457 186.039C311.998 185.623 312.609 185.31 313.26 185.116C313.981 184.905 314.727 184.801 315.477 184.804C315.874 184.804 316.271 184.829 316.665 184.88C317.068 184.93 317.45 184.998 317.81 185.084C318.171 185.17 318.507 185.263 318.818 185.363C319.074 185.444 319.322 185.548 319.56 185.674C319.761 185.784 319.938 185.934 320.08 186.114C320.192 186.29 320.247 186.496 320.239 186.705V187.553C320.239 187.925 320.104 188.111 319.836 188.111C319.598 188.085 319.368 188.012 319.157 187.897C318.087 187.426 316.93 187.192 315.763 187.21C314.952 187.167 314.143 187.341 313.419 187.714C313.148 187.875 312.926 188.108 312.778 188.389C312.63 188.669 312.562 188.986 312.581 189.303C312.576 189.539 312.62 189.774 312.709 189.992C312.799 190.21 312.932 190.407 313.101 190.57C313.673 191.033 314.334 191.37 315.042 191.558L317.545 192.32C318.605 192.599 319.556 193.198 320.271 194.038C320.831 194.775 321.124 195.685 321.098 196.615C321.107 197.334 320.947 198.044 320.631 198.687C320.322 199.302 319.884 199.841 319.348 200.266C318.763 200.723 318.097 201.062 317.386 201.264C316.574 201.489 315.735 201.594 314.894 201.576Z" fill="white"/>
<path fill-rule="evenodd" clip-rule="evenodd" d="M318.802 209.76C312.98 214.164 304.529 216.508 297.313 216.508C287.578 216.574 278.17 212.907 270.94 206.228C270.397 205.726 270.876 205.04 271.536 205.421C279.557 210.121 288.638 212.59 297.878 212.584C304.778 212.546 311.603 211.112 317.961 208.365C318.94 207.939 319.77 209.03 318.802 209.76Z" fill="#FF9900"/>
<path fill-rule="evenodd" clip-rule="evenodd" d="M321.139 206.872C320.371 205.962 316.061 206.447 314.131 206.659C313.55 206.72 313.451 206.255 313.978 205.912C317.41 203.689 323.047 204.325 323.694 205.073C324.341 205.821 323.519 211.024 320.306 213.51C319.812 213.893 319.34 213.691 319.56 213.186C320.284 211.509 321.907 207.781 321.139 206.872Z" fill="#FF9900"/>
</g>
<circle cx="286.569" cy="285.304" r="15.865" fill="url(#paint7_linear_1_13982)"/>
<rect width="167.049" height="6.53264" rx="3.26632" transform="matrix(1 0 -0.000148376 1 312.701 269.439)" fill="url(#paint8_linear_1_13982)"/>
<rect width="139.985" height="6.53264" rx="3.26632" transform="matrix(1 0 -0.000148376 1 312.701 294.636)" fill="url(#paint9_linear_1_13982)"/>
<rect width="187.579" height="6.53264" rx="3.26632" transform="matrix(1 0 -0.000148376 1 270.706 328.499)" fill="url(#paint10_linear_1_13982)"/>
<rect width="164.45" height="6.53264" rx="3.26632" transform="matrix(1 0 -0.000148376 1 270.706 353.696)" fill="url(#paint11_linear_1_13982)"/>
<rect width="129.429" height="6.53264" rx="3.26632" transform="matrix(1 0 -0.000148376 1 270.706 378.893)" fill="url(#paint12_linear_1_13982)"/>
<g filter="url(#filter0_b_1_13982)">
<circle cx="507.28" cy="160.05" r="23.7975" fill="#25415F" fill-opacity="0.5"/>
<circle cx="507.28" cy="160.05" r="23.3309" stroke="white" stroke-opacity="0.1" stroke-width="0.933234"/>
</g>
<path d="M502.418 158.105V156.161C502.418 153.477 504.594 151.301 507.279 151.301C509.272 151.301 510.985 152.5 511.735 154.217M507.279 162.48V164.424M504.168 168.799H510.39C512.023 168.799 512.839 168.799 513.463 168.481C514.012 168.201 514.458 167.755 514.738 167.206C515.056 166.582 515.056 165.766 515.056 164.133V162.772C515.056 161.138 515.056 160.322 514.738 159.698C514.458 159.149 514.012 158.703 513.463 158.423C512.839 158.105 512.023 158.105 510.39 158.105H504.168C502.535 158.105 501.718 158.105 501.094 158.423C500.545 158.703 500.099 159.149 499.82 159.698C499.502 160.322 499.502 161.138 499.502 162.772V164.133C499.502 165.766 499.502 166.582 499.82 167.206C500.099 167.755 500.545 168.201 501.094 168.481C501.718 168.799 502.535 168.799 504.168 168.799Z" stroke="#FF9900" stroke-width="2.1653" stroke-linecap="round" stroke-linejoin="round"/>
<path d="M139.119 488.082H164.42C176.79 488.082 186.817 498.109 186.817 510.479V555.75C186.817 568.74 197.832 579.006 210.79 578.092L287.795 572.664C300.752 571.751 311.767 582.017 311.767 595.007V629" stroke="url(#paint13_linear_1_13982)" stroke-width="1.86647"/>
<path d="M384.559 29.8635H409.86C422.23 29.8635 432.258 39.8913 432.258 52.2612V97.5322C432.258 110.522 443.273 120.788 456.23 119.874L533.235 114.446C546.193 113.533 557.208 123.799 557.208 136.789V170.782" stroke="url(#paint14_linear_1_13982)" stroke-width="1.86647"/>
<path d="M212.844 17.6823L67.5303 3.5027C47.2409 1.52288 28.8211 15.4263 25.1637 35.4812L1 167.982" stroke="url(#paint15_linear_1_13982)" stroke-width="1.86647"/>
<defs>
<filter id="filter0_b_1_13982" x="464.817" y="117.588" width="84.9243" height="84.9243" filterUnits="userSpaceOnUse" color-interpolation-filters="sRGB">
<feFlood flood-opacity="0" result="BackgroundImageFix"/>
<feGaussianBlur in="BackgroundImageFix" stdDeviation="9.33234"/>
<feComposite in2="SourceAlpha" operator="in" result="effect1_backgroundBlur_1_13982"/>
<feBlend mode="normal" in="SourceGraphic" in2="effect1_backgroundBlur_1_13982" result="shape"/>
</filter>
<linearGradient id="paint0_linear_1_13982" x1="68.6741" y1="57.1926" x2="161.634" y2="193.657" gradientUnits="userSpaceOnUse">
<stop stop-color="#2F0E5B"/>
<stop offset="1" stop-color="#2F0E5B" stop-opacity="0"/>
</linearGradient>
<linearGradient id="paint1_linear_1_13982" x1="0" y1="2.49231" x2="103.012" y2="2.49233" gradientUnits="userSpaceOnUse">
<stop stop-color="#F8F4FF" stop-opacity="0.3"/>
<stop offset="1" stop-color="#EBEBEB" stop-opacity="0"/>
</linearGradient>
<linearGradient id="paint2_linear_1_13982" x1="0" y1="2.49231" x2="124.612" y2="2.49234" gradientUnits="userSpaceOnUse">
<stop stop-color="#F8F4FF" stop-opacity="0.3"/>
<stop offset="1" stop-color="#EBEBEB" stop-opacity="0"/>
</linearGradient>
<linearGradient id="paint3_linear_1_13982" x1="0" y1="2.49231" x2="148.703" y2="2.49235" gradientUnits="userSpaceOnUse">
<stop stop-color="#F8F4FF" stop-opacity="0.3"/>
<stop offset="1" stop-color="#EBEBEB" stop-opacity="0"/>
</linearGradient>
<linearGradient id="paint4_linear_1_13982" x1="21.9589" y1="326.454" x2="187.689" y2="413.778" gradientUnits="userSpaceOnUse">
<stop offset="0.104952" stop-color="#401579"/>
<stop offset="0.546333" stop-color="#260651"/>
<stop offset="1" stop-color="#401579" stop-opacity="0"/>
</linearGradient>
<linearGradient id="paint5_linear_1_13982" x1="88.6945" y1="339.96" x2="192.389" y2="382.887" gradientUnits="userSpaceOnUse">
<stop stop-color="#F8F4FF"/>
<stop offset="1" stop-color="#F8F4FF" stop-opacity="0"/>
</linearGradient>
<radialGradient id="paint6_radial_1_13982" cx="0" cy="0" r="1" gradientUnits="userSpaceOnUse" gradientTransform="translate(383.626 351.829) rotate(-90) scale(193.18 314.648)">
<stop stop-color="#32EFA0" stop-opacity="0.4"/>
<stop offset="1" stop-color="#32EFA0" stop-opacity="0.2"/>
</radialGradient>
<linearGradient id="paint7_linear_1_13982" x1="287.05" y1="255.016" x2="286.569" y2="301.169" gradientUnits="userSpaceOnUse">
<stop offset="0.353218" stop-color="#F8F4FF" stop-opacity="0.3"/>
<stop offset="1" stop-color="white" stop-opacity="0"/>
</linearGradient>
<linearGradient id="paint8_linear_1_13982" x1="0" y1="3.91971" x2="167.049" y2="3.91974" gradientUnits="userSpaceOnUse">
<stop stop-color="#F8F4FF" stop-opacity="0.3"/>
<stop offset="1" stop-color="#EBEBEB" stop-opacity="0"/>
</linearGradient>
<linearGradient id="paint9_linear_1_13982" x1="0" y1="3.91971" x2="139.985" y2="3.91973" gradientUnits="userSpaceOnUse">
<stop stop-color="#F8F4FF" stop-opacity="0.3"/>
<stop offset="1" stop-color="#EBEBEB" stop-opacity="0"/>
</linearGradient>
<linearGradient id="paint10_linear_1_13982" x1="0" y1="3.91971" x2="187.579" y2="3.91975" gradientUnits="userSpaceOnUse">
<stop stop-color="#F8F4FF" stop-opacity="0.3"/>
<stop offset="1" stop-color="#EBEBEB" stop-opacity="0"/>
</linearGradient>
<linearGradient id="paint11_linear_1_13982" x1="0" y1="3.91971" x2="164.45" y2="3.91974" gradientUnits="userSpaceOnUse">
<stop stop-color="#F8F4FF" stop-opacity="0.3"/>
<stop offset="1" stop-color="#EBEBEB" stop-opacity="0"/>
</linearGradient>
<linearGradient id="paint12_linear_1_13982" x1="0" y1="3.91971" x2="129.429" y2="3.91973" gradientUnits="userSpaceOnUse">
<stop stop-color="#F8F4FF" stop-opacity="0.3"/>
<stop offset="1" stop-color="#EBEBEB" stop-opacity="0"/>
</linearGradient>
<linearGradient id="paint13_linear_1_13982" x1="225.702" y1="519.166" x2="314.966" y2="684.259" gradientUnits="userSpaceOnUse">
<stop stop-color="#4A2184"/>
<stop offset="1" stop-color="#2F0E5B" stop-opacity="0"/>
</linearGradient>
<linearGradient id="paint14_linear_1_13982" x1="471.143" y1="60.9485" x2="560.407" y2="226.041" gradientUnits="userSpaceOnUse">
<stop stop-color="#4A2184"/>
<stop offset="1" stop-color="#2F0E5B" stop-opacity="0"/>
</linearGradient>
<linearGradient id="paint15_linear_1_13982" x1="21.769" y1="25.4834" x2="55.6157" y2="119.061" gradientUnits="userSpaceOnUse">
<stop stop-color="#411B76"/>
<stop offset="1" stop-color="#2F0E5B" stop-opacity="0"/>
</linearGradient>
<clipPath id="clip0_1_13982">
<rect width="53.1944" height="31.73" fill="white" transform="translate(270.705 184.78)"/>
</clipPath>
</defs>
</svg>
