<svg width="282" height="54" viewBox="0 0 282 54" fill="none" xmlns="http://www.w3.org/2000/svg">
<path d="M28 2.28198L23.3678 10.282H4.70959C4.35648 9.74302 4.08751 9.10706 4.01756 8.38221C3.91702 7.32901 4.2517 6.22002 4.93349 5.24114C6.29267 3.44454 8.43842 2.28198 10.851 2.28198H28Z" fill="white"/>
<path d="M18.0715 33.2751H18.0716L18.6854 33.2786L18.0715 33.2751ZM21.2678 22.7548C21.2659 22.7575 21.2643 22.7602 21.2625 22.763C21.4542 22.8629 22.9013 23.6439 23.8086 25.0245C24.1753 25.5825 24.4542 26.2378 24.5258 26.9866C24.6296 28.0735 24.2827 29.2171 23.5774 30.2293V30.2295C22.1701 32.0825 19.9493 33.282 17.4524 33.282H19.2945H19.2992C23.362 33.282 26.6972 30.1091 26.9783 26.1058L26.9815 25.0245L27 19.083C27 17.5214 26.1658 16.062 24.8219 15.2734L18.1133 11.282L14 18.6287L21.2678 22.7548Z" fill="#00B88B"/>
<path d="M6.78108 11.6533C6.78291 11.6505 6.78459 11.6478 6.78643 11.645C6.59303 11.5441 5.13366 10.7561 4.2186 9.36312C3.84876 8.80012 3.56752 8.13887 3.49526 7.38335C3.39062 6.28662 3.74045 5.13273 4.45172 4.11142V4.11127C5.87106 2.24155 8.11075 1.03125 10.6289 1.03125H8.77115H8.76641C4.66895 1.03125 1.30538 4.23267 1.02185 8.27207L1.01864 9.36312L1 15.3581C1 16.9338 1.84128 18.4064 3.19661 19.202L9.8517 23.0312L14 16.0544L6.78108 11.6533Z" fill="#00B88B"/>
<path d="M0 33.9688L4.63218 25.9688H23.2904C23.6435 26.5077 23.9125 27.1437 23.9824 27.8685C24.083 28.9217 23.7483 30.0307 23.0665 31.0096C21.7073 32.8062 19.5616 33.9688 17.149 33.9688H0Z" fill="white"/>
<path d="M40.9816 25.3906C39.0472 25.3906 37.4197 24.9628 36.0991 24.1072C34.7785 23.233 33.8485 22.0519 33.3091 20.5639L36.6013 18.6388C37.3639 20.629 38.8612 21.6241 41.0932 21.6241C42.172 21.6241 42.9625 21.4288 43.4647 21.0382C43.9669 20.6476 44.218 20.1547 44.218 19.5595C44.218 18.8713 43.9111 18.3412 43.2973 17.9692C42.6835 17.5786 41.5861 17.1601 40.0051 16.7137C39.1309 16.4533 38.3869 16.1929 37.7731 15.9325C37.1779 15.6721 36.5734 15.328 35.9596 14.9002C35.3644 14.4538 34.9087 13.8958 34.5925 13.2262C34.2763 12.5566 34.1182 11.7754 34.1182 10.8826C34.1182 9.1156 34.7413 7.7113 35.9875 6.6697C37.2523 5.6095 38.7682 5.0794 40.5352 5.0794C42.1162 5.0794 43.5019 5.47 44.6923 6.2512C45.9013 7.0138 46.8406 8.0833 47.5102 9.4597L44.2738 11.329C43.4926 9.655 42.2464 8.818 40.5352 8.818C39.7354 8.818 39.103 9.004 38.638 9.376C38.1916 9.7294 37.9684 10.1944 37.9684 10.771C37.9684 11.3848 38.2195 11.887 38.7217 12.2776C39.2425 12.6496 40.2283 13.0588 41.6791 13.5052C42.2743 13.6912 42.7207 13.84 43.0183 13.9516C43.3345 14.0446 43.753 14.2027 44.2738 14.4259C44.8132 14.6305 45.2224 14.8258 45.5014 15.0118C45.799 15.1978 46.1338 15.4489 46.5058 15.7651C46.8778 16.0813 47.1568 16.4068 47.3428 16.7416C47.5474 17.0764 47.7148 17.4856 47.845 17.9692C47.9938 18.4342 48.0682 18.9457 48.0682 19.5037C48.0682 21.3079 47.4079 22.7401 46.0873 23.8003C44.7853 24.8605 43.0834 25.3906 40.9816 25.3906ZM60.2795 11.05H63.8786V25H60.2795V23.3539C59.2007 24.7117 57.6848 25.3906 55.7318 25.3906C53.8718 25.3906 52.2722 24.6838 50.933 23.2702C49.6124 21.838 48.9521 20.0896 48.9521 18.025C48.9521 15.9604 49.6124 14.2213 50.933 12.8077C52.2722 11.3755 53.8718 10.6594 55.7318 10.6594C57.6848 10.6594 59.2007 11.3383 60.2795 12.6961V11.05ZM53.6393 20.8708C54.3647 21.5962 55.2854 21.9589 56.4014 21.9589C57.5174 21.9589 58.4381 21.5962 59.1635 20.8708C59.9075 20.1268 60.2795 19.1782 60.2795 18.025C60.2795 16.8718 59.9075 15.9325 59.1635 15.2071C58.4381 14.4631 57.5174 14.0911 56.4014 14.0911C55.2854 14.0911 54.3647 14.4631 53.6393 15.2071C52.9139 15.9325 52.5512 16.8718 52.5512 18.025C52.5512 19.1782 52.9139 20.1268 53.6393 20.8708ZM76.6282 11.05H80.2273V25H76.6282V23.3539C75.5494 24.7117 74.0335 25.3906 72.0805 25.3906C70.2205 25.3906 68.6209 24.6838 67.2817 23.2702C65.9611 21.838 65.3008 20.0896 65.3008 18.025C65.3008 15.9604 65.9611 14.2213 67.2817 12.8077C68.6209 11.3755 70.2205 10.6594 72.0805 10.6594C74.0335 10.6594 75.5494 11.3383 76.6282 12.6961V11.05ZM69.988 20.8708C70.7134 21.5962 71.6341 21.9589 72.7501 21.9589C73.8661 21.9589 74.7868 21.5962 75.5122 20.8708C76.2562 20.1268 76.6282 19.1782 76.6282 18.025C76.6282 16.8718 76.2562 15.9325 75.5122 15.2071C74.7868 14.4631 73.8661 14.0911 72.7501 14.0911C71.6341 14.0911 70.7134 14.4631 69.988 15.2071C69.2626 15.9325 68.8999 16.8718 68.8999 18.025C68.8999 19.1782 69.2626 20.1268 69.988 20.8708ZM89.2105 25.3906C87.2761 25.3906 85.6486 24.9628 84.328 24.1072C83.0074 23.233 82.0774 22.0519 81.538 20.5639L84.8302 18.6388C85.5928 20.629 87.0901 21.6241 89.3221 21.6241C90.4009 21.6241 91.1914 21.4288 91.6936 21.0382C92.1958 20.6476 92.4469 20.1547 92.4469 19.5595C92.4469 18.8713 92.14 18.3412 91.5262 17.9692C90.9124 17.5786 89.815 17.1601 88.234 16.7137C87.3598 16.4533 86.6158 16.1929 86.002 15.9325C85.4068 15.6721 84.8023 15.328 84.1885 14.9002C83.5933 14.4538 83.1376 13.8958 82.8214 13.2262C82.5052 12.5566 82.3471 11.7754 82.3471 10.8826C82.3471 9.1156 82.9702 7.7113 84.2164 6.6697C85.4812 5.6095 86.9971 5.0794 88.7641 5.0794C90.3451 5.0794 91.7308 5.47 92.9212 6.2512C94.1302 7.0138 95.0695 8.0833 95.7391 9.4597L92.5027 11.329C91.7215 9.655 90.4753 8.818 88.7641 8.818C87.9643 8.818 87.3319 9.004 86.8669 9.376C86.4205 9.7294 86.1973 10.1944 86.1973 10.771C86.1973 11.3848 86.4484 11.887 86.9506 12.2776C87.4714 12.6496 88.4572 13.0588 89.908 13.5052C90.5032 13.6912 90.9496 13.84 91.2472 13.9516C91.5634 14.0446 91.9819 14.2027 92.5027 14.4259C93.0421 14.6305 93.4513 14.8258 93.7303 15.0118C94.0279 15.1978 94.3627 15.4489 94.7347 15.7651C95.1067 16.0813 95.3857 16.4068 95.5717 16.7416C95.7763 17.0764 95.9437 17.4856 96.0739 17.9692C96.2227 18.4342 96.2971 18.9457 96.2971 19.5037C96.2971 21.3079 95.6368 22.7401 94.3162 23.8003C93.0142 24.8605 91.3123 25.3906 89.2105 25.3906ZM104.946 5.47C106.695 5.47 108.145 6.0466 109.299 7.1998C110.452 8.353 111.028 9.7945 111.028 11.5243C111.028 13.2541 110.452 14.6956 109.299 15.8488C108.145 16.9834 106.695 17.5507 104.946 17.5507H99.7848V25H98.3061V5.47H104.946ZM104.946 16.1557C106.285 16.1557 107.383 15.7186 108.238 14.8444C109.113 13.9702 109.55 12.8635 109.55 11.5243C109.55 10.1665 109.113 9.0505 108.238 8.1763C107.383 7.3021 106.285 6.865 104.946 6.865H99.7848V16.1557H104.946ZM124.445 11.05H125.868V25H124.445V21.8473C123.85 22.9261 123.031 23.7724 121.99 24.3862C120.948 25 119.767 25.3069 118.446 25.3069C116.456 25.3069 114.754 24.6094 113.341 23.2144C111.927 21.8008 111.22 20.071 111.22 18.025C111.22 15.979 111.927 14.2585 113.341 12.8635C114.754 11.4499 116.456 10.7431 118.446 10.7431C119.767 10.7431 120.948 11.05 121.99 11.6638C123.031 12.2776 123.85 13.1239 124.445 14.2027V11.05ZM114.345 22.2379C115.498 23.3911 116.903 23.9677 118.558 23.9677C120.213 23.9677 121.608 23.3911 122.743 22.2379C123.878 21.0847 124.445 19.6804 124.445 18.025C124.445 16.3696 123.878 14.9653 122.743 13.8121C121.608 12.6589 120.213 12.0823 118.558 12.0823C116.903 12.0823 115.498 12.6589 114.345 13.8121C113.21 14.9653 112.643 16.3696 112.643 18.025C112.643 19.6804 113.21 21.0847 114.345 22.2379ZM139.247 11.05H140.753L134.727 26.2834C134.188 27.6598 133.425 28.7386 132.439 29.5198C131.453 30.3196 130.375 30.673 129.203 30.58V29.2687C130.096 29.3431 130.895 29.0827 131.602 28.4875C132.328 27.9109 132.913 27.0832 133.36 26.0044L133.667 25.2511L127.25 11.05H128.756L134.392 23.4655L139.247 11.05Z" fill="white"/>
<path d="M163.125 8.45455L166.605 14.1435H166.719L170.199 8.45455H172.741L168.21 15.7273L172.77 23H170.213L166.719 17.3892H166.605L163.111 23H160.554L165.192 15.7273L160.582 8.45455H163.125Z" fill="#C4BAD5"/>
<g clip-path="url(#clip0_1_14046)">
<path d="M217.407 19.4599C217.378 20.3553 217.493 21.2495 217.747 22.1086C218.009 22.8446 218.333 23.557 218.715 24.2384C218.845 24.4423 218.919 24.6768 218.93 24.9184C218.911 25.0996 218.849 25.2737 218.749 25.4262C218.65 25.5787 218.515 25.7053 218.356 25.7954L216.564 27.0481C216.332 27.2108 216.059 27.304 215.776 27.3166C215.609 27.3106 215.446 27.2711 215.295 27.2004C215.144 27.1296 215.009 27.0292 214.898 26.905C214.481 26.4937 214.12 26.0305 213.822 25.5269C213.524 25.0258 213.219 24.4293 212.908 23.7373C211.859 25.0454 210.524 26.0965 209.005 26.8099C207.486 27.5234 205.823 27.8804 204.145 27.8535C203.061 27.9128 201.976 27.7549 200.955 27.3892C199.933 27.0234 198.995 26.4572 198.195 25.7238C197.455 24.9716 196.878 24.0744 196.502 23.0888C196.126 22.1032 195.958 21.0504 196.009 19.9968C195.961 18.8517 196.172 17.7105 196.625 16.6574C197.078 15.6043 197.761 14.6661 198.625 13.9119C200.7 12.2801 203.3 11.4593 205.937 11.6033C206.993 11.6063 208.047 11.6841 209.091 11.8359C210.19 11.991 211.331 12.2058 212.514 12.4802V10.2968C212.688 8.5857 212.179 6.8751 211.098 5.53626C209.715 4.47411 207.978 3.98101 206.242 4.15821C205.161 4.16368 204.084 4.29582 203.034 4.55193C201.941 4.81292 200.869 5.15388 199.826 5.57205C199.489 5.72675 199.142 5.8583 198.787 5.96578H198.321C197.903 5.96578 197.694 5.65557 197.694 5.03515V3.6213C197.668 3.26211 197.742 2.90284 197.909 2.58329C198.133 2.30819 198.423 2.09298 198.751 1.95691C199.95 1.38309 201.205 0.933334 202.496 0.614649C204.013 0.225871 205.573 0.0333942 207.138 0.0419532C209.953 -0.20724 212.754 0.660722 214.933 2.45801C215.82 3.44792 216.496 4.60691 216.921 5.86499C217.346 7.12306 217.511 8.45413 217.407 9.77779V19.4599ZM205.31 23.9878C206.361 23.9725 207.402 23.7851 208.392 23.433C209.484 23.0555 210.455 22.3945 211.206 21.5181C211.669 21.0028 212.011 20.3916 212.21 19.7284C212.416 18.8853 212.512 18.019 212.496 17.1512V15.8985C211.592 15.6821 210.677 15.5148 209.754 15.3974C208.827 15.2789 207.893 15.2191 206.959 15.2184C205.389 15.1009 203.827 15.5241 202.532 16.4175C202.065 16.8295 201.695 17.3405 201.45 17.9132C201.205 18.486 201.091 19.1061 201.116 19.7284C201.074 20.3001 201.149 20.8744 201.337 21.4161C201.525 21.9577 201.822 22.4553 202.21 22.8782C202.628 23.2575 203.117 23.5507 203.649 23.7411C204.181 23.9315 204.746 24.0153 205.31 23.9878ZM229.234 27.2092C228.831 27.2461 228.426 27.1451 228.087 26.9229C227.77 26.6038 227.552 26.1997 227.46 25.7596L220.489 2.74436C220.354 2.35626 220.264 1.95393 220.22 1.54528C220.205 1.44543 220.214 1.34342 220.245 1.24747C220.277 1.15152 220.33 1.06432 220.402 0.992907C220.473 0.921495 220.561 0.86787 220.657 0.836361C220.753 0.804852 220.855 0.79634 220.955 0.811513H223.876C224.286 0.77049 224.697 0.871608 225.041 1.09786C225.337 1.42667 225.541 1.82804 225.632 2.26115L230.632 21.9476L235.274 2.26115C235.345 1.82676 235.552 1.42598 235.865 1.11576C236.224 0.894395 236.645 0.794023 237.066 0.82941H239.467C239.888 0.794023 240.309 0.894395 240.668 1.11576C240.978 1.43316 241.178 1.84046 241.241 2.27905L245.919 22.216L251.08 2.27905C251.175 1.84379 251.386 1.44204 251.689 1.11576C252.033 0.889505 252.445 0.788387 252.854 0.82941H255.614C255.714 0.814237 255.816 0.822749 255.912 0.854258C256.008 0.885767 256.096 0.939391 256.167 1.0108C256.239 1.08222 256.292 1.16942 256.324 1.26537C256.356 1.36132 256.364 1.46333 256.349 1.56318C256.364 1.71793 256.364 1.87374 256.349 2.02849C256.292 2.27707 256.22 2.52209 256.134 2.76226L248.965 25.7775C248.873 26.2176 248.655 26.6217 248.338 26.9408C247.999 27.163 247.595 27.264 247.191 27.2271H244.575C244.151 27.2715 243.725 27.1636 243.374 26.9229C243.067 26.5898 242.867 26.1719 242.801 25.7238L238.159 6.55637L233.571 25.7059C233.505 26.154 233.305 26.5719 232.998 26.905C232.647 27.1457 232.221 27.2536 231.797 27.2092H229.234ZM267.514 27.9967C265.97 27.9992 264.43 27.8251 262.926 27.4777C261.729 27.2371 260.572 26.8337 259.485 26.2786C259.158 26.1404 258.88 25.9085 258.685 25.6122C258.491 25.3159 258.389 24.9685 258.392 24.6142V23.1109C258.392 22.4904 258.619 22.1802 259.073 22.1802C259.263 22.1831 259.451 22.2194 259.628 22.2876L260.381 22.5919C261.433 23.0567 262.533 23.4048 263.661 23.6299C264.84 23.8718 266.041 23.9917 267.245 23.9878C268.76 24.0775 270.27 23.7362 271.6 23.0035C272.085 22.7156 272.484 22.3031 272.755 21.8089C273.026 21.3147 273.159 20.7569 273.141 20.1937C273.151 19.8115 273.085 19.4312 272.946 19.0747C272.808 18.7183 272.6 18.393 272.334 18.1177C271.43 17.3606 270.363 16.8217 269.216 16.5428L264.897 15.1826C263.078 14.678 261.459 13.6286 260.256 12.176C259.295 10.9425 258.772 9.42541 258.768 7.86283C258.743 6.70784 259.021 5.56642 259.575 4.55193C260.11 3.59763 260.836 2.76315 261.707 2.10008C262.621 1.40647 263.653 0.884905 264.754 0.560959C265.971 0.210176 267.232 0.0353982 268.499 0.0419532C269.17 0.041363 269.841 0.0832058 270.506 0.16723C271.187 0.250749 271.833 0.364095 272.442 0.507269C273.051 0.650443 273.619 0.805548 274.144 0.972584C274.577 1.10812 274.997 1.28181 275.399 1.49159C275.738 1.67432 276.037 1.92395 276.277 2.22536C276.466 2.51776 276.56 2.86169 276.546 3.20968V4.62352C276.546 5.24394 276.319 5.55415 275.865 5.55415C275.463 5.50934 275.074 5.38783 274.718 5.19622C272.909 4.41175 270.954 4.02127 268.983 4.05083C267.612 3.97964 266.246 4.26972 265.023 4.89197C264.564 5.15934 264.189 5.54852 263.939 6.01617C263.689 6.48382 263.574 7.01159 263.607 7.54069C263.598 7.93435 263.671 8.32554 263.823 8.6892C263.974 9.05285 264.199 9.38096 264.485 9.65251C265.451 10.4241 266.568 10.985 267.764 11.299L271.994 12.5697C273.785 13.0345 275.391 14.0334 276.6 15.4332C277.547 16.6613 278.041 18.1786 277.997 19.7284C278.013 20.926 277.743 22.11 277.209 23.1825C276.687 24.2069 275.947 25.1049 275.04 25.8133C274.052 26.5753 272.927 27.1404 271.725 27.4777C270.354 27.852 268.935 28.0268 267.514 27.9967Z" fill="#252F3E"/>
<path fill-rule="evenodd" clip-rule="evenodd" d="M273.271 43.1521C263.434 50.2312 249.155 53.9986 236.962 53.9986C220.511 54.1042 204.615 48.21 192.398 37.4747C191.481 36.6687 192.29 35.5648 193.405 36.1781C206.957 43.7317 222.302 47.7004 237.915 47.6904C249.575 47.6294 261.107 45.3249 271.85 40.9092C273.505 40.2258 274.908 41.9781 273.271 43.1521Z" fill="#FF9900"/>
<path fill-rule="evenodd" clip-rule="evenodd" d="M277.429 38.5437C276.158 36.8873 269.02 37.7707 265.824 38.1572C264.861 38.2677 264.698 37.4211 265.57 36.7953C271.254 32.7462 280.589 33.9057 281.661 35.2677C282.732 36.6296 281.37 46.1081 276.049 50.6357C275.232 51.335 274.451 50.9669 274.814 50.0467C276.013 46.9915 278.701 40.2002 277.429 38.5437Z" fill="#FF9900"/>
<path d="M217.407 19.4599C217.378 20.3553 217.493 21.2495 217.747 22.1086C218.009 22.8446 218.333 23.557 218.715 24.2384C218.845 24.4423 218.919 24.6768 218.93 24.9184C218.911 25.0996 218.849 25.2737 218.749 25.4262C218.65 25.5787 218.515 25.7053 218.356 25.7954L216.564 27.0481C216.332 27.2108 216.059 27.304 215.776 27.3166C215.609 27.3106 215.446 27.2711 215.295 27.2004C215.144 27.1296 215.009 27.0292 214.898 26.905C214.481 26.4937 214.12 26.0305 213.822 25.5269C213.524 25.0258 213.219 24.4293 212.908 23.7373C211.859 25.0454 210.524 26.0965 209.005 26.8099C207.486 27.5234 205.823 27.8804 204.145 27.8535C203.061 27.9128 201.976 27.7549 200.955 27.3892C199.933 27.0234 198.995 26.4572 198.195 25.7238C197.455 24.9716 196.878 24.0744 196.502 23.0888C196.126 22.1032 195.958 21.0504 196.009 19.9968C195.961 18.8517 196.172 17.7105 196.625 16.6574C197.078 15.6043 197.761 14.6661 198.625 13.9119C200.7 12.2801 203.3 11.4593 205.937 11.6033C206.993 11.6063 208.047 11.6841 209.091 11.8359C210.19 11.991 211.331 12.2058 212.514 12.4802V10.2968C212.688 8.5857 212.179 6.8751 211.098 5.53626C209.715 4.47411 207.978 3.98101 206.242 4.15821C205.161 4.16368 204.084 4.29582 203.034 4.55193C201.941 4.81292 200.869 5.15388 199.826 5.57205C199.489 5.72675 199.142 5.8583 198.787 5.96578H198.321C197.903 5.96578 197.694 5.65557 197.694 5.03515V3.6213C197.668 3.26211 197.742 2.90284 197.909 2.58329C198.133 2.30819 198.423 2.09298 198.751 1.95691C199.95 1.38309 201.205 0.933334 202.496 0.614649C204.013 0.225871 205.573 0.0333942 207.138 0.0419532C209.953 -0.20724 212.754 0.660722 214.933 2.45801C215.82 3.44792 216.496 4.60691 216.921 5.86499C217.346 7.12306 217.511 8.45413 217.407 9.77779V19.4599ZM205.31 23.9878C206.361 23.9725 207.402 23.7851 208.392 23.433C209.484 23.0555 210.455 22.3945 211.206 21.5181C211.669 21.0028 212.011 20.3916 212.21 19.7284C212.416 18.8853 212.512 18.019 212.496 17.1512V15.8985C211.592 15.6821 210.677 15.5148 209.754 15.3974C208.827 15.2789 207.893 15.2191 206.959 15.2184C205.389 15.1009 203.827 15.5241 202.532 16.4175C202.065 16.8295 201.695 17.3405 201.45 17.9132C201.205 18.486 201.091 19.1061 201.116 19.7284C201.074 20.3001 201.149 20.8744 201.337 21.4161C201.525 21.9577 201.822 22.4553 202.21 22.8782C202.628 23.2575 203.117 23.5507 203.649 23.7411C204.181 23.9315 204.746 24.0153 205.31 23.9878ZM229.234 27.2092C228.831 27.2461 228.426 27.1451 228.087 26.9229C227.77 26.6038 227.552 26.1997 227.46 25.7596L220.489 2.74436C220.354 2.35626 220.264 1.95393 220.22 1.54528C220.205 1.44543 220.214 1.34342 220.245 1.24747C220.277 1.15152 220.33 1.06432 220.402 0.992907C220.473 0.921495 220.561 0.86787 220.657 0.836361C220.753 0.804852 220.855 0.79634 220.955 0.811513H223.876C224.286 0.77049 224.697 0.871608 225.041 1.09786C225.337 1.42667 225.541 1.82804 225.632 2.26115L230.632 21.9476L235.274 2.26115C235.345 1.82676 235.552 1.42598 235.865 1.11576C236.224 0.894395 236.645 0.794023 237.066 0.82941H239.467C239.888 0.794023 240.309 0.894395 240.668 1.11576C240.978 1.43316 241.178 1.84046 241.241 2.27905L245.919 22.216L251.08 2.27905C251.175 1.84379 251.386 1.44204 251.689 1.11576C252.033 0.889505 252.445 0.788387 252.854 0.82941H255.614C255.714 0.814237 255.816 0.822749 255.912 0.854258C256.008 0.885767 256.096 0.939391 256.167 1.0108C256.239 1.08222 256.292 1.16942 256.324 1.26537C256.356 1.36132 256.364 1.46333 256.349 1.56318C256.364 1.71793 256.364 1.87374 256.349 2.02849C256.292 2.27707 256.22 2.52209 256.134 2.76226L248.965 25.7775C248.873 26.2176 248.655 26.6217 248.338 26.9408C247.999 27.163 247.595 27.264 247.191 27.2271H244.575C244.151 27.2715 243.725 27.1636 243.374 26.9229C243.067 26.5898 242.867 26.1719 242.801 25.7238L238.159 6.55637L233.571 25.7059C233.505 26.154 233.305 26.5719 232.998 26.905C232.647 27.1457 232.221 27.2536 231.797 27.2092H229.234ZM267.514 27.9967C265.97 27.9992 264.43 27.8251 262.926 27.4777C261.729 27.2371 260.572 26.8337 259.485 26.2786C259.158 26.1404 258.88 25.9085 258.685 25.6122C258.491 25.3159 258.389 24.9685 258.392 24.6142V23.1109C258.392 22.4904 258.619 22.1802 259.073 22.1802C259.263 22.1831 259.451 22.2194 259.628 22.2876L260.381 22.5919C261.433 23.0567 262.533 23.4048 263.661 23.6299C264.84 23.8718 266.041 23.9917 267.245 23.9878C268.76 24.0775 270.27 23.7362 271.6 23.0035C272.085 22.7156 272.484 22.3031 272.755 21.8089C273.026 21.3147 273.159 20.7569 273.141 20.1937C273.151 19.8115 273.085 19.4312 272.946 19.0747C272.808 18.7183 272.6 18.393 272.334 18.1177C271.43 17.3606 270.363 16.8217 269.216 16.5428L264.897 15.1826C263.078 14.678 261.459 13.6286 260.256 12.176C259.295 10.9425 258.772 9.42541 258.768 7.86283C258.743 6.70784 259.021 5.56642 259.575 4.55193C260.11 3.59763 260.836 2.76315 261.707 2.10008C262.621 1.40647 263.653 0.884905 264.754 0.560959C265.971 0.210176 267.232 0.0353982 268.499 0.0419532C269.17 0.041363 269.841 0.0832058 270.506 0.16723C271.187 0.250749 271.833 0.364095 272.442 0.507269C273.051 0.650443 273.619 0.805548 274.144 0.972584C274.577 1.10812 274.997 1.28181 275.399 1.49159C275.738 1.67432 276.037 1.92395 276.277 2.22536C276.466 2.51776 276.56 2.86169 276.546 3.20968V4.62352C276.546 5.24394 276.319 5.55415 275.865 5.55415C275.463 5.50934 275.074 5.38783 274.718 5.19622C272.909 4.41175 270.954 4.02127 268.983 4.05083C267.612 3.97964 266.246 4.26972 265.023 4.89197C264.564 5.15934 264.189 5.54852 263.939 6.01617C263.689 6.48382 263.574 7.01159 263.607 7.54069C263.598 7.93435 263.671 8.32554 263.823 8.6892C263.974 9.05285 264.199 9.38096 264.485 9.65251C265.451 10.4241 266.568 10.985 267.764 11.299L271.994 12.5697C273.785 13.0345 275.391 14.0334 276.6 15.4332C277.547 16.6613 278.041 18.1786 277.997 19.7284C278.013 20.926 277.743 22.11 277.209 23.1825C276.687 24.2069 275.947 25.1049 275.04 25.8133C274.052 26.5753 272.927 27.1404 271.725 27.4777C270.354 27.852 268.935 28.0268 267.514 27.9967Z" fill="white"/>
<path fill-rule="evenodd" clip-rule="evenodd" d="M273.271 43.1521C263.434 50.2312 249.155 53.9986 236.962 53.9986C220.511 54.1042 204.615 48.21 192.398 37.4747C191.481 36.6687 192.29 35.5648 193.405 36.1781C206.957 43.7317 222.302 47.7004 237.915 47.6904C249.575 47.6294 261.107 45.3249 271.85 40.9092C273.505 40.2258 274.908 41.9781 273.271 43.1521Z" fill="#FF9900"/>
<path fill-rule="evenodd" clip-rule="evenodd" d="M277.429 38.5437C276.158 36.8873 269.02 37.7707 265.824 38.1572C264.861 38.2677 264.698 37.4211 265.57 36.7953C271.254 32.7462 280.589 33.9057 281.661 35.2677C282.732 36.6296 281.37 46.1081 276.049 50.6357C275.232 51.335 274.451 50.9669 274.814 50.0467C276.013 46.9915 278.701 40.2002 277.429 38.5437Z" fill="#FF9900"/>
</g>
<defs>
<clipPath id="clip0_1_14046">
<rect width="90" height="54" fill="white" transform="translate(192)"/>
</clipPath>
</defs>
</svg>
