<svg width="722" height="269" viewBox="0 0 722 269" fill="none" xmlns="http://www.w3.org/2000/svg">
<rect x="-28.5352" width="750" height="269" rx="20" fill="white"/>
<rect x="92" y="78.3779" width="573.465" height="65.9975" rx="17.8372" fill="#F0F1F5"/>
<path d="M121.432 73.9186C121.432 68.993 125.425 65 130.35 65H182.97C187.895 65 191.888 68.993 191.888 73.9186V83.729H121.432V73.9186Z" fill="#B7D9FF"/>
<path d="M134.192 78.2426L133.667 76.7336H130.478L129.954 78.2426H128.616L131.334 70.751H132.811L135.519 78.2426H134.192ZM130.885 75.5777H133.261L132.073 72.1958L130.885 75.5777ZM140.352 70.751H141.508V78.2426H140.352V77.472C139.917 78.0785 139.292 78.3817 138.479 78.3817C137.744 78.3817 137.116 78.1106 136.595 77.5684C136.075 77.019 135.814 76.3519 135.814 75.567C135.814 74.7751 136.075 74.108 136.595 73.5657C137.116 73.0235 137.744 72.7523 138.479 72.7523C139.292 72.7523 139.917 73.052 140.352 73.6513V70.751ZM137.452 76.7978C137.773 77.1189 138.176 77.2794 138.661 77.2794C139.146 77.2794 139.549 77.1189 139.87 76.7978C140.191 76.4696 140.352 76.0593 140.352 75.567C140.352 75.0747 140.191 74.668 139.87 74.347C139.549 74.0188 139.146 73.8547 138.661 73.8547C138.176 73.8547 137.773 74.0188 137.452 74.347C137.131 74.668 136.97 75.0747 136.97 75.567C136.97 76.0593 137.131 76.4696 137.452 76.7978ZM147.093 70.751H148.249V78.2426H147.093V77.472C146.658 78.0785 146.034 78.3817 145.22 78.3817C144.485 78.3817 143.857 78.1106 143.337 77.5684C142.816 77.019 142.555 76.3519 142.555 75.567C142.555 74.7751 142.816 74.108 143.337 73.5657C143.857 73.0235 144.485 72.7523 145.22 72.7523C146.034 72.7523 146.658 73.052 147.093 73.6513V70.751ZM144.193 76.7978C144.514 77.1189 144.917 77.2794 145.402 77.2794C145.887 77.2794 146.29 77.1189 146.612 76.7978C146.933 76.4696 147.093 76.0593 147.093 75.567C147.093 75.0747 146.933 74.668 146.612 74.347C146.29 74.0188 145.887 73.8547 145.402 73.8547C144.917 73.8547 144.514 74.0188 144.193 74.347C143.872 74.668 143.711 75.0747 143.711 75.567C143.711 76.0593 143.872 76.4696 144.193 76.7978ZM155.258 74.0045H153.931V76.5731C153.931 76.7942 153.981 76.9548 154.08 77.0547C154.18 77.1474 154.327 77.2009 154.519 77.2152C154.719 77.2223 154.965 77.2188 155.258 77.2045V78.2426C154.373 78.3496 153.738 78.2747 153.353 78.0179C152.967 77.7539 152.775 77.2723 152.775 76.5731V74.0045H151.79V72.8915H152.775V71.7356L153.931 71.3931V72.8915H155.258V74.0045ZM158.612 78.3817C157.827 78.3817 157.16 78.1106 156.611 77.5684C156.062 77.0261 155.787 76.359 155.787 75.567C155.787 74.7751 156.062 74.108 156.611 73.5657C157.16 73.0235 157.827 72.7523 158.612 72.7523C159.404 72.7523 160.071 73.0235 160.614 73.5657C161.163 74.108 161.438 74.7751 161.438 75.567C161.438 76.359 161.163 77.0261 160.614 77.5684C160.071 78.1106 159.404 78.3817 158.612 78.3817ZM157.424 76.7764C157.745 77.0975 158.141 77.258 158.612 77.258C159.083 77.258 159.479 77.0975 159.8 76.7764C160.121 76.4553 160.282 76.0522 160.282 75.567C160.282 75.0819 160.121 74.6787 159.8 74.3577C159.479 74.0366 159.083 73.8761 158.612 73.8761C158.141 73.8761 157.745 74.0366 157.424 74.3577C157.103 74.6787 156.943 75.0819 156.943 75.567C156.943 76.0522 157.103 76.4553 157.424 76.7764ZM168.776 78.3817C167.648 78.3817 166.714 78.0107 165.972 77.2687C165.23 76.5195 164.859 75.5956 164.859 74.4968C164.859 73.398 165.23 72.4776 165.972 71.7356C166.714 70.9865 167.648 70.6119 168.776 70.6119C169.454 70.6119 170.078 70.7724 170.649 71.0935C171.227 71.4145 171.676 71.8498 171.997 72.3992L170.927 73.0199C170.727 72.6489 170.435 72.3563 170.049 72.1423C169.671 71.9211 169.247 71.8105 168.776 71.8105C167.977 71.8105 167.327 72.0638 166.828 72.5704C166.336 73.077 166.09 73.7191 166.09 74.4968C166.09 75.2745 166.336 75.9166 166.828 76.4232C167.327 76.9298 167.977 77.1831 168.776 77.1831C169.247 77.1831 169.675 77.0761 170.06 76.862C170.445 76.6408 170.734 76.3447 170.927 75.9737L171.997 76.5838C171.683 77.1331 171.237 77.5719 170.659 77.9001C170.089 78.2212 169.461 78.3817 168.776 78.3817ZM177.172 72.8915H178.328V78.2426H177.172V77.472C176.737 78.0785 176.113 78.3817 175.3 78.3817C174.565 78.3817 173.937 78.1106 173.416 77.5684C172.895 77.019 172.635 76.3519 172.635 75.567C172.635 74.7751 172.895 74.108 173.416 73.5657C173.937 73.0235 174.565 72.7523 175.3 72.7523C176.113 72.7523 176.737 73.052 177.172 73.6513V72.8915ZM174.272 76.7978C174.593 77.1189 174.996 77.2794 175.481 77.2794C175.967 77.2794 176.37 77.1189 176.691 76.7978C177.012 76.4696 177.172 76.0593 177.172 75.567C177.172 75.0747 177.012 74.668 176.691 74.347C176.37 74.0188 175.967 73.8547 175.481 73.8547C174.996 73.8547 174.593 74.0188 174.272 74.347C173.951 74.668 173.79 75.0747 173.79 75.567C173.79 76.0593 173.951 76.4696 174.272 76.7978ZM180.831 73.7905C181.124 73.1269 181.673 72.7951 182.48 72.7951V74.0473C182.037 74.0188 181.652 74.1258 181.324 74.3684C180.995 74.6038 180.831 74.9963 180.831 75.5456V78.2426H179.676V72.8915H180.831V73.7905ZM186.455 74.0045H185.128V76.5731C185.128 76.7942 185.178 76.9548 185.278 77.0547C185.378 77.1474 185.524 77.2009 185.717 77.2152C185.917 77.2223 186.163 77.2188 186.455 77.2045V78.2426C185.571 78.3496 184.936 78.2747 184.55 78.0179C184.165 77.7539 183.972 77.2723 183.972 76.5731V74.0045H182.988V72.8915H183.972V71.7356L185.128 71.3931V72.8915H186.455V74.0045Z" fill="#459BFB"/>
<rect x="112.068" y="85.9586" width="140.914" height="41.9173" rx="13.8238" fill="#459BFB" stroke="#B7D9FF" stroke-width="6.24301"/>
<path d="M141.95 110.566V101.486H143.595V109.187H147.595V110.566H141.95ZM148.952 110.566V103.756H150.557V110.566H148.952ZM149.759 102.789C149.504 102.789 149.286 102.705 149.102 102.537C148.919 102.365 148.827 102.16 148.827 101.92C148.827 101.678 148.919 101.472 149.102 101.304C149.286 101.132 149.504 101.047 149.759 101.047C150.016 101.047 150.234 101.132 150.415 101.304C150.598 101.472 150.69 101.678 150.69 101.92C150.69 102.16 150.598 102.365 150.415 102.537C150.234 102.705 150.016 102.789 149.759 102.789ZM157.59 105.556L156.127 105.716C156.085 105.568 156.013 105.429 155.91 105.299C155.809 105.169 155.673 105.064 155.502 104.984C155.33 104.904 155.12 104.864 154.872 104.864C154.538 104.864 154.257 104.937 154.03 105.082C153.805 105.226 153.694 105.414 153.697 105.645C153.694 105.843 153.766 106.004 153.914 106.128C154.065 106.252 154.313 106.354 154.659 106.434L155.821 106.682C156.465 106.821 156.944 107.041 157.257 107.343C157.574 107.644 157.733 108.039 157.736 108.527C157.733 108.955 157.608 109.334 157.359 109.662C157.114 109.987 156.773 110.241 156.335 110.425C155.898 110.608 155.395 110.699 154.828 110.699C153.994 110.699 153.323 110.525 152.815 110.176C152.306 109.824 152.003 109.335 151.906 108.709L153.471 108.558C153.542 108.865 153.693 109.097 153.923 109.254C154.154 109.411 154.454 109.489 154.823 109.489C155.205 109.489 155.51 109.411 155.741 109.254C155.975 109.097 156.091 108.904 156.091 108.673C156.091 108.478 156.016 108.317 155.865 108.19C155.717 108.063 155.487 107.965 155.174 107.897L154.012 107.653C153.359 107.517 152.875 107.288 152.562 106.966C152.249 106.641 152.093 106.23 152.096 105.733C152.093 105.314 152.207 104.95 152.438 104.643C152.671 104.332 152.995 104.093 153.409 103.924C153.826 103.753 154.306 103.667 154.85 103.667C155.648 103.667 156.276 103.837 156.734 104.177C157.195 104.517 157.481 104.977 157.59 105.556ZM162.461 103.756V104.997H158.546V103.756H162.461ZM159.512 102.124H161.117V108.518C161.117 108.734 161.15 108.899 161.215 109.015C161.283 109.127 161.371 109.204 161.481 109.245C161.59 109.286 161.711 109.307 161.844 109.307C161.945 109.307 162.037 109.3 162.119 109.285C162.205 109.27 162.27 109.257 162.314 109.245L162.585 110.5C162.499 110.529 162.376 110.562 162.217 110.597C162.06 110.633 161.868 110.654 161.64 110.66C161.238 110.671 160.876 110.611 160.554 110.478C160.232 110.342 159.976 110.132 159.787 109.848C159.601 109.564 159.509 109.21 159.512 108.784V102.124ZM166.9 113.12V103.756H168.479V104.882H168.572C168.655 104.717 168.771 104.541 168.922 104.354C169.073 104.165 169.277 104.004 169.534 103.871C169.791 103.735 170.119 103.667 170.518 103.667C171.044 103.667 171.519 103.802 171.942 104.071C172.367 104.337 172.704 104.731 172.953 105.255C173.204 105.775 173.329 106.413 173.329 107.17C173.329 107.918 173.207 108.553 172.961 109.077C172.716 109.6 172.382 109.999 171.959 110.274C171.537 110.549 171.058 110.686 170.523 110.686C170.133 110.686 169.809 110.621 169.552 110.491C169.295 110.361 169.088 110.204 168.931 110.021C168.777 109.835 168.658 109.659 168.572 109.493H168.505V113.12H166.9ZM168.474 107.161C168.474 107.602 168.536 107.987 168.66 108.318C168.788 108.649 168.969 108.908 169.206 109.094C169.445 109.278 169.735 109.369 170.075 109.369C170.43 109.369 170.727 109.275 170.966 109.085C171.206 108.893 171.386 108.632 171.507 108.301C171.631 107.967 171.693 107.587 171.693 107.161C171.693 106.738 171.633 106.363 171.512 106.035C171.39 105.707 171.21 105.45 170.971 105.263C170.731 105.077 170.433 104.984 170.075 104.984C169.732 104.984 169.441 105.074 169.201 105.255C168.962 105.435 168.78 105.688 168.656 106.013C168.535 106.338 168.474 106.721 168.474 107.161ZM174.704 110.566V103.756H176.26V104.891H176.331C176.455 104.498 176.668 104.195 176.97 103.982C177.274 103.766 177.622 103.658 178.012 103.658C178.1 103.658 178.199 103.663 178.309 103.672C178.421 103.678 178.514 103.688 178.588 103.703V105.179C178.52 105.156 178.412 105.135 178.264 105.117C178.12 105.096 177.979 105.086 177.843 105.086C177.551 105.086 177.287 105.15 177.054 105.277C176.823 105.401 176.642 105.574 176.509 105.795C176.376 106.017 176.309 106.273 176.309 106.563V110.566H174.704ZM182.345 110.699C181.68 110.699 181.103 110.553 180.616 110.26C180.128 109.968 179.749 109.558 179.48 109.032C179.214 108.506 179.081 107.891 179.081 107.188C179.081 106.484 179.214 105.868 179.48 105.339C179.749 104.81 180.128 104.399 180.616 104.106C181.103 103.813 181.68 103.667 182.345 103.667C183.01 103.667 183.586 103.813 184.074 104.106C184.562 104.399 184.939 104.81 185.205 105.339C185.474 105.868 185.608 106.484 185.608 107.188C185.608 107.891 185.474 108.506 185.205 109.032C184.939 109.558 184.562 109.968 184.074 110.26C183.586 110.553 183.01 110.699 182.345 110.699ZM182.354 109.414C182.714 109.414 183.016 109.315 183.258 109.117C183.501 108.915 183.681 108.647 183.799 108.31C183.92 107.973 183.981 107.597 183.981 107.183C183.981 106.767 183.92 106.39 183.799 106.053C183.681 105.713 183.501 105.442 183.258 105.241C183.016 105.04 182.714 104.94 182.354 104.94C181.984 104.94 181.677 105.04 181.431 105.241C181.189 105.442 181.007 105.713 180.886 106.053C180.768 106.39 180.709 106.767 180.709 107.183C180.709 107.597 180.768 107.973 180.886 108.31C181.007 108.647 181.189 108.915 181.431 109.117C181.677 109.315 181.984 109.414 182.354 109.414ZM189.498 110.686C188.963 110.686 188.484 110.549 188.061 110.274C187.639 109.999 187.305 109.6 187.059 109.077C186.814 108.553 186.691 107.918 186.691 107.17C186.691 106.413 186.815 105.775 187.064 105.255C187.315 104.731 187.653 104.337 188.079 104.071C188.505 103.802 188.979 103.667 189.502 103.667C189.901 103.667 190.229 103.735 190.487 103.871C190.744 104.004 190.948 104.165 191.099 104.354C191.249 104.541 191.366 104.717 191.449 104.882H191.515V101.486H193.125V110.566H191.546V109.493H191.449C191.366 109.659 191.246 109.835 191.09 110.021C190.933 110.204 190.726 110.361 190.469 110.491C190.212 110.621 189.888 110.686 189.498 110.686ZM189.946 109.369C190.286 109.369 190.575 109.278 190.815 109.094C191.054 108.908 191.236 108.649 191.36 108.318C191.484 107.987 191.546 107.602 191.546 107.161C191.546 106.721 191.484 106.338 191.36 106.013C191.239 105.688 191.059 105.435 190.819 105.255C190.583 105.074 190.292 104.984 189.946 104.984C189.588 104.984 189.289 105.077 189.05 105.263C188.811 105.45 188.63 105.707 188.509 106.035C188.388 106.363 188.327 106.738 188.327 107.161C188.327 107.587 188.388 107.967 188.509 108.301C188.633 108.632 188.815 108.893 189.054 109.085C189.297 109.275 189.594 109.369 189.946 109.369ZM199.176 107.702V103.756H200.781V110.566H199.225V109.356H199.154C199 109.737 198.747 110.049 198.396 110.292C198.047 110.534 197.617 110.655 197.105 110.655C196.659 110.655 196.264 110.556 195.922 110.358C195.582 110.157 195.316 109.866 195.123 109.485C194.931 109.1 194.835 108.636 194.835 108.092V103.756H196.44V107.844C196.44 108.276 196.559 108.618 196.795 108.873C197.032 109.127 197.342 109.254 197.726 109.254C197.963 109.254 198.192 109.196 198.413 109.081C198.635 108.966 198.817 108.794 198.959 108.567C199.104 108.336 199.176 108.048 199.176 107.702ZM205.402 110.699C204.723 110.699 204.139 110.55 203.651 110.252C203.166 109.953 202.792 109.541 202.529 109.015C202.269 108.485 202.139 107.876 202.139 107.188C202.139 106.496 202.272 105.886 202.538 105.357C202.804 104.824 203.18 104.411 203.664 104.115C204.152 103.816 204.728 103.667 205.394 103.667C205.946 103.667 206.436 103.769 206.861 103.973C207.29 104.174 207.631 104.459 207.885 104.829C208.14 105.195 208.285 105.624 208.32 106.115H206.786C206.724 105.787 206.576 105.513 206.342 105.294C206.112 105.073 205.803 104.962 205.416 104.962C205.088 104.962 204.799 105.051 204.551 105.228C204.303 105.402 204.109 105.654 203.97 105.982C203.834 106.31 203.766 106.703 203.766 107.161C203.766 107.625 203.834 108.024 203.97 108.358C204.106 108.689 204.297 108.945 204.542 109.125C204.791 109.303 205.082 109.391 205.416 109.391C205.652 109.391 205.864 109.347 206.05 109.258C206.239 109.167 206.397 109.035 206.524 108.864C206.651 108.692 206.739 108.484 206.786 108.239H208.32C208.282 108.72 208.14 109.148 207.894 109.52C207.649 109.889 207.315 110.179 206.892 110.389C206.47 110.596 205.973 110.699 205.402 110.699ZM213.039 103.756V104.997H209.124V103.756H213.039ZM210.09 102.124H211.695V108.518C211.695 108.734 211.728 108.899 211.793 109.015C211.861 109.127 211.95 109.204 212.059 109.245C212.168 109.286 212.289 109.307 212.423 109.307C212.523 109.307 212.615 109.3 212.697 109.285C212.783 109.27 212.848 109.257 212.893 109.245L213.163 110.5C213.077 110.529 212.955 110.562 212.795 110.597C212.638 110.633 212.446 110.654 212.219 110.66C211.817 110.671 211.454 110.611 211.132 110.478C210.81 110.342 210.554 110.132 210.365 109.848C210.179 109.564 210.087 109.21 210.09 108.784V102.124Z" fill="white"/>
<path d="M122.066 197.356C122.503 197.584 122.846 197.898 123.093 198.298C123.34 198.697 123.464 199.158 123.464 199.682C123.464 200.5 123.174 201.18 122.593 201.722C122.013 202.265 121.304 202.536 120.467 202.536H116.186V192.547H120.153C120.971 192.547 121.661 192.813 122.222 193.346C122.793 193.869 123.079 194.526 123.079 195.315C123.079 196.181 122.741 196.861 122.066 197.356ZM120.153 194.088H117.827V196.714H120.153C120.515 196.714 120.819 196.59 121.067 196.343C121.314 196.086 121.438 195.772 121.438 195.401C121.438 195.03 121.314 194.721 121.067 194.473C120.819 194.216 120.515 194.088 120.153 194.088ZM120.467 200.995C120.848 200.995 121.167 200.861 121.423 200.595C121.69 200.319 121.823 199.986 121.823 199.596C121.823 199.206 121.69 198.878 121.423 198.611C121.167 198.336 120.848 198.198 120.467 198.198H117.827V200.995H120.467ZM129.744 195.401H131.285V202.536H129.744V201.622C129.278 202.355 128.541 202.721 127.532 202.721C126.714 202.721 126.053 202.46 125.549 201.936C125.045 201.413 124.793 200.695 124.793 199.782V195.401H126.334V199.625C126.334 200.157 126.477 200.566 126.762 200.852C127.047 201.137 127.437 201.28 127.932 201.28C128.474 201.28 128.912 201.113 129.245 200.78C129.578 200.438 129.744 199.92 129.744 199.225V195.401ZM137.896 195.401H139.537L136.798 202.764C136.113 204.61 134.952 205.485 133.316 205.39V203.948C133.801 203.977 134.191 203.872 134.486 203.634C134.781 203.406 135.023 203.045 135.214 202.55L135.285 202.407L132.26 195.401H133.944L136.07 200.581L137.896 195.401ZM141.435 199.625C141.549 200.167 141.811 200.585 142.22 200.88C142.629 201.166 143.129 201.308 143.718 201.308C144.537 201.308 145.15 201.014 145.559 200.424L146.829 201.166C146.125 202.203 145.084 202.721 143.704 202.721C142.544 202.721 141.607 202.369 140.893 201.665C140.18 200.952 139.823 200.053 139.823 198.968C139.823 197.903 140.175 197.013 140.879 196.3C141.583 195.577 142.487 195.215 143.59 195.215C144.637 195.215 145.493 195.582 146.159 196.314C146.834 197.047 147.172 197.936 147.172 198.982C147.172 199.144 147.153 199.358 147.115 199.625H141.435ZM141.421 198.369H145.616C145.512 197.789 145.269 197.351 144.889 197.056C144.518 196.761 144.08 196.614 143.576 196.614C143.005 196.614 142.529 196.771 142.149 197.085C141.768 197.399 141.526 197.827 141.421 198.369ZM150.069 196.599C150.459 195.715 151.192 195.272 152.267 195.272V196.942C151.677 196.904 151.163 197.047 150.725 197.37C150.288 197.684 150.069 198.207 150.069 198.94V202.536H148.528V195.401H150.069V196.599ZM162.623 195.401H164.165V202.536H162.623V201.508C162.043 202.317 161.211 202.721 160.126 202.721C159.146 202.721 158.309 202.36 157.615 201.637C156.92 200.904 156.573 200.015 156.573 198.968C156.573 197.912 156.92 197.023 157.615 196.3C158.309 195.577 159.146 195.215 160.126 195.215C161.211 195.215 162.043 195.615 162.623 196.414V195.401ZM158.756 200.609C159.184 201.037 159.722 201.251 160.369 201.251C161.016 201.251 161.553 201.037 161.981 200.609C162.409 200.172 162.623 199.625 162.623 198.968C162.623 198.312 162.409 197.77 161.981 197.341C161.553 196.904 161.016 196.685 160.369 196.685C159.722 196.685 159.184 196.904 158.756 197.341C158.328 197.77 158.114 198.312 158.114 198.968C158.114 199.625 158.328 200.172 158.756 200.609ZM171.612 192.547H173.153V202.536H171.612V201.508C171.031 202.317 170.199 202.721 169.114 202.721C168.135 202.721 167.297 202.36 166.603 201.637C165.909 200.904 165.561 200.015 165.561 198.968C165.561 197.912 165.909 197.023 166.603 196.3C167.297 195.577 168.135 195.215 169.114 195.215C170.199 195.215 171.031 195.615 171.612 196.414V192.547ZM167.745 200.609C168.173 201.037 168.71 201.251 169.357 201.251C170.004 201.251 170.541 201.037 170.97 200.609C171.398 200.172 171.612 199.625 171.612 198.968C171.612 198.312 171.398 197.77 170.97 197.341C170.541 196.904 170.004 196.685 169.357 196.685C168.71 196.685 168.173 196.904 167.745 197.341C167.316 197.77 167.102 198.312 167.102 198.968C167.102 199.625 167.316 200.172 167.745 200.609ZM180.6 192.547H182.141V202.536H180.6V201.508C180.02 202.317 179.187 202.721 178.103 202.721C177.123 202.721 176.286 202.36 175.591 201.637C174.897 200.904 174.55 200.015 174.55 198.968C174.55 197.912 174.897 197.023 175.591 196.3C176.286 195.577 177.123 195.215 178.103 195.215C179.187 195.215 180.02 195.615 180.6 196.414V192.547ZM176.733 200.609C177.161 201.037 177.698 201.251 178.345 201.251C178.992 201.251 179.53 201.037 179.958 200.609C180.386 200.172 180.6 199.625 180.6 198.968C180.6 198.312 180.386 197.77 179.958 197.341C179.53 196.904 178.992 196.685 178.345 196.685C177.698 196.685 177.161 196.904 176.733 197.341C176.305 197.77 176.091 198.312 176.091 198.968C176.091 199.625 176.305 200.172 176.733 200.609ZM185.28 197.37C185.28 197.608 185.408 197.798 185.665 197.941C185.931 198.074 186.25 198.193 186.621 198.298C187.002 198.393 187.382 198.507 187.763 198.64C188.143 198.773 188.462 199.002 188.719 199.325C188.985 199.639 189.118 200.038 189.118 200.524C189.118 201.209 188.852 201.746 188.319 202.136C187.796 202.526 187.135 202.721 186.336 202.721C185.632 202.721 185.028 202.574 184.523 202.279C184.019 201.984 183.653 201.575 183.425 201.052L184.752 200.281C184.999 200.966 185.527 201.308 186.336 201.308C187.144 201.308 187.549 201.042 187.549 200.509C187.549 200.281 187.415 200.096 187.149 199.953C186.892 199.81 186.574 199.691 186.193 199.596C185.822 199.491 185.446 199.373 185.066 199.239C184.685 199.106 184.362 198.887 184.095 198.583C183.839 198.269 183.71 197.874 183.71 197.399C183.71 196.742 183.957 196.214 184.452 195.815C184.956 195.415 185.579 195.215 186.321 195.215C186.911 195.215 187.434 195.348 187.891 195.615C188.357 195.872 188.714 196.233 188.961 196.699L187.663 197.427C187.415 196.885 186.968 196.614 186.321 196.614C186.027 196.614 185.779 196.68 185.579 196.813C185.38 196.937 185.28 197.123 185.28 197.37ZM198.022 196.885H196.252V200.31C196.252 200.604 196.319 200.819 196.452 200.952C196.585 201.075 196.78 201.147 197.037 201.166C197.303 201.175 197.632 201.171 198.022 201.151V202.536C196.842 202.678 195.995 202.578 195.482 202.236C194.968 201.884 194.711 201.242 194.711 200.31V196.885H193.398V195.401H194.711V193.86L196.252 193.403V195.401H198.022V196.885ZM202.495 202.721C201.448 202.721 200.559 202.36 199.826 201.637C199.094 200.914 198.727 200.024 198.727 198.968C198.727 197.912 199.094 197.023 199.826 196.3C200.559 195.577 201.448 195.215 202.495 195.215C203.55 195.215 204.44 195.577 205.163 196.3C205.895 197.023 206.262 197.912 206.262 198.968C206.262 200.024 205.895 200.914 205.163 201.637C204.44 202.36 203.55 202.721 202.495 202.721ZM200.911 200.581C201.339 201.009 201.867 201.223 202.495 201.223C203.122 201.223 203.65 201.009 204.078 200.581C204.507 200.153 204.721 199.615 204.721 198.968C204.721 198.321 204.507 197.784 204.078 197.356C203.65 196.928 203.122 196.714 202.495 196.714C201.867 196.714 201.339 196.928 200.911 197.356C200.482 197.784 200.268 198.321 200.268 198.968C200.268 199.615 200.482 200.153 200.911 200.581ZM216.046 202.721C214.543 202.721 213.297 202.226 212.307 201.237C211.318 200.238 210.823 199.006 210.823 197.541C210.823 196.076 211.318 194.849 212.307 193.86C213.297 192.861 214.543 192.361 216.046 192.361C216.95 192.361 217.782 192.575 218.543 193.003C219.314 193.432 219.913 194.012 220.341 194.744L218.914 195.572C218.648 195.077 218.258 194.687 217.744 194.402C217.24 194.107 216.674 193.96 216.046 193.96C214.98 193.96 214.115 194.297 213.449 194.973C212.792 195.648 212.464 196.504 212.464 197.541C212.464 198.578 212.792 199.434 213.449 200.11C214.115 200.785 214.98 201.123 216.046 201.123C216.674 201.123 217.245 200.98 217.758 200.695C218.272 200.4 218.657 200.005 218.914 199.51L220.341 200.324C219.922 201.056 219.328 201.641 218.557 202.079C217.796 202.507 216.959 202.721 216.046 202.721ZM227.241 195.401H228.782V202.536H227.241V201.508C226.661 202.317 225.829 202.721 224.744 202.721C223.764 202.721 222.927 202.36 222.233 201.637C221.538 200.904 221.191 200.015 221.191 198.968C221.191 197.912 221.538 197.023 222.233 196.3C222.927 195.577 223.764 195.215 224.744 195.215C225.829 195.215 226.661 195.615 227.241 196.414V195.401ZM223.374 200.609C223.802 201.037 224.34 201.251 224.987 201.251C225.634 201.251 226.171 201.037 226.599 200.609C227.027 200.172 227.241 199.625 227.241 198.968C227.241 198.312 227.027 197.77 226.599 197.341C226.171 196.904 225.634 196.685 224.987 196.685C224.34 196.685 223.802 196.904 223.374 197.341C222.946 197.77 222.732 198.312 222.732 198.968C222.732 199.625 222.946 200.172 223.374 200.609ZM232.12 196.599C232.51 195.715 233.242 195.272 234.317 195.272V196.942C233.728 196.904 233.214 197.047 232.776 197.37C232.339 197.684 232.12 198.207 232.12 198.94V202.536H230.579V195.401H232.12V196.599ZM239.619 196.885H237.849V200.31C237.849 200.604 237.916 200.819 238.049 200.952C238.182 201.075 238.377 201.147 238.634 201.166C238.9 201.175 239.229 201.171 239.619 201.151V202.536C238.439 202.678 237.592 202.578 237.079 202.236C236.565 201.884 236.308 201.242 236.308 200.31V196.885H234.995V195.401H236.308V193.86L237.849 193.403V195.401H239.619V196.885Z" fill="#323B4B" fill-opacity="0.3"/>
<path d="M345.289 73.9186C345.289 68.993 349.282 65 354.208 65H406.827C411.753 65 415.746 68.993 415.746 73.9186V83.729H345.289V73.9186Z" fill="#AAFFB8"/>
<path d="M362.176 70.7516C362.883 70.7516 363.471 70.987 363.942 71.4579C364.42 71.9288 364.659 72.5139 364.659 73.2131C364.659 73.9052 364.42 74.4902 363.942 74.9683C363.471 75.4392 362.883 75.6746 362.176 75.6746H360.646V78.2432H359.415V70.7516H362.176ZM362.176 74.5188C362.54 74.5188 362.84 74.3975 363.075 74.1549C363.311 73.9052 363.429 73.5912 363.429 73.2131C363.429 72.8349 363.311 72.5246 363.075 72.282C362.84 72.0323 362.54 71.9074 362.176 71.9074H360.646V74.5188H362.176ZM369.515 72.892H370.671V78.2432H369.515V77.4726C369.08 78.0791 368.455 78.3823 367.642 78.3823C366.907 78.3823 366.279 78.1112 365.758 77.5689C365.237 77.0195 364.977 76.3524 364.977 75.5676C364.977 74.7756 365.237 74.1085 365.758 73.5663C366.279 73.024 366.907 72.7529 367.642 72.7529C368.455 72.7529 369.08 73.0525 369.515 73.6519V72.892ZM366.614 76.7984C366.936 77.1194 367.339 77.28 367.824 77.28C368.309 77.28 368.712 77.1194 369.033 76.7984C369.354 76.4701 369.515 76.0599 369.515 75.5676C369.515 75.0753 369.354 74.6686 369.033 74.3475C368.712 74.0193 368.309 73.8552 367.824 73.8552C367.339 73.8552 366.936 74.0193 366.614 74.3475C366.293 74.6686 366.133 75.0753 366.133 75.5676C366.133 76.0599 366.293 76.4701 366.614 76.7984ZM375.625 72.892H376.855L374.8 78.4144C374.287 79.7986 373.416 80.455 372.189 80.3836V79.3027C372.553 79.3241 372.846 79.2456 373.067 79.0672C373.288 78.896 373.47 78.6249 373.613 78.2539L373.666 78.1468L371.397 72.892H372.66L374.255 76.7769L375.625 72.892ZM383.422 72.7529C384.028 72.7529 384.517 72.9491 384.888 73.3415C385.259 73.7339 385.444 74.2619 385.444 74.9255V78.2432H384.288V75.0004C384.288 74.6294 384.196 74.344 384.01 74.1442C383.825 73.9373 383.571 73.8338 383.25 73.8338C382.894 73.8338 382.608 73.9515 382.394 74.187C382.187 74.4224 382.084 74.7756 382.084 75.2465V78.2432H380.928V75.0004C380.928 74.6294 380.839 74.344 380.66 74.1442C380.489 73.9373 380.243 73.8338 379.922 73.8338C379.572 73.8338 379.287 73.9551 379.066 74.1977C378.845 74.4331 378.734 74.7828 378.734 75.2465V78.2432H377.578V72.892H378.734V73.5342C379.076 73.0133 379.587 72.7529 380.264 72.7529C380.949 72.7529 381.456 73.0347 381.784 73.5984C382.141 73.0347 382.687 72.7529 383.422 72.7529ZM387.591 76.0599C387.677 76.4666 387.873 76.7805 388.18 77.0017C388.486 77.2157 388.861 77.3228 389.303 77.3228C389.917 77.3228 390.377 77.1016 390.684 76.6592L391.636 77.2157C391.108 77.9934 390.327 78.3823 389.293 78.3823C388.422 78.3823 387.719 78.1183 387.184 77.5903C386.649 77.0552 386.382 76.381 386.382 75.5676C386.382 74.7685 386.646 74.1014 387.174 73.5663C387.702 73.024 388.379 72.7529 389.207 72.7529C389.992 72.7529 390.634 73.0276 391.133 73.577C391.64 74.1263 391.893 74.7935 391.893 75.5783C391.893 75.6996 391.879 75.8601 391.851 76.0599H387.591ZM387.58 75.1181H390.727C390.648 74.6829 390.466 74.3547 390.181 74.1335C389.903 73.9123 389.574 73.8017 389.196 73.8017C388.768 73.8017 388.411 73.9194 388.126 74.1549C387.841 74.3903 387.659 74.7114 387.58 75.1181ZM395.725 72.7529C396.339 72.7529 396.835 72.9491 397.213 73.3415C397.591 73.7339 397.78 74.2726 397.78 74.9576V78.2432H396.624V75.0753C396.624 74.6757 396.517 74.3689 396.303 74.1549C396.089 73.9408 395.796 73.8338 395.425 73.8338C395.019 73.8338 394.691 73.9622 394.441 74.2191C394.191 74.4688 394.066 74.8541 394.066 75.3749V78.2432H392.91V72.892H394.066V73.577C394.416 73.0276 394.969 72.7529 395.725 72.7529ZM402.01 74.0051H400.683V76.5736C400.683 76.7948 400.733 76.9553 400.833 77.0552C400.933 77.148 401.079 77.2015 401.272 77.2157C401.472 77.2229 401.718 77.2193 402.01 77.205V78.2432C401.126 78.3502 400.491 78.2753 400.105 78.0184C399.72 77.7544 399.527 77.2728 399.527 76.5736V74.0051H398.543V72.892H399.527V71.7362L400.683 71.3937V72.892H402.01V74.0051Z" fill="#00B41D"/>
<rect x="310.06" y="85.9586" width="140.914" height="41.9173" rx="13.8238" fill="#00B41D" stroke="#AAFFB8" stroke-width="6.24301"/>
<path d="M351.905 104.594L351.59 105.756H345.706L346.025 104.594H351.905ZM348.947 111.458L345.843 107.725L345.839 106.74H347.373C347.74 106.74 348.046 106.68 348.291 106.558C348.539 106.434 348.727 106.261 348.854 106.04C348.984 105.815 349.049 105.552 349.049 105.25C349.049 104.798 348.916 104.435 348.65 104.16C348.384 103.885 347.958 103.747 347.373 103.747H345.706L346.052 102.377H347.373C348.118 102.377 348.734 102.493 349.222 102.723C349.713 102.951 350.079 103.273 350.322 103.69C350.567 104.107 350.69 104.594 350.69 105.153C350.69 105.647 350.599 106.087 350.419 106.474C350.239 106.861 349.955 107.179 349.568 107.428C349.181 107.676 348.674 107.841 348.047 107.924L347.994 107.942L350.796 111.378V111.458H348.947ZM351.913 102.377L351.59 103.557L346.819 103.539L347.142 102.377H351.913ZM356.276 111.582C355.685 111.582 355.156 111.471 354.689 111.25C354.222 111.025 353.851 110.718 353.576 110.327C353.304 109.937 353.159 109.491 353.142 108.988H354.738C354.767 109.361 354.928 109.665 355.221 109.902C355.514 110.135 355.866 110.252 356.276 110.252C356.599 110.252 356.885 110.178 357.137 110.03C357.388 109.882 357.586 109.677 357.731 109.414C357.876 109.151 357.947 108.851 357.944 108.514C357.947 108.171 357.874 107.867 357.726 107.6C357.579 107.334 357.376 107.126 357.119 106.975C356.862 106.822 356.566 106.745 356.232 106.745C355.96 106.742 355.693 106.792 355.43 106.895C355.166 106.999 354.958 107.135 354.804 107.303L353.319 107.06L353.793 102.377H359.061V103.752H355.155L354.893 106.159H354.946C355.115 105.961 355.353 105.797 355.66 105.667C355.968 105.534 356.304 105.468 356.671 105.468C357.221 105.468 357.712 105.598 358.143 105.858C358.575 106.115 358.915 106.47 359.163 106.922C359.411 107.374 359.535 107.892 359.535 108.474C359.535 109.074 359.396 109.609 359.119 110.079C358.844 110.546 358.461 110.914 357.97 111.183C357.482 111.449 356.918 111.582 356.276 111.582ZM362.618 110.217L362.56 110.704C362.519 111.077 362.445 111.455 362.339 111.839C362.235 112.227 362.126 112.583 362.011 112.908C361.895 113.233 361.802 113.489 361.731 113.675H360.649C360.691 113.495 360.747 113.249 360.818 112.939C360.892 112.629 360.963 112.28 361.031 111.893C361.099 111.505 361.145 111.112 361.168 110.713L361.199 110.217H362.618ZM367.401 111.631C366.671 111.631 366.044 111.446 365.521 111.077C365.001 110.704 364.6 110.168 364.32 109.467C364.042 108.764 363.903 107.917 363.903 106.927C363.906 105.936 364.046 105.094 364.324 104.399C364.605 103.702 365.005 103.169 365.526 102.803C366.049 102.436 366.674 102.253 367.401 102.253C368.128 102.253 368.754 102.436 369.277 102.803C369.8 103.169 370.2 103.702 370.478 104.399C370.759 105.097 370.9 105.939 370.9 106.927C370.9 107.92 370.759 108.768 370.478 109.472C370.2 110.172 369.8 110.707 369.277 111.077C368.757 111.446 368.131 111.631 367.401 111.631ZM367.401 110.243C367.969 110.243 368.417 109.964 368.745 109.405C369.076 108.843 369.241 108.017 369.241 106.927C369.241 106.205 369.166 105.599 369.015 105.109C368.864 104.618 368.652 104.248 368.377 104C368.102 103.749 367.777 103.623 367.401 103.623C366.837 103.623 366.39 103.904 366.062 104.466C365.734 105.024 365.568 105.845 365.566 106.927C365.563 107.651 365.635 108.26 365.783 108.753C365.934 109.247 366.146 109.619 366.421 109.871C366.696 110.119 367.023 110.243 367.401 110.243ZM375.729 111.631C374.999 111.631 374.372 111.446 373.849 111.077C373.329 110.704 372.928 110.168 372.648 109.467C372.37 108.764 372.231 107.917 372.231 106.927C372.234 105.936 372.374 105.094 372.652 104.399C372.933 103.702 373.333 103.169 373.854 102.803C374.377 102.436 375.002 102.253 375.729 102.253C376.456 102.253 377.082 102.436 377.605 102.803C378.128 103.169 378.529 103.702 378.806 104.399C379.087 105.097 379.228 105.939 379.228 106.927C379.228 107.92 379.087 108.768 378.806 109.472C378.529 110.172 378.128 110.707 377.605 111.077C377.085 111.446 376.459 111.631 375.729 111.631ZM375.729 110.243C376.297 110.243 376.745 109.964 377.073 109.405C377.404 108.843 377.569 108.017 377.569 106.927C377.569 106.205 377.494 105.599 377.343 105.109C377.192 104.618 376.98 104.248 376.705 104C376.43 103.749 376.105 103.623 375.729 103.623C375.165 103.623 374.718 103.904 374.39 104.466C374.062 105.024 373.897 105.845 373.894 106.927C373.891 107.651 373.963 108.26 374.111 108.753C374.262 109.247 374.474 109.619 374.749 109.871C375.024 110.119 375.351 110.243 375.729 110.243ZM384.057 111.631C383.327 111.631 382.701 111.446 382.177 111.077C381.657 110.704 381.257 110.168 380.976 109.467C380.698 108.764 380.559 107.917 380.559 106.927C380.562 105.936 380.702 105.094 380.98 104.399C381.261 103.702 381.662 103.169 382.182 102.803C382.705 102.436 383.33 102.253 384.057 102.253C384.785 102.253 385.41 102.436 385.933 102.803C386.456 103.169 386.857 103.702 387.135 104.399C387.415 105.097 387.556 105.939 387.556 106.927C387.556 107.92 387.415 108.768 387.135 109.472C386.857 110.172 386.456 110.707 385.933 111.077C385.413 111.446 384.787 111.631 384.057 111.631ZM384.057 110.243C384.625 110.243 385.073 109.964 385.401 109.405C385.732 108.843 385.897 108.017 385.897 106.927C385.897 106.205 385.822 105.599 385.671 105.109C385.521 104.618 385.308 104.248 385.033 104C384.758 103.749 384.433 103.623 384.057 103.623C383.493 103.623 383.046 103.904 382.718 104.466C382.39 105.024 382.225 105.845 382.222 106.927C382.219 107.651 382.291 108.26 382.439 108.753C382.59 109.247 382.803 109.619 383.077 109.871C383.352 110.119 383.679 110.243 384.057 110.243ZM390.577 110.217L390.52 110.704C390.478 111.077 390.405 111.455 390.298 111.839C390.195 112.227 390.085 112.583 389.97 112.908C389.855 113.233 389.762 113.489 389.691 113.675H388.609C388.65 113.495 388.706 113.249 388.777 112.939C388.851 112.629 388.922 112.28 388.99 111.893C389.058 111.505 389.104 111.112 389.128 110.713L389.159 110.217H390.577ZM395.361 111.631C394.63 111.631 394.004 111.446 393.481 111.077C392.96 110.704 392.56 110.168 392.279 109.467C392.001 108.764 391.862 107.917 391.862 106.927C391.865 105.936 392.006 105.094 392.283 104.399C392.564 103.702 392.965 103.169 393.485 102.803C394.008 102.436 394.633 102.253 395.361 102.253C396.088 102.253 396.713 102.436 397.236 102.803C397.759 103.169 398.16 103.702 398.438 104.399C398.719 105.097 398.859 105.939 398.859 106.927C398.859 107.92 398.719 108.768 398.438 109.472C398.16 110.172 397.759 110.707 397.236 111.077C396.716 111.446 396.091 111.631 395.361 111.631ZM395.361 110.243C395.928 110.243 396.376 109.964 396.704 109.405C397.035 108.843 397.201 108.017 397.201 106.927C397.201 106.205 397.125 105.599 396.975 105.109C396.824 104.618 396.611 104.248 396.336 104C396.061 103.749 395.736 103.623 395.361 103.623C394.796 103.623 394.35 103.904 394.022 104.466C393.693 105.024 393.528 105.845 393.525 106.927C393.522 107.651 393.594 108.26 393.742 108.753C393.893 109.247 394.106 109.619 394.381 109.871C394.656 110.119 394.982 110.243 395.361 110.243ZM403.689 111.631C402.959 111.631 402.332 111.446 401.809 111.077C401.288 110.704 400.888 110.168 400.607 109.467C400.329 108.764 400.19 107.917 400.19 106.927C400.193 105.936 400.334 105.094 400.612 104.399C400.892 103.702 401.293 103.169 401.813 102.803C402.336 102.436 402.962 102.253 403.689 102.253C404.416 102.253 405.041 102.436 405.564 102.803C406.087 103.169 406.488 103.702 406.766 104.399C407.047 105.097 407.187 105.939 407.187 106.927C407.187 107.92 407.047 108.768 406.766 109.472C406.488 110.172 406.087 110.707 405.564 111.077C405.044 111.446 404.419 111.631 403.689 111.631ZM403.689 110.243C404.256 110.243 404.704 109.964 405.032 109.405C405.363 108.843 405.529 108.017 405.529 106.927C405.529 106.205 405.453 105.599 405.303 105.109C405.152 104.618 404.939 104.248 404.664 104C404.389 103.749 404.064 103.623 403.689 103.623C403.124 103.623 402.678 103.904 402.35 104.466C402.022 105.024 401.856 105.845 401.853 106.927C401.85 107.651 401.922 108.26 402.07 108.753C402.221 109.247 402.434 109.619 402.709 109.871C402.984 110.119 403.31 110.243 403.689 110.243ZM412.017 111.631C411.287 111.631 410.66 111.446 410.137 111.077C409.616 110.704 409.216 110.168 408.935 109.467C408.657 108.764 408.518 107.917 408.518 106.927C408.521 105.936 408.662 105.094 408.94 104.399C409.22 103.702 409.621 103.169 410.141 102.803C410.664 102.436 411.29 102.253 412.017 102.253C412.744 102.253 413.369 102.436 413.892 102.803C414.416 103.169 414.816 103.702 415.094 104.399C415.375 105.097 415.515 105.939 415.515 106.927C415.515 107.92 415.375 108.768 415.094 109.472C414.816 110.172 414.416 110.707 413.892 111.077C413.372 111.446 412.747 111.631 412.017 111.631ZM412.017 110.243C412.584 110.243 413.032 109.964 413.36 109.405C413.691 108.843 413.857 108.017 413.857 106.927C413.857 106.205 413.781 105.599 413.631 105.109C413.48 104.618 413.267 104.248 412.992 104C412.717 103.749 412.392 103.623 412.017 103.623C411.452 103.623 411.006 103.904 410.678 104.466C410.35 105.024 410.184 105.845 410.181 106.927C410.178 107.651 410.251 108.26 410.398 108.753C410.549 109.247 410.762 109.619 411.037 109.871C411.312 110.119 411.638 110.243 412.017 110.243Z" fill="white"/>
<path d="M366.401 190.515C367.942 190.515 369.226 191.055 370.254 192.136C371.292 193.217 371.811 194.549 371.811 196.133C371.811 197.717 371.292 199.05 370.254 200.131C369.226 201.211 367.942 201.752 366.401 201.752H361.938V190.515H366.401ZM366.401 199.633C367.375 199.633 368.167 199.312 368.777 198.67C369.387 198.017 369.692 197.171 369.692 196.133C369.692 195.095 369.387 194.255 368.777 193.613C368.167 192.96 367.375 192.634 366.401 192.634H364.153V199.633H366.401ZM379.386 193.725H381.457V201.752H379.386V200.805C378.766 201.586 377.893 201.977 376.77 201.977C375.699 201.977 374.779 201.57 374.008 200.757C373.249 199.933 372.869 198.927 372.869 197.739C372.869 196.551 373.249 195.55 374.008 194.737C374.779 193.913 375.699 193.5 376.77 193.5C377.893 193.5 378.766 193.891 379.386 194.672V193.725ZM375.566 199.376C375.983 199.793 376.513 200.002 377.155 200.002C377.797 200.002 378.327 199.793 378.744 199.376C379.172 198.948 379.386 198.402 379.386 197.739C379.386 197.075 379.172 196.535 378.744 196.117C378.327 195.689 377.797 195.475 377.155 195.475C376.513 195.475 375.983 195.689 375.566 196.117C375.148 196.535 374.94 197.075 374.94 197.739C374.94 198.402 375.148 198.948 375.566 199.376ZM388.569 193.725H390.784L387.862 201.752C387.445 202.908 386.888 203.743 386.193 204.256C385.508 204.781 384.652 205.016 383.624 204.963V203.036C384.181 203.047 384.619 202.929 384.94 202.683C385.272 202.437 385.534 202.041 385.727 201.495L382.436 193.725H384.7L386.787 199.119L388.569 193.725ZM399.892 201.977C398.49 201.977 397.388 201.447 396.585 200.387C395.794 199.317 395.398 197.899 395.398 196.133C395.398 194.367 395.794 192.955 396.585 191.895C397.388 190.825 398.49 190.29 399.892 190.29C401.305 190.29 402.408 190.825 403.2 191.895C403.991 192.955 404.387 194.367 404.387 196.133C404.387 197.899 403.991 199.317 403.2 200.387C402.408 201.447 401.305 201.977 399.892 201.977ZM398.191 198.878C398.576 199.499 399.143 199.809 399.892 199.809C400.642 199.809 401.209 199.494 401.594 198.862C401.99 198.231 402.188 197.321 402.188 196.133C402.188 194.935 401.99 194.02 401.594 193.388C401.209 192.757 400.642 192.441 399.892 192.441C399.143 192.441 398.576 192.757 398.191 193.388C397.806 194.02 397.613 194.935 397.613 196.133C397.613 197.332 397.806 198.247 398.191 198.878Z" fill="#323B4B"/>
<path d="M562.008 73.9186C562.008 68.993 566.001 65 570.926 65H623.546C628.472 65 632.465 68.993 632.465 73.9186V83.729H562.008V73.9186Z" fill="#FFE1B4"/>
<path d="M574.768 78.2427L574.244 76.7337H571.054L570.53 78.2427H569.192L571.911 70.7511H573.387L576.095 78.2427H574.768ZM571.461 75.5778H573.837L572.649 72.1959L571.461 75.5778ZM580.928 70.7511H582.084V78.2427H580.928V77.4721C580.493 78.0786 579.869 78.3818 579.055 78.3818C578.32 78.3818 577.692 78.1107 577.172 77.5684C576.651 77.019 576.39 76.3519 576.39 75.5671C576.39 74.7751 576.651 74.108 577.172 73.5658C577.692 73.0235 578.32 72.7524 579.055 72.7524C579.869 72.7524 580.493 73.0521 580.928 73.6514V70.7511ZM578.028 76.7979C578.349 77.1189 578.752 77.2795 579.237 77.2795C579.722 77.2795 580.125 77.1189 580.446 76.7979C580.768 76.4697 580.928 76.0594 580.928 75.5671C580.928 75.0748 580.768 74.6681 580.446 74.347C580.125 74.0188 579.722 73.8547 579.237 73.8547C578.752 73.8547 578.349 74.0188 578.028 74.347C577.707 74.6681 577.546 75.0748 577.546 75.5671C577.546 76.0594 577.707 76.4697 578.028 76.7979ZM587.669 70.7511H588.825V78.2427H587.669V77.4721C587.234 78.0786 586.61 78.3818 585.796 78.3818C585.061 78.3818 584.434 78.1107 583.913 77.5684C583.392 77.019 583.132 76.3519 583.132 75.5671C583.132 74.7751 583.392 74.108 583.913 73.5658C584.434 73.0235 585.061 72.7524 585.796 72.7524C586.61 72.7524 587.234 73.0521 587.669 73.6514V70.7511ZM584.769 76.7979C585.09 77.1189 585.493 77.2795 585.978 77.2795C586.463 77.2795 586.867 77.1189 587.188 76.7979C587.509 76.4697 587.669 76.0594 587.669 75.5671C587.669 75.0748 587.509 74.6681 587.188 74.347C586.867 74.0188 586.463 73.8547 585.978 73.8547C585.493 73.8547 585.09 74.0188 584.769 74.347C584.448 74.6681 584.287 75.0748 584.287 75.5671C584.287 76.0594 584.448 76.4697 584.769 76.7979ZM595.834 74.0046H594.507V76.5731C594.507 76.7943 594.557 76.9548 594.657 77.0547C594.757 77.1475 594.903 77.201 595.095 77.2153C595.295 77.2224 595.541 77.2188 595.834 77.2046V78.2427C594.949 78.3497 594.314 78.2748 593.929 78.0179C593.544 77.7539 593.351 77.2723 593.351 76.5731V74.0046H592.366V72.8915H593.351V71.7357L594.507 71.3932V72.8915H595.834V74.0046ZM599.188 78.3818C598.404 78.3818 597.737 78.1107 597.187 77.5684C596.638 77.0262 596.363 76.3591 596.363 75.5671C596.363 74.7751 596.638 74.108 597.187 73.5658C597.737 73.0235 598.404 72.7524 599.188 72.7524C599.98 72.7524 600.648 73.0235 601.19 73.5658C601.739 74.108 602.014 74.7751 602.014 75.5671C602.014 76.3591 601.739 77.0262 601.19 77.5684C600.648 78.1107 599.98 78.3818 599.188 78.3818ZM598.001 76.7765C598.322 77.0975 598.718 77.2581 599.188 77.2581C599.659 77.2581 600.055 77.0975 600.376 76.7765C600.697 76.4554 600.858 76.0523 600.858 75.5671C600.858 75.0819 600.697 74.6788 600.376 74.3577C600.055 74.0367 599.659 73.8761 599.188 73.8761C598.718 73.8761 598.322 74.0367 598.001 74.3577C597.679 74.6788 597.519 75.0819 597.519 75.5671C597.519 76.0523 597.679 76.4554 598.001 76.7765ZM609.352 78.3818C608.225 78.3818 607.29 78.0108 606.548 77.2688C605.806 76.5196 605.435 75.5956 605.435 74.4969C605.435 73.3981 605.806 72.4777 606.548 71.7357C607.29 70.9865 608.225 70.6119 609.352 70.6119C610.03 70.6119 610.654 70.7725 611.225 71.0935C611.803 71.4146 612.252 71.8498 612.573 72.3992L611.503 73.02C611.303 72.6489 611.011 72.3564 610.626 72.1424C610.247 71.9212 609.823 71.8106 609.352 71.8106C608.553 71.8106 607.904 72.0639 607.404 72.5705C606.912 73.077 606.666 73.7192 606.666 74.4969C606.666 75.2746 606.912 75.9167 607.404 76.4233C607.904 76.9299 608.553 77.1831 609.352 77.1831C609.823 77.1831 610.251 77.0761 610.636 76.8621C611.022 76.6409 611.31 76.3448 611.503 75.9738L612.573 76.5838C612.259 77.1332 611.814 77.572 611.236 77.9002C610.665 78.2213 610.037 78.3818 609.352 78.3818ZM617.749 72.8915H618.904V78.2427H617.749V77.4721C617.313 78.0786 616.689 78.3818 615.876 78.3818C615.141 78.3818 614.513 78.1107 613.992 77.5684C613.471 77.019 613.211 76.3519 613.211 75.5671C613.211 74.7751 613.471 74.108 613.992 73.5658C614.513 73.0235 615.141 72.7524 615.876 72.7524C616.689 72.7524 617.313 73.0521 617.749 73.6514V72.8915ZM614.848 76.7979C615.169 77.1189 615.572 77.2795 616.058 77.2795C616.543 77.2795 616.946 77.1189 617.267 76.7979C617.588 76.4697 617.749 76.0594 617.749 75.5671C617.749 75.0748 617.588 74.6681 617.267 74.347C616.946 74.0188 616.543 73.8547 616.058 73.8547C615.572 73.8547 615.169 74.0188 614.848 74.347C614.527 74.6681 614.367 75.0748 614.367 75.5671C614.367 76.0594 614.527 76.4697 614.848 76.7979ZM621.408 73.7905C621.7 73.127 622.249 72.7952 623.056 72.7952V74.0474C622.613 74.0188 622.228 74.1259 621.9 74.3684C621.572 74.6039 621.408 74.9963 621.408 75.5457V78.2427H620.252V72.8915H621.408V73.7905ZM627.032 74.0046H625.704V76.5731C625.704 76.7943 625.754 76.9548 625.854 77.0547C625.954 77.1475 626.1 77.201 626.293 77.2153C626.493 77.2224 626.739 77.2188 627.032 77.2046V78.2427C626.147 78.3497 625.512 78.2748 625.126 78.0179C624.741 77.7539 624.549 77.2723 624.549 76.5731V74.0046H623.564V72.8915H624.549V71.7357L625.704 71.3932V72.8915H627.032V74.0046Z" fill="#FF9A00"/>
<rect x="508.05" y="85.9586" width="140.914" height="41.9173" rx="13.8238" fill="#FF9A00" stroke="#FFE1B4" stroke-width="6.24301"/>
<path d="M519.202 110.566V101.486H522.679C523.335 101.486 523.88 101.589 524.315 101.796C524.752 102 525.079 102.279 525.295 102.634C525.513 102.989 525.623 103.391 525.623 103.84C525.623 104.21 525.552 104.526 525.41 104.789C525.268 105.049 525.077 105.26 524.838 105.423C524.598 105.586 524.331 105.702 524.035 105.773V105.862C524.358 105.88 524.666 105.979 524.962 106.159C525.261 106.336 525.504 106.588 525.694 106.913C525.883 107.238 525.977 107.631 525.977 108.092C525.977 108.562 525.864 108.985 525.636 109.36C525.408 109.733 525.065 110.027 524.607 110.243C524.149 110.459 523.573 110.566 522.878 110.566H519.202ZM520.847 109.192H522.616C523.214 109.192 523.644 109.078 523.907 108.85C524.173 108.62 524.306 108.324 524.306 107.964C524.306 107.695 524.239 107.452 524.106 107.237C523.973 107.018 523.784 106.846 523.539 106.722C523.293 106.595 523.001 106.532 522.661 106.532H520.847V109.192ZM520.847 105.348H522.475C522.758 105.348 523.014 105.296 523.242 105.192C523.469 105.086 523.648 104.937 523.778 104.745C523.911 104.55 523.978 104.319 523.978 104.053C523.978 103.701 523.854 103.411 523.605 103.184C523.36 102.956 522.995 102.842 522.51 102.842H520.847V105.348ZM531.678 107.702V103.756H533.283V110.566H531.727V109.356H531.656C531.502 109.737 531.25 110.049 530.898 110.292C530.549 110.534 530.119 110.655 529.608 110.655C529.161 110.655 528.767 110.556 528.424 110.358C528.084 110.157 527.818 109.866 527.626 109.485C527.434 109.1 527.337 108.636 527.337 108.092V103.756H528.943V107.844C528.943 108.276 529.061 108.618 529.297 108.873C529.534 109.127 529.844 109.254 530.228 109.254C530.465 109.254 530.694 109.196 530.916 109.081C531.137 108.966 531.319 108.794 531.461 108.567C531.606 108.336 531.678 108.048 531.678 107.702ZM535.932 113.12C535.713 113.12 535.51 113.103 535.324 113.067C535.141 113.035 534.995 112.996 534.885 112.952L535.258 111.701C535.491 111.769 535.7 111.802 535.883 111.799C536.066 111.796 536.227 111.738 536.366 111.626C536.508 111.517 536.628 111.333 536.725 111.076L536.863 110.708L534.393 103.756H536.096L537.665 108.899H537.736L539.31 103.756H541.017L538.29 111.391C538.163 111.752 537.995 112.061 537.785 112.318C537.575 112.578 537.318 112.776 537.013 112.912C536.712 113.051 536.351 113.12 535.932 113.12ZM544.911 110.699C544.229 110.699 543.639 110.558 543.142 110.274C542.649 109.987 542.269 109.582 542.003 109.059C541.737 108.533 541.604 107.913 541.604 107.201C541.604 106.5 541.737 105.886 542.003 105.357C542.272 104.824 542.647 104.411 543.129 104.115C543.611 103.816 544.177 103.667 544.827 103.667C545.247 103.667 545.643 103.735 546.016 103.871C546.391 104.004 546.722 104.211 547.009 104.492C547.298 104.773 547.526 105.13 547.692 105.565C547.857 105.996 547.94 106.511 547.94 107.108V107.6H542.358V106.518H546.401C546.398 106.211 546.332 105.937 546.202 105.698C546.072 105.456 545.89 105.265 545.656 105.126C545.426 104.987 545.157 104.918 544.849 104.918C544.521 104.918 544.233 104.997 543.985 105.157C543.736 105.314 543.543 105.521 543.404 105.778C543.268 106.032 543.198 106.311 543.196 106.616V107.56C543.196 107.956 543.268 108.296 543.413 108.58C543.558 108.861 543.76 109.077 544.02 109.227C544.28 109.375 544.585 109.449 544.934 109.449C545.167 109.449 545.379 109.417 545.568 109.352C545.757 109.284 545.921 109.184 546.06 109.054C546.199 108.924 546.304 108.763 546.375 108.571L547.873 108.74C547.779 109.136 547.598 109.482 547.332 109.777C547.069 110.07 546.732 110.297 546.321 110.46C545.911 110.62 545.441 110.699 544.911 110.699ZM549.298 110.566V103.756H550.854V104.891H550.925C551.049 104.498 551.262 104.195 551.564 103.982C551.868 103.766 552.215 103.658 552.605 103.658C552.694 103.658 552.793 103.663 552.903 103.672C553.015 103.678 553.108 103.688 553.182 103.703V105.179C553.114 105.156 553.006 105.135 552.858 105.117C552.713 105.096 552.573 105.086 552.437 105.086C552.144 105.086 551.881 105.15 551.648 105.277C551.417 105.401 551.235 105.574 551.102 105.795C550.969 106.017 550.903 106.273 550.903 106.563V110.566H549.298ZM557.416 110.566V101.486H560.822C561.519 101.486 562.104 101.616 562.577 101.876C563.053 102.136 563.413 102.494 563.655 102.949C563.9 103.401 564.023 103.915 564.023 104.492C564.023 105.074 563.9 105.592 563.655 106.044C563.41 106.496 563.047 106.852 562.569 107.112C562.09 107.37 561.5 107.498 560.799 107.498H558.543V106.146H560.578C560.986 106.146 561.32 106.075 561.58 105.933C561.84 105.791 562.032 105.596 562.156 105.348C562.283 105.099 562.347 104.814 562.347 104.492C562.347 104.17 562.283 103.886 562.156 103.641C562.032 103.395 561.838 103.205 561.575 103.069C561.315 102.93 560.98 102.86 560.569 102.86H559.061V110.566H557.416ZM567.219 110.704C566.787 110.704 566.398 110.627 566.053 110.473C565.71 110.317 565.438 110.086 565.237 109.782C565.039 109.477 564.94 109.102 564.94 108.655C564.94 108.271 565.011 107.953 565.152 107.702C565.294 107.451 565.488 107.25 565.733 107.099C565.979 106.948 566.255 106.834 566.562 106.758C566.873 106.678 567.194 106.62 567.525 106.585C567.924 106.543 568.247 106.506 568.496 106.474C568.744 106.438 568.924 106.385 569.037 106.314C569.152 106.24 569.21 106.127 569.21 105.973V105.946C569.21 105.612 569.111 105.354 568.912 105.17C568.714 104.987 568.429 104.895 568.057 104.895C567.664 104.895 567.352 104.981 567.121 105.153C566.894 105.324 566.74 105.526 566.66 105.76L565.161 105.547C565.28 105.133 565.475 104.787 565.747 104.51C566.019 104.229 566.351 104.019 566.744 103.88C567.137 103.738 567.572 103.667 568.048 103.667C568.376 103.667 568.703 103.706 569.028 103.782C569.353 103.859 569.65 103.986 569.919 104.164C570.188 104.338 570.404 104.576 570.566 104.878C570.732 105.179 570.815 105.556 570.815 106.008V110.566H569.272V109.631H569.218C569.121 109.82 568.983 109.997 568.806 110.163C568.632 110.325 568.411 110.457 568.145 110.558C567.882 110.655 567.573 110.704 567.219 110.704ZM567.635 109.524C567.958 109.524 568.237 109.461 568.474 109.334C568.71 109.204 568.892 109.032 569.019 108.819C569.149 108.607 569.214 108.375 569.214 108.123V107.321C569.164 107.362 569.078 107.401 568.957 107.436C568.839 107.472 568.706 107.503 568.558 107.529C568.41 107.556 568.264 107.579 568.119 107.6C567.974 107.621 567.848 107.639 567.742 107.653C567.502 107.686 567.288 107.739 567.099 107.813C566.91 107.887 566.761 107.99 566.651 108.123C566.542 108.253 566.487 108.422 566.487 108.629C566.487 108.924 566.595 109.148 566.811 109.298C567.027 109.449 567.301 109.524 567.635 109.524ZM573.182 113.12C572.964 113.12 572.761 113.103 572.575 113.067C572.392 113.035 572.245 112.996 572.136 112.952L572.508 111.701C572.742 111.769 572.95 111.802 573.134 111.799C573.317 111.796 573.478 111.738 573.617 111.626C573.759 111.517 573.878 111.333 573.976 111.076L574.113 110.708L571.644 103.756H573.346L574.916 108.899H574.987L576.561 103.756H578.268L575.541 111.391C575.414 111.752 575.246 112.061 575.036 112.318C574.826 112.578 574.569 112.776 574.264 112.912C573.963 113.051 573.602 113.12 573.182 113.12ZM584.762 105.556L583.298 105.716C583.257 105.568 583.185 105.429 583.081 105.299C582.981 105.169 582.845 105.064 582.673 104.984C582.502 104.904 582.292 104.864 582.044 104.864C581.71 104.864 581.429 104.937 581.201 105.082C580.977 105.226 580.866 105.414 580.869 105.645C580.866 105.843 580.938 106.004 581.086 106.128C581.237 106.252 581.485 106.354 581.831 106.434L582.992 106.682C583.637 106.821 584.116 107.041 584.429 107.343C584.745 107.644 584.905 108.039 584.908 108.527C584.905 108.955 584.779 109.334 584.531 109.662C584.286 109.987 583.944 110.241 583.507 110.425C583.069 110.608 582.567 110.699 581.999 110.699C581.166 110.699 580.495 110.525 579.986 110.176C579.478 109.824 579.175 109.335 579.077 108.709L580.642 108.558C580.713 108.865 580.864 109.097 581.095 109.254C581.325 109.411 581.625 109.489 581.995 109.489C582.376 109.489 582.682 109.411 582.913 109.254C583.146 109.097 583.263 108.904 583.263 108.673C583.263 108.478 583.188 108.317 583.037 108.19C582.889 108.063 582.658 107.965 582.345 107.897L581.183 107.653C580.53 107.517 580.047 107.288 579.734 106.966C579.42 106.641 579.265 106.23 579.268 105.733C579.265 105.314 579.379 104.95 579.609 104.643C579.843 104.332 580.167 104.093 580.58 103.924C580.997 103.753 581.478 103.667 582.021 103.667C582.82 103.667 583.448 103.837 583.906 104.177C584.367 104.517 584.652 104.977 584.762 105.556ZM589.4 101.486H591.413L594.108 108.066H594.215L596.911 101.486H598.924V110.566H597.345V104.328H597.261L594.751 110.54H593.572L591.062 104.315H590.978V110.566H589.4V101.486ZM603.615 110.699C602.95 110.699 602.373 110.553 601.886 110.26C601.398 109.968 601.019 109.558 600.75 109.032C600.484 108.506 600.351 107.891 600.351 107.188C600.351 106.484 600.484 105.868 600.75 105.339C601.019 104.81 601.398 104.399 601.886 104.106C602.373 103.813 602.95 103.667 603.615 103.667C604.28 103.667 604.856 103.813 605.344 104.106C605.832 104.399 606.209 104.81 606.475 105.339C606.744 105.868 606.878 106.484 606.878 107.188C606.878 107.891 606.744 108.506 606.475 109.032C606.209 109.558 605.832 109.968 605.344 110.26C604.856 110.553 604.28 110.699 603.615 110.699ZM603.624 109.414C603.984 109.414 604.286 109.315 604.528 109.117C604.771 108.915 604.951 108.647 605.069 108.31C605.19 107.973 605.251 107.597 605.251 107.183C605.251 106.767 605.19 106.39 605.069 106.053C604.951 105.713 604.771 105.442 604.528 105.241C604.286 105.04 603.984 104.94 603.624 104.94C603.254 104.94 602.947 105.04 602.701 105.241C602.459 105.442 602.277 105.713 602.156 106.053C602.038 106.39 601.979 106.767 601.979 107.183C601.979 107.597 602.038 107.973 602.156 108.31C602.277 108.647 602.459 108.915 602.701 109.117C602.947 109.315 603.254 109.414 603.624 109.414ZM609.846 106.576V110.566H608.241V103.756H609.775V104.913H609.854C610.011 104.532 610.261 104.229 610.604 104.004C610.95 103.78 611.377 103.667 611.885 103.667C612.355 103.667 612.765 103.768 613.113 103.969C613.465 104.17 613.737 104.461 613.929 104.842C614.124 105.223 614.22 105.686 614.218 106.23V110.566H612.612V106.478C612.612 106.023 612.494 105.667 612.258 105.41C612.024 105.153 611.7 105.024 611.287 105.024C611.006 105.024 610.756 105.086 610.537 105.21C610.322 105.331 610.152 105.507 610.027 105.738C609.906 105.968 609.846 106.248 609.846 106.576ZM619.25 103.756V104.997H615.335V103.756H619.25ZM616.301 102.124H617.907V108.518C617.907 108.734 617.939 108.899 618.004 109.015C618.072 109.127 618.161 109.204 618.27 109.245C618.38 109.286 618.501 109.307 618.634 109.307C618.734 109.307 618.826 109.3 618.909 109.285C618.994 109.27 619.059 109.257 619.104 109.245L619.374 110.5C619.288 110.529 619.166 110.562 619.006 110.597C618.85 110.633 618.657 110.654 618.43 110.66C618.028 110.671 617.666 110.611 617.343 110.478C617.021 110.342 616.766 110.132 616.576 109.848C616.39 109.564 616.299 109.21 616.301 108.784V102.124ZM622.344 106.576V110.566H620.739V101.486H622.308V104.913H622.388C622.548 104.529 622.795 104.226 623.129 104.004C623.466 103.78 623.894 103.667 624.414 103.667C624.887 103.667 625.3 103.766 625.652 103.964C626.003 104.162 626.275 104.452 626.467 104.833C626.663 105.215 626.76 105.68 626.76 106.23V110.566H625.155V106.478C625.155 106.02 625.037 105.664 624.8 105.41C624.567 105.153 624.239 105.024 623.816 105.024C623.532 105.024 623.278 105.086 623.053 105.21C622.832 105.331 622.657 105.507 622.53 105.738C622.406 105.968 622.344 106.248 622.344 106.576ZM630.001 101.486V110.566H628.396V101.486H630.001ZM632.649 113.12C632.431 113.12 632.228 113.103 632.042 113.067C631.859 113.035 631.712 112.996 631.603 112.952L631.975 111.701C632.209 111.769 632.417 111.802 632.601 111.799C632.784 111.796 632.945 111.738 633.084 111.626C633.226 111.517 633.346 111.333 633.443 111.076L633.581 110.708L631.111 103.756H632.813L634.383 108.899H634.454L636.028 103.756H637.735L635.008 111.391C634.881 111.752 634.713 112.061 634.503 112.318C634.293 112.578 634.036 112.776 633.731 112.912C633.43 113.051 633.069 113.12 632.649 113.12Z" fill="white"/>
<path d="M603.499 192.547C604.869 192.547 606.006 193.027 606.91 193.988C607.823 194.949 608.28 196.133 608.28 197.541C608.28 198.94 607.823 200.124 606.91 201.094C606.006 202.055 604.869 202.536 603.499 202.536H599.575V192.547H603.499ZM603.499 200.966C604.441 200.966 605.207 200.643 605.797 199.996C606.396 199.349 606.696 198.531 606.696 197.541C606.696 196.542 606.396 195.724 605.797 195.087C605.207 194.44 604.441 194.117 603.499 194.117H601.216V200.966H603.499ZM615.327 195.401H616.868V202.536H615.327V201.508C614.746 202.317 613.914 202.721 612.829 202.721C611.85 202.721 611.012 202.36 610.318 201.637C609.623 200.904 609.276 200.015 609.276 198.968C609.276 197.912 609.623 197.023 610.318 196.3C611.012 195.577 611.85 195.215 612.829 195.215C613.914 195.215 614.746 195.615 615.327 196.414V195.401ZM611.46 200.609C611.888 201.037 612.425 201.251 613.072 201.251C613.719 201.251 614.256 201.037 614.684 200.609C615.113 200.172 615.327 199.625 615.327 198.968C615.327 198.312 615.113 197.77 614.684 197.341C614.256 196.904 613.719 196.685 613.072 196.685C612.425 196.685 611.888 196.904 611.46 197.341C611.031 197.77 610.817 198.312 610.817 198.968C610.817 199.625 611.031 200.172 611.46 200.609ZM623.473 195.401H625.114L622.374 202.764C621.689 204.61 620.529 205.485 618.892 205.39V203.948C619.378 203.977 619.768 203.872 620.062 203.634C620.357 203.406 620.6 203.045 620.79 202.55L620.862 202.407L617.836 195.401H619.52L621.646 200.581L623.473 195.401ZM633.512 196.628C634.235 196.799 634.82 197.137 635.267 197.641C635.724 198.136 635.952 198.759 635.952 199.51C635.952 200.509 635.615 201.294 634.939 201.865C634.264 202.436 633.436 202.721 632.456 202.721C631.695 202.721 631.01 202.545 630.401 202.193C629.802 201.841 629.369 201.327 629.103 200.652L630.501 199.839C630.796 200.695 631.448 201.123 632.456 201.123C633.027 201.123 633.479 200.98 633.812 200.695C634.145 200.4 634.311 200.005 634.311 199.51C634.311 199.016 634.145 198.626 633.812 198.34C633.479 198.055 633.027 197.912 632.456 197.912H632.085L631.429 196.928L633.584 194.088H629.402V192.547H635.538V193.945L633.512 196.628ZM643.83 201.308C643.145 202.25 642.184 202.721 640.947 202.721C639.711 202.721 638.745 202.25 638.05 201.308C637.366 200.367 637.023 199.111 637.023 197.541C637.023 195.972 637.366 194.716 638.05 193.774C638.745 192.832 639.711 192.361 640.947 192.361C642.184 192.361 643.145 192.832 643.83 193.774C644.524 194.716 644.871 195.972 644.871 197.541C644.871 199.111 644.524 200.367 643.83 201.308ZM640.947 201.123C641.689 201.123 642.255 200.814 642.645 200.195C643.035 199.577 643.23 198.692 643.23 197.541C643.23 196.39 643.035 195.505 642.645 194.887C642.255 194.269 641.689 193.96 640.947 193.96C640.215 193.96 639.649 194.269 639.249 194.887C638.859 195.505 638.664 196.39 638.664 197.541C638.664 198.692 638.859 199.577 639.249 200.195C639.649 200.814 640.215 201.123 640.947 201.123Z" fill="#323B4B" fill-opacity="0.3"/>
<line x1="382.299" y1="144.375" x2="382.299" y2="175.59" stroke="#323B4B" stroke-width="0.891858"/>
</svg>
