<svg width="37" height="37" viewBox="0 0 37 37" fill="none" xmlns="http://www.w3.org/2000/svg">
<path opacity="0.1" fill-rule="evenodd" clip-rule="evenodd" d="M18.5 36.1274C28.165 36.1274 36 28.2924 36 18.6274C36 8.96246 28.165 1.12744 18.5 1.12744C8.83502 1.12744 1 8.96246 1 18.6274C1 28.2924 8.83502 36.1274 18.5 36.1274Z" stroke="white" stroke-width="1.5"/>
<path d="M23.9727 15.6456C23.9818 15.9729 23.9886 16.2638 23.9932 16.5184C23.9977 16.7729 24 17.3093 24 18.1274C24 18.9456 23.9977 19.482 23.9932 19.7365C23.9886 19.9911 23.9818 20.2774 23.9727 20.5956C23.9545 20.9229 23.9205 21.2002 23.8705 21.4274C23.8205 21.6547 23.7591 21.8638 23.6864 22.0547C23.6136 22.2547 23.5227 22.4411 23.4136 22.6138C23.3045 22.7865 23.1636 22.9547 22.9909 23.1184C22.8273 23.2911 22.6591 23.432 22.4864 23.5411C22.3136 23.6502 22.1273 23.7411 21.9273 23.8138C21.7364 23.8865 21.5273 23.9479 21.3 23.9979C21.0727 24.0479 20.8 24.082 20.4818 24.1002C20.1545 24.1093 19.8636 24.1161 19.6091 24.1206C19.3545 24.1252 18.8182 24.1274 18 24.1274C17.1818 24.1274 16.6455 24.1252 16.3909 24.1206C16.1364 24.1161 15.85 24.1093 15.5318 24.1002C15.2045 24.082 14.9273 24.0479 14.7 23.9979C14.4727 23.9479 14.2636 23.8865 14.0727 23.8138C13.8727 23.7411 13.6864 23.6502 13.5136 23.5411C13.3409 23.432 13.1727 23.2911 13.0091 23.1184C12.8364 22.9547 12.6955 22.7865 12.5864 22.6138C12.4773 22.4411 12.3864 22.2547 12.3136 22.0547C12.2409 21.8638 12.1795 21.6547 12.1295 21.4274C12.0795 21.2002 12.0455 20.9274 12.0273 20.6093C12.0182 20.282 12.0114 19.9911 12.0068 19.7365C12.0023 19.482 12 18.9456 12 18.1274C12 17.3093 12.0023 16.7729 12.0068 16.5184C12.0114 16.2638 12.0182 15.9774 12.0273 15.6593C12.0455 15.332 12.0795 15.0547 12.1295 14.8274C12.1795 14.6002 12.2409 14.3911 12.3136 14.2002C12.3864 14.0002 12.4773 13.8138 12.5864 13.6411C12.6955 13.4683 12.8364 13.3002 13.0091 13.1365C13.1727 12.9638 13.3409 12.8229 13.5136 12.7138C13.6864 12.6047 13.8727 12.5138 14.0727 12.4411C14.2636 12.3684 14.4727 12.307 14.7 12.257C14.9273 12.207 15.2 12.1729 15.5182 12.1547C15.8455 12.1456 16.1364 12.1388 16.3909 12.1343C16.6455 12.1297 17.1818 12.1274 18 12.1274C18.8182 12.1274 19.3545 12.1297 19.6091 12.1343C19.8636 12.1388 20.15 12.1456 20.4682 12.1547C20.7955 12.1729 21.0727 12.207 21.3 12.257C21.5273 12.307 21.7364 12.3684 21.9273 12.4411C22.1273 12.5138 22.3136 12.6047 22.4864 12.7138C22.6591 12.8229 22.8273 12.9638 22.9909 13.1365C23.1636 13.3002 23.3045 13.4683 23.4136 13.6411C23.5227 13.8138 23.6136 14.0002 23.6864 14.2002C23.7591 14.3911 23.8205 14.6002 23.8705 14.8274C23.9205 15.0547 23.9545 15.3274 23.9727 15.6456ZM22.8818 20.5547C22.9 20.2365 22.9114 19.9524 22.9159 19.7024C22.9205 19.4524 22.9227 18.9274 22.9227 18.1274C22.9227 17.3274 22.9205 16.8024 22.9159 16.5524C22.9114 16.3024 22.9 16.0184 22.8818 15.7002C22.8727 15.4093 22.8477 15.1774 22.8068 15.0047C22.7659 14.832 22.7227 14.6911 22.6773 14.582C22.6227 14.4456 22.5614 14.3229 22.4932 14.2138C22.425 14.1047 22.3364 14.0002 22.2273 13.9002C22.1273 13.7911 22.0227 13.7024 21.9136 13.6343C21.8045 13.5661 21.6818 13.5047 21.5455 13.4502C21.4364 13.4047 21.2955 13.3615 21.1227 13.3206C20.95 13.2797 20.7182 13.2547 20.4273 13.2456C20.1091 13.2274 19.825 13.2161 19.575 13.2115C19.325 13.207 18.8 13.2047 18 13.2047C17.2 13.2047 16.675 13.207 16.425 13.2115C16.175 13.2161 15.8909 13.2274 15.5727 13.2456C15.2818 13.2547 15.05 13.2797 14.8773 13.3206C14.7045 13.3615 14.5636 13.4047 14.4545 13.4502C14.3182 13.5047 14.1955 13.5661 14.0864 13.6343C13.9773 13.7024 13.8727 13.7911 13.7727 13.9002C13.6636 14.0002 13.575 14.1047 13.5068 14.2138C13.4386 14.3229 13.3773 14.4456 13.3227 14.582C13.2773 14.6911 13.2341 14.832 13.1932 15.0047C13.1523 15.1774 13.1273 15.4093 13.1182 15.7002C13.1 16.0184 13.0886 16.3024 13.0841 16.5524C13.0795 16.8024 13.0773 17.3274 13.0773 18.1274C13.0773 18.9274 13.0795 19.4524 13.0841 19.7024C13.0886 19.9524 13.1 20.2365 13.1182 20.5547C13.1273 20.8456 13.1523 21.0774 13.1932 21.2502C13.2341 21.4229 13.2773 21.5638 13.3227 21.6729C13.3773 21.8093 13.4386 21.932 13.5068 22.0411C13.575 22.1502 13.6636 22.2547 13.7727 22.3547C13.8727 22.4638 13.9773 22.5524 14.0864 22.6206C14.1955 22.6888 14.3182 22.7502 14.4545 22.8047C14.5636 22.8502 14.7045 22.8934 14.8773 22.9343C15.05 22.9752 15.2818 23.0002 15.5727 23.0093C15.8909 23.0274 16.175 23.0388 16.425 23.0434C16.675 23.0479 17.2 23.0502 18 23.0502C18.8 23.0502 19.325 23.0479 19.575 23.0434C19.825 23.0388 20.1091 23.0274 20.4273 23.0093C20.7182 23.0002 20.95 22.9752 21.1227 22.9343C21.2955 22.8934 21.4364 22.8502 21.5455 22.8047C21.6818 22.7502 21.8045 22.6888 21.9136 22.6206C22.0227 22.5524 22.1273 22.4638 22.2273 22.3547C22.3364 22.2547 22.425 22.1502 22.4932 22.0411C22.5614 21.932 22.6227 21.8093 22.6773 21.6729C22.7227 21.5638 22.7659 21.4229 22.8068 21.2502C22.8477 21.0774 22.8727 20.8456 22.8818 20.5547ZM18 15.0456C18.4273 15.0456 18.8273 15.1274 19.2 15.2911C19.5727 15.4456 19.9 15.6638 20.1818 15.9456C20.4636 16.2274 20.6818 16.5547 20.8364 16.9274C21 17.3002 21.0818 17.7002 21.0818 18.1274C21.0818 18.5547 21 18.9547 20.8364 19.3274C20.6818 19.7002 20.4636 20.0274 20.1818 20.3093C19.9 20.5911 19.5727 20.8093 19.2 20.9638C18.8273 21.1274 18.4273 21.2093 18 21.2093C17.5727 21.2093 17.1727 21.1274 16.8 20.9638C16.4273 20.8093 16.1 20.5911 15.8182 20.3093C15.5364 20.0274 15.3182 19.7002 15.1636 19.3274C15 18.9547 14.9182 18.5547 14.9182 18.1274C14.9182 17.7002 15 17.3002 15.1636 16.9274C15.3182 16.5547 15.5364 16.2274 15.8182 15.9456C16.1 15.6638 16.4273 15.4456 16.8 15.2911C17.1727 15.1274 17.5727 15.0456 18 15.0456ZM18 20.132C18.5545 20.132 19.0273 19.9365 19.4182 19.5456C19.8091 19.1547 20.0045 18.682 20.0045 18.1274C20.0045 17.5729 19.8091 17.1002 19.4182 16.7093C19.0273 16.3183 18.5545 16.1229 18 16.1229C17.4455 16.1229 16.9727 16.3183 16.5818 16.7093C16.1909 17.1002 15.9955 17.5729 15.9955 18.1274C15.9955 18.682 16.1909 19.1547 16.5818 19.5456C16.9727 19.9365 17.4455 20.132 18 20.132ZM21.9 14.7593C21.9455 14.9502 21.9159 15.1297 21.8114 15.2979C21.7068 15.4661 21.5591 15.5729 21.3682 15.6184C21.1773 15.6638 20.9977 15.6343 20.8295 15.5297C20.6614 15.4252 20.5545 15.2774 20.5091 15.0865C20.4636 14.8956 20.4932 14.7161 20.5977 14.5479C20.7023 14.3797 20.85 14.2729 21.0409 14.2274C21.2318 14.1729 21.4114 14.2002 21.5795 14.3093C21.7477 14.4184 21.8545 14.5683 21.9 14.7593Z" fill="white"/>
</svg>
