<svg width="1352" height="436" viewBox="0 0 1352 436" fill="none" xmlns="http://www.w3.org/2000/svg">
<g clip-path="url(#clip0_0_368)">
<rect x="1352" width="436" height="1352" rx="20" transform="rotate(90 1352 0)" fill="#DEFFF1"/>
<path d="M767.652 76.6101C787.4 86.2531 811.428 80.5653 828.172 64.8661L935 -35.4593L873.185 -45.8181L752.791 70.6746L767.652 76.6101Z" fill="#C0FFE4"/>
<path d="M702.945 36.2874L733.528 68.715L739.088 74.606C761.166 95.0588 795.744 95.2661 818.045 74.3567L824.531 68.0432C800.153 86.8896 769.789 83.2842 757.066 66.8112C753.641 62.357 751.789 57.3247 750.95 52.3805C748.81 40.1672 752.755 28.445 753.303 26.9283C753.285 26.9093 753.266 26.9272 753.248 26.9081L772.907 -39.4116L713.508 -56.999L695.362 4.24902C692.024 15.4729 694.938 27.7482 702.944 36.2874H702.945Z" fill="#7FFFC9"/>
<path d="M262.348 362.38C242.6 352.737 218.572 358.425 201.828 374.124L95 474.45L156.815 484.808L277.209 368.316L262.348 362.38Z" fill="#C0FFE4"/>
<path d="M327.055 402.705L296.472 370.277L290.912 364.386C268.834 343.933 234.256 343.726 211.955 364.635L205.469 370.949C229.847 352.103 260.211 355.708 272.934 372.181C276.359 376.635 278.211 381.668 279.05 386.612C281.19 398.825 277.245 410.547 276.697 412.064C276.715 412.083 276.734 412.065 276.752 412.084L257.093 478.404L316.492 495.991L334.638 434.743C337.976 423.519 335.062 411.244 327.056 402.705H327.055Z" fill="#7FFFC9"/>
<path d="M20.6683 254.194C19.8497 254.194 19.147 253.987 18.5604 253.572C17.977 253.155 17.5279 252.553 17.2131 251.768C16.9015 250.979 16.7457 250.029 16.7457 248.919C16.7491 247.809 16.9065 246.864 17.218 246.085C17.5329 245.303 17.982 244.706 18.5653 244.295C19.152 243.884 19.853 243.679 20.6683 243.679C21.4837 243.679 22.1847 243.884 22.7713 244.295C23.358 244.706 23.8071 245.303 24.1186 246.085C24.4335 246.867 24.5909 247.812 24.5909 248.919C24.5909 250.033 24.4335 250.984 24.1186 251.773C23.8071 252.558 23.358 253.158 22.7713 253.572C22.188 253.987 21.487 254.194 20.6683 254.194ZM20.6683 252.638C21.3047 252.638 21.8068 252.325 22.1747 251.698C22.5459 251.068 22.7315 250.142 22.7315 248.919C22.7315 248.11 22.647 247.431 22.478 246.881C22.3089 246.33 22.0703 245.916 21.7621 245.638C21.4538 245.356 21.0893 245.215 20.6683 245.215C20.0353 245.215 19.5348 245.53 19.1669 246.16C18.799 246.786 18.6134 247.706 18.6101 248.919C18.6068 249.731 18.688 250.414 18.8537 250.967C19.0227 251.521 19.2614 251.938 19.5696 252.22C19.8778 252.499 20.2441 252.638 20.6683 252.638ZM30.3841 243.818V254H28.5396V245.613H28.4799L26.0985 247.134V245.444L28.6291 243.818H30.3841Z" fill="#3E4C59"/>
<path d="M19.6361 290.151C18.9984 290.151 18.4511 289.99 17.9942 289.667C17.5399 289.342 17.1901 288.873 16.9448 288.261C16.7022 287.647 16.5808 286.907 16.5808 286.043C16.5834 285.178 16.706 284.442 16.9487 283.835C17.1939 283.226 17.5437 282.761 17.9981 282.441C18.455 282.121 19.001 281.961 19.6361 281.961C20.2711 281.961 20.8171 282.121 21.274 282.441C21.731 282.761 22.0807 283.226 22.3234 283.835C22.5687 284.445 22.6913 285.18 22.6913 286.043C22.6913 286.91 22.5687 287.651 22.3234 288.265C22.0807 288.877 21.731 289.344 21.274 289.667C20.8197 289.99 20.2737 290.151 19.6361 290.151ZM19.6361 288.939C20.1317 288.939 20.5228 288.695 20.8094 288.207C21.0985 287.717 21.243 286.995 21.243 286.043C21.243 285.413 21.1772 284.883 21.0456 284.455C20.9139 284.026 20.728 283.704 20.488 283.487C20.2479 283.267 19.9639 283.158 19.6361 283.158C19.143 283.158 18.7532 283.403 18.4666 283.893C18.1801 284.381 18.0355 285.098 18.0329 286.043C18.0304 286.675 18.0936 287.207 18.2227 287.638C18.3543 288.069 18.5402 288.394 18.7803 288.614C19.0204 288.831 19.3056 288.939 19.6361 288.939ZM23.9778 290V288.962L26.731 286.263C26.9943 285.997 27.2138 285.761 27.3893 285.555C27.5648 285.348 27.6965 285.148 27.7843 284.954C27.872 284.761 27.9159 284.554 27.9159 284.335C27.9159 284.084 27.8591 283.87 27.7455 283.692C27.632 283.511 27.4758 283.372 27.277 283.274C27.0782 283.176 26.8523 283.127 26.5994 283.127C26.3386 283.127 26.1102 283.181 25.914 283.289C25.7178 283.395 25.5655 283.546 25.457 283.742C25.3512 283.939 25.2983 284.172 25.2983 284.443H23.9314C23.9314 283.94 24.0462 283.502 24.276 283.131C24.5058 282.759 24.822 282.471 25.2247 282.267C25.63 282.063 26.0947 281.961 26.6187 281.961C27.1505 281.961 27.6178 282.061 28.0205 282.259C28.4232 282.458 28.7356 282.73 28.9576 283.076C29.1822 283.422 29.2945 283.817 29.2945 284.261C29.2945 284.558 29.2377 284.85 29.1241 285.136C29.0105 285.423 28.8104 285.741 28.5239 286.089C28.2399 286.438 27.8411 286.86 27.3273 287.355L25.9604 288.745V288.8H29.4145V290H23.9778Z" fill="#3E4C59" fill-opacity="0.4"/>
<path d="M19.6361 323.055C18.9984 323.055 18.4511 322.894 17.9942 322.571C17.5399 322.246 17.1901 321.777 16.9448 321.166C16.7022 320.551 16.5808 319.812 16.5808 318.947C16.5834 318.082 16.706 317.346 16.9487 316.74C17.1939 316.13 17.5437 315.666 17.9981 315.346C18.455 315.026 19.001 314.865 19.6361 314.865C20.2711 314.865 20.8171 315.026 21.274 315.346C21.731 315.666 22.0807 316.13 22.3234 316.74C22.5687 317.349 22.6913 318.085 22.6913 318.947C22.6913 319.814 22.5687 320.555 22.3234 321.17C22.0807 321.781 21.731 322.249 21.274 322.571C20.8197 322.894 20.2737 323.055 19.6361 323.055ZM19.6361 321.843C20.1317 321.843 20.5228 321.599 20.8094 321.111C21.0985 320.621 21.243 319.899 21.243 318.947C21.243 318.317 21.1772 317.788 21.0456 317.359C20.9139 316.931 20.728 316.608 20.488 316.391C20.2479 316.172 19.9639 316.062 19.6361 316.062C19.143 316.062 18.7532 316.307 18.4666 316.798C18.1801 317.286 18.0355 318.002 18.0329 318.947C18.0304 319.579 18.0936 320.111 18.2227 320.542C18.3543 320.973 18.5402 321.299 18.7803 321.518C19.0204 321.735 19.3056 321.843 19.6361 321.843ZM26.8239 323.013C26.2663 323.013 25.7707 322.917 25.337 322.726C24.9059 322.535 24.5651 322.269 24.3147 321.928C24.0643 321.588 23.9314 321.194 23.9159 320.747H25.3718C25.3848 320.962 25.4557 321.149 25.5848 321.309C25.7139 321.466 25.8856 321.589 26.0998 321.677C26.3141 321.765 26.5542 321.808 26.8201 321.808C27.104 321.808 27.3557 321.759 27.5752 321.661C27.7946 321.561 27.9663 321.421 28.0902 321.243C28.2141 321.065 28.2748 320.86 28.2722 320.627C28.2748 320.387 28.2128 320.176 28.0863 319.992C27.9598 319.809 27.7765 319.666 27.5364 319.563C27.2989 319.459 27.0124 319.408 26.6768 319.408H25.9759V318.3H26.6768C26.953 318.3 27.1944 318.252 27.4009 318.157C27.61 318.061 27.7739 317.927 27.8927 317.754C28.0114 317.579 28.0695 317.376 28.0669 317.146C28.0695 316.922 28.0192 316.727 27.9159 316.562C27.8152 316.394 27.672 316.263 27.4861 316.17C27.3028 316.077 27.0873 316.031 26.8394 316.031C26.5968 316.031 26.3722 316.075 26.1657 316.163C25.9591 316.25 25.7926 316.376 25.6661 316.538C25.5396 316.698 25.4725 316.889 25.4648 317.111H24.0824C24.0927 316.667 24.2205 316.278 24.4657 315.942C24.7136 315.604 25.044 315.34 25.457 315.152C25.8701 314.961 26.3335 314.865 26.8472 314.865C27.3764 314.865 27.8359 314.965 28.2257 315.164C28.6181 315.36 28.9214 315.624 29.1357 315.957C29.35 316.29 29.4571 316.658 29.4571 317.061C29.4597 317.508 29.328 317.882 29.0621 318.184C28.7988 318.486 28.4529 318.684 28.0243 318.776V318.838C28.582 318.916 29.0092 319.122 29.3061 319.458C29.6055 319.791 29.754 320.205 29.7514 320.701C29.7514 321.145 29.6249 321.543 29.3719 321.894C29.1215 322.242 28.7756 322.516 28.3341 322.715C27.8953 322.913 27.3919 323.013 26.8239 323.013Z" fill="#3E4C59" fill-opacity="0.4"/>
</g>
<defs>
<clipPath id="clip0_0_368">
<rect width="1352" height="436" fill="white"/>
</clipPath>
</defs>
</svg>
