<svg width="1352" height="436" viewBox="0 0 1352 436" fill="none" xmlns="http://www.w3.org/2000/svg">
<g clip-path="url(#clip0_0_466)">
<rect x="1352" width="436" height="1352" rx="20" transform="rotate(90 1352 0)" fill="#F4F1FE"/>
<path d="M767.652 76.6101C787.4 86.2531 811.428 80.5653 828.172 64.8661L935 -35.4593L873.185 -45.8181L752.791 70.6746L767.652 76.6101Z" fill="#E7E0FF"/>
<path d="M702.945 36.2874L733.528 68.715L739.088 74.606C761.166 95.0588 795.744 95.2661 818.045 74.3567L824.531 68.0432C800.153 86.8896 769.789 83.2842 757.066 66.8112C753.641 62.357 751.789 57.3247 750.95 52.3805C748.81 40.1672 752.755 28.445 753.303 26.9283C753.285 26.9093 753.266 26.9272 753.248 26.9081L772.907 -39.4116L713.508 -56.999L695.362 4.24902C692.024 15.4729 694.938 27.7482 702.944 36.2874H702.945Z" fill="#D2C5FF"/>
<path d="M262.348 362.38C242.6 352.737 218.572 358.425 201.828 374.124L95 474.45L156.815 484.808L277.209 368.316L262.348 362.38Z" fill="#E7E0FF"/>
<path d="M327.055 402.705L296.472 370.277L290.912 364.386C268.834 343.933 234.256 343.726 211.955 364.635L205.469 370.949C229.847 352.103 260.211 355.708 272.934 372.181C276.359 376.635 278.211 381.668 279.05 386.612C281.19 398.825 277.245 410.547 276.697 412.064C276.715 412.083 276.734 412.065 276.752 412.084L257.093 478.404L316.492 495.991L334.638 434.743C337.976 423.519 335.062 411.244 327.056 402.705H327.055Z" fill="#D2C5FF"/>
<path d="M19.6361 249.151C18.9984 249.151 18.4511 248.99 17.9942 248.667C17.5399 248.342 17.1901 247.873 16.9448 247.261C16.7022 246.647 16.5808 245.907 16.5808 245.043C16.5834 244.178 16.706 243.442 16.9487 242.835C17.1939 242.226 17.5437 241.761 17.9981 241.441C18.455 241.121 19.001 240.961 19.6361 240.961C20.2711 240.961 20.8171 241.121 21.274 241.441C21.731 241.761 22.0807 242.226 22.3234 242.835C22.5687 243.445 22.6913 244.18 22.6913 245.043C22.6913 245.91 22.5687 246.651 22.3234 247.265C22.0807 247.877 21.731 248.344 21.274 248.667C20.8197 248.99 20.2737 249.151 19.6361 249.151ZM19.6361 247.939C20.1317 247.939 20.5228 247.695 20.8094 247.207C21.0985 246.717 21.243 245.995 21.243 245.043C21.243 244.413 21.1772 243.883 21.0456 243.455C20.9139 243.026 20.728 242.704 20.488 242.487C20.2479 242.267 19.9639 242.158 19.6361 242.158C19.143 242.158 18.7532 242.403 18.4666 242.893C18.1801 243.381 18.0355 244.098 18.0329 245.043C18.0304 245.675 18.0936 246.207 18.2227 246.638C18.3543 247.069 18.5402 247.394 18.7803 247.614C19.0204 247.831 19.3056 247.939 19.6361 247.939ZM27.2034 241.07V249H25.7668V242.467H25.7204L23.8655 243.652V242.336L25.8365 241.07H27.2034Z" fill="#3E4C59" fill-opacity="0.4"/>
<path d="M19.6361 282.055C18.9984 282.055 18.4511 281.894 17.9942 281.571C17.5399 281.246 17.1901 280.777 16.9448 280.166C16.7022 279.551 16.5808 278.812 16.5808 277.947C16.5834 277.082 16.706 276.346 16.9487 275.74C17.1939 275.13 17.5437 274.666 17.9981 274.346C18.455 274.026 19.001 273.865 19.6361 273.865C20.2711 273.865 20.8171 274.026 21.274 274.346C21.731 274.666 22.0807 275.13 22.3234 275.74C22.5687 276.349 22.6913 277.085 22.6913 277.947C22.6913 278.814 22.5687 279.555 22.3234 280.17C22.0807 280.781 21.731 281.249 21.274 281.571C20.8197 281.894 20.2737 282.055 19.6361 282.055ZM19.6361 280.843C20.1317 280.843 20.5228 280.599 20.8094 280.111C21.0985 279.621 21.243 278.899 21.243 277.947C21.243 277.317 21.1772 276.788 21.0456 276.359C20.9139 275.931 20.728 275.608 20.488 275.391C20.2479 275.172 19.9639 275.062 19.6361 275.062C19.143 275.062 18.7532 275.307 18.4666 275.798C18.1801 276.286 18.0355 277.002 18.0329 277.947C18.0304 278.579 18.0936 279.111 18.2227 279.542C18.3543 279.973 18.5402 280.299 18.7803 280.518C19.0204 280.735 19.3056 280.843 19.6361 280.843ZM23.9778 281.904V280.867L26.731 278.168C26.9943 277.902 27.2138 277.665 27.3893 277.459C27.5648 277.252 27.6965 277.052 27.7843 276.859C27.872 276.665 27.9159 276.459 27.9159 276.239C27.9159 275.989 27.8591 275.775 27.7455 275.596C27.632 275.416 27.4758 275.276 27.277 275.178C27.0782 275.08 26.8523 275.031 26.5994 275.031C26.3386 275.031 26.1102 275.085 25.914 275.194C25.7178 275.3 25.5655 275.451 25.457 275.647C25.3512 275.843 25.2983 276.077 25.2983 276.348H23.9314C23.9314 275.844 24.0462 275.407 24.276 275.035C24.5058 274.663 24.822 274.375 25.2247 274.171C25.63 273.967 26.0947 273.865 26.6187 273.865C27.1505 273.865 27.6178 273.965 28.0205 274.164C28.4232 274.362 28.7356 274.635 28.9576 274.981C29.1822 275.327 29.2945 275.722 29.2945 276.166C29.2945 276.462 29.2377 276.754 29.1241 277.041C29.0105 277.327 28.8104 277.645 28.5239 277.993C28.2399 278.342 27.8411 278.764 27.3273 279.26L25.9604 280.65V280.704H29.4145V281.904H23.9778Z" fill="#3E4C59" fill-opacity="0.4"/>
<path d="M20.6683 320.002C19.8497 320.002 19.147 319.795 18.5604 319.381C17.977 318.963 17.5279 318.362 17.2131 317.576C16.9015 316.788 16.7457 315.838 16.7457 314.728C16.7491 313.617 16.9065 312.673 17.218 311.894C17.5329 311.112 17.982 310.515 18.5653 310.104C19.152 309.693 19.853 309.488 20.6683 309.488C21.4837 309.488 22.1847 309.693 22.7713 310.104C23.358 310.515 23.8071 311.112 24.1186 311.894C24.4335 312.676 24.5909 313.621 24.5909 314.728C24.5909 315.841 24.4335 316.792 24.1186 317.581C23.8071 318.367 23.358 318.967 22.7713 319.381C22.188 319.795 21.487 320.002 20.6683 320.002ZM20.6683 318.446C21.3047 318.446 21.8068 318.133 22.1747 317.507C22.5459 316.877 22.7315 315.951 22.7315 314.728C22.7315 313.919 22.647 313.239 22.478 312.689C22.3089 312.139 22.0703 311.725 21.7621 311.446C21.4538 311.165 21.0893 311.024 20.6683 311.024C20.0353 311.024 19.5348 311.339 19.1669 311.968C18.799 312.595 18.6134 313.515 18.6101 314.728C18.6068 315.54 18.688 316.222 18.8537 316.776C19.0227 317.329 19.2614 317.747 19.5696 318.029C19.8778 318.307 20.2441 318.446 20.6683 318.446ZM29.8968 319.948C29.1809 319.948 28.5446 319.825 27.9877 319.58C27.4342 319.335 26.9967 318.993 26.6752 318.556C26.3538 318.118 26.1831 317.613 26.1632 317.039H28.0325C28.0491 317.315 28.1402 317.555 28.3059 317.76C28.4717 317.962 28.6921 318.12 28.9672 318.233C29.2422 318.345 29.5505 318.402 29.8919 318.402C30.2565 318.402 30.5796 318.339 30.8613 318.213C31.1431 318.083 31.3635 317.904 31.5225 317.676C31.6816 317.447 31.7595 317.184 31.7562 316.885C31.7595 316.577 31.68 316.305 31.5176 316.07C31.3552 315.835 31.1199 315.651 30.8116 315.518C30.5067 315.386 30.1388 315.319 29.7079 315.319H28.8081V313.897H29.7079C30.0626 313.897 30.3725 313.836 30.6376 313.713C30.9061 313.591 31.1165 313.418 31.269 313.196C31.4215 312.971 31.496 312.711 31.4927 312.416C31.496 312.127 31.4314 311.877 31.2988 311.665C31.1696 311.45 30.9856 311.282 30.747 311.163C30.5117 311.044 30.2349 310.984 29.9167 310.984C29.6052 310.984 29.3168 311.04 29.0517 311.153C28.7865 311.266 28.5727 311.426 28.4103 311.635C28.2479 311.841 28.1618 312.086 28.1518 312.371H26.377C26.3902 311.801 26.5543 311.301 26.8691 310.87C27.1873 310.435 27.6116 310.097 28.1419 309.855C28.6722 309.61 29.2671 309.488 29.9267 309.488C30.6061 309.488 31.1961 309.615 31.6966 309.87C32.2003 310.122 32.5898 310.462 32.8649 310.89C33.14 311.317 33.2775 311.789 33.2775 312.306C33.2808 312.88 33.1118 313.36 32.7704 313.748C32.4324 314.136 31.9882 314.39 31.438 314.509V314.588C32.1539 314.688 32.7025 314.953 33.0836 315.384C33.4681 315.811 33.6587 316.343 33.6554 316.98C33.6554 317.55 33.493 318.06 33.1681 318.511C32.8467 318.958 32.4025 319.31 31.8358 319.565C31.2723 319.82 30.626 319.948 29.8968 319.948Z" fill="#3E4C59"/>
</g>
<defs>
<clipPath id="clip0_0_466">
<rect width="1352" height="436" fill="white"/>
</clipPath>
</defs>
</svg>
