<svg width="100" height="100" viewBox="0 0 100 100" fill="none" xmlns="http://www.w3.org/2000/svg">
<path d="M87.5 87.5H19.1667C16.8331 87.5 15.6663 87.5 14.775 87.0459C13.991 86.6464 13.3536 86.009 12.9541 85.225C12.5 84.3337 12.5 83.1669 12.5 80.8333V12.5M87.5 29.1667L64.857 51.8096C64.032 52.6347 63.6195 53.0472 63.1438 53.2018C62.7254 53.3377 62.2746 53.3377 61.8562 53.2018C61.3805 53.0472 60.968 52.6347 60.143 51.8096L52.357 44.0237C51.532 43.1987 51.1195 42.7861 50.6438 42.6316C50.2254 42.4956 49.7746 42.4956 49.3562 42.6316C48.8805 42.7861 48.468 43.1987 47.643 44.0237L29.1667 62.5M87.5 29.1667H70.8333M87.5 29.1667V45.8333" stroke="white" stroke-width="5" stroke-linecap="round" stroke-linejoin="round"/>
</svg>
