<svg width="37" height="37" viewBox="0 0 37 37" fill="none" xmlns="http://www.w3.org/2000/svg">
<path opacity="0.1" fill-rule="evenodd" clip-rule="evenodd" d="M18.5 36.1274C28.165 36.1274 36 28.2924 36 18.6274C36 8.96246 28.165 1.12744 18.5 1.12744C8.83502 1.12744 1 8.96246 1 18.6274C1 28.2924 8.83502 36.1274 18.5 36.1274Z" stroke="white" stroke-width="1.5"/>
<path d="M14.4837 15.0945C15.303 15.0945 15.9672 14.4303 15.9672 13.611C15.9672 12.7916 15.303 12.1274 14.4837 12.1274C13.6643 12.1274 13.0001 12.7916 13.0001 13.611C13.0001 14.4303 13.6643 15.0945 14.4837 15.0945Z" fill="white"/>
<path d="M15.7198 16.0854H13.2473C13.1108 16.0854 13 16.1962 13 16.3327V23.7505C13 23.8869 13.1108 23.9977 13.2473 23.9977H15.7198C15.8563 23.9977 15.9671 23.8869 15.9671 23.7505V16.3327C15.9671 16.1962 15.8563 16.0854 15.7198 16.0854Z" fill="white"/>
<path d="M23.088 15.6743C22.0313 15.3123 20.7094 15.6303 19.9167 16.2005C19.8895 16.0942 19.7926 16.0151 19.6774 16.0151H17.2048C17.0683 16.0151 16.9575 16.1258 16.9575 16.2623V23.6801C16.9575 23.8165 17.0683 23.9273 17.2048 23.9273H19.6774C19.8138 23.9273 19.9246 23.8165 19.9246 23.6801V18.3492C20.3242 18.005 20.839 17.8952 21.2603 18.0742C21.6688 18.2468 21.9027 18.6681 21.9027 19.2294V23.6801C21.9027 23.8165 22.0135 23.9273 22.1499 23.9273H24.6225C24.759 23.9273 24.8698 23.8165 24.8698 23.6801V18.7314C24.8416 16.6995 23.8857 15.9473 23.088 15.6743Z" fill="white"/>
</svg>
