<svg width="32" height="32" viewBox="0 0 32 32" fill="none" xmlns="http://www.w3.org/2000/svg">
<path fill-rule="evenodd" clip-rule="evenodd" d="M1.17375 2.43527C0 4.0244 0 6.30293 0 10.86V21.14C0 25.6971 0 27.9756 1.17375 29.5647C1.52904 30.0458 1.95425 30.471 2.43527 30.8263C4.0244 32 6.30293 32 10.86 32H21.14C25.6971 32 27.9756 32 29.5647 30.8263C30.0458 30.471 30.471 30.0458 30.8263 29.5647C32 27.9756 32 25.6971 32 21.14V10.86C32 6.30293 32 4.0244 30.8263 2.43527C30.471 1.95425 30.0458 1.52904 29.5647 1.17375C27.9756 0 25.6971 0 21.14 0H10.86C6.30293 0 4.0244 0 2.43527 1.17375C1.95425 1.52904 1.52904 1.95425 1.17375 2.43527ZM6.39844 9.24983C6.39844 8.08526 7.24222 7.19922 8.53276 7.19922C9.82352 7.19922 10.6178 8.08526 10.6424 9.24983C10.6424 10.3887 9.82352 11.3 8.50773 11.3H8.48324C7.21708 11.3 6.39844 10.3887 6.39844 9.24983ZM6.62109 12.918H10.3939V24.7852H6.62109V12.918ZM16.2534 14.6401C16.2534 14.6401 17.6182 12.6406 19.6535 12.6406C22.1356 12.6406 23.997 14.3368 23.997 17.9817V24.7859H20.2245V18.4376C20.2245 16.8423 19.6784 15.7541 18.3132 15.7541C17.2709 15.7541 16.6502 16.488 16.3775 17.1964C16.2778 17.4501 16.2532 17.8043 16.2532 18.1591V24.7859H12.4805V12.9191H16.2534V14.6401Z" fill="#B1B4D5"/>
</svg>
