<svg width="1172" height="242" viewBox="0 0 1172 242" fill="none" xmlns="http://www.w3.org/2000/svg">
<g clip-path="url(#clip0_68_1425)">
<rect x="1" y="1" width="1170" height="240" rx="16" fill="#2BB87D"/>
<path d="M40.0063 176.061C29.4272 164.721 12.1573 162.404 -2.83914 168.523L-98.5612 207.669L-60.4416 230.099L48.3014 183.724L40.0063 176.061Z" fill="#3BD795"/>
<path d="M72.4686 218.966L60.5002 189.877L58.3239 184.592C48.9376 165.541 26.2034 156.676 6.22982 164.825L0.361862 167.349C21.1841 161.083 40.2828 171.123 44.5091 185.19C45.6413 188.99 45.592 192.774 44.8968 196.244C43.2236 204.832 37.665 211.561 36.9211 212.422C36.9281 212.439 36.9452 212.432 36.9521 212.449L7.2567 251.19L41.9598 277.774L69.3785 241.993C74.411 235.439 75.5894 226.615 72.4689 218.967L72.4686 218.966Z" fill="#6DE7B2"/>
<path d="M1117.32 28.8038C1112.58 7.34281 1123.76 -14.6754 1142.96 -27.2595L1265.58 -107.512L1261.12 -44.9947L1119.59 44.6441L1117.32 28.8038Z" fill="#3BD795"/>
<path d="M1141.3 101.179L1116.97 63.8294L1112.55 57.0412C1097.86 30.774 1105.79 -2.88446 1131.35 -19.6453L1139.01 -24.4657C1114.96 -5.20018 1111.33 25.1599 1124.35 41.399C1127.88 45.7745 1132.33 48.7583 1136.94 50.7359C1148.31 55.686 1160.63 54.6071 1162.23 54.431C1162.25 54.4529 1162.23 54.4672 1162.24 54.489L1231.32 50.9701L1234.46 112.839L1170.66 116.08C1158.96 116.686 1147.72 110.968 1141.3 101.179L1141.3 101.179Z" fill="#6CE7B2"/>
</g>
<rect x="0.5" y="0.5" width="1171" height="241" rx="16.5" stroke="black"/>
<defs>
<clipPath id="clip0_68_1425">
<rect x="1" y="1" width="1170" height="240" rx="16" fill="white"/>
</clipPath>
</defs>
</svg>
