<svg width="46" height="46" viewBox="0 0 46 46" fill="none" xmlns="http://www.w3.org/2000/svg">
<circle cx="23" cy="23" r="23" fill="white"/>
<path d="M32 21C32 28 23 34 23 34C23 34 14 28 14 21C14 18.6131 14.9482 16.3239 16.636 14.636C18.3239 12.9482 20.6131 12 23 12C25.3869 12 27.6761 12.9482 29.364 14.636C31.0518 16.3239 32 18.6131 32 21Z" stroke="#1053F3" stroke-width="2" stroke-linecap="round" stroke-linejoin="round"/>
<path d="M23 24C24.6569 24 26 22.6569 26 21C26 19.3431 24.6569 18 23 18C21.3431 18 20 19.3431 20 21C20 22.6569 21.3431 24 23 24Z" stroke="#1053F3" stroke-width="2" stroke-linecap="round" stroke-linejoin="round"/>
</svg>
