<svg width="181" height="40" viewBox="0 0 181 40" fill="none" xmlns="http://www.w3.org/2000/svg">
<path d="M25.7213 4.38483L21.3898 11.8228H3.94294C3.61275 11.3217 3.36124 10.7304 3.29584 10.0565C3.20183 9.07725 3.51477 8.04618 4.1523 7.13608C5.42324 5.46571 7.42969 4.38483 9.68559 4.38483H25.7213Z" fill="white"/>
<path d="M16.5929 33.6088H16.5931L17.1475 33.612L16.5929 33.6088ZM19.4803 24.1324C19.4787 24.1349 19.4772 24.1374 19.4755 24.1398C19.6488 24.2299 20.956 24.9334 21.7756 26.1769C22.1069 26.6795 22.3588 27.2698 22.4236 27.9443C22.5173 28.9234 22.2039 29.9535 21.5668 30.8652V30.8654C20.2955 32.5345 18.2893 33.615 16.0337 33.615H17.6977H17.702C21.3722 33.615 24.3851 30.757 24.6391 27.1509L24.642 26.1769L24.6586 20.8251C24.6586 19.4184 23.9051 18.1038 22.6911 17.3935L16.6306 13.7982L12.9149 20.4158L19.4803 24.1324Z" fill="#00B88B"/>
<path d="M6.23875 13.8678C6.2404 13.8653 6.2419 13.8628 6.24354 13.8604C6.07031 13.7703 4.7631 13.0669 3.94345 11.8233C3.61216 11.3207 3.36025 10.7304 3.29552 10.0559C3.20179 9.07682 3.51515 8.04671 4.15226 7.13496V7.13482C5.42362 5.46568 7.42979 4.38522 9.68541 4.38522H8.02133H8.01709C4.34684 4.38522 1.33396 7.2432 1.07999 10.8493L1.07712 11.8233L1.06042 17.1751C1.06042 18.5818 1.81399 19.8964 3.02801 20.6067L8.98923 24.0251L12.705 17.7968L6.23875 13.8678Z" fill="#00B88B"/>
<path d="M-0.000671387 33.6155L4.33077 26.1776H21.7777C22.1078 26.6787 22.3593 27.2699 22.4248 27.9439C22.5188 28.9231 22.2058 29.9541 21.5683 30.8642C20.2973 32.5346 18.2909 33.6155 16.035 33.6155H-0.000671387Z" fill="white"/>
<path d="M42.4769 32.4631C40.0781 32.4631 38.0356 31.9169 36.3494 30.8244C34.6869 29.7319 33.5231 28.2356 32.8581 26.3356L36.385 24.2694C37.3825 27.0719 39.4487 28.4731 42.5837 28.4731C44.1275 28.4731 45.2794 28.1762 46.0394 27.5825C46.8231 26.965 47.215 26.1694 47.215 25.1956C47.215 24.1744 46.7994 23.4025 45.9681 22.88C45.1369 22.3337 43.6644 21.74 41.5506 21.0987C40.3631 20.7425 39.4012 20.41 38.665 20.1012C37.9287 19.7925 37.145 19.365 36.3137 18.8187C35.5062 18.2487 34.9006 17.5481 34.4969 16.7169C34.0931 15.8856 33.8912 14.9119 33.8912 13.7956C33.8912 11.5869 34.675 9.84125 36.2425 8.55875C37.81 7.2525 39.6981 6.59937 41.9069 6.59937C43.9019 6.59937 45.6475 7.08625 47.1437 8.06C48.64 9.03375 49.7919 10.3756 50.5994 12.0856L47.1437 14.0806C46.0987 11.7531 44.3531 10.5894 41.9069 10.5894C40.7194 10.5894 39.7694 10.8744 39.0569 11.4444C38.3444 11.9906 37.9881 12.7387 37.9881 13.6888C37.9881 14.615 38.3444 15.3512 39.0569 15.8975C39.7931 16.42 41.1112 16.9781 43.0112 17.5719C43.9612 17.8806 44.65 18.1181 45.0775 18.2844C45.5287 18.4269 46.1462 18.6644 46.93 18.9969C47.7375 19.3294 48.3431 19.6619 48.7469 19.9944C49.1506 20.3269 49.5781 20.7425 50.0294 21.2412C50.5044 21.74 50.8369 22.31 51.0269 22.9512C51.2169 23.5925 51.3119 24.3169 51.3119 25.1244C51.3119 27.3806 50.4925 29.1737 48.8537 30.5037C47.2387 31.81 45.1131 32.4631 42.4769 32.4631ZM67.7617 14.1875H71.6092V32H67.7617V29.435C66.313 31.4537 64.2348 32.4631 61.5273 32.4631C59.0811 32.4631 56.9911 31.5606 55.2573 29.7556C53.5236 27.9269 52.6567 25.7062 52.6567 23.0938C52.6567 20.4575 53.5236 18.2369 55.2573 16.4319C56.9911 14.6269 59.0811 13.7244 61.5273 13.7244C64.2348 13.7244 66.313 14.7219 67.7617 16.7169V14.1875ZM58.1073 27.1906C59.1761 28.2594 60.518 28.7937 62.133 28.7937C63.748 28.7937 65.0898 28.2594 66.1586 27.1906C67.2273 26.0981 67.7617 24.7325 67.7617 23.0938C67.7617 21.455 67.2273 20.1012 66.1586 19.0325C65.0898 17.94 63.748 17.3937 62.133 17.3937C60.518 17.3937 59.1761 17.94 58.1073 19.0325C57.0386 20.1012 56.5042 21.455 56.5042 23.0938C56.5042 24.7325 57.0386 26.0981 58.1073 27.1906ZM88.7763 14.1875H92.6238V32H88.7763V29.435C87.3275 31.4537 85.2494 32.4631 82.5419 32.4631C80.0957 32.4631 78.0057 31.5606 76.2719 29.7556C74.5382 27.9269 73.6713 25.7062 73.6713 23.0938C73.6713 20.4575 74.5382 18.2369 76.2719 16.4319C78.0057 14.6269 80.0957 13.7244 82.5419 13.7244C85.2494 13.7244 87.3275 14.7219 88.7763 16.7169V14.1875ZM79.1219 27.1906C80.1907 28.2594 81.5325 28.7937 83.1475 28.7937C84.7625 28.7937 86.1044 28.2594 87.1732 27.1906C88.2419 26.0981 88.7763 24.7325 88.7763 23.0938C88.7763 21.455 88.2419 20.1012 87.1732 19.0325C86.1044 17.94 84.7625 17.3937 83.1475 17.3937C81.5325 17.3937 80.1907 17.94 79.1219 19.0325C78.0532 20.1012 77.5188 21.455 77.5188 23.0938C77.5188 24.7325 78.0532 26.0981 79.1219 27.1906ZM104.233 32.4631C101.835 32.4631 99.7921 31.9169 98.1059 30.8244C96.4434 29.7319 95.2796 28.2356 94.6146 26.3356L98.1415 24.2694C99.139 27.0719 101.205 28.4731 104.34 28.4731C105.884 28.4731 107.036 28.1762 107.796 27.5825C108.58 26.965 108.971 26.1694 108.971 25.1956C108.971 24.1744 108.556 23.4025 107.725 22.88C106.893 22.3337 105.421 21.74 103.307 21.0987C102.12 20.7425 101.158 20.41 100.421 20.1012C99.6852 19.7925 98.9015 19.365 98.0702 18.8187C97.2627 18.2487 96.6571 17.5481 96.2534 16.7169C95.8496 15.8856 95.6477 14.9119 95.6477 13.7956C95.6477 11.5869 96.4315 9.84125 97.999 8.55875C99.5665 7.2525 101.455 6.59937 103.663 6.59937C105.658 6.59937 107.404 7.08625 108.9 8.06C110.396 9.03375 111.548 10.3756 112.356 12.0856L108.9 14.0806C107.855 11.7531 106.11 10.5894 103.663 10.5894C102.476 10.5894 101.526 10.8744 100.813 11.4444C100.101 11.9906 99.7446 12.7387 99.7446 13.6888C99.7446 14.615 100.101 15.3512 100.813 15.8975C101.55 16.42 102.868 16.9781 104.768 17.5719C105.718 17.8806 106.406 18.1181 106.834 18.2844C107.285 18.4269 107.903 18.6644 108.686 18.9969C109.494 19.3294 110.1 19.6619 110.503 19.9944C110.907 20.3269 111.335 20.7425 111.786 21.2412C112.261 21.74 112.593 22.31 112.783 22.9512C112.973 23.5925 113.068 24.3169 113.068 25.1244C113.068 27.3806 112.249 29.1737 110.61 30.5037C108.995 31.81 106.87 32.4631 104.233 32.4631ZM124.292 7.0625C126.525 7.0625 128.377 7.79875 129.85 9.27125C131.322 10.7437 132.058 12.5844 132.058 14.7931C132.058 17.0019 131.322 18.8425 129.85 20.315C128.377 21.7637 126.525 22.4881 124.292 22.4881H117.702V32H115.813V7.0625H124.292ZM124.292 20.7069C126.002 20.7069 127.403 20.1487 128.496 19.0325C129.612 17.9162 130.17 16.5031 130.17 14.7931C130.17 13.0594 129.612 11.6344 128.496 10.5181C127.403 9.40187 126.002 8.84375 124.292 8.84375H117.702V20.7069H124.292ZM149.19 14.1875H151.006V32H149.19V27.9744C148.43 29.3519 147.385 30.4325 146.055 31.2162C144.725 32 143.216 32.3919 141.53 32.3919C138.989 32.3919 136.816 31.5012 135.011 29.72C133.206 27.915 132.303 25.7062 132.303 23.0938C132.303 20.4812 133.206 18.2844 135.011 16.5031C136.816 14.6981 138.989 13.7956 141.53 13.7956C143.216 13.7956 144.725 14.1875 146.055 14.9712C147.385 15.755 148.43 16.8356 149.19 18.2131V14.1875ZM136.293 28.4731C137.766 29.9456 139.559 30.6819 141.673 30.6819C143.786 30.6819 145.568 29.9456 147.016 28.4731C148.465 27.0006 149.19 25.2075 149.19 23.0938C149.19 20.98 148.465 19.1869 147.016 17.7144C145.568 16.2419 143.786 15.5056 141.673 15.5056C139.559 15.5056 137.766 16.2419 136.293 17.7144C134.845 19.1869 134.12 20.98 134.12 23.0938C134.12 25.2075 134.845 27.0006 136.293 28.4731ZM168.09 14.1875H170.014L162.319 33.6388C161.63 35.3963 160.656 36.7738 159.397 37.7713C158.139 38.7925 156.761 39.2438 155.265 39.125V37.4506C156.405 37.5456 157.426 37.2131 158.329 36.4531C159.255 35.7169 160.003 34.66 160.573 33.2825L160.965 32.3206L152.771 14.1875H154.695L161.891 30.0406L168.09 14.1875Z" fill="white"/>
</svg>
