<svg width="56" height="56" viewBox="0 0 56 56" fill="none" xmlns="http://www.w3.org/2000/svg">
<rect width="56" height="56" rx="14" fill="white"/>
<path d="M34.25 38.9375H23.625C23.1125 38.9375 22.6875 38.5125 22.6875 38C22.6875 37.4875 23.1125 37.0625 23.625 37.0625H34.25C37.825 37.0625 39.5625 35.325 39.5625 31.75V24.25C39.5625 20.675 37.825 18.9375 34.25 18.9375H21.75C18.175 18.9375 16.4375 20.675 16.4375 24.25V32C16.4375 32.5125 16.0125 32.9375 15.5 32.9375C14.9875 32.9375 14.5625 32.5125 14.5625 32V24.25C14.5625 19.6875 17.1875 17.0625 21.75 17.0625H34.25C38.8125 17.0625 41.4375 19.6875 41.4375 24.25V31.75C41.4375 36.3125 38.8125 38.9375 34.25 38.9375Z" fill="#FFA602"/>
<path d="M36.125 32.0625C35.6125 32.0625 35.1875 31.6375 35.1875 31.125V24.875C35.1875 24.3625 35.6125 23.9375 36.125 23.9375C36.6375 23.9375 37.0625 24.3625 37.0625 24.875V31.125C37.0625 31.6375 36.6375 32.0625 36.125 32.0625Z" fill="#FFA602"/>
<path d="M19.25 41.4375C17.175 41.4375 15.225 40.3375 14.175 38.55C13.6125 37.65 13.3125 36.5875 13.3125 35.5C13.3125 32.225 15.975 29.5625 19.25 29.5625C22.525 29.5625 25.1875 32.225 25.1875 35.5C25.1875 36.5875 24.8875 37.65 24.325 38.5625C23.275 40.3375 21.325 41.4375 19.25 41.4375ZM19.25 31.4375C17.0125 31.4375 15.1875 33.2625 15.1875 35.5C15.1875 36.2375 15.3875 36.9625 15.775 37.5875C16.5 38.8125 17.8375 39.5625 19.25 39.5625C20.6625 39.5625 22 38.8125 22.725 37.6C23.1125 36.9625 23.3125 36.25 23.3125 35.5C23.3125 33.2625 21.4875 31.4375 19.25 31.4375Z" fill="#FFA602"/>
<path d="M15.8125 39.875C15.575 39.875 15.3374 39.7875 15.1499 39.6C14.7874 39.2375 14.7874 38.6374 15.1499 38.2749L22.0249 31.3999C22.3874 31.0374 22.9875 31.0374 23.35 31.3999C23.7125 31.7624 23.7125 32.3625 23.35 32.725L16.475 39.6C16.2875 39.7875 16.05 39.875 15.8125 39.875Z" fill="#FFA602"/>
<path d="M28.8333 26.9375H28.4167V25.1875H29.25C29.3605 25.1875 29.4665 25.2336 29.5446 25.3156C29.6228 25.3977 29.6667 25.509 29.6667 25.625C29.6667 25.741 29.7106 25.8523 29.7887 25.9344C29.8668 26.0164 29.9728 26.0625 30.0833 26.0625C30.1938 26.0625 30.2998 26.0164 30.378 25.9344C30.4561 25.8523 30.5 25.741 30.5 25.625C30.5 25.2769 30.3683 24.9431 30.1339 24.6969C29.8995 24.4508 29.5815 24.3125 29.25 24.3125H28.4167V23.4375C28.4167 23.3215 28.3728 23.2102 28.2946 23.1281C28.2165 23.0461 28.1105 23 28 23C27.8895 23 27.7835 23.0461 27.7054 23.1281C27.6272 23.2102 27.5833 23.3215 27.5833 23.4375V24.3125H27.1667C26.7246 24.3125 26.3007 24.4969 25.9882 24.8251C25.6756 25.1533 25.5 25.5984 25.5 26.0625C25.5 26.5266 25.6756 26.9717 25.9882 27.2999C26.3007 27.6281 26.7246 27.8125 27.1667 27.8125H27.5833V29.5625H26.75C26.6395 29.5625 26.5335 29.5164 26.4554 29.4344C26.3772 29.3523 26.3333 29.241 26.3333 29.125C26.3333 29.009 26.2894 28.8977 26.2113 28.8156C26.1332 28.7336 26.0272 28.6875 25.9167 28.6875C25.8062 28.6875 25.7002 28.7336 25.622 28.8156C25.5439 28.8977 25.5 29.009 25.5 29.125C25.5 29.4731 25.6317 29.8069 25.8661 30.0531C26.1005 30.2992 26.4185 30.4375 26.75 30.4375H27.5833V31.3125C27.5833 31.4285 27.6272 31.5398 27.7054 31.6219C27.7835 31.7039 27.8895 31.75 28 31.75C28.1105 31.75 28.2165 31.7039 28.2946 31.6219C28.3728 31.5398 28.4167 31.4285 28.4167 31.3125V30.4375H28.8333C29.2754 30.4375 29.6993 30.2531 30.0118 29.9249C30.3244 29.5967 30.5 29.1516 30.5 28.6875C30.5 28.2234 30.3244 27.7783 30.0118 27.4501C29.6993 27.1219 29.2754 26.9375 28.8333 26.9375ZM27.5833 26.9375H27.1667C26.9457 26.9375 26.7337 26.8453 26.5774 26.6812C26.4211 26.5171 26.3333 26.2946 26.3333 26.0625C26.3333 25.8304 26.4211 25.6079 26.5774 25.4438C26.7337 25.2797 26.9457 25.1875 27.1667 25.1875H27.5833V26.9375ZM28.8333 29.5625H28.4167V27.8125H28.8333C29.0543 27.8125 29.2663 27.9047 29.4226 28.0688C29.5789 28.2329 29.6667 28.4554 29.6667 28.6875C29.6667 28.9196 29.5789 29.1421 29.4226 29.3062C29.2663 29.4703 29.0543 29.5625 28.8333 29.5625Z" fill="#FFA602"/>
</svg>
