<svg width="64" height="46" viewBox="0 0 64 46" fill="none" xmlns="http://www.w3.org/2000/svg">
<path d="M3 20C1.34315 20 0 21.3431 0 23C0 24.6569 1.34315 26 3 26V20ZM63.1213 25.1213C64.2929 23.9497 64.2929 22.0503 63.1213 20.8787L44.0294 1.7868C42.8579 0.615223 40.9584 0.615223 39.7868 1.7868C38.6152 2.95837 38.6152 4.85786 39.7868 6.02944L56.7574 23L39.7868 39.9706C38.6152 41.1421 38.6152 43.0416 39.7868 44.2132C40.9584 45.3848 42.8579 45.3848 44.0294 44.2132L63.1213 25.1213ZM3 26L61 26V20L3 20V26Z" fill="#323B4B" fill-opacity="0.08"/>
</svg>
