<svg width="32" height="32" viewBox="0 0 32 32" fill="none" xmlns="http://www.w3.org/2000/svg">
<path d="M29.3333 7.99995V11.2266C29.3333 13.3333 28 14.6666 25.8933 14.6666H21.3333V5.34661C21.3333 3.86661 22.5467 2.65328 24.0267 2.66661C25.48 2.67995 26.8133 3.26661 27.7733 4.22661C28.7333 5.19995 29.3333 6.53328 29.3333 7.99995Z" fill="#F56862"/>
<path opacity="0.4" d="M2.66667 9.33329V28C2.66667 29.1066 3.92 29.7333 4.8 29.0666L7.08 27.36C7.61333 26.96 8.36 27.0133 8.84 27.4933L11.0533 29.72C11.5733 30.24 12.4267 30.24 12.9467 29.72L15.1867 27.48C15.6533 27.0133 16.4 26.96 16.92 27.36L19.2 29.0666C20.08 29.72 21.3333 29.0933 21.3333 28V5.33329C21.3333 3.86663 22.5333 2.66663 24 2.66663H9.33333H8C4 2.66663 2.66667 5.05329 2.66667 7.99996V9.33329Z" fill="#F56862"/>
<path d="M16 16.3467H12C11.4533 16.3467 11 16.8 11 17.3467C11 17.8933 11.4533 18.3467 12 18.3467H16C16.5467 18.3467 17 17.8933 17 17.3467C17 16.8 16.5467 16.3467 16 16.3467Z" fill="#F56862"/>
<path d="M12 13.0134H16C16.5467 13.0134 17 12.5601 17 12.0134C17 11.4668 16.5467 11.0134 16 11.0134H12C11.4533 11.0134 11 11.4668 11 12.0134C11 12.5601 11.4533 13.0134 12 13.0134Z" fill="#F56862"/>
<path d="M7.96 10.6801C7.21333 10.6801 6.62666 11.2801 6.62666 12.0134C6.62666 12.7467 7.22666 13.3467 7.96 13.3467C8.69333 13.3467 9.29333 12.7467 9.29333 12.0134C9.29333 11.2801 8.69333 10.6801 7.96 10.6801Z" fill="#F56862"/>
<path d="M7.96 16.0134C7.21333 16.0134 6.62666 16.6134 6.62666 17.3468C6.62666 18.0801 7.22666 18.6801 7.96 18.6801C8.69333 18.6801 9.29333 18.0801 9.29333 17.3468C9.29333 16.6134 8.69333 16.0134 7.96 16.0134Z" fill="#F56862"/>
</svg>
