<svg width="76" height="76" viewBox="0 0 76 76" fill="none" xmlns="http://www.w3.org/2000/svg">
<g filter="url(#filter0_d_0_357)">
<rect x="10" y="6" width="56" height="56" rx="14" fill="white"/>
<path d="M50.275 33.6875H46C45.4875 33.6875 45.0625 33.2625 45.0625 32.75V24.0125C45.0625 23.0875 45.425 22.225 46.075 21.575C46.725 20.925 47.5875 20.5625 48.5125 20.5625H48.525C50.0875 20.575 51.5625 21.1875 52.6875 22.3C53.8125 23.4375 54.425 24.9375 54.425 26.5V29.525C54.4375 32.0125 52.7625 33.6875 50.275 33.6875ZM46.9375 31.8125H50.275C51.725 31.8125 52.5625 30.975 52.5625 29.525V26.5C52.5625 25.425 52.1375 24.4 51.375 23.625C50.6125 22.875 49.5875 22.45 48.525 22.4375C48.525 22.4375 48.525 22.4375 48.5125 22.4375C48.1 22.4375 47.7 22.6 47.4 22.9C47.1 23.2 46.9375 23.5875 46.9375 24.0125V31.8125Z" fill="#00B88B"/>
<path d="M37.2497 48.1625C36.6622 48.1625 36.1122 47.9375 35.6997 47.5125L33.6247 45.425C33.5122 45.3125 33.3372 45.3 33.2122 45.4L31.0747 47C30.4122 47.5 29.5372 47.5875 28.7872 47.2125C28.0372 46.8375 27.5747 46.0875 27.5747 45.25V26.5C27.5747 22.725 29.7372 20.5625 33.5122 20.5625H48.5122C49.0247 20.5625 49.4497 20.9875 49.4497 21.5C49.4497 22.0125 49.0247 22.4375 48.5122 22.4375C47.6497 22.4375 46.9497 23.1375 46.9497 24V45.25C46.9497 46.0875 46.4872 46.8375 45.7372 47.2125C44.9872 47.5875 44.1122 47.5125 43.4497 47.0125L41.3122 45.4125C41.1872 45.3125 41.0122 45.3375 40.9122 45.4375L38.8122 47.5375C38.3872 47.9375 37.8372 48.1625 37.2497 48.1625ZM33.3872 43.4625C33.9622 43.4625 34.5247 43.675 34.9497 44.1125L37.0247 46.2C37.0997 46.275 37.1997 46.2875 37.2497 46.2875C37.2997 46.2875 37.3997 46.275 37.4747 46.2L39.5747 44.1C40.3497 43.325 41.5747 43.25 42.4372 43.9125L44.5622 45.5C44.6997 45.6 44.8247 45.5625 44.8872 45.525C44.9497 45.4875 45.0622 45.4125 45.0622 45.25V24C45.0622 23.4375 45.1997 22.9 45.4372 22.4375H33.4997C30.7247 22.4375 29.4372 23.725 29.4372 26.5V45.25C29.4372 45.425 29.5497 45.5 29.6122 45.5375C29.6872 45.575 29.8122 45.6 29.9372 45.5L32.0747 43.9C32.4622 43.6125 32.9247 43.4625 33.3872 43.4625Z" fill="#00B88B"/>
<path d="M40.2877 36.6C39.5877 36.6 39.0377 36.0375 39.0377 35.35C39.0377 34.6625 39.6002 34.1 40.2877 34.1C40.9752 34.1 41.5377 34.6625 41.5377 35.35C41.5377 36.0375 40.9752 36.6 40.2877 36.6Z" fill="#00B88B"/>
<path d="M34.2123 31.5376C33.5123 31.5376 32.9623 30.9751 32.9623 30.2876C32.9623 29.6001 33.5248 29.0376 34.2123 29.0376C34.8998 29.0376 35.4623 29.6001 35.4623 30.2876C35.4623 30.9751 34.8998 31.5376 34.2123 31.5376Z" fill="#00B88B"/>
<path d="M33.8374 37.0999C33.5999 37.0999 33.3625 37.0124 33.175 36.8249C32.8125 36.4624 32.8125 35.8625 33.175 35.5L40 28.675C40.3625 28.3125 40.9624 28.3125 41.3249 28.675C41.6874 29.0375 41.6874 29.6374 41.3249 29.9999L34.4999 36.8249C34.3249 36.9999 34.0749 37.0999 33.8374 37.0999Z" fill="#00B88B"/>
</g>
<defs>
<filter id="filter0_d_0_357" x="0" y="0" width="76" height="76" filterUnits="userSpaceOnUse" color-interpolation-filters="sRGB">
<feFlood flood-opacity="0" result="BackgroundImageFix"/>
<feColorMatrix in="SourceAlpha" type="matrix" values="0 0 0 0 0 0 0 0 0 0 0 0 0 0 0 0 0 0 127 0" result="hardAlpha"/>
<feOffset dy="4"/>
<feGaussianBlur stdDeviation="5"/>
<feComposite in2="hardAlpha" operator="out"/>
<feColorMatrix type="matrix" values="0 0 0 0 0.0172774 0 0 0 0 0.142818 0 0 0 0 0.310205 0 0 0 0.06 0"/>
<feBlend mode="normal" in2="BackgroundImageFix" result="effect1_dropShadow_0_357"/>
<feBlend mode="normal" in="SourceGraphic" in2="effect1_dropShadow_0_357" result="shape"/>
</filter>
</defs>
</svg>
