<svg width="158" height="38" viewBox="0 0 158 38" fill="none" xmlns="http://www.w3.org/2000/svg">
<path d="M31.9999 0.816492L26.611 10.0703H4.90461C4.49381 9.44688 4.1809 8.71125 4.09953 7.87279C3.98257 6.65452 4.37192 5.37173 5.16509 4.23943C6.74632 2.16125 9.24262 0.816492 12.0493 0.816492H31.9999Z" fill="#00B88B"/>
<path d="M20.6462 37.175H20.6464L21.3362 37.1789L20.6462 37.175ZM24.2386 25.385C24.2365 25.3881 24.2346 25.3911 24.2326 25.3942C24.4481 25.5062 26.0745 26.3814 27.0942 27.9286C27.5064 28.5539 27.8198 29.2884 27.9003 30.1275C28.017 31.3456 27.6271 32.6272 26.8344 33.7615V33.7617C25.2527 35.8384 22.7567 37.1826 19.9504 37.1826H22.0208H22.0261C26.5924 37.1826 30.3408 33.6269 30.6568 29.1404L30.6604 27.9286L30.6811 21.2702C30.6811 19.5201 29.7436 17.8845 28.2332 17.0008L19.993 12.1793L15.3191 20.166L24.2386 25.385Z" fill="#00B88B"/>
<path d="M7.76117 12.6146C7.76322 12.6115 7.76509 12.6085 7.76713 12.6054C7.5516 12.4934 5.92526 11.6182 4.90549 10.071C4.49333 9.44566 4.17991 8.71123 4.09938 7.87209C3.98276 6.65399 4.37262 5.37239 5.16528 4.23805V4.23788C6.74703 2.16123 9.24298 0.81698 12.0493 0.81698H9.97895H9.97367C5.40737 0.81698 1.65892 4.37271 1.34295 8.85917L1.33937 10.071L1.3186 16.7294C1.3186 18.4795 2.25614 20.1151 3.76655 20.9988L12.0067 25.8203L16.6806 17.8336L7.76117 12.6146Z" fill="#5B2EBC"/>
<path d="M0 37.1836L5.38893 27.9298H27.0953C27.5061 28.5532 27.819 29.2888 27.9004 30.1273C28.0173 31.3456 27.628 32.6284 26.8348 33.7607C25.2536 35.8388 22.7573 37.1836 19.9506 37.1836H0Z" fill="#5B2EBC"/>
<path d="M46.424 28.434C44.2747 28.434 42.4663 27.9587 40.999 27.008C39.5317 26.0367 38.4983 24.7243 37.899 23.071L41.557 20.932C42.4043 23.1433 44.068 24.249 46.548 24.249C47.7467 24.249 48.625 24.032 49.183 23.598C49.741 23.164 50.02 22.6163 50.02 21.955C50.02 21.1903 49.679 20.6013 48.997 20.188C48.315 19.754 47.0957 19.289 45.339 18.793C44.3677 18.5037 43.541 18.2143 42.859 17.925C42.1977 17.6357 41.526 17.2533 40.844 16.778C40.1827 16.282 39.6763 15.662 39.325 14.918C38.9737 14.174 38.798 13.306 38.798 12.314C38.798 10.3507 39.4903 8.79033 40.875 7.633C42.2803 6.455 43.9647 5.866 45.928 5.866C47.6847 5.866 49.2243 6.3 50.547 7.168C51.8903 8.01533 52.934 9.20367 53.678 10.733L50.082 12.81C49.214 10.95 47.8293 10.02 45.928 10.02C45.0393 10.02 44.3367 10.2267 43.82 10.64C43.324 11.0327 43.076 11.5493 43.076 12.19C43.076 12.872 43.355 13.43 43.913 13.864C44.4917 14.2773 45.587 14.732 47.199 15.228C47.8603 15.4347 48.3563 15.6 48.687 15.724C49.0383 15.8273 49.5033 16.003 50.082 16.251C50.6813 16.4783 51.136 16.6953 51.446 16.902C51.7767 17.1087 52.1487 17.3877 52.562 17.739C52.9753 18.0903 53.2853 18.452 53.492 18.824C53.7193 19.196 53.9053 19.6507 54.05 20.188C54.2153 20.7047 54.298 21.273 54.298 21.893C54.298 23.8977 53.5643 25.489 52.097 26.667C50.6503 27.845 48.7593 28.434 46.424 28.434ZM67.8661 12.5H71.8651V28H67.8661V26.171C66.6674 27.6797 64.9831 28.434 62.8131 28.434C60.7464 28.434 58.9691 27.6487 57.4811 26.078C56.0137 24.4867 55.2801 22.544 55.2801 20.25C55.2801 17.956 56.0137 16.0237 57.4811 14.453C58.9691 12.8617 60.7464 12.066 62.8131 12.066C64.9831 12.066 66.6674 12.8203 67.8661 14.329V12.5ZM60.4881 23.412C61.2941 24.218 62.3171 24.621 63.5571 24.621C64.7971 24.621 65.8201 24.218 66.6261 23.412C67.4527 22.5853 67.8661 21.5313 67.8661 20.25C67.8661 18.9687 67.4527 17.925 66.6261 17.119C65.8201 16.2923 64.7971 15.879 63.5571 15.879C62.3171 15.879 61.2941 16.2923 60.4881 17.119C59.6821 17.925 59.2791 18.9687 59.2791 20.25C59.2791 21.5313 59.6821 22.5853 60.4881 23.412ZM86.0313 12.5H90.0303V28H86.0313V26.171C84.8327 27.6797 83.1483 28.434 80.9783 28.434C78.9117 28.434 77.1343 27.6487 75.6463 26.078C74.179 24.4867 73.4453 22.544 73.4453 20.25C73.4453 17.956 74.179 16.0237 75.6463 14.453C77.1343 12.8617 78.9117 12.066 80.9783 12.066C83.1483 12.066 84.8327 12.8203 86.0313 14.329V12.5ZM78.6533 23.412C79.4593 24.218 80.4823 24.621 81.7223 24.621C82.9623 24.621 83.9853 24.218 84.7913 23.412C85.618 22.5853 86.0313 21.5313 86.0313 20.25C86.0313 18.9687 85.618 17.925 84.7913 17.119C83.9853 16.2923 82.9623 15.879 81.7223 15.879C80.4823 15.879 79.4593 16.2923 78.6533 17.119C77.8473 17.925 77.4443 18.9687 77.4443 20.25C77.4443 21.5313 77.8473 22.5853 78.6533 23.412ZM100.012 28.434C97.8623 28.434 96.0539 27.9587 94.5866 27.008C93.1193 26.0367 92.0859 24.7243 91.4866 23.071L95.1446 20.932C95.9919 23.1433 97.6556 24.249 100.136 24.249C101.334 24.249 102.213 24.032 102.771 23.598C103.329 23.164 103.608 22.6163 103.608 21.955C103.608 21.1903 103.267 20.6013 102.585 20.188C101.903 19.754 100.683 19.289 98.9266 18.793C97.9553 18.5037 97.1286 18.2143 96.4466 17.925C95.7853 17.6357 95.1136 17.2533 94.4316 16.778C93.7703 16.282 93.2639 15.662 92.9126 14.918C92.5613 14.174 92.3856 13.306 92.3856 12.314C92.3856 10.3507 93.0779 8.79033 94.4626 7.633C95.8679 6.455 97.5523 5.866 99.5156 5.866C101.272 5.866 102.812 6.3 104.135 7.168C105.478 8.01533 106.522 9.20367 107.266 10.733L103.67 12.81C102.802 10.95 101.417 10.02 99.5156 10.02C98.6269 10.02 97.9243 10.2267 97.4076 10.64C96.9116 11.0327 96.6636 11.5493 96.6636 12.19C96.6636 12.872 96.9426 13.43 97.5006 13.864C98.0793 14.2773 99.1746 14.732 100.787 15.228C101.448 15.4347 101.944 15.6 102.275 15.724C102.626 15.8273 103.091 16.003 103.67 16.251C104.269 16.4783 104.724 16.6953 105.034 16.902C105.364 17.1087 105.736 17.3877 106.15 17.739C106.563 18.0903 106.873 18.452 107.08 18.824C107.307 19.196 107.493 19.6507 107.638 20.188C107.803 20.7047 107.886 21.273 107.886 21.893C107.886 23.8977 107.152 25.489 105.685 26.667C104.238 27.845 102.347 28.434 100.012 28.434ZM117.496 6.3C119.439 6.3 121.051 6.94067 122.332 8.222C123.613 9.50333 124.254 11.105 124.254 13.027C124.254 14.949 123.613 16.5507 122.332 17.832C121.051 19.0927 119.439 19.723 117.496 19.723H111.761V28H110.118V6.3H117.496ZM117.496 18.173C118.984 18.173 120.203 17.6873 121.154 16.716C122.125 15.7447 122.611 14.515 122.611 13.027C122.611 11.5183 122.125 10.2783 121.154 9.307C120.203 8.33567 118.984 7.85 117.496 7.85H111.761V18.173H117.496ZM139.161 12.5H140.742V28H139.161V24.497C138.5 25.6957 137.59 26.636 136.433 27.318C135.276 28 133.963 28.341 132.496 28.341C130.285 28.341 128.394 27.566 126.823 26.016C125.252 24.4453 124.467 22.5233 124.467 20.25C124.467 17.9767 125.252 16.065 126.823 14.515C128.394 12.9443 130.285 12.159 132.496 12.159C133.963 12.159 135.276 12.5 136.433 13.182C137.59 13.864 138.5 14.8043 139.161 16.003V12.5ZM127.939 24.931C129.22 26.2123 130.781 26.853 132.62 26.853C134.459 26.853 136.009 26.2123 137.27 24.931C138.531 23.6497 139.161 22.0893 139.161 20.25C139.161 18.4107 138.531 16.8503 137.27 15.569C136.009 14.2877 134.459 13.647 132.62 13.647C130.781 13.647 129.22 14.2877 127.939 15.569C126.678 16.8503 126.048 18.4107 126.048 20.25C126.048 22.0893 126.678 23.6497 127.939 24.931ZM155.607 12.5H157.281L150.585 29.426C149.986 30.9553 149.139 32.154 148.043 33.022C146.948 33.9107 145.749 34.3033 144.447 34.2V32.743C145.439 32.8257 146.328 32.5363 147.113 31.875C147.919 31.2343 148.57 30.3147 149.066 29.116L149.407 28.279L142.277 12.5H143.951L150.213 26.295L155.607 12.5Z" fill="#524E5A"/>
</svg>
