<svg width="28" height="28" viewBox="0 0 28 28" fill="none" xmlns="http://www.w3.org/2000/svg">
<path opacity="0.4" d="M8.12619 6.81179L18.4353 3.37161C23.0641 1.82867 25.5785 4.35452 24.047 8.98333L20.6068 19.2924C18.2981 26.2299 14.5037 26.2299 12.195 19.2924L11.1778 16.2294L8.11476 15.2122C1.18868 12.915 1.18868 9.13191 8.12619 6.81179Z" fill="#666F81"/>
<path d="M13.8522 13.2921L18.2067 8.92618L13.8522 13.2921Z" fill="#666F81"/>
<path d="M13.8521 14.1493C13.635 14.1493 13.4178 14.0693 13.2464 13.8979C12.9149 13.5664 12.9149 13.0178 13.2464 12.6864L17.5895 8.32042C17.9209 7.98898 18.4695 7.98898 18.801 8.32042C19.1324 8.65187 19.1324 9.20047 18.801 9.53191L14.4579 13.8979C14.2864 14.0579 14.0693 14.1493 13.8521 14.1493Z" fill="#666F81"/>
</svg>
