<svg width="476" height="360" viewBox="0 0 476 360" fill="none" xmlns="http://www.w3.org/2000/svg">
<rect x="0.236816" width="306.452" height="360" rx="12.4131" fill="white"/>
<path d="M45.5032 91.7271H66.4701C69.649 91.7271 72.2191 94.2597 72.2191 97.3923V117.254C72.2191 120.386 69.649 122.919 66.4701 122.919H45.5032C42.3243 122.919 39.7542 120.386 39.7542 117.254V97.3923C39.7542 94.2597 42.3243 91.7271 45.5032 91.7271Z" fill="#00005B"/>
<path d="M47.4609 113.588V99.8583C47.4609 99.765 47.5015 99.7117 47.5962 99.7117C47.8262 99.7117 48.0426 99.7117 48.3537 99.6984C48.6784 99.685 49.0166 99.685 49.3818 99.6717C49.747 99.6584 50.1393 99.6584 50.5586 99.645C50.978 99.6317 51.3838 99.6317 51.7896 99.6317C52.8988 99.6317 53.8187 99.765 54.5762 100.045C55.2525 100.272 55.8748 100.645 56.3888 101.138C56.8217 101.565 57.1599 102.084 57.3763 102.658C57.5792 103.217 57.6874 103.791 57.6874 104.39C57.6874 105.537 57.4169 106.483 56.8758 107.23C56.3347 107.976 55.5772 108.536 54.6979 108.856C53.7781 109.189 52.7636 109.309 51.6543 109.309C51.3297 109.309 51.1132 109.309 50.978 109.296C50.8427 109.283 50.6533 109.283 50.3963 109.283V113.561C50.4098 113.655 50.3422 113.735 50.2475 113.748H50.1934H47.6233C47.515 113.748 47.4609 113.695 47.4609 113.575V113.588ZM50.4098 102.298V106.777C50.5992 106.79 50.7751 106.803 50.9374 106.803H51.6543C52.1819 106.803 52.7094 106.723 53.2099 106.563C53.6428 106.443 54.0216 106.19 54.3192 105.857C54.6032 105.524 54.7385 105.07 54.7385 104.484C54.752 104.071 54.6438 103.657 54.4274 103.297C54.1974 102.951 53.8728 102.684 53.4805 102.538C52.98 102.338 52.4389 102.258 51.8843 102.271C51.5326 102.271 51.2215 102.271 50.9645 102.284C50.6939 102.271 50.5045 102.284 50.4098 102.298Z" fill="#9999FF"/>
<path d="M59.6354 103.084H62.0027C62.1379 103.084 62.2461 103.177 62.2867 103.297C62.3273 103.404 62.3544 103.511 62.3679 103.631C62.3949 103.764 62.422 103.911 62.4355 104.044C62.4491 104.191 62.4626 104.35 62.4626 104.524C62.8684 104.057 63.3554 103.671 63.91 103.377C64.5322 103.031 65.2492 102.858 65.9661 102.858C66.0608 102.844 66.1419 102.911 66.1555 103.004V103.057V105.657C66.1555 105.763 66.0878 105.803 65.939 105.803C65.4521 105.79 64.9516 105.83 64.4781 105.937C64.0858 106.017 63.7071 106.137 63.3418 106.297C63.0848 106.417 62.8413 106.577 62.652 106.79V113.588C62.652 113.721 62.5979 113.775 62.4761 113.775H59.8113C59.7031 113.788 59.6084 113.721 59.5948 113.615V113.561V106.177C59.5948 105.857 59.5948 105.524 59.5813 105.177C59.5678 104.83 59.5678 104.484 59.5543 104.137C59.5543 103.831 59.5272 103.537 59.5002 103.231C59.4866 103.164 59.5272 103.097 59.5948 103.084C59.5948 103.071 59.6219 103.071 59.6354 103.084Z" fill="#9999FF"/>
<path d="M80.6792 105.273V96.9143H83.8138C84.456 96.9143 84.9948 97.0341 85.4301 97.2735C85.8682 97.513 86.1988 97.8422 86.4219 98.2612C86.6478 98.6776 86.7607 99.151 86.7607 99.6816C86.7607 100.218 86.6478 100.694 86.4219 101.11C86.1961 101.526 85.8628 101.854 85.422 102.094C84.9811 102.331 84.4383 102.449 83.7934 102.449H81.7159V101.204H83.5893C83.9648 101.204 84.2723 101.139 84.5118 101.008C84.7512 100.877 84.9281 100.698 85.0424 100.469C85.1594 100.241 85.2179 99.9782 85.2179 99.6816C85.2179 99.385 85.1594 99.1238 85.0424 98.898C84.9281 98.6721 84.7499 98.4966 84.5077 98.3714C84.2682 98.2435 83.9594 98.1796 83.5812 98.1796H82.1935V105.273H80.6792ZM88.0107 105.273V99.0041H89.4433V100.049H89.5086C89.6229 99.6871 89.8188 99.4081 90.0963 99.2122C90.3766 99.0136 90.6963 98.9143 91.0555 98.9143C91.1371 98.9143 91.2283 98.9184 91.329 98.9265C91.4324 98.932 91.5181 98.9415 91.5861 98.9551V100.314C91.5235 100.292 91.4242 100.273 91.2881 100.257C91.1548 100.238 91.0256 100.229 90.9004 100.229C90.631 100.229 90.3888 100.287 90.1739 100.404C89.9616 100.518 89.7943 100.678 89.6719 100.882C89.5494 101.086 89.4882 101.321 89.4882 101.588V105.273H88.0107ZM95.085 105.396C94.4564 105.396 93.9136 105.265 93.4565 105.004C93.002 104.74 92.6524 104.367 92.4075 103.886C92.1626 103.401 92.0402 102.831 92.0402 102.175C92.0402 101.531 92.1626 100.965 92.4075 100.478C92.6551 99.9877 93.0007 99.6068 93.4442 99.3347C93.8877 99.0599 94.4088 98.9224 95.0074 98.9224C95.3938 98.9224 95.7584 98.985 96.1013 99.1102C96.4469 99.2326 96.7516 99.4231 97.0156 99.6816C97.2822 99.9401 97.4917 100.269 97.6441 100.669C97.7965 101.067 97.8727 101.54 97.8727 102.09V102.543H92.734V101.547H96.4564C96.4537 101.264 96.3924 101.012 96.2727 100.792C96.153 100.569 95.9857 100.393 95.7707 100.265C95.5585 100.137 95.3108 100.073 95.0279 100.073C94.7258 100.073 94.4605 100.147 94.232 100.294C94.0034 100.438 93.8252 100.629 93.6973 100.865C93.5721 101.099 93.5082 101.356 93.5054 101.637V102.506C93.5054 102.871 93.5721 103.184 93.7054 103.445C93.8388 103.703 94.0252 103.902 94.2646 104.041C94.5041 104.177 94.7843 104.245 95.1054 104.245C95.3204 104.245 95.5149 104.215 95.6891 104.155C95.8632 104.092 96.0142 104.001 96.1421 103.882C96.27 103.762 96.3666 103.613 96.4319 103.437L97.8115 103.592C97.7244 103.956 97.5584 104.275 97.3135 104.547C97.0713 104.816 96.7611 105.026 96.3829 105.175C96.0047 105.322 95.5721 105.396 95.085 105.396ZM99.1227 105.273V99.0041H100.535V100.069H100.608C100.739 99.7102 100.955 99.4299 101.257 99.2286C101.559 99.0245 101.92 98.9224 102.339 98.9224C102.763 98.9224 103.121 99.0258 103.412 99.2326C103.706 99.4367 103.913 99.7156 104.033 100.069H104.098C104.237 99.7211 104.471 99.4435 104.8 99.2367C105.132 99.0272 105.525 98.9224 105.98 98.9224C106.556 98.9224 107.027 99.1048 107.392 99.4694C107.756 99.834 107.939 100.366 107.939 101.065V105.273H106.457V101.294C106.457 100.905 106.354 100.62 106.147 100.441C105.94 100.258 105.687 100.167 105.388 100.167C105.031 100.167 104.752 100.279 104.551 100.502C104.352 100.722 104.253 101.009 104.253 101.363V105.273H102.804V101.233C102.804 100.909 102.706 100.65 102.51 100.457C102.317 100.264 102.064 100.167 101.751 100.167C101.539 100.167 101.346 100.222 101.172 100.331C100.997 100.437 100.859 100.588 100.755 100.784C100.652 100.977 100.6 101.203 100.6 101.461V105.273H99.1227ZM109.438 105.273V99.0041H110.915V105.273H109.438ZM110.181 98.1143C109.947 98.1143 109.745 98.0368 109.576 97.8817C109.408 97.7238 109.323 97.5347 109.323 97.3143C109.323 97.0912 109.408 96.9021 109.576 96.747C109.745 96.5892 109.947 96.5103 110.181 96.5103C110.417 96.5103 110.619 96.5892 110.785 96.747C110.953 96.9021 111.038 97.0912 111.038 97.3143C111.038 97.5347 110.953 97.7238 110.785 97.8817C110.619 98.0368 110.417 98.1143 110.181 98.1143ZM115.21 105.396C114.581 105.396 114.039 105.265 113.581 105.004C113.127 104.74 112.777 104.367 112.533 103.886C112.288 103.401 112.165 102.831 112.165 102.175C112.165 101.531 112.288 100.965 112.533 100.478C112.78 99.9877 113.126 99.6068 113.569 99.3347C114.013 99.0599 114.534 98.9224 115.132 98.9224C115.519 98.9224 115.883 98.985 116.226 99.1102C116.572 99.2326 116.877 99.4231 117.141 99.6816C117.407 99.9401 117.617 100.269 117.769 100.669C117.922 101.067 117.998 101.54 117.998 102.09V102.543H112.859V101.547H116.581C116.579 101.264 116.517 101.012 116.398 100.792C116.278 100.569 116.111 100.393 115.896 100.265C115.683 100.137 115.436 100.073 115.153 100.073C114.851 100.073 114.586 100.147 114.357 100.294C114.128 100.438 113.95 100.629 113.822 100.865C113.697 101.099 113.633 101.356 113.63 101.637V102.506C113.63 102.871 113.697 103.184 113.83 103.445C113.964 103.703 114.15 103.902 114.39 104.041C114.629 104.177 114.909 104.245 115.23 104.245C115.445 104.245 115.64 104.215 115.814 104.155C115.988 104.092 116.139 104.001 116.267 103.882C116.395 103.762 116.492 103.613 116.557 103.437L117.936 103.592C117.849 103.956 117.683 104.275 117.439 104.547C117.196 104.816 116.886 105.026 116.508 105.175C116.13 105.322 115.697 105.396 115.21 105.396ZM119.248 105.273V99.0041H120.68V100.049H120.746C120.86 99.6871 121.056 99.4081 121.333 99.2122C121.614 99.0136 121.933 98.9143 122.293 98.9143C122.374 98.9143 122.465 98.9184 122.566 98.9265C122.669 98.932 122.755 98.9415 122.823 98.9551V100.314C122.761 100.292 122.661 100.273 122.525 100.257C122.392 100.238 122.263 100.229 122.137 100.229C121.868 100.229 121.626 100.287 121.411 100.404C121.199 100.518 121.031 100.678 120.909 100.882C120.786 101.086 120.725 101.321 120.725 101.588V105.273H119.248ZM126.322 105.396C125.693 105.396 125.151 105.265 124.693 105.004C124.239 104.74 123.889 104.367 123.645 103.886C123.4 103.401 123.277 102.831 123.277 102.175C123.277 101.531 123.4 100.965 123.645 100.478C123.892 99.9877 124.238 99.6068 124.681 99.3347C125.125 99.0599 125.646 98.9224 126.244 98.9224C126.631 98.9224 126.995 98.985 127.338 99.1102C127.684 99.2326 127.989 99.4231 128.253 99.6816C128.519 99.9401 128.729 100.269 128.881 100.669C129.034 101.067 129.11 101.54 129.11 102.09V102.543H123.971V101.547H127.693C127.691 101.264 127.629 101.012 127.51 100.792C127.39 100.569 127.223 100.393 127.008 100.265C126.795 100.137 126.548 100.073 126.265 100.073C125.963 100.073 125.698 100.147 125.469 100.294C125.24 100.438 125.062 100.629 124.934 100.865C124.809 101.099 124.745 101.356 124.742 101.637V102.506C124.742 102.871 124.809 103.184 124.942 103.445C125.076 103.703 125.262 103.902 125.502 104.041C125.741 104.177 126.021 104.245 126.342 104.245C126.557 104.245 126.752 104.215 126.926 104.155C127.1 104.092 127.251 104.001 127.379 103.882C127.507 103.762 127.604 103.613 127.669 103.437L129.048 103.592C128.961 103.956 128.795 104.275 128.551 104.547C128.308 104.816 127.998 105.026 127.62 105.175C127.242 105.322 126.809 105.396 126.322 105.396ZM133.276 105.273V96.9143H136.411C137.053 96.9143 137.591 97.0341 138.027 97.2735C138.465 97.513 138.796 97.8422 139.019 98.2612C139.245 98.6776 139.357 99.151 139.357 99.6816C139.357 100.218 139.245 100.694 139.019 101.11C138.793 101.526 138.459 101.854 138.019 102.094C137.578 102.331 137.035 102.449 136.39 102.449H134.313V101.204H136.186C136.562 101.204 136.869 101.139 137.108 101.008C137.348 100.877 137.525 100.698 137.639 100.469C137.756 100.241 137.815 99.9782 137.815 99.6816C137.815 99.385 137.756 99.1238 137.639 98.898C137.525 98.6721 137.347 98.4966 137.104 98.3714C136.865 98.2435 136.556 98.1796 136.178 98.1796H134.79V105.273H133.276ZM140.607 105.273V99.0041H142.04V100.049H142.105C142.22 99.6871 142.416 99.4081 142.693 99.2122C142.973 99.0136 143.293 98.9143 143.652 98.9143C143.734 98.9143 143.825 98.9184 143.926 98.9265C144.029 98.932 144.115 98.9415 144.183 98.9551V100.314C144.12 100.292 144.021 100.273 143.885 100.257C143.752 100.238 143.622 100.229 143.497 100.229C143.228 100.229 142.986 100.287 142.771 100.404C142.558 100.518 142.391 100.678 142.269 100.882C142.146 101.086 142.085 101.321 142.085 101.588V105.273H140.607ZM147.641 105.396C147.029 105.396 146.498 105.261 146.049 104.992C145.6 104.722 145.252 104.345 145.004 103.861C144.759 103.377 144.637 102.811 144.637 102.163C144.637 101.516 144.759 100.948 145.004 100.461C145.252 99.9741 145.6 99.5959 146.049 99.3265C146.498 99.0571 147.029 98.9224 147.641 98.9224C148.253 98.9224 148.784 99.0571 149.233 99.3265C149.682 99.5959 150.029 99.9741 150.273 100.461C150.521 100.948 150.645 101.516 150.645 102.163C150.645 102.811 150.521 103.377 150.273 103.861C150.029 104.345 149.682 104.722 149.233 104.992C148.784 105.261 148.253 105.396 147.641 105.396ZM147.649 104.212C147.981 104.212 148.259 104.121 148.482 103.939C148.705 103.754 148.871 103.506 148.98 103.196C149.091 102.886 149.147 102.54 149.147 102.159C149.147 101.775 149.091 101.429 148.98 101.118C148.871 100.805 148.705 100.556 148.482 100.371C148.259 100.186 147.981 100.094 147.649 100.094C147.309 100.094 147.026 100.186 146.8 100.371C146.577 100.556 146.41 100.805 146.298 101.118C146.189 101.429 146.135 101.775 146.135 102.159C146.135 102.54 146.189 102.886 146.298 103.196C146.41 103.506 146.577 103.754 146.8 103.939C147.026 104.121 147.309 104.212 147.649 104.212Z" fill="#4E5D78"/>
<path d="M42.2835 78.3569H41.2455L43.5779 71.8755H44.7077L47.0401 78.3569H46.0021L44.1697 73.0528H44.1191L42.2835 78.3569ZM42.4576 75.8188H45.8249V76.6416H42.4576V75.8188ZM49.6416 78.4519C49.2491 78.4519 48.8989 78.3517 48.5909 78.1512C48.2849 77.9487 48.0444 77.6607 47.8693 77.2872C47.6963 76.9117 47.6098 76.4612 47.6098 75.9359C47.6098 75.4105 47.6974 74.9611 47.8725 74.5877C48.0497 74.2143 48.2923 73.9284 48.6004 73.7301C48.9084 73.5317 49.2576 73.4326 49.6479 73.4326C49.9496 73.4326 50.1922 73.4832 50.3758 73.5845C50.5615 73.6836 50.7049 73.7997 50.8062 73.9326C50.9096 74.0655 50.9898 74.1826 51.0467 74.2839H51.1037V71.8755H52.05V78.3569H51.1258V77.6006H51.0467C50.9898 77.7039 50.9075 77.8221 50.7999 77.955C50.6944 78.0879 50.5488 78.204 50.3631 78.3031C50.1775 78.4023 49.9369 78.4519 49.6416 78.4519ZM49.8504 77.6449C50.1226 77.6449 50.3526 77.5731 50.5404 77.4297C50.7302 77.2841 50.8737 77.0826 50.9708 76.8252C51.0699 76.5678 51.1195 76.2682 51.1195 75.9264C51.1195 75.5888 51.071 75.2934 50.9739 75.0403C50.8769 74.7871 50.7345 74.5898 50.5467 74.4485C50.3589 74.3071 50.1268 74.2364 49.8504 74.2364C49.5656 74.2364 49.3283 74.3103 49.1384 74.4579C48.9485 74.6056 48.805 74.8071 48.708 75.0624C48.613 75.3177 48.5656 75.6057 48.5656 75.9264C48.5656 76.2513 48.6141 76.5435 48.7111 76.803C48.8082 77.0625 48.9517 77.2683 49.1415 77.4202C49.3335 77.57 49.5698 77.6449 49.8504 77.6449ZM55.4481 78.455C54.9924 78.455 54.5947 78.3506 54.255 78.1417C53.9153 77.9329 53.6516 77.6406 53.4638 77.2651C53.276 76.8895 53.1821 76.4507 53.1821 75.9486C53.1821 75.4443 53.276 75.0033 53.4638 74.6257C53.6516 74.248 53.9153 73.9548 54.255 73.7459C54.5947 73.537 54.9924 73.4326 55.4481 73.4326C55.9038 73.4326 56.3015 73.537 56.6412 73.7459C56.9809 73.9548 57.2446 74.248 57.4324 74.6257C57.6202 75.0033 57.7141 75.4443 57.7141 75.9486C57.7141 76.4507 57.6202 76.8895 57.4324 77.2651C57.2446 77.6406 56.9809 77.9329 56.6412 78.1417C56.3015 78.3506 55.9038 78.455 55.4481 78.455ZM55.4513 77.6607C55.7467 77.6607 55.9914 77.5826 56.1855 77.4265C56.3796 77.2704 56.5231 77.0625 56.6159 76.803C56.7109 76.5435 56.7583 76.2576 56.7583 75.9454C56.7583 75.6352 56.7109 75.3504 56.6159 75.0909C56.5231 74.8293 56.3796 74.6194 56.1855 74.4611C55.9914 74.3029 55.7467 74.2238 55.4513 74.2238C55.1538 74.2238 54.9069 74.3029 54.7107 74.4611C54.5166 74.6194 54.3721 74.8293 54.2772 75.0909C54.1843 75.3504 54.1379 75.6352 54.1379 75.9454C54.1379 76.2576 54.1843 76.5435 54.2772 76.803C54.3721 77.0625 54.5166 77.2704 54.7107 77.4265C54.9069 77.5826 55.1538 77.6607 55.4513 77.6607ZM58.8463 78.3569V71.8755H59.7925V74.2839H59.8495C59.9044 74.1826 59.9835 74.0655 60.0869 73.9326C60.1902 73.7997 60.3337 73.6836 60.5173 73.5845C60.7008 73.4832 60.9435 73.4326 61.2452 73.4326C61.6376 73.4326 61.9878 73.5317 62.2959 73.7301C62.6039 73.9284 62.8455 74.2143 63.0206 74.5877C63.1978 74.9611 63.2864 75.4105 63.2864 75.9359C63.2864 76.4612 63.1989 76.9117 63.0238 77.2872C62.8486 77.6607 62.6081 77.9487 62.3022 78.1512C61.9963 78.3517 61.6471 78.4519 61.2547 78.4519C60.9593 78.4519 60.7177 78.4023 60.5299 78.3031C60.3443 78.204 60.1987 78.0879 60.0932 77.955C59.9877 77.8221 59.9065 77.7039 59.8495 77.6006H59.7704V78.3569H58.8463ZM59.7736 75.9264C59.7736 76.2682 59.8231 76.5678 59.9223 76.8252C60.0215 77.0826 60.1649 77.2841 60.3527 77.4297C60.5405 77.5731 60.7705 77.6449 61.0426 77.6449C61.3253 77.6449 61.5616 77.57 61.7515 77.4202C61.9414 77.2683 62.0849 77.0625 62.1819 76.803C62.2811 76.5435 62.3307 76.2513 62.3307 75.9264C62.3307 75.6057 62.2822 75.3177 62.1851 75.0624C62.0902 74.8071 61.9467 74.6056 61.7547 74.4579C61.5648 74.3103 61.3274 74.2364 61.0426 74.2364C60.7683 74.2364 60.5363 74.3071 60.3464 74.4485C60.1586 74.5898 60.0162 74.7871 59.9191 75.0403C59.8221 75.2934 59.7736 75.5888 59.7736 75.9264ZM66.4441 78.455C65.9651 78.455 65.5527 78.3527 65.2067 78.1481C64.8627 77.9413 64.5969 77.6512 64.4091 77.2778C64.2235 76.9022 64.1306 76.4623 64.1306 75.958C64.1306 75.4601 64.2235 75.0213 64.4091 74.6415C64.5969 74.2617 64.8585 73.9653 65.194 73.7522C65.5316 73.5391 65.9261 73.4326 66.3776 73.4326C66.6519 73.4326 66.9177 73.4779 67.1751 73.5687C67.4325 73.6594 67.6636 73.8018 67.8682 73.9959C68.0729 74.19 68.2343 74.4421 68.3524 74.7523C68.4706 75.0603 68.5297 75.4348 68.5297 75.8758V76.2112H64.6655V75.5023H67.6024C67.6024 75.2534 67.5517 75.0329 67.4505 74.8409C67.3492 74.6468 67.2068 74.4938 67.0232 74.382C66.8418 74.2702 66.6287 74.2143 66.3839 74.2143C66.1181 74.2143 65.886 74.2797 65.6877 74.4105C65.4915 74.5392 65.3396 74.708 65.232 74.9168C65.1265 75.1236 65.0737 75.3483 65.0737 75.5909V76.1448C65.0737 76.4697 65.1307 76.7461 65.2446 76.9739C65.3607 77.2018 65.5221 77.3759 65.7288 77.4961C65.9356 77.6143 66.1772 77.6733 66.4536 77.6733C66.6329 77.6733 66.7964 77.648 66.9441 77.5974C67.0918 77.5446 67.2194 77.4666 67.327 77.3632C67.4346 77.2598 67.5169 77.1322 67.5739 76.9803L68.4695 77.1417C68.3978 77.4054 68.2691 77.6364 68.0834 77.8347C67.8999 78.031 67.6688 78.1839 67.3903 78.2936C67.1139 78.4012 66.7985 78.455 66.4441 78.455Z" fill="#B0B7C3"/>
<path d="M84.1018 116.228C84.0681 115.929 83.9288 115.696 83.6841 115.532C83.4394 115.365 83.1313 115.282 82.76 115.282C82.4941 115.282 82.2642 115.324 82.0701 115.408C81.876 115.491 81.7251 115.605 81.6175 115.75C81.512 115.894 81.4593 116.057 81.4593 116.241C81.4593 116.395 81.4951 116.528 81.5669 116.64C81.6407 116.751 81.7367 116.845 81.8549 116.921C81.9751 116.995 82.1038 117.057 82.241 117.108C82.3781 117.156 82.51 117.197 82.6366 117.228L83.2695 117.393C83.4763 117.443 83.6883 117.512 83.9056 117.599C84.1229 117.685 84.3244 117.799 84.5101 117.94C84.6958 118.082 84.8456 118.257 84.9595 118.466C85.0755 118.675 85.1336 118.925 85.1336 119.216C85.1336 119.583 85.0386 119.909 84.8487 120.194C84.661 120.478 84.3877 120.703 84.0291 120.868C83.6725 121.032 83.241 121.115 82.7347 121.115C82.2494 121.115 81.8295 121.038 81.4751 120.884C81.1206 120.73 80.8432 120.511 80.6428 120.228C80.4423 119.944 80.3316 119.606 80.3105 119.216H81.2915C81.3105 119.45 81.3865 119.645 81.5194 119.801C81.6544 119.955 81.8264 120.07 82.0353 120.146C82.2462 120.22 82.4773 120.257 82.7283 120.257C83.0047 120.257 83.2505 120.214 83.4657 120.127C83.683 120.039 83.8539 119.916 83.9784 119.76C84.1029 119.602 84.1651 119.417 84.1651 119.206C84.1651 119.014 84.1103 118.857 84.0006 118.735C83.893 118.612 83.7463 118.511 83.5607 118.431C83.3771 118.351 83.1693 118.28 82.9372 118.219L82.1713 118.01C81.6523 117.869 81.2409 117.661 80.9371 117.386C80.6354 117.112 80.4845 116.749 80.4845 116.298C80.4845 115.924 80.5858 115.598 80.7883 115.32C80.9909 115.041 81.2652 114.825 81.6112 114.671C81.9572 114.515 82.3475 114.437 82.7821 114.437C83.221 114.437 83.6081 114.514 83.9436 114.668C84.2812 114.822 84.547 115.034 84.7411 115.304C84.9352 115.572 85.0365 115.88 85.0449 116.228H84.1018ZM89.3055 118.991V116.146H90.2549V121.007H89.3245V120.165H89.2739C89.162 120.425 88.9827 120.641 88.7358 120.814C88.4911 120.985 88.1862 121.07 87.8212 121.07C87.509 121.07 87.2326 121.002 86.9921 120.865C86.7537 120.725 86.5659 120.52 86.4287 120.247C86.2937 119.975 86.2262 119.639 86.2262 119.238V116.146H87.1725V119.124C87.1725 119.455 87.2642 119.719 87.4478 119.915C87.6313 120.111 87.8698 120.209 88.163 120.209C88.3403 120.209 88.5164 120.165 88.6915 120.077C88.8688 119.988 89.0154 119.854 89.1314 119.675C89.2496 119.495 89.3076 119.267 89.3055 118.991ZM91.6023 121.007V114.526H92.5486V116.934H92.6056C92.6604 116.833 92.7395 116.716 92.8429 116.583C92.9463 116.45 93.0898 116.334 93.2733 116.234C93.4569 116.133 93.6995 116.083 94.0012 116.083C94.3936 116.083 94.7439 116.182 95.0519 116.38C95.36 116.578 95.6015 116.864 95.7766 117.238C95.9539 117.611 96.0425 118.061 96.0425 118.586C96.0425 119.111 95.9549 119.562 95.7798 119.937C95.6047 120.311 95.3642 120.599 95.0582 120.801C94.7523 121.002 94.4031 121.102 94.0107 121.102C93.7153 121.102 93.4738 121.052 93.286 120.953C93.1003 120.854 92.9547 120.738 92.8492 120.605C92.7438 120.472 92.6625 120.354 92.6056 120.251H92.5264V121.007H91.6023ZM92.5296 118.576C92.5296 118.918 92.5792 119.218 92.6783 119.475C92.7775 119.733 92.921 119.934 93.1088 120.08C93.2965 120.223 93.5265 120.295 93.7987 120.295C94.0814 120.295 94.3177 120.22 94.5076 120.07C94.6975 119.918 94.8409 119.713 94.938 119.453C95.0371 119.194 95.0867 118.901 95.0867 118.576C95.0867 118.256 95.0382 117.968 94.9412 117.712C94.8462 117.457 94.7027 117.256 94.5107 117.108C94.3209 116.96 94.0835 116.886 93.7987 116.886C93.5244 116.886 93.2923 116.957 93.1024 117.098C92.9146 117.24 92.7722 117.437 92.6752 117.69C92.5781 117.943 92.5296 118.239 92.5296 118.576ZM100.748 117.333L99.89 117.485C99.8542 117.375 99.7972 117.27 99.7191 117.171C99.6432 117.072 99.5398 116.991 99.409 116.928C99.2782 116.864 99.1147 116.833 98.9185 116.833C98.6505 116.833 98.4269 116.893 98.2475 117.013C98.0682 117.131 97.9785 117.284 97.9785 117.472C97.9785 117.634 98.0387 117.765 98.1589 117.864C98.2792 117.964 98.4733 118.045 98.7412 118.108L99.5134 118.285C99.9607 118.389 100.294 118.548 100.514 118.763C100.733 118.978 100.843 119.258 100.843 119.602C100.843 119.893 100.758 120.152 100.589 120.38C100.423 120.606 100.19 120.783 99.89 120.912C99.5926 121.041 99.2476 121.105 98.8552 121.105C98.3108 121.105 97.8667 120.989 97.5228 120.757C97.1789 120.523 96.9679 120.19 96.8899 119.76L97.8045 119.621C97.8614 119.859 97.9785 120.04 98.1558 120.162C98.333 120.282 98.564 120.342 98.8488 120.342C99.159 120.342 99.4069 120.278 99.5926 120.149C99.7782 120.018 99.8711 119.859 99.8711 119.671C99.8711 119.52 99.8141 119.392 99.7002 119.288C99.5883 119.185 99.4164 119.107 99.1843 119.054L98.3615 118.874C97.9079 118.771 97.5724 118.606 97.3551 118.38C97.1399 118.154 97.0323 117.869 97.0323 117.523C97.0323 117.236 97.1124 116.985 97.2728 116.769C97.4331 116.554 97.6547 116.386 97.9374 116.266C98.2201 116.144 98.544 116.083 98.909 116.083C99.4343 116.083 99.8478 116.197 100.15 116.424C100.451 116.65 100.651 116.953 100.748 117.333ZM103.931 121.105C103.46 121.105 103.055 120.999 102.715 120.785C102.378 120.57 102.118 120.274 101.937 119.896C101.755 119.518 101.665 119.086 101.665 118.599C101.665 118.105 101.758 117.669 101.943 117.292C102.129 116.912 102.39 116.615 102.728 116.402C103.066 116.189 103.463 116.083 103.921 116.083C104.29 116.083 104.62 116.151 104.909 116.288C105.198 116.423 105.431 116.613 105.608 116.858C105.787 117.103 105.894 117.389 105.928 117.716H105.007C104.956 117.488 104.84 117.292 104.659 117.127C104.479 116.962 104.239 116.88 103.937 116.88C103.673 116.88 103.442 116.95 103.244 117.089C103.048 117.226 102.895 117.422 102.785 117.678C102.675 117.931 102.62 118.23 102.62 118.576C102.62 118.931 102.674 119.237 102.782 119.494C102.889 119.752 103.041 119.951 103.238 120.092C103.436 120.234 103.669 120.304 103.937 120.304C104.116 120.304 104.279 120.272 104.424 120.206C104.572 120.139 104.695 120.043 104.795 119.918C104.896 119.794 104.967 119.644 105.007 119.469H105.928C105.894 119.783 105.792 120.064 105.621 120.311C105.45 120.558 105.221 120.752 104.934 120.893C104.649 121.034 104.315 121.105 103.931 121.105ZM106.94 121.007V116.146H107.854V116.918H107.905C107.993 116.656 108.15 116.451 108.373 116.301C108.599 116.149 108.854 116.073 109.139 116.073C109.198 116.073 109.268 116.075 109.348 116.079C109.43 116.084 109.495 116.089 109.541 116.095V117C109.503 116.99 109.435 116.978 109.338 116.966C109.241 116.951 109.144 116.943 109.047 116.943C108.824 116.943 108.624 116.991 108.449 117.086C108.276 117.179 108.139 117.308 108.038 117.475C107.936 117.64 107.886 117.827 107.886 118.038V121.007H106.94ZM110.36 121.007V116.146H111.306V121.007H110.36ZM110.838 115.396C110.673 115.396 110.532 115.341 110.414 115.231C110.298 115.119 110.24 114.987 110.24 114.833C110.24 114.676 110.298 114.543 110.414 114.434C110.532 114.322 110.673 114.266 110.838 114.266C111.002 114.266 111.143 114.322 111.259 114.434C111.377 114.543 111.436 114.676 111.436 114.833C111.436 114.987 111.377 115.119 111.259 115.231C111.143 115.341 111.002 115.396 110.838 115.396ZM112.579 122.83V116.146H113.503V116.934H113.582C113.637 116.833 113.716 116.716 113.82 116.583C113.923 116.45 114.067 116.334 114.25 116.234C114.434 116.133 114.676 116.083 114.978 116.083C115.37 116.083 115.721 116.182 116.029 116.38C116.337 116.578 116.578 116.864 116.753 117.238C116.931 117.611 117.019 118.061 117.019 118.586C117.019 119.111 116.932 119.562 116.757 119.937C116.582 120.311 116.341 120.599 116.035 120.801C115.729 121.002 115.38 121.102 114.988 121.102C114.692 121.102 114.451 121.052 114.263 120.953C114.077 120.854 113.932 120.738 113.826 120.605C113.721 120.472 113.639 120.354 113.582 120.251H113.525V122.83H112.579ZM113.506 118.576C113.506 118.918 113.556 119.218 113.655 119.475C113.754 119.733 113.898 119.934 114.086 120.08C114.273 120.223 114.503 120.295 114.775 120.295C115.058 120.295 115.295 120.22 115.484 120.07C115.674 119.918 115.818 119.713 115.915 119.453C116.014 119.194 116.064 118.901 116.064 118.576C116.064 118.256 116.015 117.968 115.918 117.712C115.823 117.457 115.68 117.256 115.488 117.108C115.298 116.96 115.06 116.886 114.775 116.886C114.501 116.886 114.269 116.957 114.079 117.098C113.891 117.24 113.749 117.437 113.652 117.69C113.555 117.943 113.506 118.239 113.506 118.576ZM120.349 116.146V116.905H117.693V116.146H120.349ZM118.405 114.981H119.352V119.58C119.352 119.763 119.379 119.901 119.434 119.994C119.489 120.085 119.56 120.147 119.646 120.181C119.735 120.213 119.831 120.228 119.934 120.228C120.01 120.228 120.076 120.223 120.133 120.213C120.19 120.202 120.235 120.194 120.266 120.187L120.437 120.969C120.382 120.99 120.304 121.011 120.203 121.032C120.102 121.055 119.975 121.068 119.823 121.07C119.574 121.074 119.342 121.03 119.127 120.937C118.912 120.845 118.738 120.701 118.605 120.507C118.472 120.313 118.405 120.069 118.405 119.776V114.981ZM121.395 121.007V116.146H122.342V121.007H121.395ZM121.873 115.396C121.709 115.396 121.567 115.341 121.449 115.231C121.333 115.119 121.275 114.987 121.275 114.833C121.275 114.676 121.333 114.543 121.449 114.434C121.567 114.322 121.709 114.266 121.873 114.266C122.038 114.266 122.178 114.322 122.294 114.434C122.412 114.543 122.471 114.676 122.471 114.833C122.471 114.987 122.412 115.119 122.294 115.231C122.178 115.341 122.038 115.396 121.873 115.396ZM125.662 121.105C125.207 121.105 124.809 121.001 124.469 120.792C124.129 120.583 123.866 120.291 123.678 119.915C123.49 119.54 123.396 119.101 123.396 118.599C123.396 118.094 123.49 117.653 123.678 117.276C123.866 116.898 124.129 116.605 124.469 116.396C124.809 116.187 125.207 116.083 125.662 116.083C126.118 116.083 126.516 116.187 126.855 116.396C127.195 116.605 127.459 116.898 127.647 117.276C127.834 117.653 127.928 118.094 127.928 118.599C127.928 119.101 127.834 119.54 127.647 119.915C127.459 120.291 127.195 120.583 126.855 120.792C126.516 121.001 126.118 121.105 125.662 121.105ZM125.665 120.311C125.961 120.311 126.206 120.233 126.4 120.077C126.594 119.92 126.737 119.713 126.83 119.453C126.925 119.194 126.972 118.908 126.972 118.595C126.972 118.285 126.925 118 126.83 117.741C126.737 117.479 126.594 117.269 126.4 117.111C126.206 116.953 125.961 116.874 125.665 116.874C125.368 116.874 125.121 116.953 124.925 117.111C124.731 117.269 124.586 117.479 124.491 117.741C124.398 118 124.352 118.285 124.352 118.595C124.352 118.908 124.398 119.194 124.491 119.453C124.586 119.713 124.731 119.92 124.925 120.077C125.121 120.233 125.368 120.311 125.665 120.311ZM129.931 118.121V121.007H128.984V116.146H129.893V116.937H129.953C130.065 116.68 130.24 116.473 130.478 116.317C130.719 116.161 131.022 116.083 131.387 116.083C131.718 116.083 132.008 116.152 132.257 116.291C132.506 116.429 132.699 116.633 132.836 116.905C132.973 117.178 133.042 117.514 133.042 117.915V121.007H132.095V118.029C132.095 117.677 132.004 117.401 131.82 117.203C131.637 117.002 131.384 116.902 131.064 116.902C130.844 116.902 130.649 116.95 130.478 117.045C130.309 117.14 130.175 117.279 130.076 117.462C129.979 117.644 129.931 117.863 129.931 118.121ZM137.953 117.333L137.096 117.485C137.06 117.375 137.003 117.27 136.925 117.171C136.849 117.072 136.746 116.991 136.615 116.928C136.484 116.864 136.32 116.833 136.124 116.833C135.856 116.833 135.633 116.893 135.453 117.013C135.274 117.131 135.184 117.284 135.184 117.472C135.184 117.634 135.244 117.765 135.365 117.864C135.485 117.964 135.679 118.045 135.947 118.108L136.719 118.285C137.166 118.389 137.5 118.548 137.719 118.763C137.939 118.978 138.048 119.258 138.048 119.602C138.048 119.893 137.964 120.152 137.795 120.38C137.629 120.606 137.395 120.783 137.096 120.912C136.798 121.041 136.453 121.105 136.061 121.105C135.517 121.105 135.072 120.989 134.729 120.757C134.385 120.523 134.174 120.19 134.096 119.76L135.01 119.621C135.067 119.859 135.184 120.04 135.361 120.162C135.539 120.282 135.77 120.342 136.055 120.342C136.365 120.342 136.613 120.278 136.798 120.149C136.984 120.018 137.077 119.859 137.077 119.671C137.077 119.52 137.02 119.392 136.906 119.288C136.794 119.185 136.622 119.107 136.39 119.054L135.567 118.874C135.114 118.771 134.778 118.606 134.561 118.38C134.346 118.154 134.238 117.869 134.238 117.523C134.238 117.236 134.318 116.985 134.479 116.769C134.639 116.554 134.86 116.386 135.143 116.266C135.426 116.144 135.75 116.083 136.115 116.083C136.64 116.083 137.054 116.197 137.355 116.424C137.657 116.65 137.856 116.953 137.953 117.333ZM142.071 120.203C141.898 120.203 141.749 120.142 141.625 120.02C141.5 119.895 141.438 119.745 141.438 119.57C141.438 119.397 141.5 119.249 141.625 119.127C141.749 119.003 141.898 118.94 142.071 118.94C142.244 118.94 142.393 119.003 142.517 119.127C142.641 119.249 142.704 119.397 142.704 119.57C142.704 119.686 142.674 119.793 142.615 119.89C142.558 119.985 142.482 120.061 142.387 120.118C142.292 120.175 142.187 120.203 142.071 120.203ZM142.071 116.956C141.898 116.956 141.749 116.895 141.625 116.773C141.5 116.648 141.438 116.498 141.438 116.323C141.438 116.15 141.5 116.002 141.625 115.88C141.749 115.756 141.898 115.693 142.071 115.693C142.244 115.693 142.393 115.756 142.517 115.88C142.641 116.002 142.704 116.15 142.704 116.323C142.704 116.439 142.674 116.546 142.615 116.643C142.558 116.738 142.482 116.814 142.387 116.871C142.292 116.928 142.187 116.956 142.071 116.956ZM146.317 121.007V120.298L148.51 118.026C148.744 117.779 148.938 117.563 149.089 117.377C149.243 117.189 149.358 117.011 149.434 116.842C149.51 116.673 149.548 116.494 149.548 116.304C149.548 116.089 149.498 115.903 149.396 115.747C149.295 115.589 149.157 115.468 148.982 115.383C148.807 115.297 148.609 115.253 148.39 115.253C148.158 115.253 147.955 115.301 147.782 115.396C147.609 115.491 147.476 115.625 147.384 115.798C147.291 115.971 147.244 116.173 147.244 116.405H146.311C146.311 116.011 146.401 115.666 146.583 115.371C146.764 115.075 147.013 114.846 147.33 114.684C147.646 114.519 148.006 114.437 148.409 114.437C148.816 114.437 149.175 114.518 149.485 114.681C149.797 114.841 150.041 115.06 150.216 115.339C150.391 115.615 150.479 115.928 150.479 116.276C150.479 116.516 150.433 116.751 150.343 116.981C150.254 117.211 150.099 117.468 149.877 117.75C149.656 118.031 149.348 118.372 148.953 118.773L147.665 120.121V120.168H150.583V121.007H146.317ZM154.039 121.115C153.539 121.112 153.112 120.981 152.757 120.719C152.403 120.457 152.132 120.077 151.944 119.576C151.756 119.076 151.662 118.474 151.662 117.769C151.662 117.067 151.756 116.467 151.944 115.969C152.134 115.471 152.406 115.091 152.761 114.829C153.117 114.568 153.543 114.437 154.039 114.437C154.535 114.437 154.96 114.569 155.315 114.833C155.669 115.094 155.94 115.474 156.128 115.972C156.318 116.468 156.413 117.067 156.413 117.769C156.413 118.476 156.319 119.08 156.131 119.58C155.943 120.078 155.672 120.458 155.318 120.722C154.963 120.984 154.537 121.115 154.039 121.115ZM154.039 120.27C154.478 120.27 154.821 120.055 155.068 119.627C155.317 119.199 155.441 118.58 155.441 117.769C155.441 117.231 155.384 116.777 155.27 116.405C155.158 116.032 154.997 115.749 154.786 115.557C154.577 115.363 154.328 115.266 154.039 115.266C153.602 115.266 153.26 115.481 153.011 115.912C152.762 116.342 152.636 116.961 152.634 117.769C152.634 118.31 152.69 118.766 152.802 119.14C152.916 119.511 153.077 119.793 153.286 119.985C153.495 120.175 153.746 120.27 154.039 120.27Z" fill="#4E5D78"/>
<path fill-rule="evenodd" clip-rule="evenodd" d="M202.074 101.735V97.9157C202.074 96.5094 202.615 95.3091 203.697 94.3147C204.779 93.3203 206.085 92.8231 207.615 92.8231H243.638C245.168 92.8231 246.474 93.3203 247.556 94.3147C248.639 95.3091 249.18 96.5094 249.18 97.9157V105.555C249.18 106.961 248.639 108.161 247.556 109.155C246.474 110.15 245.168 110.647 243.638 110.647H207.615C206.085 110.647 204.779 110.15 203.697 109.155C202.615 108.161 202.074 106.961 202.074 105.555V101.735Z" fill="#1AD598" fill-opacity="0.248"/>
<path d="M212.247 104.006H211.173L213.129 98.4506H214.371L216.33 104.006H215.256L213.772 99.5899H213.728L212.247 104.006ZM212.283 101.828H215.212V102.636H212.283V101.828ZM221.556 100.325H220.541C220.512 100.159 220.459 100.011 220.381 99.8829C220.303 99.7527 220.207 99.6424 220.091 99.5519C219.975 99.4615 219.843 99.3937 219.695 99.3485C219.548 99.3015 219.39 99.278 219.22 99.278C218.918 99.278 218.651 99.3539 218.417 99.5058C218.184 99.6559 218.001 99.8765 217.869 100.168C217.737 100.457 217.671 100.811 217.671 101.228C217.671 101.653 217.737 102.011 217.869 102.303C218.003 102.592 218.186 102.811 218.417 102.959C218.651 103.106 218.917 103.179 219.218 103.179C219.384 103.179 219.539 103.157 219.684 103.114C219.831 103.068 219.962 103.002 220.077 102.916C220.195 102.829 220.294 102.722 220.373 102.596C220.454 102.469 220.511 102.324 220.541 102.161L221.556 102.167C221.518 102.431 221.436 102.679 221.309 102.91C221.184 103.142 221.021 103.346 220.818 103.523C220.615 103.699 220.379 103.836 220.107 103.936C219.836 104.033 219.535 104.082 219.204 104.082C218.716 104.082 218.28 103.969 217.896 103.743C217.513 103.517 217.211 103.19 216.99 102.764C216.77 102.337 216.659 101.825 216.659 101.228C216.659 100.63 216.771 100.118 216.993 99.693C217.216 99.2662 217.518 98.9398 217.902 98.7137C218.285 98.4877 218.719 98.3746 219.204 98.3746C219.513 98.3746 219.801 98.418 220.067 98.5048C220.332 98.5916 220.569 98.7191 220.777 98.8873C220.985 99.0537 221.156 99.2581 221.29 99.5004C221.426 99.7409 221.514 100.016 221.556 100.325ZM222.233 99.2942V98.4506H226.666V99.2942H224.949V104.006H223.95V99.2942H222.233ZM228.527 98.4506V104.006H227.52V98.4506H228.527ZM230.36 98.4506L231.806 102.823H231.863L233.306 98.4506H234.412L232.454 104.006H231.211L229.256 98.4506H230.36ZM235.144 104.006V98.4506H238.757V99.2942H236.151V100.802H238.57V101.646H236.151V103.162H238.779V104.006H235.144Z" fill="#00B41D"/>
<rect x="20.6543" y="149.655" width="245.079" height="86.5735" rx="9.54854" fill="white"/>
<path d="M80.6792 197.576V189.217H86.0342V190.486H82.1935V192.756H85.6668V194.025H82.1935V197.576H80.6792ZM87.3484 197.576V191.307H88.826V197.576H87.3484ZM88.0913 190.417C87.8573 190.417 87.6559 190.339 87.4872 190.184C87.3185 190.027 87.2342 189.837 87.2342 189.617C87.2342 189.394 87.3185 189.205 87.4872 189.05C87.6559 188.892 87.8573 188.813 88.0913 188.813C88.328 188.813 88.5294 188.892 88.6953 189.05C88.864 189.205 88.9484 189.394 88.9484 189.617C88.9484 189.837 88.864 190.027 88.6953 190.184C88.5294 190.339 88.328 190.417 88.0913 190.417ZM93.0718 200.058C92.5412 200.058 92.0854 199.986 91.7045 199.841C91.3235 199.7 91.0174 199.509 90.7861 199.27C90.5548 199.03 90.3943 198.765 90.3045 198.474L91.6351 198.152C91.6949 198.274 91.782 198.395 91.8963 198.515C92.0106 198.637 92.1643 198.738 92.3575 198.817C92.5534 198.898 92.7997 198.939 93.0963 198.939C93.5153 198.939 93.8622 198.837 94.1371 198.633C94.4119 198.432 94.5493 198.1 94.5493 197.637V196.45H94.4758C94.3996 196.602 94.2881 196.758 94.1411 196.919C93.9969 197.079 93.8051 197.214 93.5656 197.323C93.3289 197.432 93.031 197.486 92.6718 197.486C92.1902 197.486 91.7534 197.373 91.3616 197.147C90.9725 196.919 90.6623 196.579 90.431 196.127C90.2025 195.673 90.0882 195.104 90.0882 194.421C90.0882 193.733 90.2025 193.152 90.431 192.678C90.6623 192.202 90.9739 191.841 91.3657 191.597C91.7575 191.349 92.1942 191.225 92.6759 191.225C93.0432 191.225 93.3452 191.288 93.582 191.413C93.8214 191.535 94.0119 191.684 94.1534 191.858C94.2949 192.029 94.4024 192.191 94.4758 192.344H94.5575V191.307H96.0146V197.678C96.0146 198.214 95.8867 198.658 95.6309 199.009C95.3751 199.36 95.0255 199.622 94.5819 199.796C94.1384 199.971 93.635 200.058 93.0718 200.058ZM93.084 196.327C93.3969 196.327 93.6636 196.251 93.884 196.099C94.1044 195.946 94.2717 195.727 94.386 195.441C94.5003 195.156 94.5575 194.813 94.5575 194.413C94.5575 194.018 94.5003 193.673 94.386 193.376C94.2745 193.08 94.1085 192.85 93.8881 192.686C93.6704 192.52 93.4024 192.437 93.084 192.437C92.7548 192.437 92.48 192.523 92.2595 192.695C92.0391 192.866 91.8732 193.101 91.7616 193.401C91.65 193.697 91.5943 194.035 91.5943 194.413C91.5943 194.797 91.65 195.133 91.7616 195.421C91.8759 195.707 92.0432 195.93 92.2636 196.09C92.4868 196.248 92.7602 196.327 93.084 196.327ZM97.5288 197.576V191.307H98.941V192.372H99.0145C99.1451 192.013 99.3614 191.733 99.6635 191.531C99.9655 191.327 100.326 191.225 100.745 191.225C101.17 191.225 101.527 191.329 101.819 191.535C102.112 191.739 102.319 192.018 102.439 192.372H102.504C102.643 192.024 102.877 191.746 103.206 191.539C103.538 191.33 103.931 191.225 104.386 191.225C104.963 191.225 105.433 191.407 105.798 191.772C106.163 192.137 106.345 192.669 106.345 193.368V197.576H104.863V193.597C104.863 193.207 104.76 192.923 104.553 192.744C104.346 192.561 104.093 192.47 103.794 192.47C103.438 192.47 103.159 192.582 102.957 192.805C102.759 193.025 102.659 193.312 102.659 193.666V197.576H101.21V193.535C101.21 193.212 101.112 192.953 100.916 192.76C100.723 192.567 100.47 192.47 100.157 192.47C99.9451 192.47 99.7519 192.524 99.5777 192.633C99.4036 192.739 99.2648 192.89 99.1614 193.086C99.058 193.28 99.0063 193.505 99.0063 193.764V197.576H97.5288ZM109.648 197.703C109.251 197.703 108.893 197.632 108.574 197.49C108.259 197.346 108.008 197.134 107.823 196.854C107.641 196.573 107.55 196.228 107.55 195.817C107.55 195.463 107.615 195.171 107.746 194.939C107.877 194.708 108.055 194.523 108.281 194.384C108.506 194.246 108.761 194.141 109.044 194.07C109.33 193.997 109.625 193.943 109.93 193.911C110.297 193.873 110.595 193.839 110.823 193.809C111.052 193.776 111.218 193.727 111.321 193.662C111.427 193.594 111.481 193.489 111.481 193.348V193.323C111.481 193.016 111.389 192.778 111.207 192.609C111.025 192.44 110.762 192.356 110.419 192.356C110.057 192.356 109.77 192.435 109.558 192.592C109.349 192.75 109.207 192.937 109.134 193.152L107.754 192.956C107.863 192.575 108.043 192.256 108.293 192.001C108.543 191.742 108.849 191.549 109.211 191.421C109.573 191.29 109.973 191.225 110.411 191.225C110.713 191.225 111.014 191.261 111.313 191.331C111.612 191.402 111.886 191.519 112.134 191.682C112.381 191.843 112.58 192.062 112.729 192.339C112.882 192.617 112.958 192.964 112.958 193.38V197.576H111.538V196.715H111.489C111.399 196.889 111.272 197.052 111.109 197.205C110.949 197.354 110.746 197.475 110.501 197.568C110.259 197.658 109.974 197.703 109.648 197.703ZM110.032 196.617C110.328 196.617 110.585 196.558 110.803 196.441C111.021 196.322 111.188 196.164 111.305 195.968C111.425 195.772 111.485 195.558 111.485 195.327V194.588C111.438 194.626 111.359 194.662 111.248 194.694C111.139 194.727 111.017 194.756 110.881 194.78C110.744 194.805 110.61 194.826 110.476 194.846C110.343 194.865 110.227 194.881 110.13 194.894C109.909 194.924 109.712 194.973 109.538 195.041C109.364 195.109 109.226 195.205 109.125 195.327C109.025 195.447 108.974 195.602 108.974 195.792C108.974 196.065 109.074 196.27 109.272 196.409C109.471 196.548 109.724 196.617 110.032 196.617Z" fill="#4E5D78"/>
<path d="M41.736 170.659V164.178H45.7552V165.02H42.7139V166.995H45.4673V167.833H42.7139V170.659H41.736ZM46.8819 170.659V165.798H47.8282V170.659H46.8819ZM47.3598 165.048C47.1952 165.048 47.0538 164.993 46.9357 164.884C46.8197 164.772 46.7616 164.639 46.7616 164.485C46.7616 164.329 46.8197 164.196 46.9357 164.086C47.0538 163.974 47.1952 163.918 47.3598 163.918C47.5243 163.918 47.6646 163.974 47.7807 164.086C47.8988 164.196 47.9579 164.329 47.9579 164.485C47.9579 164.639 47.8988 164.772 47.7807 164.884C47.6646 164.993 47.5243 165.048 47.3598 165.048ZM51.1393 172.584C50.7532 172.584 50.4209 172.533 50.1424 172.432C49.866 172.33 49.6403 172.196 49.4651 172.03C49.29 171.863 49.1592 171.681 49.0727 171.482L49.886 171.147C49.943 171.24 50.019 171.338 50.1139 171.441C50.211 171.547 50.3418 171.636 50.5063 171.71C50.673 171.784 50.8872 171.821 51.1488 171.821C51.5075 171.821 51.8039 171.733 52.0381 171.558C52.2723 171.385 52.3894 171.109 52.3894 170.729V169.773H52.3292C52.2723 169.877 52.19 169.992 52.0824 170.118C51.9769 170.245 51.8313 170.355 51.6457 170.447C51.46 170.54 51.2184 170.587 50.9209 170.587C50.5369 170.587 50.1909 170.497 49.8829 170.318C49.577 170.136 49.3343 169.869 49.155 169.517C48.9778 169.162 48.8891 168.727 48.8891 168.21C48.8891 167.693 48.9767 167.25 49.1518 166.881C49.329 166.511 49.5717 166.229 49.8797 166.033C50.1878 165.834 50.5369 165.735 50.9273 165.735C51.229 165.735 51.4726 165.786 51.6583 165.887C51.844 165.986 51.9885 166.102 52.0919 166.235C52.1974 166.368 52.2786 166.485 52.3356 166.586H52.4052V165.798H53.3325V170.767C53.3325 171.185 53.2354 171.528 53.0413 171.796C52.8472 172.064 52.5845 172.262 52.2533 172.391C51.9242 172.519 51.5528 172.584 51.1393 172.584ZM51.1298 169.802C51.402 169.802 51.6319 169.738 51.8197 169.612C52.0096 169.483 52.1531 169.3 52.2501 169.061C52.3493 168.821 52.3989 168.533 52.3989 168.197C52.3989 167.87 52.3503 167.582 52.2533 167.333C52.1562 167.084 52.0138 166.89 51.826 166.751C51.6383 166.61 51.4062 166.539 51.1298 166.539C50.845 166.539 50.6076 166.613 50.4177 166.76C50.2278 166.906 50.0844 167.104 49.9873 167.355C49.8924 167.606 49.8449 167.887 49.8449 168.197C49.8449 168.516 49.8934 168.795 49.9905 169.036C50.0875 169.276 50.231 169.464 50.4209 169.599C50.6129 169.734 50.8492 169.802 51.1298 169.802ZM54.6015 170.659V165.798H55.5098V166.59H55.57C55.6712 166.322 55.8369 166.113 56.0668 165.963C56.2968 165.811 56.5721 165.735 56.8928 165.735C57.2177 165.735 57.4899 165.811 57.7093 165.963C57.9309 166.115 58.0944 166.324 58.1999 166.59H58.2505C58.3666 166.33 58.5512 166.123 58.8043 165.969C59.0575 165.813 59.3592 165.735 59.7095 165.735C60.1504 165.735 60.5101 165.873 60.7886 166.15C61.0693 166.426 61.2096 166.843 61.2096 167.4V170.659H60.2633V167.488C60.2633 167.159 60.1736 166.921 59.9943 166.773C59.815 166.625 59.6008 166.552 59.3518 166.552C59.0438 166.552 58.8043 166.647 58.6334 166.836C58.4625 167.024 58.3771 167.266 58.3771 167.561V170.659H57.434V167.428C57.434 167.164 57.3517 166.952 57.1872 166.792C57.0226 166.632 56.8084 166.552 56.5447 166.552C56.3654 166.552 56.1997 166.599 56.0478 166.694C55.898 166.787 55.7767 166.917 55.6839 167.083C55.5932 167.25 55.5478 167.443 55.5478 167.662V170.659H54.6015ZM63.8925 170.767C63.5845 170.767 63.306 170.71 63.057 170.596C62.808 170.48 62.6108 170.312 62.4652 170.093C62.3217 169.874 62.25 169.605 62.25 169.286C62.25 169.012 62.3027 168.786 62.4082 168.609C62.5137 168.431 62.6561 168.291 62.8355 168.188C63.0148 168.084 63.2152 168.006 63.4368 167.954C63.6583 167.901 63.884 167.861 64.114 167.833C64.4052 167.8 64.6415 167.772 64.8229 167.751C65.0044 167.728 65.1362 167.691 65.2185 167.64C65.3008 167.59 65.3419 167.507 65.3419 167.393V167.371C65.3419 167.095 65.2639 166.881 65.1078 166.729C64.9537 166.577 64.7238 166.501 64.4178 166.501C64.0993 166.501 63.8482 166.572 63.6646 166.713C63.4832 166.852 63.3576 167.007 63.288 167.178L62.3987 166.976C62.5042 166.68 62.6582 166.442 62.8608 166.26C63.0654 166.077 63.3007 165.944 63.5665 165.862C63.8324 165.777 64.1119 165.735 64.4052 165.735C64.5993 165.735 64.805 165.758 65.0223 165.805C65.2417 165.849 65.4464 165.931 65.6363 166.052C65.8283 166.172 65.9854 166.344 66.1078 166.567C66.2302 166.789 66.2914 167.077 66.2914 167.431V170.659H65.3673V169.995H65.3293C65.2681 170.117 65.1763 170.237 65.054 170.356C64.9316 170.474 64.7744 170.572 64.5824 170.65C64.3904 170.728 64.1604 170.767 63.8925 170.767ZM64.0982 170.007C64.3598 170.007 64.5835 169.956 64.7691 169.852C64.9569 169.749 65.0993 169.614 65.1964 169.447C65.2955 169.279 65.3451 169.098 65.3451 168.906V168.28C65.3114 168.313 65.246 168.345 65.1489 168.374C65.054 168.402 64.9453 168.426 64.8229 168.447C64.7006 168.466 64.5814 168.484 64.4653 168.501C64.3493 168.516 64.2522 168.528 64.1742 168.539C63.9906 168.562 63.8229 168.601 63.671 168.656C63.5212 168.711 63.4009 168.79 63.3102 168.893C63.2216 168.995 63.1773 169.13 63.1773 169.299C63.1773 169.533 63.2638 169.71 63.4368 169.83C63.6098 169.948 63.8302 170.007 64.0982 170.007Z" fill="#B0B7C3"/>
<path d="M84.1018 208.531C84.0681 208.231 83.9288 207.999 83.6841 207.835C83.4394 207.668 83.1313 207.585 82.76 207.585C82.4941 207.585 82.2642 207.627 82.0701 207.711C81.876 207.794 81.7251 207.907 81.6175 208.053C81.512 208.196 81.4593 208.36 81.4593 208.544C81.4593 208.698 81.4951 208.831 81.5669 208.942C81.6407 209.054 81.7367 209.148 81.8549 209.224C81.9751 209.298 82.1038 209.36 82.241 209.411C82.3781 209.459 82.51 209.499 82.6366 209.531L83.2695 209.696C83.4763 209.746 83.6883 209.815 83.9056 209.901C84.1229 209.988 84.3244 210.102 84.5101 210.243C84.6958 210.384 84.8456 210.56 84.9595 210.768C85.0755 210.977 85.1336 211.227 85.1336 211.518C85.1336 211.886 85.0386 212.212 84.8487 212.496C84.661 212.781 84.3877 213.006 84.0291 213.17C83.6725 213.335 83.241 213.417 82.7347 213.417C82.2494 213.417 81.8295 213.34 81.4751 213.186C81.1206 213.032 80.8432 212.814 80.6428 212.531C80.4423 212.246 80.3316 211.909 80.3105 211.518H81.2915C81.3105 211.753 81.3865 211.948 81.5194 212.104C81.6544 212.258 81.8264 212.373 82.0353 212.449C82.2462 212.523 82.4773 212.56 82.7283 212.56C83.0047 212.56 83.2505 212.516 83.4657 212.43C83.683 212.341 83.8539 212.219 83.9784 212.063C84.1029 211.905 84.1651 211.72 84.1651 211.509C84.1651 211.317 84.1103 211.16 84.0006 211.037C83.893 210.915 83.7463 210.814 83.5607 210.734C83.3771 210.653 83.1693 210.583 82.9372 210.522L82.1713 210.313C81.6523 210.171 81.2409 209.963 80.9371 209.689C80.6354 209.415 80.4845 209.052 80.4845 208.601C80.4845 208.227 80.5858 207.901 80.7883 207.623C80.9909 207.344 81.2652 207.128 81.6112 206.974C81.9572 206.818 82.3475 206.74 82.7821 206.74C83.221 206.74 83.6081 206.817 83.9436 206.971C84.2812 207.125 84.547 207.337 84.7411 207.607C84.9352 207.875 85.0365 208.183 85.0449 208.531H84.1018ZM89.3055 211.294V208.449H90.2549V213.31H89.3245V212.468H89.2739C89.162 212.727 88.9827 212.944 88.7358 213.117C88.4911 213.288 88.1862 213.373 87.8212 213.373C87.509 213.373 87.2326 213.304 86.9921 213.167C86.7537 213.028 86.5659 212.822 86.4287 212.55C86.2937 212.278 86.2262 211.941 86.2262 211.541V208.449H87.1725V211.427C87.1725 211.758 87.2642 212.022 87.4478 212.218C87.6313 212.414 87.8698 212.512 88.163 212.512C88.3403 212.512 88.5164 212.468 88.6915 212.379C88.8688 212.291 89.0154 212.157 89.1314 211.977C89.2496 211.798 89.3076 211.57 89.3055 211.294ZM91.6023 213.31V206.828H92.5486V209.237H92.6056C92.6604 209.135 92.7395 209.018 92.8429 208.885C92.9463 208.752 93.0898 208.636 93.2733 208.537C93.4569 208.436 93.6995 208.385 94.0012 208.385C94.3936 208.385 94.7439 208.484 95.0519 208.683C95.36 208.881 95.6015 209.167 95.7766 209.54C95.9539 209.914 96.0425 210.363 96.0425 210.889C96.0425 211.414 95.9549 211.864 95.7798 212.24C95.6047 212.613 95.3642 212.901 95.0582 213.104C94.7523 213.304 94.4031 213.405 94.0107 213.405C93.7153 213.405 93.4738 213.355 93.286 213.256C93.1003 213.157 92.9547 213.041 92.8492 212.908C92.7438 212.775 92.6625 212.657 92.6056 212.553H92.5264V213.31H91.6023ZM92.5296 210.879C92.5296 211.221 92.5792 211.521 92.6783 211.778C92.7775 212.035 92.921 212.237 93.1088 212.382C93.2965 212.526 93.5265 212.598 93.7987 212.598C94.0814 212.598 94.3177 212.523 94.5076 212.373C94.6975 212.221 94.8409 212.015 94.938 211.756C95.0371 211.496 95.0867 211.204 95.0867 210.879C95.0867 210.558 95.0382 210.27 94.9412 210.015C94.8462 209.76 94.7027 209.558 94.5107 209.411C94.3209 209.263 94.0835 209.189 93.7987 209.189C93.5244 209.189 93.2923 209.26 93.1024 209.401C92.9146 209.543 92.7722 209.74 92.6752 209.993C92.5781 210.246 92.5296 210.542 92.5296 210.879ZM100.748 209.635L99.89 209.787C99.8542 209.678 99.7972 209.573 99.7191 209.474C99.6432 209.375 99.5398 209.294 99.409 209.23C99.2782 209.167 99.1147 209.135 98.9185 209.135C98.6505 209.135 98.4269 209.196 98.2475 209.316C98.0682 209.434 97.9785 209.587 97.9785 209.775C97.9785 209.937 98.0387 210.068 98.1589 210.167C98.2792 210.266 98.4733 210.347 98.7412 210.411L99.5134 210.588C99.9607 210.691 100.294 210.851 100.514 211.066C100.733 211.281 100.843 211.561 100.843 211.905C100.843 212.196 100.758 212.455 100.589 212.683C100.423 212.909 100.19 213.086 99.89 213.215C99.5926 213.343 99.2476 213.408 98.8552 213.408C98.3108 213.408 97.8667 213.292 97.5228 213.06C97.1789 212.825 96.9679 212.493 96.8899 212.063L97.8045 211.924C97.8614 212.162 97.9785 212.342 98.1558 212.465C98.333 212.585 98.564 212.645 98.8488 212.645C99.159 212.645 99.4069 212.581 99.5926 212.452C99.7782 212.321 99.8711 212.162 99.8711 211.974C99.8711 211.822 99.8141 211.695 99.7002 211.591C99.5883 211.488 99.4164 211.41 99.1843 211.357L98.3615 211.177C97.9079 211.073 97.5724 210.909 97.3551 210.683C97.1399 210.457 97.0323 210.171 97.0323 209.825C97.0323 209.538 97.1124 209.287 97.2728 209.072C97.4331 208.857 97.6547 208.689 97.9374 208.569C98.2201 208.447 98.544 208.385 98.909 208.385C99.4343 208.385 99.8478 208.499 100.15 208.727C100.451 208.953 100.651 209.256 100.748 209.635ZM103.931 213.408C103.46 213.408 103.055 213.301 102.715 213.088C102.378 212.873 102.118 212.577 101.937 212.199C101.755 211.821 101.665 211.389 101.665 210.901C101.665 210.408 101.758 209.972 101.943 209.594C102.129 209.214 102.39 208.918 102.728 208.705C103.066 208.492 103.463 208.385 103.921 208.385C104.29 208.385 104.62 208.454 104.909 208.591C105.198 208.726 105.431 208.916 105.608 209.161C105.787 209.405 105.894 209.691 105.928 210.018H105.007C104.956 209.79 104.84 209.594 104.659 209.43C104.479 209.265 104.239 209.183 103.937 209.183C103.673 209.183 103.442 209.252 103.244 209.392C103.048 209.529 102.895 209.725 102.785 209.98C102.675 210.234 102.62 210.533 102.62 210.879C102.62 211.234 102.674 211.54 102.782 211.797C102.889 212.054 103.041 212.254 103.238 212.395C103.436 212.536 103.669 212.607 103.937 212.607C104.116 212.607 104.279 212.574 104.424 212.509C104.572 212.441 104.695 212.345 104.795 212.221C104.896 212.097 104.967 211.947 105.007 211.772H105.928C105.894 212.086 105.792 212.367 105.621 212.613C105.45 212.86 105.221 213.054 104.934 213.196C104.649 213.337 104.315 213.408 103.931 213.408ZM106.94 213.31V208.449H107.854V209.221H107.905C107.993 208.959 108.15 208.753 108.373 208.604C108.599 208.452 108.854 208.376 109.139 208.376C109.198 208.376 109.268 208.378 109.348 208.382C109.43 208.386 109.495 208.392 109.541 208.398V209.303C109.503 209.293 109.435 209.281 109.338 209.268C109.241 209.254 109.144 209.246 109.047 209.246C108.824 209.246 108.624 209.294 108.449 209.389C108.276 209.481 108.139 209.611 108.038 209.778C107.936 209.942 107.886 210.13 107.886 210.341V213.31H106.94ZM110.36 213.31V208.449H111.306V213.31H110.36ZM110.838 207.699C110.673 207.699 110.532 207.644 110.414 207.534C110.298 207.422 110.24 207.289 110.24 207.135C110.24 206.979 110.298 206.846 110.414 206.736C110.532 206.625 110.673 206.569 110.838 206.569C111.002 206.569 111.143 206.625 111.259 206.736C111.377 206.846 111.436 206.979 111.436 207.135C111.436 207.289 111.377 207.422 111.259 207.534C111.143 207.644 111.002 207.699 110.838 207.699ZM112.579 215.133V208.449H113.503V209.237H113.582C113.637 209.135 113.716 209.018 113.82 208.885C113.923 208.752 114.067 208.636 114.25 208.537C114.434 208.436 114.676 208.385 114.978 208.385C115.37 208.385 115.721 208.484 116.029 208.683C116.337 208.881 116.578 209.167 116.753 209.54C116.931 209.914 117.019 210.363 117.019 210.889C117.019 211.414 116.932 211.864 116.757 212.24C116.582 212.613 116.341 212.901 116.035 213.104C115.729 213.304 115.38 213.405 114.988 213.405C114.692 213.405 114.451 213.355 114.263 213.256C114.077 213.157 113.932 213.041 113.826 212.908C113.721 212.775 113.639 212.657 113.582 212.553H113.525V215.133H112.579ZM113.506 210.879C113.506 211.221 113.556 211.521 113.655 211.778C113.754 212.035 113.898 212.237 114.086 212.382C114.273 212.526 114.503 212.598 114.775 212.598C115.058 212.598 115.295 212.523 115.484 212.373C115.674 212.221 115.818 212.015 115.915 211.756C116.014 211.496 116.064 211.204 116.064 210.879C116.064 210.558 116.015 210.27 115.918 210.015C115.823 209.76 115.68 209.558 115.488 209.411C115.298 209.263 115.06 209.189 114.775 209.189C114.501 209.189 114.269 209.26 114.079 209.401C113.891 209.543 113.749 209.74 113.652 209.993C113.555 210.246 113.506 210.542 113.506 210.879ZM120.349 208.449V209.208H117.693V208.449H120.349ZM118.405 207.284H119.352V211.882C119.352 212.066 119.379 212.204 119.434 212.297C119.489 212.388 119.56 212.45 119.646 212.484C119.735 212.515 119.831 212.531 119.934 212.531C120.01 212.531 120.076 212.526 120.133 212.515C120.19 212.505 120.235 212.496 120.266 212.49L120.437 213.272C120.382 213.293 120.304 213.314 120.203 213.335C120.102 213.358 119.975 213.371 119.823 213.373C119.574 213.377 119.342 213.333 119.127 213.24C118.912 213.147 118.738 213.004 118.605 212.81C118.472 212.616 118.405 212.372 118.405 212.079V207.284ZM121.395 213.31V208.449H122.342V213.31H121.395ZM121.873 207.699C121.709 207.699 121.567 207.644 121.449 207.534C121.333 207.422 121.275 207.289 121.275 207.135C121.275 206.979 121.333 206.846 121.449 206.736C121.567 206.625 121.709 206.569 121.873 206.569C122.038 206.569 122.178 206.625 122.294 206.736C122.412 206.846 122.471 206.979 122.471 207.135C122.471 207.289 122.412 207.422 122.294 207.534C122.178 207.644 122.038 207.699 121.873 207.699ZM125.662 213.408C125.207 213.408 124.809 213.303 124.469 213.094C124.129 212.886 123.866 212.593 123.678 212.218C123.49 211.842 123.396 211.403 123.396 210.901C123.396 210.397 123.49 209.956 123.678 209.578C123.866 209.201 124.129 208.908 124.469 208.699C124.809 208.49 125.207 208.385 125.662 208.385C126.118 208.385 126.516 208.49 126.855 208.699C127.195 208.908 127.459 209.201 127.647 209.578C127.834 209.956 127.928 210.397 127.928 210.901C127.928 211.403 127.834 211.842 127.647 212.218C127.459 212.593 127.195 212.886 126.855 213.094C126.516 213.303 126.118 213.408 125.662 213.408ZM125.665 212.613C125.961 212.613 126.206 212.535 126.4 212.379C126.594 212.223 126.737 212.015 126.83 211.756C126.925 211.496 126.972 211.21 126.972 210.898C126.972 210.588 126.925 210.303 126.83 210.044C126.737 209.782 126.594 209.572 126.4 209.414C126.206 209.256 125.961 209.177 125.665 209.177C125.368 209.177 125.121 209.256 124.925 209.414C124.731 209.572 124.586 209.782 124.491 210.044C124.398 210.303 124.352 210.588 124.352 210.898C124.352 211.21 124.398 211.496 124.491 211.756C124.586 212.015 124.731 212.223 124.925 212.379C125.121 212.535 125.368 212.613 125.665 212.613ZM129.931 210.423V213.31H128.984V208.449H129.893V209.24H129.953C130.065 208.982 130.24 208.776 130.478 208.62C130.719 208.463 131.022 208.385 131.387 208.385C131.718 208.385 132.008 208.455 132.257 208.594C132.506 208.731 132.699 208.936 132.836 209.208C132.973 209.48 133.042 209.817 133.042 210.218V213.31H132.095V210.332C132.095 209.979 132.004 209.704 131.82 209.506C131.637 209.305 131.384 209.205 131.064 209.205C130.844 209.205 130.649 209.252 130.478 209.347C130.309 209.442 130.175 209.582 130.076 209.765C129.979 209.947 129.931 210.166 129.931 210.423ZM137.953 209.635L137.096 209.787C137.06 209.678 137.003 209.573 136.925 209.474C136.849 209.375 136.746 209.294 136.615 209.23C136.484 209.167 136.32 209.135 136.124 209.135C135.856 209.135 135.633 209.196 135.453 209.316C135.274 209.434 135.184 209.587 135.184 209.775C135.184 209.937 135.244 210.068 135.365 210.167C135.485 210.266 135.679 210.347 135.947 210.411L136.719 210.588C137.166 210.691 137.5 210.851 137.719 211.066C137.939 211.281 138.048 211.561 138.048 211.905C138.048 212.196 137.964 212.455 137.795 212.683C137.629 212.909 137.395 213.086 137.096 213.215C136.798 213.343 136.453 213.408 136.061 213.408C135.517 213.408 135.072 213.292 134.729 213.06C134.385 212.825 134.174 212.493 134.096 212.063L135.01 211.924C135.067 212.162 135.184 212.342 135.361 212.465C135.539 212.585 135.77 212.645 136.055 212.645C136.365 212.645 136.613 212.581 136.798 212.452C136.984 212.321 137.077 212.162 137.077 211.974C137.077 211.822 137.02 211.695 136.906 211.591C136.794 211.488 136.622 211.41 136.39 211.357L135.567 211.177C135.114 211.073 134.778 210.909 134.561 210.683C134.346 210.457 134.238 210.171 134.238 209.825C134.238 209.538 134.318 209.287 134.479 209.072C134.639 208.857 134.86 208.689 135.143 208.569C135.426 208.447 135.75 208.385 136.115 208.385C136.64 208.385 137.054 208.499 137.355 208.727C137.657 208.953 137.856 209.256 137.953 209.635ZM142.071 212.506C141.898 212.506 141.749 212.445 141.625 212.322C141.5 212.198 141.438 212.048 141.438 211.873C141.438 211.7 141.5 211.552 141.625 211.43C141.749 211.305 141.898 211.243 142.071 211.243C142.244 211.243 142.393 211.305 142.517 211.43C142.641 211.552 142.704 211.7 142.704 211.873C142.704 211.989 142.674 212.095 142.615 212.193C142.558 212.287 142.482 212.363 142.387 212.42C142.292 212.477 142.187 212.506 142.071 212.506ZM142.071 209.259C141.898 209.259 141.749 209.198 141.625 209.075C141.5 208.951 141.438 208.801 141.438 208.626C141.438 208.453 141.5 208.305 141.625 208.183C141.749 208.058 141.898 207.996 142.071 207.996C142.244 207.996 142.393 208.058 142.517 208.183C142.641 208.305 142.704 208.453 142.704 208.626C142.704 208.742 142.674 208.848 142.615 208.945C142.558 209.04 142.482 209.116 142.387 209.173C142.292 209.23 142.187 209.259 142.071 209.259ZM148.776 206.828V213.31H147.795V207.809H147.757L146.206 208.822V207.885L147.824 206.828H148.776ZM152.719 213.398C152.266 213.398 151.865 213.32 151.517 213.164C151.171 213.008 150.9 212.793 150.703 212.519C150.507 212.244 150.41 211.932 150.412 211.582C150.41 211.307 150.466 211.055 150.58 210.825C150.696 210.593 150.853 210.4 151.052 210.246C151.25 210.09 151.471 209.991 151.716 209.949V209.911C151.393 209.833 151.135 209.66 150.941 209.392C150.747 209.124 150.651 208.816 150.653 208.468C150.651 208.136 150.738 207.841 150.915 207.581C151.095 207.32 151.341 207.114 151.653 206.964C151.965 206.815 152.321 206.74 152.719 206.74C153.114 206.74 153.466 206.816 153.776 206.968C154.089 207.117 154.334 207.323 154.514 207.585C154.693 207.844 154.784 208.138 154.786 208.468C154.784 208.816 154.685 209.124 154.488 209.392C154.292 209.66 154.037 209.833 153.723 209.911V209.949C153.965 209.991 154.184 210.09 154.378 210.246C154.574 210.4 154.73 210.593 154.846 210.825C154.964 211.055 155.024 211.307 155.027 211.582C155.024 211.932 154.925 212.244 154.729 212.519C154.533 212.793 154.261 213.008 153.913 213.164C153.566 213.32 153.169 213.398 152.719 213.398ZM152.719 212.598C152.987 212.598 153.219 212.553 153.416 212.465C153.612 212.374 153.764 212.248 153.871 212.088C153.979 211.926 154.034 211.736 154.036 211.518C154.034 211.293 153.975 211.093 153.859 210.92C153.745 210.747 153.59 210.611 153.393 210.512C153.197 210.413 152.973 210.363 152.719 210.363C152.464 210.363 152.237 210.413 152.039 210.512C151.841 210.611 151.685 210.747 151.571 210.92C151.457 211.093 151.401 211.293 151.403 211.518C151.401 211.736 151.452 211.926 151.558 212.088C151.666 212.248 151.818 212.374 152.017 212.465C152.215 212.553 152.449 212.598 152.719 212.598ZM152.719 209.582C152.935 209.582 153.126 209.538 153.292 209.452C153.459 209.365 153.59 209.245 153.685 209.091C153.782 208.937 153.831 208.757 153.833 208.55C153.831 208.347 153.783 208.17 153.688 208.018C153.595 207.866 153.465 207.749 153.299 207.667C153.132 207.583 152.939 207.54 152.719 207.54C152.496 207.54 152.3 207.583 152.131 207.667C151.964 207.749 151.834 207.866 151.741 208.018C151.649 208.17 151.603 208.347 151.605 208.55C151.603 208.757 151.65 208.937 151.745 209.091C151.84 209.245 151.97 209.365 152.137 209.452C152.306 209.538 152.5 209.582 152.719 209.582Z" fill="#4E5D78"/>
<line x1="27.6545" y1="149.337" x2="258.729" y2="149.337" stroke="#E0E0E0" stroke-opacity="0.4" stroke-width="0.636569"/>
<line x1="27.6545" y1="235.91" x2="258.729" y2="235.91" stroke="#E0E0E0" stroke-opacity="0.4" stroke-width="0.636569"/>
<path fill-rule="evenodd" clip-rule="evenodd" d="M202.074 192.801V188.981C202.074 187.575 202.615 186.375 203.697 185.38C204.779 184.386 206.085 183.889 207.615 183.889H243.638C245.168 183.889 246.474 184.386 247.556 185.38C248.639 186.375 249.18 187.575 249.18 188.981V196.62C249.18 198.026 248.639 199.227 247.556 200.221C246.474 201.215 245.168 201.713 243.638 201.713H207.615C206.085 201.713 204.779 201.215 203.697 200.221C202.615 199.227 202.074 198.026 202.074 196.62V192.801Z" fill="#1AD598" fill-opacity="0.248"/>
<path d="M212.247 195.072H211.173L213.129 189.516H214.371L216.33 195.072H215.256L213.772 190.655H213.728L212.247 195.072ZM212.283 192.893H215.212V193.702H212.283V192.893ZM221.556 191.39H220.541C220.512 191.224 220.459 191.077 220.381 190.948C220.303 190.818 220.207 190.708 220.091 190.617C219.975 190.527 219.843 190.459 219.695 190.414C219.548 190.367 219.39 190.343 219.22 190.343C218.918 190.343 218.651 190.419 218.417 190.571C218.184 190.721 218.001 190.942 217.869 191.233C217.737 191.522 217.671 191.876 217.671 192.294C217.671 192.719 217.737 193.077 217.869 193.368C218.003 193.657 218.186 193.876 218.417 194.024C218.651 194.171 218.917 194.244 219.218 194.244C219.384 194.244 219.539 194.222 219.684 194.179C219.831 194.134 219.962 194.068 220.077 193.981C220.195 193.894 220.294 193.788 220.373 193.661C220.454 193.534 220.511 193.39 220.541 193.227L221.556 193.232C221.518 193.496 221.436 193.744 221.309 193.976C221.184 194.207 221.021 194.411 220.818 194.589C220.615 194.764 220.379 194.902 220.107 195.001C219.836 195.099 219.535 195.147 219.204 195.147C218.716 195.147 218.28 195.034 217.896 194.808C217.513 194.582 217.211 194.256 216.99 193.829C216.77 193.402 216.659 192.891 216.659 192.294C216.659 191.695 216.771 191.183 216.993 190.758C217.216 190.332 217.518 190.005 217.902 189.779C218.285 189.553 218.719 189.44 219.204 189.44C219.513 189.44 219.801 189.483 220.067 189.57C220.332 189.657 220.569 189.785 220.777 189.953C220.985 190.119 221.156 190.323 221.29 190.566C221.426 190.806 221.514 191.081 221.556 191.39ZM222.233 190.36V189.516H226.666V190.36H224.949V195.072H223.95V190.36H222.233ZM228.527 189.516V195.072H227.52V189.516H228.527ZM230.36 189.516L231.806 193.889H231.863L233.306 189.516H234.412L232.454 195.072H231.211L229.256 189.516H230.36ZM235.144 195.072V189.516H238.757V190.36H236.151V191.868H238.57V192.712H236.151V194.228H238.779V195.072H235.144Z" fill="#00B41D"/>
<g clip-path="url(#clip0_1_898)">
<path d="M44.6943 181.967H65.6613C66.4165 181.966 67.1644 182.112 67.8622 182.396C68.56 182.681 69.1941 183.098 69.7281 183.624C70.2621 184.151 70.6855 184.775 70.9742 185.463C71.2628 186.151 71.411 186.888 71.4103 187.632V207.493C71.411 208.238 71.2628 208.975 70.9742 209.662C70.6855 210.35 70.2621 210.975 69.7281 211.501C69.1941 212.027 68.56 212.444 67.8622 212.729C67.1644 213.013 66.4165 213.159 65.6613 213.159H44.6943C43.9392 213.159 43.1913 213.013 42.4934 212.729C41.7956 212.444 41.1616 212.027 40.6276 211.501C40.0936 210.975 39.6701 210.35 39.3815 209.662C39.0928 208.975 38.9446 208.238 38.9453 207.493V187.632C38.9446 186.888 39.0928 186.151 39.3815 185.463C39.6701 184.775 40.0936 184.151 40.6276 183.624C41.1616 183.098 41.7956 182.681 42.4934 182.396C43.1913 182.112 43.9392 181.966 44.6943 181.967Z" fill="#000B1D"/>
<path d="M51.7961 207.56C53.6638 207.56 55.1779 206.068 55.1779 204.228V200.895H51.7961C49.9284 200.895 48.4143 202.387 48.4143 204.228C48.4143 206.068 49.9284 207.56 51.7961 207.56Z" fill="#0ACF83"/>
<path d="M48.4143 197.563C48.4143 195.722 49.9284 194.23 51.7961 194.23H55.1779V200.895H51.7961C49.9284 200.895 48.4143 199.403 48.4143 197.563Z" fill="#A259FF"/>
<path d="M48.4143 190.898C48.4143 189.057 49.9284 187.565 51.7961 187.565H55.1779V194.23H51.7961C49.9284 194.23 48.4143 192.738 48.4143 190.898Z" fill="#F24E1E"/>
<path d="M55.1777 187.565H58.5595C60.4272 187.565 61.9413 189.057 61.9413 190.898C61.9413 192.738 60.4272 194.23 58.5595 194.23H55.1777V187.565Z" fill="#FF7262"/>
<path d="M61.9413 197.563C61.9413 199.403 60.4272 200.895 58.5595 200.895C56.6918 200.895 55.1777 199.403 55.1777 197.563C55.1777 195.722 56.6918 194.23 58.5595 194.23C60.4272 194.23 61.9413 195.722 61.9413 197.563Z" fill="#1ABCFE"/>
</g>
<path d="M49.2065 26.9525H47.4452C47.3949 26.6637 47.3023 26.4078 47.1673 26.1849C47.0323 25.9588 46.8643 25.7673 46.6634 25.6103C46.4625 25.4533 46.2333 25.3356 45.9758 25.2571C45.7215 25.1755 45.4468 25.1347 45.1517 25.1347C44.6273 25.1347 44.1627 25.2665 43.7577 25.5303C43.3527 25.7908 43.0355 26.1739 42.8064 26.6794C42.5772 27.1817 42.4626 27.7955 42.4626 28.5208C42.4626 29.2586 42.5772 29.8802 42.8064 30.3857C43.0387 30.8881 43.3558 31.268 43.7577 31.5254C44.1627 31.7797 44.6258 31.9069 45.147 31.9069C45.4358 31.9069 45.7058 31.8692 45.957 31.7938C46.2113 31.7154 46.4389 31.6008 46.6399 31.4501C46.8439 31.2994 47.015 31.1141 47.1532 30.8943C47.2945 30.6746 47.3918 30.4234 47.4452 30.1408L49.2065 30.1502C49.1406 30.6086 48.9977 31.0388 48.778 31.4406C48.5613 31.8425 48.2772 32.1973 47.9255 32.505C47.5739 32.8095 47.1626 33.0481 46.6917 33.2208C46.2207 33.3904 45.698 33.4751 45.1234 33.4751C44.2757 33.4751 43.5191 33.2789 42.8534 32.8864C42.1878 32.494 41.6635 31.9273 41.2805 31.1863C40.8974 30.4454 40.7059 29.5569 40.7059 28.5208C40.7059 27.4815 40.899 26.593 41.2852 25.8552C41.6714 25.1143 42.1973 24.5475 42.8629 24.1551C43.5285 23.7626 44.282 23.5664 45.1234 23.5664C45.6603 23.5664 46.1595 23.6418 46.621 23.7925C47.0825 23.9432 47.4938 24.1645 47.8549 24.4565C48.216 24.7453 48.5127 25.1001 48.745 25.5208C48.9805 25.9384 49.1343 26.4156 49.2065 26.9525ZM53.8865 33.4845C53.1801 33.4845 52.5679 33.3291 52.0499 33.0183C51.5318 32.7075 51.1299 32.2726 50.8442 31.7138C50.5617 31.1549 50.4204 30.5019 50.4204 29.7546C50.4204 29.0074 50.5617 28.3528 50.8442 27.7908C51.1299 27.2288 51.5318 26.7924 52.0499 26.4816C52.5679 26.1707 53.1801 26.0153 53.8865 26.0153C54.593 26.0153 55.2052 26.1707 55.7232 26.4816C56.2413 26.7924 56.6416 27.2288 56.9242 27.7908C57.2099 28.3528 57.3527 29.0074 57.3527 29.7546C57.3527 30.5019 57.2099 31.1549 56.9242 31.7138C56.6416 32.2726 56.2413 32.7075 55.7232 33.0183C55.2052 33.3291 54.593 33.4845 53.8865 33.4845ZM53.896 32.1188C54.279 32.1188 54.5992 32.0136 54.8567 31.8033C55.1141 31.5898 55.3057 31.3041 55.4313 30.9461C55.56 30.5882 55.6243 30.1895 55.6243 29.7499C55.6243 29.3072 55.56 28.9069 55.4313 28.549C55.3057 28.188 55.1141 27.9007 54.8567 27.6872C54.5992 27.4737 54.279 27.3669 53.896 27.3669C53.5035 27.3669 53.177 27.4737 52.9164 27.6872C52.6589 27.9007 52.4659 28.188 52.3371 28.549C52.2115 28.9069 52.1488 29.3072 52.1488 29.7499C52.1488 30.1895 52.2115 30.5882 52.3371 30.9461C52.4659 31.3041 52.6589 31.5898 52.9164 31.8033C53.177 32.0136 53.5035 32.1188 53.896 32.1188ZM60.5045 29.1047V33.3433H58.7997V26.1095H60.4292V27.3387H60.5139C60.6803 26.9337 60.9456 26.6119 61.3098 26.3733C61.6772 26.1346 62.1309 26.0153 62.6709 26.0153C63.1701 26.0153 63.6049 26.1221 63.9754 26.3356C64.349 26.5491 64.6379 26.8583 64.8419 27.2633C65.0492 27.6684 65.1512 28.1597 65.1481 28.7374V33.3433H63.4432V29.0011C63.4432 28.5176 63.3176 28.1393 63.0665 27.8662C62.8184 27.593 62.4747 27.4564 62.0351 27.4564C61.7368 27.4564 61.4715 27.5224 61.2392 27.6542C61.01 27.783 60.8295 27.9698 60.6976 28.2147C60.5689 28.4595 60.5045 28.7562 60.5045 29.1047ZM70.5451 26.1095V27.4282H66.2689V26.1095H70.5451ZM67.338 33.3433V25.4266C67.338 24.94 67.4384 24.535 67.6394 24.2116C67.8434 23.8882 68.1166 23.6465 68.4588 23.4863C68.801 23.3262 69.1809 23.2462 69.5985 23.2462C69.8936 23.2462 70.1558 23.2697 70.385 23.3168C70.6142 23.3639 70.7837 23.4063 70.8936 23.444L70.5545 24.7626C70.4823 24.7406 70.3913 24.7187 70.2814 24.6967C70.1715 24.6716 70.049 24.659 69.914 24.659C69.5969 24.659 69.3724 24.7359 69.2406 24.8898C69.1119 25.0405 69.0475 25.2571 69.0475 25.5397V33.3433H67.338ZM71.8802 33.3433V26.1095H73.5851V33.3433H71.8802ZM72.7374 25.0829C72.4674 25.0829 72.235 24.9934 72.0404 24.8144C71.8457 24.6323 71.7484 24.4141 71.7484 24.1598C71.7484 23.9024 71.8457 23.6841 72.0404 23.5052C72.235 23.3231 72.4674 23.232 72.7374 23.232C73.0105 23.232 73.2428 23.3231 73.4344 23.5052C73.629 23.6841 73.7263 23.9024 73.7263 24.1598C73.7263 24.4141 73.629 24.6323 73.4344 24.8144C73.2428 24.9934 73.0105 25.0829 72.7374 25.0829ZM75.3382 33.3433V26.1095H76.9912V27.3151H77.0665C77.1984 26.8976 77.4245 26.5758 77.7447 26.3497C78.0681 26.1205 78.437 26.0059 78.8514 26.0059C78.9456 26.0059 79.0508 26.0106 79.167 26.02C79.2863 26.0263 79.3852 26.0373 79.4637 26.053V27.6213C79.3914 27.5961 79.2768 27.5742 79.1199 27.5553C78.966 27.5334 78.8169 27.5224 78.6725 27.5224C78.3616 27.5224 78.0822 27.5899 77.8342 27.7249C77.5893 27.8567 77.3962 28.0404 77.2549 28.2759C77.1136 28.5113 77.043 28.7829 77.043 29.0906V33.3433H75.3382ZM80.5963 33.3433V26.1095H82.2258V27.3387H82.3105C82.4612 26.9243 82.7108 26.6009 83.0593 26.3685C83.4078 26.1331 83.8238 26.0153 84.3073 26.0153C84.7971 26.0153 85.21 26.1346 85.5459 26.3733C85.885 26.6087 86.1236 26.9305 86.2618 27.3387H86.3371C86.4972 26.9368 86.7673 26.6166 87.1471 26.378C87.5302 26.1362 87.9839 26.0153 88.5082 26.0153C89.1738 26.0153 89.7169 26.2257 90.1377 26.6464C90.5584 27.0671 90.7687 27.6809 90.7687 28.4878V33.3433H89.0592V28.7515C89.0592 28.3026 88.9399 27.9745 88.7013 27.7673C88.4627 27.5569 88.1707 27.4517 87.8253 27.4517C87.414 27.4517 87.0922 27.5804 86.8599 27.8379C86.6307 28.0922 86.5161 28.4234 86.5161 28.8316V33.3433H84.8442V28.6809C84.8442 28.3073 84.7312 28.009 84.5051 27.7861C84.2822 27.5632 83.9902 27.4517 83.6292 27.4517C83.3843 27.4517 83.1614 27.5145 82.9604 27.6401C82.7595 27.7625 82.5994 27.9368 82.4801 28.1628C82.3608 28.3858 82.3011 28.6464 82.3011 28.9446V33.3433H80.5963ZM96.8475 36.0559C96.6151 36.0559 96.4001 36.0371 96.2023 35.9994C96.0076 35.9649 95.8522 35.924 95.736 35.877L96.1316 34.5489C96.3797 34.6211 96.601 34.6556 96.7957 34.6525C96.9903 34.6494 97.1614 34.5881 97.309 34.4688C97.4597 34.3527 97.5869 34.158 97.6905 33.8849L97.8365 33.494L95.2133 26.1095H97.0217L98.6889 31.5725H98.7642L100.436 26.1095H102.249L99.3529 34.2192C99.2179 34.6023 99.0389 34.9304 98.816 35.2035C98.5931 35.4798 98.32 35.6901 97.9966 35.8346C97.6763 35.9821 97.2933 36.0559 96.8475 36.0559ZM106.338 33.4845C105.632 33.4845 105.02 33.3291 104.502 33.0183C103.983 32.7075 103.582 32.2726 103.296 31.7138C103.013 31.1549 102.872 30.5019 102.872 29.7546C102.872 29.0074 103.013 28.3528 103.296 27.7908C103.582 27.2288 103.983 26.7924 104.502 26.4816C105.02 26.1707 105.632 26.0153 106.338 26.0153C107.045 26.0153 107.657 26.1707 108.175 26.4816C108.693 26.7924 109.093 27.2288 109.376 27.7908C109.662 28.3528 109.804 29.0074 109.804 29.7546C109.804 30.5019 109.662 31.1549 109.376 31.7138C109.093 32.2726 108.693 32.7075 108.175 33.0183C107.657 33.3291 107.045 33.4845 106.338 33.4845ZM106.348 32.1188C106.731 32.1188 107.051 32.0136 107.308 31.8033C107.566 31.5898 107.757 31.3041 107.883 30.9461C108.012 30.5882 108.076 30.1895 108.076 29.7499C108.076 29.3072 108.012 28.9069 107.883 28.549C107.757 28.188 107.566 27.9007 107.308 27.6872C107.051 27.4737 106.731 27.3669 106.348 27.3669C105.955 27.3669 105.629 27.4737 105.368 27.6872C105.111 27.9007 104.918 28.188 104.789 28.549C104.663 28.9069 104.6 29.3072 104.6 29.7499C104.6 30.1895 104.663 30.5882 104.789 30.9461C104.918 31.3041 105.111 31.5898 105.368 31.8033C105.629 32.0136 105.955 32.1188 106.348 32.1188ZM115.862 30.3009V26.1095H117.567V33.3433H115.914V32.0576H115.838C115.675 32.4626 115.407 32.7938 115.033 33.0513C114.663 33.3087 114.206 33.4375 113.663 33.4375C113.189 33.4375 112.769 33.3323 112.405 33.1219C112.044 32.9084 111.762 32.5992 111.557 32.1942C111.353 31.786 111.251 31.2931 111.251 30.7154V26.1095H112.956V30.4516C112.956 30.91 113.082 31.2742 113.333 31.5442C113.584 31.8143 113.914 31.9493 114.322 31.9493C114.573 31.9493 114.816 31.888 115.052 31.7656C115.287 31.6431 115.48 31.461 115.631 31.2193C115.785 30.9744 115.862 30.6683 115.862 30.3009ZM119.32 33.3433V26.1095H120.973V27.3151H121.048C121.18 26.8976 121.406 26.5758 121.726 26.3497C122.05 26.1205 122.419 26.0059 122.833 26.0059C122.927 26.0059 123.032 26.0106 123.149 26.02C123.268 26.0263 123.367 26.0373 123.445 26.053V27.6213C123.373 27.5961 123.259 27.5742 123.102 27.5553C122.948 27.5334 122.799 27.5224 122.654 27.5224C122.343 27.5224 122.064 27.5899 121.816 27.7249C121.571 27.8567 121.378 28.0404 121.237 28.2759C121.095 28.5113 121.025 28.7829 121.025 29.0906V33.3433H119.32ZM127.943 33.3433V23.6983H131.56C132.301 23.6983 132.922 23.8364 133.425 24.1127C133.93 24.389 134.312 24.7689 134.569 25.2524C134.83 25.7328 134.96 26.2791 134.96 26.8913C134.96 27.5098 134.83 28.0592 134.569 28.5396C134.309 29.02 133.924 29.3983 133.415 29.6746C132.907 29.9477 132.28 30.0843 131.536 30.0843H129.139V28.6479H131.301C131.734 28.6479 132.089 28.5726 132.365 28.4219C132.641 28.2712 132.845 28.064 132.977 27.8002C133.112 27.5365 133.18 27.2335 133.18 26.8913C133.18 26.5491 133.112 26.2477 132.977 25.9871C132.845 25.7265 132.64 25.524 132.36 25.3796C132.084 25.232 131.728 25.1582 131.291 25.1582H129.69V33.3433H127.943ZM141.013 30.3009V26.1095H142.718V33.3433H141.065V32.0576H140.989C140.826 32.4626 140.558 32.7938 140.184 33.0513C139.813 33.3087 139.357 33.4375 138.814 33.4375C138.339 33.4375 137.92 33.3323 137.556 33.1219C137.195 32.9084 136.912 32.5992 136.708 32.1942C136.504 31.786 136.402 31.2931 136.402 30.7154V26.1095H138.107V30.4516C138.107 30.91 138.233 31.2742 138.484 31.5442C138.735 31.8143 139.065 31.9493 139.473 31.9493C139.724 31.9493 139.967 31.888 140.203 31.7656C140.438 31.6431 140.631 31.461 140.782 31.2193C140.936 30.9744 141.013 30.6683 141.013 30.3009ZM144.471 33.3433V26.1095H146.124V27.3151H146.199C146.331 26.8976 146.557 26.5758 146.877 26.3497C147.201 26.1205 147.57 26.0059 147.984 26.0059C148.078 26.0059 148.183 26.0106 148.3 26.02C148.419 26.0263 148.518 26.0373 148.596 26.053V27.6213C148.524 27.5961 148.409 27.5742 148.252 27.5553C148.099 27.5334 147.949 27.5224 147.805 27.5224C147.494 27.5224 147.215 27.5899 146.967 27.7249C146.722 27.8567 146.529 28.0404 146.388 28.2759C146.246 28.5113 146.176 28.7829 146.176 29.0906V33.3433H144.471ZM152.586 33.4845C151.864 33.4845 151.244 33.326 150.726 33.0089C150.211 32.6918 149.814 32.2538 149.535 31.6949C149.258 31.133 149.12 30.4862 149.12 29.7546C149.12 29.02 149.261 28.3716 149.544 27.8096C149.827 27.2445 150.225 26.805 150.74 26.491C151.258 26.1739 151.871 26.0153 152.577 26.0153C153.164 26.0153 153.684 26.1237 154.136 26.3403C154.591 26.5538 154.954 26.8568 155.224 27.2492C155.494 27.6385 155.648 28.0938 155.685 28.615H154.056C153.99 28.2665 153.833 27.976 153.585 27.7437C153.34 27.5082 153.012 27.3905 152.6 27.3905C152.252 27.3905 151.946 27.4847 151.682 27.6731C151.418 27.8583 151.213 28.1252 151.065 28.4737C150.921 28.8222 150.849 29.2397 150.849 29.7264C150.849 30.2193 150.921 30.6432 151.065 30.9979C151.21 31.3496 151.412 31.6212 151.673 31.8127C151.936 32.0011 152.246 32.0953 152.6 32.0953C152.852 32.0953 153.076 32.0482 153.274 31.954C153.475 31.8566 153.643 31.7169 153.778 31.5348C153.913 31.3527 154.005 31.1314 154.056 30.8708H155.685C155.644 31.3826 155.494 31.8362 155.233 32.2318C154.972 32.6243 154.618 32.932 154.169 33.1549C153.72 33.3747 153.192 33.4845 152.586 33.4845ZM158.79 29.1047V33.3433H157.085V23.6983H158.752V27.3387H158.837C159.007 26.9305 159.269 26.6087 159.623 26.3733C159.981 26.1346 160.437 26.0153 160.989 26.0153C161.492 26.0153 161.93 26.1205 162.303 26.3309C162.677 26.5412 162.966 26.8489 163.17 27.2539C163.377 27.6589 163.481 28.1534 163.481 28.7374V33.3433H161.776V29.0011C161.776 28.5145 161.65 28.1362 161.399 27.8662C161.151 27.593 160.802 27.4564 160.353 27.4564C160.052 27.4564 159.782 27.5224 159.543 27.6542C159.308 27.783 159.123 27.9698 158.988 28.2147C158.856 28.4595 158.79 28.7562 158.79 29.1047ZM167.3 33.4893C166.842 33.4893 166.429 33.4076 166.061 33.2444C165.697 33.078 165.408 32.8331 165.195 32.5097C164.984 32.1863 164.879 31.7876 164.879 31.3135C164.879 30.9053 164.955 30.5678 165.105 30.3009C165.256 30.0341 165.462 29.8206 165.722 29.6605C165.983 29.5003 166.276 29.3795 166.603 29.2978C166.933 29.2131 167.273 29.1518 167.625 29.1142C168.049 29.0702 168.392 29.031 168.656 28.9964C168.92 28.9587 169.111 28.9022 169.231 28.8269C169.353 28.7484 169.414 28.6275 169.414 28.4643V28.436C169.414 28.0812 169.309 27.8065 169.099 27.6118C168.889 27.4172 168.586 27.3199 168.19 27.3199C167.772 27.3199 167.441 27.4109 167.196 27.593C166.955 27.7751 166.791 27.9902 166.707 28.2382L165.115 28.0121C165.24 27.5726 165.448 27.2053 165.736 26.9101C166.025 26.6119 166.378 26.389 166.796 26.2414C167.214 26.0907 167.675 26.0153 168.181 26.0153C168.529 26.0153 168.876 26.0561 169.221 26.1378C169.567 26.2194 169.882 26.3544 170.168 26.5428C170.454 26.728 170.683 26.9808 170.856 27.301C171.031 27.6213 171.119 28.0216 171.119 28.5019V33.3433H169.48V32.3496H169.424C169.32 32.5505 169.174 32.7389 168.986 32.9147C168.801 33.0874 168.567 33.2271 168.284 33.3338C168.005 33.4375 167.677 33.4893 167.3 33.4893ZM167.743 32.2365C168.085 32.2365 168.382 32.169 168.633 32.034C168.884 31.8959 169.077 31.7138 169.212 31.4877C169.35 31.2617 169.419 31.0152 169.419 30.7483V29.8959C169.366 29.9399 169.275 29.9807 169.146 30.0184C169.02 30.0561 168.879 30.089 168.722 30.1173C168.565 30.1455 168.41 30.1707 168.256 30.1926C168.102 30.2146 167.969 30.2334 167.856 30.2491C167.601 30.2837 167.374 30.3402 167.173 30.4187C166.972 30.4972 166.813 30.6071 166.697 30.7483C166.581 30.8865 166.523 31.0655 166.523 31.2852C166.523 31.5992 166.637 31.8362 166.867 31.9964C167.096 32.1565 167.388 32.2365 167.743 32.2365ZM178.551 28.0216L176.997 28.1911C176.953 28.0341 176.876 27.8866 176.766 27.7484C176.659 27.6103 176.515 27.4988 176.333 27.414C176.151 27.3293 175.928 27.2869 175.664 27.2869C175.309 27.2869 175.011 27.3638 174.769 27.5177C174.531 27.6715 174.413 27.8709 174.416 28.1158C174.413 28.3261 174.49 28.4972 174.647 28.6291C174.807 28.761 175.071 28.8693 175.438 28.954L176.672 29.2178C177.356 29.3653 177.865 29.5992 178.198 29.9195C178.534 30.2397 178.703 30.6589 178.706 31.1769C178.703 31.6322 178.57 32.034 178.306 32.3825C178.045 32.7279 177.683 32.9979 177.218 33.1926C176.753 33.3872 176.22 33.4845 175.617 33.4845C174.731 33.4845 174.019 33.2993 173.479 32.9288C172.939 32.5552 172.617 32.0356 172.513 31.37L174.176 31.2099C174.251 31.5364 174.411 31.7829 174.656 31.9493C174.901 32.1157 175.22 32.1989 175.612 32.1989C176.017 32.1989 176.342 32.1157 176.587 31.9493C176.835 31.7829 176.959 31.5772 176.959 31.3323C176.959 31.1251 176.879 30.954 176.719 30.819C176.562 30.684 176.317 30.5804 175.984 30.5082L174.75 30.2491C174.056 30.1047 173.543 29.8614 173.21 29.5192C172.877 29.1738 172.713 28.7374 172.716 28.2099C172.713 27.7641 172.834 27.3779 173.078 27.0514C173.326 26.7218 173.67 26.4674 174.11 26.2885C174.552 26.1064 175.063 26.0153 175.64 26.0153C176.488 26.0153 177.155 26.1959 177.642 26.5569C178.132 26.918 178.435 27.4062 178.551 28.0216ZM183.314 33.4845C182.589 33.4845 181.963 33.3338 181.435 33.0324C180.911 32.7279 180.508 32.2978 180.225 31.742C179.942 31.1832 179.801 30.5254 179.801 29.7688C179.801 29.0247 179.942 28.3716 180.225 27.8096C180.511 27.2445 180.909 26.805 181.421 26.491C181.933 26.1739 182.534 26.0153 183.225 26.0153C183.671 26.0153 184.091 26.0875 184.487 26.232C184.886 26.3733 185.237 26.593 185.542 26.8913C185.85 27.1896 186.091 27.5695 186.267 28.031C186.443 28.4894 186.531 29.0357 186.531 29.6699V30.1926H180.602V29.0435H184.897C184.894 28.717 184.823 28.4266 184.685 28.1723C184.547 27.9148 184.354 27.7123 184.106 27.5647C183.861 27.4172 183.575 27.3434 183.249 27.3434C182.9 27.3434 182.594 27.4282 182.33 27.5977C182.066 27.7641 181.861 27.9839 181.713 28.257C181.569 28.527 181.495 28.8237 181.492 29.1471V30.1502C181.492 30.571 181.569 30.932 181.723 31.2334C181.876 31.5317 182.092 31.7609 182.368 31.921C182.644 32.078 182.968 32.1565 183.338 32.1565C183.586 32.1565 183.81 32.1219 184.011 32.0529C184.212 31.9807 184.387 31.8755 184.534 31.7373C184.682 31.5992 184.793 31.4281 184.869 31.224L186.46 31.403C186.36 31.8237 186.168 32.191 185.886 32.505C185.606 32.8158 185.248 33.0576 184.812 33.2302C184.376 33.3998 183.876 33.4845 183.314 33.4845Z" fill="#323B4B"/>
<path d="M36.5837 49.749H261.009" stroke="#F3F3F3" stroke-width="1.07463" stroke-linecap="round"/>
<g filter="url(#filter0_d_1_898)">
<rect x="225.907" y="80.597" width="219.223" height="60.1791" rx="14.9973" fill="#5B2EBC"/>
<path d="M272.393 116.687V104.182H280.233V105.806H274.28V109.616H279.824V111.234H274.28V115.062H280.306V116.687H272.393ZM284.432 111.118V116.687H282.606V107.308H284.359V108.835H284.475C284.69 108.338 285.028 107.939 285.488 107.638C285.952 107.337 286.536 107.186 287.241 107.186C287.88 107.186 288.439 107.32 288.92 107.589C289.4 107.854 289.773 108.248 290.037 108.773C290.302 109.299 290.434 109.948 290.434 110.721V116.687H288.608V110.941C288.608 110.261 288.431 109.73 288.077 109.347C287.723 108.961 287.237 108.767 286.618 108.767C286.195 108.767 285.818 108.859 285.488 109.042C285.163 109.225 284.904 109.494 284.713 109.848C284.526 110.198 284.432 110.622 284.432 111.118ZM295.612 116.894C295.017 116.894 294.48 116.784 294 116.565C293.52 116.341 293.139 116.017 292.858 115.594C292.581 115.17 292.443 114.651 292.443 114.037C292.443 113.508 292.545 113.072 292.748 112.73C292.952 112.388 293.226 112.117 293.572 111.918C293.918 111.719 294.305 111.568 294.733 111.466C295.16 111.364 295.596 111.287 296.039 111.234C296.601 111.169 297.057 111.116 297.407 111.075C297.757 111.031 298.011 110.959 298.17 110.862C298.329 110.764 298.408 110.605 298.408 110.385V110.343C298.408 109.809 298.258 109.396 297.956 109.103C297.659 108.81 297.216 108.664 296.625 108.664C296.011 108.664 295.526 108.8 295.172 109.073C294.822 109.341 294.58 109.641 294.446 109.97L292.73 109.579C292.933 109.01 293.231 108.55 293.621 108.2C294.016 107.845 294.47 107.589 294.983 107.43C295.496 107.267 296.035 107.186 296.601 107.186C296.975 107.186 297.372 107.231 297.792 107.32C298.215 107.406 298.61 107.565 298.976 107.797C299.347 108.029 299.65 108.36 299.886 108.792C300.122 109.219 300.24 109.775 300.24 110.459V116.687H298.457V115.404H298.384C298.266 115.641 298.089 115.873 297.853 116.1C297.617 116.328 297.313 116.518 296.943 116.668C296.572 116.819 296.129 116.894 295.612 116.894ZM296.009 115.429C296.513 115.429 296.945 115.329 297.303 115.13C297.665 114.93 297.94 114.67 298.127 114.348C298.319 114.022 298.414 113.674 298.414 113.304V112.095C298.349 112.16 298.223 112.221 298.036 112.278C297.853 112.331 297.643 112.378 297.407 112.419C297.171 112.455 296.941 112.49 296.717 112.522C296.493 112.551 296.306 112.575 296.155 112.596C295.801 112.641 295.477 112.716 295.184 112.822C294.895 112.927 294.663 113.08 294.488 113.28C294.317 113.475 294.232 113.735 294.232 114.061C294.232 114.513 294.399 114.855 294.733 115.087C295.066 115.315 295.492 115.429 296.009 115.429ZM302.818 116.687V104.182H304.644V108.828H304.754C304.86 108.633 305.012 108.407 305.212 108.151C305.411 107.894 305.688 107.67 306.042 107.479C306.396 107.284 306.864 107.186 307.446 107.186C308.204 107.186 308.879 107.377 309.474 107.76C310.068 108.143 310.534 108.694 310.872 109.415C311.214 110.135 311.385 111.002 311.385 112.016C311.385 113.029 311.216 113.898 310.878 114.623C310.54 115.343 310.076 115.899 309.486 116.29C308.896 116.676 308.222 116.87 307.465 116.87C306.895 116.87 306.429 116.774 306.066 116.583C305.708 116.392 305.427 116.168 305.224 115.911C305.02 115.655 304.864 115.427 304.754 115.227H304.601V116.687H302.818ZM304.607 111.997C304.607 112.657 304.703 113.235 304.894 113.731C305.085 114.228 305.362 114.617 305.725 114.898C306.087 115.174 306.531 115.313 307.056 115.313C307.601 115.313 308.057 115.168 308.423 114.879C308.79 114.586 309.066 114.189 309.254 113.689C309.445 113.188 309.541 112.624 309.541 111.997C309.541 111.379 309.447 110.823 309.26 110.33C309.077 109.838 308.8 109.449 308.429 109.164C308.063 108.879 307.605 108.737 307.056 108.737C306.526 108.737 306.079 108.873 305.712 109.146C305.35 109.419 305.075 109.799 304.888 110.288C304.701 110.776 304.607 111.346 304.607 111.997ZM315.26 104.182V116.687H313.435V104.182H315.26ZM321.758 116.876C320.834 116.876 320.039 116.679 319.371 116.284C318.708 115.885 318.195 115.325 317.832 114.605C317.474 113.88 317.295 113.031 317.295 112.058C317.295 111.098 317.474 110.251 317.832 109.518C318.195 108.786 318.699 108.214 319.347 107.803C319.998 107.392 320.759 107.186 321.63 107.186C322.159 107.186 322.672 107.273 323.169 107.449C323.666 107.624 324.111 107.898 324.506 108.273C324.901 108.647 325.212 109.134 325.44 109.732C325.668 110.326 325.782 111.049 325.782 111.9V112.547H318.327V111.179H323.993C323.993 110.699 323.896 110.273 323.7 109.903C323.505 109.529 323.23 109.233 322.876 109.018C322.526 108.802 322.115 108.694 321.642 108.694C321.13 108.694 320.682 108.82 320.299 109.073C319.921 109.321 319.628 109.647 319.42 110.05C319.216 110.449 319.115 110.882 319.115 111.35V112.419C319.115 113.046 319.225 113.579 319.444 114.018C319.668 114.458 319.98 114.794 320.379 115.026C320.777 115.254 321.244 115.368 321.777 115.368C322.123 115.368 322.438 115.319 322.723 115.221C323.008 115.119 323.254 114.969 323.462 114.769C323.67 114.57 323.828 114.324 323.938 114.031L325.666 114.342C325.528 114.851 325.279 115.297 324.921 115.679C324.567 116.058 324.121 116.353 323.584 116.565C323.051 116.772 322.442 116.876 321.758 116.876ZM333.561 116.687H331.558L336.058 104.182H338.238L342.738 116.687H340.735L337.2 106.453H337.102L333.561 116.687ZM333.897 111.79H340.393V113.377H333.897V111.79ZM350.338 112.797V107.308H352.17V116.687H350.375V115.062H350.277C350.062 115.563 349.716 115.98 349.239 116.314C348.767 116.644 348.179 116.809 347.475 116.809C346.872 116.809 346.339 116.676 345.875 116.412C345.415 116.143 345.053 115.746 344.788 115.221C344.528 114.696 344.397 114.047 344.397 113.273V107.308H346.223V113.054C346.223 113.693 346.4 114.202 346.754 114.58C347.108 114.959 347.568 115.148 348.134 115.148C348.476 115.148 348.816 115.062 349.154 114.892C349.496 114.721 349.779 114.462 350.002 114.116C350.23 113.77 350.342 113.33 350.338 112.797ZM359.001 107.308V108.773H353.878V107.308H359.001ZM355.252 105.061H357.078V113.933C357.078 114.287 357.131 114.554 357.236 114.733C357.342 114.908 357.479 115.028 357.645 115.093C357.816 115.154 358.002 115.185 358.201 115.185C358.348 115.185 358.476 115.174 358.586 115.154C358.696 115.134 358.781 115.117 358.842 115.105L359.172 116.613C359.066 116.654 358.915 116.695 358.72 116.735C358.525 116.78 358.28 116.805 357.987 116.809C357.507 116.817 357.059 116.731 356.644 116.552C356.229 116.373 355.893 116.096 355.637 115.722C355.38 115.347 355.252 114.877 355.252 114.311V105.061ZM364.87 116.876C363.991 116.876 363.224 116.674 362.568 116.271C361.913 115.868 361.404 115.305 361.042 114.58C360.68 113.856 360.498 113.009 360.498 112.04C360.498 111.067 360.68 110.217 361.042 109.488C361.404 108.759 361.913 108.193 362.568 107.79C363.224 107.387 363.991 107.186 364.87 107.186C365.749 107.186 366.517 107.387 367.172 107.79C367.827 108.193 368.336 108.759 368.699 109.488C369.061 110.217 369.242 111.067 369.242 112.04C369.242 113.009 369.061 113.856 368.699 114.58C368.336 115.305 367.827 115.868 367.172 116.271C366.517 116.674 365.749 116.876 364.87 116.876ZM364.876 115.343C365.446 115.343 365.918 115.193 366.293 114.892C366.667 114.59 366.944 114.189 367.123 113.689C367.306 113.188 367.398 112.636 367.398 112.034C367.398 111.436 367.306 110.886 367.123 110.385C366.944 109.881 366.667 109.476 366.293 109.17C365.918 108.865 365.446 108.712 364.876 108.712C364.302 108.712 363.826 108.865 363.448 109.17C363.073 109.476 362.794 109.881 362.611 110.385C362.432 110.886 362.342 111.436 362.342 112.034C362.342 112.636 362.432 113.188 362.611 113.689C362.794 114.189 363.073 114.59 363.448 114.892C363.826 115.193 364.302 115.343 364.876 115.343ZM371.28 120.204V107.308H373.063V108.828H373.215C373.321 108.633 373.474 108.407 373.673 108.151C373.873 107.894 374.15 107.67 374.504 107.479C374.858 107.284 375.326 107.186 375.908 107.186C376.665 107.186 377.341 107.377 377.935 107.76C378.529 108.143 378.995 108.694 379.333 109.415C379.675 110.135 379.846 111.002 379.846 112.016C379.846 113.029 379.677 113.898 379.339 114.623C379.002 115.343 378.538 115.899 377.947 116.29C377.357 116.676 376.683 116.87 375.926 116.87C375.356 116.87 374.89 116.774 374.528 116.583C374.17 116.392 373.889 116.168 373.685 115.911C373.482 115.655 373.325 115.427 373.215 115.227H373.105V120.204H371.28ZM373.069 111.997C373.069 112.657 373.164 113.235 373.356 113.731C373.547 114.228 373.824 114.617 374.186 114.898C374.548 115.174 374.992 115.313 375.517 115.313C376.063 115.313 376.519 115.168 376.885 114.879C377.251 114.586 377.528 114.189 377.715 113.689C377.907 113.188 378.002 112.624 378.002 111.997C378.002 111.379 377.909 110.823 377.721 110.33C377.538 109.838 377.261 109.449 376.891 109.164C376.525 108.879 376.067 108.737 375.517 108.737C374.988 108.737 374.54 108.873 374.174 109.146C373.812 109.419 373.537 109.799 373.35 110.288C373.162 110.776 373.069 111.346 373.069 111.997ZM384.621 116.894C384.027 116.894 383.489 116.784 383.009 116.565C382.529 116.341 382.148 116.017 381.867 115.594C381.59 115.17 381.452 114.651 381.452 114.037C381.452 113.508 381.554 113.072 381.757 112.73C381.961 112.388 382.236 112.117 382.582 111.918C382.928 111.719 383.314 111.568 383.742 111.466C384.169 111.364 384.605 111.287 385.048 111.234C385.61 111.169 386.066 111.116 386.416 111.075C386.766 111.031 387.021 110.959 387.179 110.862C387.338 110.764 387.417 110.605 387.417 110.385V110.343C387.417 109.809 387.267 109.396 386.966 109.103C386.668 108.81 386.225 108.664 385.635 108.664C385.02 108.664 384.536 108.8 384.181 109.073C383.831 109.341 383.589 109.641 383.455 109.97L381.739 109.579C381.943 109.01 382.24 108.55 382.631 108.2C383.025 107.845 383.479 107.589 383.992 107.43C384.505 107.267 385.044 107.186 385.61 107.186C385.985 107.186 386.382 107.231 386.801 107.32C387.224 107.406 387.619 107.565 387.985 107.797C388.356 108.029 388.659 108.36 388.895 108.792C389.131 109.219 389.249 109.775 389.249 110.459V116.687H387.466V115.404H387.393C387.275 115.641 387.098 115.873 386.862 116.1C386.626 116.328 386.322 116.518 385.952 116.668C385.582 116.819 385.138 116.894 384.621 116.894ZM385.018 115.429C385.523 115.429 385.954 115.329 386.312 115.13C386.675 114.93 386.949 114.67 387.137 114.348C387.328 114.022 387.424 113.674 387.424 113.304V112.095C387.358 112.16 387.232 112.221 387.045 112.278C386.862 112.331 386.652 112.378 386.416 112.419C386.18 112.455 385.95 112.49 385.726 112.522C385.502 112.551 385.315 112.575 385.164 112.596C384.81 112.641 384.487 112.716 384.194 112.822C383.905 112.927 383.673 113.08 383.498 113.28C383.327 113.475 383.241 113.735 383.241 114.061C383.241 114.513 383.408 114.855 383.742 115.087C384.076 115.315 384.501 115.429 385.018 115.429ZM392.499 120.204C392.226 120.204 391.978 120.181 391.754 120.136C391.53 120.096 391.363 120.051 391.253 120.002L391.693 118.506C392.027 118.596 392.324 118.634 392.585 118.622C392.845 118.61 393.075 118.512 393.274 118.329C393.478 118.146 393.657 117.847 393.812 117.432L394.038 116.809L390.606 107.308H392.56L394.935 114.586H395.033L397.408 107.308H399.368L395.503 117.938C395.324 118.427 395.096 118.84 394.819 119.178C394.542 119.52 394.213 119.776 393.83 119.947C393.447 120.118 393.004 120.204 392.499 120.204Z" fill="white"/>
</g>
<defs>
<filter id="filter0_d_1_898" x="195.913" y="75.598" width="279.212" height="120.168" filterUnits="userSpaceOnUse" color-interpolation-filters="sRGB">
<feFlood flood-opacity="0" result="BackgroundImageFix"/>
<feColorMatrix in="SourceAlpha" type="matrix" values="0 0 0 0 0 0 0 0 0 0 0 0 0 0 0 0 0 0 127 0" result="hardAlpha"/>
<feOffset dy="24.9954"/>
<feGaussianBlur stdDeviation="14.9973"/>
<feColorMatrix type="matrix" values="0 0 0 0 0.6 0 0 0 0 0.607843 0 0 0 0 0.658824 0 0 0 0.18 0"/>
<feBlend mode="normal" in2="BackgroundImageFix" result="effect1_dropShadow_1_898"/>
<feBlend mode="normal" in="SourceGraphic" in2="effect1_dropShadow_1_898" result="shape"/>
</filter>
<clipPath id="clip0_1_898">
<rect width="32.465" height="31.1919" fill="white" transform="translate(38.9453 181.967)"/>
</clipPath>
</defs>
</svg>
