<svg width="497" height="511" viewBox="0 0 497 511" fill="none" xmlns="http://www.w3.org/2000/svg">
<g filter="url(#filter0_d_31_319)">
<path d="M19 125C19 115.059 27.0589 107 37 107H635C644.941 107 653 115.059 653 125V382C653 391.941 644.941 400 635 400H37C27.0589 400 19 391.941 19 382V125Z" fill="white"/>
<path d="M37 106.383C26.718 106.383 18.3829 114.718 18.3829 125V382C18.3829 392.282 26.7181 400.617 37 400.617H635C645.282 400.617 653.617 392.282 653.617 382V125C653.617 114.718 645.282 106.383 635 106.383H37Z" stroke="#5B2EBC" stroke-width="1.23427"/>
</g>
<circle cx="70.5586" cy="157.092" r="17" fill="#5B2EBC"/>
<path d="M65.9004 158.395C67.3242 159.84 68.5391 161.074 68.5391 161.074L75.7745 153.668" stroke="white" stroke-width="2.01279" stroke-linecap="round" stroke-linejoin="round"/>
<path d="M143.624 147.451V136.542H147.513C148.362 136.542 149.065 136.697 149.622 137.006C150.18 137.314 150.597 137.737 150.874 138.273C151.151 138.806 151.289 139.406 151.289 140.074C151.289 140.745 151.149 141.349 150.869 141.885C150.592 142.417 150.173 142.84 149.612 143.153C149.054 143.461 148.353 143.616 147.507 143.616H144.833V142.22H147.358C147.895 142.22 148.33 142.128 148.663 141.943C148.997 141.755 149.242 141.499 149.398 141.176C149.555 140.853 149.633 140.486 149.633 140.074C149.633 139.662 149.555 139.296 149.398 138.976C149.242 138.657 148.995 138.406 148.658 138.225C148.324 138.044 147.884 137.954 147.337 137.954H145.27V147.451H143.624ZM155.646 147.632C155.127 147.632 154.659 147.536 154.24 147.345C153.821 147.149 153.489 146.867 153.243 146.498C153.002 146.128 152.881 145.676 152.881 145.139C152.881 144.678 152.97 144.298 153.148 143.999C153.325 143.701 153.565 143.465 153.867 143.291C154.169 143.117 154.506 142.986 154.879 142.897C155.252 142.808 155.632 142.741 156.019 142.694C156.509 142.638 156.906 142.591 157.212 142.556C157.517 142.517 157.739 142.455 157.878 142.369C158.016 142.284 158.085 142.146 158.085 141.954V141.917C158.085 141.452 157.954 141.091 157.691 140.835C157.432 140.58 157.045 140.452 156.53 140.452C155.994 140.452 155.571 140.571 155.262 140.809C154.957 141.043 154.746 141.304 154.628 141.592L153.132 141.251C153.309 140.754 153.568 140.352 153.909 140.047C154.254 139.738 154.65 139.514 155.097 139.376C155.545 139.234 156.015 139.163 156.509 139.163C156.835 139.163 157.182 139.202 157.547 139.28C157.917 139.355 158.261 139.493 158.581 139.695C158.904 139.898 159.169 140.187 159.375 140.564C159.58 140.937 159.683 141.421 159.683 142.018V147.451H158.128V146.333H158.064C157.961 146.539 157.807 146.741 157.601 146.94C157.395 147.139 157.13 147.304 156.807 147.435C156.484 147.567 156.097 147.632 155.646 147.632ZM155.992 146.354C156.432 146.354 156.809 146.267 157.121 146.093C157.437 145.919 157.677 145.692 157.84 145.411C158.007 145.127 158.091 144.823 158.091 144.5V143.445C158.034 143.502 157.924 143.556 157.761 143.605C157.601 143.651 157.418 143.692 157.212 143.728C157.006 143.76 156.805 143.79 156.61 143.818C156.415 143.843 156.251 143.865 156.12 143.882C155.811 143.921 155.529 143.987 155.273 144.079C155.021 144.172 154.818 144.305 154.666 144.479C154.517 144.649 154.442 144.877 154.442 145.161C154.442 145.555 154.588 145.853 154.879 146.056C155.17 146.254 155.541 146.354 155.992 146.354ZM162.765 150.519C162.528 150.519 162.311 150.5 162.116 150.461C161.92 150.425 161.775 150.386 161.679 150.344L162.062 149.039C162.354 149.117 162.613 149.15 162.84 149.14C163.067 149.129 163.268 149.044 163.442 148.884C163.62 148.724 163.776 148.463 163.911 148.101L164.108 147.558L161.114 139.269H162.819L164.891 145.619H164.976L167.048 139.269H168.758L165.386 148.543C165.23 148.969 165.031 149.33 164.79 149.624C164.548 149.923 164.26 150.146 163.927 150.296C163.593 150.445 163.206 150.519 162.765 150.519ZM174.718 147.451V139.269H176.311V147.451H174.718ZM175.523 138.007C175.246 138.007 175.008 137.915 174.809 137.73C174.613 137.542 174.516 137.318 174.516 137.059C174.516 136.796 174.613 136.572 174.809 136.388C175.008 136.199 175.246 136.105 175.523 136.105C175.8 136.105 176.036 136.199 176.231 136.388C176.43 136.572 176.529 136.796 176.529 137.059C176.529 137.318 176.43 137.542 176.231 137.73C176.036 137.915 175.8 138.007 175.523 138.007ZM180.293 142.593V147.451H178.7V139.269H180.229V140.601H180.33C180.519 140.168 180.813 139.82 181.215 139.557C181.619 139.294 182.129 139.163 182.743 139.163C183.301 139.163 183.789 139.28 184.208 139.514C184.627 139.745 184.952 140.09 185.183 140.548C185.414 141.006 185.529 141.572 185.529 142.247V147.451H183.937V142.439C183.937 141.846 183.782 141.382 183.473 141.048C183.164 140.711 182.74 140.542 182.2 140.542C181.831 140.542 181.502 140.622 181.215 140.782C180.931 140.942 180.705 141.176 180.538 141.485C180.375 141.791 180.293 142.16 180.293 142.593Z" fill="#596780"/>
<path d="M148.903 175.65C148.254 175.641 147.615 175.522 146.985 175.295C146.36 175.068 145.792 174.689 145.281 174.159C144.77 173.628 144.36 172.916 144.052 172.021C143.749 171.126 143.598 170.008 143.598 168.669C143.598 167.4 143.723 166.273 143.974 165.288C144.23 164.303 144.597 163.472 145.075 162.795C145.553 162.113 146.131 161.595 146.808 161.24C147.485 160.884 148.245 160.707 149.088 160.707C149.954 160.707 150.724 160.877 151.396 161.218C152.068 161.559 152.613 162.03 153.029 162.632C153.451 163.233 153.718 163.917 153.832 164.684H151.666C151.519 164.078 151.228 163.583 150.792 163.2C150.357 162.816 149.788 162.624 149.088 162.624C148.022 162.624 147.191 163.088 146.595 164.017C146.003 164.945 145.705 166.235 145.7 167.887H145.806C146.057 167.475 146.365 167.125 146.73 166.836C147.099 166.543 147.511 166.318 147.966 166.161C148.425 166 148.908 165.92 149.414 165.92C150.257 165.92 151.02 166.126 151.701 166.538C152.388 166.945 152.935 167.508 153.342 168.228C153.749 168.948 153.953 169.772 153.953 170.7C153.953 171.628 153.742 172.468 153.321 173.221C152.904 173.974 152.317 174.57 151.559 175.011C150.802 175.446 149.916 175.66 148.903 175.65ZM148.896 173.803C149.455 173.803 149.954 173.666 150.395 173.392C150.835 173.117 151.183 172.748 151.439 172.284C151.694 171.82 151.822 171.301 151.822 170.728C151.822 170.169 151.697 169.66 151.446 169.201C151.199 168.742 150.859 168.377 150.423 168.107C149.992 167.838 149.5 167.703 148.946 167.703C148.524 167.703 148.134 167.783 147.774 167.944C147.419 168.105 147.106 168.328 146.836 168.612C146.566 168.896 146.353 169.222 146.197 169.592C146.046 169.956 145.97 170.342 145.97 170.749C145.97 171.294 146.095 171.798 146.346 172.262C146.602 172.726 146.95 173.1 147.39 173.384C147.835 173.664 148.337 173.803 148.896 173.803ZM162.355 175.451V164.542H164.393V166.318H164.528C164.755 165.716 165.127 165.248 165.643 164.911C166.159 164.57 166.777 164.4 167.497 164.4C168.226 164.4 168.837 164.57 169.329 164.911C169.826 165.252 170.193 165.721 170.43 166.318H170.544C170.804 165.735 171.218 165.271 171.787 164.926C172.355 164.575 173.032 164.4 173.818 164.4C174.808 164.4 175.615 164.71 176.24 165.33C176.87 165.951 177.184 166.886 177.184 168.136V175.451H175.061V168.335C175.061 167.596 174.86 167.061 174.457 166.73C174.055 166.398 173.574 166.232 173.015 166.232C172.324 166.232 171.787 166.445 171.403 166.872C171.02 167.293 170.828 167.835 170.828 168.498V175.451H168.711V168.2C168.711 167.608 168.527 167.132 168.157 166.772C167.788 166.412 167.308 166.232 166.716 166.232C166.313 166.232 165.942 166.339 165.601 166.552C165.264 166.76 164.992 167.052 164.784 167.426C164.58 167.8 164.478 168.233 164.478 168.725V175.451H162.355ZM184.873 175.671C183.85 175.671 182.957 175.437 182.195 174.968C181.433 174.499 180.841 173.844 180.42 173.001C179.998 172.158 179.787 171.173 179.787 170.046C179.787 168.915 179.998 167.925 180.42 167.078C180.841 166.23 181.433 165.572 182.195 165.103C182.957 164.634 183.85 164.4 184.873 164.4C185.895 164.4 186.788 164.634 187.55 165.103C188.313 165.572 188.904 166.23 189.326 167.078C189.747 167.925 189.958 168.915 189.958 170.046C189.958 171.173 189.747 172.158 189.326 173.001C188.904 173.844 188.313 174.499 187.55 174.968C186.788 175.437 185.895 175.671 184.873 175.671ZM184.88 173.889C185.543 173.889 186.092 173.713 186.527 173.363C186.963 173.013 187.285 172.546 187.493 171.964C187.706 171.382 187.813 170.74 187.813 170.039C187.813 169.343 187.706 168.704 187.493 168.122C187.285 167.535 186.963 167.063 186.527 166.708C186.092 166.353 185.543 166.176 184.88 166.176C184.212 166.176 183.658 166.353 183.218 166.708C182.782 167.063 182.458 167.535 182.245 168.122C182.036 168.704 181.932 169.343 181.932 170.039C181.932 170.74 182.036 171.382 182.245 171.964C182.458 172.546 182.782 173.013 183.218 173.363C183.658 173.713 184.212 173.889 184.88 173.889ZM194.699 168.974V175.451H192.575V164.542H194.613V166.318H194.748C194.999 165.74 195.392 165.276 195.927 164.926C196.467 164.575 197.147 164.4 197.966 164.4C198.709 164.4 199.36 164.556 199.919 164.869C200.478 165.177 200.911 165.636 201.219 166.247C201.526 166.857 201.68 167.613 201.68 168.512V175.451H199.557V168.768C199.557 167.977 199.351 167.359 198.939 166.914C198.527 166.464 197.961 166.24 197.241 166.24C196.749 166.24 196.311 166.346 195.927 166.559C195.549 166.772 195.248 167.085 195.025 167.497C194.808 167.904 194.699 168.396 194.699 168.974ZM209.867 164.542V166.247H203.909V164.542H209.867ZM205.507 161.928H207.63V172.248C207.63 172.66 207.692 172.97 207.815 173.178C207.938 173.382 208.097 173.522 208.291 173.597C208.49 173.669 208.705 173.704 208.937 173.704C209.107 173.704 209.257 173.692 209.384 173.669C209.512 173.645 209.612 173.626 209.683 173.612L210.066 175.366C209.943 175.413 209.768 175.461 209.541 175.508C209.313 175.56 209.029 175.588 208.688 175.593C208.13 175.603 207.609 175.503 207.126 175.295C206.643 175.087 206.252 174.765 205.954 174.329C205.656 173.893 205.507 173.347 205.507 172.688V161.928ZM214.821 168.974V175.451H212.698V160.906H214.793V166.318H214.928C215.184 165.731 215.574 165.264 216.1 164.919C216.625 164.573 217.312 164.4 218.159 164.4C218.907 164.4 219.561 164.554 220.12 164.862C220.683 165.169 221.119 165.629 221.426 166.24C221.739 166.846 221.895 167.603 221.895 168.512V175.451H219.772V168.768C219.772 167.968 219.566 167.347 219.154 166.907C218.742 166.462 218.169 166.24 217.435 166.24C216.933 166.24 216.483 166.346 216.086 166.559C215.693 166.772 215.382 167.085 215.155 167.497C214.933 167.904 214.821 168.396 214.821 168.974ZM233.151 167.205L231.226 167.546C231.145 167.3 231.018 167.066 230.842 166.843C230.672 166.621 230.44 166.438 230.146 166.296C229.853 166.154 229.486 166.083 229.045 166.083C228.444 166.083 227.942 166.218 227.54 166.488C227.137 166.753 226.936 167.097 226.936 167.518C226.936 167.883 227.071 168.176 227.341 168.399C227.611 168.621 228.046 168.803 228.648 168.945L230.381 169.343C231.384 169.575 232.133 169.933 232.625 170.416C233.117 170.899 233.364 171.526 233.364 172.298C233.364 172.951 233.174 173.534 232.795 174.045C232.421 174.552 231.898 174.949 231.226 175.238C230.558 175.527 229.784 175.671 228.903 175.671C227.682 175.671 226.685 175.411 225.913 174.89C225.142 174.365 224.668 173.619 224.493 172.653L226.545 172.34C226.673 172.875 226.936 173.28 227.334 173.555C227.732 173.825 228.25 173.96 228.889 173.96C229.585 173.96 230.142 173.815 230.558 173.526C230.975 173.233 231.183 172.875 231.183 172.454C231.183 172.113 231.055 171.827 230.8 171.595C230.549 171.363 230.163 171.187 229.642 171.069L227.795 170.664C226.777 170.432 226.025 170.063 225.537 169.556C225.054 169.05 224.812 168.408 224.812 167.632C224.812 166.988 224.992 166.424 225.352 165.941C225.712 165.458 226.209 165.082 226.844 164.812C227.478 164.537 228.205 164.4 229.024 164.4C230.203 164.4 231.131 164.656 231.808 165.167C232.485 165.674 232.933 166.353 233.151 167.205Z" fill="#323B4B"/>
<path d="M344.366 147.451V136.542H348.254C349.103 136.542 349.806 136.697 350.363 137.006C350.921 137.314 351.338 137.737 351.615 138.273C351.892 138.806 352.031 139.406 352.031 140.074C352.031 140.745 351.89 141.349 351.61 141.885C351.333 142.417 350.914 142.84 350.353 143.153C349.795 143.461 349.094 143.616 348.249 143.616H345.575V142.22H348.1C348.636 142.22 349.071 142.128 349.405 141.943C349.738 141.755 349.983 141.499 350.14 141.176C350.296 140.853 350.374 140.486 350.374 140.074C350.374 139.662 350.296 139.296 350.14 138.976C349.983 138.657 349.737 138.406 349.399 138.225C349.065 138.044 348.625 137.954 348.078 137.954H346.011V147.451H344.366ZM357.503 147.616C356.697 147.616 356.003 147.444 355.42 147.1C354.841 146.752 354.394 146.263 354.078 145.635C353.765 145.003 353.609 144.262 353.609 143.414C353.609 142.575 353.765 141.837 354.078 141.198C354.394 140.558 354.834 140.059 355.399 139.701C355.967 139.342 356.631 139.163 357.391 139.163C357.853 139.163 358.3 139.239 358.733 139.392C359.167 139.545 359.556 139.784 359.9 140.111C360.244 140.438 360.516 140.862 360.715 141.384C360.914 141.903 361.013 142.533 361.013 143.275V143.84H354.509V142.646H359.453C359.453 142.227 359.367 141.856 359.197 141.533C359.026 141.206 358.787 140.949 358.478 140.761C358.172 140.573 357.814 140.479 357.402 140.479C356.954 140.479 356.564 140.589 356.23 140.809C355.9 141.025 355.644 141.309 355.463 141.661C355.285 142.009 355.197 142.387 355.197 142.796V143.728C355.197 144.275 355.292 144.74 355.484 145.123C355.679 145.507 355.951 145.8 356.299 146.002C356.647 146.201 357.054 146.301 357.519 146.301C357.821 146.301 358.096 146.258 358.345 146.173C358.593 146.084 358.808 145.953 358.989 145.779C359.17 145.605 359.309 145.39 359.405 145.134L360.912 145.406C360.791 145.85 360.575 146.238 360.262 146.572C359.953 146.903 359.564 147.16 359.096 147.345C358.63 147.526 358.1 147.616 357.503 147.616ZM363.027 147.451V139.269H364.567V140.569H364.652C364.801 140.129 365.064 139.782 365.44 139.53C365.82 139.275 366.25 139.147 366.729 139.147C366.829 139.147 366.946 139.15 367.081 139.157C367.219 139.165 367.328 139.173 367.406 139.184V140.708C367.342 140.69 367.228 140.67 367.065 140.649C366.902 140.624 366.738 140.612 366.575 140.612C366.198 140.612 365.863 140.692 365.568 140.851C365.277 141.008 365.046 141.226 364.876 141.507C364.705 141.784 364.62 142.1 364.62 142.455V147.451H363.027ZM373.248 147.451V139.269H374.776V140.601H374.878C375.048 140.15 375.327 139.798 375.714 139.546C376.101 139.291 376.564 139.163 377.104 139.163C377.651 139.163 378.109 139.291 378.478 139.546C378.851 139.802 379.126 140.154 379.304 140.601H379.389C379.585 140.164 379.895 139.816 380.321 139.557C380.748 139.294 381.255 139.163 381.845 139.163C382.587 139.163 383.192 139.395 383.661 139.861C384.134 140.326 384.37 141.027 384.37 141.965V147.451H382.777V142.114C382.777 141.56 382.626 141.159 382.324 140.91C382.022 140.661 381.662 140.537 381.243 140.537C380.724 140.537 380.321 140.697 380.034 141.017C379.746 141.333 379.602 141.739 379.602 142.236V147.451H378.015V142.013C378.015 141.569 377.876 141.212 377.599 140.942C377.322 140.672 376.962 140.537 376.518 140.537C376.216 140.537 375.938 140.617 375.682 140.777C375.43 140.933 375.226 141.151 375.069 141.432C374.917 141.713 374.84 142.037 374.84 142.407V147.451H373.248ZM390.198 147.616C389.431 147.616 388.761 147.441 388.189 147.089C387.618 146.737 387.174 146.246 386.858 145.613C386.542 144.981 386.384 144.243 386.384 143.398C386.384 142.549 386.542 141.807 386.858 141.171C387.174 140.535 387.618 140.042 388.189 139.69C388.761 139.339 389.431 139.163 390.198 139.163C390.965 139.163 391.634 139.339 392.206 139.69C392.777 140.042 393.221 140.535 393.537 141.171C393.853 141.807 394.012 142.549 394.012 143.398C394.012 144.243 393.853 144.981 393.537 145.613C393.221 146.246 392.777 146.737 392.206 147.089C391.634 147.441 390.965 147.616 390.198 147.616ZM390.203 146.279C390.7 146.279 391.112 146.148 391.439 145.885C391.765 145.622 392.007 145.273 392.163 144.836C392.323 144.399 392.403 143.918 392.403 143.392C392.403 142.87 392.323 142.391 392.163 141.954C392.007 141.514 391.765 141.16 391.439 140.894C391.112 140.628 390.7 140.494 390.203 140.494C389.702 140.494 389.287 140.628 388.956 140.894C388.63 141.16 388.387 141.514 388.227 141.954C388.07 142.391 387.992 142.87 387.992 143.392C387.992 143.918 388.07 144.399 388.227 144.836C388.387 145.273 388.63 145.622 388.956 145.885C389.287 146.148 389.702 146.279 390.203 146.279ZM397.629 142.593V147.451H396.036V139.269H397.565V140.601H397.666C397.854 140.168 398.149 139.82 398.55 139.557C398.955 139.294 399.465 139.163 400.079 139.163C400.637 139.163 401.125 139.28 401.544 139.514C401.963 139.745 402.288 140.09 402.519 140.548C402.75 141.006 402.865 141.572 402.865 142.247V147.451H401.272V142.439C401.272 141.846 401.118 141.382 400.809 141.048C400.5 140.711 400.076 140.542 399.536 140.542C399.166 140.542 398.838 140.622 398.55 140.782C398.266 140.942 398.041 141.176 397.874 141.485C397.711 141.791 397.629 142.16 397.629 142.593ZM409.067 139.269V140.548H404.598V139.269H409.067ZM405.797 137.309H407.389V145.049C407.389 145.358 407.435 145.59 407.528 145.747C407.62 145.899 407.739 146.004 407.885 146.061C408.034 146.114 408.195 146.141 408.369 146.141C408.497 146.141 408.609 146.132 408.705 146.114C408.801 146.096 408.875 146.082 408.929 146.072L409.216 147.387C409.124 147.423 408.993 147.458 408.822 147.494C408.652 147.533 408.439 147.554 408.183 147.558C407.764 147.565 407.373 147.49 407.011 147.334C406.649 147.178 406.356 146.936 406.132 146.61C405.908 146.283 405.797 145.873 405.797 145.379V137.309ZM412.844 142.593V147.451H411.252V136.542H412.823V140.601H412.924C413.116 140.161 413.409 139.811 413.803 139.552C414.197 139.292 414.712 139.163 415.348 139.163C415.909 139.163 416.399 139.278 416.818 139.509C417.241 139.74 417.567 140.084 417.798 140.542C418.032 140.997 418.15 141.565 418.15 142.247V147.451H416.557V142.439C416.557 141.839 416.402 141.373 416.094 141.043C415.785 140.709 415.355 140.542 414.804 140.542C414.428 140.542 414.091 140.622 413.792 140.782C413.498 140.942 413.265 141.176 413.095 141.485C412.928 141.791 412.844 142.16 412.844 142.593Z" fill="#596780"/>
<path d="M353.593 164.4L353.096 166.154H343.785L344.282 164.4H353.593ZM349.062 175.451L343.977 169.279L343.962 167.894H346.484C347.113 167.894 347.646 167.797 348.082 167.603C348.517 167.409 348.849 167.127 349.076 166.758C349.303 166.384 349.417 165.929 349.417 165.394C349.417 164.599 349.18 163.967 348.707 163.498C348.233 163.029 347.492 162.795 346.484 162.795H343.785L344.303 160.906H346.484C347.658 160.906 348.626 161.093 349.389 161.467C350.151 161.841 350.719 162.359 351.093 163.022C351.467 163.685 351.654 164.45 351.654 165.316C351.654 166.088 351.5 166.786 351.193 167.411C350.885 168.036 350.395 168.545 349.722 168.938C349.05 169.331 348.167 169.561 347.073 169.627L347.009 169.642L351.654 175.33V175.451H349.062ZM353.6 160.906L353.096 162.674L345.653 162.632L346.157 160.906H353.6ZM361.347 160.906V175.451H359.145V163.107H359.06L355.58 165.38V163.278L359.209 160.906H361.347ZM365.529 175.451V173.86L370.45 168.761C370.976 168.207 371.409 167.722 371.75 167.305C372.096 166.883 372.354 166.483 372.524 166.105C372.695 165.726 372.78 165.323 372.78 164.897C372.78 164.414 372.666 163.998 372.439 163.647C372.212 163.292 371.902 163.02 371.509 162.83C371.116 162.636 370.673 162.539 370.181 162.539C369.66 162.539 369.205 162.646 368.817 162.859C368.429 163.072 368.13 163.373 367.922 163.761C367.714 164.149 367.61 164.604 367.61 165.124H365.514C365.514 164.239 365.718 163.465 366.125 162.802C366.532 162.139 367.091 161.625 367.801 161.261C368.512 160.892 369.319 160.707 370.223 160.707C371.137 160.707 371.942 160.889 372.638 161.254C373.339 161.614 373.886 162.106 374.279 162.731C374.672 163.351 374.868 164.052 374.868 164.833C374.868 165.373 374.766 165.901 374.563 166.417C374.364 166.933 374.016 167.508 373.519 168.143C373.021 168.773 372.33 169.537 371.445 170.437L368.554 173.463V173.569H375.102V175.451H365.529ZM383.105 175.693C381.983 175.688 381.024 175.392 380.229 174.805C379.433 174.218 378.825 173.363 378.403 172.241C377.982 171.119 377.771 169.767 377.771 168.186C377.771 166.609 377.982 165.262 378.403 164.144C378.829 163.027 379.44 162.175 380.236 161.588C381.036 161 381.992 160.707 383.105 160.707C384.218 160.707 385.172 161.003 385.967 161.595C386.763 162.182 387.371 163.034 387.792 164.151C388.219 165.264 388.432 166.609 388.432 168.186C388.432 169.772 388.221 171.126 387.8 172.248C387.378 173.365 386.77 174.22 385.974 174.812C385.179 175.399 384.222 175.693 383.105 175.693ZM383.105 173.796C384.09 173.796 384.859 173.316 385.413 172.355C385.972 171.393 386.251 170.004 386.251 168.186C386.251 166.978 386.123 165.958 385.868 165.124C385.617 164.286 385.255 163.652 384.781 163.221C384.312 162.785 383.754 162.568 383.105 162.568C382.125 162.568 381.355 163.051 380.797 164.017C380.238 164.982 379.956 166.372 379.952 168.186C379.952 169.398 380.077 170.423 380.328 171.261C380.584 172.094 380.946 172.726 381.415 173.157C381.883 173.583 382.447 173.796 383.105 173.796ZM396.262 175.693C395.14 175.688 394.181 175.392 393.386 174.805C392.59 174.218 391.982 173.363 391.56 172.241C391.139 171.119 390.928 169.767 390.928 168.186C390.928 166.609 391.139 165.262 391.56 164.144C391.986 163.027 392.597 162.175 393.393 161.588C394.193 161 395.149 160.707 396.262 160.707C397.375 160.707 398.329 161.003 399.124 161.595C399.92 162.182 400.528 163.034 400.95 164.151C401.376 165.264 401.589 166.609 401.589 168.186C401.589 169.772 401.378 171.126 400.957 172.248C400.535 173.365 399.927 174.22 399.131 174.812C398.336 175.399 397.379 175.693 396.262 175.693ZM396.262 173.796C397.247 173.796 398.016 173.316 398.57 172.355C399.129 171.393 399.408 170.004 399.408 168.186C399.408 166.978 399.28 165.958 399.025 165.124C398.774 164.286 398.412 163.652 397.938 163.221C397.469 162.785 396.911 162.568 396.262 162.568C395.282 162.568 394.512 163.051 393.954 164.017C393.395 164.982 393.113 166.372 393.109 168.186C393.109 169.398 393.234 170.423 393.485 171.261C393.741 172.094 394.103 172.726 394.572 173.157C395.04 173.583 395.604 173.796 396.262 173.796Z" fill="#323B4B"/>
<path d="M59.0625 214.225C59.017 213.822 58.8295 213.51 58.5 213.288C58.1705 213.064 57.7557 212.951 57.2557 212.951C56.8977 212.951 56.5881 213.008 56.3267 213.122C56.0653 213.233 55.8622 213.386 55.7173 213.582C55.5753 213.775 55.5043 213.995 55.5043 214.243C55.5043 214.45 55.5526 214.629 55.6491 214.779C55.7486 214.93 55.8778 215.056 56.0369 215.159C56.1989 215.258 56.3722 215.342 56.5568 215.41C56.7415 215.475 56.919 215.529 57.0895 215.572L57.9418 215.794C58.2202 215.862 58.5057 215.954 58.7983 216.071C59.0909 216.187 59.3622 216.341 59.6122 216.531C59.8622 216.721 60.0639 216.957 60.2173 217.238C60.3736 217.52 60.4517 217.856 60.4517 218.248C60.4517 218.743 60.3239 219.181 60.0682 219.565C59.8153 219.949 59.4474 220.251 58.9645 220.473C58.4844 220.694 57.9034 220.805 57.2216 220.805C56.5682 220.805 56.0028 220.701 55.5256 220.494C55.0483 220.287 54.6747 219.993 54.4048 219.612C54.1349 219.228 53.9858 218.774 53.9574 218.248H55.2784C55.304 218.564 55.4063 218.826 55.5852 219.037C55.767 219.244 55.9986 219.399 56.2798 219.501C56.5639 219.6 56.875 219.65 57.2131 219.65C57.5852 219.65 57.9162 219.592 58.206 219.475C58.4986 219.356 58.7287 219.191 58.8963 218.981C59.0639 218.768 59.1477 218.52 59.1477 218.235C59.1477 217.977 59.0739 217.765 58.9261 217.6C58.7813 217.436 58.5838 217.299 58.3338 217.191C58.0866 217.083 57.8068 216.988 57.4943 216.906L56.4631 216.625C55.7642 216.434 55.2102 216.154 54.8011 215.785C54.3949 215.416 54.1918 214.927 54.1918 214.319C54.1918 213.816 54.3281 213.377 54.6009 213.002C54.8736 212.627 55.2429 212.336 55.7088 212.129C56.1747 211.919 56.7003 211.814 57.2855 211.814C57.8764 211.814 58.3977 211.917 58.8494 212.125C59.304 212.332 59.6619 212.618 59.9233 212.981C60.1847 213.342 60.321 213.757 60.3324 214.225H59.0625ZM63.4439 216.774V220.66H62.1698V211.933H63.4269V215.18H63.5079C63.6613 214.828 63.8956 214.548 64.211 214.341C64.5263 214.133 64.9383 214.029 65.4468 214.029C65.8956 214.029 66.2877 214.122 66.6229 214.306C66.961 214.491 67.2224 214.767 67.407 215.133C67.5945 215.497 67.6883 215.951 67.6883 216.497V220.66H66.4141V216.65C66.4141 216.17 66.2905 215.798 66.0434 215.534C65.7962 215.267 65.4525 215.133 65.0121 215.133C64.711 215.133 64.4411 215.197 64.2025 215.325C63.9667 215.453 63.7806 215.64 63.6442 215.887C63.5107 216.132 63.4439 216.427 63.4439 216.774ZM72.3925 220.792C71.7789 220.792 71.2434 220.652 70.786 220.37C70.3286 220.089 69.9735 219.696 69.7206 219.19C69.4678 218.684 69.3414 218.093 69.3414 217.417C69.3414 216.738 69.4678 216.145 69.7206 215.636C69.9735 215.127 70.3286 214.733 70.786 214.451C71.2434 214.17 71.7789 214.029 72.3925 214.029C73.0061 214.029 73.5416 214.17 73.999 214.451C74.4564 214.733 74.8115 215.127 75.0644 215.636C75.3172 216.145 75.4436 216.738 75.4436 217.417C75.4436 218.093 75.3172 218.684 75.0644 219.19C74.8115 219.696 74.4564 220.089 73.999 220.37C73.5416 220.652 73.0061 220.792 72.3925 220.792ZM72.3968 219.723C72.7945 219.723 73.124 219.618 73.3854 219.407C73.6468 219.197 73.8399 218.917 73.9649 218.568C74.0928 218.218 74.1567 217.833 74.1567 217.413C74.1567 216.995 74.0928 216.612 73.9649 216.262C73.8399 215.91 73.6468 215.627 73.3854 215.414C73.124 215.201 72.7945 215.095 72.3968 215.095C71.9962 215.095 71.6638 215.201 71.3996 215.414C71.1382 215.627 70.9436 215.91 70.8158 216.262C70.6908 216.612 70.6283 216.995 70.6283 217.413C70.6283 217.833 70.6908 218.218 70.8158 218.568C70.9436 218.917 71.1382 219.197 71.3996 219.407C71.6638 219.618 71.9962 219.723 72.3968 219.723ZM78.3325 220.66L76.4064 214.115H77.7232L79.0058 218.922H79.0697L80.3567 214.115H81.6734L82.9519 218.9H83.0158L84.2899 214.115H85.6067L83.6848 220.66H82.3851L81.0555 215.934H80.9575L79.628 220.66H78.3325ZM90.5876 220.66V211.933H93.6984C94.3745 211.933 94.9356 212.049 95.3816 212.282C95.8305 212.515 96.1657 212.838 96.3873 213.25C96.6089 213.659 96.7197 214.132 96.7197 214.669C96.7197 215.203 96.6075 215.673 96.3831 216.079C96.1615 216.483 95.8262 216.797 95.3774 217.021C94.9314 217.245 94.3703 217.358 93.6941 217.358H91.3376V216.224H93.5748C94.001 216.224 94.3475 216.163 94.6146 216.041C94.8845 215.919 95.0819 215.741 95.2069 215.508C95.3319 215.275 95.3944 214.995 95.3944 214.669C95.3944 214.339 95.3305 214.054 95.2027 213.812C95.0777 213.571 94.8802 213.386 94.6103 213.258C94.3433 213.127 93.9924 213.062 93.5578 213.062H91.9044V220.66H90.5876ZM94.8958 216.723L97.0521 220.66H95.5521L93.4385 216.723H94.8958ZM101.206 220.792C100.561 220.792 100.005 220.654 99.5394 220.379C99.0763 220.1 98.7183 219.71 98.4655 219.207C98.2155 218.701 98.0905 218.109 98.0905 217.43C98.0905 216.76 98.2155 216.169 98.4655 215.657C98.7183 215.146 99.0706 214.747 99.5223 214.46C99.9769 214.173 100.508 214.029 101.116 214.029C101.485 214.029 101.843 214.091 102.19 214.213C102.537 214.335 102.848 214.527 103.123 214.788C103.399 215.049 103.616 215.389 103.775 215.806C103.934 216.221 104.014 216.725 104.014 217.319V217.771H98.8107V216.816H102.765C102.765 216.481 102.697 216.184 102.561 215.926C102.424 215.664 102.233 215.458 101.985 215.308C101.741 215.157 101.454 215.082 101.125 215.082C100.767 215.082 100.454 215.17 100.187 215.346C99.9229 215.52 99.7183 215.747 99.5734 216.028C99.4314 216.306 99.3604 216.609 99.3604 216.936V217.681C99.3604 218.119 99.4371 218.491 99.5905 218.798C99.7467 219.105 99.9641 219.339 100.242 219.501C100.521 219.66 100.846 219.74 101.218 219.74C101.46 219.74 101.68 219.706 101.879 219.637C102.078 219.566 102.25 219.461 102.394 219.322C102.539 219.183 102.65 219.011 102.727 218.806L103.933 219.024C103.836 219.379 103.663 219.69 103.413 219.957C103.166 220.221 102.855 220.427 102.48 220.575C102.108 220.72 101.683 220.792 101.206 220.792ZM105.674 223.115V214.115H106.919V215.176H107.025C107.099 215.039 107.206 214.882 107.345 214.703C107.484 214.524 107.677 214.368 107.924 214.234C108.172 214.098 108.498 214.029 108.904 214.029C109.433 214.029 109.904 214.163 110.319 214.43C110.734 214.697 111.059 215.082 111.295 215.585C111.534 216.088 111.653 216.693 111.653 217.4C111.653 218.108 111.535 218.714 111.299 219.22C111.064 219.723 110.74 220.11 110.328 220.383C109.916 220.653 109.446 220.788 108.917 220.788C108.52 220.788 108.194 220.721 107.941 220.588C107.691 220.454 107.495 220.298 107.353 220.119C107.211 219.94 107.102 219.781 107.025 219.642H106.948V223.115H105.674ZM106.923 217.387C106.923 217.848 106.99 218.251 107.123 218.598C107.257 218.944 107.45 219.216 107.703 219.412C107.956 219.605 108.265 219.701 108.632 219.701C109.012 219.701 109.331 219.6 109.586 219.399C109.842 219.194 110.035 218.917 110.166 218.568C110.299 218.218 110.366 217.825 110.366 217.387C110.366 216.956 110.301 216.568 110.17 216.224C110.042 215.88 109.849 215.609 109.591 215.41C109.335 215.211 109.015 215.112 108.632 215.112C108.262 215.112 107.95 215.207 107.694 215.397C107.441 215.588 107.25 215.853 107.119 216.194C106.988 216.535 106.923 216.933 106.923 217.387ZM115.232 220.805C114.818 220.805 114.443 220.728 114.107 220.575C113.772 220.419 113.506 220.193 113.31 219.897C113.117 219.602 113.021 219.24 113.021 218.811C113.021 218.441 113.092 218.137 113.234 217.899C113.376 217.66 113.568 217.471 113.809 217.332C114.05 217.193 114.32 217.088 114.619 217.017C114.917 216.946 115.221 216.892 115.531 216.855C115.923 216.809 116.241 216.772 116.485 216.744C116.729 216.713 116.907 216.663 117.018 216.595C117.129 216.527 117.184 216.416 117.184 216.262V216.233C117.184 215.86 117.079 215.572 116.869 215.368C116.661 215.163 116.352 215.061 115.94 215.061C115.511 215.061 115.173 215.156 114.925 215.346C114.681 215.534 114.512 215.743 114.418 215.973L113.221 215.7C113.363 215.302 113.57 214.981 113.843 214.737C114.119 214.49 114.435 214.311 114.793 214.2C115.151 214.086 115.528 214.029 115.923 214.029C116.184 214.029 116.461 214.061 116.754 214.123C117.049 214.183 117.325 214.294 117.58 214.456C117.839 214.618 118.05 214.849 118.215 215.15C118.38 215.449 118.462 215.836 118.462 216.314V220.66H117.218V219.765H117.167C117.085 219.93 116.961 220.092 116.796 220.251C116.631 220.41 116.42 220.542 116.161 220.647C115.903 220.752 115.593 220.805 115.232 220.805ZM115.509 219.782C115.862 219.782 116.163 219.713 116.413 219.574C116.666 219.434 116.857 219.252 116.988 219.028C117.121 218.801 117.188 218.558 117.188 218.299V217.456C117.143 217.501 117.055 217.544 116.924 217.583C116.796 217.62 116.65 217.653 116.485 217.681C116.32 217.707 116.16 217.731 116.004 217.754C115.847 217.774 115.717 217.791 115.612 217.805C115.364 217.836 115.139 217.889 114.934 217.963C114.732 218.037 114.57 218.143 114.448 218.282C114.329 218.419 114.269 218.6 114.269 218.828C114.269 219.143 114.386 219.382 114.619 219.544C114.852 219.703 115.148 219.782 115.509 219.782ZM120.977 223.115C120.787 223.115 120.614 223.099 120.457 223.068C120.301 223.039 120.185 223.008 120.108 222.974L120.415 221.93C120.648 221.993 120.855 222.02 121.037 222.011C121.219 222.002 121.379 221.934 121.519 221.806C121.661 221.679 121.786 221.47 121.894 221.18L122.051 220.745L119.656 214.115H121.02L122.678 219.194H122.746L124.403 214.115H125.771L123.074 221.534C122.949 221.875 122.79 222.163 122.597 222.399C122.403 222.637 122.173 222.816 121.906 222.936C121.639 223.055 121.33 223.115 120.977 223.115ZM127.216 220.66V214.115H128.439V215.18H128.52C128.656 214.819 128.879 214.538 129.189 214.336C129.498 214.132 129.869 214.029 130.301 214.029C130.738 214.029 131.105 214.132 131.4 214.336C131.699 214.541 131.919 214.822 132.061 215.18H132.129C132.285 214.831 132.534 214.552 132.875 214.345C133.216 214.135 133.622 214.029 134.094 214.029C134.687 214.029 135.172 214.216 135.547 214.588C135.924 214.96 136.113 215.521 136.113 216.271V220.66H134.839V216.39C134.839 215.947 134.719 215.626 134.477 215.427C134.236 215.228 133.947 215.129 133.612 215.129C133.197 215.129 132.875 215.257 132.645 215.512C132.415 215.765 132.299 216.091 132.299 216.488V220.66H131.03V216.309C131.03 215.954 130.919 215.669 130.697 215.453C130.476 215.237 130.187 215.129 129.832 215.129C129.591 215.129 129.368 215.193 129.163 215.321C128.961 215.446 128.798 215.62 128.673 215.845C128.551 216.069 128.49 216.329 128.49 216.625V220.66H127.216ZM140.889 220.792C140.244 220.792 139.689 220.654 139.223 220.379C138.76 220.1 138.402 219.71 138.149 219.207C137.899 218.701 137.774 218.109 137.774 217.43C137.774 216.76 137.899 216.169 138.149 215.657C138.402 215.146 138.754 214.747 139.206 214.46C139.66 214.173 140.192 214.029 140.8 214.029C141.169 214.029 141.527 214.091 141.873 214.213C142.22 214.335 142.531 214.527 142.807 214.788C143.082 215.049 143.3 215.389 143.459 215.806C143.618 216.221 143.697 216.725 143.697 217.319V217.771H138.494V216.816H142.449C142.449 216.481 142.381 216.184 142.244 215.926C142.108 215.664 141.916 215.458 141.669 215.308C141.425 215.157 141.138 215.082 140.808 215.082C140.45 215.082 140.138 215.17 139.871 215.346C139.606 215.52 139.402 215.747 139.257 216.028C139.115 216.306 139.044 216.609 139.044 216.936V217.681C139.044 218.119 139.121 218.491 139.274 218.798C139.43 219.105 139.648 219.339 139.926 219.501C140.204 219.66 140.53 219.74 140.902 219.74C141.143 219.74 141.363 219.706 141.562 219.637C141.761 219.566 141.933 219.461 142.078 219.322C142.223 219.183 142.334 219.011 142.41 218.806L143.616 219.024C143.52 219.379 143.346 219.69 143.096 219.957C142.849 220.221 142.538 220.427 142.163 220.575C141.791 220.72 141.366 220.792 140.889 220.792ZM146.632 216.774V220.66H145.358V214.115H146.581V215.18H146.662C146.812 214.833 147.048 214.555 147.369 214.345C147.693 214.135 148.101 214.029 148.592 214.029C149.038 214.029 149.429 214.123 149.764 214.311C150.099 214.495 150.359 214.771 150.544 215.137C150.729 215.504 150.821 215.957 150.821 216.497V220.66H149.547V216.65C149.547 216.176 149.423 215.805 149.176 215.538C148.929 215.268 148.589 215.133 148.158 215.133C147.862 215.133 147.599 215.197 147.369 215.325C147.142 215.453 146.962 215.64 146.828 215.887C146.697 216.132 146.632 216.427 146.632 216.774ZM155.832 214.115V215.137H152.257V214.115H155.832ZM153.215 212.547H154.49V218.738C154.49 218.985 154.527 219.172 154.6 219.297C154.674 219.419 154.769 219.502 154.886 219.548C155.005 219.591 155.135 219.612 155.274 219.612C155.376 219.612 155.465 219.605 155.542 219.591C155.619 219.576 155.679 219.565 155.721 219.556L155.951 220.609C155.877 220.637 155.772 220.666 155.636 220.694C155.5 220.725 155.329 220.743 155.125 220.745C154.789 220.751 154.477 220.691 154.187 220.566C153.897 220.441 153.663 220.248 153.484 219.987C153.305 219.725 153.215 219.397 153.215 219.002V212.547ZM165.773 214.225C165.728 213.822 165.54 213.51 165.211 213.288C164.881 213.064 164.466 212.951 163.966 212.951C163.608 212.951 163.299 213.008 163.037 213.122C162.776 213.233 162.573 213.386 162.428 213.582C162.286 213.775 162.215 213.995 162.215 214.243C162.215 214.45 162.263 214.629 162.36 214.779C162.459 214.93 162.588 215.056 162.748 215.159C162.909 215.258 163.083 215.342 163.267 215.41C163.452 215.475 163.63 215.529 163.8 215.572L164.652 215.794C164.931 215.862 165.216 215.954 165.509 216.071C165.802 216.187 166.073 216.341 166.323 216.531C166.573 216.721 166.775 216.957 166.928 217.238C167.084 217.52 167.162 217.856 167.162 218.248C167.162 218.743 167.034 219.181 166.779 219.565C166.526 219.949 166.158 220.251 165.675 220.473C165.195 220.694 164.614 220.805 163.932 220.805C163.279 220.805 162.713 220.701 162.236 220.494C161.759 220.287 161.385 219.993 161.115 219.612C160.846 219.228 160.696 218.774 160.668 218.248H161.989C162.015 218.564 162.117 218.826 162.296 219.037C162.478 219.244 162.709 219.399 162.99 219.501C163.275 219.6 163.586 219.65 163.924 219.65C164.296 219.65 164.627 219.592 164.917 219.475C165.209 219.356 165.439 219.191 165.607 218.981C165.775 218.768 165.858 218.52 165.858 218.235C165.858 217.977 165.784 217.765 165.637 217.6C165.492 217.436 165.294 217.299 165.044 217.191C164.797 217.083 164.517 216.988 164.205 216.906L163.174 216.625C162.475 216.434 161.921 216.154 161.512 215.785C161.105 215.416 160.902 214.927 160.902 214.319C160.902 213.816 161.039 213.377 161.311 213.002C161.584 212.627 161.954 212.336 162.419 212.129C162.885 211.919 163.411 211.814 163.996 211.814C164.587 211.814 165.108 211.917 165.56 212.125C166.015 212.332 166.373 212.618 166.634 212.981C166.895 213.342 167.032 213.757 167.043 214.225H165.773ZM171.638 220.792C171.004 220.792 170.459 220.649 170.001 220.362C169.547 220.072 169.197 219.673 168.953 219.164C168.709 218.656 168.586 218.074 168.586 217.417C168.586 216.752 168.711 216.166 168.961 215.657C169.211 215.146 169.564 214.747 170.018 214.46C170.473 214.173 171.008 214.029 171.625 214.029C172.122 214.029 172.565 214.122 172.954 214.306C173.343 214.488 173.657 214.744 173.896 215.074C174.138 215.403 174.281 215.788 174.326 216.228H173.086C173.018 215.922 172.862 215.657 172.618 215.436C172.376 215.214 172.052 215.103 171.646 215.103C171.291 215.103 170.98 215.197 170.713 215.385C170.449 215.569 170.243 215.833 170.095 216.177C169.947 216.518 169.873 216.922 169.873 217.387C169.873 217.865 169.946 218.277 170.091 218.623C170.236 218.97 170.44 219.238 170.704 219.429C170.971 219.619 171.285 219.714 171.646 219.714C171.888 219.714 172.106 219.67 172.302 219.582C172.501 219.491 172.667 219.362 172.801 219.194C172.937 219.027 173.032 218.825 173.086 218.589H174.326C174.281 219.012 174.143 219.39 173.913 219.723C173.683 220.055 173.375 220.316 172.988 220.507C172.605 220.697 172.155 220.792 171.638 220.792ZM177.21 216.774V220.66H175.936V211.933H177.193V215.18H177.274C177.427 214.828 177.662 214.548 177.977 214.341C178.292 214.133 178.704 214.029 179.213 214.029C179.662 214.029 180.054 214.122 180.389 214.306C180.727 214.491 180.988 214.767 181.173 215.133C181.361 215.497 181.454 215.951 181.454 216.497V220.66H180.18V216.65C180.18 216.17 180.057 215.798 179.809 215.534C179.562 215.267 179.219 215.133 178.778 215.133C178.477 215.133 178.207 215.197 177.969 215.325C177.733 215.453 177.547 215.64 177.41 215.887C177.277 216.132 177.21 216.427 177.21 216.774ZM186.222 220.792C185.578 220.792 185.022 220.654 184.556 220.379C184.093 220.1 183.735 219.71 183.482 219.207C183.232 218.701 183.107 218.109 183.107 217.43C183.107 216.76 183.232 216.169 183.482 215.657C183.735 215.146 184.088 214.747 184.539 214.46C184.994 214.173 185.525 214.029 186.133 214.029C186.502 214.029 186.86 214.091 187.207 214.213C187.553 214.335 187.865 214.527 188.14 214.788C188.416 215.049 188.633 215.389 188.792 215.806C188.951 216.221 189.031 216.725 189.031 217.319V217.771H183.828V216.816H187.782C187.782 216.481 187.714 216.184 187.578 215.926C187.441 215.664 187.249 215.458 187.002 215.308C186.758 215.157 186.471 215.082 186.142 215.082C185.784 215.082 185.471 215.17 185.204 215.346C184.94 215.52 184.735 215.747 184.59 216.028C184.448 216.306 184.377 216.609 184.377 216.936V217.681C184.377 218.119 184.454 218.491 184.607 218.798C184.764 219.105 184.981 219.339 185.259 219.501C185.538 219.66 185.863 219.74 186.235 219.74C186.477 219.74 186.697 219.706 186.896 219.637C187.095 219.566 187.267 219.461 187.411 219.322C187.556 219.183 187.667 219.011 187.744 218.806L188.95 219.024C188.853 219.379 188.68 219.69 188.43 219.957C188.183 220.221 187.872 220.427 187.497 220.575C187.124 220.72 186.7 220.792 186.222 220.792ZM193.142 220.788C192.613 220.788 192.142 220.653 191.727 220.383C191.315 220.11 190.991 219.723 190.755 219.22C190.522 218.714 190.406 218.108 190.406 217.4C190.406 216.693 190.524 216.088 190.759 215.585C190.998 215.082 191.325 214.697 191.74 214.43C192.154 214.163 192.625 214.029 193.15 214.029C193.556 214.029 193.883 214.098 194.13 214.234C194.38 214.368 194.573 214.524 194.71 214.703C194.849 214.882 194.957 215.039 195.034 215.176H195.11V211.933H196.384V220.66H195.14V219.642H195.034C194.957 219.781 194.846 219.94 194.701 220.119C194.559 220.298 194.363 220.454 194.113 220.588C193.863 220.721 193.539 220.788 193.142 220.788ZM193.423 219.701C193.789 219.701 194.099 219.605 194.352 219.412C194.607 219.216 194.801 218.944 194.931 218.598C195.065 218.251 195.132 217.848 195.132 217.387C195.132 216.933 195.066 216.535 194.936 216.194C194.805 215.853 194.613 215.588 194.36 215.397C194.107 215.207 193.795 215.112 193.423 215.112C193.039 215.112 192.72 215.211 192.464 215.41C192.208 215.609 192.015 215.88 191.884 216.224C191.757 216.568 191.693 216.956 191.693 217.387C191.693 217.825 191.758 218.218 191.889 218.568C192.019 218.917 192.213 219.194 192.468 219.399C192.727 219.6 193.045 219.701 193.423 219.701ZM202.596 217.946V214.115H203.875V220.66H202.622V219.527H202.554C202.403 219.876 202.161 220.167 201.829 220.4C201.5 220.63 201.089 220.745 200.598 220.745C200.177 220.745 199.805 220.653 199.481 220.468C199.16 220.281 198.907 220.004 198.723 219.637C198.541 219.271 198.45 218.818 198.45 218.278V214.115H199.724V218.125C199.724 218.571 199.848 218.926 200.095 219.19C200.342 219.454 200.663 219.586 201.058 219.586C201.296 219.586 201.534 219.527 201.769 219.407C202.008 219.288 202.206 219.108 202.362 218.866C202.521 218.625 202.599 218.318 202.596 217.946ZM207.108 211.933V220.66H205.833V211.933H207.108ZM211.89 220.792C211.245 220.792 210.689 220.654 210.223 220.379C209.76 220.1 209.402 219.71 209.15 219.207C208.9 218.701 208.775 218.109 208.775 217.43C208.775 216.76 208.9 216.169 209.15 215.657C209.402 215.146 209.755 214.747 210.206 214.46C210.661 214.173 211.192 214.029 211.8 214.029C212.169 214.029 212.527 214.091 212.874 214.213C213.221 214.335 213.532 214.527 213.807 214.788C214.083 215.049 214.3 215.389 214.459 215.806C214.618 216.221 214.698 216.725 214.698 217.319V217.771H209.495V216.816H213.449C213.449 216.481 213.381 216.184 213.245 215.926C213.108 215.664 212.917 215.458 212.669 215.308C212.425 215.157 212.138 215.082 211.809 215.082C211.451 215.082 211.138 215.17 210.871 215.346C210.607 215.52 210.402 215.747 210.257 216.028C210.115 216.306 210.044 216.609 210.044 216.936V217.681C210.044 218.119 210.121 218.491 210.275 218.798C210.431 219.105 210.648 219.339 210.927 219.501C211.205 219.66 211.53 219.74 211.902 219.74C212.144 219.74 212.364 219.706 212.563 219.637C212.762 219.566 212.934 219.461 213.078 219.322C213.223 219.183 213.334 219.011 213.411 218.806L214.617 219.024C214.52 219.379 214.347 219.69 214.097 219.957C213.85 220.221 213.539 220.427 213.164 220.575C212.792 220.72 212.367 220.792 211.89 220.792Z" fill="#5B2EBC"/>
<rect x="59" y="273" width="445" height="13" fill="#E7E7E7"/>
<rect x="59" y="313" width="445" height="10" fill="#E7E7E7"/>
<rect x="59" y="350" width="227" height="10" fill="#E7E7E7"/>
<line opacity="0.1" x1="19.3428" y1="235.16" x2="653.343" y2="235.16" stroke="#5B2EBC"/>
<rect opacity="0.3" x="49.6171" y="0.617133" width="632.766" height="86.7657" rx="17.3829" fill="#F7F7F7" stroke="#747A80" stroke-width="1.23427"/>
<circle opacity="0.3" cx="99.5586" cy="44.0898" r="16.6171" fill="white" stroke="#747A80" stroke-width="1.23427"/>
<path d="M173.544 34.4531V24.2713H177.174C177.966 24.2713 178.622 24.4155 179.142 24.7038C179.663 24.9922 180.052 25.3866 180.311 25.8871C180.569 26.3842 180.699 26.9444 180.699 27.5675C180.699 28.1939 180.568 28.7573 180.306 29.2578C180.047 29.755 179.656 30.1494 179.132 30.4411C178.612 30.7294 177.958 30.8736 177.169 30.8736H174.673V29.571H177.029C177.53 29.571 177.936 29.4848 178.248 29.3125C178.559 29.1368 178.788 28.8982 178.934 28.5966C179.079 28.295 179.152 27.9519 179.152 27.5675C179.152 27.183 179.079 26.8416 178.934 26.5433C178.788 26.245 178.557 26.0114 178.243 25.8423C177.931 25.6733 177.52 25.5888 177.01 25.5888H175.081V34.4531H173.544ZM184.781 34.6222C184.297 34.6222 183.86 34.5327 183.468 34.3537C183.077 34.1714 182.767 33.9079 182.539 33.5632C182.313 33.2185 182.201 32.7959 182.201 32.2955C182.201 31.8646 182.284 31.5099 182.449 31.2315C182.615 30.9531 182.839 30.7327 183.12 30.5703C183.402 30.4079 183.717 30.2853 184.065 30.2024C184.413 30.1196 184.768 30.0566 185.129 30.0135C185.586 29.9605 185.958 29.9174 186.243 29.8842C186.528 29.8478 186.735 29.7898 186.864 29.7102C186.993 29.6307 187.058 29.5014 187.058 29.3224V29.2876C187.058 28.8535 186.935 28.517 186.69 28.2784C186.448 28.0398 186.087 27.9205 185.606 27.9205C185.106 27.9205 184.711 28.0315 184.423 28.2536C184.138 28.4723 183.941 28.7159 183.831 28.9844L182.434 28.6662C182.6 28.2022 182.842 27.8277 183.16 27.5426C183.482 27.2543 183.851 27.0455 184.269 26.9162C184.686 26.7836 185.126 26.7173 185.586 26.7173C185.891 26.7173 186.214 26.7538 186.556 26.8267C186.9 26.8963 187.222 27.0256 187.52 27.2145C187.822 27.4034 188.069 27.6735 188.261 28.0249C188.453 28.3729 188.549 28.8253 188.549 29.3821V34.4531H187.098V33.4091H187.038C186.942 33.6013 186.798 33.7902 186.606 33.9759C186.413 34.1615 186.166 34.3156 185.865 34.4382C185.563 34.5608 185.202 34.6222 184.781 34.6222ZM185.104 33.429C185.515 33.429 185.866 33.3478 186.158 33.1854C186.453 33.023 186.677 32.8108 186.829 32.549C186.985 32.2839 187.063 32.0005 187.063 31.6989V30.7145C187.01 30.7675 186.907 30.8172 186.755 30.8636C186.606 30.9067 186.435 30.9448 186.243 30.978C186.05 31.0078 185.863 31.036 185.681 31.0625C185.499 31.0857 185.346 31.1056 185.223 31.1222C184.935 31.1586 184.672 31.2199 184.433 31.3061C184.198 31.3923 184.009 31.5166 183.866 31.679C183.727 31.8381 183.657 32.0502 183.657 32.3153C183.657 32.6832 183.793 32.9616 184.065 33.1506C184.337 33.3362 184.683 33.429 185.104 33.429ZM191.442 37.3168C191.22 37.3168 191.018 37.2985 190.836 37.2621C190.654 37.2289 190.518 37.1925 190.428 37.1527L190.786 35.9347C191.058 36.0076 191.3 36.0391 191.512 36.0291C191.724 36.0192 191.911 35.9396 192.074 35.7905C192.24 35.6413 192.385 35.3977 192.511 35.0597L192.695 34.5526L189.901 26.8168H191.492L193.426 32.7429H193.506L195.44 26.8168H197.035L193.888 35.4723C193.743 35.87 193.557 36.2064 193.332 36.4815C193.106 36.7599 192.838 36.9688 192.526 37.108C192.215 37.2472 191.853 37.3168 191.442 37.3168ZM202.631 34.4531V26.8168H204.118V34.4531H202.631ZM203.382 25.6385C203.123 25.6385 202.901 25.5523 202.716 25.38C202.533 25.2043 202.442 24.9955 202.442 24.7536C202.442 24.5083 202.533 24.2995 202.716 24.1271C202.901 23.9515 203.123 23.8636 203.382 23.8636C203.64 23.8636 203.861 23.9515 204.043 24.1271C204.229 24.2995 204.322 24.5083 204.322 24.7536C204.322 24.9955 204.229 25.2043 204.043 25.38C203.861 25.5523 203.64 25.6385 203.382 25.6385ZM207.851 29.919V34.4531H206.364V26.8168H207.791V28.0597H207.886C208.061 27.6553 208.336 27.3305 208.711 27.0852C209.089 26.84 209.564 26.7173 210.138 26.7173C210.658 26.7173 211.114 26.8267 211.505 27.0455C211.896 27.2609 212.199 27.5824 212.415 28.0099C212.63 28.4375 212.738 28.9661 212.738 29.5959V34.4531H211.251V29.7749C211.251 29.2214 211.107 28.7888 210.819 28.4773C210.531 28.1624 210.135 28.005 209.631 28.005C209.286 28.005 208.979 28.0795 208.711 28.2287C208.446 28.3778 208.235 28.5966 208.08 28.8849C207.927 29.17 207.851 29.5147 207.851 29.919Z" fill="#596780"/>
<path d="M178.243 60.6321C177.365 60.6321 176.581 60.4808 175.89 60.1783C175.204 59.8757 174.661 59.456 174.26 58.919C173.864 58.3778 173.651 57.7514 173.621 57.0398H175.628C175.654 57.4276 175.784 57.7642 176.018 58.0497C176.257 58.331 176.568 58.5483 176.951 58.7017C177.335 58.8551 177.761 58.9318 178.23 58.9318C178.745 58.9318 179.201 58.8423 179.598 58.6634C179.998 58.4844 180.311 58.2351 180.537 57.9155C180.763 57.5916 180.876 57.2188 180.876 56.7969C180.876 56.358 180.763 55.9723 180.537 55.6399C180.316 55.3033 179.99 55.0391 179.559 54.8473C179.133 54.6555 178.618 54.5597 178.012 54.5597H176.907V52.9489H178.012C178.498 52.9489 178.924 52.8615 179.291 52.6868C179.662 52.5121 179.951 52.2692 180.16 51.9581C180.369 51.6428 180.473 51.2741 180.473 50.8523C180.473 50.4474 180.382 50.0959 180.199 49.7976C180.02 49.495 179.764 49.2585 179.431 49.0881C179.103 48.9176 178.716 48.8324 178.268 48.8324C177.842 48.8324 177.444 48.9112 177.073 49.0689C176.706 49.2223 176.408 49.4439 176.178 49.7337C175.948 50.0192 175.824 50.3622 175.807 50.7628H173.896C173.917 50.0554 174.126 49.4332 174.522 48.8963C174.923 48.3594 175.451 47.9396 176.108 47.6371C176.764 47.3345 177.493 47.1832 178.294 47.1832C179.133 47.1832 179.858 47.3473 180.467 47.6754C181.081 47.9993 181.554 48.4318 181.886 48.973C182.223 49.5142 182.389 50.1065 182.385 50.75C182.389 51.483 182.184 52.1051 181.771 52.6165C181.362 53.1278 180.816 53.4709 180.135 53.6456V53.7479C181.004 53.88 181.677 54.2251 182.154 54.7834C182.636 55.3416 182.875 56.0341 182.87 56.8608C182.875 57.581 182.674 58.2266 182.27 58.7976C181.869 59.3686 181.321 59.8182 180.627 60.1463C179.932 60.4702 179.137 60.6321 178.243 60.6321ZM190.57 60.4531V50.6349H192.404V52.233H192.525C192.73 51.6918 193.065 51.2699 193.529 50.9673C193.994 50.6605 194.55 50.5071 195.197 50.5071C195.854 50.5071 196.403 50.6605 196.847 50.9673C197.294 51.2741 197.624 51.696 197.837 52.233H197.94C198.174 51.7088 198.547 51.2912 199.058 50.9801C199.57 50.6648 200.179 50.5071 200.886 50.5071C201.777 50.5071 202.503 50.7862 203.066 51.3445C203.633 51.9027 203.916 52.7443 203.916 53.8693V60.4531H202.005V54.0483C202.005 53.3835 201.824 52.902 201.462 52.6037C201.099 52.3054 200.667 52.1562 200.164 52.1562C199.542 52.1562 199.058 52.348 198.713 52.7315C198.368 53.1108 198.195 53.5987 198.195 54.1953V60.4531H196.29V53.9268C196.29 53.3942 196.124 52.9659 195.792 52.642C195.459 52.3182 195.027 52.1562 194.494 52.1562C194.132 52.1562 193.798 52.2521 193.491 52.4439C193.188 52.6314 192.943 52.8935 192.756 53.2301C192.572 53.5668 192.481 53.9567 192.481 54.3999V60.4531H190.57ZM210.86 60.6513C209.94 60.6513 209.137 60.4403 208.45 60.0185C207.764 59.5966 207.232 59.0064 206.852 58.2479C206.473 57.4893 206.284 56.603 206.284 55.5888C206.284 54.5703 206.473 53.6797 206.852 52.9169C207.232 52.1541 207.764 51.5618 208.45 51.1399C209.137 50.718 209.94 50.5071 210.86 50.5071C211.781 50.5071 212.584 50.718 213.27 51.1399C213.956 51.5618 214.489 52.1541 214.868 52.9169C215.247 53.6797 215.437 54.5703 215.437 55.5888C215.437 56.603 215.247 57.4893 214.868 58.2479C214.489 59.0064 213.956 59.5966 213.27 60.0185C212.584 60.4403 211.781 60.6513 210.86 60.6513ZM210.867 59.0469C211.463 59.0469 211.958 58.8892 212.35 58.5739C212.742 58.2585 213.031 57.8388 213.219 57.3146C213.411 56.7905 213.507 56.2131 213.507 55.5824C213.507 54.956 213.411 54.3807 213.219 53.8565C213.031 53.3281 212.742 52.9041 212.35 52.5845C211.958 52.2649 211.463 52.1051 210.867 52.1051C210.266 52.1051 209.767 52.2649 209.371 52.5845C208.979 52.9041 208.687 53.3281 208.495 53.8565C208.308 54.3807 208.214 54.956 208.214 55.5824C208.214 56.2131 208.308 56.7905 208.495 57.3146C208.687 57.8388 208.979 58.2585 209.371 58.5739C209.767 58.8892 210.266 59.0469 210.867 59.0469ZM219.728 54.6236V60.4531H217.817V50.6349H219.652V52.233H219.773C219.999 51.7131 220.353 51.2955 220.834 50.9801C221.32 50.6648 221.931 50.5071 222.669 50.5071C223.338 50.5071 223.924 50.6477 224.427 50.929C224.929 51.206 225.319 51.6193 225.596 52.169C225.873 52.7187 226.012 53.3984 226.012 54.2081V60.4531H224.101V54.4382C224.101 53.7266 223.915 53.1705 223.544 52.7699C223.174 52.3651 222.664 52.1626 222.017 52.1626C221.574 52.1626 221.179 52.2585 220.834 52.4503C220.493 52.642 220.223 52.9233 220.022 53.294C219.826 53.6605 219.728 54.1037 219.728 54.6236ZM233.405 50.6349V52.169H228.042V50.6349H233.405ZM229.48 48.2827H231.391V57.5703C231.391 57.9411 231.447 58.2202 231.558 58.4077C231.668 58.5909 231.811 58.7166 231.986 58.7848C232.165 58.8487 232.359 58.8807 232.568 58.8807C232.721 58.8807 232.855 58.87 232.97 58.8487C233.085 58.8274 233.175 58.8104 233.239 58.7976L233.584 60.3764C233.473 60.419 233.315 60.4616 233.111 60.5043C232.906 60.5511 232.651 60.5767 232.344 60.581C231.841 60.5895 231.372 60.5 230.938 60.3125C230.503 60.125 230.151 59.8352 229.883 59.4432C229.614 59.0511 229.48 58.5589 229.48 57.9666V48.2827ZM237.888 54.6236V60.4531H235.977V47.3622H237.863V52.233H237.984C238.214 51.7045 238.566 51.2848 239.039 50.9737C239.512 50.6626 240.13 50.5071 240.892 50.5071C241.566 50.5071 242.154 50.6456 242.657 50.9226C243.164 51.1996 243.556 51.6129 243.833 52.1626C244.114 52.7081 244.255 53.3899 244.255 54.2081V60.4531H242.343V54.4382C242.343 53.718 242.158 53.1598 241.787 52.7635C241.416 52.3629 240.901 52.1626 240.24 52.1626C239.789 52.1626 239.384 52.2585 239.026 52.4503C238.672 52.642 238.393 52.9233 238.189 53.294C237.988 53.6605 237.888 54.1037 237.888 54.6236ZM254.409 53.032L252.677 53.3388C252.604 53.1172 252.489 52.9062 252.332 52.706C252.178 52.5057 251.969 52.3416 251.705 52.2138C251.441 52.0859 251.111 52.022 250.714 52.022C250.173 52.022 249.722 52.1435 249.359 52.3864C248.997 52.625 248.816 52.9339 248.816 53.3132C248.816 53.6413 248.937 53.9055 249.18 54.1058C249.423 54.3061 249.815 54.4702 250.357 54.598L251.916 54.956C252.82 55.1648 253.493 55.4865 253.936 55.9212C254.379 56.3558 254.601 56.9205 254.601 57.6151C254.601 58.2031 254.43 58.7273 254.089 59.1875C253.753 59.6435 253.282 60.0014 252.677 60.2614C252.076 60.5213 251.379 60.6513 250.587 60.6513C249.487 60.6513 248.59 60.4169 247.896 59.9482C247.201 59.4751 246.775 58.804 246.617 57.9347L248.464 57.6534C248.58 58.1349 248.816 58.4993 249.174 58.7464C249.532 58.9893 249.999 59.1108 250.574 59.1108C251.2 59.1108 251.701 58.9808 252.076 58.7209C252.451 58.4567 252.638 58.1349 252.638 57.7557C252.638 57.4489 252.523 57.1911 252.293 56.9822C252.067 56.7734 251.72 56.6158 251.251 56.5092L249.589 56.1449C248.673 55.9361 247.996 55.6037 247.557 55.1477C247.122 54.6918 246.905 54.1143 246.905 53.4155C246.905 52.8359 247.067 52.3288 247.391 51.8942C247.714 51.4595 248.162 51.1207 248.733 50.8778C249.304 50.6307 249.958 50.5071 250.695 50.5071C251.756 50.5071 252.592 50.7372 253.201 51.1974C253.81 51.6534 254.213 52.2649 254.409 53.032Z" fill="#323B4B"/>
<path d="M374.286 34.4531V24.2713H377.915C378.707 24.2713 379.363 24.4155 379.884 24.7038C380.404 24.9922 380.793 25.3866 381.052 25.8871C381.31 26.3842 381.44 26.9444 381.44 27.5675C381.44 28.1939 381.309 28.7573 381.047 29.2578C380.788 29.755 380.397 30.1494 379.874 30.4411C379.353 30.7294 378.699 30.8736 377.91 30.8736H375.414V29.571H377.771C378.271 29.571 378.677 29.4848 378.989 29.3125C379.3 29.1368 379.529 28.8982 379.675 28.5966C379.821 28.295 379.894 27.9519 379.894 27.5675C379.894 27.183 379.821 26.8416 379.675 26.5433C379.529 26.245 379.299 26.0114 378.984 25.8423C378.672 25.6733 378.261 25.5888 377.751 25.5888H375.822V34.4531H374.286ZM386.564 34.6072C385.811 34.6072 385.163 34.4465 384.62 34.125C384.08 33.8002 383.662 33.3445 383.367 32.7578C383.075 32.1679 382.929 31.4768 382.929 30.6847C382.929 29.9025 383.075 29.2131 383.367 28.6165C383.662 28.0199 384.073 27.5542 384.6 27.2195C385.13 26.8847 385.75 26.7173 386.459 26.7173C386.89 26.7173 387.308 26.7886 387.712 26.9311C388.116 27.0736 388.479 27.2973 388.801 27.6023C389.122 27.9072 389.376 28.3033 389.562 28.7905C389.747 29.2744 389.84 29.8627 389.84 30.5554V31.0824H383.77V29.9688H388.383C388.383 29.5777 388.304 29.2313 388.145 28.9297C387.986 28.6248 387.762 28.3845 387.474 28.2088C387.188 28.0331 386.854 27.9453 386.469 27.9453C386.052 27.9453 385.687 28.0481 385.375 28.2536C385.067 28.4557 384.829 28.7209 384.66 29.049C384.494 29.3738 384.411 29.7268 384.411 30.108V30.978C384.411 31.4884 384.5 31.9226 384.679 32.2805C384.862 32.6385 385.115 32.9119 385.44 33.1009C385.765 33.2865 386.144 33.3793 386.579 33.3793C386.86 33.3793 387.117 33.3395 387.349 33.2599C387.581 33.1771 387.782 33.0545 387.951 32.892C388.12 32.7296 388.249 32.5291 388.339 32.2905L389.746 32.544C389.633 32.9583 389.431 33.3213 389.139 33.6328C388.851 33.9411 388.488 34.1813 388.05 34.3537C387.616 34.5227 387.121 34.6072 386.564 34.6072ZM391.736 34.4531V26.8168H393.173V28.0298H393.252C393.392 27.6188 393.637 27.2957 393.988 27.0604C394.343 26.8217 394.744 26.7024 395.191 26.7024C395.284 26.7024 395.394 26.7057 395.52 26.7124C395.649 26.719 395.75 26.7273 395.823 26.7372V28.1591C395.763 28.1425 395.657 28.1243 395.505 28.1044C395.352 28.0812 395.2 28.0696 395.047 28.0696C394.696 28.0696 394.383 28.1442 394.108 28.2933C393.836 28.4392 393.62 28.643 393.461 28.9048C393.302 29.1634 393.223 29.4583 393.223 29.7898V34.4531H391.736ZM401.308 34.4531V26.8168H402.735V28.0597H402.829C402.988 27.6387 403.249 27.3106 403.61 27.0753C403.971 26.8366 404.404 26.7173 404.907 26.7173C405.418 26.7173 405.845 26.8366 406.19 27.0753C406.538 27.3139 406.795 27.642 406.961 28.0597H407.04C407.223 27.652 407.513 27.3272 407.91 27.0852C408.308 26.84 408.782 26.7173 409.332 26.7173C410.025 26.7173 410.59 26.9344 411.027 27.3686C411.468 27.8028 411.689 28.4574 411.689 29.3324V34.4531H410.202V29.4716C410.202 28.9545 410.061 28.58 409.78 28.348C409.498 28.116 409.161 28 408.77 28C408.286 28 407.91 28.1491 407.642 28.4474C407.373 28.7424 407.239 29.1219 407.239 29.5859V34.4531H405.758V29.3771C405.758 28.9628 405.628 28.6297 405.37 28.3778C405.111 28.1259 404.775 28 404.361 28C404.079 28 403.819 28.0746 403.58 28.2237C403.345 28.3696 403.154 28.5734 403.008 28.8352C402.866 29.0971 402.794 29.4003 402.794 29.745V34.4531H401.308ZM417.145 34.6072C416.429 34.6072 415.804 34.4432 415.27 34.1151C414.737 33.7869 414.322 33.3279 414.027 32.7379C413.732 32.148 413.585 31.4586 413.585 30.6697C413.585 29.8776 413.732 29.1849 414.027 28.5916C414.322 27.9983 414.737 27.5376 415.27 27.2095C415.804 26.8814 416.429 26.7173 417.145 26.7173C417.86 26.7173 418.485 26.8814 419.019 27.2095C419.552 27.5376 419.967 27.9983 420.262 28.5916C420.557 29.1849 420.704 29.8776 420.704 30.6697C420.704 31.4586 420.557 32.148 420.262 32.7379C419.967 33.3279 419.552 33.7869 419.019 34.1151C418.485 34.4432 417.86 34.6072 417.145 34.6072ZM417.149 33.3594C417.613 33.3594 417.998 33.2367 418.303 32.9915C418.608 32.7462 418.833 32.4197 418.979 32.0121C419.128 31.6044 419.203 31.1553 419.203 30.6648C419.203 30.1776 419.128 29.7301 418.979 29.3224C418.833 28.9115 418.608 28.5817 418.303 28.3331C417.998 28.0845 417.613 27.9602 417.149 27.9602C416.682 27.9602 416.294 28.0845 415.986 28.3331C415.681 28.5817 415.454 28.9115 415.305 29.3224C415.159 29.7301 415.086 30.1776 415.086 30.6648C415.086 31.1553 415.159 31.6044 415.305 32.0121C415.454 32.4197 415.681 32.7462 415.986 32.9915C416.294 33.2367 416.682 33.3594 417.149 33.3594ZM424.097 29.919V34.4531H422.61V26.8168H424.037V28.0597H424.132C424.307 27.6553 424.582 27.3305 424.957 27.0852C425.335 26.84 425.81 26.7173 426.384 26.7173C426.904 26.7173 427.36 26.8267 427.751 27.0455C428.142 27.2609 428.445 27.5824 428.661 28.0099C428.876 28.4375 428.984 28.9661 428.984 29.5959V34.4531H427.497V29.7749C427.497 29.2214 427.353 28.7888 427.065 28.4773C426.776 28.1624 426.38 28.005 425.877 28.005C425.532 28.005 425.225 28.0795 424.957 28.2287C424.692 28.3778 424.481 28.5966 424.325 28.8849C424.173 29.17 424.097 29.5147 424.097 29.919ZM434.789 26.8168V28.0099H430.618V26.8168H434.789ZM431.736 24.9872H433.223V32.2109C433.223 32.4993 433.266 32.7164 433.352 32.8622C433.438 33.0047 433.549 33.1025 433.685 33.1555C433.824 33.2053 433.975 33.2301 434.138 33.2301C434.257 33.2301 434.361 33.2218 434.451 33.2053C434.54 33.1887 434.61 33.1754 434.66 33.1655L434.928 34.3935C434.842 34.4266 434.719 34.4598 434.56 34.4929C434.401 34.5294 434.202 34.5492 433.964 34.5526C433.573 34.5592 433.208 34.4896 432.87 34.3438C432.532 34.1979 432.258 33.9725 432.05 33.6676C431.841 33.3627 431.736 32.9799 431.736 32.5192V24.9872ZM438.331 29.919V34.4531H436.844V24.2713H438.311V28.0597H438.405C438.584 27.6487 438.858 27.3222 439.226 27.0803C439.594 26.8383 440.074 26.7173 440.667 26.7173C441.191 26.7173 441.648 26.825 442.04 27.0405C442.434 27.2559 442.739 27.5774 442.954 28.005C443.173 28.4292 443.282 28.9595 443.282 29.5959V34.4531H441.796V29.7749C441.796 29.2147 441.652 28.7805 441.363 28.4723C441.075 28.1607 440.674 28.005 440.16 28.005C439.809 28.005 439.494 28.0795 439.216 28.2287C438.941 28.3778 438.723 28.5966 438.564 28.8849C438.409 29.17 438.331 29.5147 438.331 29.919Z" fill="#596780"/>
<path d="M382.551 50.5071L382.103 52.0859H373.723L374.171 50.5071H382.551ZM378.472 60.4531L373.896 54.8984L373.883 53.652H376.152C376.719 53.652 377.198 53.5646 377.59 53.3899C377.982 53.2152 378.281 52.9616 378.485 52.6293C378.69 52.2926 378.792 51.8835 378.792 51.402C378.792 50.6861 378.579 50.1172 378.153 49.6953C377.727 49.2734 377.06 49.0625 376.152 49.0625H373.723L374.19 47.3622H376.152C377.209 47.3622 378.08 47.5305 378.766 47.8672C379.453 48.2038 379.964 48.6705 380.301 49.267C380.637 49.8636 380.805 50.5518 380.805 51.3317C380.805 52.0263 380.667 52.6548 380.39 53.2173C380.113 53.7798 379.672 54.2379 379.067 54.5916C378.462 54.9453 377.667 55.152 376.683 55.2116L376.625 55.2244L380.805 60.3445V60.4531H378.472ZM382.557 47.3622L382.103 48.9538L375.404 48.9155L375.858 47.3622H382.557ZM389.554 47.3622V60.4531H387.572V49.3438H387.496L384.363 51.3892V49.4972L387.63 47.3622H389.554ZM393.342 60.4531V59.0213L397.771 54.4318C398.245 53.9332 398.634 53.4964 398.941 53.1214C399.252 52.7422 399.485 52.3821 399.638 52.0412C399.791 51.7003 399.868 51.3381 399.868 50.9545C399.868 50.5199 399.766 50.1449 399.561 49.8295C399.357 49.5099 399.078 49.2649 398.724 49.0945C398.37 48.9197 397.972 48.8324 397.529 48.8324C397.06 48.8324 396.651 48.9283 396.301 49.12C395.952 49.3118 395.683 49.5824 395.496 49.9318C395.308 50.2812 395.215 50.6903 395.215 51.1591H393.329C393.329 50.3622 393.512 49.6655 393.879 49.0689C394.245 48.4723 394.748 48.0099 395.387 47.6818C396.026 47.3494 396.753 47.1832 397.567 47.1832C398.389 47.1832 399.114 47.3473 399.74 47.6754C400.371 47.9993 400.863 48.4425 401.217 49.005C401.57 49.5632 401.747 50.1939 401.747 50.897C401.747 51.3828 401.656 51.858 401.472 52.3224C401.294 52.7869 400.98 53.3047 400.533 53.8757C400.085 54.4425 399.463 55.1307 398.666 55.9403L396.065 58.6634V58.7592H401.958V60.4531H393.342ZM409.185 60.6705C408.175 60.6662 407.312 60.3999 406.596 59.8714C405.881 59.343 405.333 58.5739 404.954 57.5639C404.574 56.554 404.385 55.3374 404.385 53.9141C404.385 52.495 404.574 51.2827 404.954 50.277C405.337 49.2713 405.887 48.5043 406.603 47.9759C407.323 47.4474 408.184 47.1832 409.185 47.1832C410.187 47.1832 411.045 47.4496 411.761 47.9822C412.477 48.5107 413.025 49.2777 413.404 50.2834C413.788 51.2848 413.979 52.495 413.979 53.9141C413.979 55.3416 413.79 56.5604 413.41 57.5703C413.031 58.576 412.484 59.3452 411.768 59.8778C411.052 60.4063 410.191 60.6705 409.185 60.6705ZM409.185 58.9638C410.072 58.9638 410.764 58.5312 411.263 57.6662C411.766 56.8011 412.017 55.5504 412.017 53.9141C412.017 52.8274 411.902 51.9091 411.672 51.1591C411.446 50.4048 411.12 49.8338 410.694 49.446C410.272 49.054 409.769 48.858 409.185 48.858C408.303 48.858 407.611 49.2926 407.108 50.1619C406.605 51.0312 406.351 52.282 406.347 53.9141C406.347 55.005 406.46 55.9276 406.686 56.6818C406.916 57.4318 407.242 58.0007 407.664 58.3885C408.086 58.772 408.593 58.9638 409.185 58.9638ZM421.051 60.6705C420.041 60.6662 419.178 60.3999 418.462 59.8714C417.747 59.343 417.199 58.5739 416.82 57.5639C416.44 56.554 416.251 55.3374 416.251 53.9141C416.251 52.495 416.44 51.2827 416.82 50.277C417.203 49.2713 417.753 48.5043 418.469 47.9759C419.189 47.4474 420.05 47.1832 421.051 47.1832C422.053 47.1832 422.911 47.4496 423.627 47.9822C424.343 48.5107 424.891 49.2777 425.27 50.2834C425.654 51.2848 425.845 52.495 425.845 53.9141C425.845 55.3416 425.656 56.5604 425.276 57.5703C424.897 58.576 424.35 59.3452 423.634 59.8778C422.918 60.4063 422.057 60.6705 421.051 60.6705ZM421.051 58.9638C421.938 58.9638 422.63 58.5312 423.129 57.6662C423.631 56.8011 423.883 55.5504 423.883 53.9141C423.883 52.8274 423.768 51.9091 423.538 51.1591C423.312 50.4048 422.986 49.8338 422.56 49.446C422.138 49.054 421.635 48.858 421.051 48.858C420.169 48.858 419.477 49.2926 418.974 50.1619C418.471 51.0312 418.217 52.282 418.213 53.9141C418.213 55.005 418.326 55.9276 418.552 56.6818C418.782 57.4318 419.108 58.0007 419.53 58.3885C419.952 58.772 420.459 58.9638 421.051 58.9638Z" fill="#323B4B"/>
<rect opacity="0.3" x="49.6171" y="423.617" width="632.766" height="86.7657" rx="17.3829" fill="#F7F7F7" stroke="#747A80" stroke-width="1.23427"/>
<circle opacity="0.3" cx="99.5586" cy="467.09" r="16.6171" fill="white" stroke="#747A80" stroke-width="1.23427"/>
<path d="M173.544 457.453V447.271H177.174C177.966 447.271 178.622 447.415 179.142 447.704C179.663 447.992 180.052 448.387 180.311 448.887C180.569 449.384 180.699 449.944 180.699 450.567C180.699 451.194 180.568 451.757 180.306 452.258C180.047 452.755 179.656 453.149 179.132 453.441C178.612 453.729 177.958 453.874 177.169 453.874H174.673V452.571H177.029C177.53 452.571 177.936 452.485 178.248 452.312C178.559 452.137 178.788 451.898 178.934 451.597C179.079 451.295 179.152 450.952 179.152 450.567C179.152 450.183 179.079 449.842 178.934 449.543C178.788 449.245 178.557 449.011 178.243 448.842C177.931 448.673 177.52 448.589 177.01 448.589H175.081V457.453H173.544ZM184.781 457.622C184.297 457.622 183.86 457.533 183.468 457.354C183.077 457.171 182.767 456.908 182.539 456.563C182.313 456.219 182.201 455.796 182.201 455.295C182.201 454.865 182.284 454.51 182.449 454.232C182.615 453.953 182.839 453.733 183.12 453.57C183.402 453.408 183.717 453.285 184.065 453.202C184.413 453.12 184.768 453.057 185.129 453.013C185.586 452.96 185.958 452.917 186.243 452.884C186.528 452.848 186.735 452.79 186.864 452.71C186.993 452.631 187.058 452.501 187.058 452.322V452.288C187.058 451.853 186.935 451.517 186.69 451.278C186.448 451.04 186.087 450.92 185.606 450.92C185.106 450.92 184.711 451.031 184.423 451.254C184.138 451.472 183.941 451.716 183.831 451.984L182.434 451.666C182.6 451.202 182.842 450.828 183.16 450.543C183.482 450.254 183.851 450.045 184.269 449.916C184.686 449.784 185.126 449.717 185.586 449.717C185.891 449.717 186.214 449.754 186.556 449.827C186.9 449.896 187.222 450.026 187.52 450.214C187.822 450.403 188.069 450.674 188.261 451.025C188.453 451.373 188.549 451.825 188.549 452.382V457.453H187.098V456.409H187.038C186.942 456.601 186.798 456.79 186.606 456.976C186.413 457.161 186.166 457.316 185.865 457.438C185.563 457.561 185.202 457.622 184.781 457.622ZM185.104 456.429C185.515 456.429 185.866 456.348 186.158 456.185C186.453 456.023 186.677 455.811 186.829 455.549C186.985 455.284 187.063 455 187.063 454.699V453.714C187.01 453.768 186.907 453.817 186.755 453.864C186.606 453.907 186.435 453.945 186.243 453.978C186.05 454.008 185.863 454.036 185.681 454.062C185.499 454.086 185.346 454.106 185.223 454.122C184.935 454.159 184.672 454.22 184.433 454.306C184.198 454.392 184.009 454.517 183.866 454.679C183.727 454.838 183.657 455.05 183.657 455.315C183.657 455.683 183.793 455.962 184.065 456.151C184.337 456.336 184.683 456.429 185.104 456.429ZM191.442 460.317C191.22 460.317 191.018 460.299 190.836 460.262C190.654 460.229 190.518 460.192 190.428 460.153L190.786 458.935C191.058 459.008 191.3 459.039 191.512 459.029C191.724 459.019 191.911 458.94 192.074 458.79C192.24 458.641 192.385 458.398 192.511 458.06L192.695 457.553L189.901 449.817H191.492L193.426 455.743H193.506L195.44 449.817H197.035L193.888 458.472C193.743 458.87 193.557 459.206 193.332 459.482C193.106 459.76 192.838 459.969 192.526 460.108C192.215 460.247 191.853 460.317 191.442 460.317ZM202.631 457.453V449.817H204.118V457.453H202.631ZM203.382 448.638C203.123 448.638 202.901 448.552 202.716 448.38C202.533 448.204 202.442 447.996 202.442 447.754C202.442 447.508 202.533 447.299 202.716 447.127C202.901 446.951 203.123 446.864 203.382 446.864C203.64 446.864 203.861 446.951 204.043 447.127C204.229 447.299 204.322 447.508 204.322 447.754C204.322 447.996 204.229 448.204 204.043 448.38C203.861 448.552 203.64 448.638 203.382 448.638ZM207.851 452.919V457.453H206.364V449.817H207.791V451.06H207.886C208.061 450.655 208.336 450.33 208.711 450.085C209.089 449.84 209.564 449.717 210.138 449.717C210.658 449.717 211.114 449.827 211.505 450.045C211.896 450.261 212.199 450.582 212.415 451.01C212.63 451.437 212.738 451.966 212.738 452.596V457.453H211.251V452.775C211.251 452.221 211.107 451.789 210.819 451.477C210.531 451.162 210.135 451.005 209.631 451.005C209.286 451.005 208.979 451.08 208.711 451.229C208.446 451.378 208.235 451.597 208.08 451.885C207.927 452.17 207.851 452.515 207.851 452.919Z" fill="#596780"/>
<path d="M178.652 470.362V483.453H176.67V472.344H176.593L173.461 474.389V472.497L176.728 470.362H178.652ZM182.44 483.453V482.021L186.869 477.432C187.342 476.933 187.732 476.496 188.039 476.121C188.35 475.742 188.582 475.382 188.736 475.041C188.889 474.7 188.966 474.338 188.966 473.955C188.966 473.52 188.864 473.145 188.659 472.83C188.455 472.51 188.175 472.265 187.822 472.094C187.468 471.92 187.07 471.832 186.626 471.832C186.158 471.832 185.749 471.928 185.399 472.12C185.05 472.312 184.781 472.582 184.594 472.932C184.406 473.281 184.313 473.69 184.313 474.159H182.427C182.427 473.362 182.61 472.665 182.977 472.069C183.343 471.472 183.846 471.01 184.485 470.682C185.124 470.349 185.851 470.183 186.665 470.183C187.487 470.183 188.212 470.347 188.838 470.675C189.469 470.999 189.961 471.442 190.315 472.005C190.668 472.563 190.845 473.194 190.845 473.897C190.845 474.383 190.754 474.858 190.57 475.322C190.391 475.787 190.078 476.305 189.631 476.876C189.183 477.442 188.561 478.131 187.764 478.94L185.163 481.663V481.759H191.056V483.453H182.44ZM198.762 483.453V473.635H200.596V475.233H200.718C200.922 474.692 201.257 474.27 201.721 473.967C202.186 473.661 202.742 473.507 203.39 473.507C204.046 473.507 204.595 473.661 205.039 473.967C205.486 474.274 205.816 474.696 206.029 475.233H206.132C206.366 474.709 206.739 474.291 207.25 473.98C207.762 473.665 208.371 473.507 209.078 473.507C209.969 473.507 210.696 473.786 211.258 474.344C211.825 474.903 212.108 475.744 212.108 476.869V483.453H210.197V477.048C210.197 476.384 210.016 475.902 209.654 475.604C209.292 475.305 208.859 475.156 208.356 475.156C207.734 475.156 207.25 475.348 206.905 475.732C206.56 476.111 206.387 476.599 206.387 477.195V483.453H204.483V476.927C204.483 476.394 204.316 475.966 203.984 475.642C203.652 475.318 203.219 475.156 202.686 475.156C202.324 475.156 201.99 475.252 201.683 475.444C201.38 475.631 201.135 475.893 200.948 476.23C200.765 476.567 200.673 476.957 200.673 477.4V483.453H198.762ZM219.052 483.651C218.132 483.651 217.329 483.44 216.643 483.018C215.957 482.597 215.424 482.006 215.045 481.248C214.665 480.489 214.476 479.603 214.476 478.589C214.476 477.57 214.665 476.68 215.045 475.917C215.424 475.154 215.957 474.562 216.643 474.14C217.329 473.718 218.132 473.507 219.052 473.507C219.973 473.507 220.776 473.718 221.462 474.14C222.148 474.562 222.681 475.154 223.06 475.917C223.439 476.68 223.629 477.57 223.629 478.589C223.629 479.603 223.439 480.489 223.06 481.248C222.681 482.006 222.148 482.597 221.462 483.018C220.776 483.44 219.973 483.651 219.052 483.651ZM219.059 482.047C219.655 482.047 220.15 481.889 220.542 481.574C220.934 481.259 221.224 480.839 221.411 480.315C221.603 479.79 221.699 479.213 221.699 478.582C221.699 477.956 221.603 477.381 221.411 476.857C221.224 476.328 220.934 475.904 220.542 475.585C220.15 475.265 219.655 475.105 219.059 475.105C218.458 475.105 217.959 475.265 217.563 475.585C217.171 475.904 216.879 476.328 216.687 476.857C216.5 477.381 216.406 477.956 216.406 478.582C216.406 479.213 216.5 479.79 216.687 480.315C216.879 480.839 217.171 481.259 217.563 481.574C217.959 481.889 218.458 482.047 219.059 482.047ZM227.921 477.624V483.453H226.009V473.635H227.844V475.233H227.965C228.191 474.713 228.545 474.295 229.026 473.98C229.512 473.665 230.124 473.507 230.861 473.507C231.53 473.507 232.116 473.648 232.619 473.929C233.122 474.206 233.511 474.619 233.788 475.169C234.065 475.719 234.204 476.398 234.204 477.208V483.453H232.293V477.438C232.293 476.727 232.107 476.17 231.737 475.77C231.366 475.365 230.857 475.163 230.209 475.163C229.766 475.163 229.372 475.259 229.026 475.45C228.685 475.642 228.415 475.923 228.215 476.294C228.019 476.661 227.921 477.104 227.921 477.624ZM241.597 473.635V475.169H236.234V473.635H241.597ZM237.672 471.283H239.584V480.57C239.584 480.941 239.639 481.22 239.75 481.408C239.861 481.591 240.003 481.717 240.178 481.785C240.357 481.849 240.551 481.881 240.76 481.881C240.913 481.881 241.047 481.87 241.162 481.849C241.277 481.827 241.367 481.81 241.431 481.798L241.776 483.376C241.665 483.419 241.508 483.462 241.303 483.504C241.098 483.551 240.843 483.577 240.536 483.581C240.033 483.589 239.564 483.5 239.13 483.312C238.695 483.125 238.344 482.835 238.075 482.443C237.807 482.051 237.672 481.559 237.672 480.967V471.283ZM246.08 477.624V483.453H244.169V470.362H246.055V475.233H246.176C246.406 474.705 246.758 474.285 247.231 473.974C247.704 473.663 248.322 473.507 249.085 473.507C249.758 473.507 250.346 473.646 250.849 473.923C251.356 474.2 251.748 474.613 252.025 475.163C252.306 475.708 252.447 476.39 252.447 477.208V483.453H250.536V477.438C250.536 476.718 250.35 476.16 249.979 475.763C249.609 475.363 249.093 475.163 248.433 475.163C247.981 475.163 247.576 475.259 247.218 475.45C246.864 475.642 246.585 475.923 246.381 476.294C246.18 476.661 246.08 477.104 246.08 477.624ZM262.601 476.032L260.869 476.339C260.797 476.117 260.681 475.906 260.524 475.706C260.37 475.506 260.162 475.342 259.897 475.214C259.633 475.086 259.303 475.022 258.907 475.022C258.365 475.022 257.914 475.143 257.552 475.386C257.189 475.625 257.008 475.934 257.008 476.313C257.008 476.641 257.13 476.906 257.373 477.106C257.615 477.306 258.007 477.47 258.549 477.598L260.108 477.956C261.012 478.165 261.685 478.487 262.128 478.921C262.571 479.356 262.793 479.92 262.793 480.615C262.793 481.203 262.623 481.727 262.282 482.188C261.945 482.643 261.474 483.001 260.869 483.261C260.268 483.521 259.571 483.651 258.779 483.651C257.679 483.651 256.782 483.417 256.088 482.948C255.393 482.475 254.967 481.804 254.809 480.935L256.657 480.653C256.772 481.135 257.008 481.499 257.366 481.746C257.724 481.989 258.191 482.111 258.766 482.111C259.392 482.111 259.893 481.981 260.268 481.721C260.643 481.457 260.831 481.135 260.831 480.756C260.831 480.449 260.716 480.191 260.485 479.982C260.26 479.773 259.912 479.616 259.444 479.509L257.782 479.145C256.865 478.936 256.188 478.604 255.749 478.148C255.314 477.692 255.097 477.114 255.097 476.415C255.097 475.836 255.259 475.329 255.583 474.894C255.907 474.46 256.354 474.121 256.925 473.878C257.496 473.631 258.15 473.507 258.887 473.507C259.949 473.507 260.784 473.737 261.393 474.197C262.003 474.653 262.405 475.265 262.601 476.032Z" fill="#323B4B"/>
<path d="M374.286 457.453V447.271H377.915C378.707 447.271 379.363 447.415 379.884 447.704C380.404 447.992 380.793 448.387 381.052 448.887C381.31 449.384 381.44 449.944 381.44 450.567C381.44 451.194 381.309 451.757 381.047 452.258C380.788 452.755 380.397 453.149 379.874 453.441C379.353 453.729 378.699 453.874 377.91 453.874H375.414V452.571H377.771C378.271 452.571 378.677 452.485 378.989 452.312C379.3 452.137 379.529 451.898 379.675 451.597C379.821 451.295 379.894 450.952 379.894 450.567C379.894 450.183 379.821 449.842 379.675 449.543C379.529 449.245 379.299 449.011 378.984 448.842C378.672 448.673 378.261 448.589 377.751 448.589H375.822V457.453H374.286ZM386.564 457.607C385.811 457.607 385.163 457.446 384.62 457.125C384.08 456.8 383.662 456.344 383.367 455.758C383.075 455.168 382.929 454.477 382.929 453.685C382.929 452.902 383.075 452.213 383.367 451.616C383.662 451.02 384.073 450.554 384.6 450.219C385.13 449.885 385.75 449.717 386.459 449.717C386.89 449.717 387.308 449.789 387.712 449.931C388.116 450.074 388.479 450.297 388.801 450.602C389.122 450.907 389.376 451.303 389.562 451.79C389.747 452.274 389.84 452.863 389.84 453.555V454.082H383.77V452.969H388.383C388.383 452.578 388.304 452.231 388.145 451.93C387.986 451.625 387.762 451.384 387.474 451.209C387.188 451.033 386.854 450.945 386.469 450.945C386.052 450.945 385.687 451.048 385.375 451.254C385.067 451.456 384.829 451.721 384.66 452.049C384.494 452.374 384.411 452.727 384.411 453.108V453.978C384.411 454.488 384.5 454.923 384.679 455.281C384.862 455.638 385.115 455.912 385.44 456.101C385.765 456.286 386.144 456.379 386.579 456.379C386.86 456.379 387.117 456.339 387.349 456.26C387.581 456.177 387.782 456.054 387.951 455.892C388.12 455.73 388.249 455.529 388.339 455.29L389.746 455.544C389.633 455.958 389.431 456.321 389.139 456.633C388.851 456.941 388.488 457.181 388.05 457.354C387.616 457.523 387.121 457.607 386.564 457.607ZM391.736 457.453V449.817H393.173V451.03H393.252C393.392 450.619 393.637 450.296 393.988 450.06C394.343 449.822 394.744 449.702 395.191 449.702C395.284 449.702 395.394 449.706 395.52 449.712C395.649 449.719 395.75 449.727 395.823 449.737V451.159C395.763 451.143 395.657 451.124 395.505 451.104C395.352 451.081 395.2 451.07 395.047 451.07C394.696 451.07 394.383 451.144 394.108 451.293C393.836 451.439 393.62 451.643 393.461 451.905C393.302 452.163 393.223 452.458 393.223 452.79V457.453H391.736ZM401.308 457.453V449.817H402.735V451.06H402.829C402.988 450.639 403.249 450.311 403.61 450.075C403.971 449.837 404.404 449.717 404.907 449.717C405.418 449.717 405.845 449.837 406.19 450.075C406.538 450.314 406.795 450.642 406.961 451.06H407.04C407.223 450.652 407.513 450.327 407.91 450.085C408.308 449.84 408.782 449.717 409.332 449.717C410.025 449.717 410.59 449.934 411.027 450.369C411.468 450.803 411.689 451.457 411.689 452.332V457.453H410.202V452.472C410.202 451.955 410.061 451.58 409.78 451.348C409.498 451.116 409.161 451 408.77 451C408.286 451 407.91 451.149 407.642 451.447C407.373 451.742 407.239 452.122 407.239 452.586V457.453H405.758V452.377C405.758 451.963 405.628 451.63 405.37 451.378C405.111 451.126 404.775 451 404.361 451C404.079 451 403.819 451.075 403.58 451.224C403.345 451.37 403.154 451.573 403.008 451.835C402.866 452.097 402.794 452.4 402.794 452.745V457.453H401.308ZM417.145 457.607C416.429 457.607 415.804 457.443 415.27 457.115C414.737 456.787 414.322 456.328 414.027 455.738C413.732 455.148 413.585 454.459 413.585 453.67C413.585 452.878 413.732 452.185 414.027 451.592C414.322 450.998 414.737 450.538 415.27 450.21C415.804 449.881 416.429 449.717 417.145 449.717C417.86 449.717 418.485 449.881 419.019 450.21C419.552 450.538 419.967 450.998 420.262 451.592C420.557 452.185 420.704 452.878 420.704 453.67C420.704 454.459 420.557 455.148 420.262 455.738C419.967 456.328 419.552 456.787 419.019 457.115C418.485 457.443 417.86 457.607 417.145 457.607ZM417.149 456.359C417.613 456.359 417.998 456.237 418.303 455.991C418.608 455.746 418.833 455.42 418.979 455.012C419.128 454.604 419.203 454.155 419.203 453.665C419.203 453.178 419.128 452.73 418.979 452.322C418.833 451.911 418.608 451.582 418.303 451.333C417.998 451.085 417.613 450.96 417.149 450.96C416.682 450.96 416.294 451.085 415.986 451.333C415.681 451.582 415.454 451.911 415.305 452.322C415.159 452.73 415.086 453.178 415.086 453.665C415.086 454.155 415.159 454.604 415.305 455.012C415.454 455.42 415.681 455.746 415.986 455.991C416.294 456.237 416.682 456.359 417.149 456.359ZM424.097 452.919V457.453H422.61V449.817H424.037V451.06H424.132C424.307 450.655 424.582 450.33 424.957 450.085C425.335 449.84 425.81 449.717 426.384 449.717C426.904 449.717 427.36 449.827 427.751 450.045C428.142 450.261 428.445 450.582 428.661 451.01C428.876 451.437 428.984 451.966 428.984 452.596V457.453H427.497V452.775C427.497 452.221 427.353 451.789 427.065 451.477C426.776 451.162 426.38 451.005 425.877 451.005C425.532 451.005 425.225 451.08 424.957 451.229C424.692 451.378 424.481 451.597 424.325 451.885C424.173 452.17 424.097 452.515 424.097 452.919ZM434.789 449.817V451.01H430.618V449.817H434.789ZM431.736 447.987H433.223V455.211C433.223 455.499 433.266 455.716 433.352 455.862C433.438 456.005 433.549 456.103 433.685 456.156C433.824 456.205 433.975 456.23 434.138 456.23C434.257 456.23 434.361 456.222 434.451 456.205C434.54 456.189 434.61 456.175 434.66 456.165L434.928 457.393C434.842 457.427 434.719 457.46 434.56 457.493C434.401 457.529 434.202 457.549 433.964 457.553C433.573 457.559 433.208 457.49 432.87 457.344C432.532 457.198 432.258 456.973 432.05 456.668C431.841 456.363 431.736 455.98 431.736 455.519V447.987ZM438.331 452.919V457.453H436.844V447.271H438.311V451.06H438.405C438.584 450.649 438.858 450.322 439.226 450.08C439.594 449.838 440.074 449.717 440.667 449.717C441.191 449.717 441.648 449.825 442.04 450.04C442.434 450.256 442.739 450.577 442.954 451.005C443.173 451.429 443.282 451.96 443.282 452.596V457.453H441.796V452.775C441.796 452.215 441.652 451.781 441.363 451.472C441.075 451.161 440.674 451.005 440.16 451.005C439.809 451.005 439.494 451.08 439.216 451.229C438.941 451.378 438.723 451.597 438.564 451.885C438.409 452.17 438.331 452.515 438.331 452.919Z" fill="#596780"/>
<path d="M382.551 473.507L382.103 475.086H373.723L374.171 473.507H382.551ZM378.472 483.453L373.896 477.898L373.883 476.652H376.152C376.719 476.652 377.198 476.565 377.59 476.39C377.982 476.215 378.281 475.962 378.485 475.629C378.69 475.293 378.792 474.884 378.792 474.402C378.792 473.686 378.579 473.117 378.153 472.695C377.727 472.273 377.06 472.062 376.152 472.062H373.723L374.19 470.362H376.152C377.209 470.362 378.08 470.531 378.766 470.867C379.453 471.204 379.964 471.67 380.301 472.267C380.637 472.864 380.805 473.552 380.805 474.332C380.805 475.026 380.667 475.655 380.39 476.217C380.113 476.78 379.672 477.238 379.067 477.592C378.462 477.945 377.667 478.152 376.683 478.212L376.625 478.224L380.805 483.344V483.453H378.472ZM382.557 470.362L382.103 471.954L375.404 471.915L375.858 470.362H382.557ZM389.554 470.362V483.453H387.572V472.344H387.496L384.363 474.389V472.497L387.63 470.362H389.554ZM393.342 483.453V482.021L397.771 477.432C398.245 476.933 398.634 476.496 398.941 476.121C399.252 475.742 399.485 475.382 399.638 475.041C399.791 474.7 399.868 474.338 399.868 473.955C399.868 473.52 399.766 473.145 399.561 472.83C399.357 472.51 399.078 472.265 398.724 472.094C398.37 471.92 397.972 471.832 397.529 471.832C397.06 471.832 396.651 471.928 396.301 472.12C395.952 472.312 395.683 472.582 395.496 472.932C395.308 473.281 395.215 473.69 395.215 474.159H393.329C393.329 473.362 393.512 472.665 393.879 472.069C394.245 471.472 394.748 471.01 395.387 470.682C396.026 470.349 396.753 470.183 397.567 470.183C398.389 470.183 399.114 470.347 399.74 470.675C400.371 470.999 400.863 471.442 401.217 472.005C401.57 472.563 401.747 473.194 401.747 473.897C401.747 474.383 401.656 474.858 401.472 475.322C401.294 475.787 400.98 476.305 400.533 476.876C400.085 477.442 399.463 478.131 398.666 478.94L396.065 481.663V481.759H401.958V483.453H393.342ZM409.185 483.67C408.175 483.666 407.312 483.4 406.596 482.871C405.881 482.343 405.333 481.574 404.954 480.564C404.574 479.554 404.385 478.337 404.385 476.914C404.385 475.495 404.574 474.283 404.954 473.277C405.337 472.271 405.887 471.504 406.603 470.976C407.323 470.447 408.184 470.183 409.185 470.183C410.187 470.183 411.045 470.45 411.761 470.982C412.477 471.511 413.025 472.278 413.404 473.283C413.788 474.285 413.979 475.495 413.979 476.914C413.979 478.342 413.79 479.56 413.41 480.57C413.031 481.576 412.484 482.345 411.768 482.878C411.052 483.406 410.191 483.67 409.185 483.67ZM409.185 481.964C410.072 481.964 410.764 481.531 411.263 480.666C411.766 479.801 412.017 478.55 412.017 476.914C412.017 475.827 411.902 474.909 411.672 474.159C411.446 473.405 411.12 472.834 410.694 472.446C410.272 472.054 409.769 471.858 409.185 471.858C408.303 471.858 407.611 472.293 407.108 473.162C406.605 474.031 406.351 475.282 406.347 476.914C406.347 478.005 406.46 478.928 406.686 479.682C406.916 480.432 407.242 481.001 407.664 481.388C408.086 481.772 408.593 481.964 409.185 481.964ZM421.051 483.67C420.041 483.666 419.178 483.4 418.462 482.871C417.747 482.343 417.199 481.574 416.82 480.564C416.44 479.554 416.251 478.337 416.251 476.914C416.251 475.495 416.44 474.283 416.82 473.277C417.203 472.271 417.753 471.504 418.469 470.976C419.189 470.447 420.05 470.183 421.051 470.183C422.053 470.183 422.911 470.45 423.627 470.982C424.343 471.511 424.891 472.278 425.27 473.283C425.654 474.285 425.845 475.495 425.845 476.914C425.845 478.342 425.656 479.56 425.276 480.57C424.897 481.576 424.35 482.345 423.634 482.878C422.918 483.406 422.057 483.67 421.051 483.67ZM421.051 481.964C421.938 481.964 422.63 481.531 423.129 480.666C423.631 479.801 423.883 478.55 423.883 476.914C423.883 475.827 423.768 474.909 423.538 474.159C423.312 473.405 422.986 472.834 422.56 472.446C422.138 472.054 421.635 471.858 421.051 471.858C420.169 471.858 419.477 472.293 418.974 473.162C418.471 474.031 418.217 475.282 418.213 476.914C418.213 478.005 418.326 478.928 418.552 479.682C418.782 480.432 419.108 481.001 419.53 481.388C419.952 481.772 420.459 481.964 421.051 481.964Z" fill="#323B4B"/>
<defs>
<filter id="filter0_d_31_319" x="0.485907" y="95.8916" width="671.028" height="330.028" filterUnits="userSpaceOnUse" color-interpolation-filters="sRGB">
<feFlood flood-opacity="0" result="BackgroundImageFix"/>
<feColorMatrix in="SourceAlpha" type="matrix" values="0 0 0 0 0 0 0 0 0 0 0 0 0 0 0 0 0 0 127 0" result="hardAlpha"/>
<feOffset dy="7.40559"/>
<feGaussianBlur stdDeviation="8.63986"/>
<feComposite in2="hardAlpha" operator="out"/>
<feColorMatrix type="matrix" values="0 0 0 0 0 0 0 0 0 0 0 0 0 0 0 0 0 0 0.15 0"/>
<feBlend mode="normal" in2="BackgroundImageFix" result="effect1_dropShadow_31_319"/>
<feBlend mode="normal" in="SourceGraphic" in2="effect1_dropShadow_31_319" result="shape"/>
</filter>
</defs>
</svg>
