<svg width="1153" height="400" viewBox="0 0 1153 400" fill="none" xmlns="http://www.w3.org/2000/svg">
<path d="M475.5 196V276C475.5 311.346 504.154 340 539.5 340H584" stroke="#FFC927" stroke-width="1.5" stroke-linecap="round"/>
<path d="M475.5 196H584" stroke="#FF514A" stroke-width="1.5" stroke-linecap="round"/>
<path d="M367 196H475.5" stroke="url(#paint0_linear_8_32)" stroke-width="1.5" stroke-linecap="round"/>
<path d="M475.5 196V116C475.5 80.6538 504.154 52 539.5 52H584" stroke="#2BCDFF" stroke-width="1.5" stroke-linecap="round"/>
<path d="M631.616 81.456C624.405 81.456 618.339 79.8613 613.416 76.672C608.493 73.4133 605.027 69.0107 603.016 63.464L615.288 56.288C618.131 63.7067 623.712 67.416 632.032 67.416C636.053 67.416 639 66.688 640.872 65.232C642.744 63.776 643.68 61.9387 643.68 59.72C643.68 57.1547 642.536 55.1787 640.248 53.792C637.96 52.336 633.869 50.776 627.976 49.112C624.717 48.1413 621.944 47.1707 619.656 46.2C617.437 45.2293 615.184 43.9467 612.896 42.352C610.677 40.688 608.979 38.608 607.8 36.112C606.621 33.616 606.032 30.704 606.032 27.376C606.032 20.7893 608.355 15.5547 613 11.672C617.715 7.72 623.365 5.744 629.952 5.744C635.845 5.744 641.011 7.2 645.448 10.112C649.955 12.9547 653.456 16.9413 655.952 22.072L643.888 29.04C640.976 22.8 636.331 19.68 629.952 19.68C626.971 19.68 624.613 20.3733 622.88 21.76C621.216 23.0773 620.384 24.8107 620.384 26.96C620.384 29.248 621.32 31.12 623.192 32.576C625.133 33.9627 628.808 35.488 634.216 37.152C636.435 37.8453 638.099 38.4 639.208 38.816C640.387 39.1627 641.947 39.752 643.888 40.584C645.899 41.3467 647.424 42.0747 648.464 42.768C649.573 43.4613 650.821 44.3973 652.208 45.576C653.595 46.7547 654.635 47.968 655.328 49.216C656.091 50.464 656.715 51.9893 657.2 53.792C657.755 55.5253 658.032 57.432 658.032 59.512C658.032 66.2373 655.571 71.576 650.648 75.528C645.795 79.48 639.451 81.456 631.616 81.456ZM670.225 21.76C668.006 21.76 666.065 20.9627 664.401 19.368C662.806 17.704 662.009 15.7627 662.009 13.544C662.009 11.3253 662.806 9.384 664.401 7.71999C666.065 6.056 668.006 5.224 670.225 5.224C672.513 5.224 674.454 6.056 676.049 7.71999C677.713 9.384 678.545 11.3253 678.545 13.544C678.545 15.7627 677.713 17.704 676.049 19.368C674.454 20.9627 672.513 21.76 670.225 21.76ZM663.569 80V28H676.985V80H663.569ZM743.576 26.544C749.539 26.544 754.288 28.4853 757.824 32.368C761.429 36.2507 763.232 41.4507 763.232 47.968V80H749.816V48.904C749.816 45.784 749.053 43.3573 747.528 41.624C746.003 39.8907 743.853 39.024 741.08 39.024C738.029 39.024 735.637 40.0293 733.904 42.04C732.24 44.0507 731.408 46.9627 731.408 50.776V80H717.992V48.904C717.992 45.784 717.229 43.3573 715.704 41.624C714.179 39.8907 712.029 39.024 709.256 39.024C706.275 39.024 703.883 40.0293 702.08 42.04C700.347 44.0507 699.48 46.9627 699.48 50.776V80H686.064V28H699.48V33.512C702.6 28.8667 707.419 26.544 713.936 26.544C720.315 26.544 725.029 29.04 728.08 34.032C731.547 29.04 736.712 26.544 743.576 26.544ZM801.691 26.544C808.693 26.544 814.656 29.2133 819.579 34.552C824.571 39.8213 827.067 46.304 827.067 54C827.067 61.696 824.571 68.2133 819.579 73.552C814.656 78.8213 808.693 81.456 801.691 81.456C794.411 81.456 788.795 78.9253 784.843 73.864V100.8H771.427V28H784.843V34.136C788.795 29.0747 794.411 26.544 801.691 26.544ZM788.899 64.608C791.603 67.312 795.035 68.664 799.195 68.664C803.355 68.664 806.787 67.312 809.491 64.608C812.264 61.8347 813.651 58.2987 813.651 54C813.651 49.7013 812.264 46.2 809.491 43.496C806.787 40.7227 803.355 39.336 799.195 39.336C795.035 39.336 791.603 40.7227 788.899 43.496C786.195 46.2 784.843 49.7013 784.843 54C784.843 58.2987 786.195 61.8347 788.899 64.608ZM833.328 80V4.08H846.744V80H833.328ZM862.48 21.76C860.261 21.76 858.32 20.9627 856.656 19.368C855.061 17.704 854.264 15.7627 854.264 13.544C854.264 11.3253 855.061 9.384 856.656 7.71999C858.32 6.056 860.261 5.224 862.48 5.224C864.768 5.224 866.709 6.056 868.304 7.71999C869.968 9.384 870.8 11.3253 870.8 13.544C870.8 15.7627 869.968 17.704 868.304 19.368C866.709 20.9627 864.768 21.76 862.48 21.76ZM855.824 80V28H869.24V80H855.824ZM923.975 28V80H910.559V40.896H895.271V80H881.855V40.896H874.367V28H881.855V27.48C881.855 12.9893 890.001 5.744 906.295 5.744C909.969 5.744 914.025 6.22933 918.463 7.2V19.472C913.817 18.9173 909.761 18.64 906.295 18.64C902.551 18.64 899.777 19.2987 897.975 20.616C896.172 21.864 895.271 24.152 895.271 27.48V28H923.975ZM944.345 59.512C946.148 66.0293 951.036 69.288 959.009 69.288C964.14 69.288 968.023 67.5547 970.657 64.088L981.473 70.328C976.343 77.7467 968.785 81.456 958.801 81.456C950.204 81.456 943.305 78.856 938.105 73.656C932.905 68.456 930.305 61.904 930.305 54C930.305 46.1653 932.871 39.648 938.001 34.448C943.132 29.1787 949.719 26.544 957.761 26.544C965.388 26.544 971.663 29.1787 976.585 34.448C981.577 39.7173 984.073 46.2347 984.073 54C984.073 55.7333 983.9 57.5707 983.553 59.512H944.345ZM944.137 49.112H970.657C969.895 45.576 968.3 42.9413 965.873 41.208C963.516 39.4747 960.812 38.608 957.761 38.608C954.156 38.608 951.175 39.544 948.817 41.416C946.46 43.2187 944.9 45.784 944.137 49.112ZM1029.25 7.2H1042.66V80H1029.25V73.864C1025.3 78.9253 1019.68 81.456 1012.4 81.456C1005.4 81.456 999.401 78.8213 994.409 73.552C989.486 68.2133 987.025 61.696 987.025 54C987.025 46.304 989.486 39.8213 994.409 34.552C999.401 29.2133 1005.4 26.544 1012.4 26.544C1019.68 26.544 1025.3 29.0747 1029.25 34.136V7.2ZM1004.5 64.608C1007.27 67.312 1010.74 68.664 1014.9 68.664C1019.06 68.664 1022.49 67.312 1025.19 64.608C1027.9 61.8347 1029.25 58.2987 1029.25 54C1029.25 49.7013 1027.9 46.2 1025.19 43.496C1022.49 40.7227 1019.06 39.336 1014.9 39.336C1010.74 39.336 1007.27 40.7227 1004.5 43.496C1001.79 46.2 1000.44 49.7013 1000.44 54C1000.44 58.2987 1001.79 61.8347 1004.5 64.608Z" fill="url(#paint1_linear_8_32)"/>
<path d="M631.616 225.456C624.405 225.456 618.339 223.861 613.416 220.672C608.493 217.413 605.027 213.011 603.016 207.464L615.288 200.288C618.131 207.707 623.712 211.416 632.032 211.416C636.053 211.416 639 210.688 640.872 209.232C642.744 207.776 643.68 205.939 643.68 203.72C643.68 201.155 642.536 199.179 640.248 197.792C637.96 196.336 633.869 194.776 627.976 193.112C624.717 192.141 621.944 191.171 619.656 190.2C617.437 189.229 615.184 187.947 612.896 186.352C610.677 184.688 608.979 182.608 607.8 180.112C606.621 177.616 606.032 174.704 606.032 171.376C606.032 164.789 608.355 159.555 613 155.672C617.715 151.72 623.365 149.744 629.952 149.744C635.845 149.744 641.011 151.2 645.448 154.112C649.955 156.955 653.456 160.941 655.952 166.072L643.888 173.04C640.976 166.8 636.331 163.68 629.952 163.68C626.971 163.68 624.613 164.373 622.88 165.76C621.216 167.077 620.384 168.811 620.384 170.96C620.384 173.248 621.32 175.12 623.192 176.576C625.133 177.963 628.808 179.488 634.216 181.152C636.435 181.845 638.099 182.4 639.208 182.816C640.387 183.163 641.947 183.752 643.888 184.584C645.899 185.347 647.424 186.075 648.464 186.768C649.573 187.461 650.821 188.397 652.208 189.576C653.595 190.755 654.635 191.968 655.328 193.216C656.091 194.464 656.715 195.989 657.2 197.792C657.755 199.525 658.032 201.432 658.032 203.512C658.032 210.237 655.571 215.576 650.648 219.528C645.795 223.48 639.451 225.456 631.616 225.456ZM691.789 184.896H680.037V206.528C680.037 208.331 680.488 209.648 681.389 210.48C682.291 211.312 683.608 211.797 685.341 211.936C687.075 212.005 689.224 211.971 691.789 211.832V224C682.568 225.04 676.051 224.173 672.237 221.4C668.493 218.627 666.621 213.669 666.621 206.528V184.896H657.573V172H666.621V161.496L680.037 157.44V172H691.789V184.896ZM712.277 180.944C713.525 177.616 715.57 175.12 718.413 173.456C721.325 171.792 724.549 170.96 728.085 170.96V185.936C723.994 185.451 720.32 186.283 717.061 188.432C713.872 190.581 712.277 194.152 712.277 199.144V224H698.861V172H712.277V180.944ZM742.138 203.512C743.94 210.029 748.828 213.288 756.802 213.288C761.932 213.288 765.815 211.555 768.45 208.088L779.266 214.328C774.135 221.747 766.578 225.456 756.594 225.456C747.996 225.456 741.098 222.856 735.898 217.656C730.698 212.456 728.098 205.904 728.098 198C728.098 190.165 730.663 183.648 735.794 178.448C740.924 173.179 747.511 170.544 755.554 170.544C763.18 170.544 769.455 173.179 774.378 178.448C779.37 183.717 781.866 190.235 781.866 198C781.866 199.733 781.692 201.571 781.346 203.512H742.138ZM741.93 193.112H768.45C767.687 189.576 766.092 186.941 763.666 185.208C761.308 183.475 758.604 182.608 755.554 182.608C751.948 182.608 748.967 183.544 746.61 185.416C744.252 187.219 742.692 189.784 741.93 193.112ZM827.145 172H840.561V224H827.145V217.864C823.124 222.925 817.473 225.456 810.193 225.456C803.26 225.456 797.297 222.821 792.305 217.552C787.382 212.213 784.921 205.696 784.921 198C784.921 190.304 787.382 183.821 792.305 178.552C797.297 173.213 803.26 170.544 810.193 170.544C817.473 170.544 823.124 173.075 827.145 178.136V172ZM802.393 208.608C805.097 211.312 808.529 212.664 812.689 212.664C816.849 212.664 820.281 211.312 822.985 208.608C825.758 205.835 827.145 202.299 827.145 198C827.145 193.701 825.758 190.2 822.985 187.496C820.281 184.723 816.849 183.336 812.689 183.336C808.529 183.336 805.097 184.723 802.393 187.496C799.689 190.2 798.337 193.701 798.337 198C798.337 202.299 799.689 205.835 802.393 208.608ZM907.039 170.544C913.001 170.544 917.751 172.485 921.287 176.368C924.892 180.251 926.695 185.451 926.695 191.968V224H913.279V192.904C913.279 189.784 912.516 187.357 910.991 185.624C909.465 183.891 907.316 183.024 904.543 183.024C901.492 183.024 899.1 184.029 897.367 186.04C895.703 188.051 894.871 190.963 894.871 194.776V224H881.455V192.904C881.455 189.784 880.692 187.357 879.167 185.624C877.641 183.891 875.492 183.024 872.719 183.024C869.737 183.024 867.345 184.029 865.543 186.04C863.809 188.051 862.943 190.963 862.943 194.776V224H849.527V172H862.943V177.512C866.063 172.867 870.881 170.544 877.399 170.544C883.777 170.544 888.492 173.04 891.543 178.032C895.009 173.04 900.175 170.544 907.039 170.544ZM934.889 224V148.08H948.305V224H934.889ZM964.04 165.76C961.822 165.76 959.88 164.963 958.216 163.368C956.622 161.704 955.824 159.763 955.824 157.544C955.824 155.325 956.622 153.384 958.216 151.72C959.88 150.056 961.822 149.224 964.04 149.224C966.328 149.224 968.27 150.056 969.864 151.72C971.528 153.384 972.36 155.325 972.36 157.544C972.36 159.763 971.528 161.704 969.864 163.368C968.27 164.963 966.328 165.76 964.04 165.76ZM957.384 224V172H970.8V224H957.384ZM1008.79 170.544C1014.48 170.544 1019.16 172.451 1022.83 176.264C1026.58 180.077 1028.45 185.347 1028.45 192.072V224H1015.03V193.736C1015.03 190.269 1014.1 187.635 1012.22 185.832C1010.35 183.96 1007.86 183.024 1004.74 183.024C1001.27 183.024 998.496 184.099 996.416 186.248C994.336 188.397 993.296 191.621 993.296 195.92V224H979.88V172H993.296V177.824C996.554 172.971 1001.72 170.544 1008.79 170.544ZM1048.04 203.512C1049.84 210.029 1054.73 213.288 1062.7 213.288C1067.83 213.288 1071.72 211.555 1074.35 208.088L1085.17 214.328C1080.04 221.747 1072.48 225.456 1062.5 225.456C1053.9 225.456 1047 222.856 1041.8 217.656C1036.6 212.456 1034 205.904 1034 198C1034 190.165 1036.56 183.648 1041.7 178.448C1046.83 173.179 1053.41 170.544 1061.46 170.544C1069.08 170.544 1075.36 173.179 1080.28 178.448C1085.27 183.717 1087.77 190.235 1087.77 198C1087.77 199.733 1087.59 201.571 1087.25 203.512H1048.04ZM1047.83 193.112H1074.35C1073.59 189.576 1071.99 186.941 1069.57 185.208C1067.21 183.475 1064.51 182.608 1061.46 182.608C1057.85 182.608 1054.87 183.544 1052.51 185.416C1050.15 187.219 1048.59 189.784 1047.83 193.112ZM1132.94 151.2H1146.36V224H1132.94V217.864C1128.99 222.925 1123.37 225.456 1116.09 225.456C1109.09 225.456 1103.09 222.821 1098.1 217.552C1093.18 212.213 1090.72 205.696 1090.72 198C1090.72 190.304 1093.18 183.821 1098.1 178.552C1103.09 173.213 1109.09 170.544 1116.09 170.544C1123.37 170.544 1128.99 173.075 1132.94 178.136V151.2ZM1108.19 208.608C1110.96 211.312 1114.43 212.664 1118.59 212.664C1122.75 212.664 1126.18 211.312 1128.89 208.608C1131.59 205.835 1132.94 202.299 1132.94 198C1132.94 193.701 1131.59 190.2 1128.89 187.496C1126.18 184.723 1122.75 183.336 1118.59 183.336C1114.43 183.336 1110.96 184.723 1108.19 187.496C1105.49 190.2 1104.13 193.701 1104.13 198C1104.13 202.299 1105.49 205.835 1108.19 208.608Z" fill="url(#paint2_linear_8_32)"/>
<path d="M641.288 369.456C630.333 369.456 621.285 365.816 614.144 358.536C607.003 351.256 603.432 342.277 603.432 331.6C603.432 320.853 607.003 311.875 614.144 304.664C621.285 297.384 630.333 293.744 641.288 293.744C647.875 293.744 653.941 295.304 659.488 298.424C665.104 301.475 669.472 305.635 672.592 310.904L660.216 318.08C658.413 314.821 655.848 312.291 652.52 310.488C649.192 308.616 645.448 307.68 641.288 307.68C634.216 307.68 628.496 309.899 624.128 314.336C619.829 318.773 617.68 324.528 617.68 331.6C617.68 338.603 619.829 344.323 624.128 348.76C628.496 353.197 634.216 355.416 641.288 355.416C645.448 355.416 649.192 354.515 652.52 352.712C655.917 350.84 658.483 348.309 660.216 345.12L672.592 352.296C669.472 357.565 665.139 361.76 659.592 364.88C654.045 367.931 647.944 369.456 641.288 369.456ZM689.225 347.512C691.028 354.029 695.916 357.288 703.889 357.288C709.02 357.288 712.902 355.555 715.537 352.088L726.353 358.328C721.222 365.747 713.665 369.456 703.681 369.456C695.084 369.456 688.185 366.856 682.985 361.656C677.785 356.456 675.185 349.904 675.185 342C675.185 334.165 677.75 327.648 682.881 322.448C688.012 317.179 694.598 314.544 702.641 314.544C710.268 314.544 716.542 317.179 721.465 322.448C726.457 327.717 728.953 334.235 728.953 342C728.953 343.733 728.78 345.571 728.433 347.512H689.225ZM689.017 337.112H715.537C714.774 333.576 713.18 330.941 710.753 329.208C708.396 327.475 705.692 326.608 702.641 326.608C699.036 326.608 696.054 327.544 693.697 329.416C691.34 331.219 689.78 333.784 689.017 337.112ZM764.031 314.544C769.716 314.544 774.396 316.451 778.071 320.264C781.815 324.077 783.687 329.347 783.687 336.072V368H770.271V337.736C770.271 334.269 769.335 331.635 767.463 329.832C765.591 327.96 763.095 327.024 759.975 327.024C756.508 327.024 753.735 328.099 751.655 330.248C749.575 332.397 748.535 335.621 748.535 339.92V368H735.119V316H748.535V321.824C751.793 316.971 756.959 314.544 764.031 314.544ZM821.686 328.896H809.934V350.528C809.934 352.331 810.385 353.648 811.286 354.48C812.188 355.312 813.505 355.797 815.238 355.936C816.972 356.005 819.121 355.971 821.686 355.832V368C812.465 369.04 805.948 368.173 802.134 365.4C798.39 362.627 796.518 357.669 796.518 350.528V328.896H787.47V316H796.518V305.496L809.934 301.44V316H821.686V328.896ZM842.174 324.944C843.422 321.616 845.467 319.12 848.31 317.456C851.222 315.792 854.446 314.96 857.982 314.96V329.936C853.891 329.451 850.217 330.283 846.958 332.432C843.769 334.581 842.174 338.152 842.174 343.144V368H828.758V316H842.174V324.944ZM900.219 316H913.635V368H900.219V361.864C896.197 366.925 890.547 369.456 883.267 369.456C876.333 369.456 870.371 366.821 865.379 361.552C860.456 356.213 857.994 349.696 857.994 342C857.994 334.304 860.456 327.821 865.379 322.552C870.371 317.213 876.333 314.544 883.267 314.544C890.547 314.544 896.197 317.075 900.219 322.136V316ZM875.467 352.608C878.171 355.312 881.603 356.664 885.763 356.664C889.923 356.664 893.355 355.312 896.059 352.608C898.832 349.835 900.219 346.299 900.219 342C900.219 337.701 898.832 334.2 896.059 331.496C893.355 328.723 889.923 327.336 885.763 327.336C881.603 327.336 878.171 328.723 875.467 331.496C872.763 334.2 871.411 337.701 871.411 342C871.411 346.299 872.763 349.835 875.467 352.608ZM922.6 368V292.08H936.016V368H922.6ZM951.751 309.76C949.533 309.76 947.591 308.963 945.927 307.368C944.333 305.704 943.535 303.763 943.535 301.544C943.535 299.325 944.333 297.384 945.927 295.72C947.591 294.056 949.533 293.224 951.751 293.224C954.039 293.224 955.981 294.056 957.575 295.72C959.239 297.384 960.071 299.325 960.071 301.544C960.071 303.763 959.239 305.704 957.575 307.368C955.981 308.963 954.039 309.76 951.751 309.76ZM945.095 368V316H958.511V368H945.095ZM979.56 330.768C979.56 332.155 980.462 333.299 982.264 334.2C984.136 335.032 986.39 335.795 989.024 336.488C991.659 337.112 994.294 337.944 996.928 338.984C999.563 339.955 1001.78 341.619 1003.58 343.976C1005.46 346.333 1006.39 349.28 1006.39 352.816C1006.39 358.155 1004.38 362.28 1000.36 365.192C996.408 368.035 991.451 369.456 985.488 369.456C974.811 369.456 967.531 365.331 963.648 357.08L975.296 350.528C976.822 355.035 980.219 357.288 985.488 357.288C990.272 357.288 992.664 355.797 992.664 352.816C992.664 351.429 991.728 350.32 989.856 349.488C988.054 348.587 985.835 347.789 983.2 347.096C980.566 346.403 977.931 345.536 975.296 344.496C972.662 343.456 970.408 341.827 968.536 339.608C966.734 337.32 965.832 334.477 965.832 331.08C965.832 325.949 967.704 321.928 971.448 319.016C975.262 316.035 979.976 314.544 985.592 314.544C989.822 314.544 993.67 315.515 997.136 317.456C1000.6 319.328 1003.34 322.032 1005.35 325.568L993.912 331.808C992.248 328.272 989.475 326.504 985.592 326.504C983.859 326.504 982.403 326.885 981.224 327.648C980.115 328.411 979.56 329.451 979.56 330.768ZM1022.45 347.512C1024.25 354.029 1029.14 357.288 1037.11 357.288C1042.24 357.288 1046.12 355.555 1048.76 352.088L1059.57 358.328C1054.44 365.747 1046.89 369.456 1036.9 369.456C1028.3 369.456 1021.41 366.856 1016.21 361.656C1011.01 356.456 1008.41 349.904 1008.41 342C1008.41 334.165 1010.97 327.648 1016.1 322.448C1021.23 317.179 1027.82 314.544 1035.86 314.544C1043.49 314.544 1049.76 317.179 1054.69 322.448C1059.68 327.717 1062.17 334.235 1062.17 342C1062.17 343.733 1062 345.571 1061.65 347.512H1022.45ZM1022.24 337.112H1048.76C1047.99 333.576 1046.4 330.941 1043.97 329.208C1041.62 327.475 1038.91 326.608 1035.86 326.608C1032.26 326.608 1029.27 327.544 1026.92 329.416C1024.56 331.219 1023 333.784 1022.24 337.112ZM1107.35 295.2H1120.76V368H1107.35V361.864C1103.4 366.925 1097.78 369.456 1090.5 369.456C1083.5 369.456 1077.5 366.821 1072.51 361.552C1067.59 356.213 1065.12 349.696 1065.12 342C1065.12 334.304 1067.59 327.821 1072.51 322.552C1077.5 317.213 1083.5 314.544 1090.5 314.544C1097.78 314.544 1103.4 317.075 1107.35 322.136V295.2ZM1082.6 352.608C1085.37 355.312 1088.84 356.664 1093 356.664C1097.16 356.664 1100.59 355.312 1103.29 352.608C1106 349.835 1107.35 346.299 1107.35 342C1107.35 337.701 1106 334.2 1103.29 331.496C1100.59 328.723 1097.16 327.336 1093 327.336C1088.84 327.336 1085.37 328.723 1082.6 331.496C1079.89 334.2 1078.54 337.701 1078.54 342C1078.54 346.299 1079.89 349.835 1082.6 352.608Z" fill="url(#paint3_linear_8_32)"/>
<rect y="8" width="370" height="392" rx="24" fill="#1B1C1D"/>
<g filter="url(#filter0_f_8_32)">
<circle cx="184.575" cy="195.574" r="95.3346" transform="rotate(-19.3869 184.575 195.574)" fill="url(#paint4_linear_8_32)"/>
</g>
<path d="M214 120L204.572 136.285H166.595C165.877 135.188 165.329 133.893 165.187 132.418C164.982 130.274 165.663 128.016 167.051 126.024C169.818 122.367 174.185 120 179.095 120H214Z" fill="white"/>
<path d="M200.429 163.238C200.426 163.244 200.422 163.249 200.419 163.254C200.796 163.452 203.641 164.992 205.425 167.715C206.146 168.815 206.695 170.107 206.836 171.584C207.04 173.728 206.358 175.983 204.971 177.98C202.203 181.634 197.837 184 192.927 184H196.558C204.547 184 211.105 177.743 211.658 169.847L211.701 155.997C211.701 152.917 210.061 150.039 207.418 148.483L194.226 140.612L186.138 155.101L200.429 163.238Z" fill="white"/>
<path d="M171.572 140.765C171.576 140.759 171.579 140.754 171.583 140.748C171.206 140.551 168.36 139.011 166.576 136.288C165.855 135.188 165.307 133.895 165.166 132.419C164.962 130.275 165.644 128.02 167.031 126.023C169.798 122.369 174.165 120.003 179.075 120.003H175.443C167.454 120.003 160.896 126.26 160.343 134.156L160.301 148.006C160.301 151.086 161.941 153.964 164.584 155.519L177.559 163.004L185.647 149.367L171.572 140.765Z" fill="white"/>
<path d="M158 184L167.428 167.715H205.405C206.123 168.812 206.671 170.107 206.813 171.582C207.018 173.726 206.337 175.984 204.949 177.976C202.182 181.633 197.815 184 192.905 184H158Z" fill="white"/>
<path d="M84.4806 260.501C80.3706 260.501 76.871 259.561 73.9819 257.681C71.1334 255.801 69.1394 253.226 68 249.957L74.0429 246.402C75.752 251.224 79.2923 253.635 84.6637 253.635C87.3088 253.635 89.2824 253.124 90.5846 252.103C91.9274 251.04 92.5989 249.671 92.5989 247.995C92.5989 246.238 91.8867 244.91 90.4625 244.011C89.0382 243.071 86.5153 242.049 82.8936 240.946C80.859 240.333 79.2109 239.761 77.9494 239.229C76.6879 238.698 75.3451 237.962 73.9208 237.022C72.5373 236.042 71.4996 234.836 70.8078 233.406C70.116 231.975 69.7701 230.3 69.7701 228.379C69.7701 224.578 71.113 221.575 73.7987 219.368C76.4845 217.12 79.7196 215.996 83.504 215.996C86.9222 215.996 89.9131 216.834 92.4768 218.509C95.0404 220.185 97.014 222.494 98.3976 225.436L92.4768 228.869C90.6863 224.864 87.6954 222.862 83.504 222.862C81.4693 222.862 79.8416 223.352 78.6208 224.333C77.4001 225.273 76.7897 226.56 76.7897 228.195C76.7897 229.789 77.4001 231.056 78.6208 231.996C79.8823 232.895 82.1408 233.855 85.3962 234.877C87.0239 235.408 88.204 235.817 88.9365 236.103C89.7097 236.348 90.7677 236.757 92.1105 237.329C93.4941 237.901 94.5318 238.473 95.2235 239.045C95.9153 239.618 96.6478 240.333 97.421 241.191C98.2348 242.049 98.8045 243.03 99.1301 244.133C99.4556 245.237 99.6184 246.483 99.6184 247.873C99.6184 251.755 98.2145 254.841 95.4067 257.129C92.6395 259.377 88.9975 260.501 84.4806 260.501Z" fill="white"/>
<path d="M127.803 229.053H134.396V259.704H127.803V255.29C125.321 258.764 121.76 260.501 117.121 260.501C112.93 260.501 109.349 258.948 106.378 255.842C103.408 252.695 101.923 248.874 101.923 244.379C101.923 239.842 103.408 236.021 106.378 232.915C109.349 229.809 112.93 228.256 117.121 228.256C121.76 228.256 125.321 229.973 127.803 233.406V229.053ZM111.262 251.428C113.093 253.267 115.392 254.187 118.159 254.187C120.926 254.187 123.225 253.267 125.057 251.428C126.888 249.548 127.803 247.198 127.803 244.379C127.803 241.559 126.888 239.229 125.057 237.39C123.225 235.51 120.926 234.57 118.159 234.57C115.392 234.57 113.093 235.51 111.262 237.39C109.43 239.229 108.515 241.559 108.515 244.379C108.515 247.198 109.43 249.548 111.262 251.428Z" fill="white"/>
<path d="M163.809 229.053H170.402V259.704H163.809V255.29C161.327 258.764 157.766 260.501 153.127 260.501C148.936 260.501 145.355 258.948 142.385 255.842C139.414 252.695 137.929 248.874 137.929 244.379C137.929 239.842 139.414 236.021 142.385 232.915C145.355 229.809 148.936 228.256 153.127 228.256C157.766 228.256 161.327 229.973 163.809 233.406V229.053ZM147.268 251.428C149.099 253.267 151.398 254.187 154.165 254.187C156.932 254.187 159.231 253.267 161.063 251.428C162.894 249.548 163.809 247.198 163.809 244.379C163.809 241.559 162.894 239.229 161.063 237.39C159.231 235.51 156.932 234.57 154.165 234.57C151.398 234.57 149.099 235.51 147.268 237.39C145.437 239.229 144.521 241.559 144.521 244.379C144.521 247.198 145.437 249.548 147.268 251.428Z" fill="white"/>
<path d="M190.293 260.501C186.183 260.501 182.684 259.561 179.794 257.681C176.946 255.801 174.952 253.226 173.813 249.957L179.856 246.402C181.565 251.224 185.105 253.635 190.476 253.635C193.121 253.635 195.095 253.124 196.397 252.103C197.74 251.04 198.411 249.671 198.411 247.995C198.411 246.238 197.699 244.91 196.275 244.011C194.851 243.071 192.328 242.049 188.706 240.946C186.672 240.333 185.024 239.761 183.762 239.229C182.501 238.698 181.158 237.962 179.733 237.022C178.35 236.042 177.312 234.836 176.62 233.406C175.929 231.975 175.583 230.3 175.583 228.379C175.583 224.578 176.926 221.575 179.611 219.368C182.297 217.12 185.532 215.996 189.317 215.996C192.735 215.996 195.726 216.834 198.289 218.509C200.853 220.185 202.827 222.494 204.21 225.436L198.289 228.869C196.499 224.864 193.508 222.862 189.317 222.862C187.282 222.862 185.654 223.352 184.433 224.333C183.213 225.273 182.602 226.56 182.602 228.195C182.602 229.789 183.213 231.056 184.433 231.996C185.695 232.895 187.953 233.855 191.209 234.877C192.837 235.408 194.017 235.817 194.749 236.103C195.522 236.348 196.58 236.757 197.923 237.329C199.307 237.901 200.344 238.473 201.036 239.045C201.728 239.618 202.46 240.333 203.234 241.191C204.047 242.049 204.617 243.03 204.943 244.133C205.268 245.237 205.431 246.483 205.431 247.873C205.431 251.755 204.027 254.841 201.219 257.129C198.452 259.377 194.81 260.501 190.293 260.501Z" fill="white"/>
<path d="M224.662 216.793C228.487 216.793 231.661 218.06 234.184 220.594C236.707 223.127 237.968 226.295 237.968 230.095C237.968 233.896 236.707 237.063 234.184 239.597C231.661 242.09 228.487 243.336 224.662 243.336H213.369V259.704H210.134V216.793H224.662ZM224.662 240.271C227.592 240.271 229.993 239.311 231.864 237.39C233.777 235.469 234.733 233.038 234.733 230.095C234.733 227.112 233.777 224.66 231.864 222.739C229.993 220.818 227.592 219.858 224.662 219.858H213.369V240.271H224.662Z" fill="white"/>
<path d="M267.321 229.053H270.434V259.704H267.321V252.777C266.018 255.147 264.228 257.007 261.949 258.355C259.67 259.704 257.086 260.378 254.197 260.378C249.843 260.378 246.12 258.846 243.027 255.781C239.934 252.675 238.388 248.874 238.388 244.379C238.388 239.883 239.934 236.103 243.027 233.038C246.12 229.932 249.843 228.379 254.197 228.379C257.086 228.379 259.67 229.053 261.949 230.402C264.228 231.751 266.018 233.61 267.321 235.98V229.053ZM245.224 253.635C247.747 256.169 250.82 257.436 254.441 257.436C258.063 257.436 261.115 256.169 263.597 253.635C266.079 251.101 267.321 248.016 267.321 244.379C267.321 240.741 266.079 237.656 263.597 235.122C261.115 232.588 258.063 231.321 254.441 231.321C250.82 231.321 247.747 232.588 245.224 235.122C242.742 237.656 241.501 240.741 241.501 244.379C241.501 248.016 242.742 251.101 245.224 253.635Z" fill="white"/>
<path d="M299.704 229.053H303L289.816 262.524C288.635 265.548 286.967 267.918 284.81 269.635C282.654 271.392 280.293 272.169 277.73 271.964V269.083C279.683 269.246 281.433 268.674 282.979 267.367C284.566 266.1 285.848 264.281 286.825 261.911L287.496 260.256L273.457 229.053H276.753L289.083 256.332L299.704 229.053Z" fill="white"/>
<defs>
<filter id="filter0_f_8_32" x="25.2144" y="36.2136" width="318.721" height="318.721" filterUnits="userSpaceOnUse" color-interpolation-filters="sRGB">
<feFlood flood-opacity="0" result="BackgroundImageFix"/>
<feBlend mode="normal" in="SourceGraphic" in2="BackgroundImageFix" result="shape"/>
<feGaussianBlur stdDeviation="32" result="effect1_foregroundBlur_8_32"/>
</filter>
<linearGradient id="paint0_linear_8_32" x1="370.5" y1="196" x2="462.5" y2="196" gradientUnits="userSpaceOnUse">
<stop stop-color="#2BCDFF"/>
<stop offset="0.567708" stop-color="#FFC927"/>
<stop offset="1" stop-color="#FF514A"/>
</linearGradient>
<linearGradient id="paint1_linear_8_32" x1="600" y1="0" x2="1079" y2="88" gradientUnits="userSpaceOnUse">
<stop stop-color="#13C8FF"/>
<stop offset="1" stop-color="#2BCDFF" stop-opacity="0"/>
</linearGradient>
<linearGradient id="paint2_linear_8_32" x1="600" y1="144" x2="1194" y2="248" gradientUnits="userSpaceOnUse">
<stop stop-color="#FF4842"/>
<stop offset="1" stop-color="#FF514A" stop-opacity="0"/>
</linearGradient>
<linearGradient id="paint3_linear_8_32" x1="600" y1="288" x2="1167" y2="392" gradientUnits="userSpaceOnUse">
<stop stop-color="#FFDA18"/>
<stop offset="1" stop-color="#FFC927" stop-opacity="0"/>
</linearGradient>
<linearGradient id="paint4_linear_8_32" x1="184.575" y1="100.24" x2="184.575" y2="290.909" gradientUnits="userSpaceOnUse">
<stop stop-color="#2BCDFF"/>
<stop offset="0.531997" stop-color="#FF514A"/>
<stop offset="1" stop-color="#FFC927"/>
</linearGradient>
</defs>
</svg>
