<svg width="32" height="32" viewBox="0 0 32 32" fill="none" xmlns="http://www.w3.org/2000/svg">
<path fill-rule="evenodd" clip-rule="evenodd" d="M1.17375 2.43527C0 4.0244 0 6.30293 0 10.86V21.14C0 25.6971 0 27.9756 1.17375 29.5647C1.52904 30.0458 1.95425 30.471 2.43527 30.8263C4.0244 32 6.30293 32 10.86 32H21.14C25.6971 32 27.9756 32 29.5647 30.8263C30.0458 30.471 30.471 30.0458 30.8263 29.5647C32 27.9756 32 25.6971 32 21.14V10.86C32 6.30293 32 4.0244 30.8263 2.43527C30.471 1.95425 30.0458 1.52904 29.5647 1.17375C27.9756 0 25.6971 0 21.14 0H10.86C6.30293 0 4.0244 0 2.43527 1.17375C1.95425 1.52904 1.52904 1.95425 1.17375 2.43527ZM25.8651 9.18962C26.1212 9.84766 26.3 10.6071 26.3487 11.7117C26.3974 12.8204 26.4016 13.1737 26.4016 15.9962C26.4016 18.8187 26.3893 19.172 26.3406 20.2807C26.2919 21.3853 26.1129 22.1408 25.857 22.8028C25.3165 24.1998 24.2111 25.3044 22.8129 25.8445C22.1546 26.1004 21.3946 26.2791 20.2892 26.3278C19.1797 26.3766 18.8262 26.3887 16.0016 26.3887C13.1771 26.3887 12.8234 26.3766 11.714 26.3278C10.6085 26.2791 9.85266 26.1004 9.19018 25.8445C8.49928 25.5847 7.86935 25.1744 7.34912 24.6465C6.82079 24.1266 6.41041 23.5013 6.14624 22.8028C5.89018 22.1447 5.71126 21.3853 5.66252 20.2807C5.61379 19.172 5.60156 18.8187 5.60156 15.9962C5.60156 13.1737 5.61379 12.8204 5.66665 11.7075C5.71539 10.6029 5.89414 9.84766 6.15021 9.18565C6.41041 8.49525 6.82079 7.86577 7.34912 7.34591C7.86935 6.81384 8.49516 6.40772 9.19431 6.14374C9.85266 5.88802 10.6126 5.70923 11.718 5.66053C12.8275 5.61182 13.1811 5.59961 16.0056 5.59961C18.8301 5.59961 19.1837 5.61182 20.2973 5.66465C21.4027 5.71335 22.1587 5.89198 22.821 6.14787C23.5119 6.40772 24.1419 6.81796 24.6621 7.34591C25.1946 7.86577 25.601 8.49113 25.8651 9.18962ZM24.1176 22.1286C24.2598 21.7631 24.4305 21.2148 24.4753 20.1995C24.524 19.103 24.5362 18.7781 24.5362 16.0043C24.5362 13.2305 24.524 12.9016 24.4753 11.8051C24.4305 10.7938 24.2598 10.2416 24.1176 9.87605C23.9509 9.4252 23.6867 9.01908 23.3413 8.68197C23.0081 8.33677 22.5975 8.0728 22.1465 7.90639C21.7807 7.76424 21.2321 7.59371 20.2161 7.54897C19.1227 7.50027 18.7936 7.48805 16.0137 7.48805C13.2381 7.48805 12.9088 7.50027 11.8115 7.54897C10.7996 7.59371 10.2468 7.76424 9.88107 7.90639C9.4299 8.0728 9.02349 8.33677 8.6863 8.68197C8.33672 9.01512 8.07256 9.4252 7.90586 9.87605C7.76362 10.2416 7.59296 10.7898 7.54835 11.8051C7.49946 12.8975 7.48739 13.2305 7.48739 16.0043C7.48739 18.7781 7.49946 19.1071 7.54835 20.2036C7.59296 21.2148 7.76362 21.7672 7.90586 22.1327C8.07256 22.5834 8.33672 22.9895 8.68217 23.3266C9.01539 23.6718 9.42593 23.9358 9.87694 24.1024C10.2427 24.2445 10.7914 24.415 11.8074 24.4596C12.9007 24.5085 13.2339 24.5205 16.0097 24.5205C18.7855 24.5205 19.1146 24.5085 20.2119 24.4596C21.224 24.415 21.7766 24.2445 22.1424 24.1024C23.0487 23.753 23.768 23.0342 24.1176 22.1286ZM16.0044 10.6562C13.054 10.6562 10.6602 13.0481 10.6602 15.9965C10.6602 18.9448 13.054 21.3367 16.0044 21.3367C18.955 21.3367 21.3486 18.9448 21.3486 15.9965C21.3486 13.0481 18.955 10.6562 16.0044 10.6562ZM16.0044 19.4606C14.0903 19.4606 12.5377 17.9093 12.5377 15.9965C12.5377 14.0837 14.0903 12.5324 16.0044 12.5324C17.9186 12.5324 19.4711 14.0837 19.4711 15.9965C19.4711 17.9093 17.9186 19.4606 16.0044 19.4606ZM21.5602 11.6902C22.2493 11.6902 22.808 11.1321 22.808 10.4438C22.808 9.75524 22.2493 9.19727 21.5602 9.19727C20.8712 9.19727 20.3125 9.75524 20.3125 10.4438C20.3125 11.1321 20.8712 11.6902 21.5602 11.6902Z" fill="#B1B4D5"/>
</svg>
