<svg width="32" height="32" viewBox="0 0 32 32" fill="none" xmlns="http://www.w3.org/2000/svg">
<path fill-rule="evenodd" clip-rule="evenodd" d="M1.17375 2.43527C0 4.0244 0 6.30293 0 10.86V21.14C0 25.6971 0 27.9756 1.17375 29.5647C1.52904 30.0458 1.95425 30.471 2.43527 30.8263C4.0244 32 6.30293 32 10.86 32H21.14C25.6971 32 27.9756 32 29.5647 30.8263C30.0458 30.471 30.471 30.0458 30.8263 29.5647C32 27.9756 32 25.6971 32 21.14V10.86C32 6.30293 32 4.0244 30.8263 2.43527C30.471 1.95425 30.0458 1.52904 29.5647 1.17375C27.9756 0 25.6971 0 21.14 0H10.86C6.30293 0 4.0244 0 2.43527 1.17375C1.95425 1.52904 1.52904 1.95425 1.17375 2.43527ZM22.7202 11.0778C23.4473 10.9848 24.1447 10.7933 24.7992 10.5044C24.3086 11.2394 23.7069 11.8782 22.9908 12.3896C22.9985 12.5435 23.004 12.6984 23.004 12.8589C23.004 17.6566 19.374 23.1914 12.7344 23.1914C10.6917 23.1914 8.79752 22.5992 7.19922 21.5619C7.48302 21.5985 7.76682 21.6118 8.06272 21.6118C9.75012 21.6118 11.3088 21.0295 12.5364 20.0631C10.959 20.0288 9.63242 18.9716 9.16492 17.5337C9.38382 17.5824 9.61702 17.5957 9.84802 17.5957C10.1802 17.5957 10.5003 17.5569 10.794 17.4761C9.15392 17.1385 7.90322 15.6729 7.90322 13.9083V13.8685C8.38502 14.1353 8.95372 14.3046 9.53342 14.3157C8.57422 13.6703 7.93072 12.5556 7.93072 11.2981C7.93072 10.6284 8.11332 10.0063 8.42462 9.46275C10.2077 11.6667 12.862 13.1135 15.8617 13.2608C15.8023 12.9973 15.7781 12.7206 15.7781 12.4328C15.7781 10.4325 17.3863 8.80078 19.3839 8.80078C20.4135 8.80078 21.3573 9.24025 22.0195 9.94982C22.8401 9.78488 23.6101 9.48932 24.3075 9.07088C24.0391 9.92214 23.4682 10.6284 22.7202 11.0778Z" fill="#B1B4D5"/>
</svg>
