<svg width="136" height="48" viewBox="0 0 136 48" fill="none" xmlns="http://www.w3.org/2000/svg">
<path d="M59.4157 35.6329C59.4982 37.0558 58.8796 38.4376 57.7659 39.3037C56.5698 40.1493 55.1262 40.5617 53.662 40.4792C51.311 40.4998 49.0218 39.6749 47.207 38.2107L49.0425 35.406C50.6923 36.6021 52.2802 37.2002 53.7857 37.2002C54.9818 37.2002 55.5799 36.829 55.5799 36.0659V36.0041C55.5799 35.5916 55.2706 35.241 54.6519 34.9729C54.425 34.8904 53.7032 34.643 52.4659 34.2717C49.4755 33.385 47.9701 31.8795 47.9701 29.7553V29.6935C47.9288 28.3324 48.5269 27.0125 49.5993 26.1463C50.7129 25.3008 52.074 24.8471 53.4764 24.909C55.4768 24.909 57.436 25.507 59.0858 26.6619L57.4566 29.611C55.8686 28.683 54.5075 28.2086 53.3733 28.2086C52.3215 28.2086 51.8059 28.5592 51.8059 29.2398V29.3016C51.8059 29.6729 52.1153 30.0028 52.734 30.3122C52.9814 30.4153 53.6826 30.6834 54.8787 31.0958C55.9717 31.4258 57.0029 31.9207 57.9515 32.5601C58.9002 33.2612 59.457 34.3749 59.4364 35.571V35.6329H59.4157ZM69.789 40.5823C69.2116 42.129 68.5723 43.2221 67.8505 43.8407C67.0049 44.5213 65.9326 44.8513 64.8396 44.7894C63.4991 44.7894 62.1998 44.4388 61.045 43.7582L62.4679 40.6648C63.0041 41.0154 63.6434 41.2216 64.3034 41.2629C64.9633 41.2835 65.5407 40.8917 65.7882 40.273L59.9107 25.1565H64.4271L67.8505 35.406L71.1295 25.1565H75.584L69.789 40.5823ZM87.6278 35.6329C87.7103 37.0558 87.0916 38.4376 85.978 39.3037C84.7818 40.1493 83.3382 40.5617 81.874 40.4792C79.523 40.4998 77.2339 39.6749 75.4191 38.2107L77.2545 35.406C78.9043 36.6021 80.4923 37.2002 81.9977 37.2002C83.1939 37.2002 83.7919 36.829 83.7919 36.0659V36.0041C83.7919 35.5916 83.4826 35.241 82.8639 34.9729C82.6371 34.8904 81.9153 34.643 80.6779 34.2717C77.6876 33.385 76.1821 31.8795 76.1821 29.7553V29.6935C76.1409 28.3324 76.7389 27.0125 77.8113 26.1463C78.9249 25.3008 80.2861 24.8471 81.6884 24.909C83.6888 24.909 85.648 25.507 87.2978 26.6619L85.6686 29.611C84.0807 28.683 82.7195 28.2086 81.5853 28.2086C80.5335 28.2086 80.018 28.5592 80.018 29.2398V29.3016C80.018 29.6729 80.3273 30.0028 80.946 30.3122C81.1935 30.4153 81.8946 30.6834 83.0908 31.0958C84.1838 31.4258 85.2149 31.9207 86.1636 32.5601C87.1122 33.2612 87.669 34.3749 87.6484 35.571V35.6329H87.6278ZM100.661 40.2111V38.8913C99.3622 40.0049 97.6711 40.5617 95.9594 40.4998C94.1652 40.5411 92.4329 39.8193 91.2161 38.4994C89.8138 37.0352 89.1126 35.1173 89.1126 32.7044V32.6632C89.1126 30.2709 89.8138 28.3324 91.1955 26.8681C92.4329 25.5689 94.1652 24.8471 95.98 24.8677C97.6505 24.8059 99.3003 25.3008 100.682 26.2701V19.6914H104.951V40.2111H100.661ZM100.723 32.6632C100.765 31.5702 100.373 30.4771 99.6509 29.6522C99.0116 28.9098 98.0629 28.4767 97.073 28.4974C96.0831 28.4767 95.1345 28.8892 94.4952 29.6316C93.7528 30.4565 93.3609 31.5495 93.4022 32.6632V32.725C93.3609 33.8387 93.7528 34.9111 94.4952 35.736C95.8769 37.2827 98.2898 37.2827 99.6715 35.736C100.393 34.9111 100.785 33.8387 100.744 32.725V32.6632H100.723ZM107.508 23.5066V19.712H112.004V23.5066H107.508ZM107.632 40.2111V25.1565H111.901V40.2111H107.632ZM130.317 36.8084C130.317 39.5924 129.616 41.6341 128.214 42.9127C126.852 44.1501 124.77 44.7688 121.924 44.7688C119.614 44.7894 117.325 44.2532 115.262 43.2014L116.727 39.7162C118.273 40.603 120.026 41.0773 121.82 41.0979C124.687 41.0979 126.11 39.9224 126.11 37.5508V37.3858C124.708 38.4788 122.975 39.0356 121.202 38.9944C119.469 39.0356 117.778 38.3757 116.541 37.1589C115.159 35.7772 114.437 33.9005 114.52 31.962V31.9001C114.437 29.9616 115.18 28.0643 116.562 26.7032C117.799 25.4864 119.469 24.8265 121.202 24.8677C122.934 24.8265 124.625 25.3214 126.069 26.2701V25.1565H130.338V36.8084H130.317ZM126.089 31.9001C126.11 30.9515 125.718 30.0441 125.017 29.4048C123.532 28.0849 121.284 28.0849 119.799 29.4048C119.119 30.0441 118.727 30.9515 118.768 31.9001V31.962C118.727 32.9106 119.119 33.8387 119.799 34.4986C120.521 35.1379 121.449 35.4885 122.418 35.4472C123.388 35.4679 124.316 35.1173 125.038 34.4574C125.739 33.818 126.131 32.9106 126.11 31.962V31.9001H126.089Z" fill="#4E5D78"/>
<path d="M29.2684 40.1502C25.3294 40.1915 21.6792 38.0673 19.7819 34.6027C18.957 33.1591 16.7916 29.3232 16.6885 29.117C15.7398 27.4259 18.2764 26.0236 19.2251 27.694C19.2457 27.7353 21.473 31.7155 22.2979 33.1385C24.3396 36.6856 28.0929 38.0261 32.3206 36.7475C34.1766 36.1907 35.0016 38.9747 33.1661 39.5316C31.9081 39.944 30.5883 40.1502 29.2684 40.1502ZM29.5984 44.7491C24.0715 44.7491 18.8951 42.1713 16.2967 37.6549L10.3573 27.3641C9.94482 26.6629 10.1923 25.7761 10.8935 25.3843L14.9355 23.0539C15.6367 22.6415 16.5235 22.8889 16.9153 23.5695C17.3278 24.2707 17.0803 25.1574 16.3791 25.5493L13.5951 27.1579L18.8126 36.1907C21.638 41.0783 28.361 43.1199 34.5272 40.9958C39.4561 36.7268 41.044 29.8801 38.2187 24.9925L33.228 16.3721C32.8155 15.6709 33.063 14.7842 33.7436 14.3717C34.4447 13.9592 35.3315 14.2067 35.7234 14.9079L40.7141 23.5489C44.2818 29.7151 42.3227 38.2529 36.1771 43.4086C36.0533 43.5118 35.909 43.5942 35.744 43.6561C33.7848 44.3779 31.7019 44.7491 29.5984 44.7491ZM29.1447 35.4482C26.8555 35.4482 24.917 33.9221 23.9271 32.2104L6.78953 2.51357C5.84088 0.843124 8.33624 -0.600474 9.30551 1.06998L26.4431 30.7668C26.9174 31.5711 28.2373 32.9735 29.9077 32.4373C31.7432 31.8392 32.6299 34.6027 30.7945 35.2008C30.2583 35.3451 29.7221 35.4482 29.1447 35.4482ZM25.4326 20.1255C24.917 20.1255 24.4427 19.8574 24.1746 19.4037L19.3695 11.072C18.4208 9.4016 20.9162 7.958 21.8854 9.62845L25.9688 16.7021L28.5672 15.1966C30.2377 14.248 31.6813 16.7433 30.0108 17.7126L26.1544 19.9399C25.9481 20.043 25.7007 20.1255 25.4326 20.1255Z" fill="#4E5D78"/>
</svg>
