<svg width="313" height="434" viewBox="0 0 313 434" fill="none" xmlns="http://www.w3.org/2000/svg">
<g filter="url(#filter0_d_0_370)">
<rect x="26" y="21" width="260.916" height="390.732" rx="15.4236" fill="white"/>
<circle cx="156.458" cy="107.758" r="40.487" fill="#00B41D"/>
<path d="M175.167 95.2499L150.875 119.542L139.833 108.5" stroke="white" stroke-width="3" stroke-linecap="round" stroke-linejoin="round"/>
<g clip-path="url(#clip0_0_370)">
<path d="M63.7533 254.742C63.7333 255.376 63.8141 256.009 63.9927 256.617C64.1768 257.138 64.4044 257.642 64.6731 258.124C64.7646 258.269 64.8168 258.435 64.8243 258.606C64.811 258.734 64.7675 258.857 64.6974 258.965C64.6273 259.073 64.5326 259.163 64.4211 259.226L63.1611 260.113C62.9981 260.228 62.8057 260.294 62.6067 260.303C62.4896 260.299 62.3745 260.271 62.2684 260.221C62.1623 260.171 62.0674 260.1 61.9893 260.012C61.6966 259.721 61.4425 259.393 61.2333 259.036C61.0233 258.682 60.8091 258.26 60.5907 257.77C59.8528 258.696 58.9139 259.44 57.846 259.944C56.778 260.449 55.6093 260.702 54.4293 260.683C53.6673 260.725 52.9046 260.613 52.1862 260.354C51.4677 260.096 50.8081 259.695 50.2461 259.176C49.7255 258.643 49.3201 258.008 49.0556 257.311C48.791 256.613 48.673 255.868 48.7089 255.122C48.6755 254.312 48.8234 253.504 49.1418 252.759C49.4602 252.014 49.9409 251.35 50.5485 250.816C52.0074 249.661 53.8351 249.08 55.6893 249.182C56.4314 249.184 57.1725 249.239 57.9069 249.346C58.6797 249.456 59.4819 249.608 60.3135 249.802V248.257C60.4359 247.046 60.0782 245.835 59.3181 244.888C58.3457 244.136 57.1239 243.787 55.9035 243.912C55.1434 243.916 54.3865 244.01 53.6481 244.191C52.8797 244.376 52.1259 244.617 51.3927 244.913C51.1557 245.023 50.9115 245.116 50.6619 245.192H50.3343C50.0403 245.192 49.8933 244.972 49.8933 244.533V243.532C49.8753 243.278 49.9276 243.024 50.0445 242.798C50.2024 242.603 50.4059 242.451 50.6367 242.354C51.48 241.948 52.3624 241.63 53.2701 241.404C54.3361 241.129 55.4329 240.993 56.5335 240.999C58.5131 240.823 60.4821 241.437 62.0145 242.709C62.6375 243.41 63.1128 244.23 63.4116 245.12C63.7105 246.011 63.8267 246.953 63.7533 247.89V254.742ZM55.2483 257.947C55.9872 257.936 56.7193 257.804 57.4155 257.554C58.1829 257.287 58.8657 256.819 59.3937 256.199C59.719 255.834 59.96 255.402 60.0993 254.932C60.2444 254.336 60.3121 253.723 60.3009 253.108V252.222C59.6652 252.069 59.0216 251.95 58.3731 251.867C57.7212 251.783 57.0647 251.741 56.4075 251.74C55.3041 251.657 54.2057 251.957 53.2953 252.589C52.9665 252.881 52.7065 253.242 52.5343 253.648C52.3621 254.053 52.2821 254.492 52.2999 254.932C52.2701 255.337 52.3229 255.744 52.4551 256.127C52.5873 256.51 52.796 256.862 53.0685 257.162C53.3627 257.43 53.7066 257.638 54.0807 257.772C54.4547 257.907 54.8515 257.967 55.2483 257.947ZM72.0693 260.227C71.7854 260.253 71.5012 260.182 71.2629 260.024C71.0398 259.799 70.8867 259.513 70.8219 259.201L65.9205 242.912C65.8254 242.637 65.762 242.352 65.7315 242.063C65.7208 241.992 65.7268 241.92 65.749 241.852C65.7712 241.784 65.8089 241.723 65.8592 241.672C65.9095 241.622 65.9709 241.584 66.0384 241.561C66.106 241.539 66.1778 241.533 66.2481 241.544H68.3019C68.59 241.515 68.8792 241.586 69.1209 241.746C69.3294 241.979 69.4729 242.263 69.5367 242.57L73.0521 256.503L76.3155 242.57C76.3659 242.262 76.5114 241.979 76.7313 241.759C76.9839 241.602 77.2798 241.531 77.5755 241.556H79.2639C79.5596 241.531 79.8555 241.602 80.1081 241.759C80.3258 241.984 80.4669 242.272 80.5113 242.582L83.7999 256.693L87.4287 242.582C87.4956 242.274 87.6435 241.99 87.8571 241.759C88.0988 241.599 88.388 241.527 88.6761 241.556H90.6165C90.6868 241.546 90.7586 241.552 90.8262 241.574C90.8937 241.596 90.9551 241.634 91.0054 241.685C91.0557 241.735 91.0934 241.797 91.1156 241.865C91.1378 241.933 91.1438 242.005 91.1331 242.076C91.1436 242.185 91.1436 242.296 91.1331 242.405C91.0929 242.581 91.0424 242.754 90.9819 242.924L85.9419 259.214C85.8771 259.525 85.724 259.811 85.5009 260.037C85.2626 260.194 84.9784 260.266 84.6945 260.24H82.8549C82.557 260.271 82.2577 260.195 82.0107 260.024C81.7946 259.789 81.6541 259.493 81.6075 259.176L78.3441 245.61L75.1185 259.163C75.0719 259.48 74.9314 259.776 74.7153 260.012C74.4683 260.182 74.169 260.258 73.8711 260.227H72.0693ZM98.9829 260.784C97.8973 260.786 96.815 260.663 95.7573 260.417C94.9161 260.247 94.1021 259.961 93.3381 259.568C93.1084 259.471 92.9127 259.306 92.7759 259.097C92.639 258.887 92.5672 258.641 92.5695 258.39V257.326C92.5695 256.887 92.7291 256.668 93.0483 256.668C93.1819 256.67 93.3142 256.695 93.4389 256.744L93.9681 256.959C94.7076 257.288 95.4809 257.534 96.2739 257.694C97.103 257.865 97.9475 257.95 98.7939 257.947C99.8595 258.011 100.921 257.769 101.856 257.25C102.197 257.047 102.477 256.755 102.668 256.405C102.858 256.055 102.952 255.66 102.939 255.262C102.946 254.991 102.9 254.722 102.803 254.47C102.705 254.218 102.559 253.987 102.372 253.792C101.736 253.257 100.986 252.875 100.18 252.678L97.1433 251.715C95.8646 251.358 94.7256 250.615 93.8799 249.587C93.2045 248.714 92.8366 247.64 92.8341 246.534C92.8165 245.717 93.012 244.909 93.4011 244.191C93.7776 243.516 94.2879 242.925 94.9005 242.456C95.5427 241.965 96.2686 241.596 97.0425 241.366C97.8983 241.118 98.7852 240.994 99.6759 240.999C100.148 240.999 100.619 241.028 101.087 241.088C101.566 241.147 102.02 241.227 102.448 241.328C102.876 241.43 103.275 241.54 103.645 241.658C103.949 241.754 104.244 241.877 104.527 242.025C104.766 242.154 104.976 242.331 105.144 242.544C105.278 242.751 105.344 242.995 105.333 243.241V244.242C105.333 244.681 105.174 244.9 104.854 244.9C104.572 244.869 104.298 244.783 104.048 244.647C102.777 244.092 101.402 243.816 100.016 243.836C99.052 243.786 98.0917 243.991 97.2315 244.432C96.9092 244.621 96.6455 244.896 96.4698 245.227C96.294 245.558 96.2131 245.932 96.2361 246.306C96.2298 246.585 96.2815 246.862 96.3878 247.119C96.4941 247.377 96.6527 247.609 96.8535 247.801C97.5327 248.347 98.3182 248.744 99.1593 248.966L102.133 249.866C103.392 250.195 104.522 250.902 105.371 251.892C106.037 252.762 106.384 253.836 106.354 254.932C106.365 255.78 106.175 256.618 105.799 257.377C105.433 258.102 104.912 258.738 104.275 259.239C103.58 259.778 102.789 260.178 101.944 260.417C100.98 260.682 99.9823 260.806 98.9829 260.784Z" fill="#252F3E"/>
<path fill-rule="evenodd" clip-rule="evenodd" d="M102.94 271.159C96.0474 276.276 86.043 278.999 77.5002 278.999C65.9743 279.076 54.8368 274.815 46.2774 267.055C45.6348 266.472 46.2018 265.674 46.983 266.117C56.4783 271.578 67.229 274.447 78.168 274.439C86.3372 274.395 94.4172 272.729 101.944 269.537C103.103 269.043 104.086 270.31 102.94 271.159Z" fill="#FF9900"/>
<path fill-rule="evenodd" clip-rule="evenodd" d="M105.812 267.867C104.93 266.727 99.9785 267.335 97.7609 267.601C97.0931 267.677 96.9797 267.094 97.5845 266.664C101.528 263.877 108.005 264.675 108.748 265.612C109.492 266.55 108.547 273.073 104.855 276.189C104.288 276.67 103.746 276.417 103.998 275.784C104.83 273.681 106.694 269.007 105.812 267.867Z" fill="#FF9900"/>
<path d="M63.7533 254.742C63.7333 255.376 63.8141 256.009 63.9927 256.617C64.1768 257.138 64.4044 257.642 64.6731 258.124C64.7646 258.269 64.8168 258.435 64.8243 258.606C64.811 258.734 64.7675 258.857 64.6974 258.965C64.6273 259.073 64.5326 259.163 64.4211 259.226L63.1611 260.113C62.9981 260.228 62.8057 260.294 62.6067 260.303C62.4896 260.299 62.3745 260.271 62.2684 260.221C62.1623 260.171 62.0674 260.1 61.9893 260.012C61.6966 259.721 61.4425 259.393 61.2333 259.036C61.0233 258.682 60.8091 258.26 60.5907 257.77C59.8528 258.696 58.9139 259.44 57.846 259.944C56.778 260.449 55.6093 260.702 54.4293 260.683C53.6673 260.725 52.9046 260.613 52.1862 260.354C51.4677 260.096 50.8081 259.695 50.2461 259.176C49.7255 258.643 49.3201 258.008 49.0556 257.311C48.791 256.613 48.673 255.868 48.7089 255.122C48.6755 254.312 48.8234 253.504 49.1418 252.759C49.4602 252.014 49.9409 251.35 50.5485 250.816C52.0074 249.661 53.8351 249.08 55.6893 249.182C56.4314 249.184 57.1725 249.239 57.9069 249.346C58.6797 249.456 59.4819 249.608 60.3135 249.802V248.257C60.4359 247.046 60.0782 245.835 59.3181 244.888C58.3457 244.136 57.1239 243.787 55.9035 243.912C55.1434 243.916 54.3865 244.01 53.6481 244.191C52.8797 244.376 52.1259 244.617 51.3927 244.913C51.1557 245.023 50.9115 245.116 50.6619 245.192H50.3343C50.0403 245.192 49.8933 244.972 49.8933 244.533V243.532C49.8753 243.278 49.9276 243.024 50.0445 242.798C50.2024 242.603 50.4059 242.451 50.6367 242.354C51.48 241.948 52.3624 241.63 53.2701 241.404C54.3361 241.129 55.4329 240.993 56.5335 240.999C58.5131 240.823 60.4821 241.437 62.0145 242.709C62.6375 243.41 63.1128 244.23 63.4116 245.12C63.7105 246.011 63.8267 246.953 63.7533 247.89V254.742ZM55.2483 257.947C55.9872 257.936 56.7193 257.804 57.4155 257.554C58.1829 257.287 58.8657 256.819 59.3937 256.199C59.719 255.834 59.96 255.402 60.0993 254.932C60.2444 254.336 60.3121 253.723 60.3009 253.108V252.222C59.6652 252.069 59.0216 251.95 58.3731 251.867C57.7212 251.783 57.0647 251.741 56.4075 251.74C55.3041 251.657 54.2057 251.957 53.2953 252.589C52.9665 252.881 52.7065 253.242 52.5343 253.648C52.3621 254.053 52.2821 254.492 52.2999 254.932C52.2701 255.337 52.3229 255.744 52.4551 256.127C52.5873 256.51 52.796 256.862 53.0685 257.162C53.3627 257.43 53.7066 257.638 54.0807 257.772C54.4547 257.907 54.8515 257.967 55.2483 257.947ZM72.0693 260.227C71.7854 260.253 71.5012 260.182 71.2629 260.024C71.0398 259.799 70.8867 259.513 70.8219 259.201L65.9205 242.912C65.8254 242.637 65.762 242.352 65.7315 242.063C65.7208 241.992 65.7268 241.92 65.749 241.852C65.7712 241.784 65.8089 241.723 65.8592 241.672C65.9095 241.622 65.9709 241.584 66.0384 241.561C66.106 241.539 66.1778 241.533 66.2481 241.544H68.3019C68.59 241.515 68.8792 241.586 69.1209 241.746C69.3294 241.979 69.4729 242.263 69.5367 242.57L73.0521 256.503L76.3155 242.57C76.3659 242.262 76.5114 241.979 76.7313 241.759C76.9839 241.602 77.2798 241.531 77.5755 241.556H79.2639C79.5596 241.531 79.8555 241.602 80.1081 241.759C80.3258 241.984 80.4669 242.272 80.5113 242.582L83.7999 256.693L87.4287 242.582C87.4956 242.274 87.6435 241.99 87.8571 241.759C88.0988 241.599 88.388 241.527 88.6761 241.556H90.6165C90.6868 241.546 90.7586 241.552 90.8262 241.574C90.8937 241.596 90.9551 241.634 91.0054 241.685C91.0557 241.735 91.0934 241.797 91.1156 241.865C91.1378 241.933 91.1438 242.005 91.1331 242.076C91.1436 242.185 91.1436 242.296 91.1331 242.405C91.0929 242.581 91.0424 242.754 90.9819 242.924L85.9419 259.214C85.8771 259.525 85.724 259.811 85.5009 260.037C85.2626 260.194 84.9784 260.266 84.6945 260.24H82.8549C82.557 260.271 82.2577 260.195 82.0107 260.024C81.7946 259.789 81.6541 259.493 81.6075 259.176L78.3441 245.61L75.1185 259.163C75.0719 259.48 74.9314 259.776 74.7153 260.012C74.4683 260.182 74.169 260.258 73.8711 260.227H72.0693ZM98.9829 260.784C97.8973 260.786 96.815 260.663 95.7573 260.417C94.9161 260.247 94.1021 259.961 93.3381 259.568C93.1084 259.471 92.9127 259.306 92.7759 259.097C92.639 258.887 92.5672 258.641 92.5695 258.39V257.326C92.5695 256.887 92.7291 256.668 93.0483 256.668C93.1819 256.67 93.3142 256.695 93.4389 256.744L93.9681 256.959C94.7076 257.288 95.4809 257.534 96.2739 257.694C97.103 257.865 97.9475 257.95 98.7939 257.947C99.8595 258.011 100.921 257.769 101.856 257.25C102.197 257.047 102.477 256.755 102.668 256.405C102.858 256.055 102.952 255.66 102.939 255.262C102.946 254.991 102.9 254.722 102.803 254.47C102.705 254.218 102.559 253.987 102.372 253.792C101.736 253.257 100.986 252.875 100.18 252.678L97.1433 251.715C95.8646 251.358 94.7256 250.615 93.8799 249.587C93.2045 248.714 92.8366 247.64 92.8341 246.534C92.8165 245.717 93.012 244.909 93.4011 244.191C93.7776 243.516 94.2879 242.925 94.9005 242.456C95.5427 241.965 96.2686 241.596 97.0425 241.366C97.8983 241.118 98.7852 240.994 99.6759 240.999C100.148 240.999 100.619 241.028 101.087 241.088C101.566 241.147 102.02 241.227 102.448 241.328C102.876 241.43 103.275 241.54 103.645 241.658C103.949 241.754 104.244 241.877 104.527 242.025C104.766 242.154 104.976 242.331 105.144 242.544C105.278 242.751 105.344 242.995 105.333 243.241V244.242C105.333 244.681 105.174 244.9 104.854 244.9C104.572 244.869 104.298 244.783 104.048 244.647C102.777 244.092 101.402 243.816 100.016 243.836C99.052 243.786 98.0917 243.991 97.2315 244.432C96.9092 244.621 96.6455 244.896 96.4698 245.227C96.294 245.558 96.2131 245.932 96.2361 246.306C96.2298 246.585 96.2815 246.862 96.3878 247.119C96.4941 247.377 96.6527 247.609 96.8535 247.801C97.5327 248.347 98.3182 248.744 99.1593 248.966L102.133 249.866C103.392 250.195 104.522 250.902 105.371 251.892C106.037 252.762 106.384 253.836 106.354 254.932C106.365 255.78 106.175 256.618 105.799 257.377C105.433 258.102 104.912 258.738 104.275 259.239C103.58 259.778 102.789 260.178 101.944 260.417C100.98 260.682 99.9823 260.806 98.9829 260.784Z" fill="#252F3E"/>
<path fill-rule="evenodd" clip-rule="evenodd" d="M102.94 271.159C96.0474 276.276 86.043 278.999 77.5002 278.999C65.9743 279.076 54.8368 274.815 46.2774 267.055C45.6348 266.472 46.2018 265.674 46.983 266.117C56.4783 271.578 67.229 274.447 78.168 274.439C86.3372 274.395 94.4172 272.729 101.944 269.537C103.103 269.043 104.086 270.31 102.94 271.159Z" fill="#FF9900"/>
<path fill-rule="evenodd" clip-rule="evenodd" d="M105.812 267.867C104.93 266.727 99.9785 267.335 97.7609 267.601C97.0931 267.677 96.9797 267.094 97.5845 266.664C101.528 263.877 108.005 264.675 108.748 265.612C109.492 266.55 108.547 273.073 104.855 276.189C104.288 276.67 103.746 276.417 103.998 275.784C104.83 273.681 106.694 269.007 105.812 267.867Z" fill="#FF9900"/>
</g>
<line x1="49.1353" y1="214.156" x2="263.781" y2="214.156" stroke="#E8EAEF" stroke-width="1.2853"/>
<rect x="46" y="322" width="149.351" height="6.9999" fill="#F7F7F7"/>
<rect x="46" y="308" width="180.534" height="6.9999" fill="#F0F0F0"/>
<rect x="46" y="294" width="215" height="6.9999" fill="#EBEBEB"/>
<line x1="49" y1="353.357" x2="264" y2="353.357" stroke="#E8EAEF" stroke-width="1.2853"/>
<path d="M58.411 369.404V370.988H54.6862V382H53.0307V370.988H49.3239V369.404H58.411ZM65.8645 380.866C64.9408 381.778 63.8192 382.234 62.4996 382.234C61.18 382.234 60.0584 381.778 59.1347 380.866C58.223 379.955 57.7671 378.833 57.7671 377.501C57.7671 376.17 58.223 375.048 59.1347 374.137C60.0584 373.225 61.18 372.769 62.4996 372.769C63.8192 372.769 64.9408 373.225 65.8645 374.137C66.7882 375.048 67.2501 376.17 67.2501 377.501C67.2501 378.833 66.7882 379.955 65.8645 380.866ZM62.4996 380.704C63.3993 380.704 64.1551 380.399 64.7669 379.787C65.3787 379.175 65.6846 378.413 65.6846 377.501C65.6846 376.59 65.3787 375.828 64.7669 375.216C64.1551 374.604 63.3993 374.298 62.4996 374.298C61.6119 374.298 60.8621 374.604 60.2503 375.216C59.6385 375.828 59.3326 376.59 59.3326 377.501C59.3326 378.413 59.6385 379.175 60.2503 379.787C60.8621 380.399 61.6119 380.704 62.4996 380.704ZM73.7968 374.514H71.4035V379.391C71.4035 379.835 71.4875 380.153 71.6554 380.345C71.8354 380.524 72.1053 380.62 72.4652 380.632C72.8251 380.632 73.2689 380.62 73.7968 380.596V382C72.4292 382.18 71.4275 382.072 70.7917 381.676C70.1559 381.268 69.838 380.506 69.838 379.391V374.514H68.0566V373.003H69.838V370.952L71.4035 370.484V373.003H73.7968V374.514ZM82.6429 373.003H84.2084V382H82.6429V380.452C81.8631 381.64 80.7295 382.234 79.242 382.234C77.9824 382.234 76.9087 381.778 76.021 380.866C75.1333 379.943 74.6894 378.821 74.6894 377.501C74.6894 376.182 75.1333 375.066 76.021 374.155C76.9087 373.231 77.9824 372.769 79.242 372.769C80.7295 372.769 81.8631 373.363 82.6429 374.55V373.003ZM79.4399 380.722C80.3516 380.722 81.1134 380.417 81.7252 379.805C82.337 379.181 82.6429 378.413 82.6429 377.501C82.6429 376.59 82.337 375.828 81.7252 375.216C81.1134 374.592 80.3516 374.28 79.4399 374.28C78.5402 374.28 77.7845 374.592 77.1726 375.216C76.5608 375.828 76.2549 376.59 76.2549 377.501C76.2549 378.413 76.5608 379.181 77.1726 379.805C77.7845 380.417 78.5402 380.722 79.4399 380.722ZM86.5803 382V368.864H88.1458V382H86.5803Z" fill="#4E5D78"/>
<path d="M195.949 382L192.548 376.062V375.27H192.944C193.58 375.27 194.114 375.21 194.546 375.09C194.99 374.97 195.338 374.772 195.589 374.496C195.841 374.22 195.991 373.843 196.039 373.363H192.548V372.211H196.021C195.937 371.767 195.769 371.407 195.517 371.131C195.266 370.844 194.924 370.634 194.492 370.502C194.072 370.37 193.556 370.304 192.944 370.304H192.548V369.152H199.998V370.304H196.597C196.873 370.532 197.101 370.802 197.281 371.113C197.461 371.425 197.575 371.791 197.623 372.211H199.998V373.363H197.659C197.575 374.238 197.239 374.922 196.651 375.414C196.075 375.894 195.308 376.2 194.348 376.332L197.785 382H195.949ZM204.969 369.404H206.769V382H204.699V371.617L202.162 372.337L201.658 370.574L204.969 369.404ZM215.731 375.45C216.967 376.134 217.584 377.154 217.584 378.509C217.584 379.661 217.183 380.572 216.379 381.244C215.575 381.904 214.507 382.234 213.176 382.234C211.844 382.234 210.771 381.904 209.955 381.244C209.151 380.572 208.749 379.661 208.749 378.509C208.749 377.861 208.911 377.274 209.235 376.746C209.559 376.206 210.015 375.774 210.603 375.45C209.655 374.826 209.181 373.939 209.181 372.787C209.181 371.635 209.565 370.748 210.333 370.124C211.101 369.488 212.048 369.17 213.176 369.17C214.291 369.17 215.233 369.488 216.001 370.124C216.781 370.748 217.171 371.635 217.171 372.787C217.171 373.939 216.691 374.826 215.731 375.45ZM213.176 371.131C212.612 371.131 212.15 371.281 211.79 371.581C211.43 371.881 211.25 372.313 211.25 372.877C211.25 373.417 211.43 373.843 211.79 374.155C212.162 374.466 212.624 374.622 213.176 374.622C213.716 374.622 214.172 374.466 214.543 374.155C214.915 373.843 215.101 373.417 215.101 372.877C215.101 372.313 214.915 371.881 214.543 371.581C214.184 371.281 213.728 371.131 213.176 371.131ZM213.176 380.273C213.872 380.273 214.435 380.105 214.867 379.769C215.299 379.421 215.515 378.935 215.515 378.311C215.515 377.687 215.299 377.208 214.867 376.872C214.435 376.524 213.872 376.35 213.176 376.35C212.468 376.35 211.898 376.524 211.466 376.872C211.035 377.208 210.819 377.687 210.819 378.311C210.819 378.935 211.035 379.421 211.466 379.769C211.898 380.105 212.468 380.273 213.176 380.273ZM223.689 374.55C224.601 374.766 225.338 375.192 225.902 375.828C226.478 376.452 226.766 377.238 226.766 378.185C226.766 379.445 226.34 380.435 225.488 381.154C224.637 381.874 223.593 382.234 222.357 382.234C221.398 382.234 220.534 382.012 219.766 381.568C219.01 381.124 218.465 380.476 218.129 379.625L219.892 378.599C220.264 379.679 221.086 380.219 222.357 380.219C223.077 380.219 223.647 380.039 224.067 379.679C224.487 379.307 224.697 378.809 224.697 378.185C224.697 377.561 224.487 377.07 224.067 376.71C223.647 376.35 223.077 376.17 222.357 376.17H221.89L221.062 374.928L223.779 371.347H218.507V369.404H226.244V371.167L223.689 374.55ZM230.878 379.841L229.618 384.519H227.999L228.719 379.841H230.878ZM236.756 374.155C237.955 374.155 238.969 374.514 239.797 375.234C240.624 375.942 241.038 376.926 241.038 378.185C241.038 379.445 240.612 380.435 239.761 381.154C238.909 381.874 237.865 382.234 236.63 382.234C235.634 382.234 234.752 382.006 233.984 381.55C233.217 381.082 232.671 380.411 232.347 379.535L234.128 378.509C234.464 379.649 235.298 380.219 236.63 380.219C237.337 380.219 237.901 380.039 238.321 379.679C238.753 379.307 238.969 378.809 238.969 378.185C238.969 377.561 238.759 377.07 238.339 376.71C237.919 376.35 237.361 376.17 236.666 376.17H232.995L233.481 369.404H240.498V371.347H235.388L235.172 374.155H236.756ZM250.635 380.452C249.771 381.64 248.559 382.234 247 382.234C245.44 382.234 244.223 381.64 243.347 380.452C242.483 379.265 242.051 377.681 242.051 375.702C242.051 373.723 242.483 372.139 243.347 370.952C244.223 369.764 245.44 369.17 247 369.17C248.559 369.17 249.771 369.764 250.635 370.952C251.51 372.139 251.948 373.723 251.948 375.702C251.948 377.681 251.51 379.265 250.635 380.452ZM247 380.219C247.935 380.219 248.649 379.829 249.141 379.049C249.633 378.269 249.879 377.154 249.879 375.702C249.879 374.25 249.633 373.135 249.141 372.355C248.649 371.575 247.935 371.185 247 371.185C246.076 371.185 245.362 371.575 244.858 372.355C244.367 373.135 244.121 374.25 244.121 375.702C244.121 377.154 244.367 378.269 244.858 379.049C245.362 379.829 246.076 380.219 247 380.219ZM261.969 380.452C261.105 381.64 259.893 382.234 258.334 382.234C256.774 382.234 255.557 381.64 254.681 380.452C253.817 379.265 253.386 377.681 253.386 375.702C253.386 373.723 253.817 372.139 254.681 370.952C255.557 369.764 256.774 369.17 258.334 369.17C259.893 369.17 261.105 369.764 261.969 370.952C262.844 372.139 263.282 373.723 263.282 375.702C263.282 377.681 262.844 379.265 261.969 380.452ZM258.334 380.219C259.27 380.219 259.983 379.829 260.475 379.049C260.967 378.269 261.213 377.154 261.213 375.702C261.213 374.25 260.967 373.135 260.475 372.355C259.983 371.575 259.27 371.185 258.334 371.185C257.41 371.185 256.696 371.575 256.193 372.355C255.701 373.135 255.455 374.25 255.455 375.702C255.455 377.154 255.701 378.269 256.193 379.049C256.696 379.829 257.41 380.219 258.334 380.219Z" fill="#323B4B"/>
<path d="M59.8582 170.415V173.13H55.9715V184.811H53.1335V173.13H49.2673V170.415H59.8582ZM62.6666 176.297C62.9134 175.639 63.3178 175.145 63.8799 174.816C64.4558 174.487 65.0933 174.322 65.7925 174.322V177.284C64.9836 177.188 64.257 177.352 63.6126 177.777C62.982 178.202 62.6666 178.908 62.6666 179.896V184.811H60.0138V174.528H62.6666V176.297ZM74.7771 174.528H77.4299V184.811H74.7771V183.597C73.9819 184.598 72.8645 185.098 71.425 185.098C70.054 185.098 68.875 184.577 67.8878 183.536C66.9144 182.48 66.4277 181.191 66.4277 179.669C66.4277 178.148 66.9144 176.866 67.8878 175.824C68.875 174.768 70.054 174.24 71.425 174.24C72.8645 174.24 73.9819 174.741 74.7771 175.741V174.528ZM69.8826 181.767C70.4173 182.302 71.096 182.569 71.9186 182.569C72.7411 182.569 73.4198 182.302 73.9545 181.767C74.5029 181.219 74.7771 180.519 74.7771 179.669C74.7771 178.819 74.5029 178.127 73.9545 177.592C73.4198 177.044 72.7411 176.77 71.9186 176.77C71.096 176.77 70.4173 177.044 69.8826 177.592C69.3479 178.127 69.0806 178.819 69.0806 179.669C69.0806 180.519 69.3479 181.219 69.8826 181.767ZM85.5526 174.24C86.6768 174.24 87.6022 174.617 88.3288 175.371C89.0691 176.125 89.4393 177.167 89.4393 178.497V184.811H86.7865V178.826C86.7865 178.141 86.6014 177.62 86.2312 177.263C85.861 176.893 85.3675 176.708 84.7505 176.708C84.065 176.708 83.5166 176.921 83.1053 177.346C82.694 177.771 82.4884 178.408 82.4884 179.258V184.811H79.8355V174.528H82.4884V175.68C83.1328 174.72 84.1542 174.24 85.5526 174.24ZM94.1517 177.448C94.1517 177.723 94.3299 177.949 94.6864 178.127C95.0566 178.291 95.5021 178.442 96.0231 178.579C96.5441 178.703 97.0651 178.867 97.586 179.073C98.107 179.265 98.5457 179.594 98.9022 180.06C99.2724 180.526 99.4574 181.109 99.4574 181.808C99.4574 182.864 99.0599 183.679 98.2647 184.255C97.4832 184.817 96.503 185.098 95.3239 185.098C93.2126 185.098 91.773 184.283 91.0053 182.651L93.3086 181.356C93.6102 182.247 94.282 182.692 95.3239 182.692C96.2699 182.692 96.7429 182.398 96.7429 181.808C96.7429 181.534 96.5578 181.315 96.1876 181.15C95.8312 180.972 95.3925 180.814 94.8715 180.677C94.3505 180.54 93.8295 180.369 93.3086 180.163C92.7876 179.957 92.342 179.635 91.9718 179.196C91.6154 178.744 91.4372 178.182 91.4372 177.51C91.4372 176.495 91.8073 175.7 92.5477 175.125C93.3017 174.535 94.234 174.24 95.3445 174.24C96.1808 174.24 96.9417 174.432 97.6272 174.816C98.3127 175.186 98.8542 175.721 99.2518 176.42L96.9897 177.654C96.6606 176.955 96.1122 176.605 95.3445 176.605C95.0017 176.605 94.7138 176.681 94.4808 176.831C94.2614 176.982 94.1517 177.188 94.1517 177.448ZM108.838 174.528H111.49V184.811H108.838V183.597C108.042 184.598 106.925 185.098 105.486 185.098C104.115 185.098 102.935 184.577 101.948 183.536C100.975 182.48 100.488 181.191 100.488 179.669C100.488 178.148 100.975 176.866 101.948 175.824C102.935 174.768 104.115 174.24 105.486 174.24C106.925 174.24 108.042 174.741 108.838 175.741V174.528ZM103.943 181.767C104.478 182.302 105.156 182.569 105.979 182.569C106.802 182.569 107.48 182.302 108.015 181.767C108.563 181.219 108.838 180.519 108.838 179.669C108.838 178.819 108.563 178.127 108.015 177.592C107.48 177.044 106.802 176.77 105.979 176.77C105.156 176.77 104.478 177.044 103.943 177.592C103.408 178.127 103.141 178.819 103.141 179.669C103.141 180.519 103.408 181.219 103.943 181.767ZM118.79 185.098C117.241 185.098 115.946 184.577 114.904 183.536C113.875 182.494 113.361 181.205 113.361 179.669C113.361 178.134 113.875 176.845 114.904 175.803C115.946 174.761 117.241 174.24 118.79 174.24C119.791 174.24 120.703 174.48 121.526 174.96C122.348 175.44 122.972 176.084 123.397 176.893L121.114 178.23C120.909 177.805 120.593 177.469 120.168 177.222C119.757 176.975 119.291 176.852 118.77 176.852C117.975 176.852 117.317 177.119 116.796 177.654C116.275 178.175 116.014 178.847 116.014 179.669C116.014 180.478 116.275 181.15 116.796 181.685C117.317 182.206 117.975 182.466 118.77 182.466C119.305 182.466 119.778 182.35 120.189 182.117C120.614 181.87 120.929 181.534 121.135 181.109L123.438 182.425C122.986 183.234 122.348 183.885 121.526 184.379C120.703 184.859 119.791 185.098 118.79 185.098ZM130.723 177.078H128.399V181.356C128.399 181.712 128.488 181.973 128.666 182.137C128.844 182.302 129.105 182.398 129.448 182.425C129.79 182.439 130.215 182.432 130.723 182.404V184.811C128.899 185.016 127.611 184.845 126.857 184.296C126.116 183.748 125.746 182.768 125.746 181.356V177.078H123.957V174.528H125.746V172.451L128.399 171.649V174.528H130.723V177.078ZM133.909 173.294C133.471 173.294 133.087 173.137 132.758 172.821C132.442 172.492 132.285 172.108 132.285 171.67C132.285 171.231 132.442 170.847 132.758 170.518C133.087 170.189 133.471 170.024 133.909 170.024C134.362 170.024 134.746 170.189 135.061 170.518C135.39 170.847 135.555 171.231 135.555 171.67C135.555 172.108 135.39 172.492 135.061 172.821C134.746 173.137 134.362 173.294 133.909 173.294ZM132.593 184.811V174.528H135.246V184.811H132.593ZM146.435 183.536C145.379 184.577 144.09 185.098 142.569 185.098C141.047 185.098 139.758 184.577 138.702 183.536C137.66 182.48 137.139 181.191 137.139 179.669C137.139 178.148 137.66 176.866 138.702 175.824C139.758 174.768 141.047 174.24 142.569 174.24C144.09 174.24 145.379 174.768 146.435 175.824C147.49 176.866 148.018 178.148 148.018 179.669C148.018 181.191 147.49 182.48 146.435 183.536ZM140.574 181.705C141.108 182.24 141.773 182.507 142.569 182.507C143.364 182.507 144.029 182.24 144.563 181.705C145.098 181.171 145.365 180.492 145.365 179.669C145.365 178.847 145.098 178.168 144.563 177.633C144.029 177.099 143.364 176.831 142.569 176.831C141.773 176.831 141.108 177.099 140.574 177.633C140.053 178.168 139.792 178.847 139.792 179.669C139.792 180.492 140.053 181.171 140.574 181.705ZM155.602 174.24C156.726 174.24 157.651 174.617 158.378 175.371C159.118 176.125 159.488 177.167 159.488 178.497V184.811H156.835V178.826C156.835 178.141 156.65 177.62 156.28 177.263C155.91 176.893 155.416 176.708 154.8 176.708C154.114 176.708 153.566 176.921 153.154 177.346C152.743 177.771 152.537 178.408 152.537 179.258V184.811H149.885V174.528H152.537V175.68C153.182 174.72 154.203 174.24 155.602 174.24ZM169.342 177.448C169.342 177.723 169.52 177.949 169.877 178.127C170.247 178.291 170.692 178.442 171.213 178.579C171.734 178.703 172.255 178.867 172.776 179.073C173.297 179.265 173.736 179.594 174.092 180.06C174.463 180.526 174.648 181.109 174.648 181.808C174.648 182.864 174.25 183.679 173.455 184.255C172.673 184.817 171.693 185.098 170.514 185.098C168.403 185.098 166.963 184.283 166.196 182.651L168.499 181.356C168.8 182.247 169.472 182.692 170.514 182.692C171.46 182.692 171.933 182.398 171.933 181.808C171.933 181.534 171.748 181.315 171.378 181.15C171.021 180.972 170.583 180.814 170.062 180.677C169.541 180.54 169.02 180.369 168.499 180.163C167.978 179.957 167.532 179.635 167.162 179.196C166.806 178.744 166.627 178.182 166.627 177.51C166.627 176.495 166.998 175.7 167.738 175.125C168.492 174.535 169.424 174.24 170.535 174.24C171.371 174.24 172.132 174.432 172.817 174.816C173.503 175.186 174.044 175.721 174.442 176.42L172.18 177.654C171.851 176.955 171.302 176.605 170.535 176.605C170.192 176.605 169.904 176.681 169.671 176.831C169.452 176.982 169.342 177.188 169.342 177.448ZM183.14 174.528H185.793V184.811H183.14V183.659C182.496 184.619 181.474 185.098 180.076 185.098C178.952 185.098 178.019 184.721 177.279 183.967C176.553 183.213 176.189 182.171 176.189 180.842V174.528H178.842V180.512C178.842 181.198 179.027 181.726 179.397 182.096C179.767 182.452 180.261 182.631 180.878 182.631C181.563 182.631 182.112 182.418 182.523 181.993C182.934 181.568 183.14 180.931 183.14 180.081V174.528ZM193.117 185.098C191.568 185.098 190.272 184.577 189.23 183.536C188.202 182.494 187.688 181.205 187.688 179.669C187.688 178.134 188.202 176.845 189.23 175.803C190.272 174.761 191.568 174.24 193.117 174.24C194.118 174.24 195.03 174.48 195.852 174.96C196.675 175.44 197.299 176.084 197.724 176.893L195.441 178.23C195.235 177.805 194.92 177.469 194.495 177.222C194.084 176.975 193.618 176.852 193.097 176.852C192.301 176.852 191.643 177.119 191.122 177.654C190.601 178.175 190.341 178.847 190.341 179.669C190.341 180.478 190.601 181.15 191.122 181.685C191.643 182.206 192.301 182.466 193.097 182.466C193.631 182.466 194.104 182.35 194.516 182.117C194.941 181.87 195.256 181.534 195.462 181.109L197.765 182.425C197.312 183.234 196.675 183.885 195.852 184.379C195.03 184.859 194.118 185.098 193.117 185.098ZM203.902 185.098C202.352 185.098 201.057 184.577 200.015 183.536C198.987 182.494 198.472 181.205 198.472 179.669C198.472 178.134 198.987 176.845 200.015 175.803C201.057 174.761 202.352 174.24 203.902 174.24C204.902 174.24 205.814 174.48 206.637 174.96C207.459 175.44 208.083 176.084 208.508 176.893L206.225 178.23C206.02 177.805 205.704 177.469 205.279 177.222C204.868 176.975 204.402 176.852 203.881 176.852C203.086 176.852 202.428 177.119 201.907 177.654C201.386 178.175 201.125 178.847 201.125 179.669C201.125 180.478 201.386 181.15 201.907 181.685C202.428 182.206 203.086 182.466 203.881 182.466C204.416 182.466 204.889 182.35 205.3 182.117C205.725 181.87 206.04 181.534 206.246 181.109L208.549 182.425C208.097 183.234 207.459 183.885 206.637 184.379C205.814 184.859 204.902 185.098 203.902 185.098ZM212.033 180.759C212.39 182.048 213.356 182.692 214.933 182.692C215.947 182.692 216.715 182.35 217.236 181.664L219.375 182.898C218.36 184.365 216.866 185.098 214.892 185.098C213.192 185.098 211.828 184.584 210.799 183.556C209.771 182.528 209.257 181.232 209.257 179.669C209.257 178.12 209.764 176.831 210.779 175.803C211.793 174.761 213.096 174.24 214.686 174.24C216.194 174.24 217.435 174.761 218.408 175.803C219.395 176.845 219.889 178.134 219.889 179.669C219.889 180.012 219.855 180.375 219.786 180.759H212.033ZM211.992 178.703H217.236C217.085 178.004 216.77 177.483 216.29 177.14C215.824 176.797 215.289 176.626 214.686 176.626C213.973 176.626 213.384 176.811 212.918 177.181C212.451 177.537 212.143 178.045 211.992 178.703ZM223.787 177.448C223.787 177.723 223.965 177.949 224.321 178.127C224.691 178.291 225.137 178.442 225.658 178.579C226.179 178.703 226.7 178.867 227.221 179.073C227.742 179.265 228.181 179.594 228.537 180.06C228.907 180.526 229.092 181.109 229.092 181.808C229.092 182.864 228.695 183.679 227.9 184.255C227.118 184.817 226.138 185.098 224.959 185.098C222.847 185.098 221.408 184.283 220.64 182.651L222.943 181.356C223.245 182.247 223.917 182.692 224.959 182.692C225.905 182.692 226.378 182.398 226.378 181.808C226.378 181.534 226.193 181.315 225.822 181.15C225.466 180.972 225.027 180.814 224.506 180.677C223.985 180.54 223.464 180.369 222.943 180.163C222.422 179.957 221.977 179.635 221.607 179.196C221.25 178.744 221.072 178.182 221.072 177.51C221.072 176.495 221.442 175.7 222.182 175.125C222.937 174.535 223.869 174.24 224.979 174.24C225.816 174.24 226.576 174.432 227.262 174.816C227.947 175.186 228.489 175.721 228.887 176.42L226.624 177.654C226.295 176.955 225.747 176.605 224.979 176.605C224.637 176.605 224.349 176.681 224.116 176.831C223.896 176.982 223.787 177.188 223.787 177.448ZM232.703 177.448C232.703 177.723 232.882 177.949 233.238 178.127C233.608 178.291 234.054 178.442 234.575 178.579C235.096 178.703 235.617 178.867 236.138 179.073C236.659 179.265 237.097 179.594 237.454 180.06C237.824 180.526 238.009 181.109 238.009 181.808C238.009 182.864 237.611 183.679 236.816 184.255C236.035 184.817 235.055 185.098 233.876 185.098C231.764 185.098 230.325 184.283 229.557 182.651L231.86 181.356C232.162 182.247 232.834 182.692 233.876 182.692C234.822 182.692 235.294 182.398 235.294 181.808C235.294 181.534 235.109 181.315 234.739 181.15C234.383 180.972 233.944 180.814 233.423 180.677C232.902 180.54 232.381 180.369 231.86 180.163C231.339 179.957 230.894 179.635 230.523 179.196C230.167 178.744 229.989 178.182 229.989 177.51C229.989 176.495 230.359 175.7 231.099 175.125C231.853 174.535 232.786 174.24 233.896 174.24C234.732 174.24 235.493 174.432 236.179 174.816C236.864 175.186 237.406 175.721 237.803 176.42L235.541 177.654C235.212 176.955 234.664 176.605 233.896 176.605C233.553 176.605 233.265 176.681 233.032 176.831C232.813 176.982 232.703 177.188 232.703 177.448ZM245.127 172.677C243.673 172.568 242.947 173.15 242.947 174.425V174.528H245.127V177.078H242.947V184.811H240.294V177.078H238.813V174.528H240.294V174.425C240.294 172.972 240.698 171.868 241.507 171.114C242.316 170.36 243.523 170.031 245.127 170.127V172.677ZM253.129 174.528H255.782V184.811H253.129V183.659C252.485 184.619 251.463 185.098 250.065 185.098C248.941 185.098 248.008 184.721 247.268 183.967C246.541 183.213 246.178 182.171 246.178 180.842V174.528H248.831V180.512C248.831 181.198 249.016 181.726 249.386 182.096C249.756 182.452 250.25 182.631 250.867 182.631C251.552 182.631 252.101 182.418 252.512 181.993C252.923 181.568 253.129 180.931 253.129 180.081V174.528ZM258.211 184.811V169.798H260.864V184.811H258.211Z" fill="#323B4B"/>
</g>
<defs>
<filter id="filter0_d_0_370" x="0.293947" y="0.435158" width="312.328" height="442.144" filterUnits="userSpaceOnUse" color-interpolation-filters="sRGB">
<feFlood flood-opacity="0" result="BackgroundImageFix"/>
<feColorMatrix in="SourceAlpha" type="matrix" values="0 0 0 0 0 0 0 0 0 0 0 0 0 0 0 0 0 0 127 0" result="hardAlpha"/>
<feOffset dy="5.14121"/>
<feGaussianBlur stdDeviation="12.853"/>
<feComposite in2="hardAlpha" operator="out"/>
<feColorMatrix type="matrix" values="0 0 0 0 0.690196 0 0 0 0 0.717647 0 0 0 0 0.764706 0 0 0 0.14 0"/>
<feBlend mode="normal" in2="BackgroundImageFix" result="effect1_dropShadow_0_370"/>
<feBlend mode="normal" in="SourceGraphic" in2="effect1_dropShadow_0_370" result="shape"/>
</filter>
<clipPath id="clip0_0_370">
<rect width="63" height="38" fill="white" transform="translate(46 241)"/>
</clipPath>
</defs>
</svg>
