<svg width="1352" height="436" viewBox="0 0 1352 436" fill="none" xmlns="http://www.w3.org/2000/svg">
<g clip-path="url(#clip0_0_406)">
<rect x="1352" width="436" height="1352" rx="20" transform="rotate(90 1352 0)" fill="#F2FBFF"/>
<path d="M767.652 76.6101C787.4 86.2531 811.428 80.5653 828.172 64.8661L935 -35.4593L873.185 -45.8181L752.791 70.6746L767.652 76.6101Z" fill="#D4F1FE"/>
<path d="M702.945 36.2874L733.528 68.715L739.088 74.606C761.166 95.0588 795.744 95.2661 818.045 74.3567L824.531 68.0432C800.153 86.8896 769.789 83.2842 757.066 66.8112C753.641 62.357 751.789 57.3247 750.95 52.3805C748.81 40.1672 752.755 28.445 753.303 26.9283C753.285 26.9093 753.266 26.9272 753.248 26.9081L772.907 -39.4116L713.508 -56.999L695.362 4.24902C692.024 15.4729 694.938 27.7482 702.944 36.2874H702.945Z" fill="#BAEAFF"/>
<path d="M262.348 362.38C242.6 352.737 218.572 358.425 201.828 374.124L95 474.45L156.815 484.808L277.209 368.316L262.348 362.38Z" fill="#D4F1FE"/>
<path d="M327.055 402.705L296.472 370.277L290.912 364.386C268.834 343.933 234.256 343.726 211.955 364.635L205.469 370.949C229.847 352.103 260.211 355.708 272.934 372.181C276.359 376.635 278.211 381.668 279.05 386.612C281.19 398.825 277.245 410.547 276.697 412.064C276.715 412.083 276.734 412.065 276.752 412.084L257.093 478.404L316.492 495.991L334.638 434.743C337.976 423.519 335.062 411.244 327.056 402.705H327.055Z" fill="#BAEAFF"/>
<path d="M19.6361 249.151C18.9984 249.151 18.4511 248.99 17.9942 248.667C17.5399 248.342 17.1901 247.873 16.9448 247.261C16.7022 246.647 16.5808 245.907 16.5808 245.043C16.5834 244.178 16.706 243.442 16.9487 242.835C17.1939 242.226 17.5437 241.761 17.9981 241.441C18.455 241.121 19.001 240.961 19.6361 240.961C20.2711 240.961 20.8171 241.121 21.274 241.441C21.731 241.761 22.0807 242.226 22.3234 242.835C22.5687 243.445 22.6913 244.18 22.6913 245.043C22.6913 245.91 22.5687 246.651 22.3234 247.265C22.0807 247.877 21.731 248.344 21.274 248.667C20.8197 248.99 20.2737 249.151 19.6361 249.151ZM19.6361 247.939C20.1317 247.939 20.5228 247.695 20.8094 247.207C21.0985 246.717 21.243 245.995 21.243 245.043C21.243 244.413 21.1772 243.883 21.0456 243.455C20.9139 243.026 20.728 242.704 20.488 242.487C20.2479 242.267 19.9639 242.158 19.6361 242.158C19.143 242.158 18.7532 242.403 18.4666 242.893C18.1801 243.381 18.0355 244.098 18.0329 245.043C18.0304 245.675 18.0936 246.207 18.2227 246.638C18.3543 247.069 18.5402 247.394 18.7803 247.614C19.0204 247.831 19.3056 247.939 19.6361 247.939ZM27.2034 241.07V249H25.7668V242.467H25.7204L23.8655 243.652V242.336L25.8365 241.07H27.2034Z" fill="#3E4C59" fill-opacity="0.4"/>
<path d="M20.6683 287.098C19.8497 287.098 19.147 286.891 18.5604 286.477C17.977 286.059 17.5279 285.458 17.2131 284.672C16.9015 283.883 16.7457 282.934 16.7457 281.823C16.7491 280.713 16.9065 279.768 17.218 278.99C17.5329 278.207 17.982 277.611 18.5653 277.2C19.152 276.789 19.853 276.583 20.6683 276.583C21.4837 276.583 22.1847 276.789 22.7713 277.2C23.358 277.611 23.8071 278.207 24.1186 278.99C24.4335 279.772 24.5909 280.716 24.5909 281.823C24.5909 282.937 24.4335 283.888 24.1186 284.677C23.8071 285.463 23.358 286.062 22.7713 286.477C22.188 286.891 21.487 287.098 20.6683 287.098ZM20.6683 285.542C21.3047 285.542 21.8068 285.229 22.1747 284.602C22.5459 283.973 22.7315 283.046 22.7315 281.823C22.7315 281.015 22.647 280.335 22.478 279.785C22.3089 279.235 22.0703 278.82 21.7621 278.542C21.4538 278.26 21.0893 278.119 20.6683 278.119C20.0353 278.119 19.5348 278.434 19.1669 279.064C18.799 279.691 18.6134 280.61 18.6101 281.823C18.6068 282.635 18.688 283.318 18.8537 283.872C19.0227 284.425 19.2614 284.843 19.5696 285.124C19.8778 285.403 20.2441 285.542 20.6683 285.542ZM26.2427 286.904V285.572L29.7775 282.107C30.1156 281.765 30.3973 281.462 30.6227 281.197C30.8481 280.932 31.0171 280.675 31.1298 280.426C31.2425 280.178 31.2988 279.913 31.2988 279.631C31.2988 279.309 31.2259 279.034 31.0801 278.806C30.9342 278.574 30.7337 278.395 30.4785 278.269C30.2233 278.143 29.9333 278.08 29.6085 278.08C29.2737 278.08 28.9804 278.149 28.7285 278.289C28.4766 278.424 28.2811 278.618 28.1419 278.87C28.006 279.122 27.938 279.422 27.938 279.77H26.1831C26.1831 279.124 26.3306 278.562 26.6255 278.085C26.9205 277.607 27.3265 277.238 27.8436 276.976C28.3639 276.714 28.9605 276.583 29.6333 276.583C30.3161 276.583 30.916 276.711 31.4331 276.966C31.9501 277.221 32.3511 277.571 32.6362 278.015C32.9245 278.459 33.0687 278.966 33.0687 279.536C33.0687 279.918 32.9958 280.292 32.85 280.66C32.7041 281.028 32.4473 281.436 32.0794 281.883C31.7148 282.33 31.2027 282.872 30.5431 283.509L28.7882 285.294V285.363H33.2228V286.904H26.2427Z" fill="#3E4C59"/>
<path d="M19.6361 323.055C18.9984 323.055 18.4511 322.894 17.9942 322.571C17.5399 322.246 17.1901 321.777 16.9448 321.166C16.7022 320.551 16.5808 319.812 16.5808 318.947C16.5834 318.082 16.706 317.346 16.9487 316.74C17.1939 316.13 17.5437 315.666 17.9981 315.346C18.455 315.026 19.001 314.865 19.6361 314.865C20.2711 314.865 20.8171 315.026 21.274 315.346C21.731 315.666 22.0807 316.13 22.3234 316.74C22.5687 317.349 22.6913 318.085 22.6913 318.947C22.6913 319.814 22.5687 320.555 22.3234 321.17C22.0807 321.781 21.731 322.249 21.274 322.571C20.8197 322.894 20.2737 323.055 19.6361 323.055ZM19.6361 321.843C20.1317 321.843 20.5228 321.599 20.8094 321.111C21.0985 320.621 21.243 319.899 21.243 318.947C21.243 318.317 21.1772 317.788 21.0456 317.359C20.9139 316.931 20.728 316.608 20.488 316.391C20.2479 316.172 19.9639 316.062 19.6361 316.062C19.143 316.062 18.7532 316.307 18.4666 316.798C18.1801 317.286 18.0355 318.002 18.0329 318.947C18.0304 319.579 18.0936 320.111 18.2227 320.542C18.3543 320.973 18.5402 321.299 18.7803 321.518C19.0204 321.735 19.3056 321.843 19.6361 321.843ZM26.8239 323.013C26.2663 323.013 25.7707 322.917 25.337 322.726C24.9059 322.535 24.5651 322.269 24.3147 321.928C24.0643 321.588 23.9314 321.194 23.9159 320.747H25.3718C25.3848 320.962 25.4557 321.149 25.5848 321.309C25.7139 321.466 25.8856 321.589 26.0998 321.677C26.3141 321.765 26.5542 321.808 26.8201 321.808C27.104 321.808 27.3557 321.759 27.5752 321.661C27.7946 321.561 27.9663 321.421 28.0902 321.243C28.2141 321.065 28.2748 320.86 28.2722 320.627C28.2748 320.387 28.2128 320.176 28.0863 319.992C27.9598 319.809 27.7765 319.666 27.5364 319.563C27.2989 319.459 27.0124 319.408 26.6768 319.408H25.9759V318.3H26.6768C26.953 318.3 27.1944 318.252 27.4009 318.157C27.61 318.061 27.7739 317.927 27.8927 317.754C28.0114 317.579 28.0695 317.376 28.0669 317.146C28.0695 316.922 28.0192 316.727 27.9159 316.562C27.8152 316.394 27.672 316.263 27.4861 316.17C27.3028 316.077 27.0873 316.031 26.8394 316.031C26.5968 316.031 26.3722 316.075 26.1657 316.163C25.9591 316.25 25.7926 316.376 25.6661 316.538C25.5396 316.698 25.4725 316.889 25.4648 317.111H24.0824C24.0927 316.667 24.2205 316.278 24.4657 315.942C24.7136 315.604 25.044 315.34 25.457 315.152C25.8701 314.961 26.3335 314.865 26.8472 314.865C27.3764 314.865 27.8359 314.965 28.2257 315.164C28.6181 315.36 28.9214 315.624 29.1357 315.957C29.35 316.29 29.4571 316.658 29.4571 317.061C29.4597 317.508 29.328 317.882 29.0621 318.184C28.7988 318.486 28.4529 318.684 28.0243 318.776V318.838C28.582 318.916 29.0092 319.122 29.3061 319.458C29.6055 319.791 29.754 320.205 29.7514 320.701C29.7514 321.145 29.6249 321.543 29.3719 321.894C29.1215 322.242 28.7756 322.516 28.3341 322.715C27.8953 322.913 27.3919 323.013 26.8239 323.013Z" fill="#3E4C59" fill-opacity="0.4"/>
</g>
<defs>
<clipPath id="clip0_0_406">
<rect width="1352" height="436" fill="white"/>
</clipPath>
</defs>
</svg>
