<svg width="37" height="37" viewBox="0 0 37 37" fill="none" xmlns="http://www.w3.org/2000/svg">
<path opacity="0.1" fill-rule="evenodd" clip-rule="evenodd" d="M18.5 36.1274C28.165 36.1274 36 28.2924 36 18.6274C36 8.96246 28.165 1.12744 18.5 1.12744C8.83502 1.12744 1 8.96246 1 18.6274C1 28.2924 8.83502 36.1274 18.5 36.1274Z" stroke="white" stroke-width="1.5"/>
<path d="M24.2202 15.3921C24.139 15.3003 24.0081 15.2773 23.9007 15.3339C23.8339 15.369 23.7083 15.4152 23.5592 15.4608C23.7473 15.2036 23.8985 14.9156 23.9653 14.6567C23.9942 14.5452 23.952 14.4276 23.8601 14.3611C23.7682 14.2951 23.6458 14.2951 23.5539 14.3611C23.4091 14.4649 22.7102 14.7771 22.2683 14.8782C21.2696 13.9785 20.1074 13.8851 18.8992 14.6106C17.9171 15.2003 17.7034 16.3996 17.7451 17.1305C15.4971 16.9079 14.0998 15.6867 13.3132 14.676C13.2582 14.6051 13.1695 14.5677 13.0861 14.5732C12.9985 14.5798 12.9194 14.6298 12.8745 14.7073C12.5026 15.3531 12.3995 16.067 12.5774 16.7722C12.6747 17.1569 12.8446 17.496 13.0418 17.7708C12.9472 17.723 12.8558 17.6631 12.7698 17.5917C12.6907 17.5246 12.5801 17.512 12.4866 17.5565C12.3936 17.6021 12.3343 17.6988 12.3343 17.8049C12.3343 19.0157 13.0706 19.8236 13.7583 20.2457C13.6472 20.232 13.5312 20.2067 13.4142 20.1699C13.3138 20.1385 13.2048 20.1699 13.1353 20.2512C13.0658 20.332 13.0493 20.4474 13.0926 20.5458C13.4789 21.4246 14.2109 22.0292 15.1166 22.2485C14.3258 22.7261 13.2673 22.9602 12.298 22.8454C12.1724 22.8272 12.0527 22.9091 12.0132 23.0333C11.9736 23.1575 12.0255 23.2938 12.1361 23.3576C13.6066 24.2067 14.936 24.5101 16.0849 24.5101C17.7568 24.5101 19.0472 23.8682 19.8327 23.3312C21.9503 21.8857 23.2701 19.2905 23.0863 16.9684C23.4256 16.7106 23.9333 16.2347 24.248 15.723C24.3132 15.6197 24.3014 15.4834 24.2202 15.3921Z" fill="white"/>
</svg>
