<svg width="313" height="434" viewBox="0 0 313 434" fill="none" xmlns="http://www.w3.org/2000/svg">
<g filter="url(#filter0_d_1_14262)">
<rect x="26" y="21" width="260.916" height="390.732" rx="15.4236" fill="white"/>
<rect x="46" y="162" width="149.351" height="6.9999" fill="#F7F7F7"/>
<rect x="46" y="148" width="180.534" height="6.9999" fill="#F0F0F0"/>
<rect x="46" y="134" width="215" height="6.9999" fill="#EBEBEB"/>
<rect x="46" y="222" width="149.351" height="6.9999" fill="#F7F7F7"/>
<rect x="46" y="208" width="180.534" height="6.9999" fill="#F0F0F0"/>
<rect x="46" y="194" width="215" height="6.9999" fill="#EBEBEB"/>
<line x1="43" y1="280.357" x2="264" y2="280.357" stroke="#E8EAEF" stroke-width="1.2853"/>
<path d="M52.411 296.404V297.988H48.6862V309H47.0307V297.988H43.3239V296.404H52.411ZM59.8645 307.866C58.9408 308.778 57.8192 309.234 56.4996 309.234C55.18 309.234 54.0584 308.778 53.1347 307.866C52.223 306.955 51.7671 305.833 51.7671 304.501C51.7671 303.17 52.223 302.048 53.1347 301.137C54.0584 300.225 55.18 299.769 56.4996 299.769C57.8192 299.769 58.9408 300.225 59.8645 301.137C60.7882 302.048 61.2501 303.17 61.2501 304.501C61.2501 305.833 60.7882 306.955 59.8645 307.866ZM56.4996 307.704C57.3993 307.704 58.1551 307.399 58.7669 306.787C59.3787 306.175 59.6846 305.413 59.6846 304.501C59.6846 303.59 59.3787 302.828 58.7669 302.216C58.1551 301.604 57.3993 301.298 56.4996 301.298C55.6119 301.298 54.8621 301.604 54.2503 302.216C53.6385 302.828 53.3326 303.59 53.3326 304.501C53.3326 305.413 53.6385 306.175 54.2503 306.787C54.8621 307.399 55.6119 307.704 56.4996 307.704ZM67.7968 301.514H65.4035V306.391C65.4035 306.835 65.4875 307.153 65.6554 307.345C65.8354 307.524 66.1053 307.62 66.4652 307.632C66.8251 307.632 67.2689 307.62 67.7968 307.596V309C66.4292 309.18 65.4275 309.072 64.7917 308.676C64.1559 308.268 63.838 307.506 63.838 306.391V301.514H62.0566V300.003H63.838V297.952L65.4035 297.484V300.003H67.7968V301.514ZM76.6429 300.003H78.2084V309H76.6429V307.452C75.8631 308.64 74.7295 309.234 73.242 309.234C71.9824 309.234 70.9087 308.778 70.021 307.866C69.1333 306.943 68.6894 305.821 68.6894 304.501C68.6894 303.182 69.1333 302.066 70.021 301.155C70.9087 300.231 71.9824 299.769 73.242 299.769C74.7295 299.769 75.8631 300.363 76.6429 301.55V300.003ZM73.4399 307.722C74.3516 307.722 75.1134 307.417 75.7252 306.805C76.337 306.181 76.6429 305.413 76.6429 304.501C76.6429 303.59 76.337 302.828 75.7252 302.216C75.1134 301.592 74.3516 301.28 73.4399 301.28C72.5402 301.28 71.7845 301.592 71.1726 302.216C70.5608 302.828 70.2549 303.59 70.2549 304.501C70.2549 305.413 70.5608 306.181 71.1726 306.805C71.7845 307.417 72.5402 307.722 73.4399 307.722ZM80.5803 309V295.864H82.1458V309H80.5803Z" fill="#4E5D78"/>
<path d="M195.949 309L192.548 303.062V302.27H192.944C193.58 302.27 194.114 302.21 194.546 302.09C194.99 301.97 195.338 301.772 195.589 301.496C195.841 301.22 195.991 300.843 196.039 300.363H192.548V299.211H196.021C195.937 298.767 195.769 298.407 195.517 298.131C195.266 297.844 194.924 297.634 194.492 297.502C194.072 297.37 193.556 297.304 192.944 297.304H192.548V296.152H199.998V297.304H196.597C196.873 297.532 197.101 297.802 197.281 298.113C197.461 298.425 197.575 298.791 197.623 299.211H199.998V300.363H197.659C197.575 301.238 197.239 301.922 196.651 302.414C196.075 302.894 195.308 303.2 194.348 303.332L197.785 309H195.949ZM204.969 296.404H206.769V309H204.699V298.617L202.162 299.337L201.658 297.574L204.969 296.404ZM215.731 302.45C216.967 303.134 217.584 304.154 217.584 305.509C217.584 306.661 217.183 307.572 216.379 308.244C215.575 308.904 214.507 309.234 213.176 309.234C211.844 309.234 210.771 308.904 209.955 308.244C209.151 307.572 208.749 306.661 208.749 305.509C208.749 304.861 208.911 304.274 209.235 303.746C209.559 303.206 210.015 302.774 210.603 302.45C209.655 301.826 209.181 300.939 209.181 299.787C209.181 298.635 209.565 297.748 210.333 297.124C211.101 296.488 212.048 296.17 213.176 296.17C214.291 296.17 215.233 296.488 216.001 297.124C216.781 297.748 217.171 298.635 217.171 299.787C217.171 300.939 216.691 301.826 215.731 302.45ZM213.176 298.131C212.612 298.131 212.15 298.281 211.79 298.581C211.43 298.881 211.25 299.313 211.25 299.877C211.25 300.417 211.43 300.843 211.79 301.155C212.162 301.466 212.624 301.622 213.176 301.622C213.716 301.622 214.172 301.466 214.543 301.155C214.915 300.843 215.101 300.417 215.101 299.877C215.101 299.313 214.915 298.881 214.543 298.581C214.184 298.281 213.728 298.131 213.176 298.131ZM213.176 307.273C213.872 307.273 214.435 307.105 214.867 306.769C215.299 306.421 215.515 305.935 215.515 305.311C215.515 304.687 215.299 304.208 214.867 303.872C214.435 303.524 213.872 303.35 213.176 303.35C212.468 303.35 211.898 303.524 211.466 303.872C211.035 304.208 210.819 304.687 210.819 305.311C210.819 305.935 211.035 306.421 211.466 306.769C211.898 307.105 212.468 307.273 213.176 307.273ZM223.689 301.55C224.601 301.766 225.338 302.192 225.902 302.828C226.478 303.452 226.766 304.238 226.766 305.185C226.766 306.445 226.34 307.435 225.488 308.154C224.637 308.874 223.593 309.234 222.357 309.234C221.398 309.234 220.534 309.012 219.766 308.568C219.01 308.124 218.465 307.476 218.129 306.625L219.892 305.599C220.264 306.679 221.086 307.219 222.357 307.219C223.077 307.219 223.647 307.039 224.067 306.679C224.487 306.307 224.697 305.809 224.697 305.185C224.697 304.561 224.487 304.07 224.067 303.71C223.647 303.35 223.077 303.17 222.357 303.17H221.89L221.062 301.928L223.779 298.347H218.507V296.404H226.244V298.167L223.689 301.55ZM230.878 306.841L229.618 311.519H227.999L228.719 306.841H230.878ZM236.756 301.155C237.955 301.155 238.969 301.514 239.797 302.234C240.624 302.942 241.038 303.926 241.038 305.185C241.038 306.445 240.612 307.435 239.761 308.154C238.909 308.874 237.865 309.234 236.63 309.234C235.634 309.234 234.752 309.006 233.984 308.55C233.217 308.082 232.671 307.411 232.347 306.535L234.128 305.509C234.464 306.649 235.298 307.219 236.63 307.219C237.337 307.219 237.901 307.039 238.321 306.679C238.753 306.307 238.969 305.809 238.969 305.185C238.969 304.561 238.759 304.07 238.339 303.71C237.919 303.35 237.361 303.17 236.666 303.17H232.995L233.481 296.404H240.498V298.347H235.388L235.172 301.155H236.756ZM250.635 307.452C249.771 308.64 248.559 309.234 247 309.234C245.44 309.234 244.223 308.64 243.347 307.452C242.483 306.265 242.051 304.681 242.051 302.702C242.051 300.723 242.483 299.139 243.347 297.952C244.223 296.764 245.44 296.17 247 296.17C248.559 296.17 249.771 296.764 250.635 297.952C251.51 299.139 251.948 300.723 251.948 302.702C251.948 304.681 251.51 306.265 250.635 307.452ZM247 307.219C247.935 307.219 248.649 306.829 249.141 306.049C249.633 305.269 249.879 304.154 249.879 302.702C249.879 301.25 249.633 300.135 249.141 299.355C248.649 298.575 247.935 298.185 247 298.185C246.076 298.185 245.362 298.575 244.858 299.355C244.367 300.135 244.121 301.25 244.121 302.702C244.121 304.154 244.367 305.269 244.858 306.049C245.362 306.829 246.076 307.219 247 307.219ZM261.969 307.452C261.105 308.64 259.893 309.234 258.334 309.234C256.774 309.234 255.557 308.64 254.681 307.452C253.817 306.265 253.386 304.681 253.386 302.702C253.386 300.723 253.817 299.139 254.681 297.952C255.557 296.764 256.774 296.17 258.334 296.17C259.893 296.17 261.105 296.764 261.969 297.952C262.844 299.139 263.282 300.723 263.282 302.702C263.282 304.681 262.844 306.265 261.969 307.452ZM258.334 307.219C259.27 307.219 259.983 306.829 260.475 306.049C260.967 305.269 261.213 304.154 261.213 302.702C261.213 301.25 260.967 300.135 260.475 299.355C259.983 298.575 259.27 298.185 258.334 298.185C257.41 298.185 256.696 298.575 256.193 299.355C255.701 300.135 255.455 301.25 255.455 302.702C255.455 304.154 255.701 305.269 256.193 306.049C256.696 306.829 257.41 307.219 258.334 307.219Z" fill="#323B4B"/>
<g clip-path="url(#clip0_1_14262)">
<path d="M63.7533 64.7424C63.7333 65.3761 63.8141 66.009 63.9927 66.6171C64.1768 67.1379 64.4044 67.6421 64.6731 68.1244C64.7646 68.2687 64.8168 68.4347 64.8243 68.6057C64.811 68.7339 64.7675 68.8572 64.6974 68.9651C64.6273 69.073 64.5326 69.1626 64.4211 69.2264L63.1611 70.1131C62.9981 70.2282 62.8057 70.2941 62.6067 70.3031C62.4896 70.2988 62.3745 70.2709 62.2684 70.2208C62.1623 70.1707 62.0674 70.0996 61.9893 70.0117C61.6966 69.7206 61.4425 69.3928 61.2333 69.0364C61.0233 68.6817 60.8091 68.2595 60.5907 67.7697C59.8528 68.6956 58.9139 69.4395 57.846 69.9444C56.778 70.4494 55.6093 70.7021 54.4293 70.6831C53.6673 70.725 52.9046 70.6133 52.1862 70.3544C51.4677 70.0956 50.8081 69.6948 50.2461 69.1757C49.7255 68.6433 49.3201 68.0084 49.0556 67.3108C48.791 66.6132 48.673 65.8681 48.7089 65.1224C48.6755 64.3119 48.8234 63.5042 49.1418 62.7589C49.4602 62.0135 49.9409 61.3495 50.5485 60.8157C52.0074 59.6607 53.8351 59.0798 55.6893 59.1817C56.4314 59.1839 57.1725 59.2389 57.9069 59.3464C58.6797 59.4562 59.4819 59.6082 60.3135 59.8024V58.2571C60.4359 57.046 60.0782 55.8353 59.3181 54.8877C58.3457 54.136 57.1239 53.787 55.9035 53.9124C55.1434 53.9163 54.3865 54.0098 53.6481 54.1911C52.8797 54.3758 52.1259 54.6171 51.3927 54.9131C51.1557 55.0225 50.9115 55.1157 50.6619 55.1917H50.3343C50.0403 55.1917 49.8933 54.9722 49.8933 54.5331V53.5324C49.8753 53.2782 49.9276 53.0239 50.0445 52.7977C50.2024 52.603 50.4059 52.4507 50.6367 52.3544C51.48 51.9483 52.3624 51.6299 53.2701 51.4044C54.3361 51.1292 55.4329 50.993 56.5335 50.9991C58.5131 50.8227 60.4821 51.437 62.0145 52.7091C62.6375 53.4097 63.1128 54.23 63.4116 55.1204C63.7105 56.0108 63.8267 56.9529 63.7533 57.8897V64.7424ZM55.2483 67.9471C55.9872 67.9362 56.7193 67.8036 57.4155 67.5544C58.1829 67.2872 58.8657 66.8194 59.3937 66.1991C59.719 65.8344 59.96 65.4018 60.0993 64.9324C60.2444 64.3357 60.3121 63.7226 60.3009 63.1084V62.2217C59.6652 62.0685 59.0216 61.9502 58.3731 61.8671C57.7212 61.7832 57.0647 61.7409 56.4075 61.7404C55.3041 61.6572 54.2057 61.9567 53.2953 62.5891C52.9665 62.8807 52.7065 63.2423 52.5343 63.6477C52.3621 64.0531 52.2821 64.492 52.2999 64.9324C52.2701 65.337 52.3229 65.7435 52.4551 66.1269C52.5873 66.5102 52.796 66.8624 53.0685 67.1617C53.3627 67.4302 53.7066 67.6377 54.0807 67.7724C54.4547 67.9072 54.8515 67.9665 55.2483 67.9471ZM72.0693 70.2271C71.7854 70.2531 71.5012 70.1817 71.2629 70.0244C71.0398 69.7985 70.8867 69.5126 70.8219 69.2011L65.9205 52.9117C65.8254 52.637 65.762 52.3523 65.7315 52.0631C65.7208 51.9924 65.7268 51.9202 65.749 51.8523C65.7712 51.7844 65.8089 51.7226 65.8592 51.6721C65.9095 51.6216 65.9709 51.5836 66.0384 51.5613C66.106 51.539 66.1778 51.533 66.2481 51.5437H68.3019C68.59 51.5147 68.8792 51.5863 69.1209 51.7464C69.3294 51.9791 69.4729 52.2632 69.5367 52.5697L73.0521 66.5031L76.3155 52.5697C76.3659 52.2623 76.5114 51.9786 76.7313 51.7591C76.9839 51.6024 77.2798 51.5313 77.5755 51.5564H79.2639C79.5596 51.5313 79.8555 51.6024 80.1081 51.7591C80.3258 51.9837 80.4669 52.272 80.5113 52.5824L83.7999 66.6931L87.4287 52.5824C87.4956 52.2743 87.6435 51.99 87.8571 51.7591C88.0988 51.5989 88.388 51.5274 88.6761 51.5564H90.6165C90.6868 51.5456 90.7586 51.5517 90.8262 51.574C90.8937 51.5963 90.9551 51.6342 91.0054 51.6848C91.0557 51.7353 91.0934 51.797 91.1156 51.8649C91.1378 51.9329 91.1438 52.0051 91.1331 52.0757C91.1436 52.1852 91.1436 52.2955 91.1331 52.4051C91.0929 52.581 91.0424 52.7544 90.9819 52.9244L85.9419 69.2137C85.8771 69.5252 85.724 69.8112 85.5009 70.0371C85.2626 70.1944 84.9784 70.2658 84.6945 70.2397H82.8549C82.557 70.2711 82.2577 70.1948 82.0107 70.0244C81.7946 69.7886 81.6541 69.4929 81.6075 69.1757L78.3441 55.6097L75.1185 69.1631C75.0719 69.4802 74.9314 69.776 74.7153 70.0117C74.4683 70.1821 74.169 70.2584 73.8711 70.2271H72.0693ZM98.9829 70.7844C97.8973 70.7862 96.815 70.6629 95.7573 70.4171C94.9161 70.2468 94.1021 69.9613 93.3381 69.5684C93.1084 69.4706 92.9127 69.3064 92.7759 69.0967C92.639 68.887 92.5672 68.6412 92.5695 68.3904V67.3264C92.5695 66.8873 92.7291 66.6677 93.0483 66.6677C93.1819 66.6697 93.3142 66.6954 93.4389 66.7437L93.9681 66.9591C94.7076 67.288 95.4809 67.5344 96.2739 67.6937C97.103 67.8649 97.9475 67.9498 98.7939 67.9471C99.8595 68.0105 100.921 67.769 101.856 67.2504C102.197 67.0467 102.477 66.7547 102.668 66.4049C102.858 66.0551 102.952 65.6603 102.939 65.2617C102.946 64.9912 102.9 64.722 102.803 64.4698C102.705 64.2175 102.559 63.9872 102.372 63.7924C101.736 63.2566 100.986 62.8752 100.18 62.6777L97.1433 61.7151C95.8646 61.3579 94.7256 60.6152 93.8799 59.5871C93.2045 58.7141 92.8366 57.6403 92.8341 56.5344C92.8165 55.7169 93.012 54.9091 93.4011 54.1911C93.7776 53.5156 94.2879 52.925 94.9005 52.4557C95.5427 51.9648 96.2686 51.5957 97.0425 51.3664C97.8983 51.1181 98.7852 50.9944 99.6759 50.9991C100.148 50.9986 100.619 51.0283 101.087 51.0877C101.566 51.1468 102.02 51.2271 102.448 51.3284C102.876 51.4297 103.275 51.5395 103.645 51.6577C103.949 51.7536 104.244 51.8766 104.527 52.0251C104.766 52.1544 104.976 52.3311 105.144 52.5444C105.278 52.7513 105.344 52.9948 105.333 53.2411V54.2417C105.333 54.6808 105.174 54.9004 104.854 54.9004C104.572 54.8687 104.298 54.7827 104.048 54.6471C102.777 54.0918 101.402 53.8155 100.016 53.8364C99.052 53.786 98.0917 53.9913 97.2315 54.4317C96.9092 54.6209 96.6455 54.8964 96.4698 55.2274C96.294 55.5584 96.2131 55.9319 96.2361 56.3064C96.2298 56.585 96.2815 56.8619 96.3878 57.1193C96.4941 57.3766 96.6527 57.6089 96.8535 57.8011C97.5327 58.3472 98.3182 58.7441 99.1593 58.9664L102.133 59.8657C103.392 60.1947 104.522 60.9017 105.371 61.8924C106.037 62.7616 106.384 63.8355 106.354 64.9324C106.365 65.78 106.175 66.618 105.799 67.3771C105.433 68.1021 104.912 68.7377 104.275 69.2391C103.58 69.7784 102.789 70.1783 101.944 70.4171C100.98 70.682 99.9823 70.8057 98.9829 70.7844Z" fill="#252F3E"/>
<path fill-rule="evenodd" clip-rule="evenodd" d="M102.94 81.1588C96.0474 86.2761 86.043 88.9995 77.5002 88.9995C65.9743 89.0758 54.8368 84.815 46.2774 77.0548C45.6348 76.4721 46.2018 75.6741 46.983 76.1175C56.4783 81.5778 67.229 84.4467 78.168 84.4395C86.3372 84.3954 94.4172 82.7295 101.944 79.5375C103.103 79.0435 104.086 80.3101 102.94 81.1588Z" fill="#FF9900"/>
<path fill-rule="evenodd" clip-rule="evenodd" d="M105.812 77.867C104.93 76.727 99.9785 77.335 97.7609 77.601C97.0931 77.677 96.9797 77.0943 97.5845 76.6637C101.528 73.877 108.005 74.675 108.748 75.6123C109.492 76.5497 108.547 83.073 104.855 86.189C104.288 86.6703 103.746 86.417 103.998 85.7837C104.83 83.681 106.694 79.007 105.812 77.867Z" fill="#FF9900"/>
<path d="M63.7533 64.7424C63.7333 65.3761 63.8141 66.009 63.9927 66.6171C64.1768 67.1379 64.4044 67.6421 64.6731 68.1244C64.7646 68.2687 64.8168 68.4347 64.8243 68.6057C64.811 68.7339 64.7675 68.8572 64.6974 68.9651C64.6273 69.073 64.5326 69.1626 64.4211 69.2264L63.1611 70.1131C62.9981 70.2282 62.8057 70.2941 62.6067 70.3031C62.4896 70.2988 62.3745 70.2709 62.2684 70.2208C62.1623 70.1707 62.0674 70.0996 61.9893 70.0117C61.6966 69.7206 61.4425 69.3928 61.2333 69.0364C61.0233 68.6817 60.8091 68.2595 60.5907 67.7697C59.8528 68.6956 58.9139 69.4395 57.846 69.9444C56.778 70.4494 55.6093 70.7021 54.4293 70.6831C53.6673 70.725 52.9046 70.6133 52.1862 70.3544C51.4677 70.0956 50.8081 69.6948 50.2461 69.1757C49.7255 68.6433 49.3201 68.0084 49.0556 67.3108C48.791 66.6132 48.673 65.8681 48.7089 65.1224C48.6755 64.3119 48.8234 63.5042 49.1418 62.7589C49.4602 62.0135 49.9409 61.3495 50.5485 60.8157C52.0074 59.6607 53.8351 59.0798 55.6893 59.1817C56.4314 59.1839 57.1725 59.2389 57.9069 59.3464C58.6797 59.4562 59.4819 59.6082 60.3135 59.8024V58.2571C60.4359 57.046 60.0782 55.8353 59.3181 54.8877C58.3457 54.136 57.1239 53.787 55.9035 53.9124C55.1434 53.9163 54.3865 54.0098 53.6481 54.1911C52.8797 54.3758 52.1259 54.6171 51.3927 54.9131C51.1557 55.0225 50.9115 55.1157 50.6619 55.1917H50.3343C50.0403 55.1917 49.8933 54.9722 49.8933 54.5331V53.5324C49.8753 53.2782 49.9276 53.0239 50.0445 52.7977C50.2024 52.603 50.4059 52.4507 50.6367 52.3544C51.48 51.9483 52.3624 51.6299 53.2701 51.4044C54.3361 51.1292 55.4329 50.993 56.5335 50.9991C58.5131 50.8227 60.4821 51.437 62.0145 52.7091C62.6375 53.4097 63.1128 54.23 63.4116 55.1204C63.7105 56.0108 63.8267 56.9529 63.7533 57.8897V64.7424ZM55.2483 67.9471C55.9872 67.9362 56.7193 67.8036 57.4155 67.5544C58.1829 67.2872 58.8657 66.8194 59.3937 66.1991C59.719 65.8344 59.96 65.4018 60.0993 64.9324C60.2444 64.3357 60.3121 63.7226 60.3009 63.1084V62.2217C59.6652 62.0685 59.0216 61.9502 58.3731 61.8671C57.7212 61.7832 57.0647 61.7409 56.4075 61.7404C55.3041 61.6572 54.2057 61.9567 53.2953 62.5891C52.9665 62.8807 52.7065 63.2423 52.5343 63.6477C52.3621 64.0531 52.2821 64.492 52.2999 64.9324C52.2701 65.337 52.3229 65.7435 52.4551 66.1269C52.5873 66.5102 52.796 66.8624 53.0685 67.1617C53.3627 67.4302 53.7066 67.6377 54.0807 67.7724C54.4547 67.9072 54.8515 67.9665 55.2483 67.9471ZM72.0693 70.2271C71.7854 70.2531 71.5012 70.1817 71.2629 70.0244C71.0398 69.7985 70.8867 69.5126 70.8219 69.2011L65.9205 52.9117C65.8254 52.637 65.762 52.3523 65.7315 52.0631C65.7208 51.9924 65.7268 51.9202 65.749 51.8523C65.7712 51.7844 65.8089 51.7226 65.8592 51.6721C65.9095 51.6216 65.9709 51.5836 66.0384 51.5613C66.106 51.539 66.1778 51.533 66.2481 51.5437H68.3019C68.59 51.5147 68.8792 51.5863 69.1209 51.7464C69.3294 51.9791 69.4729 52.2632 69.5367 52.5697L73.0521 66.5031L76.3155 52.5697C76.3659 52.2623 76.5114 51.9786 76.7313 51.7591C76.9839 51.6024 77.2798 51.5313 77.5755 51.5564H79.2639C79.5596 51.5313 79.8555 51.6024 80.1081 51.7591C80.3258 51.9837 80.4669 52.272 80.5113 52.5824L83.7999 66.6931L87.4287 52.5824C87.4956 52.2743 87.6435 51.99 87.8571 51.7591C88.0988 51.5989 88.388 51.5274 88.6761 51.5564H90.6165C90.6868 51.5456 90.7586 51.5517 90.8262 51.574C90.8937 51.5963 90.9551 51.6342 91.0054 51.6848C91.0557 51.7353 91.0934 51.797 91.1156 51.8649C91.1378 51.9329 91.1438 52.0051 91.1331 52.0757C91.1436 52.1852 91.1436 52.2955 91.1331 52.4051C91.0929 52.581 91.0424 52.7544 90.9819 52.9244L85.9419 69.2137C85.8771 69.5252 85.724 69.8112 85.5009 70.0371C85.2626 70.1944 84.9784 70.2658 84.6945 70.2397H82.8549C82.557 70.2711 82.2577 70.1948 82.0107 70.0244C81.7946 69.7886 81.6541 69.4929 81.6075 69.1757L78.3441 55.6097L75.1185 69.1631C75.0719 69.4802 74.9314 69.776 74.7153 70.0117C74.4683 70.1821 74.169 70.2584 73.8711 70.2271H72.0693ZM98.9829 70.7844C97.8973 70.7862 96.815 70.6629 95.7573 70.4171C94.9161 70.2468 94.1021 69.9613 93.3381 69.5684C93.1084 69.4706 92.9127 69.3064 92.7759 69.0967C92.639 68.887 92.5672 68.6412 92.5695 68.3904V67.3264C92.5695 66.8873 92.7291 66.6677 93.0483 66.6677C93.1819 66.6697 93.3142 66.6954 93.4389 66.7437L93.9681 66.9591C94.7076 67.288 95.4809 67.5344 96.2739 67.6937C97.103 67.8649 97.9475 67.9498 98.7939 67.9471C99.8595 68.0105 100.921 67.769 101.856 67.2504C102.197 67.0467 102.477 66.7547 102.668 66.4049C102.858 66.0551 102.952 65.6603 102.939 65.2617C102.946 64.9912 102.9 64.722 102.803 64.4698C102.705 64.2175 102.559 63.9872 102.372 63.7924C101.736 63.2566 100.986 62.8752 100.18 62.6777L97.1433 61.7151C95.8646 61.3579 94.7256 60.6152 93.8799 59.5871C93.2045 58.7141 92.8366 57.6403 92.8341 56.5344C92.8165 55.7169 93.012 54.9091 93.4011 54.1911C93.7776 53.5156 94.2879 52.925 94.9005 52.4557C95.5427 51.9648 96.2686 51.5957 97.0425 51.3664C97.8983 51.1181 98.7852 50.9944 99.6759 50.9991C100.148 50.9986 100.619 51.0283 101.087 51.0877C101.566 51.1468 102.02 51.2271 102.448 51.3284C102.876 51.4297 103.275 51.5395 103.645 51.6577C103.949 51.7536 104.244 51.8766 104.527 52.0251C104.766 52.1544 104.976 52.3311 105.144 52.5444C105.278 52.7513 105.344 52.9948 105.333 53.2411V54.2417C105.333 54.6808 105.174 54.9004 104.854 54.9004C104.572 54.8687 104.298 54.7827 104.048 54.6471C102.777 54.0918 101.402 53.8155 100.016 53.8364C99.052 53.786 98.0917 53.9913 97.2315 54.4317C96.9092 54.6209 96.6455 54.8964 96.4698 55.2274C96.294 55.5584 96.2131 55.9319 96.2361 56.3064C96.2298 56.585 96.2815 56.8619 96.3878 57.1193C96.4941 57.3766 96.6527 57.6089 96.8535 57.8011C97.5327 58.3472 98.3182 58.7441 99.1593 58.9664L102.133 59.8657C103.392 60.1947 104.522 60.9017 105.371 61.8924C106.037 62.7616 106.384 63.8355 106.354 64.9324C106.365 65.78 106.175 66.618 105.799 67.3771C105.433 68.1021 104.912 68.7377 104.275 69.2391C103.58 69.7784 102.789 70.1783 101.944 70.4171C100.98 70.682 99.9823 70.8057 98.9829 70.7844Z" fill="#252F3E"/>
<path fill-rule="evenodd" clip-rule="evenodd" d="M102.94 81.1588C96.0474 86.2761 86.043 88.9995 77.5002 88.9995C65.9743 89.0758 54.8368 84.815 46.2774 77.0548C45.6348 76.4721 46.2018 75.6741 46.983 76.1175C56.4783 81.5778 67.229 84.4467 78.168 84.4395C86.3372 84.3954 94.4172 82.7295 101.944 79.5375C103.103 79.0435 104.086 80.3101 102.94 81.1588Z" fill="#FF9900"/>
<path fill-rule="evenodd" clip-rule="evenodd" d="M105.812 77.867C104.93 76.727 99.9785 77.335 97.7609 77.601C97.0931 77.677 96.9797 77.0943 97.5845 76.6637C101.528 73.877 108.005 74.675 108.748 75.6123C109.492 76.5497 108.547 83.073 104.855 86.189C104.288 86.6703 103.746 86.417 103.998 85.7837C104.83 83.681 106.694 79.007 105.812 77.867Z" fill="#FF9900"/>
</g>
<line x1="46" y1="103.357" x2="261" y2="103.357" stroke="#E8EAEF" stroke-width="1.2853"/>
<path d="M47.4729 255.003C48.6982 255.003 49.7136 255.44 50.519 256.314C51.333 257.179 51.7401 258.242 51.7401 259.501C51.7401 260.761 51.333 261.828 50.519 262.702C49.7136 263.567 48.6982 264 47.4729 264H43.964V255.003H47.4729ZM47.4729 262.869C48.3897 262.869 49.1395 262.548 49.7221 261.905C50.3048 261.262 50.5961 260.461 50.5961 259.501C50.5961 258.542 50.3048 257.741 49.7221 257.098C49.1395 256.455 48.3897 256.134 47.4729 256.134H45.1593V262.869H47.4729ZM53.6394 256.404C53.4252 256.404 53.2452 256.331 53.0996 256.185C52.9539 256.04 52.8811 255.864 52.8811 255.658C52.8811 255.453 52.9539 255.277 53.0996 255.131C53.2452 254.977 53.4252 254.9 53.6394 254.9C53.845 254.9 54.0207 254.977 54.1664 255.131C54.312 255.277 54.3849 255.453 54.3849 255.658C54.3849 255.864 54.312 256.04 54.1664 256.185C54.0207 256.331 53.845 256.404 53.6394 256.404ZM53.0739 264V257.573H54.1921V264H53.0739ZM56.8494 259.309C56.8494 259.557 56.9737 259.759 57.2222 259.913C57.4707 260.058 57.7706 260.178 58.1219 260.273C58.4732 260.358 58.8245 260.461 59.1758 260.581C59.5272 260.692 59.8271 260.89 60.0755 261.172C60.324 261.447 60.4483 261.802 60.4483 262.239C60.4483 262.822 60.2212 263.289 59.7671 263.64C59.3215 263.991 58.7474 264.167 58.0448 264.167C57.4193 264.167 56.8837 264.03 56.4381 263.756C55.9926 263.482 55.6755 263.117 55.487 262.663L56.451 262.111C56.5538 262.419 56.7466 262.663 57.0294 262.843C57.3121 263.023 57.6506 263.113 58.0448 263.113C58.4132 263.113 58.7174 263.045 58.9573 262.907C59.1973 262.762 59.3172 262.539 59.3172 262.239C59.3172 261.991 59.193 261.794 58.9445 261.648C58.696 261.494 58.3961 261.374 58.0448 261.288C57.6935 261.194 57.3421 261.087 56.9908 260.967C56.6395 260.847 56.3396 260.65 56.0911 260.375C55.8426 260.101 55.7184 259.75 55.7184 259.321C55.7184 258.765 55.9326 258.306 56.361 257.946C56.798 257.586 57.3421 257.406 57.9934 257.406C58.516 257.406 58.9788 257.526 59.3815 257.766C59.7928 257.998 60.1013 258.323 60.3069 258.743L59.3686 259.27C59.1373 258.722 58.6789 258.447 57.9934 258.447C57.6763 258.447 57.4064 258.525 57.1836 258.679C56.9608 258.825 56.8494 259.034 56.8494 259.309ZM64.617 264.167C63.6487 264.167 62.8433 263.846 62.2006 263.203C61.558 262.552 61.2366 261.746 61.2366 260.787C61.2366 259.827 61.558 259.026 62.2006 258.383C62.8433 257.732 63.6487 257.406 64.617 257.406C65.2511 257.406 65.8209 257.561 66.3264 257.869C66.832 258.169 67.209 258.576 67.4575 259.09L66.5192 259.63C66.3564 259.287 66.1037 259.013 65.7609 258.807C65.4267 258.602 65.0454 258.499 64.617 258.499C63.9743 258.499 63.4345 258.717 62.9975 259.154C62.5691 259.591 62.3549 260.136 62.3549 260.787C62.3549 261.429 62.5691 261.969 62.9975 262.406C63.4345 262.843 63.9743 263.062 64.617 263.062C65.0454 263.062 65.431 262.963 65.7738 262.766C66.1165 262.56 66.3778 262.286 66.5578 261.944L67.5089 262.496C67.2347 263.002 66.8406 263.409 66.3264 263.717C65.8123 264.017 65.2425 264.167 64.617 264.167ZM73.9491 263.19C73.2893 263.841 72.4881 264.167 71.5456 264.167C70.603 264.167 69.8018 263.841 69.1421 263.19C68.4908 262.539 68.1652 261.738 68.1652 260.787C68.1652 259.836 68.4908 259.034 69.1421 258.383C69.8018 257.732 70.603 257.406 71.5456 257.406C72.4881 257.406 73.2893 257.732 73.9491 258.383C74.6089 259.034 74.9388 259.836 74.9388 260.787C74.9388 261.738 74.6089 262.539 73.9491 263.19ZM71.5456 263.075C72.1882 263.075 72.728 262.856 73.165 262.419C73.6021 261.982 73.8206 261.438 73.8206 260.787C73.8206 260.136 73.6021 259.591 73.165 259.154C72.728 258.717 72.1882 258.499 71.5456 258.499C70.9115 258.499 70.3759 258.717 69.9389 259.154C69.5019 259.591 69.2834 260.136 69.2834 260.787C69.2834 261.438 69.5019 261.982 69.9389 262.419C70.3759 262.856 70.9115 263.075 71.5456 263.075ZM80.6913 257.573H81.8095V264H80.6913V263.075C80.2372 263.803 79.5431 264.167 78.6091 264.167C77.8551 264.167 77.251 263.931 76.7968 263.46C76.3427 262.98 76.1156 262.333 76.1156 261.519V257.573H77.2338V261.455C77.2338 261.978 77.3752 262.385 77.658 262.676C77.9408 262.959 78.3306 263.1 78.8276 263.1C79.3846 263.1 79.8344 262.929 80.1772 262.586C80.5199 262.235 80.6913 261.699 80.6913 260.98V257.573ZM86.7123 257.406C87.4664 257.406 88.0705 257.646 88.5246 258.126C88.9788 258.597 89.2058 259.24 89.2058 260.054V264H88.0876V260.118C88.0876 259.596 87.9462 259.193 87.6635 258.91C87.3807 258.619 86.9908 258.473 86.4938 258.473C85.9369 258.473 85.487 258.649 85.1443 259C84.8015 259.343 84.6301 259.874 84.6301 260.594V264H83.5119V257.573H84.6301V258.499C85.0843 257.771 85.7784 257.406 86.7123 257.406ZM94.2629 258.653H92.5534V262.136C92.5534 262.453 92.6134 262.68 92.7334 262.818C92.8619 262.946 93.0547 263.015 93.3118 263.023C93.5688 263.023 93.8859 263.015 94.2629 262.997V264C93.2861 264.129 92.5706 264.051 92.1164 263.769C91.6623 263.477 91.4352 262.933 91.4352 262.136V258.653H90.1628V257.573H91.4352V256.108L92.5534 255.774V257.573H94.2629V258.653Z" fill="#4E5D78"/>
<rect x="148.582" y="250" width="46.5648" height="21" rx="5.14121" fill="#E6F9EB"/>
<path d="M162.866 259.859V260.663H159.595V259.859H162.866ZM166.705 264.102C166.277 264.102 165.891 264.017 165.548 263.847C165.204 263.676 164.929 263.443 164.722 263.146C164.515 262.849 164.402 262.51 164.383 262.13H165.259C165.293 262.469 165.447 262.749 165.719 262.97C165.994 263.189 166.323 263.299 166.705 263.299C167.012 263.299 167.284 263.227 167.523 263.083C167.764 262.94 167.953 262.743 168.089 262.492C168.228 262.239 168.297 261.953 168.297 261.634C168.297 261.308 168.225 261.017 168.082 260.761C167.94 260.503 167.746 260.3 167.497 260.151C167.249 260.003 166.966 259.927 166.647 259.925C166.418 259.923 166.183 259.958 165.942 260.031C165.701 260.101 165.503 260.193 165.347 260.305L164.5 260.203L164.952 256.522H168.837V257.325H165.712L165.449 259.531H165.493C165.646 259.409 165.838 259.308 166.07 259.228C166.301 259.147 166.542 259.107 166.793 259.107C167.25 259.107 167.658 259.217 168.016 259.436C168.376 259.652 168.659 259.949 168.863 260.327C169.07 260.704 169.173 261.135 169.173 261.619C169.173 262.096 169.066 262.522 168.852 262.897C168.64 263.27 168.348 263.564 167.976 263.781C167.603 263.995 167.18 264.102 166.705 264.102ZM170.858 264L174.202 257.384V257.325H170.346V256.522H175.137V257.369L171.807 264H170.858ZM180.31 262.598V262.203C180.31 261.931 180.366 261.681 180.478 261.455C180.593 261.226 180.758 261.044 180.975 260.907C181.194 260.768 181.459 260.699 181.771 260.699C182.087 260.699 182.353 260.768 182.567 260.907C182.781 261.044 182.943 261.226 183.053 261.455C183.162 261.681 183.217 261.931 183.217 262.203V262.598C183.217 262.87 183.161 263.121 183.049 263.35C182.939 263.576 182.776 263.759 182.56 263.898C182.345 264.034 182.082 264.102 181.771 264.102C181.454 264.102 181.188 264.034 180.971 263.898C180.755 263.759 180.59 263.576 180.478 263.35C180.366 263.121 180.31 262.87 180.31 262.598ZM181.055 262.203V262.598C181.055 262.824 181.109 263.028 181.216 263.208C181.323 263.385 181.508 263.474 181.771 263.474C182.026 263.474 182.207 263.385 182.311 263.208C182.418 263.028 182.472 262.824 182.472 262.598V262.203C182.472 261.977 182.421 261.775 182.319 261.597C182.216 261.417 182.034 261.327 181.771 261.327C181.515 261.327 181.331 261.417 181.219 261.597C181.11 261.775 181.055 261.977 181.055 262.203ZM176.586 258.318V257.924C176.586 257.651 176.642 257.402 176.754 257.175C176.868 256.947 177.034 256.764 177.25 256.628C177.469 256.489 177.735 256.42 178.046 256.42C178.363 256.42 178.628 256.489 178.842 256.628C179.057 256.764 179.219 256.947 179.328 257.175C179.438 257.402 179.492 257.651 179.492 257.924V258.318C179.492 258.591 179.436 258.842 179.324 259.071C179.215 259.297 179.052 259.48 178.835 259.618C178.621 259.755 178.358 259.823 178.046 259.823C177.73 259.823 177.463 259.755 177.247 259.618C177.03 259.48 176.866 259.297 176.754 259.071C176.642 258.842 176.586 258.591 176.586 258.318ZM177.331 257.924V258.318C177.331 258.545 177.384 258.748 177.491 258.928C177.598 259.106 177.783 259.195 178.046 259.195C178.302 259.195 178.482 259.106 178.587 258.928C178.694 258.748 178.747 258.545 178.747 258.318V257.924C178.747 257.698 178.696 257.496 178.594 257.318C178.492 257.138 178.309 257.048 178.046 257.048C177.791 257.048 177.607 257.138 177.495 257.318C177.385 257.496 177.331 257.698 177.331 257.924ZM176.863 264L182.005 256.522H182.837L177.696 264H176.863Z" fill="#285D25"/>
<path d="M209.308 260.761V259.424H214.063V260.761H209.308ZM218.405 264L215.976 259.759V259.193H216.258C216.712 259.193 217.094 259.15 217.402 259.064C217.719 258.979 217.968 258.837 218.148 258.64C218.328 258.443 218.435 258.173 218.469 257.831H215.976V257.008H218.456C218.396 256.691 218.276 256.434 218.096 256.237C217.916 256.031 217.672 255.881 217.364 255.787C217.064 255.693 216.695 255.646 216.258 255.646H215.976V254.823H221.297V255.646H218.868C219.065 255.808 219.227 256.001 219.356 256.224C219.484 256.447 219.566 256.708 219.6 257.008H221.297V257.831H219.626C219.566 258.456 219.326 258.944 218.906 259.296C218.495 259.639 217.946 259.857 217.261 259.951L219.716 264H218.405ZM222.714 264V262.843L225.85 259.643C226.613 258.88 226.994 258.22 226.994 257.663C226.994 257.226 226.861 256.888 226.596 256.648C226.339 256.4 226.009 256.275 225.606 256.275C224.852 256.275 224.295 256.648 223.935 257.394L222.688 256.661C222.971 256.061 223.369 255.607 223.884 255.299C224.398 254.99 224.968 254.836 225.593 254.836C226.381 254.836 227.058 255.084 227.624 255.581C228.189 256.078 228.472 256.755 228.472 257.612C228.472 258.529 227.962 259.506 226.943 260.543L224.912 262.573H228.639V264H222.714ZM235.638 262.895C235.021 263.743 234.156 264.167 233.042 264.167C231.928 264.167 231.058 263.743 230.433 262.895C229.816 262.046 229.507 260.915 229.507 259.501C229.507 258.088 229.816 256.957 230.433 256.108C231.058 255.26 231.928 254.836 233.042 254.836C234.156 254.836 235.021 255.26 235.638 256.108C236.264 256.957 236.576 258.088 236.576 259.501C236.576 260.915 236.264 262.046 235.638 262.895ZM233.042 262.728C233.71 262.728 234.22 262.449 234.571 261.892C234.923 261.335 235.098 260.538 235.098 259.501C235.098 258.465 234.923 257.668 234.571 257.111C234.22 256.554 233.71 256.275 233.042 256.275C232.382 256.275 231.872 256.554 231.512 257.111C231.161 257.668 230.985 258.465 230.985 259.501C230.985 260.538 231.161 261.335 231.512 261.892C231.872 262.449 232.382 262.728 233.042 262.728ZM239.438 262.458L238.538 265.799H237.381L237.895 262.458H239.438ZM246.357 262.895C245.74 263.743 244.875 264.167 243.761 264.167C242.647 264.167 241.777 263.743 241.152 262.895C240.535 262.046 240.226 260.915 240.226 259.501C240.226 258.088 240.535 256.957 241.152 256.108C241.777 255.26 242.647 254.836 243.761 254.836C244.875 254.836 245.74 255.26 246.357 256.108C246.983 256.957 247.296 258.088 247.296 259.501C247.296 260.915 246.983 262.046 246.357 262.895ZM243.761 262.728C244.429 262.728 244.939 262.449 245.291 261.892C245.642 261.335 245.817 260.538 245.817 259.501C245.817 258.465 245.642 257.668 245.291 257.111C244.939 256.554 244.429 256.275 243.761 256.275C243.101 256.275 242.591 256.554 242.231 257.111C241.88 257.668 241.705 258.465 241.705 259.501C241.705 260.538 241.88 261.335 242.231 261.892C242.591 262.449 243.101 262.728 243.761 262.728ZM254.453 262.895C253.836 263.743 252.971 264.167 251.857 264.167C250.743 264.167 249.873 263.743 249.248 262.895C248.631 262.046 248.322 260.915 248.322 259.501C248.322 258.088 248.631 256.957 249.248 256.108C249.873 255.26 250.743 254.836 251.857 254.836C252.971 254.836 253.836 255.26 254.453 256.108C255.079 256.957 255.391 258.088 255.391 259.501C255.391 260.915 255.079 262.046 254.453 262.895ZM251.857 262.728C252.525 262.728 253.035 262.449 253.386 261.892C253.738 261.335 253.913 260.538 253.913 259.501C253.913 258.465 253.738 257.668 253.386 257.111C253.035 256.554 252.525 256.275 251.857 256.275C251.197 256.275 250.687 256.554 250.327 257.111C249.976 257.668 249.8 258.465 249.8 259.501C249.8 260.538 249.976 261.335 250.327 261.892C250.687 262.449 251.197 262.728 251.857 262.728ZM262.549 262.895C261.932 263.743 261.067 264.167 259.953 264.167C258.839 264.167 257.969 263.743 257.344 262.895C256.727 262.046 256.418 260.915 256.418 259.501C256.418 258.088 256.727 256.957 257.344 256.108C257.969 255.26 258.839 254.836 259.953 254.836C261.067 254.836 261.932 255.26 262.549 256.108C263.175 256.957 263.487 258.088 263.487 259.501C263.487 260.915 263.175 262.046 262.549 262.895ZM259.953 262.728C260.621 262.728 261.131 262.449 261.482 261.892C261.834 261.335 262.009 260.538 262.009 259.501C262.009 258.465 261.834 257.668 261.482 257.111C261.131 256.554 260.621 256.275 259.953 256.275C259.293 256.275 258.783 256.554 258.423 257.111C258.072 257.668 257.896 258.465 257.896 259.501C257.896 260.538 258.072 261.335 258.423 261.892C258.783 262.449 259.293 262.728 259.953 262.728Z" fill="#40903B"/>
<rect x="46" y="348" width="218" height="38.5604" rx="19.2802" fill="#5B2EBC"/>
<path d="M83.5201 370.28V363.303H86.0072C86.5501 363.303 86.9998 363.402 87.3564 363.599C87.713 363.797 87.9799 364.067 88.157 364.41C88.3342 364.751 88.4228 365.135 88.4228 365.562C88.4228 365.991 88.333 366.377 88.1536 366.72C87.9764 367.061 87.7084 367.331 87.3496 367.531C86.993 367.728 86.5444 367.827 86.0038 367.827H84.2935V366.935H85.9084C86.2514 366.935 86.5296 366.876 86.7431 366.757C86.9566 366.637 87.1133 366.473 87.2133 366.267C87.3132 366.06 87.3632 365.825 87.3632 365.562C87.3632 365.298 87.3132 365.064 87.2133 364.86C87.1133 364.655 86.9555 364.495 86.7397 364.379C86.5262 364.264 86.2446 364.206 85.8948 364.206H84.5729V370.28H83.5201ZM91.1883 370.396C90.8567 370.396 90.5569 370.335 90.2889 370.212C90.0208 370.087 89.8085 369.907 89.6517 369.67C89.4973 369.434 89.4201 369.145 89.4201 368.802C89.4201 368.506 89.4769 368.263 89.5904 368.072C89.704 367.882 89.8573 367.731 90.0504 367.619C90.2434 367.508 90.4592 367.424 90.6977 367.367C90.9362 367.31 91.1792 367.267 91.4268 367.238C91.7402 367.201 91.9946 367.172 92.1899 367.149C92.3853 367.124 92.5272 367.084 92.6158 367.03C92.7044 366.975 92.7487 366.887 92.7487 366.764V366.74C92.7487 366.443 92.6646 366.212 92.4966 366.049C92.3308 365.885 92.0832 365.803 91.7538 365.803C91.4109 365.803 91.1406 365.88 90.943 366.032C90.7477 366.182 90.6125 366.349 90.5376 366.533L89.5802 366.315C89.6938 365.997 89.8596 365.74 90.0776 365.545C90.2979 365.347 90.5512 365.204 90.8374 365.115C91.1236 365.024 91.4245 364.979 91.7402 364.979C91.9492 364.979 92.1706 365.004 92.4046 365.054C92.6408 365.102 92.8611 365.19 93.0655 365.32C93.2722 365.449 93.4414 365.634 93.5732 365.875C93.7049 366.113 93.7708 366.424 93.7708 366.805V370.28H92.7759V369.565H92.7351C92.6692 369.696 92.5704 369.826 92.4386 369.953C92.3069 370.08 92.1377 370.186 91.931 370.27C91.7243 370.354 91.4767 370.396 91.1883 370.396ZM91.4097 369.578C91.6914 369.578 91.9321 369.523 92.132 369.411C92.3342 369.3 92.4875 369.155 92.592 368.975C92.6987 368.794 92.7521 368.599 92.7521 368.393V367.718C92.7157 367.755 92.6453 367.789 92.5409 367.82C92.4386 367.85 92.3217 367.876 92.1899 367.899C92.0582 367.919 91.9299 367.938 91.805 367.957C91.68 367.973 91.5755 367.986 91.4915 367.998C91.2939 368.023 91.1133 368.065 90.9498 368.124C90.7885 368.183 90.6591 368.268 90.5614 368.379C90.466 368.488 90.4183 368.634 90.4183 368.815C90.4183 369.067 90.5114 369.258 90.6977 369.388C90.8839 369.515 91.1213 369.578 91.4097 369.578ZM95.7212 372.243C95.569 372.243 95.4305 372.23 95.3055 372.205C95.1806 372.182 95.0875 372.157 95.0262 372.13L95.2715 371.295C95.4577 371.345 95.6235 371.367 95.7689 371.36C95.9142 371.353 96.0426 371.299 96.1539 371.197C96.2674 371.094 96.3674 370.928 96.4537 370.696L96.5797 370.348L94.665 365.047H95.7553L97.0806 369.108H97.1351L98.4604 365.047H99.554L97.3974 370.979C97.2975 371.251 97.1703 371.482 97.0158 371.67C96.8614 371.861 96.6774 372.004 96.4639 372.1C96.2504 372.195 96.0028 372.243 95.7212 372.243ZM104.343 363.303V370.28H103.325V363.303H104.343ZM107.374 370.396C107.042 370.396 106.742 370.335 106.474 370.212C106.206 370.087 105.994 369.907 105.837 369.67C105.683 369.434 105.605 369.145 105.605 368.802C105.605 368.506 105.662 368.263 105.776 368.072C105.889 367.882 106.043 367.731 106.236 367.619C106.429 367.508 106.645 367.424 106.883 367.367C107.122 367.31 107.365 367.267 107.612 367.238C107.926 367.201 108.18 367.172 108.375 367.149C108.571 367.124 108.713 367.084 108.801 367.03C108.89 366.975 108.934 366.887 108.934 366.764V366.74C108.934 366.443 108.85 366.212 108.682 366.049C108.516 365.885 108.269 365.803 107.939 365.803C107.596 365.803 107.326 365.88 107.128 366.032C106.933 366.182 106.798 366.349 106.723 366.533L105.766 366.315C105.879 365.997 106.045 365.74 106.263 365.545C106.483 365.347 106.737 365.204 107.023 365.115C107.309 365.024 107.61 364.979 107.926 364.979C108.135 364.979 108.356 365.004 108.59 365.054C108.826 365.102 109.046 365.19 109.251 365.32C109.458 365.449 109.627 365.634 109.759 365.875C109.89 366.113 109.956 366.424 109.956 366.805V370.28H108.961V369.565H108.92C108.855 369.696 108.756 369.826 108.624 369.953C108.492 370.08 108.323 370.186 108.116 370.27C107.91 370.354 107.662 370.396 107.374 370.396ZM107.595 369.578C107.877 369.578 108.117 369.523 108.317 369.411C108.52 369.3 108.673 369.155 108.777 368.975C108.884 368.794 108.937 368.599 108.937 368.393V367.718C108.901 367.755 108.831 367.789 108.726 367.82C108.624 367.85 108.507 367.876 108.375 367.899C108.244 367.919 108.115 367.938 107.99 367.957C107.865 367.973 107.761 367.986 107.677 367.998C107.479 368.023 107.299 368.065 107.135 368.124C106.974 368.183 106.844 368.268 106.747 368.379C106.651 368.488 106.604 368.634 106.604 368.815C106.604 369.067 106.697 369.258 106.883 369.388C107.069 369.515 107.307 369.578 107.595 369.578ZM113.893 365.047V365.865H111.034V365.047H113.893ZM111.801 363.793H112.82V368.744C112.82 368.941 112.849 369.09 112.908 369.19C112.967 369.288 113.043 369.355 113.136 369.391C113.232 369.425 113.335 369.442 113.446 369.442C113.528 369.442 113.6 369.436 113.661 369.425C113.722 369.414 113.77 369.405 113.804 369.398L113.988 370.239C113.929 370.262 113.845 370.285 113.736 370.307C113.627 370.332 113.491 370.346 113.327 370.348C113.059 370.353 112.809 370.305 112.578 370.205C112.346 370.105 112.159 369.951 112.016 369.742C111.872 369.533 111.801 369.271 111.801 368.955V363.793ZM117.356 370.386C116.84 370.386 116.396 370.276 116.024 370.055C115.654 369.833 115.367 369.52 115.165 369.118C114.965 368.714 114.865 368.241 114.865 367.698C114.865 367.162 114.965 366.689 115.165 366.28C115.367 365.872 115.649 365.552 116.01 365.323C116.374 365.094 116.798 364.979 117.284 364.979C117.58 364.979 117.866 365.028 118.143 365.125C118.42 365.223 118.669 365.376 118.889 365.585C119.109 365.794 119.283 366.066 119.41 366.4C119.537 366.731 119.601 367.134 119.601 367.609V367.97H115.441V367.207H118.603C118.603 366.939 118.548 366.702 118.439 366.495C118.33 366.286 118.177 366.121 117.979 366.001C117.784 365.881 117.555 365.82 117.291 365.82C117.005 365.82 116.755 365.891 116.542 366.032C116.33 366.17 116.167 366.352 116.051 366.577C115.937 366.799 115.881 367.041 115.881 367.303V367.899C115.881 368.249 115.942 368.546 116.065 368.791C116.19 369.037 116.363 369.224 116.586 369.354C116.809 369.481 117.069 369.544 117.366 369.544C117.559 369.544 117.735 369.517 117.894 369.463C118.053 369.406 118.191 369.322 118.306 369.21C118.422 369.099 118.511 368.962 118.572 368.798L119.536 368.972C119.459 369.256 119.321 369.505 119.121 369.718C118.923 369.929 118.674 370.094 118.375 370.212C118.077 370.328 117.737 370.386 117.356 370.386ZM120.868 370.28V365.047H121.853V365.878H121.908C122.003 365.597 122.171 365.375 122.412 365.214C122.655 365.051 122.93 364.969 123.236 364.969C123.3 364.969 123.375 364.971 123.461 364.976C123.55 364.98 123.619 364.986 123.669 364.993V365.967C123.628 365.956 123.555 365.943 123.451 365.93C123.346 365.914 123.242 365.906 123.137 365.906C122.897 365.906 122.682 365.957 122.494 366.059C122.307 366.159 122.16 366.299 122.051 366.478C121.942 366.655 121.887 366.857 121.887 367.084V370.28H120.868ZM128.498 370.28L126.958 365.047H128.011L129.036 368.89H129.088L130.116 365.047H131.169L132.191 368.873H132.242L133.261 365.047H134.314L132.777 370.28H131.738L130.675 366.502H130.597L129.534 370.28H128.498ZM135.418 370.28V365.047H136.436V370.28H135.418ZM135.932 364.24C135.755 364.24 135.603 364.181 135.476 364.063C135.351 363.942 135.288 363.799 135.288 363.633C135.288 363.465 135.351 363.322 135.476 363.204C135.603 363.084 135.755 363.023 135.932 363.023C136.109 363.023 136.26 363.084 136.385 363.204C136.512 363.322 136.576 363.465 136.576 363.633C136.576 363.799 136.512 363.942 136.385 364.063C136.26 364.181 136.109 364.24 135.932 364.24ZM140.387 365.047V365.865H137.528V365.047H140.387ZM138.295 363.793H139.313V368.744C139.313 368.941 139.343 369.09 139.402 369.19C139.461 369.288 139.537 369.355 139.63 369.391C139.726 369.425 139.829 369.442 139.94 369.442C140.022 369.442 140.094 369.436 140.155 369.425C140.216 369.414 140.264 369.405 140.298 369.398L140.482 370.239C140.423 370.262 140.339 370.285 140.23 370.307C140.121 370.332 139.985 370.346 139.821 370.348C139.553 370.353 139.303 370.305 139.072 370.205C138.84 370.105 138.652 369.951 138.509 369.742C138.366 369.533 138.295 369.271 138.295 368.955V363.793ZM142.782 367.173V370.28H141.763V363.303H142.768V365.899H142.833C142.955 365.617 143.143 365.393 143.395 365.228C143.647 365.062 143.976 364.979 144.383 364.979C144.742 364.979 145.055 365.053 145.323 365.2C145.594 365.348 145.802 365.568 145.95 365.861C146.1 366.152 146.175 366.516 146.175 366.952V370.28H145.156V367.074C145.156 366.69 145.057 366.393 144.86 366.182C144.662 365.968 144.387 365.861 144.035 365.861C143.795 365.861 143.579 365.912 143.388 366.015C143.2 366.117 143.051 366.267 142.942 366.464C142.835 366.66 142.782 366.896 142.782 367.173Z" fill="white"/>
<path d="M176.291 372.258C175.333 372.258 174.517 372.041 173.843 371.607C173.179 371.173 172.714 370.579 172.448 369.825L173.857 369.005C174.256 370.117 175.081 370.674 176.334 370.674C176.951 370.674 177.411 370.556 177.715 370.32C178.028 370.075 178.184 369.759 178.184 369.372C178.184 368.967 178.018 368.66 177.686 368.453C177.354 368.236 176.766 368 175.921 367.746C175.447 367.604 175.062 367.472 174.768 367.349C174.474 367.227 174.161 367.057 173.829 366.84C173.506 366.614 173.264 366.336 173.103 366.006C172.942 365.676 172.861 365.289 172.861 364.846C172.861 363.969 173.174 363.276 173.8 362.766C174.427 362.248 175.181 361.988 176.063 361.988C176.861 361.988 177.558 362.182 178.156 362.568C178.754 362.955 179.214 363.488 179.536 364.167L178.156 364.959C177.738 364.035 177.041 363.573 176.063 363.573C175.589 363.573 175.209 363.686 174.925 363.912C174.64 364.129 174.498 364.426 174.498 364.803C174.498 365.171 174.64 365.463 174.925 365.68C175.219 365.888 175.746 366.109 176.505 366.345C176.884 366.468 177.159 366.562 177.33 366.628C177.511 366.685 177.757 366.779 178.07 366.911C178.393 367.043 178.635 367.175 178.796 367.307C178.958 367.439 179.128 367.604 179.309 367.802C179.498 368 179.631 368.226 179.707 368.481C179.783 368.736 179.821 369.023 179.821 369.344C179.821 370.24 179.494 370.952 178.839 371.48C178.194 371.999 177.344 372.258 176.291 372.258Z" fill="white"/>
<path d="M186.393 365.001H187.931V372.074H186.393V371.056C185.815 371.857 184.984 372.258 183.903 372.258C182.925 372.258 182.09 371.9 181.397 371.183C180.705 370.457 180.358 369.575 180.358 368.538C180.358 367.491 180.705 366.609 181.397 365.892C182.09 365.176 182.925 364.817 183.903 364.817C184.984 364.817 185.815 365.213 186.393 366.006V365.001ZM182.536 370.164C182.963 370.589 183.499 370.801 184.145 370.801C184.79 370.801 185.326 370.589 185.753 370.164C186.18 369.731 186.393 369.188 186.393 368.538C186.393 367.887 186.18 367.349 185.753 366.925C185.326 366.491 184.79 366.274 184.145 366.274C183.499 366.274 182.963 366.491 182.536 366.925C182.109 367.349 181.896 367.887 181.896 368.538C181.896 369.188 182.109 369.731 182.536 370.164Z" fill="white"/>
<path d="M194.789 365.001H196.327V372.074H194.789V371.056C194.211 371.857 193.38 372.258 192.299 372.258C191.321 372.258 190.486 371.9 189.793 371.183C189.101 370.457 188.754 369.575 188.754 368.538C188.754 367.491 189.101 366.609 189.793 365.892C190.486 365.176 191.321 364.817 192.299 364.817C193.38 364.817 194.211 365.213 194.789 366.006V365.001ZM190.932 370.164C191.359 370.589 191.895 370.801 192.541 370.801C193.186 370.801 193.722 370.589 194.149 370.164C194.576 369.731 194.789 369.188 194.789 368.538C194.789 367.887 194.576 367.349 194.149 366.925C193.722 366.491 193.186 366.274 192.541 366.274C191.895 366.274 191.359 366.491 190.932 366.925C190.505 367.349 190.292 367.887 190.292 368.538C190.292 369.188 190.505 369.731 190.932 370.164Z" fill="white"/>
<path d="M200.965 372.258C200.007 372.258 199.191 372.041 198.517 371.607C197.853 371.173 197.388 370.579 197.122 369.825L198.531 369.005C198.93 370.117 199.755 370.674 201.008 370.674C201.625 370.674 202.085 370.556 202.388 370.32C202.702 370.075 202.858 369.759 202.858 369.372C202.858 368.967 202.692 368.66 202.36 368.453C202.028 368.236 201.439 368 200.595 367.746C200.121 367.604 199.736 367.472 199.442 367.349C199.148 367.227 198.835 367.057 198.503 366.84C198.18 366.614 197.938 366.336 197.777 366.006C197.615 365.676 197.535 365.289 197.535 364.846C197.535 363.969 197.848 363.276 198.474 362.766C199.1 362.248 199.855 361.988 200.737 361.988C201.534 361.988 202.232 362.182 202.83 362.568C203.427 362.955 203.888 363.488 204.21 364.167L202.83 364.959C202.412 364.035 201.715 363.573 200.737 363.573C200.263 363.573 199.883 363.686 199.599 363.912C199.314 364.129 199.172 364.426 199.172 364.803C199.172 365.171 199.314 365.463 199.599 365.68C199.893 365.888 200.419 366.109 201.179 366.345C201.558 366.468 201.833 366.562 202.004 366.628C202.184 366.685 202.431 366.779 202.744 366.911C203.067 367.043 203.309 367.175 203.47 367.307C203.631 367.439 203.802 367.604 203.983 367.802C204.172 368 204.305 368.226 204.381 368.481C204.457 368.736 204.495 369.023 204.495 369.344C204.495 370.24 204.168 370.952 203.513 371.48C202.868 371.999 202.018 372.258 200.965 372.258Z" fill="white"/>
<path d="M208.979 362.172C209.871 362.172 210.611 362.465 211.2 363.049C211.788 363.634 212.082 364.365 212.082 365.242C212.082 366.119 211.788 366.85 211.2 367.434C210.611 368.01 209.871 368.297 208.979 368.297H206.346V372.074H205.592V362.172H208.979ZM208.979 367.59C209.662 367.59 210.222 367.368 210.659 366.925C211.105 366.482 211.328 365.921 211.328 365.242C211.328 364.553 211.105 363.988 210.659 363.544C210.222 363.101 209.662 362.879 208.979 362.879H206.346V367.59H208.979Z" fill="white"/>
<path d="M218.927 365.001H219.652V372.074H218.927V370.476C218.623 371.023 218.205 371.452 217.674 371.763C217.143 372.074 216.54 372.23 215.866 372.23C214.851 372.23 213.983 371.876 213.262 371.169C212.541 370.452 212.18 369.575 212.18 368.538C212.18 367.5 212.541 366.628 213.262 365.921C213.983 365.204 214.851 364.846 215.866 364.846C216.54 364.846 217.143 365.001 217.674 365.313C218.205 365.624 218.623 366.053 218.927 366.6V365.001ZM213.774 370.674C214.362 371.258 215.079 371.551 215.923 371.551C216.768 371.551 217.48 371.258 218.058 370.674C218.637 370.089 218.927 369.377 218.927 368.538C218.927 367.698 218.637 366.986 218.058 366.402C217.48 365.817 216.768 365.525 215.923 365.525C215.079 365.525 214.362 365.817 213.774 366.402C213.195 366.986 212.906 367.698 212.906 368.538C212.906 369.377 213.195 370.089 213.774 370.674Z" fill="white"/>
<path d="M226.478 365.001H227.246L224.172 372.725C223.897 373.423 223.508 373.97 223.005 374.366C222.502 374.771 221.952 374.95 221.354 374.903V374.238C221.809 374.276 222.217 374.144 222.578 373.842C222.948 373.55 223.247 373.13 223.475 372.583L223.631 372.201L220.357 365.001H221.126L224.001 371.296L226.478 365.001Z" fill="white"/>
<path d="M168.094 359.65L165.823 363.526H156.674C156.501 363.265 156.369 362.957 156.335 362.606C156.285 362.095 156.449 361.558 156.784 361.084C157.45 360.213 158.502 359.65 159.685 359.65H168.094Z" fill="#00B88B"/>
<path d="M163.309 374.882H163.309L163.6 374.884L163.309 374.882ZM164.823 369.944C164.822 369.945 164.822 369.946 164.821 369.948C164.912 369.994 165.597 370.361 166.027 371.009C166.201 371.271 166.333 371.579 166.367 371.93C166.416 372.441 166.252 372.977 165.917 373.453V373.453C165.251 374.322 164.199 374.886 163.016 374.886H163.889H163.891C165.815 374.886 167.395 373.396 167.528 371.517L167.53 371.009L167.539 368.22C167.539 367.487 167.144 366.802 166.507 366.432L163.329 364.558L161.38 368.007L164.823 369.944Z" fill="white"/>
<path d="M157.878 364.594C157.879 364.593 157.879 364.591 157.88 364.59C157.79 364.543 157.104 364.176 156.674 363.528C156.5 363.266 156.368 362.959 156.334 362.607C156.285 362.097 156.45 361.56 156.784 361.085V361.085C157.45 360.215 158.502 359.652 159.685 359.652H158.813H158.81C156.886 359.652 155.306 361.141 155.173 363.021L155.171 363.528L155.162 366.317C155.162 367.051 155.558 367.736 156.194 368.106L159.32 369.887L161.269 366.641L157.878 364.594Z" fill="white"/>
<path d="M154.606 374.886L156.878 371.009H166.027C166.2 371.27 166.332 371.579 166.366 371.93C166.415 372.44 166.251 372.977 165.917 373.452C165.25 374.322 164.198 374.886 163.015 374.886H154.606Z" fill="#00B88B"/>
</g>
<defs>
<filter id="filter0_d_1_14262" x="0.293947" y="0.435158" width="312.328" height="442.144" filterUnits="userSpaceOnUse" color-interpolation-filters="sRGB">
<feFlood flood-opacity="0" result="BackgroundImageFix"/>
<feColorMatrix in="SourceAlpha" type="matrix" values="0 0 0 0 0 0 0 0 0 0 0 0 0 0 0 0 0 0 127 0" result="hardAlpha"/>
<feOffset dy="5.14121"/>
<feGaussianBlur stdDeviation="12.853"/>
<feComposite in2="hardAlpha" operator="out"/>
<feColorMatrix type="matrix" values="0 0 0 0 0.690196 0 0 0 0 0.717647 0 0 0 0 0.764706 0 0 0 0.14 0"/>
<feBlend mode="normal" in2="BackgroundImageFix" result="effect1_dropShadow_1_14262"/>
<feBlend mode="normal" in="SourceGraphic" in2="effect1_dropShadow_1_14262" result="shape"/>
</filter>
<clipPath id="clip0_1_14262">
<rect width="63" height="38" fill="white" transform="translate(46 51)"/>
</clipPath>
</defs>
</svg>
